<svg width="25" height="25" viewBox="0 0 25 25" fill="none" xmlns="http://www.w3.org/2000/svg">
<g clip-path="url(#clip0_356_184)">
<path d="M12.5 0.625C5.94163 0.625 0.625 5.94163 0.625 12.5C0.625 19.0584 5.94163 24.375 12.5 24.375C19.0584 24.375 24.375 19.0584 24.375 12.5C24.375 5.94163 19.0584 0.625 12.5 0.625ZM12.5 22.8906C6.76141 22.8906 2.10938 18.2386 2.10938 12.5C2.10938 6.76141 6.76141 2.10938 12.5 2.10938C18.2386 2.10938 22.8906 6.76141 22.8906 12.5C22.8906 18.2386 18.2386 22.8906 12.5 22.8906Z" fill="#33CC80"/>
<path d="M16.2752 11.9813C17.4359 10.8775 17.4506 9.07381 16.3079 7.95258C15.7539 7.40897 14.9973 7.1027 14.2075 7.1023H14.0523V6.50254C14.0523 6.1713 13.7743 5.90278 13.4314 5.90278C13.0885 5.90278 12.8105 6.1713 12.8105 6.50254V7.1023H11.8791V6.50254C11.8791 6.1713 11.6011 5.90278 11.2582 5.90278C10.9153 5.90278 10.6373 6.1713 10.6373 6.50254V7.1023H7.84315C7.50022 7.1023 7.22222 7.37083 7.22222 7.70207C7.22222 8.03331 7.50022 8.3018 7.84315 8.3018H8.1536V16.6982H7.84315C7.50022 16.6982 7.22222 16.9668 7.22222 17.298C7.22222 17.6292 7.50022 17.8977 7.84315 17.8977H10.6373V18.4975C10.6373 18.8287 10.9153 19.0972 11.2582 19.0972C11.6011 19.0972 11.8791 18.8287 11.8791 18.4975V17.8977H12.8105V18.4975C12.8105 18.8287 13.0885 19.0972 13.4314 19.0972C13.7743 19.0972 14.0523 18.8287 14.0523 18.4975V17.8977H14.8036C16.4455 17.8961 17.7761 16.6108 17.7778 15.025V14.4732C17.7774 13.442 17.2036 12.4904 16.2752 11.9813ZM14.2075 8.30183C15.1505 8.30183 15.915 9.04026 15.915 9.95113C15.915 10.862 15.1505 11.6004 14.2075 11.6004H9.39543V8.30183H14.2075ZM16.5359 15.025C16.5359 15.9491 15.7603 16.6983 14.8036 16.6983H9.39543V12.7999H14.8036C15.7604 12.7999 16.536 13.5491 16.536 14.4732L16.5359 15.025Z" fill="#33CC80"/>
<path d="M12.5 0.625C5.94163 0.625 0.625 5.94163 0.625 12.5C0.625 19.0584 5.94163 24.375 12.5 24.375C19.0584 24.375 24.375 19.0584 24.375 12.5C24.375 5.94163 19.0584 0.625 12.5 0.625ZM12.5 22.8906C6.76141 22.8906 2.10938 18.2386 2.10938 12.5C2.10938 6.76141 6.76141 2.10938 12.5 2.10938C18.2386 2.10938 22.8906 6.76141 22.8906 12.5C22.8906 18.2386 18.2386 22.8906 12.5 22.8906Z" stroke="#33CC80" stroke-width="0.5"/>
<path d="M16.2752 11.9813C17.4359 10.8775 17.4506 9.07381 16.3079 7.95258C15.7539 7.40897 14.9973 7.1027 14.2075 7.1023H14.0523V6.50254C14.0523 6.1713 13.7743 5.90278 13.4314 5.90278C13.0885 5.90278 12.8105 6.1713 12.8105 6.50254V7.1023H11.8791V6.50254C11.8791 6.1713 11.6011 5.90278 11.2582 5.90278C10.9153 5.90278 10.6373 6.1713 10.6373 6.50254V7.1023H7.84315C7.50022 7.1023 7.22222 7.37083 7.22222 7.70207C7.22222 8.03331 7.50022 8.3018 7.84315 8.3018H8.1536V16.6982H7.84315C7.50022 16.6982 7.22222 16.9668 7.22222 17.298C7.22222 17.6292 7.50022 17.8977 7.84315 17.8977H10.6373V18.4975C10.6373 18.8287 10.9153 19.0972 11.2582 19.0972C11.6011 19.0972 11.8791 18.8287 11.8791 18.4975V17.8977H12.8105V18.4975C12.8105 18.8287 13.0885 19.0972 13.4314 19.0972C13.7743 19.0972 14.0523 18.8287 14.0523 18.4975V17.8977H14.8036C16.4455 17.8961 17.7761 16.6108 17.7778 15.025V14.4732C17.7774 13.442 17.2036 12.4904 16.2752 11.9813ZM14.2075 8.30183C15.1505 8.30183 15.915 9.04026 15.915 9.95113C15.915 10.862 15.1505 11.6004 14.2075 11.6004H9.39543V8.30183H14.2075ZM16.5359 15.025C16.5359 15.9491 15.7603 16.6983 14.8036 16.6983H9.39543V12.7999H14.8036C15.7604 12.7999 16.536 13.5491 16.536 14.4732L16.5359 15.025Z" stroke="#33CC80" stroke-width="0.5"/>
</g>
<defs>
<clipPath id="clip0_356_184">
<rect width="25" height="25" fill="white"/>
</clipPath>
</defs>
</svg>
