<svg width="21" height="20" viewBox="0 0 21 20" fill="none" xmlns="http://www.w3.org/2000/svg">
<path d="M0.881714 18.3336H20.8817V20.0003H0.881714V18.3336ZM20.8817 6.59113V8.33363H18.3817V15.0003H20.0484V16.667H1.71505V15.0003H3.38171V8.33363H0.881714V6.59113C0.881631 6.142 1.00254 5.70114 1.23174 5.31489C1.46094 4.92864 1.78996 4.61127 2.18421 4.39613L9.68421 0.3053C10.0514 0.10435 10.4632 -0.000976562 10.8817 -0.000976562C11.3003 -0.000976562 11.7121 0.10435 12.0792 0.3053L19.5792 4.39613C19.9735 4.61127 20.3025 4.92864 20.5317 5.31489C20.7609 5.70114 20.8818 6.142 20.8817 6.59113ZM5.04838 15.0003H7.54838V8.33363H5.04838V15.0003ZM9.21505 8.33363V15.0003H12.5484V8.33363H9.21505ZM16.715 8.33363H14.215V15.0003H16.715V8.33363ZM19.215 6.59113C19.2151 6.44142 19.1748 6.29447 19.0984 6.16572C19.022 6.03697 18.9123 5.93118 18.7809 5.85947L11.2809 1.76863C11.1584 1.70182 11.0212 1.66681 10.8817 1.66681C10.7422 1.66681 10.605 1.70182 10.4825 1.76863L2.98255 5.85947C2.85113 5.93118 2.74146 6.03697 2.66506 6.16572C2.58866 6.29447 2.54835 6.44142 2.54838 6.59113V6.66697H19.215V6.59113Z" fill="#33CC80"/>
</svg>
