<svg width="449" height="191" viewBox="0 0 449 191" fill="none" xmlns="http://www.w3.org/2000/svg">
<mask id="mask0_407_303" style="mask-type:alpha" maskUnits="userSpaceOnUse" x="0" y="0" width="449" height="191">
<rect x="449" width="191" height="449" rx="20" transform="rotate(90 449 0)" fill="white"/>
</mask>
<g mask="url(#mask0_407_303)">
<line opacity="0.12" y1="-2.5" x2="307.826" y2="-2.5" transform="matrix(0.58404 -0.811725 0.560238 0.828332 -131.415 204.082)" stroke="#33CC80" stroke-width="5"/>
<line opacity="0.12" y1="-2.5" x2="307.826" y2="-2.5" transform="matrix(0.58404 -0.811725 0.560238 0.828332 -119.551 204.082)" stroke="#33CC80" stroke-width="5"/>
<line opacity="0.12" y1="-2.5" x2="307.826" y2="-2.5" transform="matrix(0.58404 -0.811725 0.560238 0.828332 -107.687 204.082)" stroke="#33CC80" stroke-width="5"/>
<line opacity="0.12" y1="-2.5" x2="307.826" y2="-2.5" transform="matrix(0.58404 -0.811725 0.560238 0.828332 -95.8231 204.082)" stroke="#33CC80" stroke-width="5"/>
<line opacity="0.12" y1="-2.5" x2="307.826" y2="-2.5" transform="matrix(0.58404 -0.811725 0.560238 0.828332 -83.9594 204.082)" stroke="#33CC80" stroke-width="5"/>
<line opacity="0.12" y1="-2.5" x2="307.826" y2="-2.5" transform="matrix(0.58404 -0.811725 0.560238 0.828332 -72.0956 204.082)" stroke="#33CC80" stroke-width="5"/>
<line opacity="0.12" y1="-2.5" x2="307.826" y2="-2.5" transform="matrix(0.58404 -0.811725 0.560238 0.828332 -60.2317 204.082)" stroke="#33CC80" stroke-width="5"/>
<line opacity="0.12" y1="-2.5" x2="307.826" y2="-2.5" transform="matrix(0.58404 -0.811725 0.560238 0.828332 -48.3679 204.082)" stroke="#33CC80" stroke-width="5"/>
<line opacity="0.12" y1="-2.5" x2="307.826" y2="-2.5" transform="matrix(0.58404 -0.811725 0.560238 0.828332 -36.5042 204.082)" stroke="#33CC80" stroke-width="5"/>
<line opacity="0.12" y1="-2.5" x2="307.826" y2="-2.5" transform="matrix(0.58404 -0.811725 0.560238 0.828332 -24.6403 204.082)" stroke="#33CC80" stroke-width="5"/>
<line opacity="0.12" y1="-2.5" x2="307.826" y2="-2.5" transform="matrix(0.58404 -0.811725 0.560238 0.828332 -12.7765 204.082)" stroke="#33CC80" stroke-width="5"/>
<line opacity="0.12" y1="-2.5" x2="307.826" y2="-2.5" transform="matrix(0.58404 -0.811725 0.560238 0.828332 -0.912598 204.082)" stroke="#33CC80" stroke-width="5"/>
<line opacity="0.12" y1="-2.5" x2="307.826" y2="-2.5" transform="matrix(0.58404 -0.811725 0.560238 0.828332 10.9513 204.082)" stroke="#33CC80" stroke-width="5"/>
<line opacity="0.12" y1="-2.5" x2="307.826" y2="-2.5" transform="matrix(0.58404 -0.811725 0.560238 0.828332 331.274 204.082)" stroke="#33CC80" stroke-width="5"/>
<line opacity="0.12" y1="-2.5" x2="307.826" y2="-2.5" transform="matrix(0.58404 -0.811725 0.560238 0.828332 22.8151 204.082)" stroke="#33CC80" stroke-width="5"/>
<line opacity="0.12" y1="-2.5" x2="307.826" y2="-2.5" transform="matrix(0.58404 -0.811725 0.560238 0.828332 34.6788 204.082)" stroke="#33CC80" stroke-width="5"/>
<line opacity="0.12" y1="-2.5" x2="307.826" y2="-2.5" transform="matrix(0.58404 -0.811725 0.560238 0.828332 46.5427 204.082)" stroke="#33CC80" stroke-width="5"/>
<line opacity="0.12" y1="-2.5" x2="307.826" y2="-2.5" transform="matrix(0.58404 -0.811725 0.560238 0.828332 58.4065 204.082)" stroke="#33CC80" stroke-width="5"/>
<line opacity="0.12" y1="-2.5" x2="307.826" y2="-2.5" transform="matrix(0.58404 -0.811725 0.560238 0.828332 70.2704 204.082)" stroke="#33CC80" stroke-width="5"/>
<line opacity="0.12" y1="-2.5" x2="307.826" y2="-2.5" transform="matrix(0.58404 -0.811725 0.560238 0.828332 82.1342 204.082)" stroke="#33CC80" stroke-width="5"/>
<line opacity="0.12" y1="-2.5" x2="307.826" y2="-2.5" transform="matrix(0.58404 -0.811725 0.560238 0.828332 93.998 204.082)" stroke="#33CC80" stroke-width="5"/>
<line opacity="0.12" y1="-2.5" x2="307.826" y2="-2.5" transform="matrix(0.58404 -0.811725 0.560238 0.828332 105.862 204.082)" stroke="#33CC80" stroke-width="5"/>
<line opacity="0.12" y1="-2.5" x2="307.826" y2="-2.5" transform="matrix(0.58404 -0.811725 0.560238 0.828332 117.726 204.082)" stroke="#33CC80" stroke-width="5"/>
<line opacity="0.12" y1="-2.5" x2="307.826" y2="-2.5" transform="matrix(0.58404 -0.811725 0.560238 0.828332 129.589 204.082)" stroke="#33CC80" stroke-width="5"/>
<line opacity="0.12" y1="-2.5" x2="307.826" y2="-2.5" transform="matrix(0.58404 -0.811725 0.560238 0.828332 141.453 204.082)" stroke="#33CC80" stroke-width="5"/>
<line opacity="0.12" y1="-2.5" x2="307.826" y2="-2.5" transform="matrix(0.58404 -0.811725 0.560238 0.828332 153.317 204.082)" stroke="#33CC80" stroke-width="5"/>
<line opacity="0.12" y1="-2.5" x2="307.826" y2="-2.5" transform="matrix(0.58404 -0.811725 0.560238 0.828332 165.181 204.082)" stroke="#33CC80" stroke-width="5"/>
<line opacity="0.12" y1="-2.5" x2="307.826" y2="-2.5" transform="matrix(0.58404 -0.811725 0.560238 0.828332 177.045 204.082)" stroke="#33CC80" stroke-width="5"/>
<line opacity="0.12" y1="-2.5" x2="307.826" y2="-2.5" transform="matrix(0.58404 -0.811725 0.560238 0.828332 188.909 204.082)" stroke="#33CC80" stroke-width="5"/>
<line opacity="0.12" y1="-2.5" x2="307.826" y2="-2.5" transform="matrix(0.58404 -0.811725 0.560238 0.828332 200.772 204.082)" stroke="#33CC80" stroke-width="5"/>
<line opacity="0.12" y1="-2.5" x2="307.826" y2="-2.5" transform="matrix(0.58404 -0.811725 0.560238 0.828332 212.636 204.082)" stroke="#33CC80" stroke-width="5"/>
<line opacity="0.12" y1="-2.5" x2="307.826" y2="-2.5" transform="matrix(0.58404 -0.811725 0.560238 0.828332 224.5 204.082)" stroke="#33CC80" stroke-width="5"/>
<line opacity="0.12" y1="-2.5" x2="307.826" y2="-2.5" transform="matrix(0.58404 -0.811725 0.560238 0.828332 236.364 204.082)" stroke="#33CC80" stroke-width="5"/>
<line opacity="0.12" y1="-2.5" x2="307.826" y2="-2.5" transform="matrix(0.58404 -0.811725 0.560238 0.828332 248.228 204.082)" stroke="#33CC80" stroke-width="5"/>
<line opacity="0.12" y1="-2.5" x2="307.826" y2="-2.5" transform="matrix(0.58404 -0.811725 0.560238 0.828332 260.091 204.082)" stroke="#33CC80" stroke-width="5"/>
<line opacity="0.12" y1="-2.5" x2="307.826" y2="-2.5" transform="matrix(0.58404 -0.811725 0.560238 0.828332 271.955 204.082)" stroke="#33CC80" stroke-width="5"/>
<line opacity="0.12" y1="-2.5" x2="307.826" y2="-2.5" transform="matrix(0.58404 -0.811725 0.560238 0.828332 283.819 204.082)" stroke="#33CC80" stroke-width="5"/>
<line opacity="0.12" y1="-2.5" x2="307.826" y2="-2.5" transform="matrix(0.58404 -0.811725 0.560238 0.828332 295.683 204.082)" stroke="#33CC80" stroke-width="5"/>
<line opacity="0.12" y1="-2.5" x2="307.826" y2="-2.5" transform="matrix(0.58404 -0.811725 0.560238 0.828332 307.547 204.082)" stroke="#33CC80" stroke-width="5"/>
<line opacity="0.12" y1="-2.5" x2="307.826" y2="-2.5" transform="matrix(0.58404 -0.811725 0.560238 0.828332 319.411 204.082)" stroke="#33CC80" stroke-width="5"/>
<line opacity="0.12" y1="-2.5" x2="307.826" y2="-2.5" transform="matrix(0.58404 -0.811725 0.560238 0.828332 342.226 204.082)" stroke="#33CC80" stroke-width="5"/>
<line opacity="0.12" y1="-2.5" x2="307.826" y2="-2.5" transform="matrix(0.58404 -0.811725 0.560238 0.828332 354.089 204.082)" stroke="#33CC80" stroke-width="5"/>
<line opacity="0.12" y1="-2.5" x2="307.826" y2="-2.5" transform="matrix(0.58404 -0.811725 0.560238 0.828332 365.953 204.082)" stroke="#33CC80" stroke-width="5"/>
<line opacity="0.12" y1="-2.5" x2="307.826" y2="-2.5" transform="matrix(0.58404 -0.811725 0.560238 0.828332 377.817 204.082)" stroke="#33CC80" stroke-width="5"/>
<line opacity="0.12" y1="-2.5" x2="307.826" y2="-2.5" transform="matrix(0.58404 -0.811725 0.560238 0.828332 389.681 204.082)" stroke="#33CC80" stroke-width="5"/>
<line opacity="0.12" y1="-2.5" x2="307.826" y2="-2.5" transform="matrix(0.58404 -0.811725 0.560238 0.828332 401.545 204.082)" stroke="#33CC80" stroke-width="5"/>
<line opacity="0.12" y1="-2.5" x2="307.826" y2="-2.5" transform="matrix(0.58404 -0.811725 0.560238 0.828332 413.409 204.082)" stroke="#33CC80" stroke-width="5"/>
<line opacity="0.12" y1="-2.5" x2="307.826" y2="-2.5" transform="matrix(0.58404 -0.811725 0.560238 0.828332 425.272 204.082)" stroke="#33CC80" stroke-width="5"/>
</g>
</svg>
