<svg width="1402" height="719" viewBox="0 0 1402 719" fill="none" xmlns="http://www.w3.org/2000/svg">
<g opacity="0.5">
<line x1="132.48" y1="188.882" x2="132.48" y2="550.574" stroke="#F0F0F0"/>
<line x1="729.452" y1="188.882" x2="729.452" y2="550.574" stroke="#F0F0F0"/>
<line x1="231.975" y1="188.882" x2="231.975" y2="550.574" stroke="#F0F0F0"/>
<line x1="828.948" y1="188.882" x2="828.948" y2="550.574" stroke="#F0F0F0"/>
<line x1="331.471" y1="188.882" x2="331.471" y2="550.574" stroke="#F0F0F0"/>
<line x1="928.443" y1="188.882" x2="928.443" y2="550.574" stroke="#F0F0F0"/>
<line x1="430.966" y1="188.882" x2="430.966" y2="550.574" stroke="#F0F0F0"/>
<line x1="1027.94" y1="188.882" x2="1027.94" y2="550.574" stroke="#F0F0F0"/>
<line x1="530.461" y1="188.882" x2="530.461" y2="550.574" stroke="#F0F0F0"/>
<line x1="1127.43" y1="188.882" x2="1127.43" y2="550.574" stroke="#F0F0F0"/>
<line x1="629.957" y1="188.882" x2="629.957" y2="550.574" stroke="#F0F0F0"/>
<line x1="1226.93" y1="188.882" x2="1226.93" y2="550.574" stroke="#F0F0F0"/>
<line x1="729.452" y1="188.882" x2="729.452" y2="550.574" stroke="#F0F0F0"/>
<line x1="679.704" y1="188.882" x2="679.704" y2="550.574" stroke="#F0F0F0"/>
<line x1="1276.68" y1="188.882" x2="1276.68" y2="550.574" stroke="#F0F0F0"/>
<line x1="580.209" y1="188.882" x2="580.209" y2="550.574" stroke="#F0F0F0"/>
<line x1="1177.18" y1="188.882" x2="1177.18" y2="550.574" stroke="#F0F0F0"/>
<line x1="480.714" y1="188.882" x2="480.714" y2="550.574" stroke="#F0F0F0"/>
<line x1="1077.69" y1="188.882" x2="1077.69" y2="550.574" stroke="#F0F0F0"/>
<line x1="381.218" y1="188.882" x2="381.218" y2="550.574" stroke="#F0F0F0"/>
<line x1="978.19" y1="188.882" x2="978.19" y2="550.574" stroke="#F0F0F0"/>
<line x1="281.723" y1="188.882" x2="281.723" y2="550.574" stroke="#F0F0F0"/>
<line x1="878.695" y1="188.882" x2="878.695" y2="550.574" stroke="#F0F0F0"/>
<line x1="183.222" y1="188.882" x2="183.222" y2="550.574" stroke="#F0F0F0"/>
<line x1="780.195" y1="188.882" x2="780.195" y2="550.574" stroke="#F0F0F0"/>
<line x1="131.98" y1="550.074" x2="1306.03" y2="550.074" stroke="#F0F0F0"/>
<line x1="131.98" y1="500.116" x2="1306.03" y2="500.116" stroke="#F0F0F0"/>
<line x1="131.98" y1="450.159" x2="1306.03" y2="450.159" stroke="#F0F0F0"/>
<line x1="131.98" y1="400.201" x2="1306.03" y2="400.201" stroke="#F0F0F0"/>
<line x1="131.98" y1="350.244" x2="1306.03" y2="350.244" stroke="#F0F0F0"/>
<line x1="131.98" y1="300.286" x2="1306.03" y2="300.286" stroke="#F0F0F0"/>
<line x1="131.98" y1="249.5" x2="1306.03" y2="249.5" stroke="#F0F0F0"/>
<line x1="131.98" y1="199.5" x2="1306.03" y2="199.5" stroke="#F0F0F0"/>
</g>
<line x1="131.98" y1="550.074" x2="1306.03" y2="550.074" stroke="#999999"/>
<line x1="132.48" y1="188.882" x2="132.48" y2="550.574" stroke="#999999"/>
<path d="M132.477 183L136.355 189.75H128.6L132.477 183Z" fill="#999999"/>
<path d="M1311 549.5L1305.03 554L1305.03 545L1311 549.5Z" fill="#999999"/>
<path d="M145.679 183.99H149.221C150.322 183.99 151.181 184.293 151.797 184.9C152.422 185.507 152.735 186.342 152.735 187.406C152.735 188.489 152.422 189.333 151.797 189.94C151.181 190.537 150.322 190.836 149.221 190.836H147.163V193.79C147.163 193.93 147.098 194 146.967 194H145.679C145.548 194 145.483 193.93 145.483 193.79V184.2C145.483 184.06 145.548 183.99 145.679 183.99ZM147.163 189.268H149.025C149.706 189.268 150.206 189.119 150.523 188.82C150.85 188.512 151.013 188.041 151.013 187.406C151.013 186.771 150.85 186.305 150.523 186.006C150.206 185.707 149.706 185.558 149.025 185.558H147.163V189.268ZM155.659 194H154.273C154.133 194 154.063 193.93 154.063 193.79V186.944C154.063 186.813 154.133 186.748 154.273 186.748H155.463C155.603 186.748 155.673 186.813 155.673 186.944V189.8C155.673 190.351 155.663 190.981 155.645 191.69H155.659C155.929 191.093 156.373 190.285 156.989 189.268L158.389 186.874C158.463 186.79 158.547 186.748 158.641 186.748H160.041C160.181 186.748 160.251 186.813 160.251 186.944V193.79C160.251 193.93 160.181 194 160.041 194H158.851C158.711 194 158.641 193.93 158.641 193.79V190.976C158.641 190.425 158.65 189.814 158.669 189.142H158.655C158.468 189.571 158.029 190.36 157.339 191.508L155.911 193.86C155.855 193.953 155.771 194 155.659 194ZM167.396 193.384C166.658 193.907 165.832 194.168 164.918 194.168C163.947 194.168 163.182 193.911 162.622 193.398C162.062 192.885 161.782 192.199 161.782 191.34V189.394C161.782 188.535 162.062 187.854 162.622 187.35C163.182 186.837 163.942 186.58 164.904 186.58C165.716 186.58 166.481 186.804 167.2 187.252C167.312 187.327 167.33 187.425 167.256 187.546L166.71 188.386C166.635 188.489 166.537 188.507 166.416 188.442C165.949 188.171 165.459 188.036 164.946 188.036C164.451 188.036 164.068 188.153 163.798 188.386C163.536 188.619 163.406 188.955 163.406 189.394V191.354C163.406 191.783 163.536 192.119 163.798 192.362C164.068 192.595 164.446 192.712 164.932 192.712C165.501 192.712 166.042 192.544 166.556 192.208C166.686 192.133 166.784 192.152 166.85 192.264L167.438 193.104C167.512 193.216 167.498 193.309 167.396 193.384ZM174.629 194H173.215C173.094 194 173.01 193.958 172.963 193.874L170.779 191.004L170.205 191.62V193.79C170.205 193.93 170.135 194 169.995 194H168.833C168.693 194 168.623 193.93 168.623 193.79V186.958C168.623 186.818 168.693 186.748 168.833 186.748H169.995C170.135 186.748 170.205 186.818 170.205 186.958V189.66L172.711 186.86C172.767 186.785 172.851 186.748 172.963 186.748H174.377C174.471 186.748 174.527 186.771 174.545 186.818C174.573 186.865 174.559 186.925 174.503 187L171.857 189.87L174.769 193.748C174.872 193.916 174.825 194 174.629 194Z" fill="#494949"/>
<path d="M1159.59 566.276C1159.59 567.499 1159.24 568.455 1158.55 569.146C1157.86 569.827 1156.9 570.168 1155.65 570.168C1154.41 570.168 1153.45 569.827 1152.76 569.146C1152.07 568.455 1151.72 567.499 1151.72 566.276V563.7C1151.72 562.477 1152.07 561.525 1152.76 560.844C1153.45 560.163 1154.41 559.822 1155.65 559.822C1156.9 559.822 1157.86 560.163 1158.55 560.844C1159.24 561.525 1159.59 562.477 1159.59 563.7V566.276ZM1153.44 566.276C1153.44 567.023 1153.63 567.592 1154 567.984C1154.38 568.376 1154.93 568.572 1155.65 568.572C1156.38 568.572 1156.93 568.376 1157.31 567.984C1157.68 567.592 1157.87 567.023 1157.87 566.276V563.714C1157.87 562.174 1157.13 561.404 1155.65 561.404C1154.18 561.404 1153.44 562.174 1153.44 563.714V566.276ZM1170.27 570H1168.84C1168.72 570 1168.64 569.953 1168.59 569.86L1166.83 566.962L1166.2 567.704V569.79C1166.2 569.93 1166.13 570 1165.99 570H1164.82C1164.68 570 1164.61 569.93 1164.61 569.79V567.704L1163.98 566.962L1162.22 569.86C1162.17 569.953 1162.09 570 1161.97 570H1160.54C1160.35 570 1160.31 569.916 1160.4 569.748L1162.93 565.856L1160.67 562.986C1160.62 562.921 1160.61 562.865 1160.62 562.818C1160.64 562.771 1160.69 562.748 1160.78 562.748H1162.22C1162.33 562.748 1162.42 562.79 1162.47 562.874L1163.58 564.372C1163.95 564.876 1164.3 565.361 1164.61 565.828V562.944C1164.61 562.813 1164.68 562.748 1164.82 562.748H1165.99C1166.13 562.748 1166.2 562.813 1166.2 562.944V565.828C1166.51 565.361 1166.86 564.876 1167.23 564.372L1168.34 562.874C1168.39 562.79 1168.48 562.748 1168.59 562.748H1170.03C1170.12 562.748 1170.17 562.771 1170.19 562.818C1170.21 562.865 1170.19 562.921 1170.14 562.986L1167.88 565.856L1170.41 569.748C1170.5 569.916 1170.46 570 1170.27 570ZM1173.07 570H1171.69C1171.55 570 1171.48 569.93 1171.48 569.79V562.944C1171.48 562.813 1171.55 562.748 1171.69 562.748H1172.88C1173.02 562.748 1173.09 562.813 1173.09 562.944V565.8C1173.09 566.351 1173.08 566.981 1173.06 567.69H1173.07C1173.34 567.093 1173.79 566.285 1174.4 565.268L1175.8 562.874C1175.88 562.79 1175.96 562.748 1176.06 562.748H1177.46C1177.6 562.748 1177.67 562.813 1177.67 562.944V569.79C1177.67 569.93 1177.6 570 1177.46 570H1176.27C1176.13 570 1176.06 569.93 1176.06 569.79V566.976C1176.06 566.425 1176.07 565.814 1176.08 565.142H1176.07C1175.88 565.571 1175.44 566.36 1174.75 567.508L1173.33 569.86C1173.27 569.953 1173.19 570 1173.07 570ZM1180.13 571.89H1179C1178.87 571.89 1178.8 571.825 1178.8 571.694V568.768C1178.8 568.637 1178.87 568.572 1179 568.572H1179.31C1179.62 568.357 1179.85 567.872 1180.02 567.116C1180.19 566.351 1180.35 564.96 1180.51 562.944C1180.53 562.813 1180.6 562.748 1180.72 562.748H1185.37C1185.51 562.748 1185.58 562.813 1185.58 562.944V568.572H1186.29C1186.43 568.572 1186.5 568.642 1186.5 568.782V571.694C1186.5 571.825 1186.43 571.89 1186.29 571.89H1185.16C1185.02 571.89 1184.95 571.825 1184.95 571.694V570H1180.34V571.694C1180.34 571.825 1180.27 571.89 1180.13 571.89ZM1182.02 564.176C1181.84 566.491 1181.52 567.956 1181.06 568.572H1183.97V564.176H1182.02ZM1187.71 563.322C1188.42 562.827 1189.34 562.58 1190.45 562.58C1191.35 562.58 1192.06 562.818 1192.58 563.294C1193.1 563.761 1193.36 564.47 1193.36 565.422V569.51C1193.36 569.622 1193.31 569.701 1193.21 569.748C1192.3 570.028 1191.36 570.168 1190.39 570.168C1189.49 570.168 1188.74 569.981 1188.15 569.608C1187.57 569.235 1187.27 568.642 1187.27 567.83C1187.27 567.093 1187.55 566.537 1188.1 566.164C1188.66 565.781 1189.4 565.59 1190.34 565.59C1190.71 565.59 1191.18 565.627 1191.74 565.702V565.436C1191.74 564.932 1191.63 564.573 1191.42 564.358C1191.21 564.134 1190.85 564.022 1190.34 564.022C1189.65 564.022 1189.05 564.171 1188.55 564.47C1188.43 564.554 1188.34 564.535 1188.27 564.414L1187.71 563.56C1187.64 563.457 1187.64 563.378 1187.71 563.322ZM1188.91 567.816C1188.91 568.133 1189.04 568.371 1189.32 568.53C1189.59 568.679 1189.95 568.754 1190.39 568.754C1190.82 568.754 1191.27 568.698 1191.74 568.586V567.004C1191.23 566.929 1190.78 566.892 1190.38 566.892C1189.4 566.892 1188.91 567.2 1188.91 567.816ZM1200.91 565.45V566.864C1200.91 566.995 1200.84 567.06 1200.7 567.06H1196.45V567.452C1196.45 567.872 1196.58 568.194 1196.84 568.418C1197.11 568.633 1197.48 568.74 1197.93 568.74C1198.61 568.74 1199.27 568.525 1199.91 568.096C1200.02 568.021 1200.11 568.035 1200.19 568.138L1200.76 568.908C1200.85 569.011 1200.84 569.109 1200.72 569.202C1199.91 569.846 1198.96 570.168 1197.88 570.168C1197.02 570.168 1196.29 569.935 1195.69 569.468C1195.1 568.992 1194.81 568.315 1194.81 567.438V565.45C1194.81 564.489 1195.11 563.77 1195.71 563.294C1196.3 562.818 1197.03 562.58 1197.89 562.58C1198.74 562.58 1199.45 562.818 1200.03 563.294C1200.62 563.77 1200.91 564.489 1200.91 565.45ZM1199.33 565.436C1199.33 564.951 1199.2 564.591 1198.93 564.358C1198.66 564.125 1198.31 564.008 1197.89 564.008C1196.93 564.008 1196.45 564.484 1196.45 565.436V565.8H1199.33V565.436ZM1203.78 570H1202.59C1202.45 570 1202.38 569.93 1202.38 569.79V562.944C1202.38 562.813 1202.45 562.748 1202.59 562.748H1203.94C1204.07 562.748 1204.14 562.795 1204.18 562.888L1206.2 566.878H1206.23L1208.24 562.888C1208.28 562.795 1208.36 562.748 1208.48 562.748H1209.84C1209.98 562.748 1210.05 562.813 1210.05 562.944V569.79C1210.05 569.93 1209.98 570 1209.84 570H1208.65C1208.52 570 1208.45 569.93 1208.45 569.79V567.312C1208.45 566.808 1208.46 566.108 1208.48 565.212H1208.47C1208.12 565.996 1207.87 566.537 1207.72 566.836L1206.81 568.642C1206.78 568.735 1206.7 568.782 1206.58 568.782H1205.85C1205.73 568.782 1205.65 568.735 1205.61 568.642L1204.7 566.836C1204.49 566.388 1204.24 565.847 1203.96 565.212H1203.94C1203.97 566.556 1203.99 567.256 1203.99 567.312V569.79C1203.99 569.93 1203.92 570 1203.78 570ZM1211.75 563.322C1212.47 562.827 1213.39 562.58 1214.5 562.58C1215.4 562.58 1216.11 562.818 1216.63 563.294C1217.15 563.761 1217.41 564.47 1217.41 565.422V569.51C1217.41 569.622 1217.36 569.701 1217.26 569.748C1216.35 570.028 1215.41 570.168 1214.44 570.168C1213.54 570.168 1212.79 569.981 1212.2 569.608C1211.61 569.235 1211.32 568.642 1211.32 567.83C1211.32 567.093 1211.6 566.537 1212.15 566.164C1212.71 565.781 1213.45 565.59 1214.39 565.59C1214.76 565.59 1215.23 565.627 1215.79 565.702V565.436C1215.79 564.932 1215.68 564.573 1215.46 564.358C1215.26 564.134 1214.9 564.022 1214.39 564.022C1213.7 564.022 1213.1 564.171 1212.59 564.47C1212.48 564.554 1212.39 564.535 1212.31 564.414L1211.75 563.56C1211.69 563.457 1211.69 563.378 1211.75 563.322ZM1212.96 567.816C1212.96 568.133 1213.09 568.371 1213.36 568.53C1213.63 568.679 1213.99 568.754 1214.44 568.754C1214.87 568.754 1215.32 568.698 1215.79 568.586V567.004C1215.28 566.929 1214.83 566.892 1214.43 566.892C1213.45 566.892 1212.96 567.2 1212.96 567.816ZM1220.25 570H1218.8C1218.63 570 1218.59 569.916 1218.69 569.748L1220.48 567.256C1219.92 567.116 1219.49 566.855 1219.2 566.472C1218.9 566.08 1218.75 565.613 1218.75 565.072C1218.75 564.316 1219 563.742 1219.52 563.35C1220.03 562.949 1220.71 562.748 1221.56 562.748H1224.47C1224.61 562.748 1224.68 562.813 1224.68 562.944V569.79C1224.68 569.93 1224.61 570 1224.47 570H1223.27C1223.13 570 1223.06 569.93 1223.06 569.79V567.396H1222.21L1220.5 569.86C1220.44 569.953 1220.36 570 1220.25 570ZM1220.39 565.072C1220.39 565.744 1220.79 566.08 1221.6 566.08H1223.06V564.078H1221.6C1220.79 564.078 1220.39 564.409 1220.39 565.072ZM1229.93 571.89H1228.79C1228.66 571.89 1228.6 571.825 1228.6 571.694V568.768C1228.6 568.637 1228.66 568.572 1228.79 568.572H1229.1C1229.41 568.357 1229.65 567.872 1229.82 567.116C1229.98 566.351 1230.15 564.96 1230.31 562.944C1230.32 562.813 1230.39 562.748 1230.52 562.748H1235.16C1235.3 562.748 1235.37 562.813 1235.37 562.944V568.572H1236.09C1236.23 568.572 1236.3 568.642 1236.3 568.782V571.694C1236.3 571.825 1236.23 571.89 1236.09 571.89H1234.95C1234.81 571.89 1234.74 571.825 1234.74 571.694V570H1230.14V571.694C1230.14 571.825 1230.07 571.89 1229.93 571.89ZM1231.82 564.176C1231.63 566.491 1231.31 567.956 1230.85 568.572H1233.76V564.176H1231.82ZM1243.63 567.34C1243.63 568.208 1243.34 568.899 1242.76 569.412C1242.18 569.916 1241.41 570.168 1240.44 570.168C1239.47 570.168 1238.69 569.916 1238.12 569.412C1237.54 568.899 1237.25 568.208 1237.25 567.34V565.464C1237.25 564.587 1237.54 563.887 1238.12 563.364C1238.69 562.841 1239.47 562.58 1240.44 562.58C1241.41 562.58 1242.18 562.841 1242.76 563.364C1243.34 563.887 1243.63 564.587 1243.63 565.464V567.34ZM1238.89 567.34C1238.89 568.255 1239.4 568.712 1240.44 568.712C1240.94 568.712 1241.33 568.595 1241.59 568.362C1241.86 568.129 1241.99 567.788 1241.99 567.34V565.464C1241.99 565.007 1241.86 564.657 1241.59 564.414C1241.32 564.162 1240.93 564.036 1240.44 564.036C1239.94 564.036 1239.55 564.157 1239.28 564.4C1239.02 564.643 1238.89 564.997 1238.89 565.464V567.34ZM1248.52 566.36L1250.78 569.748C1250.87 569.916 1250.83 570 1250.65 570H1249.17C1249.05 570 1248.97 569.953 1248.91 569.86L1247.51 567.48L1246.11 569.86C1246.06 569.953 1245.97 570 1245.86 570H1244.39C1244.21 570 1244.16 569.916 1244.25 569.748L1246.51 566.36L1244.38 562.986C1244.34 562.921 1244.34 562.865 1244.36 562.818C1244.39 562.771 1244.44 562.748 1244.52 562.748H1245.93C1246.03 562.748 1246.12 562.795 1246.18 562.888L1247.51 565.226L1248.84 562.888C1248.91 562.795 1248.99 562.748 1249.1 562.748H1250.51C1250.58 562.748 1250.64 562.771 1250.66 562.818C1250.69 562.865 1250.69 562.921 1250.65 562.986L1248.52 566.36ZM1257.78 567.34C1257.78 568.208 1257.49 568.899 1256.91 569.412C1256.34 569.916 1255.56 570.168 1254.59 570.168C1253.62 570.168 1252.84 569.916 1252.27 569.412C1251.69 568.899 1251.4 568.208 1251.4 567.34V565.464C1251.4 564.587 1251.69 563.887 1252.27 563.364C1252.84 562.841 1253.62 562.58 1254.59 562.58C1255.56 562.58 1256.34 562.841 1256.91 563.364C1257.49 563.887 1257.78 564.587 1257.78 565.464V567.34ZM1253.04 567.34C1253.04 568.255 1253.55 568.712 1254.59 568.712C1255.09 568.712 1255.48 568.595 1255.74 568.362C1256.01 568.129 1256.14 567.788 1256.14 567.34V565.464C1256.14 565.007 1256.01 564.657 1255.74 564.414C1255.47 564.162 1255.08 564.036 1254.59 564.036C1254.09 564.036 1253.7 564.157 1253.43 564.4C1253.17 564.643 1253.04 564.997 1253.04 565.464V567.34ZM1259.88 571.89H1258.75C1258.62 571.89 1258.55 571.825 1258.55 571.694V568.768C1258.55 568.637 1258.62 568.572 1258.75 568.572H1259.06C1259.36 568.357 1259.6 567.872 1259.77 567.116C1259.94 566.351 1260.1 564.96 1260.26 562.944C1260.28 562.813 1260.35 562.748 1260.47 562.748H1265.12C1265.26 562.748 1265.33 562.813 1265.33 562.944V568.572H1266.04C1266.18 568.572 1266.25 568.642 1266.25 568.782V571.694C1266.25 571.825 1266.18 571.89 1266.04 571.89H1264.91C1264.77 571.89 1264.7 571.825 1264.7 571.694V570H1260.09V571.694C1260.09 571.825 1260.02 571.89 1259.88 571.89ZM1261.77 564.176C1261.59 566.491 1261.26 567.956 1260.81 568.572H1263.72V564.176H1261.77ZM1268.92 570H1267.72C1267.58 570 1267.51 569.93 1267.51 569.79V562.944C1267.51 562.813 1267.58 562.748 1267.72 562.748H1268.92C1269.06 562.748 1269.13 562.813 1269.13 562.944V565.52H1271.85V562.944C1271.85 562.813 1271.92 562.748 1272.06 562.748H1273.26C1273.4 562.748 1273.47 562.813 1273.47 562.944V569.79C1273.47 569.93 1273.4 570 1273.26 570H1272.06C1271.92 570 1271.85 569.93 1271.85 569.79V566.962H1269.13V569.79C1269.13 569.93 1269.06 570 1268.92 570ZM1281.38 567.34C1281.38 568.208 1281.09 568.899 1280.51 569.412C1279.93 569.916 1279.16 570.168 1278.19 570.168C1277.22 570.168 1276.44 569.916 1275.86 569.412C1275.29 568.899 1275 568.208 1275 567.34V565.464C1275 564.587 1275.29 563.887 1275.86 563.364C1276.44 562.841 1277.22 562.58 1278.19 562.58C1279.16 562.58 1279.93 562.841 1280.51 563.364C1281.09 563.887 1281.38 564.587 1281.38 565.464V567.34ZM1276.63 567.34C1276.63 568.255 1277.15 568.712 1278.19 568.712C1278.69 568.712 1279.07 568.595 1279.34 568.362C1279.61 568.129 1279.74 567.788 1279.74 567.34V565.464C1279.74 565.007 1279.61 564.657 1279.34 564.414C1279.07 564.162 1278.68 564.036 1278.19 564.036C1277.68 564.036 1277.3 564.157 1277.03 564.4C1276.76 564.643 1276.63 564.997 1276.63 565.464V567.34ZM1288.28 569.384C1287.54 569.907 1286.72 570.168 1285.8 570.168C1284.83 570.168 1284.07 569.911 1283.51 569.398C1282.95 568.885 1282.67 568.199 1282.67 567.34V565.394C1282.67 564.535 1282.95 563.854 1283.51 563.35C1284.07 562.837 1284.83 562.58 1285.79 562.58C1286.6 562.58 1287.36 562.804 1288.08 563.252C1288.2 563.327 1288.21 563.425 1288.14 563.546L1287.59 564.386C1287.52 564.489 1287.42 564.507 1287.3 564.442C1286.83 564.171 1286.34 564.036 1285.83 564.036C1285.33 564.036 1284.95 564.153 1284.68 564.386C1284.42 564.619 1284.29 564.955 1284.29 565.394V567.354C1284.29 567.783 1284.42 568.119 1284.68 568.362C1284.95 568.595 1285.33 568.712 1285.82 568.712C1286.38 568.712 1286.93 568.544 1287.44 568.208C1287.57 568.133 1287.67 568.152 1287.73 568.264L1288.32 569.104C1288.4 569.216 1288.38 569.309 1288.28 569.384ZM1292.43 570H1291.23C1291.09 570 1291.02 569.93 1291.02 569.79V564.176H1289.06C1288.92 564.176 1288.85 564.106 1288.85 563.966V562.944C1288.85 562.813 1288.92 562.748 1289.06 562.748H1294.59C1294.73 562.748 1294.8 562.813 1294.8 562.944V563.966C1294.8 564.106 1294.73 564.176 1294.59 564.176H1292.64V569.79C1292.64 569.93 1292.57 570 1292.43 570ZM1299.01 570H1296.12C1295.98 570 1295.91 569.93 1295.91 569.79V562.944C1295.91 562.813 1295.98 562.748 1296.12 562.748H1297.32C1297.46 562.748 1297.53 562.813 1297.53 562.944V565.1H1299.01C1299.87 565.1 1300.56 565.319 1301.09 565.758C1301.62 566.197 1301.88 566.803 1301.88 567.578C1301.88 568.409 1301.63 569.02 1301.11 569.412C1300.61 569.804 1299.91 570 1299.01 570ZM1297.53 566.43V568.656H1298.73C1299.74 568.656 1300.25 568.287 1300.25 567.55C1300.25 567.167 1300.13 566.887 1299.88 566.71C1299.63 566.523 1299.25 566.43 1298.73 566.43H1297.53Z" fill="#494949"/>
<g opacity="0.03" filter="url(#filter0_f_396_152)">
<path fill-rule="evenodd" clip-rule="evenodd" d="M1180.54 367.257C1191.19 394.098 1222.96 430.522 1154.85 448.734C1068.04 471.941 938.852 445.393 836.593 459.211C780.909 466.735 782.072 497.466 728.049 506.406C674.958 515.192 594.108 518.851 558.872 505.168C511.165 486.642 605.285 440.051 534.896 431.399C438.204 419.515 308.963 483.919 226.508 464.317C160.821 448.701 384.318 422.038 379.854 394.541C375.092 365.21 187.981 362.821 205.239 333.315C220.004 308.071 379.849 330.469 429.571 309.539C497.36 281.003 408.992 227.083 502.667 208.114C582.659 191.917 644.33 239.317 725.975 249.521C786.458 257.08 858.116 252.137 918.112 260.035C985.121 268.856 1050.53 279.909 1095.07 298.107C1142.62 317.537 1170.44 341.801 1180.54 367.257Z" fill="url(#paint0_linear_396_152)"/>
</g>
<path d="M133 547C346.959 421.171 676.5 223.5 1301.5 223.5" stroke="#33CC80" stroke-width="2" stroke-dasharray="4 4"/>
<path d="M133 547C598 390 662.463 420.171 1304.5 413" stroke="#33CC80" stroke-width="2"/>
<g filter="url(#filter1_d_396_152)">
<rect x="936" y="183" width="330" height="90" rx="45" fill="white"/>
<rect x="937" y="184" width="328" height="88" rx="44" stroke="url(#paint1_linear_396_152)" stroke-width="2"/>
</g>
<path d="M1029.56 237.36H1027.74C1027.55 237.36 1027.46 237.26 1027.46 237.06V235.66H1026.52C1024.99 235.66 1023.71 235.2 1022.68 234.28C1021.65 233.36 1021.14 231.993 1021.14 230.18V227.58C1021.14 225.78 1021.65 224.427 1022.66 223.52C1023.69 222.6 1024.97 222.14 1026.52 222.14H1027.46V220.82C1027.46 220.633 1027.55 220.54 1027.74 220.54H1029.56C1029.76 220.54 1029.86 220.633 1029.86 220.82V222.14H1030.8C1032.35 222.14 1033.63 222.6 1034.64 223.52C1035.67 224.427 1036.18 225.78 1036.18 227.58V230.18C1036.18 231.993 1035.67 233.36 1034.64 234.28C1033.61 235.2 1032.33 235.66 1030.8 235.66H1029.86V237.06C1029.86 237.26 1029.76 237.36 1029.56 237.36ZM1023.62 230.22C1023.62 231.313 1023.9 232.113 1024.46 232.62C1025.02 233.127 1025.75 233.38 1026.64 233.38H1027.46V224.4H1026.64C1024.63 224.4 1023.62 225.453 1023.62 227.56V230.22ZM1029.86 224.4V233.38H1030.68C1031.57 233.38 1032.3 233.127 1032.86 232.62C1033.42 232.113 1033.7 231.313 1033.7 230.22V227.56C1033.7 225.453 1032.69 224.4 1030.68 224.4H1029.86ZM1047.36 232.2C1047.36 233.44 1046.95 234.427 1046.12 235.16C1045.3 235.88 1044.19 236.24 1042.8 236.24C1041.42 236.24 1040.31 235.88 1039.48 235.16C1038.66 234.427 1038.24 233.44 1038.24 232.2V229.52C1038.24 228.267 1038.66 227.267 1039.48 226.52C1040.31 225.773 1041.42 225.4 1042.8 225.4C1044.19 225.4 1045.3 225.773 1046.12 226.52C1046.95 227.267 1047.36 228.267 1047.36 229.52V232.2ZM1040.58 232.2C1040.58 233.507 1041.32 234.16 1042.8 234.16C1043.52 234.16 1044.07 233.993 1044.44 233.66C1044.83 233.327 1045.02 232.84 1045.02 232.2V229.52C1045.02 228.867 1044.83 228.367 1044.44 228.02C1044.06 227.66 1043.51 227.48 1042.8 227.48C1042.08 227.48 1041.53 227.653 1041.14 228C1040.77 228.347 1040.58 228.853 1040.58 229.52V232.2ZM1051.56 236H1049.84C1049.64 236 1049.54 235.9 1049.54 235.7V225.92C1049.54 225.733 1049.64 225.64 1049.84 225.64H1051.56C1051.76 225.64 1051.86 225.733 1051.86 225.92V229.6H1055.74V225.92C1055.74 225.733 1055.84 225.64 1056.04 225.64H1057.76C1057.96 225.64 1058.06 225.733 1058.06 225.92V235.7C1058.06 235.9 1057.96 236 1057.76 236H1056.04C1055.84 236 1055.74 235.9 1055.74 235.7V231.66H1051.86V235.7C1051.86 235.9 1051.76 236 1051.56 236ZM1061.58 238.7H1059.96C1059.77 238.7 1059.68 238.607 1059.68 238.42V234.24C1059.68 234.053 1059.77 233.96 1059.96 233.96H1060.4C1060.84 233.653 1061.18 232.96 1061.42 231.88C1061.66 230.787 1061.89 228.8 1062.12 225.92C1062.14 225.733 1062.24 225.64 1062.42 225.64H1069.06C1069.26 225.64 1069.36 225.733 1069.36 225.92V233.96H1070.38C1070.58 233.96 1070.68 234.06 1070.68 234.26V238.42C1070.68 238.607 1070.58 238.7 1070.38 238.7H1068.76C1068.56 238.7 1068.46 238.607 1068.46 238.42V236H1061.88V238.42C1061.88 238.607 1061.78 238.7 1061.58 238.7ZM1064.28 227.68C1064.01 230.987 1063.55 233.08 1062.9 233.96H1067.06V227.68H1064.28ZM1081.15 232.2C1081.15 233.44 1080.74 234.427 1079.91 235.16C1079.09 235.88 1077.98 236.24 1076.59 236.24C1075.21 236.24 1074.1 235.88 1073.27 235.16C1072.45 234.427 1072.03 233.44 1072.03 232.2V229.52C1072.03 228.267 1072.45 227.267 1073.27 226.52C1074.1 225.773 1075.21 225.4 1076.59 225.4C1077.98 225.4 1079.09 225.773 1079.91 226.52C1080.74 227.267 1081.15 228.267 1081.15 229.52V232.2ZM1074.37 232.2C1074.37 233.507 1075.11 234.16 1076.59 234.16C1077.31 234.16 1077.86 233.993 1078.23 233.66C1078.62 233.327 1078.81 232.84 1078.81 232.2V229.52C1078.81 228.867 1078.62 228.367 1078.23 228.02C1077.85 227.66 1077.3 227.48 1076.59 227.48C1075.87 227.48 1075.32 227.653 1074.93 228C1074.56 228.347 1074.37 228.853 1074.37 229.52V232.2ZM1087.81 236H1083.63C1083.43 236 1083.33 235.9 1083.33 235.7V225.92C1083.33 225.733 1083.43 225.64 1083.63 225.64H1087.81C1088.96 225.64 1089.86 225.9 1090.53 226.42C1091.21 226.927 1091.55 227.593 1091.55 228.42C1091.55 229.34 1091.14 230.04 1090.33 230.52C1091.38 230.973 1091.91 231.82 1091.91 233.06C1091.91 233.94 1091.54 234.653 1090.79 235.2C1090.04 235.733 1089.05 236 1087.81 236ZM1085.65 227.48V229.84H1087.71C1088.18 229.84 1088.54 229.74 1088.81 229.54C1089.09 229.327 1089.23 229.027 1089.23 228.64C1089.23 227.867 1088.72 227.48 1087.69 227.48H1085.65ZM1085.65 231.54V234.16H1087.71C1088.95 234.16 1089.57 233.713 1089.57 232.82C1089.57 231.967 1088.95 231.54 1087.71 231.54H1085.65ZM1098.4 236H1094.26C1094.06 236 1093.96 235.9 1093.96 235.7V225.92C1093.96 225.733 1094.06 225.64 1094.26 225.64H1095.98C1096.18 225.64 1096.28 225.733 1096.28 225.92V229H1098.4C1099.62 229 1100.61 229.313 1101.36 229.94C1102.12 230.567 1102.5 231.433 1102.5 232.54C1102.5 233.727 1102.13 234.6 1101.4 235.16C1100.68 235.72 1099.68 236 1098.4 236ZM1096.28 230.9V234.08H1098C1099.44 234.08 1100.16 233.553 1100.16 232.5C1100.17 231.953 1100 231.553 1099.64 231.3C1099.28 231.033 1098.73 230.9 1098 230.9H1096.28ZM1105.62 236H1103.9C1103.7 236 1103.6 235.9 1103.6 235.7V225.92C1103.6 225.733 1103.7 225.64 1103.9 225.64H1105.62C1105.82 225.64 1105.92 225.733 1105.92 225.92V235.7C1105.92 235.9 1105.82 236 1105.62 236ZM1110.71 236H1108.73C1108.53 236 1108.43 235.9 1108.43 235.7V225.92C1108.43 225.733 1108.53 225.64 1108.73 225.64H1110.43C1110.63 225.64 1110.73 225.733 1110.73 225.92V230C1110.73 230.787 1110.71 231.687 1110.69 232.7H1110.71C1111.09 231.847 1111.73 230.693 1112.61 229.24L1114.61 225.82C1114.71 225.7 1114.83 225.64 1114.97 225.64H1116.97C1117.17 225.64 1117.27 225.733 1117.27 225.92V235.7C1117.27 235.9 1117.17 236 1116.97 236H1115.27C1115.07 236 1114.97 235.9 1114.97 235.7V231.68C1114.97 230.893 1114.98 230.02 1115.01 229.06H1114.99C1114.72 229.673 1114.09 230.8 1113.11 232.44L1111.07 235.8C1110.99 235.933 1110.87 236 1110.71 236ZM1115.97 221.6C1115.86 222.427 1115.53 223.087 1114.97 223.58C1114.42 224.06 1113.68 224.3 1112.75 224.3C1111.81 224.3 1111.07 224.06 1110.53 223.58C1109.98 223.1 1109.65 222.453 1109.55 221.64C1109.52 221.44 1109.61 221.327 1109.81 221.3L1110.93 221.14C1111.1 221.127 1111.21 221.207 1111.25 221.38C1111.43 222.18 1111.93 222.58 1112.75 222.58C1113.56 222.58 1114.06 222.18 1114.25 221.38C1114.29 221.207 1114.4 221.127 1114.59 221.14L1115.69 221.3C1115.89 221.327 1115.98 221.427 1115.97 221.6ZM1124.31 226.12C1125.54 225.64 1126.88 225.4 1128.35 225.4C1129.74 225.4 1130.85 225.767 1131.69 226.5C1132.53 227.233 1132.95 228.327 1132.95 229.78V231.98C1132.95 233.273 1132.54 234.307 1131.71 235.08C1130.88 235.853 1129.82 236.24 1128.53 236.24C1127.8 236.24 1127.09 236.093 1126.41 235.8V239.5C1126.41 239.7 1126.31 239.8 1126.11 239.8H1124.39C1124.19 239.8 1124.09 239.7 1124.09 239.5V226.44C1124.09 226.28 1124.16 226.173 1124.31 226.12ZM1128.33 234.2C1129.84 234.2 1130.59 233.467 1130.59 232V229.76C1130.59 228.933 1130.4 228.34 1130.01 227.98C1129.62 227.62 1129.05 227.44 1128.29 227.44C1127.49 227.44 1126.86 227.533 1126.41 227.72V233.64C1126.96 234.013 1127.6 234.2 1128.33 234.2ZM1139.55 236H1135.41C1135.21 236 1135.11 235.9 1135.11 235.7V225.92C1135.11 225.733 1135.21 225.64 1135.41 225.64H1137.13C1137.33 225.64 1137.43 225.733 1137.43 225.92V229H1139.55C1140.77 229 1141.76 229.313 1142.51 229.94C1143.27 230.567 1143.65 231.433 1143.65 232.54C1143.65 233.727 1143.28 234.6 1142.55 235.16C1141.83 235.72 1140.83 236 1139.55 236ZM1137.43 230.9V234.08H1139.15C1140.59 234.08 1141.31 233.553 1141.31 232.5C1141.32 231.953 1141.15 231.553 1140.79 231.3C1140.43 231.033 1139.88 230.9 1139.15 230.9H1137.43ZM1146.77 236H1145.05C1144.85 236 1144.75 235.9 1144.75 235.7V225.92C1144.75 225.733 1144.85 225.64 1145.05 225.64H1146.77C1146.97 225.64 1147.07 225.733 1147.07 225.92V235.7C1147.07 235.9 1146.97 236 1146.77 236ZM1151.6 236H1149.88C1149.68 236 1149.58 235.9 1149.58 235.7V225.92C1149.58 225.733 1149.68 225.64 1149.88 225.64H1151.6C1151.8 225.64 1151.9 225.733 1151.9 225.92V229.6H1155.78V225.92C1155.78 225.733 1155.88 225.64 1156.08 225.64H1157.8C1158 225.64 1158.1 225.733 1158.1 225.92V235.7C1158.1 235.9 1158 236 1157.8 236H1156.08C1155.88 236 1155.78 235.9 1155.78 235.7V231.66H1151.9V235.7C1151.9 235.9 1151.8 236 1151.6 236ZM1169.4 232.2C1169.4 233.44 1168.98 234.427 1168.16 235.16C1167.33 235.88 1166.22 236.24 1164.84 236.24C1163.45 236.24 1162.34 235.88 1161.52 235.16C1160.69 234.427 1160.28 233.44 1160.28 232.2V229.52C1160.28 228.267 1160.69 227.267 1161.52 226.52C1162.34 225.773 1163.45 225.4 1164.84 225.4C1166.22 225.4 1167.33 225.773 1168.16 226.52C1168.98 227.267 1169.4 228.267 1169.4 229.52V232.2ZM1162.62 232.2C1162.62 233.507 1163.36 234.16 1164.84 234.16C1165.56 234.16 1166.1 233.993 1166.48 233.66C1166.86 233.327 1167.06 232.84 1167.06 232.2V229.52C1167.06 228.867 1166.86 228.367 1166.48 228.02C1166.09 227.66 1165.54 227.48 1164.84 227.48C1164.12 227.48 1163.56 227.653 1163.18 228C1162.8 228.347 1162.62 228.853 1162.62 229.52V232.2ZM1180.15 236H1178.13C1177.96 236 1177.84 235.94 1177.77 235.82L1174.65 231.72L1173.83 232.6V235.7C1173.83 235.9 1173.73 236 1173.53 236H1171.87C1171.67 236 1171.57 235.9 1171.57 235.7V225.94C1171.57 225.74 1171.67 225.64 1171.87 225.64H1173.53C1173.73 225.64 1173.83 225.74 1173.83 225.94V229.8L1177.41 225.8C1177.49 225.693 1177.61 225.64 1177.77 225.64H1179.79C1179.93 225.64 1180.01 225.673 1180.03 225.74C1180.07 225.807 1180.05 225.893 1179.97 226L1176.19 230.1L1180.35 235.64C1180.5 235.88 1180.43 236 1180.15 236Z" fill="url(#paint2_linear_396_152)"/>
<g filter="url(#filter2_d_396_152)">
<rect x="494" y="256" width="330" height="90" rx="45" fill="white"/>
<rect x="495" y="257" width="328" height="88" rx="44" stroke="url(#paint3_linear_396_152)" stroke-width="2"/>
</g>
<path d="M599.68 300.66V295C599.68 294.8 599.773 294.7 599.96 294.7H601.8C601.987 294.7 602.08 294.8 602.08 295V308.7C602.08 308.9 601.987 309 601.8 309H599.96C599.773 309 599.68 308.9 599.68 308.7V302.88H594.04V308.7C594.04 308.9 593.947 309 593.76 309H591.92C591.733 309 591.64 308.9 591.64 308.7V295C591.64 294.8 591.733 294.7 591.92 294.7H593.76C593.947 294.7 594.04 294.8 594.04 295V300.66H599.68ZM613.371 302.5V304.52C613.371 304.707 613.271 304.8 613.071 304.8H606.991V305.36C606.991 305.96 607.178 306.42 607.551 306.74C607.938 307.047 608.458 307.2 609.111 307.2C610.084 307.2 611.024 306.893 611.931 306.28C612.091 306.173 612.224 306.193 612.331 306.34L613.151 307.44C613.284 307.587 613.264 307.727 613.091 307.86C611.931 308.78 610.578 309.24 609.031 309.24C607.804 309.24 606.764 308.907 605.911 308.24C605.071 307.56 604.651 306.593 604.651 305.34V302.5C604.651 301.127 605.078 300.1 605.931 299.42C606.784 298.74 607.824 298.4 609.051 298.4C610.264 298.4 611.284 298.74 612.111 299.42C612.951 300.1 613.371 301.127 613.371 302.5ZM611.111 302.48C611.111 301.787 610.918 301.273 610.531 300.94C610.144 300.607 609.651 300.44 609.051 300.44C607.678 300.44 606.991 301.12 606.991 302.48V303H611.111V302.48ZM616.362 311.7H614.742C614.555 311.7 614.462 311.607 614.462 311.42V307.24C614.462 307.053 614.555 306.96 614.742 306.96H615.182C615.622 306.653 615.962 305.96 616.202 304.88C616.442 303.787 616.675 301.8 616.902 298.92C616.928 298.733 617.028 298.64 617.202 298.64H623.842C624.042 298.64 624.142 298.733 624.142 298.92V306.96H625.162C625.362 306.96 625.462 307.06 625.462 307.26V311.42C625.462 311.607 625.362 311.7 625.162 311.7H623.542C623.342 311.7 623.242 311.607 623.242 311.42V309H616.662V311.42C616.662 311.607 616.562 311.7 616.362 311.7ZM619.062 300.68C618.795 303.987 618.335 306.08 617.682 306.96H621.842V300.68H619.062ZM631.736 309H627.556C627.356 309 627.256 308.9 627.256 308.7V298.92C627.256 298.733 627.356 298.64 627.556 298.64H631.736C632.883 298.64 633.789 298.9 634.456 299.42C635.136 299.927 635.476 300.593 635.476 301.42C635.476 302.34 635.069 303.04 634.256 303.52C635.309 303.973 635.836 304.82 635.836 306.06C635.836 306.94 635.463 307.653 634.716 308.2C633.969 308.733 632.976 309 631.736 309ZM629.576 300.48V302.84H631.636C632.103 302.84 632.469 302.74 632.736 302.54C633.016 302.327 633.156 302.027 633.156 301.64C633.156 300.867 632.643 300.48 631.616 300.48H629.576ZM629.576 304.54V307.16H631.636C632.876 307.16 633.496 306.713 633.496 305.82C633.496 304.967 632.876 304.54 631.636 304.54H629.576ZM640.161 309H638.181C637.981 309 637.881 308.9 637.881 308.7V298.92C637.881 298.733 637.981 298.64 638.181 298.64H639.881C640.081 298.64 640.181 298.733 640.181 298.92V303C640.181 303.787 640.168 304.687 640.141 305.7H640.161C640.548 304.847 641.181 303.693 642.061 302.24L644.061 298.82C644.168 298.7 644.288 298.64 644.421 298.64H646.421C646.621 298.64 646.721 298.733 646.721 298.92V308.7C646.721 308.9 646.621 309 646.421 309H644.721C644.521 309 644.421 308.9 644.421 308.7V304.68C644.421 303.893 644.434 303.02 644.461 302.06H644.441C644.174 302.673 643.548 303.8 642.561 305.44L640.521 308.8C640.441 308.933 640.321 309 640.161 309ZM662.348 309H660.308C660.135 309 660.015 308.933 659.948 308.8L657.428 304.66L656.528 305.72V308.7C656.528 308.9 656.428 309 656.228 309H654.568C654.368 309 654.268 308.9 654.268 308.7V305.72L653.368 304.66L650.848 308.8C650.782 308.933 650.662 309 650.488 309H648.448C648.182 309 648.115 308.88 648.248 308.64L651.868 303.08L648.628 298.98C648.562 298.887 648.542 298.807 648.568 298.74C648.595 298.673 648.668 298.64 648.788 298.64H650.848C651.008 298.64 651.128 298.7 651.208 298.82L652.788 300.96C653.322 301.68 653.815 302.373 654.268 303.04V298.92C654.268 298.733 654.368 298.64 654.568 298.64H656.228C656.428 298.64 656.528 298.733 656.528 298.92V303.04C656.982 302.373 657.475 301.68 658.008 300.96L659.588 298.82C659.668 298.7 659.788 298.64 659.948 298.64H662.008C662.128 298.64 662.202 298.673 662.228 298.74C662.255 298.807 662.235 298.887 662.168 298.98L658.928 303.08L662.548 308.64C662.682 308.88 662.615 309 662.348 309ZM666.353 309H664.373C664.173 309 664.073 308.9 664.073 308.7V298.92C664.073 298.733 664.173 298.64 664.373 298.64H666.073C666.273 298.64 666.373 298.733 666.373 298.92V303C666.373 303.787 666.359 304.687 666.333 305.7H666.353C666.739 304.847 667.373 303.693 668.253 302.24L670.253 298.82C670.359 298.7 670.479 298.64 670.613 298.64H672.613C672.812 298.64 672.912 298.733 672.912 298.92V308.7C672.912 308.9 672.812 309 672.613 309H670.913C670.713 309 670.613 308.9 670.613 308.7V304.68C670.613 303.893 670.626 303.02 670.653 302.06H670.633C670.366 302.673 669.739 303.8 668.753 305.44L666.713 308.8C666.633 308.933 666.513 309 666.353 309ZM677.44 309H675.74C675.54 309 675.44 308.9 675.44 308.7V298.92C675.44 298.733 675.54 298.64 675.74 298.64H677.68C677.853 298.64 677.966 298.707 678.02 298.84L680.9 304.54H680.94L683.82 298.84C683.873 298.707 683.986 298.64 684.16 298.64H686.1C686.3 298.64 686.4 298.733 686.4 298.92V308.7C686.4 308.9 686.3 309 686.1 309H684.4C684.213 309 684.12 308.9 684.12 308.7V305.16C684.12 304.44 684.133 303.44 684.16 302.16H684.14C683.646 303.28 683.293 304.053 683.08 304.48L681.78 307.06C681.726 307.193 681.613 307.26 681.44 307.26H680.4C680.226 307.26 680.113 307.193 680.06 307.06L678.76 304.48C678.453 303.84 678.1 303.067 677.7 302.16H677.68C677.72 304.08 677.74 305.08 677.74 305.16V308.7C677.74 308.9 677.64 309 677.44 309ZM697.696 305.2C697.696 306.44 697.283 307.427 696.456 308.16C695.63 308.88 694.523 309.24 693.136 309.24C691.75 309.24 690.643 308.88 689.816 308.16C688.99 307.427 688.576 306.44 688.576 305.2V302.52C688.576 301.267 688.99 300.267 689.816 299.52C690.643 298.773 691.75 298.4 693.136 298.4C694.523 298.4 695.63 298.773 696.456 299.52C697.283 300.267 697.696 301.267 697.696 302.52V305.2ZM690.916 305.2C690.916 306.507 691.656 307.16 693.136 307.16C693.856 307.16 694.403 306.993 694.776 306.66C695.163 306.327 695.356 305.84 695.356 305.2V302.52C695.356 301.867 695.163 301.367 694.776 301.02C694.39 300.66 693.843 300.48 693.136 300.48C692.416 300.48 691.863 300.653 691.476 301C691.103 301.347 690.916 301.853 690.916 302.52V305.2ZM707.553 308.12C706.5 308.867 705.32 309.24 704.013 309.24C702.627 309.24 701.533 308.873 700.733 308.14C699.933 307.407 699.533 306.427 699.533 305.2V302.42C699.533 301.193 699.933 300.22 700.733 299.5C701.533 298.767 702.62 298.4 703.993 298.4C705.153 298.4 706.247 298.72 707.273 299.36C707.433 299.467 707.46 299.607 707.353 299.78L706.573 300.98C706.467 301.127 706.327 301.153 706.153 301.06C705.487 300.673 704.787 300.48 704.053 300.48C703.347 300.48 702.8 300.647 702.413 300.98C702.04 301.313 701.853 301.793 701.853 302.42V305.22C701.853 305.833 702.04 306.313 702.413 306.66C702.8 306.993 703.34 307.16 704.033 307.16C704.847 307.16 705.62 306.92 706.353 306.44C706.54 306.333 706.68 306.36 706.773 306.52L707.613 307.72C707.72 307.88 707.7 308.013 707.553 308.12ZM713.487 309H711.767C711.567 309 711.467 308.9 711.467 308.7V300.68H708.667C708.467 300.68 708.367 300.58 708.367 300.38V298.92C708.367 298.733 708.467 298.64 708.667 298.64H716.567C716.767 298.64 716.867 298.733 716.867 298.92V300.38C716.867 300.58 716.767 300.68 716.567 300.68H713.787V308.7C713.787 308.9 713.687 309 713.487 309ZM722.888 309H718.748C718.548 309 718.448 308.9 718.448 308.7V298.92C718.448 298.733 718.548 298.64 718.748 298.64H720.468C720.668 298.64 720.768 298.733 720.768 298.92V302H722.888C724.114 302 725.101 302.313 725.848 302.94C726.608 303.567 726.988 304.433 726.988 305.54C726.988 306.727 726.621 307.6 725.888 308.16C725.168 308.72 724.168 309 722.888 309ZM720.768 303.9V307.08H722.488C723.928 307.08 724.648 306.553 724.648 305.5C724.661 304.953 724.488 304.553 724.128 304.3C723.768 304.033 723.221 303.9 722.488 303.9H720.768Z" fill="url(#paint4_linear_396_152)"/>
<g filter="url(#filter3_d_396_152)">
<rect x="164" y="399" width="330" height="90" rx="45" fill="white"/>
<rect x="165" y="400" width="328" height="88" rx="44" stroke="url(#paint5_linear_396_152)" stroke-width="2"/>
</g>
<path d="M243.04 443.26H246.06C247.767 443.26 249.033 443.607 249.86 444.3C250.687 444.98 251.1 446.067 251.1 447.56C251.1 449.027 250.653 450.133 249.76 450.88C248.88 451.627 247.68 452 246.16 452H240.92C240.733 452 240.64 451.9 240.64 451.7V438C240.64 437.8 240.733 437.7 240.92 437.7H249.66C249.86 437.7 249.96 437.8 249.96 438V439.6C249.96 439.8 249.86 439.9 249.66 439.9H243.04V443.26ZM243.04 449.8H246.1C246.94 449.8 247.573 449.627 248 449.28C248.427 448.933 248.64 448.36 248.64 447.56C248.64 446.827 248.44 446.293 248.04 445.96C247.64 445.613 246.993 445.44 246.1 445.44H243.04V449.8ZM253.032 442.46C254.058 441.753 255.365 441.4 256.952 441.4C258.245 441.4 259.258 441.74 259.992 442.42C260.738 443.087 261.112 444.1 261.112 445.46V451.3C261.112 451.46 261.038 451.573 260.892 451.64C259.598 452.04 258.258 452.24 256.872 452.24C255.578 452.24 254.512 451.973 253.672 451.44C252.832 450.907 252.412 450.06 252.412 448.9C252.412 447.847 252.805 447.053 253.592 446.52C254.392 445.973 255.458 445.7 256.792 445.7C257.325 445.7 257.992 445.753 258.792 445.86V445.48C258.792 444.76 258.638 444.247 258.332 443.94C258.038 443.62 257.525 443.46 256.792 443.46C255.805 443.46 254.952 443.673 254.232 444.1C254.072 444.22 253.938 444.193 253.832 444.02L253.032 442.8C252.938 442.653 252.938 442.54 253.032 442.46ZM254.752 448.88C254.752 449.333 254.945 449.673 255.332 449.9C255.718 450.113 256.232 450.22 256.872 450.22C257.485 450.22 258.125 450.14 258.792 449.98V447.72C258.072 447.613 257.425 447.56 256.852 447.56C255.452 447.56 254.752 448 254.752 448.88ZM265.522 452H263.802C263.602 452 263.502 451.9 263.502 451.7V441.92C263.502 441.733 263.602 441.64 263.802 441.64H265.522C265.722 441.64 265.822 441.733 265.822 441.92V445.6H269.702V441.92C269.702 441.733 269.802 441.64 270.002 441.64H271.722C271.922 441.64 272.022 441.733 272.022 441.92V451.7C272.022 451.9 271.922 452 271.722 452H270.002C269.802 452 269.702 451.9 269.702 451.7V447.66H265.822V451.7C265.822 451.9 265.722 452 265.522 452ZM283.117 452H281.097C280.924 452 280.804 451.94 280.737 451.82L277.617 447.72L276.797 448.6V451.7C276.797 451.9 276.697 452 276.497 452H274.837C274.637 452 274.537 451.9 274.537 451.7V441.94C274.537 441.74 274.637 441.64 274.837 441.64H276.497C276.697 441.64 276.797 441.74 276.797 441.94V445.8L280.377 441.8C280.457 441.693 280.577 441.64 280.737 441.64H282.757C282.891 441.64 282.971 441.673 282.997 441.74C283.037 441.807 283.017 441.893 282.937 442L279.157 446.1L283.317 451.64C283.464 451.88 283.397 452 283.117 452ZM292.966 448.2C292.966 449.44 292.552 450.427 291.726 451.16C290.899 451.88 289.792 452.24 288.406 452.24C287.019 452.24 285.912 451.88 285.086 451.16C284.259 450.427 283.846 449.44 283.846 448.2V445.52C283.846 444.267 284.259 443.267 285.086 442.52C285.912 441.773 287.019 441.4 288.406 441.4C289.792 441.4 290.899 441.773 291.726 442.52C292.552 443.267 292.966 444.267 292.966 445.52V448.2ZM286.186 448.2C286.186 449.507 286.926 450.16 288.406 450.16C289.126 450.16 289.672 449.993 290.046 449.66C290.432 449.327 290.626 448.84 290.626 448.2V445.52C290.626 444.867 290.432 444.367 290.046 444.02C289.659 443.66 289.112 443.48 288.406 443.48C287.686 443.48 287.132 443.653 286.746 444C286.372 444.347 286.186 444.853 286.186 445.52V448.2ZM299.623 452H295.443C295.243 452 295.143 451.9 295.143 451.7V441.92C295.143 441.733 295.243 441.64 295.443 441.64H299.623C300.769 441.64 301.676 441.9 302.343 442.42C303.023 442.927 303.363 443.593 303.363 444.42C303.363 445.34 302.956 446.04 302.143 446.52C303.196 446.973 303.723 447.82 303.723 449.06C303.723 449.94 303.349 450.653 302.603 451.2C301.856 451.733 300.863 452 299.623 452ZM297.463 443.48V445.84H299.523C299.989 445.84 300.356 445.74 300.623 445.54C300.903 445.327 301.043 445.027 301.043 444.64C301.043 443.867 300.529 443.48 299.503 443.48H297.463ZM297.463 447.54V450.16H299.523C300.763 450.16 301.383 449.713 301.383 448.82C301.383 447.967 300.763 447.54 299.523 447.54H297.463ZM313.448 451.12C312.394 451.867 311.214 452.24 309.908 452.24C308.521 452.24 307.428 451.873 306.628 451.14C305.828 450.407 305.428 449.427 305.428 448.2V445.42C305.428 444.193 305.828 443.22 306.628 442.5C307.428 441.767 308.514 441.4 309.888 441.4C311.048 441.4 312.141 441.72 313.168 442.36C313.328 442.467 313.354 442.607 313.248 442.78L312.468 443.98C312.361 444.127 312.221 444.153 312.048 444.06C311.381 443.673 310.681 443.48 309.948 443.48C309.241 443.48 308.694 443.647 308.308 443.98C307.934 444.313 307.748 444.793 307.748 445.42V448.22C307.748 448.833 307.934 449.313 308.308 449.66C308.694 449.993 309.234 450.16 309.928 450.16C310.741 450.16 311.514 449.92 312.248 449.44C312.434 449.333 312.574 449.36 312.668 449.52L313.508 450.72C313.614 450.88 313.594 451.013 313.448 451.12ZM323.781 452H321.761C321.588 452 321.468 451.94 321.401 451.82L318.281 447.72L317.461 448.6V451.7C317.461 451.9 317.361 452 317.161 452H315.501C315.301 452 315.201 451.9 315.201 451.7V441.94C315.201 441.74 315.301 441.64 315.501 441.64H317.161C317.361 441.64 317.461 441.74 317.461 441.94V445.8L321.041 441.8C321.121 441.693 321.241 441.64 321.401 441.64H323.421C323.555 441.64 323.635 441.673 323.661 441.74C323.701 441.807 323.681 441.893 323.601 442L319.821 446.1L323.981 451.64C324.128 451.88 324.061 452 323.781 452ZM327.599 452H325.619C325.419 452 325.319 451.9 325.319 451.7V441.92C325.319 441.733 325.419 441.64 325.619 441.64H327.319C327.519 441.64 327.619 441.733 327.619 441.92V446C327.619 446.787 327.605 447.687 327.579 448.7H327.599C327.985 447.847 328.619 446.693 329.499 445.24L331.499 441.82C331.605 441.7 331.725 441.64 331.859 441.64H333.859C334.059 441.64 334.159 441.733 334.159 441.92V451.7C334.159 451.9 334.059 452 333.859 452H332.159C331.959 452 331.859 451.9 331.859 451.7V447.68C331.859 446.893 331.872 446.02 331.899 445.06H331.879C331.612 445.673 330.985 446.8 329.999 448.44L327.959 451.8C327.879 451.933 327.759 452 327.599 452ZM345.086 445.5V447.52C345.086 447.707 344.986 447.8 344.786 447.8H338.706V448.36C338.706 448.96 338.892 449.42 339.266 449.74C339.652 450.047 340.172 450.2 340.826 450.2C341.799 450.2 342.739 449.893 343.646 449.28C343.806 449.173 343.939 449.193 344.046 449.34L344.866 450.44C344.999 450.587 344.979 450.727 344.806 450.86C343.646 451.78 342.292 452.24 340.746 452.24C339.519 452.24 338.479 451.907 337.626 451.24C336.786 450.56 336.366 449.593 336.366 448.34V445.5C336.366 444.127 336.792 443.1 337.646 442.42C338.499 441.74 339.539 441.4 340.766 441.4C341.979 441.4 342.999 441.74 343.826 442.42C344.666 443.1 345.086 444.127 345.086 445.5ZM342.826 445.48C342.826 444.787 342.632 444.273 342.246 443.94C341.859 443.607 341.366 443.44 340.766 443.44C339.392 443.44 338.706 444.12 338.706 445.48V446H342.826V445.48ZM355.97 452H351.79C351.59 452 351.49 451.9 351.49 451.7V441.92C351.49 441.733 351.59 441.64 351.79 441.64H355.97C357.117 441.64 358.024 441.9 358.69 442.42C359.37 442.927 359.71 443.593 359.71 444.42C359.71 445.34 359.304 446.04 358.49 446.52C359.544 446.973 360.07 447.82 360.07 449.06C360.07 449.94 359.697 450.653 358.95 451.2C358.204 451.733 357.21 452 355.97 452ZM353.81 443.48V445.84H355.87C356.337 445.84 356.704 445.74 356.97 445.54C357.25 445.327 357.39 445.027 357.39 444.64C357.39 443.867 356.877 443.48 355.85 443.48H353.81ZM353.81 447.54V450.16H355.87C357.11 450.16 357.73 449.713 357.73 448.82C357.73 447.967 357.11 447.54 355.87 447.54H353.81ZM370.695 452H368.675C368.502 452 368.382 451.94 368.315 451.82L365.195 447.72L364.375 448.6V451.7C364.375 451.9 364.275 452 364.075 452H362.415C362.215 452 362.115 451.9 362.115 451.7V441.94C362.115 441.74 362.215 441.64 362.415 441.64H364.075C364.275 441.64 364.375 441.74 364.375 441.94V445.8L367.955 441.8C368.035 441.693 368.155 441.64 368.315 441.64H370.335C370.469 441.64 370.549 441.673 370.575 441.74C370.615 441.807 370.595 441.893 370.515 442L366.735 446.1L370.895 451.64C371.042 451.88 370.975 452 370.695 452ZM375.173 448.6C374.919 449.867 374.533 450.76 374.013 451.28C373.493 451.787 372.666 452.06 371.533 452.1C371.346 452.1 371.253 452 371.253 451.8V450.34C371.253 450.167 371.346 450.06 371.533 450.02C371.919 449.993 372.219 449.833 372.433 449.54C372.659 449.247 372.846 448.72 372.993 447.96C373.219 446.64 373.386 444.627 373.493 441.92C373.519 441.733 373.619 441.64 373.793 441.64H380.593C380.793 441.64 380.893 441.733 380.893 441.92V451.7C380.893 451.9 380.793 452 380.593 452H378.873C378.673 452 378.573 451.9 378.573 451.7V443.68H375.653C375.586 445.587 375.426 447.227 375.173 448.6ZM383.325 442.46C384.351 441.753 385.658 441.4 387.245 441.4C388.538 441.4 389.551 441.74 390.285 442.42C391.031 443.087 391.405 444.1 391.405 445.46V451.3C391.405 451.46 391.331 451.573 391.185 451.64C389.891 452.04 388.551 452.24 387.165 452.24C385.871 452.24 384.805 451.973 383.965 451.44C383.125 450.907 382.705 450.06 382.705 448.9C382.705 447.847 383.098 447.053 383.885 446.52C384.685 445.973 385.751 445.7 387.085 445.7C387.618 445.7 388.285 445.753 389.085 445.86V445.48C389.085 444.76 388.931 444.247 388.625 443.94C388.331 443.62 387.818 443.46 387.085 443.46C386.098 443.46 385.245 443.673 384.525 444.1C384.365 444.22 384.231 444.193 384.125 444.02L383.325 442.8C383.231 442.653 383.231 442.54 383.325 442.46ZM385.045 448.88C385.045 449.333 385.238 449.673 385.625 449.9C386.011 450.113 386.525 450.22 387.165 450.22C387.778 450.22 388.418 450.14 389.085 449.98V447.72C388.365 447.613 387.718 447.56 387.145 447.56C385.745 447.56 385.045 448 385.045 448.88ZM394.795 454.7H393.175C392.988 454.7 392.895 454.607 392.895 454.42V450.24C392.895 450.053 392.988 449.96 393.175 449.96H393.615C394.055 449.653 394.395 448.96 394.635 447.88C394.875 446.787 395.108 444.8 395.335 441.92C395.362 441.733 395.462 441.64 395.635 441.64H402.275C402.475 441.64 402.575 441.733 402.575 441.92V449.96H403.595C403.795 449.96 403.895 450.06 403.895 450.26V454.42C403.895 454.607 403.795 454.7 403.595 454.7H401.975C401.775 454.7 401.675 454.607 401.675 454.42V452H395.095V454.42C395.095 454.607 394.995 454.7 394.795 454.7ZM397.495 443.68C397.228 446.987 396.768 449.08 396.115 449.96H400.275V443.68H397.495ZM410.13 452H405.99C405.79 452 405.69 451.9 405.69 451.7V441.92C405.69 441.733 405.79 441.64 405.99 441.64H407.71C407.91 441.64 408.01 441.733 408.01 441.92V445H410.13C411.356 445 412.343 445.313 413.09 445.94C413.85 446.567 414.23 447.433 414.23 448.54C414.23 449.727 413.863 450.6 413.13 451.16C412.41 451.72 411.41 452 410.13 452ZM408.01 446.9V450.08H409.73C411.17 450.08 411.89 449.553 411.89 448.5C411.903 447.953 411.73 447.553 411.37 447.3C411.01 447.033 410.463 446.9 409.73 446.9H408.01ZM417.35 452H415.63C415.43 452 415.33 451.9 415.33 451.7V441.92C415.33 441.733 415.43 441.64 415.63 441.64H417.35C417.55 441.64 417.65 441.733 417.65 441.92V451.7C417.65 451.9 417.55 452 417.35 452Z" fill="url(#paint6_linear_396_152)"/>
<g filter="url(#filter4_d_396_152)">
<rect x="896" y="360" width="380" height="90" rx="45" fill="url(#paint7_linear_396_152)"/>
</g>
<path d="M1020.74 399.003H1018.92C1018.73 399.003 1018.64 398.903 1018.64 398.703V385.003C1018.64 384.803 1018.73 384.703 1018.92 384.703H1021.1C1021.26 384.703 1021.37 384.776 1021.42 384.923L1023.86 389.463C1024.37 390.41 1024.93 391.583 1025.56 392.983H1025.64C1026.27 391.583 1026.83 390.41 1027.34 389.463L1029.76 384.923C1029.84 384.776 1029.95 384.703 1030.1 384.703H1032.26C1032.46 384.703 1032.56 384.803 1032.56 385.003V398.703C1032.56 398.903 1032.46 399.003 1032.26 399.003H1030.44C1030.25 399.003 1030.16 398.903 1030.16 398.703V394.683C1030.16 393.11 1030.21 391.016 1030.32 388.403L1030.26 388.383C1029.86 389.25 1029.26 390.483 1028.46 392.083L1026.7 395.503C1026.63 395.65 1026.52 395.723 1026.36 395.723H1024.84C1024.68 395.723 1024.57 395.65 1024.5 395.503L1022.74 392.083C1021.94 390.483 1021.34 389.25 1020.94 388.383L1020.88 388.403C1020.99 391.016 1021.04 393.11 1021.04 394.683V398.703C1021.04 398.903 1020.94 399.003 1020.74 399.003ZM1035.39 389.463C1036.41 388.756 1037.72 388.403 1039.31 388.403C1040.6 388.403 1041.61 388.743 1042.35 389.423C1043.09 390.09 1043.47 391.103 1043.47 392.463V398.303C1043.47 398.463 1043.39 398.576 1043.25 398.643C1041.95 399.043 1040.61 399.243 1039.23 399.243C1037.93 399.243 1036.87 398.976 1036.03 398.443C1035.19 397.91 1034.77 397.063 1034.77 395.903C1034.77 394.85 1035.16 394.056 1035.95 393.523C1036.75 392.976 1037.81 392.703 1039.15 392.703C1039.68 392.703 1040.35 392.756 1041.15 392.863V392.483C1041.15 391.763 1040.99 391.25 1040.69 390.943C1040.39 390.623 1039.88 390.463 1039.15 390.463C1038.16 390.463 1037.31 390.676 1036.59 391.103C1036.43 391.223 1036.29 391.196 1036.19 391.023L1035.39 389.803C1035.29 389.656 1035.29 389.543 1035.39 389.463ZM1037.11 395.883C1037.11 396.336 1037.3 396.676 1037.69 396.903C1038.07 397.116 1038.59 397.223 1039.23 397.223C1039.84 397.223 1040.48 397.143 1041.15 396.983V394.723C1040.43 394.616 1039.78 394.563 1039.21 394.563C1037.81 394.563 1037.11 395.003 1037.11 395.883ZM1048.14 399.003H1046.16C1045.96 399.003 1045.86 398.903 1045.86 398.703V388.923C1045.86 388.736 1045.96 388.643 1046.16 388.643H1047.86C1048.06 388.643 1048.16 388.736 1048.16 388.923V393.003C1048.16 393.79 1048.14 394.69 1048.12 395.703H1048.14C1048.52 394.85 1049.16 393.696 1050.04 392.243L1052.04 388.823C1052.14 388.703 1052.26 388.643 1052.4 388.643H1054.4C1054.6 388.643 1054.7 388.736 1054.7 388.923V398.703C1054.7 398.903 1054.6 399.003 1054.4 399.003H1052.7C1052.5 399.003 1052.4 398.903 1052.4 398.703V394.683C1052.4 393.896 1052.41 393.023 1052.44 392.063H1052.42C1052.15 392.676 1051.52 393.803 1050.54 395.443L1048.5 398.803C1048.42 398.936 1048.3 399.003 1048.14 399.003ZM1053.4 384.603C1053.29 385.43 1052.96 386.09 1052.4 386.583C1051.85 387.063 1051.11 387.303 1050.18 387.303C1049.24 387.303 1048.5 387.063 1047.96 386.583C1047.41 386.103 1047.08 385.456 1046.98 384.643C1046.95 384.443 1047.04 384.33 1047.24 384.303L1048.36 384.143C1048.53 384.13 1048.64 384.21 1048.68 384.383C1048.86 385.183 1049.36 385.583 1050.18 385.583C1050.99 385.583 1051.49 385.183 1051.68 384.383C1051.72 384.21 1051.83 384.13 1052.02 384.143L1053.12 384.303C1053.32 384.33 1053.41 384.43 1053.4 384.603ZM1059.24 399.003H1057.52C1057.32 399.003 1057.22 398.903 1057.22 398.703V388.923C1057.22 388.736 1057.32 388.643 1057.52 388.643H1059.24C1059.44 388.643 1059.54 388.736 1059.54 388.923V392.603H1063.42V388.923C1063.42 388.736 1063.52 388.643 1063.72 388.643H1065.44C1065.64 388.643 1065.74 388.736 1065.74 388.923V398.703C1065.74 398.903 1065.64 399.003 1065.44 399.003H1063.72C1063.52 399.003 1063.42 398.903 1063.42 398.703V394.663H1059.54V398.703C1059.54 398.903 1059.44 399.003 1059.24 399.003ZM1070.54 399.003H1068.56C1068.36 399.003 1068.26 398.903 1068.26 398.703V388.923C1068.26 388.736 1068.36 388.643 1068.56 388.643H1070.26C1070.46 388.643 1070.56 388.736 1070.56 388.923V393.003C1070.56 393.79 1070.55 394.69 1070.52 395.703H1070.54C1070.93 394.85 1071.56 393.696 1072.44 392.243L1074.44 388.823C1074.55 388.703 1074.67 388.643 1074.8 388.643H1076.8C1077 388.643 1077.1 388.736 1077.1 388.923V398.703C1077.1 398.903 1077 399.003 1076.8 399.003H1075.1C1074.9 399.003 1074.8 398.903 1074.8 398.703V394.683C1074.8 393.896 1074.81 393.023 1074.84 392.063H1074.82C1074.55 392.676 1073.93 393.803 1072.94 395.443L1070.9 398.803C1070.82 398.936 1070.7 399.003 1070.54 399.003ZM1081.65 399.003H1079.93C1079.73 399.003 1079.63 398.903 1079.63 398.703V388.923C1079.63 388.736 1079.73 388.643 1079.93 388.643H1081.65C1081.85 388.643 1081.95 388.736 1081.95 388.923V392.603H1085.83V388.923C1085.83 388.736 1085.93 388.643 1086.13 388.643H1087.85C1088.05 388.643 1088.15 388.736 1088.15 388.923V398.703C1088.15 398.903 1088.05 399.003 1087.85 399.003H1086.13C1085.93 399.003 1085.83 398.903 1085.83 398.703V394.663H1081.95V398.703C1081.95 398.903 1081.85 399.003 1081.65 399.003ZM1092.68 399.023H1090.96C1090.76 399.023 1090.66 398.923 1090.66 398.723V388.923C1090.66 388.736 1090.76 388.643 1090.96 388.643H1097.1C1097.29 388.643 1097.38 388.736 1097.38 388.923V390.403C1097.38 390.59 1097.29 390.683 1097.1 390.683H1092.98V398.723C1092.98 398.923 1092.88 399.023 1092.68 399.023ZM1111.41 399.003H1109.39C1109.22 399.003 1109.1 398.943 1109.03 398.823L1105.91 394.723L1105.09 395.603V398.703C1105.09 398.903 1104.99 399.003 1104.79 399.003H1103.13C1102.93 399.003 1102.83 398.903 1102.83 398.703V388.943C1102.83 388.743 1102.93 388.643 1103.13 388.643H1104.79C1104.99 388.643 1105.09 388.743 1105.09 388.943V392.803L1108.67 388.803C1108.75 388.696 1108.87 388.643 1109.03 388.643H1111.05C1111.18 388.643 1111.26 388.676 1111.29 388.743C1111.33 388.81 1111.31 388.896 1111.23 389.003L1107.45 393.103L1111.61 398.643C1111.76 398.883 1111.69 399.003 1111.41 399.003ZM1113.15 389.123C1114.37 388.643 1115.72 388.403 1117.19 388.403C1118.57 388.403 1119.69 388.77 1120.53 389.503C1121.37 390.236 1121.79 391.33 1121.79 392.783V394.983C1121.79 396.276 1121.37 397.31 1120.55 398.083C1119.72 398.856 1118.66 399.243 1117.37 399.243C1116.63 399.243 1115.93 399.096 1115.25 398.803V402.503C1115.25 402.703 1115.15 402.803 1114.95 402.803H1113.23C1113.03 402.803 1112.93 402.703 1112.93 402.503V389.443C1112.93 389.283 1113 389.176 1113.15 389.123ZM1117.17 397.203C1118.67 397.203 1119.43 396.47 1119.43 395.003V392.763C1119.43 391.936 1119.23 391.343 1118.85 390.983C1118.46 390.623 1117.89 390.443 1117.13 390.443C1116.33 390.443 1115.7 390.536 1115.25 390.723V396.643C1115.79 397.016 1116.43 397.203 1117.17 397.203ZM1126.22 399.003H1124.24C1124.04 399.003 1123.94 398.903 1123.94 398.703V388.923C1123.94 388.736 1124.04 388.643 1124.24 388.643H1125.94C1126.14 388.643 1126.24 388.736 1126.24 388.923V393.003C1126.24 393.79 1126.23 394.69 1126.2 395.703H1126.22C1126.61 394.85 1127.24 393.696 1128.12 392.243L1130.12 388.823C1130.23 388.703 1130.35 388.643 1130.48 388.643H1132.48C1132.68 388.643 1132.78 388.736 1132.78 388.923V398.703C1132.78 398.903 1132.68 399.003 1132.48 399.003H1130.78C1130.58 399.003 1130.48 398.903 1130.48 398.703V394.683C1130.48 393.896 1130.5 393.023 1130.52 392.063H1130.5C1130.24 392.676 1129.61 393.803 1128.62 395.443L1126.58 398.803C1126.5 398.936 1126.38 399.003 1126.22 399.003ZM1135.61 388.643H1143.53C1143.73 388.643 1143.83 388.736 1143.83 388.923V398.703C1143.83 398.903 1143.73 399.003 1143.53 399.003H1141.81C1141.61 399.003 1141.51 398.903 1141.51 398.703V390.683H1137.63V398.703C1137.63 398.903 1137.54 399.003 1137.35 399.003H1135.61C1135.41 399.003 1135.31 398.903 1135.31 398.703V388.923C1135.31 388.736 1135.41 388.643 1135.61 388.643ZM1150.53 399.003H1148.81C1148.61 399.003 1148.51 398.903 1148.51 398.703V390.683H1145.71C1145.51 390.683 1145.41 390.583 1145.41 390.383V388.923C1145.41 388.736 1145.51 388.643 1145.71 388.643H1153.61C1153.81 388.643 1153.91 388.736 1153.91 388.923V390.383C1153.91 390.583 1153.81 390.683 1153.61 390.683H1150.83V398.703C1150.83 398.903 1150.73 399.003 1150.53 399.003ZM1164.09 395.203C1164.09 396.443 1163.68 397.43 1162.85 398.163C1162.02 398.883 1160.92 399.243 1159.53 399.243C1158.14 399.243 1157.04 398.883 1156.21 398.163C1155.38 397.43 1154.97 396.443 1154.97 395.203V392.523C1154.97 391.27 1155.38 390.27 1156.21 389.523C1157.04 388.776 1158.14 388.403 1159.53 388.403C1160.92 388.403 1162.02 388.776 1162.85 389.523C1163.68 390.27 1164.09 391.27 1164.09 392.523V395.203ZM1157.31 395.203C1157.31 396.51 1158.05 397.163 1159.53 397.163C1160.25 397.163 1160.8 396.996 1161.17 396.663C1161.56 396.33 1161.75 395.843 1161.75 395.203V392.523C1161.75 391.87 1161.56 391.37 1161.17 391.023C1160.78 390.663 1160.24 390.483 1159.53 390.483C1158.81 390.483 1158.26 390.656 1157.87 391.003C1157.5 391.35 1157.31 391.856 1157.31 392.523V395.203ZM1170.75 399.003H1166.57C1166.37 399.003 1166.27 398.903 1166.27 398.703V388.923C1166.27 388.736 1166.37 388.643 1166.57 388.643H1170.75C1171.89 388.643 1172.8 388.903 1173.47 389.423C1174.15 389.93 1174.49 390.596 1174.49 391.423C1174.49 392.343 1174.08 393.043 1173.27 393.523C1174.32 393.976 1174.85 394.823 1174.85 396.063C1174.85 396.943 1174.47 397.656 1173.73 398.203C1172.98 398.736 1171.99 399.003 1170.75 399.003ZM1168.59 390.483V392.843H1170.65C1171.11 392.843 1171.48 392.743 1171.75 392.543C1172.03 392.33 1172.17 392.03 1172.17 391.643C1172.17 390.87 1171.65 390.483 1170.63 390.483H1168.59ZM1168.59 394.543V397.163H1170.65C1171.89 397.163 1172.51 396.716 1172.51 395.823C1172.51 394.97 1171.89 394.543 1170.65 394.543H1168.59ZM1176.81 389.463C1177.84 388.756 1179.15 388.403 1180.73 388.403C1182.03 388.403 1183.04 388.743 1183.77 389.423C1184.52 390.09 1184.89 391.103 1184.89 392.463V398.303C1184.89 398.463 1184.82 398.576 1184.67 398.643C1183.38 399.043 1182.04 399.243 1180.65 399.243C1179.36 399.243 1178.29 398.976 1177.45 398.443C1176.61 397.91 1176.19 397.063 1176.19 395.903C1176.19 394.85 1176.59 394.056 1177.37 393.523C1178.17 392.976 1179.24 392.703 1180.57 392.703C1181.11 392.703 1181.77 392.756 1182.57 392.863V392.483C1182.57 391.763 1182.42 391.25 1182.11 390.943C1181.82 390.623 1181.31 390.463 1180.57 390.463C1179.59 390.463 1178.73 390.676 1178.01 391.103C1177.85 391.223 1177.72 391.196 1177.61 391.023L1176.81 389.803C1176.72 389.656 1176.72 389.543 1176.81 389.463ZM1178.53 395.883C1178.53 396.336 1178.73 396.676 1179.11 396.903C1179.5 397.116 1180.01 397.223 1180.65 397.223C1181.27 397.223 1181.91 397.143 1182.57 396.983V394.723C1181.85 394.616 1181.21 394.563 1180.63 394.563C1179.23 394.563 1178.53 395.003 1178.53 395.883ZM1190.22 395.603C1189.97 396.87 1189.58 397.763 1189.06 398.283C1188.54 398.79 1187.72 399.063 1186.58 399.103C1186.4 399.103 1186.3 399.003 1186.3 398.803V397.343C1186.3 397.17 1186.4 397.063 1186.58 397.023C1186.97 396.996 1187.27 396.836 1187.48 396.543C1187.71 396.25 1187.9 395.723 1188.04 394.963C1188.27 393.643 1188.44 391.63 1188.54 388.923C1188.57 388.736 1188.67 388.643 1188.84 388.643H1195.64C1195.84 388.643 1195.94 388.736 1195.94 388.923V398.703C1195.94 398.903 1195.84 399.003 1195.64 399.003H1193.92C1193.72 399.003 1193.62 398.903 1193.62 398.703V390.683H1190.7C1190.64 392.59 1190.48 394.23 1190.22 395.603ZM1202.42 392.443C1202.43 391.23 1202.83 390.256 1203.62 389.523C1204.42 388.776 1205.46 388.403 1206.76 388.403C1208.09 388.403 1209.16 388.783 1209.96 389.543C1210.76 390.29 1211.16 391.276 1211.16 392.503V395.223C1211.16 396.436 1210.76 397.41 1209.96 398.143C1209.16 398.876 1208.09 399.243 1206.76 399.243C1205.46 399.243 1204.42 398.883 1203.62 398.163C1202.83 397.43 1202.43 396.47 1202.42 395.283L1202.4 394.663H1200.72V398.703C1200.72 398.903 1200.62 399.003 1200.42 399.003H1198.76C1198.56 399.003 1198.46 398.903 1198.46 398.703V388.923C1198.46 388.736 1198.56 388.643 1198.76 388.643H1200.42C1200.62 388.643 1200.72 388.736 1200.72 388.923V392.583H1202.4L1202.42 392.443ZM1205.24 396.663C1205.6 396.996 1206.11 397.163 1206.78 397.163C1207.44 397.163 1207.95 396.996 1208.3 396.663C1208.66 396.316 1208.84 395.83 1208.84 395.203V392.523C1208.84 391.883 1208.66 391.383 1208.3 391.023C1207.95 390.663 1207.44 390.483 1206.78 390.483C1206.11 390.483 1205.6 390.663 1205.24 391.023C1204.89 391.383 1204.72 391.883 1204.72 392.523V395.203C1204.72 395.83 1204.89 396.316 1205.24 396.663ZM1217.34 399.003H1215.62C1215.42 399.003 1215.32 398.903 1215.32 398.703V390.683H1212.52C1212.32 390.683 1212.22 390.583 1212.22 390.383V388.923C1212.22 388.736 1212.32 388.643 1212.52 388.643H1220.42C1220.62 388.643 1220.72 388.736 1220.72 388.923V390.383C1220.72 390.583 1220.62 390.683 1220.42 390.683H1217.64V398.703C1217.64 398.903 1217.54 399.003 1217.34 399.003ZM1022.74 425.003H1018.56C1018.36 425.003 1018.26 424.903 1018.26 424.703V414.923C1018.26 414.736 1018.36 414.643 1018.56 414.643H1022.74C1023.89 414.643 1024.79 414.903 1025.46 415.423C1026.14 415.93 1026.48 416.596 1026.48 417.423C1026.48 418.343 1026.07 419.043 1025.26 419.523C1026.31 419.976 1026.84 420.823 1026.84 422.063C1026.84 422.943 1026.47 423.656 1025.72 424.203C1024.97 424.736 1023.98 425.003 1022.74 425.003ZM1020.58 416.483V418.843H1022.64C1023.11 418.843 1023.47 418.743 1023.74 418.543C1024.02 418.33 1024.16 418.03 1024.16 417.643C1024.16 416.87 1023.65 416.483 1022.62 416.483H1020.58ZM1020.58 420.543V423.163H1022.64C1023.88 423.163 1024.5 422.716 1024.5 421.823C1024.5 420.97 1023.88 420.543 1022.64 420.543H1020.58ZM1035.72 425.003H1033.86C1033.67 425.003 1033.58 424.903 1033.58 424.703V411.003C1033.58 410.803 1033.67 410.703 1033.86 410.703H1043.78C1043.98 410.703 1044.08 410.803 1044.08 411.003V424.703C1044.08 424.903 1043.98 425.003 1043.78 425.003H1041.94C1041.75 425.003 1041.66 424.903 1041.66 424.703V412.923H1036V424.703C1036 424.903 1035.91 425.003 1035.72 425.003ZM1049.49 425.003H1047.65C1047.46 425.003 1047.37 424.903 1047.37 424.703V411.003C1047.37 410.803 1047.46 410.703 1047.65 410.703H1049.49C1049.68 410.703 1049.77 410.803 1049.77 411.003V416.803L1054.77 410.883C1054.89 410.763 1055.01 410.703 1055.13 410.703H1057.47C1057.6 410.703 1057.68 410.743 1057.71 410.823C1057.75 410.89 1057.73 410.97 1057.65 411.063L1052.35 417.083L1058.09 424.643C1058.17 424.75 1058.19 424.836 1058.15 424.903C1058.11 424.97 1058.03 425.003 1057.91 425.003H1055.57C1055.4 425.003 1055.28 424.943 1055.21 424.823L1050.77 418.843L1049.77 419.923V424.703C1049.77 424.903 1049.68 425.003 1049.49 425.003ZM1067.74 423.583H1065.92C1065.76 423.583 1065.64 423.523 1065.58 423.403L1062.88 419.383C1062.8 419.25 1062.8 419.116 1062.88 418.983L1065.58 414.963C1065.64 414.843 1065.76 414.783 1065.92 414.783H1067.74C1068 414.783 1068.06 414.903 1067.92 415.143L1065.18 419.183L1067.92 423.223C1068.06 423.463 1068 423.583 1067.74 423.583ZM1071.92 423.583H1070.1C1069.94 423.583 1069.82 423.523 1069.76 423.403L1067.06 419.383C1066.98 419.25 1066.98 419.116 1067.06 418.983L1069.76 414.963C1069.82 414.843 1069.94 414.783 1070.1 414.783H1071.92C1072.18 414.783 1072.24 414.903 1072.1 415.143L1069.36 419.183L1072.1 423.223C1072.24 423.463 1072.18 423.583 1071.92 423.583ZM1086.02 427.623H1084.3C1084.1 427.623 1084 427.523 1084 427.323V425.003H1074.86C1074.67 425.003 1074.58 424.903 1074.58 424.703V411.003C1074.58 410.803 1074.67 410.703 1074.86 410.703H1076.7C1076.88 410.703 1076.98 410.803 1076.98 411.003V422.763H1082.5V411.003C1082.5 410.803 1082.6 410.703 1082.8 410.703H1084.62C1084.82 410.703 1084.92 410.803 1084.92 411.003V422.763H1086.02C1086.2 422.763 1086.3 422.856 1086.3 423.043V427.323C1086.3 427.523 1086.2 427.623 1086.02 427.623ZM1090.62 425.003H1088.64C1088.44 425.003 1088.34 424.903 1088.34 424.703V414.923C1088.34 414.736 1088.44 414.643 1088.64 414.643H1090.34C1090.54 414.643 1090.64 414.736 1090.64 414.923V419.003C1090.64 419.79 1090.62 420.69 1090.6 421.703H1090.62C1091 420.85 1091.64 419.696 1092.52 418.243L1094.52 414.823C1094.62 414.703 1094.74 414.643 1094.88 414.643H1096.88C1097.08 414.643 1097.18 414.736 1097.18 414.923V424.703C1097.18 424.903 1097.08 425.003 1096.88 425.003H1095.18C1094.98 425.003 1094.88 424.903 1094.88 424.703V420.683C1094.88 419.896 1094.89 419.023 1094.92 418.063H1094.9C1094.63 418.676 1094 419.803 1093.02 421.443L1090.98 424.803C1090.9 424.936 1090.78 425.003 1090.62 425.003ZM1106.85 428.803H1105.13C1104.94 428.803 1104.85 428.703 1104.85 428.503V425.003H1103.41C1102.26 425.003 1101.3 424.656 1100.53 423.963C1099.75 423.27 1099.37 422.25 1099.37 420.903V418.723C1099.37 417.43 1099.77 416.43 1100.57 415.723C1101.37 415.003 1102.38 414.643 1103.61 414.643H1104.85V411.003C1104.85 410.803 1104.94 410.703 1105.13 410.703H1106.85C1107.03 410.703 1107.13 410.803 1107.13 411.003V414.643H1108.55C1109.77 414.643 1110.76 415.003 1111.51 415.723C1112.25 416.43 1112.63 417.43 1112.63 418.723V420.903C1112.63 422.236 1112.25 423.256 1111.49 423.963C1110.73 424.656 1109.81 425.003 1108.75 425.003H1107.13V428.503C1107.13 428.703 1107.03 428.803 1106.85 428.803ZM1101.65 420.863C1101.65 421.596 1101.82 422.13 1102.17 422.463C1102.51 422.783 1103.06 422.943 1103.81 422.943H1104.85V416.683H1103.71C1102.33 416.683 1101.65 417.383 1101.65 418.783V420.863ZM1107.13 422.943H1108.17C1108.91 422.943 1109.46 422.783 1109.81 422.463C1110.15 422.13 1110.33 421.596 1110.33 420.863V418.783C1110.33 417.383 1109.64 416.683 1108.27 416.683H1107.13V422.943ZM1115 415.123C1116.23 414.643 1117.58 414.403 1119.04 414.403C1120.43 414.403 1121.54 414.77 1122.38 415.503C1123.22 416.236 1123.64 417.33 1123.64 418.783V420.983C1123.64 422.276 1123.23 423.31 1122.4 424.083C1121.58 424.856 1120.52 425.243 1119.22 425.243C1118.49 425.243 1117.78 425.096 1117.1 424.803V428.503C1117.1 428.703 1117 428.803 1116.8 428.803H1115.08C1114.88 428.803 1114.78 428.703 1114.78 428.503V415.443C1114.78 415.283 1114.86 415.176 1115 415.123ZM1119.02 423.203C1120.53 423.203 1121.28 422.47 1121.28 421.003V418.763C1121.28 417.936 1121.09 417.343 1120.7 416.983C1120.32 416.623 1119.74 416.443 1118.98 416.443C1118.18 416.443 1117.56 416.536 1117.1 416.723V422.643C1117.65 423.016 1118.29 423.203 1119.02 423.203ZM1134.58 421.203C1134.58 422.443 1134.17 423.43 1133.34 424.163C1132.51 424.883 1131.41 425.243 1130.02 425.243C1128.63 425.243 1127.53 424.883 1126.7 424.163C1125.87 423.43 1125.46 422.443 1125.46 421.203V418.523C1125.46 417.27 1125.87 416.27 1126.7 415.523C1127.53 414.776 1128.63 414.403 1130.02 414.403C1131.41 414.403 1132.51 414.776 1133.34 415.523C1134.17 416.27 1134.58 417.27 1134.58 418.523V421.203ZM1127.8 421.203C1127.8 422.51 1128.54 423.163 1130.02 423.163C1130.74 423.163 1131.29 422.996 1131.66 422.663C1132.05 422.33 1132.24 421.843 1132.24 421.203V418.523C1132.24 417.87 1132.05 417.37 1131.66 417.023C1131.27 416.663 1130.73 416.483 1130.02 416.483C1129.3 416.483 1128.75 416.656 1128.36 417.003C1127.99 417.35 1127.8 417.856 1127.8 418.523V421.203ZM1141.24 425.003H1137.06C1136.86 425.003 1136.76 424.903 1136.76 424.703V414.923C1136.76 414.736 1136.86 414.643 1137.06 414.643H1141.24C1142.38 414.643 1143.29 414.903 1143.96 415.423C1144.64 415.93 1144.98 416.596 1144.98 417.423C1144.98 418.343 1144.57 419.043 1143.76 419.523C1144.81 419.976 1145.34 420.823 1145.34 422.063C1145.34 422.943 1144.96 423.656 1144.22 424.203C1143.47 424.736 1142.48 425.003 1141.24 425.003ZM1139.08 416.483V418.843H1141.14C1141.6 418.843 1141.97 418.743 1142.24 418.543C1142.52 418.33 1142.66 418.03 1142.66 417.643C1142.66 416.87 1142.14 416.483 1141.12 416.483H1139.08ZM1139.08 420.543V423.163H1141.14C1142.38 423.163 1143 422.716 1143 421.823C1143 420.97 1142.38 420.543 1141.14 420.543H1139.08ZM1156.16 421.203C1156.16 422.443 1155.75 423.43 1154.92 424.163C1154.09 424.883 1152.99 425.243 1151.6 425.243C1150.21 425.243 1149.11 424.883 1148.28 424.163C1147.45 423.43 1147.04 422.443 1147.04 421.203V418.523C1147.04 417.27 1147.45 416.27 1148.28 415.523C1149.11 414.776 1150.21 414.403 1151.6 414.403C1152.99 414.403 1154.09 414.776 1154.92 415.523C1155.75 416.27 1156.16 417.27 1156.16 418.523V421.203ZM1149.38 421.203C1149.38 422.51 1150.12 423.163 1151.6 423.163C1152.32 423.163 1152.87 422.996 1153.24 422.663C1153.63 422.33 1153.82 421.843 1153.82 421.203V418.523C1153.82 417.87 1153.63 417.37 1153.24 417.023C1152.85 416.663 1152.31 416.483 1151.6 416.483C1150.88 416.483 1150.33 416.656 1149.94 417.003C1149.57 417.35 1149.38 417.856 1149.38 418.523V421.203ZM1160.62 425.003H1158.64C1158.44 425.003 1158.34 424.903 1158.34 424.703V414.923C1158.34 414.736 1158.44 414.643 1158.64 414.643H1160.34C1160.54 414.643 1160.64 414.736 1160.64 414.923V419.003C1160.64 419.79 1160.62 420.69 1160.6 421.703H1160.62C1161 420.85 1161.64 419.696 1162.52 418.243L1164.52 414.823C1164.62 414.703 1164.74 414.643 1164.88 414.643H1166.88C1167.08 414.643 1167.18 414.736 1167.18 414.923V424.703C1167.18 424.903 1167.08 425.003 1166.88 425.003H1165.18C1164.98 425.003 1164.88 424.903 1164.88 424.703V420.683C1164.88 419.896 1164.89 419.023 1164.92 418.063H1164.9C1164.63 418.676 1164 419.803 1163.02 421.443L1160.98 424.803C1160.9 424.936 1160.78 425.003 1160.62 425.003ZM1165.88 410.603C1165.77 411.43 1165.44 412.09 1164.88 412.583C1164.33 413.063 1163.59 413.303 1162.66 413.303C1161.72 413.303 1160.98 413.063 1160.44 412.583C1159.89 412.103 1159.56 411.456 1159.46 410.643C1159.43 410.443 1159.52 410.33 1159.72 410.303L1160.84 410.143C1161.01 410.13 1161.12 410.21 1161.16 410.383C1161.34 411.183 1161.84 411.583 1162.66 411.583C1163.47 411.583 1163.97 411.183 1164.16 410.383C1164.2 410.21 1164.31 410.13 1164.5 410.143L1165.6 410.303C1165.8 410.33 1165.89 410.43 1165.88 410.603ZM1174.32 414.643H1182.24C1182.44 414.643 1182.54 414.736 1182.54 414.923V424.703C1182.54 424.903 1182.44 425.003 1182.24 425.003H1180.52C1180.32 425.003 1180.22 424.903 1180.22 424.703V416.683H1176.34V424.703C1176.34 424.903 1176.25 425.003 1176.06 425.003H1174.32C1174.12 425.003 1174.02 424.903 1174.02 424.703V414.923C1174.02 414.736 1174.12 414.643 1174.32 414.643ZM1191.36 422.203V414.923C1191.36 414.736 1191.46 414.643 1191.66 414.643H1193.38C1193.58 414.643 1193.68 414.736 1193.68 414.923V424.343C1193.68 427.45 1192.19 429.003 1189.22 429.003C1187.62 429.003 1186.31 428.583 1185.3 427.743C1185.15 427.636 1185.13 427.503 1185.24 427.343L1186.1 426.123C1186.2 425.95 1186.33 425.916 1186.48 426.023C1187.37 426.636 1188.28 426.943 1189.2 426.943C1189.94 426.943 1190.5 426.743 1190.88 426.343C1191.25 425.956 1191.42 425.29 1191.38 424.343C1190.6 424.583 1189.89 424.703 1189.24 424.703C1188.09 424.703 1187.09 424.35 1186.24 423.643C1185.38 422.923 1184.96 421.916 1184.96 420.623V414.923C1184.96 414.736 1185.06 414.643 1185.26 414.643H1187C1187.18 414.643 1187.28 414.736 1187.28 414.923V420.523C1187.28 421.243 1187.49 421.77 1187.92 422.103C1188.34 422.436 1188.89 422.603 1189.56 422.603C1190.24 422.616 1190.84 422.483 1191.36 422.203ZM1200.37 425.003H1198.65C1198.45 425.003 1198.35 424.903 1198.35 424.703V416.683H1195.55C1195.35 416.683 1195.25 416.583 1195.25 416.383V414.923C1195.25 414.736 1195.35 414.643 1195.55 414.643H1203.45C1203.65 414.643 1203.75 414.736 1203.75 414.923V416.383C1203.75 416.583 1203.65 416.683 1203.45 416.683H1200.67V424.703C1200.67 424.903 1200.57 425.003 1200.37 425.003ZM1209.77 425.003H1205.63C1205.43 425.003 1205.33 424.903 1205.33 424.703V414.923C1205.33 414.736 1205.43 414.643 1205.63 414.643H1207.35C1207.55 414.643 1207.65 414.736 1207.65 414.923V418.003H1209.77C1211 418.003 1211.98 418.316 1212.73 418.943C1213.49 419.57 1213.87 420.436 1213.87 421.543C1213.87 422.73 1213.5 423.603 1212.77 424.163C1212.05 424.723 1211.05 425.003 1209.77 425.003ZM1207.65 419.903V423.083H1209.37C1210.81 423.083 1211.53 422.556 1211.53 421.503C1211.54 420.956 1211.37 420.556 1211.01 420.303C1210.65 420.036 1210.1 419.903 1209.37 419.903H1207.65ZM1217.22 423.583H1215.4C1215.14 423.583 1215.08 423.463 1215.22 423.223L1217.96 419.183L1215.22 415.143C1215.08 414.903 1215.14 414.783 1215.4 414.783H1217.22C1217.38 414.783 1217.5 414.843 1217.56 414.963L1220.26 418.983C1220.34 419.116 1220.34 419.25 1220.26 419.383L1217.56 423.403C1217.5 423.523 1217.38 423.583 1217.22 423.583ZM1221.4 423.583H1219.58C1219.32 423.583 1219.26 423.463 1219.4 423.223L1222.14 419.183L1219.4 415.143C1219.26 414.903 1219.32 414.783 1219.58 414.783H1221.4C1221.56 414.783 1221.68 414.843 1221.74 414.963L1224.44 418.983C1224.52 419.116 1224.52 419.25 1224.44 419.383L1221.74 423.403C1221.68 423.523 1221.56 423.583 1221.4 423.583Z" fill="white"/>
<g opacity="0.4">
<path d="M971 380.624C957.359 380.624 946.3 391.692 946.3 405.345C946.3 418.998 957.359 430.066 971 430.066C984.641 430.066 995.7 418.998 995.7 405.345C995.7 391.692 984.642 380.624 971 380.624ZM971 426.976C959.064 426.976 949.388 417.291 949.388 405.345C949.388 393.399 959.064 383.714 971 383.714C982.936 383.714 992.613 393.399 992.613 405.345C992.613 417.291 982.936 426.976 971 426.976Z" fill="#F2F2F2"/>
<path d="M978.852 404.265C981.267 401.967 981.297 398.213 978.92 395.878C977.768 394.747 976.194 394.109 974.552 394.108H974.229V392.86C974.229 392.17 973.651 391.611 972.937 391.611C972.224 391.611 971.646 392.17 971.646 392.86V394.108H969.709V392.86C969.709 392.17 969.13 391.611 968.417 391.611C967.704 391.611 967.126 392.17 967.126 392.86V394.108H961.314C960.601 394.108 960.022 394.667 960.022 395.357C960.022 396.046 960.601 396.605 961.314 396.605H961.96V414.085H961.314C960.601 414.085 960.022 414.644 960.022 415.333C960.022 416.023 960.601 416.582 961.314 416.582H967.126V417.83C967.126 418.52 967.704 419.079 968.417 419.079C969.13 419.079 969.709 418.52 969.709 417.83V416.582H971.646V417.83C971.646 418.52 972.224 419.079 972.937 419.079C973.651 419.079 974.229 418.52 974.229 417.83V416.582H975.792C979.207 416.578 981.974 413.903 981.978 410.601V409.453C981.977 407.306 980.783 405.325 978.852 404.265ZM974.552 396.605C976.513 396.605 978.103 398.143 978.103 400.039C978.103 401.935 976.513 403.472 974.552 403.472H964.543V396.605H974.552ZM979.395 410.601C979.395 412.525 977.782 414.085 975.791 414.085H964.543V405.969H975.792C977.782 405.969 979.395 407.529 979.395 409.453L979.395 410.601Z" fill="#F2F2F2"/>
<path d="M971 380.624C957.359 380.624 946.3 391.692 946.3 405.345C946.3 418.998 957.359 430.066 971 430.066C984.641 430.066 995.7 418.998 995.7 405.345C995.7 391.692 984.642 380.624 971 380.624ZM971 426.976C959.064 426.976 949.388 417.291 949.388 405.345C949.388 393.399 959.064 383.714 971 383.714C982.936 383.714 992.613 393.399 992.613 405.345C992.613 417.291 982.936 426.976 971 426.976Z" stroke="#F2F2F2" stroke-width="0.5"/>
<path d="M978.852 404.265C981.267 401.967 981.297 398.213 978.92 395.878C977.768 394.747 976.194 394.109 974.552 394.108H974.229V392.86C974.229 392.17 973.651 391.611 972.937 391.611C972.224 391.611 971.646 392.17 971.646 392.86V394.108H969.709V392.86C969.709 392.17 969.13 391.611 968.417 391.611C967.704 391.611 967.126 392.17 967.126 392.86V394.108H961.314C960.601 394.108 960.022 394.667 960.022 395.357C960.022 396.046 960.601 396.605 961.314 396.605H961.96V414.085H961.314C960.601 414.085 960.022 414.644 960.022 415.333C960.022 416.023 960.601 416.582 961.314 416.582H967.126V417.83C967.126 418.52 967.704 419.079 968.417 419.079C969.13 419.079 969.709 418.52 969.709 417.83V416.582H971.646V417.83C971.646 418.52 972.224 419.079 972.937 419.079C973.651 419.079 974.229 418.52 974.229 417.83V416.582H975.792C979.207 416.578 981.974 413.903 981.978 410.601V409.453C981.977 407.306 980.783 405.325 978.852 404.265ZM974.552 396.605C976.513 396.605 978.103 398.143 978.103 400.039C978.103 401.935 976.513 403.472 974.552 403.472H964.543V396.605H974.552ZM979.395 410.601C979.395 412.525 977.782 414.085 975.791 414.085H964.543V405.969H975.792C977.782 405.969 979.395 407.529 979.395 409.453L979.395 410.601Z" stroke="#F2F2F2" stroke-width="0.5"/>
</g>
<defs>
<filter id="filter0_f_396_152" x="0.114746" y="0.772461" width="1401.16" height="717.465" filterUnits="userSpaceOnUse" color-interpolation-filters="sRGB">
<feFlood flood-opacity="0" result="BackgroundImageFix"/>
<feBlend mode="normal" in="SourceGraphic" in2="BackgroundImageFix" result="shape"/>
<feGaussianBlur stdDeviation="102" result="effect1_foregroundBlur_396_152"/>
</filter>
<filter id="filter1_d_396_152" x="921" y="173" width="360" height="120" filterUnits="userSpaceOnUse" color-interpolation-filters="sRGB">
<feFlood flood-opacity="0" result="BackgroundImageFix"/>
<feColorMatrix in="SourceAlpha" type="matrix" values="0 0 0 0 0 0 0 0 0 0 0 0 0 0 0 0 0 0 127 0" result="hardAlpha"/>
<feOffset dy="5"/>
<feGaussianBlur stdDeviation="7.5"/>
<feComposite in2="hardAlpha" operator="out"/>
<feColorMatrix type="matrix" values="0 0 0 0 0 0 0 0 0 0 0 0 0 0 0 0 0 0 0.05 0"/>
<feBlend mode="normal" in2="BackgroundImageFix" result="effect1_dropShadow_396_152"/>
<feBlend mode="normal" in="SourceGraphic" in2="effect1_dropShadow_396_152" result="shape"/>
</filter>
<filter id="filter2_d_396_152" x="479" y="246" width="360" height="120" filterUnits="userSpaceOnUse" color-interpolation-filters="sRGB">
<feFlood flood-opacity="0" result="BackgroundImageFix"/>
<feColorMatrix in="SourceAlpha" type="matrix" values="0 0 0 0 0 0 0 0 0 0 0 0 0 0 0 0 0 0 127 0" result="hardAlpha"/>
<feOffset dy="5"/>
<feGaussianBlur stdDeviation="7.5"/>
<feComposite in2="hardAlpha" operator="out"/>
<feColorMatrix type="matrix" values="0 0 0 0 0 0 0 0 0 0 0 0 0 0 0 0 0 0 0.05 0"/>
<feBlend mode="normal" in2="BackgroundImageFix" result="effect1_dropShadow_396_152"/>
<feBlend mode="normal" in="SourceGraphic" in2="effect1_dropShadow_396_152" result="shape"/>
</filter>
<filter id="filter3_d_396_152" x="149" y="389" width="360" height="120" filterUnits="userSpaceOnUse" color-interpolation-filters="sRGB">
<feFlood flood-opacity="0" result="BackgroundImageFix"/>
<feColorMatrix in="SourceAlpha" type="matrix" values="0 0 0 0 0 0 0 0 0 0 0 0 0 0 0 0 0 0 127 0" result="hardAlpha"/>
<feOffset dy="5"/>
<feGaussianBlur stdDeviation="7.5"/>
<feComposite in2="hardAlpha" operator="out"/>
<feColorMatrix type="matrix" values="0 0 0 0 0 0 0 0 0 0 0 0 0 0 0 0 0 0 0.05 0"/>
<feBlend mode="normal" in2="BackgroundImageFix" result="effect1_dropShadow_396_152"/>
<feBlend mode="normal" in="SourceGraphic" in2="effect1_dropShadow_396_152" result="shape"/>
</filter>
<filter id="filter4_d_396_152" x="881" y="350" width="410" height="120" filterUnits="userSpaceOnUse" color-interpolation-filters="sRGB">
<feFlood flood-opacity="0" result="BackgroundImageFix"/>
<feColorMatrix in="SourceAlpha" type="matrix" values="0 0 0 0 0 0 0 0 0 0 0 0 0 0 0 0 0 0 127 0" result="hardAlpha"/>
<feOffset dy="5"/>
<feGaussianBlur stdDeviation="7.5"/>
<feComposite in2="hardAlpha" operator="out"/>
<feColorMatrix type="matrix" values="0 0 0 0 0 0 0 0 0 0 0 0 0 0 0 0 0 0 0.1 0"/>
<feBlend mode="normal" in2="BackgroundImageFix" result="effect1_dropShadow_396_152"/>
<feBlend mode="normal" in="SourceGraphic" in2="effect1_dropShadow_396_152" result="shape"/>
</filter>
<linearGradient id="paint0_linear_396_152" x1="427.599" y1="304.768" x2="609.501" y2="832.751" gradientUnits="userSpaceOnUse">
<stop stop-color="#50CC91"/>
<stop offset="1" stop-color="#0094FF"/>
</linearGradient>
<linearGradient id="paint1_linear_396_152" x1="891.354" y1="288" x2="989.556" y2="57.1638" gradientUnits="userSpaceOnUse">
<stop stop-color="#50CC91"/>
<stop offset="1" stop-color="#0094FF"/>
</linearGradient>
<linearGradient id="paint2_linear_396_152" x1="998.218" y1="248" x2="1022.57" y2="164.208" gradientUnits="userSpaceOnUse">
<stop stop-color="#50CC91"/>
<stop offset="1" stop-color="#0094FF"/>
</linearGradient>
<linearGradient id="paint3_linear_396_152" x1="449.354" y1="361" x2="547.556" y2="130.164" gradientUnits="userSpaceOnUse">
<stop stop-color="#50CC91"/>
<stop offset="1" stop-color="#0094FF"/>
</linearGradient>
<linearGradient id="paint4_linear_396_152" x1="571.33" y1="321" x2="598.966" y2="239.501" gradientUnits="userSpaceOnUse">
<stop stop-color="#50CC91"/>
<stop offset="1" stop-color="#0094FF"/>
</linearGradient>
<linearGradient id="paint5_linear_396_152" x1="119.354" y1="504" x2="217.556" y2="273.164" gradientUnits="userSpaceOnUse">
<stop stop-color="#50CC91"/>
<stop offset="1" stop-color="#0094FF"/>
</linearGradient>
<linearGradient id="paint6_linear_396_152" x1="214.647" y1="464" x2="236.776" y2="378.882" gradientUnits="userSpaceOnUse">
<stop stop-color="#50CC91"/>
<stop offset="1" stop-color="#0094FF"/>
</linearGradient>
<linearGradient id="paint7_linear_396_152" x1="844.589" y1="465" x2="933.209" y2="225.127" gradientUnits="userSpaceOnUse">
<stop stop-color="#50CC91"/>
<stop offset="1" stop-color="#0094FF"/>
</linearGradient>
</defs>
</svg>
