<svg width="20" height="21" viewBox="0 0 20 21" fill="none" xmlns="http://www.w3.org/2000/svg">
<g clip-path="url(#clip0_445_1119)">
<path d="M10 20.5C4.48583 20.5 0 15.902 0 10.25C0 4.59798 4.48583 0 10 0C15.5142 0 20 4.59798 20 10.25C20 15.902 15.5142 20.5 10 20.5ZM10 1.70833C5.405 1.70833 1.66667 5.54013 1.66667 10.25C1.66667 14.9599 5.405 18.7917 10 18.7917C14.595 18.7917 18.3333 14.9599 18.3333 10.25C18.3333 5.54013 14.595 1.70833 10 1.70833ZM13.5775 11.7832L14.8775 11.9583C15.3817 11.9583 15.79 11.5398 15.79 11.023L15.8342 10.1364C15.8342 9.49833 15.5725 8.9269 15.1642 8.50836C13.0667 6.35842 7.09667 6.19271 4.83833 8.50836C4.43 8.9269 4.1675 9.49833 4.16833 10.1364L4.2125 11.023C4.2125 11.5398 4.62083 11.9583 5.125 11.9583L6.425 11.7832C6.92917 11.7832 7.3375 11.3647 7.3375 10.8479L7.46083 9.50004C9.23667 8.72275 10.9275 8.75863 12.5433 9.50004L12.6667 10.8479C12.6667 11.3647 13.075 11.7832 13.5792 11.7832H13.5775Z" fill="#33CC80"/>
</g>
<defs>
<clipPath id="clip0_445_1119">
<rect width="20" height="20.5" fill="white"/>
</clipPath>
</defs>
</svg>
