<svg width="20" height="22" viewBox="0 0 20 22" fill="none" xmlns="http://www.w3.org/2000/svg">
<g clip-path="url(#clip0_445_1121)">
<path d="M12.4942 5.89624H12.4908L7.49667 5.90051C5.66083 5.90222 4.16667 7.4346 4.16667 9.31718V11.8788C4.16667 12.7919 4.51333 13.6504 5.14333 14.2953C5.77333 14.9402 6.61 15.2955 7.5 15.2955H7.5025L12.4967 15.2929C14.3333 15.2921 15.8275 13.7588 15.8275 11.8763V9.31376C15.8275 8.40066 15.48 7.54222 14.85 6.89647C14.22 6.25243 13.3833 5.8971 12.4942 5.8971V5.89624ZM7.49833 7.60885L12.4925 7.60458H12.4942C12.645 7.60458 12.7933 7.62508 12.935 7.66522L10.83 9.82285C10.3908 10.273 9.62333 10.273 9.18333 9.82285L7.07833 7.66437C7.2125 7.62849 7.35333 7.60885 7.49833 7.60885ZM14.1608 11.8763C14.1608 12.8176 13.4142 13.5846 12.495 13.5846L7.50083 13.5872C7.05583 13.5872 6.6375 13.4095 6.3225 13.0875C6.0075 12.7655 5.83417 12.3358 5.83417 11.8788V9.31718C5.83417 9.16087 5.855 9.00968 5.89417 8.86533L8.00667 11.0315C8.54167 11.579 9.2525 11.8814 10.0083 11.8814C10.7642 11.8814 11.4758 11.579 12.0092 11.0315L14.1075 8.8807C14.1433 9.02078 14.1617 9.16599 14.1617 9.31376V11.8763H14.1608ZM10 0.776367C4.48583 0.776367 0 5.37435 0 11.0264C0 16.6784 4.48583 21.2764 10 21.2764C15.5142 21.2764 20 16.6784 20 11.0264C20 5.37435 15.5142 0.776367 10 0.776367ZM10 19.568C5.405 19.568 1.66667 15.7362 1.66667 11.0264C1.66667 6.31649 5.405 2.4847 10 2.4847C14.595 2.4847 18.3333 6.31649 18.3333 11.0264C18.3333 15.7362 14.595 19.568 10 19.568Z" fill="#33CC80"/>
</g>
<defs>
<clipPath id="clip0_445_1121">
<rect width="20" height="20.5" fill="white" transform="translate(0 0.776367)"/>
</clipPath>
</defs>
</svg>
