<svg width="118" height="130" viewBox="0 0 118 130" fill="none" xmlns="http://www.w3.org/2000/svg">
<g clip-path="url(#clip0_456_373)" filter="url(#filter0_f_456_373)">
<path d="M116.3 98.2998L109.4 102.3L110.2 110.3L104.3 105L96.8999 108.3L100.2 100.9L94.7999 94.9998L102.7 95.7998L106.7 88.7998L108.4 96.5998L116.3 98.2998Z" stroke="#33CC80" stroke-width="1.2" stroke-miterlimit="10" stroke-linecap="round" stroke-linejoin="round"/>
<path d="M102 48.5V61.8C102 65.8 98.8 69 94.8 69H93.4H72C68 69 64.8 65.8 64.8 61.8V55.5C64.8 54.6 64.4 53.7 63.8 53.1C63.2 52.5 62.3 52.1 61.4 52.1C59.5 52.1 58 53.6 58 55.5V61.8C58 65.8 54.8 69 50.8 69H27.1C26.3 69 25.5 68.9 24.7 68.6C24.4 68.5 24.1 68.4 23.8 68.2C21.5 67 19.9 64.6 19.9 61.8V53V48.7V48.5C19.9 47.4 20.8 46.5 21.9 46.5H26.9H55.1H58.1H64.9H69.3H93.5H100C101.1 46.5 102 47.4 102 48.5ZM94.1 59.6C94.8 58.9 94.8 57.7 94.1 57C93.4 56.3 92.3 56.3 91.5 57L90.1 58.4C89.4 59.1 89.4 60.3 90.1 61C90.8 61.7 92 61.7 92.7 61L94.1 59.6ZM83.2 60.7L94.4 49.5H79.4L71.3 57.6C70.6 58.3 70.6 59.5 71.3 60.2C72 60.9 73.2 60.9 73.9 60.2L79.9 54.2C80.5 53.6 81.5 53.6 82.1 54.2C82.7 54.8 82.7 55.8 82.1 56.4L80.5 58C79.8 58.7 79.8 59.9 80.5 60.6C81.2 61.3 82.4 61.4 83.2 60.7ZM50.2 59.6C50.9 58.9 50.9 57.7 50.2 57C49.5 56.3 48.4 56.3 47.7 57L46.3 58.4C45.6 59.1 45.6 60.3 46.3 61C47 61.7 48.2 61.7 48.9 61L50.2 59.6ZM39.2 60.7L50.4 49.5H35.4L27.3 57.6C26.6 58.3 26.6 59.5 27.3 60.2C27.7 60.6 28.1 60.7 28.6 60.7C29.1 60.7 29.5 60.5 29.9 60.2L35.9 54.2C36.5 53.6 37.5 53.6 38.1 54.2C38.7 54.8 38.7 55.8 38.1 56.4L36.5 58C35.8 58.7 35.8 59.9 36.5 60.6C37.4 61.4 38.5 61.4 39.2 60.7Z" fill="#404040"/>
<path d="M76.3 103.9L99.9 128.1H6.09998L29.7 103.9C29.7 126.8 76.3 126.8 76.3 103.9Z" fill="white"/>
<path d="M76.3 103.9L99.9 128.1H6.09998L29.7 103.9C29.7 126.8 76.3 126.8 76.3 103.9Z" fill="#404040"/>
<path d="M94.1 56.9996C94.8 57.6996 94.8 58.8996 94.1 59.5996L92.6999 60.9996C91.9999 61.6996 90.9 61.6996 90.1 60.9996C89.4 60.2996 89.4 59.0996 90.1 58.3996L91.5 56.9996C92.3 56.2996 93.4 56.2996 94.1 56.9996Z" fill="white"/>
<path d="M94.3 49.5L83.2 60.7C82.5 61.4 81.3 61.4 80.6 60.7C79.9 60 79.9 58.8 80.6 58.1L82.2 56.5C82.8 55.9 82.8 54.9 82.2 54.3C81.6 53.7 80.6 53.7 80 54.3L74 60.3C73.3 61 72.1 61 71.4 60.3C70.7 59.6 70.7 58.4 71.4 57.7L79.5 49.6H94.3V49.5Z" fill="white"/>
<path d="M93.4 38.0996V46.4996H69.2H64.8H58H55H26.9C32.5 43.9996 35.9 34.3996 35.9 28.0996H87.2C88.3 31.9996 90.5 35.4996 93.4 38.0996Z" fill="white"/>
<path d="M61.4 52.1997C62.3 52.1997 63.2 52.5997 63.8 53.1997C64.4 53.7997 64.8 54.6997 64.8 55.5997V61.8997C64.8 65.8997 68 69.0997 72 69.0997H93.3C92.5 80.7997 85.8 90.7997 76.2 96.3997C71.1 99.2997 65.2 101 58.9 101C46.5 101 35.7 94.4997 29.6 84.6997C26.7 79.9997 24.9 74.4997 24.6 68.6997C25.3 68.9997 26.1 69.0997 27 69.0997H50.7C54.7 69.0997 57.9 65.8997 57.9 61.8997V55.5997C58 53.6997 59.5 52.1997 61.4 52.1997Z" fill="white"/>
<path d="M58.9 101C46.6 101 35.8 94.3997 29.7 84.6997V104C29.7 126.6 75.1999 126.8 76.1999 104.7L58.9 101Z" fill="white"/>
<path d="M76.3 103.9V96.2998C71.2 99.2998 65.3 100.9 59.1 100.9H59L76.4 104.6C76.3 104.4 76.3 104.2 76.3 103.9Z" fill="#404040"/>
<path d="M50.1999 56.9996C50.8999 57.6996 50.8999 58.8996 50.1999 59.5996L48.7999 60.9996C48.0999 61.6996 46.9999 61.6996 46.1999 60.9996C45.4999 60.2996 45.4999 59.0996 46.1999 58.3996L47.5999 56.9996C48.3999 56.2996 49.4999 56.2996 50.1999 56.9996Z" fill="white"/>
<path d="M50.4 49.5L39.2 60.7C38.5 61.4 37.3 61.4 36.6 60.7C35.9 60 35.9 58.8 36.6 58.1L38.2 56.5C38.8 55.9 38.8 54.9 38.2 54.3C37.6 53.7 36.6 53.7 36 54.3L30 60.3C29.6 60.7 29.2 60.8 28.7 60.8C28.2 60.8 27.7 60.6 27.4 60.3C26.7 59.6 26.7 58.4 27.4 57.7L35.5 49.6H50.4V49.5Z" fill="white"/>
<path d="M19.9 52.9999V61.7999C19.9 64.5999 21.5 66.9999 23.8 68.1999C21.2 69.1999 18.1 69.2999 15 68.1999C8.80002 66.0999 5.30002 60.0999 7.10002 54.7999C8.50002 50.7999 12.4 48.3999 16.9 48.3999C17.8 48.3999 18.8 48.4999 19.8 48.6999V52.9999H19.9Z" fill="white"/>
<path d="M76.3 103.9L99.9 128.1H6.09998L29.7 103.9C29.7 126.8 76.3 126.8 76.3 103.9Z" stroke="#404040" stroke-width="1.5" stroke-miterlimit="10" stroke-linecap="round" stroke-linejoin="round"/>
<path d="M29.7 103.9V84.5996" stroke="#404040" stroke-width="1.5" stroke-miterlimit="10" stroke-linecap="round" stroke-linejoin="round"/>
<path d="M76.2999 103.9V96.2998" stroke="#404040" stroke-width="1.5" stroke-miterlimit="10" stroke-linecap="round" stroke-linejoin="round"/>
<path d="M19.9 48.6999C18.9 48.4999 18 48.3999 17 48.3999C12.5 48.4999 8.5 50.8999 7.2 54.7999C5.4 60.0999 8.9 66.0999 15.1 68.1999C18.1 69.2999 21.3 69.1999 23.9 68.1999" stroke="#404040" stroke-width="1.5" stroke-miterlimit="10" stroke-linecap="round" stroke-linejoin="round"/>
<path d="M19.9 52.9996C19 52.6996 18.2 52.4996 17.3 52.4996C15.2 52.3996 13.3 53.1996 12.1 54.5996" stroke="#404040" stroke-width="1.5" stroke-miterlimit="10" stroke-linecap="round" stroke-linejoin="round"/>
<path d="M19.9 48.7V53V61.8C19.9 64.6 21.5 67 23.8 68.2C24.1 68.4 24.4 68.5 24.7 68.6C25.4 68.9 26.2 69 27.1 69H50.8C54.8 69 58 65.8 58 61.8V55.5C58 53.6 59.5 52.1 61.4 52.1C62.3 52.1 63.2 52.5 63.8 53.1C64.4 53.7 64.8 54.6 64.8 55.5V61.8C64.8 65.8 68 69 72 69H93.3H94.7C98.7 69 101.9 65.8 101.9 61.8V48.5C101.9 47.4 101 46.5 99.9 46.5H93.3H69.2H64.8H58H55H26.9" stroke="#404040" stroke-width="1.5" stroke-miterlimit="10" stroke-linecap="round" stroke-linejoin="round"/>
<path d="M61.4 52.1997C61.4 58.1997 59.8 65.7997 63.9 69.8997C65.3 71.2997 64.6 73.7997 62.7 74.3997C60.7 75.0997 59.1 75.3997 59.1 75.3997" stroke="#404040" stroke-width="1.5" stroke-miterlimit="10" stroke-linecap="round" stroke-linejoin="round"/>
<path d="M48.1 79.1997C50.2 81.5997 53.3 83.0997 56.7 83.0997C56.8 83.0997 57 83.0997 57.1 83.0997" stroke="#404040" stroke-width="1.5" stroke-miterlimit="10" stroke-linecap="round" stroke-linejoin="round"/>
<path d="M17 48.4998V22.8998C17 19.1998 19.8 16.0998 23.5 15.7998H23.9C26.8 15.5998 29.7 16.5998 31.7 18.6998C31.7 18.6998 35.1 1.7998 49.9 1.7998C55 1.7998 59.5 1.7998 63.6 1.7998C74.5 1.7998 75 7.0998 85.8 7.0998C87.9 7.0998 89.8 7.5998 91.6 8.3998C109.7 16.8998 93.6 37.9998 93.5 38.0998V46.4998" fill="white"/>
<path d="M17 48.4998V22.8998C17 19.1998 19.8 16.0998 23.5 15.7998H23.9C26.8 15.5998 29.7 16.5998 31.7 18.6998C31.7 18.6998 35.1 1.7998 49.9 1.7998C55 1.7998 59.5 1.7998 63.6 1.7998C74.5 1.7998 75 7.0998 85.8 7.0998C87.9 7.0998 89.8 7.5998 91.6 8.3998C109.7 16.8998 93.6 37.9998 93.5 38.0998V46.4998" stroke="#404040" stroke-width="1.5" stroke-miterlimit="10" stroke-linecap="round" stroke-linejoin="round"/>
<path d="M26.9 46.4996C32.5 43.9996 35.9 34.3996 35.9 28.0996H87.2C88.3 31.9996 90.5 35.4996 93.4 38.1996" stroke="#404040" stroke-width="1.5" stroke-miterlimit="10" stroke-linecap="round" stroke-linejoin="round"/>
<path d="M93.3 68.9996C92.5 80.6996 85.8 90.6996 76.2 96.2996C71.1 99.1996 65.2 100.9 58.9 100.9C46.5 100.9 35.7 94.3996 29.6 84.5996C26.7 79.8996 24.9 74.3996 24.6 68.5996" stroke="#404040" stroke-width="1.5" stroke-miterlimit="10" stroke-linecap="round" stroke-linejoin="round"/>
<path d="M28.7 46.5H21.9C20.8 46.5 19.9 47.4 19.9 48.5V48.7" stroke="#404040" stroke-width="1.5" stroke-miterlimit="10" stroke-linecap="round" stroke-linejoin="round"/>
<path d="M14.2 79.8999L12 84.5999L15.4 88.4999L10.3 87.8999L7.59998 92.2999L6.59998 87.1999L1.59998 86.0999L6.09998 83.4999L5.69998 78.3999L9.39998 81.8999L14.2 79.8999Z" stroke="#999999" stroke-width="1.2" stroke-miterlimit="10" stroke-linecap="round" stroke-linejoin="round"/>
<path d="M15.4 98.5997L13.2 101.4L14.9 104.6L11.5 103.4L9.00002 105.9L9.10002 102.4L5.90002 100.8L9.30002 99.7997L9.90002 96.1997L11.9 99.1997L15.4 98.5997Z" fill="#33CC80"/>
</g>
<defs>
<filter id="filter0_f_456_373" x="0.5" y="0.5" width="116.9" height="128.9" filterUnits="userSpaceOnUse" color-interpolation-filters="sRGB">
<feFlood flood-opacity="0" result="BackgroundImageFix"/>
<feBlend mode="normal" in="SourceGraphic" in2="BackgroundImageFix" result="shape"/>
<feGaussianBlur stdDeviation="0.25" result="effect1_foregroundBlur_456_373"/>
</filter>
<clipPath id="clip0_456_373">
<rect width="115.9" height="127.9" fill="white" transform="translate(1 1)"/>
</clipPath>
</defs>
</svg>
