<svg width="117" height="131" viewBox="0 0 117 131" fill="none" xmlns="http://www.w3.org/2000/svg">
<g clip-path="url(#clip0_456_407)">
<path d="M98.1 95.5L93 87.7C92.7 87.3 92.4 87 92 86.8C91.6 86.6 91.1 86.5 90.2 86.5V85.5H98.8V86.5H97.8C97 86.5 96.5 86.6 96.2 86.7C96.1 86.8 96 87 96 87.2C96 87.4 96.1 87.6 96.2 87.8L101.2 95.5L104.8 89C105 88.7 105 88.4 105 88C105 87.5 104.8 87.2 104.5 86.9C104.2 86.6 103.8 86.5 103.2 86.5H102.3V85.5H109.8V86.5C108.9 86.5 108.3 86.7 107.8 87C107.3 87.3 106.8 87.9 106.4 88.7L102.6 95.6H108.2V96.7H101.8V99.9H108.2V101H101.8V103.3C101.8 103.6 101.9 103.8 102.1 103.9C102.4 104.1 102.7 104.2 103.3 104.2H105V105.3H96V104H97.8C98.3 104 98.6 103.9 98.8 103.8C99 103.6 99.1 103.4 99.1 103.1V100.8H92.3V99.7H99.1V96.5H92.3V95.4H98.1V95.5Z" fill="#33CC80"/>
<path d="M115.8 119.3V129.5H73.6L80.8 113.2L115.8 119.3Z" fill="#404040"/>
<path d="M97.7 3.60013C103.8 9.90013 99.3 23.3001 98.3 35.4001V38.8001C98.3 36.7001 97.8 34.7001 97.1 33.0001C95.6 29.0001 91.8 26.4001 87.5 26.4001H53.1C45.3 26.4001 39 32.7001 39 40.5001V57.9001H34.7V54.9001C34.7 51.4001 33.2 48.0001 30.6 45.6001L30.5 45.5001C29.8 45.0001 29 44.5001 28.2 44.1001C26.1 43.1001 23.8 42.6001 21.7 42.8001C22.7 36.6001 23.7 31.4001 24.6 27.3001C26 21.1001 30.5 16.1001 36.5 14.2001C41.5 12.6001 48 11.2001 55.1 11.2001C69 11.2001 76.2 5.80013 79.7 1.10013C80.2 0.400132 81.4 0.700132 81.4 1.60013C81.6 3.60013 81.3 6.10013 80.5 8.20013C80 9.30013 81.1 10.4001 82.2 10.1001C88.5 8.00013 91.3 3.20013 95.6 2.90013C96.4 2.80013 97.2 3.10013 97.7 3.60013Z" fill="#404040"/>
<path d="M21.7 42.8999C23.8 42.7999 26.1 43.1999 28.2 44.1999C29 44.5999 29.8 45.0999 30.5 45.5999L30.6 45.6999C33.2 48.0999 34.7 51.3999 34.7 54.9999V57.9999H39V40.4999C39 32.6999 45.3 26.3999 53.1 26.3999H87.5C91.7 26.3999 95.6 28.9999 97.1 32.9999C97.8 34.7999 98.3 36.7999 98.3 38.7999V68.6999C98.3 81.8999 90.8 93.6999 79.7 99.4999C74.9 102 69.4 103.4 63.7 103.3C49 103 36.6 93.3999 32.2 80.1999C31.1 76.7999 30.5 73.1999 30.5 69.4999V66.2999C26.5 65.9999 22.7 64.8999 19.1 63.1999C13.2 60.2999 10.4 53.7999 13 48.5999C14.6 44.9999 17.9 43.0999 21.7 42.8999ZM80.3 56.5999V52.9999C80.3 52.3999 80.1 51.8999 79.7 51.4999C79.3 51.0999 78.8 50.8999 78.2 50.8999C77.1 50.8999 76.1 51.7999 76.1 52.9999V56.4999C76.1 57.5999 77 58.5999 78.2 58.5999C79.4 58.5999 80.3 57.6999 80.3 56.5999ZM55.9 56.5999V52.9999C55.9 52.3999 55.7 51.8999 55.3 51.4999C54.9 51.0999 54.4 50.8999 53.8 50.8999C52.7 50.8999 51.7 51.7999 51.7 52.9999V56.4999C51.7 57.5999 52.6 58.5999 53.8 58.5999C55 58.5999 55.9 57.6999 55.9 56.5999Z" fill="white"/>
<path d="M80.3 52.9999V56.4999C80.3 57.5999 79.4 58.5999 78.2 58.5999C77 58.5999 76.1 57.6999 76.1 56.4999V52.9999C76.1 51.8999 77 50.8999 78.2 50.8999C78.8 50.8999 79.3 51.0999 79.7 51.4999C80.1 51.8999 80.3 52.4999 80.3 52.9999Z" fill="#404040"/>
<path d="M80.5 108.4L80.8 113.2L73.6 129.5H71.2L66.9 120.4L80.5 108.4Z" fill="white"/>
<path d="M79.8 99.4001L80.5 108.4L66.9 120.4H60.7L32.3 104.4V80.1001C36.7 93.4001 49.1 103 63.8 103.2C69.5 103.3 75 101.9 79.8 99.4001Z" fill="white"/>
<path d="M66.9 120.4L71.2 129.5H56.7L60.7 120.4H66.9Z" fill="#404040"/>
<path d="M60.7 120.4L56.7 129.5H49.6L32.3 109.6V104.3L60.7 120.4Z" fill="white"/>
<path d="M55.9 52.9999V56.4999C55.9 57.5999 55 58.5999 53.8 58.5999C52.6 58.5999 51.7 57.6999 51.7 56.4999V52.9999C51.7 51.8999 52.6 50.8999 53.8 50.8999C54.4 50.8999 54.9 51.0999 55.3 51.4999C55.7 51.8999 55.9 52.4999 55.9 52.9999Z" fill="#404040"/>
<path d="M32.3 109.6L49.6 129.5H1.79999V119L32.3 109.6Z" fill="#404040"/>
<path d="M32.3 80.1004C31.2 76.7004 30.6 73.1004 30.6 69.4004V66.2004C26.6 65.9004 22.8 64.8004 19.2 63.1004C13.3 60.2004 10.5 53.7004 13.1 48.5004C14.7 45.2004 18.1 43.2004 21.8 43.0004C23.9 42.9004 26.2 43.3004 28.3 44.3004C29.1 44.7004 29.9 45.2004 30.6 45.7004L30.7 45.8004C33.3 48.2004 34.8 51.5004 34.8 55.1004V58.1004H39V40.5004C39 32.7004 45.3 26.4004 53.1 26.4004H87.5C91.7 26.4004 95.6 29.0004 97.1 33.0004C97.8 34.8004 98.3 36.8004 98.3 38.8004" stroke="#404040" stroke-width="1.5" stroke-miterlimit="10" stroke-linecap="round" stroke-linejoin="round"/>
<path d="M21.7 42.9002C22.7 36.7002 23.7 31.5002 24.6 27.4002C26 21.2002 30.5 16.2002 36.5 14.3002C41.5 12.7002 48 11.3002 55.1 11.3002C69 11.3002 76.2 5.90023 79.7 1.20023C80.2 0.50023 81.4 0.80023 81.4 1.70023C81.6 3.70023 81.3 6.20023 80.5 8.30023C80 9.40023 81.1 10.5002 82.2 10.2002C88.5 8.10023 91.3 3.30023 95.6 3.00023C96.4 2.90023 97.1 3.30023 97.7 3.80023C103.8 10.1002 99.3 23.5002 98.3 35.6002V39.0002V68.9002C98.3 82.1002 90.8 93.9002 79.7 99.7002C74.9 102.2 69.4 103.6 63.7 103.5C49 103.2 36.6 93.6002 32.2 80.4002" stroke="#404040" stroke-width="1.5" stroke-miterlimit="10" stroke-linecap="round" stroke-linejoin="round"/>
<path d="M80.8 113.2L80.5 108.4L79.8 99.4004" stroke="#404040" stroke-width="1.5" stroke-miterlimit="10" stroke-linecap="round" stroke-linejoin="round"/>
<path d="M32.3 80.1001V104.3L60.7 120.4L56.7 129.5" stroke="#404040" stroke-width="1.5" stroke-miterlimit="10" stroke-linecap="round" stroke-linejoin="round"/>
<path d="M49.6 129.5L32.3 109.6" stroke="#404040" stroke-width="1.5" stroke-miterlimit="10" stroke-linecap="round" stroke-linejoin="round"/>
<path d="M32.3 104.3V109.6L1.79999 119V129.5H49.6H56.7H71.2H73.6H115.8V119.3L80.8 113.2L73.6 129.5" stroke="#404040" stroke-width="1.5" stroke-miterlimit="10" stroke-linecap="round" stroke-linejoin="round"/>
<path d="M71.2 129.5L66.9 120.4L80.5 108.4" stroke="#404040" stroke-width="1.5" stroke-miterlimit="10" stroke-linecap="round" stroke-linejoin="round"/>
<path d="M60.7 120.4H66.9" stroke="#404040" stroke-width="1.5" stroke-miterlimit="10" stroke-linecap="round" stroke-linejoin="round"/>
<path d="M68.6 49.7002C68.6 56.4002 75.6 66.0002 66.5 66.0002" stroke="#404040" stroke-width="1.5" stroke-miterlimit="10" stroke-linecap="round" stroke-linejoin="round"/>
<path d="M59.8 76.2002C63.3 77.3002 69.8 77.0002 72.7 76.2002" stroke="#404040" stroke-width="1.5" stroke-miterlimit="10" stroke-linecap="round" stroke-linejoin="round"/>
<path d="M65.3 80.3003H67.1" stroke="#404040" stroke-width="1.5" stroke-miterlimit="10" stroke-linecap="round" stroke-linejoin="round"/>
<path d="M47.5 44.6003C53.8 41.9003 62.8 42.2003 62.8 42.2003" stroke="#404040" stroke-width="3" stroke-miterlimit="10" stroke-linecap="round" stroke-linejoin="round"/>
<path d="M86.7 44.6003C80.4 41.9003 71.4 42.2003 71.4 42.2003" stroke="#404040" stroke-width="3" stroke-miterlimit="10" stroke-linecap="round" stroke-linejoin="round"/>
<path d="M22.2 48.5C23.8 48.9 25 49.6 26 50.5C28.1 52.4 28.9 55 28.6 56.9" stroke="#404040" stroke-width="1.5" stroke-miterlimit="10" stroke-linecap="round" stroke-linejoin="round"/>
<path d="M23.2 53.6C23.7 52.3 24.9 51.3 26.1 50.5" stroke="#404040" stroke-width="1.5" stroke-miterlimit="10" stroke-linecap="round" stroke-linejoin="round"/>
<path d="M20.9 102C20.7 102.3 20.4 102.5 20 102.7C19.6 102.9 19.1 103 18.6 103V104.3H18.2V103C17.7 103 17.2 102.9 16.7 102.7C16.2 102.5 15.9 102.3 15.6 102L15.9 101.6C16.2 101.9 16.5 102.1 16.9 102.3C17.3 102.5 17.8 102.6 18.3 102.6V99.4C17.8 99.3 17.4 99.1 17 99C16.6 98.9 16.4 98.7 16.2 98.4C16 98.1 15.9 97.8 15.9 97.3C15.9 96.7 16.1 96.3 16.5 95.9C16.9 95.5 17.5 95.3 18.3 95.3V94H18.7V95.3C19.1 95.3 19.5 95.4 19.9 95.5C20.3 95.6 20.6 95.8 20.9 96L20.7 96.5C20.4 96.3 20.1 96.1 19.7 96C19.3 95.9 19 95.8 18.6 95.8V99C19.2 99.1 19.6 99.3 20 99.4C20.3 99.5 20.6 99.7 20.9 100C21.1 100.3 21.3 100.6 21.3 101.1C21.2 101.4 21.1 101.7 20.9 102ZM16.9 98.3C17.2 98.5 17.7 98.7 18.3 98.9V95.8C17.7 95.8 17.2 96 16.9 96.3C16.6 96.6 16.4 96.9 16.4 97.3C16.4 97.7 16.5 98 16.9 98.3ZM20.2 102.1C20.5 101.8 20.7 101.5 20.7 101C20.7 100.7 20.6 100.4 20.4 100.2C20.2 100 20 99.8 19.7 99.7C19.4 99.6 19.1 99.5 18.6 99.4V102.5C19.3 102.6 19.8 102.4 20.2 102.1Z" fill="#33CC80"/>
<g clip-path="url(#clip1_456_407)">
<path d="M10.0834 84.5C13.53 84.5 16.3334 81.6967 16.3334 78.25C16.3334 74.8033 13.53 72 10.0834 72H6.33335C4.03585 72 2.16669 73.8692 2.16669 76.1667V82.8333H0.50002C0.0400204 82.8333 -0.333313 83.2058 -0.333313 83.6667C-0.333313 84.1275 0.0400204 84.5 0.50002 84.5H2.16669V86.1667H0.50002C0.0400204 86.1667 -0.333313 86.5392 -0.333313 87C-0.333313 87.4608 0.0400204 87.8333 0.50002 87.8333H2.16669V91.1667C2.16669 91.6275 2.54002 92 3.00002 92C3.46002 92 3.83335 91.6275 3.83335 91.1667V87.8333H10.5C10.96 87.8333 11.3334 87.4608 11.3334 87C11.3334 86.5392 10.96 86.1667 10.5 86.1667H3.83335V84.5H10.0834ZM3.83335 76.1667C3.83335 74.7883 4.95502 73.6667 6.33335 73.6667H10.0834C12.6109 73.6667 14.6667 75.7233 14.6667 78.25C14.6667 80.7767 12.6109 82.8333 10.0834 82.8333H3.83335V76.1667Z" fill="#999999"/>
</g>
</g>
<defs>
<clipPath id="clip0_456_407">
<rect width="116.5" height="130.3" fill="white"/>
</clipPath>
<clipPath id="clip1_456_407">
<rect width="20" height="20" fill="white" transform="translate(-2 72)"/>
</clipPath>
</defs>
</svg>
