<svg width="117" height="132" viewBox="0 0 117 132" fill="none" xmlns="http://www.w3.org/2000/svg">
<g clip-path="url(#clip0_456_335)">
<path d="M97.7 109.8C100.075 109.8 102 107.875 102 105.5C102 103.125 100.075 101.2 97.7 101.2C95.3252 101.2 93.4 103.125 93.4 105.5C93.4 107.875 95.3252 109.8 97.7 109.8Z" stroke="#999999" stroke-width="2" stroke-miterlimit="10" stroke-linecap="round" stroke-linejoin="round"/>
<path d="M82.7 94.7997C85.0748 94.7997 87 92.8745 87 90.4997C87 88.1249 85.0748 86.1997 82.7 86.1997C80.3252 86.1997 78.4 88.1249 78.4 90.4997C78.4 92.8745 80.3252 94.7997 82.7 94.7997Z" stroke="#999999" stroke-width="2" stroke-miterlimit="10" stroke-linecap="round" stroke-linejoin="round"/>
<path d="M80.8 107.2L99.4 88.5996" stroke="#999999" stroke-width="2" stroke-miterlimit="10" stroke-linecap="round" stroke-linejoin="round"/>
<path d="M113 66.2998C114.657 66.2998 116 64.9567 116 63.2998C116 61.643 114.657 60.2998 113 60.2998C111.343 60.2998 110 61.643 110 63.2998C110 64.9567 111.343 66.2998 113 66.2998Z" stroke="#33CC80" stroke-width="1.5" stroke-miterlimit="10" stroke-linecap="round" stroke-linejoin="round"/>
<path d="M102.6 55.8999C104.257 55.8999 105.6 54.5568 105.6 52.8999C105.6 51.243 104.257 49.8999 102.6 49.8999C100.943 49.8999 99.6001 51.243 99.6001 52.8999C99.6001 54.5568 100.943 55.8999 102.6 55.8999Z" stroke="#33CC80" stroke-width="1.5" stroke-miterlimit="10" stroke-linecap="round" stroke-linejoin="round"/>
<path d="M101.3 64.5001L114.2 51.6001" stroke="#33CC80" stroke-width="1.5" stroke-miterlimit="10" stroke-linecap="round" stroke-linejoin="round"/>
<path d="M10.6 100.7C11.7598 100.7 12.7 99.7598 12.7 98.6C12.7 97.4402 11.7598 96.5 10.6 96.5C9.4402 96.5 8.5 97.4402 8.5 98.6C8.5 99.7598 9.4402 100.7 10.6 100.7Z" stroke="#33CC80" stroke-width="1.2" stroke-miterlimit="10" stroke-linecap="round" stroke-linejoin="round"/>
<path d="M3.1 93.2C4.2598 93.2 5.2 92.2598 5.2 91.1C5.2 89.9402 4.2598 89 3.1 89C1.9402 89 1 89.9402 1 91.1C1 92.2598 1.9402 93.2 3.1 93.2Z" stroke="#33CC80" stroke-width="1.2" stroke-miterlimit="10" stroke-linecap="round" stroke-linejoin="round"/>
<path d="M2.19995 99.5002L11.4 90.2002" stroke="#33CC80" stroke-width="1.2" stroke-miterlimit="10" stroke-linecap="round" stroke-linejoin="round"/>
<path d="M100 7.1998C102.1 11.1998 101.8 15.9998 99.2 19.6998L93.4001 27.9998C83.6001 12.9998 41.3 24.7998 29.3 41.7998L47.2001 16.0998C48 14.8998 49.0001 13.6998 49.9001 12.6998C56.7001 5.1998 66.4 0.799805 76.7 0.799805H89.3001C93.8 0.799805 97.9 3.2998 100 7.1998Z" fill="white"/>
<path d="M89.6 123.2L97 130.7H46.9V128C63.7 128 67.5 119 67.5 115.5H71.4C78.2 115.6 84.8 118.3 89.6 123.2Z" fill="#404040"/>
<path d="M94.7 30.6996C97 37.1996 94.3 44.1996 86.7 48.6996C81.7 51.6996 74.7 53.5996 65.6 53.5996C49.8 53.5996 30.3 49.9996 30.3 49.9996C30.3 55.1996 27 58.9996 24.4 62.5996C23.1 61.7996 21.6 61.1996 20 60.7996C18.8 60.5996 17.6 60.4996 16.4 60.4996L29.3 41.9996L29.4 41.8996C41.3 24.8996 83.6 13.0996 93.5 28.0996C93.9 28.8996 94.3 29.6996 94.7 30.6996Z" fill="#404040"/>
<path d="M86.7 48.6997V75.3997C86.7 88.3997 78.8 99.4997 67.5 104.2C63.8 105.7 59.7 106.6 55.5 106.6C39 106.6 25.5 93.7997 24.4 77.4997C22.1 78.5997 19.2 78.9997 16.3 78.3997C10.3 77.1997 6.29999 72.1997 7.29999 67.3997C8.09999 63.4997 11.9 60.8997 16.4 60.5997C17.6 60.4997 18.8 60.5997 20 60.8997C21.6 61.1997 23.1 61.8997 24.4 62.6997C27 58.9997 30.2 55.1997 30.2 49.9997C30.2 49.9997 49.7 53.5997 65.5 53.5997C74.6 53.5997 81.7 51.6997 86.7 48.6997ZM72.6 73.3997V70.9997C72.6 70.3997 72.4 69.7997 71.9 69.3997C71.5 68.9997 70.9 68.6997 70.3 68.6997C69.1 68.6997 68 69.6997 68 70.9997V73.3997C68 74.6997 69 75.6997 70.3 75.6997C71.6 75.6997 72.6 74.6997 72.6 73.3997ZM50.3 73.3997V70.9997C50.3 70.3997 50.1 69.7997 49.6 69.3997C49.2 68.9997 48.6 68.6997 48 68.6997C46.8 68.6997 45.7 69.6997 45.7 70.9997V73.3997C45.7 74.6997 46.7 75.6997 48 75.6997C49.3 75.6997 50.3 74.6997 50.3 73.3997Z" fill="white"/>
<path d="M72.6 70.9997V73.3997C72.6 74.6997 71.6 75.6997 70.3 75.6997C69 75.6997 68 74.6997 68 73.3997V70.9997C68 69.6997 69 68.6997 70.3 68.6997C70.9 68.6997 71.5 68.8997 71.9 69.3997C72.4 69.7997 72.6 70.3997 72.6 70.9997Z" fill="#404040"/>
<path d="M67.5 104.1C63.8 105.6 59.7 106.5 55.5 106.5C54.1 106.5 52.7 106.4 51.3 106.2L67.5 110.7V104.1Z" fill="#404040"/>
<path d="M51.3 106.2C49.9 106 48.6 105.7 47.3 105.4C34.7 102 25.3 90.8999 24.4 77.3999V115.5C24.4 119.2 28.9 128 46.9 128C56.1 128 61.4 125.3 64.3 122.3C66.7 119.8 67.5 117.1 67.5 115.5V110.6L51.3 106.2Z" fill="white"/>
<path d="M50.3001 70.9997V73.3997C50.3001 74.6997 49.3001 75.6997 48.0001 75.6997C46.8001 75.6997 45.7001 74.6997 45.7001 73.3997V70.9997C45.7001 69.6997 46.7001 68.6997 48.0001 68.6997C48.6001 68.6997 49.2001 68.8997 49.6001 69.3997C50.1001 69.7997 50.3001 70.3997 50.3001 70.9997Z" fill="#404040"/>
<path d="M50 12.7C49 13.8 48.1 14.9 47.3 16.1L29.4 41.9L29.3 42L16.3 60.6C5.19999 49.5 5.69999 31.1 17.3 19.5C26.3 10.5 39.4 8.09999 50 12.7Z" fill="white"/>
<path d="M46.9001 128.1V130.8H0.800049L2.30005 128.2C6.90005 120.4 15.3 115.6 24.4 115.6C24.4 119.3 28.9001 128.1 46.9001 128.1Z" fill="#404040"/>
<path d="M86.7 48.6997V75.3997C86.7 88.3997 78.8 99.4997 67.5 104.2C63.8 105.7 59.7 106.6 55.5 106.6C39 106.6 25.5 93.7997 24.4 77.4997C22.1 78.5997 19.2 78.9997 16.3 78.3997C10.3 77.1997 6.29999 72.1997 7.29999 67.3997C8.09999 63.4997 11.9 60.8997 16.4 60.5997C17.6 60.4997 18.8 60.5997 20 60.8997C21.6 61.1997 23.1 61.8997 24.4 62.6997C27 58.9997 30.2 55.1997 30.2 49.9997C30.2 49.9997 49.7 53.5997 65.5 53.5997C74.6 53.5997 81.7 51.6997 86.7 48.6997ZM86.7 48.6997C94.3 44.1997 97 37.1997 94.7 30.6997C94.4 29.7997 93.9 28.8997 93.5 28.1997C83.7 13.1997 41.4 24.9997 29.4 41.9997" stroke="#404040" stroke-width="1.5" stroke-miterlimit="10" stroke-linecap="round" stroke-linejoin="round"/>
<path d="M17.1001 64.5996C20.8001 65.3996 23.6001 67.8996 24.4001 70.7996" stroke="#404040" stroke-width="1.5" stroke-miterlimit="10" stroke-linecap="round" stroke-linejoin="round"/>
<path d="M17.6001 68.8996C18.0001 67.3996 18.9001 66.2996 20.0001 65.5996" stroke="#404040" stroke-width="1.5" stroke-miterlimit="10" stroke-linecap="round" stroke-linejoin="round"/>
<path d="M24.4 115.6C15.3 115.6 6.90005 120.4 2.30005 128.2L0.800049 130.8H46.9001H97.1L89.7 123.3C84.9 118.4 78.3 115.7 71.4 115.7H67.5" stroke="#404040" stroke-width="1.5" stroke-miterlimit="10" stroke-linecap="round" stroke-linejoin="round"/>
<path d="M24.4 77.3999V115.5C24.4 119.2 29 128 46.9 128C63.7 128 67.5 119 67.5 115.5V104" stroke="#404040" stroke-width="1.5" stroke-miterlimit="10" stroke-linecap="round" stroke-linejoin="round"/>
<path d="M93.4 28.0998L99.2 19.7998C101.8 16.0998 102.1 11.2998 100 7.2998C97.9 3.2998 93.8 0.799805 89.3 0.799805H76.7C66.4 0.799805 56.7 5.1998 50 12.6998C49 13.7998 48.1 14.8998 47.3 16.0998L29.4 41.8998L29.3 41.9998L16.3 60.5998C5.19999 49.4998 5.69999 31.0998 17.3 19.4998C26.3 10.4998 39.3 8.1998 49.9 12.6998" stroke="#404040" stroke-width="1.5" stroke-miterlimit="10" stroke-linecap="round" stroke-linejoin="round"/>
<path d="M60.2001 68.2998C59.9001 73.6998 62.5001 81.4998 54.7001 81.4998" stroke="#404040" stroke-width="1.5" stroke-miterlimit="10" stroke-linecap="round" stroke-linejoin="round"/>
<path d="M40.2001 64.6998C44.4001 62.7998 48.9001 61.5998 53.6001 61.2998" stroke="#404040" stroke-width="3" stroke-miterlimit="10" stroke-linecap="round" stroke-linejoin="round"/>
<path d="M77.6 64.1998C73.7 62.6998 69.5 61.6998 65.5 61.2998" stroke="#404040" stroke-width="3" stroke-miterlimit="10" stroke-linecap="round" stroke-linejoin="round"/>
<path d="M49.5 85.5C50.7 88.1 54.8 90 57.6 89.7" stroke="#404040" stroke-width="1.5" stroke-miterlimit="10" stroke-linecap="round" stroke-linejoin="round"/>
</g>
<defs>
<clipPath id="clip0_456_335">
<rect width="116.7" height="131.5" fill="white"/>
</clipPath>
</defs>
</svg>
