<svg width="130" height="110" viewBox="0 0 130 110" fill="none" xmlns="http://www.w3.org/2000/svg">
<path d="M128.867 76.5158C128.867 80.928 127.946 85.1267 126.259 88.8984L76.4774 47.9791C81.5399 45.346 87.4462 43.8516 93.6593 43.8516C113.142 43.8516 128.867 58.5113 128.867 76.5158Z" fill="#494949"/>
<path d="M33.753 40.6494C38.5854 44.0652 41.6535 49.5449 41.6535 55.5938C41.6535 66.0549 32.5257 74.4523 21.3268 74.4523C16.7245 74.4523 12.5824 73.029 9.13071 70.6806C4.1449 67.1935 1 61.7139 1 55.5938C1 45.1327 10.1279 36.7354 21.3268 36.7354C21.7103 36.7354 22.0938 36.7354 22.4006 36.7354C22.1705 38.7991 21.787 40.934 21.3268 43.0689C20.9432 44.7769 22.0938 46.4848 24.0881 46.8406C25.7757 47.1253 27.4632 46.129 28.0001 44.5634C28.6904 42.5708 29.3808 40.5782 29.9177 38.4433C31.2217 39.0126 32.3723 39.6531 33.5228 40.4359L33.753 40.6494Z" fill="white"/>
<path d="M58.6819 73.0284C58.5285 74.1671 58.4518 75.3768 58.4518 76.5866C58.4518 92.6697 71.0314 106.12 87.5996 108.753C89.5939 109.109 91.5882 109.251 93.736 109.251C108.463 109.251 121.043 100.854 126.336 88.9692C128.023 85.1263 128.943 80.9276 128.943 76.5866C128.943 58.511 113.142 43.9224 93.736 43.9224C87.5229 43.9224 81.6166 45.4168 76.5541 48.0499" stroke="#494949" stroke-width="1.5" stroke-miterlimit="10" stroke-linecap="round" stroke-linejoin="round"/>
<path d="M9.13074 70.6806C12.5057 73.029 16.7245 74.4523 21.3268 74.4523C32.6024 74.4523 41.6536 65.9838 41.6536 55.5938C41.6536 49.5449 38.5854 44.1364 33.753 40.6494" stroke="#494949" stroke-width="1.5" stroke-miterlimit="10" stroke-linecap="round" stroke-linejoin="round"/>
<path d="M9.13074 70.6804L13.733 73.8827C17.108 76.2311 21.3268 77.6544 25.9291 77.6544C36.1308 77.6544 44.5684 70.6804 46.0258 61.6425C46.1792 60.7174 46.2559 59.7211 46.2559 58.796C46.2559 52.6047 43.0342 47.1251 38.1251 43.638L37.128 42.9264L33.8297 40.6492L33.5996 40.5068" stroke="#494949" stroke-width="1.5" stroke-miterlimit="10" stroke-linecap="round" stroke-linejoin="round"/>
<path d="M46.0258 61.6426C46.2559 61.7849 46.486 61.8561 46.7928 61.9272C49.7076 63.137 52.2388 65.0584 54.1564 67.4069L58.682 73.0288L87.5997 108.753" stroke="#494949" stroke-width="1.5" stroke-miterlimit="10" stroke-linecap="round" stroke-linejoin="round"/>
<path d="M58.6819 73.0283L87.5996 108.753C71.0314 106.048 58.4518 92.6696 58.4518 76.5865C58.4518 75.3767 58.5285 74.1669 58.6819 73.0283Z" fill="#494949"/>
<path d="M30.6846 59.5787L29.7642 57.8708L24.2414 60.575L22.8607 58.1555L25.0085 57.1592C26.3124 56.5187 27.3096 55.807 27.8465 54.8819C28.4602 54.0279 28.6903 53.0317 28.6136 51.9642C28.5369 50.8967 28.1534 49.6869 27.3863 48.3348C26.6193 46.9827 25.7755 45.9153 24.8551 45.1324C23.9346 44.3496 23.0141 43.9227 21.9403 43.8515C20.8664 43.7803 19.7159 44.065 18.4119 44.7055L12.3522 47.6232L20.5596 62.283L19.1789 62.9946L20.0994 64.7025L21.4801 63.9909L23.5511 67.6203L27.1562 65.8412L25.0852 62.2118L30.6846 59.5787ZM18.7954 47.6944C19.5624 47.3385 20.2528 47.125 20.7897 47.125C21.3266 47.125 21.8636 47.4097 22.3238 47.9078C22.784 48.406 23.321 49.1176 23.8579 50.1139C24.3181 50.9679 24.6249 51.7507 24.7784 52.32C24.9318 52.8893 24.7784 53.4586 24.4715 53.8145C24.1647 54.2414 23.6278 54.5973 22.9374 54.9531L21.4801 55.6647L17.4147 48.3348L18.7954 47.6944Z" fill="#33CC80"/>
<path d="M47.4065 6.5612C47.4065 5.70723 47.4832 4.92443 47.5599 4.07046C47.7133 2.29136 49.3241 0.939246 51.2417 1.08157C53.0059 1.15274 54.3866 2.57602 54.4633 4.21279V4.28395C54.54 7.20168 54.7701 10.1194 55.0002 13.0371V12.966C55.0002 11.3292 56.2275 9.90591 57.915 9.62125C59.9093 9.3366 61.5968 10.6887 61.8269 12.3966C62.1338 15.1009 62.5173 17.8763 62.9775 20.5805C63.361 23.2847 63.8213 25.989 64.2815 28.6932C64.7417 31.3974 65.2787 34.1017 65.8156 36.7347C66.2758 38.7985 67.4264 40.6487 69.1139 42.0009L76.4009 47.9786L126.182 88.8979C120.89 100.782 108.31 109.18 93.5827 109.18C91.5117 109.18 89.4407 109.037 87.4464 108.682L58.5287 72.9572L54.0031 67.3352C52.0855 64.9868 49.5542 63.0654 46.6394 61.8556C46.4093 61.7845 46.1792 61.6421 45.8724 61.571C46.0258 60.6458 46.1025 59.6495 46.1025 58.7244C46.1025 52.5331 42.8809 47.0535 37.9718 43.5665L36.9746 42.8548C37.5115 42.3567 38.0485 41.9297 38.5087 41.4315C40.2729 39.6525 39.4292 36.8059 36.9746 36.0943L33.5229 35.098L30.6081 34.244C30.4547 35.2403 30.3013 36.1654 30.0712 37.0905C29.9945 37.5175 29.9178 37.8734 29.7644 38.3003C29.2274 40.4353 28.6138 42.4278 27.8467 44.4204C27.3098 45.986 25.6223 46.9823 23.9348 46.6977C21.9405 46.3419 20.7899 44.6339 21.1734 42.926C21.6336 40.7911 22.0172 38.6562 22.2473 36.5924C22.2473 36.4501 22.2473 36.2366 22.324 36.0943C22.4007 34.9556 22.4774 33.817 22.4774 32.7495C22.4774 32.1802 22.4774 31.6109 22.4774 31.0416L22.4007 30.1876V29.9742C22.4007 29.9742 22.4007 29.6895 22.4007 29.476C22.4007 29.2625 22.4774 29.049 22.5541 28.8355C22.7842 27.9816 23.3212 27.1276 24.0115 26.4871C24.7018 25.8466 25.6223 25.4197 26.6195 25.2062C27.0797 25.135 27.6166 25.0638 28.0768 25.135C28.307 25.135 28.6138 25.2062 28.7672 25.2062H28.9206L29.9178 25.3485L31.8354 25.7043L35.7473 26.3448L39.9661 27.0564C39.9661 25.8466 40.0428 24.708 40.0428 23.4982C40.1195 20.9363 40.2729 18.3033 40.4263 15.7414L40.9633 8.12681V8.05564C41.04 6.70353 42.0371 5.5649 43.3411 5.20908C45.1053 4.92443 46.5627 5.49374 47.4065 6.5612Z" fill="white"/>
<path d="M46.2557 58.7249C46.2557 59.7212 46.179 60.6464 46.0256 61.5715C44.5682 70.6093 36.1307 77.5834 25.929 77.5834C21.3267 77.5834 17.1079 76.1601 13.7329 73.8117L9.13062 70.6093C12.5056 72.9577 16.7244 74.381 21.3267 74.381C32.6023 74.381 41.6534 65.9125 41.6534 55.5226C41.6534 49.4736 38.5853 44.0652 33.7529 40.5781L37.0512 42.8554L38.0483 43.567C43.0341 47.054 46.2557 52.6048 46.2557 58.7249Z" fill="#494949"/>
<path d="M47.4064 6.56042C46.6394 5.56412 45.182 4.99481 43.5712 5.35063C42.1905 5.70645 41.2701 6.91624 41.1933 8.19719V8.26835L40.6564 15.8829C40.503 18.4448 40.3496 21.0067 40.2729 23.6398C40.1962 24.8496 40.1962 25.9882 40.1962 27.198L35.9774 26.4863L32.0655 25.8459L30.1479 25.49L29.1507 25.3477H28.9973C28.7672 25.2765 28.5371 25.2765 28.307 25.2765C27.8467 25.2054 27.3098 25.2765 26.8496 25.3477C25.8524 25.49 24.9319 25.9882 24.2416 26.6287C23.5512 27.2691 23.0143 28.1231 22.7842 28.9771C22.7075 29.1906 22.7075 29.4041 22.6308 29.6175C22.6308 29.831 22.6308 30.1157 22.6308 30.1157V30.3292L22.7075 31.1832C22.7075 31.7525 22.7075 32.3218 22.7075 32.8911C22.7075 34.0297 22.6308 35.1683 22.5541 36.2358C22.5541 36.3781 22.5541 36.5916 22.4774 36.7339C22.2473 38.7977 21.8637 40.9326 21.4035 43.0675C21.02 44.7755 22.1706 46.4834 24.1649 46.8392C25.8524 47.1239 27.5399 46.1276 28.0768 44.562C28.7672 42.5694 29.4575 40.5768 29.9944 38.4419C30.0711 38.0861 30.2246 37.6591 30.3013 37.2321C30.5314 36.307 30.6848 35.3107 30.8382 34.3855L33.753 35.2395L37.2047 36.2358C39.6593 36.9474 40.503 39.794 38.7388 41.5731C38.2786 42.0712 37.7416 42.4982 37.2047 42.9964" stroke="#494949" stroke-width="1.5" stroke-miterlimit="10" stroke-linecap="round" stroke-linejoin="round"/>
<path d="M55.9974 34.885C55.844 33.1059 55.6906 31.3268 55.6138 29.5477C55.4604 26.7723 55.307 23.9257 55.2303 21.1503C55.1536 18.3749 55.0769 15.6707 55.0769 12.8953V12.8241C55.0769 11.1874 56.3042 9.76408 57.9917 9.47942C59.986 9.19477 61.6735 10.5469 61.9036 12.2548C62.2104 14.9591 62.594 17.7344 63.0542 20.4387C63.4377 23.1429 63.898 25.8471 64.3582 28.5514C64.8184 31.2556 65.3554 33.9598 65.8923 36.5929C66.3525 38.6567 67.5031 40.5069 69.1906 41.859L76.4775 47.8368L126.259 88.7561" stroke="#494949" stroke-width="1.5" stroke-miterlimit="10" stroke-linecap="round" stroke-linejoin="round"/>
<path d="M55.0001 12.9658C54.6933 10.0481 54.5399 7.13039 54.4632 4.21266V4.1415C54.3865 2.50473 53.0058 1.15261 51.2416 1.01028C49.324 0.867957 47.7132 2.22007 47.5598 3.99917C47.4831 4.85314 47.4831 5.63594 47.4063 6.48991C47.3296 8.98065 47.2529 11.4714 47.2529 13.9621C47.2529 17.2357 47.3296 20.5092 47.4063 23.8539C47.4831 26.2023 47.5598 28.4796 47.7132 30.828" stroke="#494949" stroke-width="1.5" stroke-miterlimit="10" stroke-linecap="round" stroke-linejoin="round"/>
<path d="M33.5227 40.4364C32.4488 39.6536 31.2216 39.0132 29.9176 38.4438" stroke="#494949" stroke-width="1.5" stroke-miterlimit="10" stroke-linecap="round" stroke-linejoin="round"/>
<path d="M22.4006 36.6646C22.0171 36.6646 21.7103 36.6646 21.3268 36.6646C10.0512 36.6646 1 45.1331 1 55.523C1 61.7143 4.22161 67.1939 9.13071 70.6098" stroke="#494949" stroke-width="1.5" stroke-miterlimit="10" stroke-linecap="round" stroke-linejoin="round"/>
</svg>
