<svg width="330" height="101" viewBox="0 0 330 101" fill="none" xmlns="http://www.w3.org/2000/svg">
<line x1="0.570801" y1="1" x2="0.570801" y2="101" stroke="#F2F2F2"/>
<line x1="29.1421" y1="1" x2="29.1421" y2="101" stroke="#F2F2F2"/>
<line x1="200.572" y1="1" x2="200.572" y2="101" stroke="#F2F2F2"/>
<line x1="57.7139" y1="1" x2="57.7139" y2="101" stroke="#F2F2F2"/>
<line x1="229.143" y1="1" x2="229.143" y2="101" stroke="#F2F2F2"/>
<line x1="86.2852" y1="1" x2="86.2852" y2="101" stroke="#F2F2F2"/>
<line x1="257.715" y1="1" x2="257.715" y2="101" stroke="#F2F2F2"/>
<line x1="114.857" y1="1" x2="114.857" y2="101" stroke="#F2F2F2"/>
<line x1="286.286" y1="1" x2="286.286" y2="101" stroke="#F2F2F2"/>
<line x1="143.429" y1="1" x2="143.429" y2="101" stroke="#F2F2F2"/>
<line x1="314.858" y1="1" x2="314.858" y2="101" stroke="#F2F2F2"/>
<line x1="172" y1="1" x2="172" y2="101" stroke="#F2F2F2"/>
<line x1="157.714" y1="1" x2="157.714" y2="101" stroke="#F2F2F2"/>
<line x1="329.144" y1="1" x2="329.144" y2="101" stroke="#F2F2F2"/>
<line x1="129.143" y1="1" x2="129.143" y2="101" stroke="#F2F2F2"/>
<line x1="300.572" y1="1" x2="300.572" y2="101" stroke="#F2F2F2"/>
<line x1="100.571" y1="1" x2="100.571" y2="101" stroke="#F2F2F2"/>
<line x1="272" y1="1" x2="272" y2="101" stroke="#F2F2F2"/>
<line x1="71.9995" y1="1" x2="71.9995" y2="101" stroke="#F2F2F2"/>
<line x1="243.429" y1="1" x2="243.429" y2="101" stroke="#F2F2F2"/>
<line x1="43.4282" y1="1" x2="43.4282" y2="101" stroke="#F2F2F2"/>
<line x1="214.857" y1="1" x2="214.857" y2="101" stroke="#F2F2F2"/>
<line x1="14.8564" y1="1" x2="14.8564" y2="101" stroke="#F2F2F2"/>
<line x1="186.286" y1="1" x2="186.286" y2="101" stroke="#F2F2F2"/>
<line x1="0.0708008" y1="100.5" x2="328.929" y2="100.5" stroke="#F2F2F2"/>
<line x1="0.0708008" y1="86.2144" x2="328.929" y2="86.2144" stroke="#F2F2F2"/>
<line x1="0.0708008" y1="71.9287" x2="328.929" y2="71.9287" stroke="#F2F2F2"/>
<line x1="0.0708008" y1="57.6431" x2="328.929" y2="57.6431" stroke="#F2F2F2"/>
<line x1="0.0708008" y1="43.3574" x2="328.929" y2="43.3574" stroke="#F2F2F2"/>
<line x1="0.0708008" y1="29.0713" x2="328.929" y2="29.0713" stroke="#F2F2F2"/>
<line x1="0.0708008" y1="14.7856" x2="328.929" y2="14.7856" stroke="#F2F2F2"/>
<line x1="0.0708008" y1="0.5" x2="328.929" y2="0.5" stroke="#F2F2F2"/>
</svg>
