<svg width="360" height="235" viewBox="0 0 360 235" fill="none" xmlns="http://www.w3.org/2000/svg">
<g opacity="0.5">
<line x1="25.25" y1="52" x2="25.25" y2="152" stroke="#F0F0F0" stroke-width="0.5"/>
<line x1="189.996" y1="52" x2="189.996" y2="152" stroke="#F0F0F0" stroke-width="0.5"/>
<line x1="52.7075" y1="52" x2="52.7075" y2="152" stroke="#F0F0F0" stroke-width="0.5"/>
<line x1="217.453" y1="52" x2="217.453" y2="152" stroke="#F0F0F0" stroke-width="0.5"/>
<line x1="80.165" y1="52" x2="80.165" y2="152" stroke="#F0F0F0" stroke-width="0.5"/>
<line x1="244.911" y1="52" x2="244.911" y2="152" stroke="#F0F0F0" stroke-width="0.5"/>
<line x1="107.623" y1="52" x2="107.623" y2="152" stroke="#F0F0F0" stroke-width="0.5"/>
<line x1="272.369" y1="52" x2="272.369" y2="152" stroke="#F0F0F0" stroke-width="0.5"/>
<line x1="135.081" y1="52" x2="135.081" y2="152" stroke="#F0F0F0" stroke-width="0.5"/>
<line x1="299.826" y1="52" x2="299.826" y2="152" stroke="#F0F0F0" stroke-width="0.5"/>
<line x1="162.538" y1="52" x2="162.538" y2="152" stroke="#F0F0F0" stroke-width="0.5"/>
<line x1="327.284" y1="52" x2="327.284" y2="152" stroke="#F0F0F0" stroke-width="0.5"/>
<line x1="189.996" y1="52" x2="189.996" y2="152" stroke="#F0F0F0" stroke-width="0.5"/>
<line x1="176.267" y1="52" x2="176.267" y2="152" stroke="#F0F0F0" stroke-width="0.5"/>
<line x1="148.81" y1="52" x2="148.81" y2="152" stroke="#F0F0F0" stroke-width="0.5"/>
<line x1="313.555" y1="52" x2="313.555" y2="152" stroke="#F0F0F0" stroke-width="0.5"/>
<line x1="121.352" y1="52" x2="121.352" y2="152" stroke="#F0F0F0" stroke-width="0.5"/>
<line x1="286.098" y1="52" x2="286.098" y2="152" stroke="#F0F0F0" stroke-width="0.5"/>
<line x1="93.894" y1="52" x2="93.894" y2="152" stroke="#F0F0F0" stroke-width="0.5"/>
<line x1="258.64" y1="52" x2="258.64" y2="152" stroke="#F0F0F0" stroke-width="0.5"/>
<line x1="66.4365" y1="52" x2="66.4365" y2="152" stroke="#F0F0F0" stroke-width="0.5"/>
<line x1="231.182" y1="52" x2="231.182" y2="152" stroke="#F0F0F0" stroke-width="0.5"/>
<line x1="39.2534" y1="52" x2="39.2534" y2="152" stroke="#F0F0F0" stroke-width="0.5"/>
<line x1="203.999" y1="52" x2="203.999" y2="152" stroke="#F0F0F0" stroke-width="0.5"/>
<line x1="25" y1="151.75" x2="349" y2="151.75" stroke="#F0F0F0" stroke-width="0.5"/>
<line x1="25" y1="137.75" x2="335" y2="137.75" stroke="#F0F0F0" stroke-width="0.5"/>
<line x1="25" y1="123.75" x2="335" y2="123.75" stroke="#F0F0F0" stroke-width="0.5"/>
<line x1="25" y1="110.75" x2="335" y2="110.75" stroke="#F0F0F0" stroke-width="0.5"/>
<line x1="25" y1="96.75" x2="335" y2="96.75" stroke="#F0F0F0" stroke-width="0.5"/>
<line x1="25" y1="82.75" x2="335" y2="82.75" stroke="#F0F0F0" stroke-width="0.5"/>
<line x1="25" y1="68.75" x2="335" y2="68.75" stroke="#F0F0F0" stroke-width="0.5"/>
<line x1="25" y1="54.75" x2="335" y2="54.75" stroke="#F0F0F0" stroke-width="0.5"/>
</g>
<g opacity="0.5">
<line y1="-0.25" x2="55" y2="-0.25" transform="matrix(-1.57519e-07 -1 -1 4.85196e-08 25 207)" stroke="#F0F0F0" stroke-width="0.5"/>
<line y1="-0.25" x2="55" y2="-0.25" transform="matrix(-1.57519e-07 -1 -1 4.85196e-08 190 207)" stroke="#F0F0F0" stroke-width="0.5"/>
<line y1="-0.25" x2="55" y2="-0.25" transform="matrix(-1.57519e-07 -1 -1 4.85196e-08 52 207)" stroke="#F0F0F0" stroke-width="0.5"/>
<line y1="-0.25" x2="55" y2="-0.25" transform="matrix(-1.57519e-07 -1 -1 4.85196e-08 217 207)" stroke="#F0F0F0" stroke-width="0.5"/>
<line y1="-0.25" x2="55" y2="-0.25" transform="matrix(-1.57519e-07 -1 -1 4.85196e-08 80 207)" stroke="#F0F0F0" stroke-width="0.5"/>
<line y1="-0.25" x2="55" y2="-0.25" transform="matrix(-1.57519e-07 -1 -1 4.85196e-08 245 207)" stroke="#F0F0F0" stroke-width="0.5"/>
<line y1="-0.25" x2="55" y2="-0.25" transform="matrix(-1.57519e-07 -1 -1 4.85196e-08 107 207)" stroke="#F0F0F0" stroke-width="0.5"/>
<line y1="-0.25" x2="55" y2="-0.25" transform="matrix(-1.57519e-07 -1 -1 4.85196e-08 272 207)" stroke="#F0F0F0" stroke-width="0.5"/>
<line y1="-0.25" x2="55" y2="-0.25" transform="matrix(-1.57519e-07 -1 -1 4.85196e-08 135 207)" stroke="#F0F0F0" stroke-width="0.5"/>
<line y1="-0.25" x2="55" y2="-0.25" transform="matrix(-1.57519e-07 -1 -1 4.85196e-08 300 207)" stroke="#F0F0F0" stroke-width="0.5"/>
<line y1="-0.25" x2="55" y2="-0.25" transform="matrix(-1.57519e-07 -1 -1 4.85196e-08 162 207)" stroke="#F0F0F0" stroke-width="0.5"/>
<line y1="-0.25" x2="55" y2="-0.25" transform="matrix(-1.57519e-07 -1 -1 4.85196e-08 327 207)" stroke="#F0F0F0" stroke-width="0.5"/>
<line y1="-0.25" x2="55" y2="-0.25" transform="matrix(-1.57519e-07 -1 -1 4.85196e-08 190 207)" stroke="#F0F0F0" stroke-width="0.5"/>
<line y1="-0.25" x2="55" y2="-0.25" transform="matrix(-1.57519e-07 -1 -1 4.85196e-08 176 207)" stroke="#F0F0F0" stroke-width="0.5"/>
<line y1="-0.25" x2="55" y2="-0.25" transform="matrix(-1.57519e-07 -1 -1 4.85196e-08 149 207)" stroke="#F0F0F0" stroke-width="0.5"/>
<line y1="-0.25" x2="55" y2="-0.25" transform="matrix(-1.57519e-07 -1 -1 4.85196e-08 313 207)" stroke="#F0F0F0" stroke-width="0.5"/>
<line y1="-0.25" x2="55" y2="-0.25" transform="matrix(-1.57519e-07 -1 -1 4.85196e-08 121 207)" stroke="#F0F0F0" stroke-width="0.5"/>
<line y1="-0.25" x2="55" y2="-0.25" transform="matrix(-1.57519e-07 -1 -1 4.85196e-08 286 207)" stroke="#F0F0F0" stroke-width="0.5"/>
<line y1="-0.25" x2="55" y2="-0.25" transform="matrix(-1.57519e-07 -1 -1 4.85196e-08 94 207)" stroke="#F0F0F0" stroke-width="0.5"/>
<line y1="-0.25" x2="55" y2="-0.25" transform="matrix(-1.57519e-07 -1 -1 4.85196e-08 258 207)" stroke="#F0F0F0" stroke-width="0.5"/>
<line y1="-0.25" x2="55" y2="-0.25" transform="matrix(-1.57519e-07 -1 -1 4.85196e-08 66 207)" stroke="#F0F0F0" stroke-width="0.5"/>
<line y1="-0.25" x2="55" y2="-0.25" transform="matrix(-1.57519e-07 -1 -1 4.85196e-08 231 207)" stroke="#F0F0F0" stroke-width="0.5"/>
<line y1="-0.25" x2="55" y2="-0.25" transform="matrix(-1.57519e-07 -1 -1 4.85196e-08 39 207)" stroke="#F0F0F0" stroke-width="0.5"/>
<line y1="-0.25" x2="55" y2="-0.25" transform="matrix(-1.57519e-07 -1 -1 4.85196e-08 204 207)" stroke="#F0F0F0" stroke-width="0.5"/>
<line y1="-0.25" x2="310" y2="-0.25" transform="matrix(1 -8.79658e-08 -8.68831e-08 -1 25 152)" stroke="#F0F0F0" stroke-width="0.5"/>
<line y1="-0.25" x2="310" y2="-0.25" transform="matrix(1 -8.79658e-08 -8.68831e-08 -1 25 165)" stroke="#F0F0F0" stroke-width="0.5"/>
<line y1="-0.25" x2="310" y2="-0.25" transform="matrix(1 -8.79658e-08 -8.68831e-08 -1 25 179)" stroke="#F0F0F0" stroke-width="0.5"/>
<line y1="-0.25" x2="310" y2="-0.25" transform="matrix(1 -8.79658e-08 -8.68831e-08 -1 25 193)" stroke="#F0F0F0" stroke-width="0.5"/>
<line y1="-0.25" x2="310" y2="-0.25" transform="matrix(1 -8.79658e-08 -8.68831e-08 -1 25 207)" stroke="#F0F0F0" stroke-width="0.5"/>
</g>
<line x1="25" y1="206.75" x2="335" y2="206.75" stroke="#999999" stroke-width="0.5"/>
<line x1="25.25" y1="52" x2="25.25" y2="207" stroke="#999999" stroke-width="0.5"/>
<path d="M25.5 51L26.799 53.25H24.201L25.5 51Z" fill="#999999"/>
<path d="M336 206.5L333.75 207.799L333.75 205.201L336 206.5Z" fill="#999999"/>
<path d="M29.8275 51.711H31.3455C31.8175 51.711 32.1855 51.841 32.4495 52.101C32.7175 52.361 32.8515 52.719 32.8515 53.175C32.8515 53.639 32.7175 54.001 32.4495 54.261C32.1855 54.517 31.8175 54.645 31.3455 54.645H30.4635V55.911C30.4635 55.971 30.4355 56.001 30.3795 56.001H29.8275C29.7715 56.001 29.7435 55.971 29.7435 55.911V51.801C29.7435 51.741 29.7715 51.711 29.8275 51.711ZM30.4635 53.973H31.2615C31.5535 53.973 31.7675 53.909 31.9035 53.781C32.0435 53.649 32.1135 53.447 32.1135 53.175C32.1135 52.903 32.0435 52.703 31.9035 52.575C31.7675 52.447 31.5535 52.383 31.2615 52.383H30.4635V53.973ZM34.1045 56.001H33.5105C33.4505 56.001 33.4205 55.971 33.4205 55.911V52.977C33.4205 52.921 33.4505 52.893 33.5105 52.893H34.0205C34.0805 52.893 34.1105 52.921 34.1105 52.977V54.201C34.1105 54.437 34.1065 54.707 34.0985 55.011H34.1045C34.2205 54.755 34.4105 54.409 34.6745 53.973L35.2745 52.947C35.3065 52.911 35.3425 52.893 35.3825 52.893H35.9825C36.0425 52.893 36.0725 52.921 36.0725 52.977V55.911C36.0725 55.971 36.0425 56.001 35.9825 56.001H35.4725C35.4125 56.001 35.3825 55.971 35.3825 55.911V54.705C35.3825 54.469 35.3865 54.207 35.3945 53.919H35.3885C35.3085 54.103 35.1205 54.441 34.8245 54.933L34.2125 55.941C34.1885 55.981 34.1525 56.001 34.1045 56.001ZM39.1346 55.737C38.8186 55.961 38.4646 56.073 38.0726 56.073C37.6566 56.073 37.3286 55.963 37.0886 55.743C36.8486 55.523 36.7286 55.229 36.7286 54.861V54.027C36.7286 53.659 36.8486 53.367 37.0886 53.151C37.3286 52.931 37.6546 52.821 38.0666 52.821C38.4146 52.821 38.7426 52.917 39.0506 53.109C39.0986 53.141 39.1066 53.183 39.0746 53.235L38.8406 53.595C38.8086 53.639 38.7666 53.647 38.7146 53.619C38.5146 53.503 38.3046 53.445 38.0846 53.445C37.8726 53.445 37.7086 53.495 37.5926 53.595C37.4806 53.695 37.4246 53.839 37.4246 54.027V54.867C37.4246 55.051 37.4806 55.195 37.5926 55.299C37.7086 55.399 37.8706 55.449 38.0786 55.449C38.3226 55.449 38.5546 55.377 38.7746 55.233C38.8306 55.201 38.8726 55.209 38.9006 55.257L39.1526 55.617C39.1846 55.665 39.1786 55.705 39.1346 55.737ZM42.2347 56.001H41.6287C41.5767 56.001 41.5407 55.983 41.5207 55.947L40.5847 54.717L40.3387 54.981V55.911C40.3387 55.971 40.3087 56.001 40.2487 56.001H39.7507C39.6907 56.001 39.6607 55.971 39.6607 55.911V52.983C39.6607 52.923 39.6907 52.893 39.7507 52.893H40.2487C40.3087 52.893 40.3387 52.923 40.3387 52.983V54.141L41.4127 52.941C41.4367 52.909 41.4727 52.893 41.5207 52.893H42.1267C42.1667 52.893 42.1907 52.903 42.1987 52.923C42.2107 52.943 42.2047 52.969 42.1807 53.001L41.0467 54.231L42.2947 55.893C42.3387 55.965 42.3187 56.001 42.2347 56.001Z" fill="#565758"/>
<path d="M273.72 213.404C273.72 213.928 273.572 214.338 273.276 214.634C272.98 214.926 272.566 215.072 272.034 215.072C271.502 215.072 271.088 214.926 270.792 214.634C270.496 214.338 270.348 213.928 270.348 213.404V212.3C270.348 211.776 270.496 211.368 270.792 211.076C271.088 210.784 271.502 210.638 272.034 210.638C272.566 210.638 272.98 210.784 273.276 211.076C273.572 211.368 273.72 211.776 273.72 212.3V213.404ZM271.086 213.404C271.086 213.724 271.166 213.968 271.326 214.136C271.486 214.304 271.722 214.388 272.034 214.388C272.346 214.388 272.582 214.304 272.742 214.136C272.902 213.968 272.982 213.724 272.982 213.404V212.306C272.982 211.646 272.666 211.316 272.034 211.316C271.402 211.316 271.086 211.646 271.086 212.306V213.404ZM278.298 215H277.686C277.634 215 277.598 214.98 277.578 214.94L276.822 213.698L276.552 214.016V214.91C276.552 214.97 276.522 215 276.462 215H275.964C275.904 215 275.874 214.97 275.874 214.91V214.016L275.604 213.698L274.848 214.94C274.828 214.98 274.792 215 274.74 215H274.128C274.048 215 274.028 214.964 274.068 214.892L275.154 213.224L274.182 211.994C274.162 211.966 274.156 211.942 274.164 211.922C274.172 211.902 274.194 211.892 274.23 211.892H274.848C274.896 211.892 274.932 211.91 274.956 211.946L275.43 212.588C275.59 212.804 275.738 213.012 275.874 213.212V211.976C275.874 211.92 275.904 211.892 275.964 211.892H276.462C276.522 211.892 276.552 211.92 276.552 211.976V213.212C276.688 213.012 276.836 212.804 276.996 212.588L277.47 211.946C277.494 211.91 277.53 211.892 277.578 211.892H278.196C278.232 211.892 278.254 211.902 278.262 211.922C278.27 211.942 278.264 211.966 278.244 211.994L277.272 213.224L278.358 214.892C278.398 214.964 278.378 215 278.298 215ZM279.5 215H278.906C278.846 215 278.816 214.97 278.816 214.91V211.976C278.816 211.92 278.846 211.892 278.906 211.892H279.416C279.476 211.892 279.506 211.92 279.506 211.976V213.2C279.506 213.436 279.502 213.706 279.494 214.01H279.5C279.616 213.754 279.806 213.408 280.07 212.972L280.67 211.946C280.702 211.91 280.738 211.892 280.778 211.892H281.378C281.438 211.892 281.467 211.92 281.467 211.976V214.91C281.467 214.97 281.438 215 281.378 215H280.868C280.808 215 280.778 214.97 280.778 214.91V213.704C280.778 213.468 280.782 213.206 280.79 212.918H280.784C280.704 213.102 280.516 213.44 280.22 213.932L279.608 214.94C279.584 214.98 279.548 215 279.5 215ZM282.526 215.81H282.04C281.984 215.81 281.956 215.782 281.956 215.726V214.472C281.956 214.416 281.984 214.388 282.04 214.388H282.172C282.304 214.296 282.406 214.088 282.478 213.764C282.55 213.436 282.62 212.84 282.688 211.976C282.696 211.92 282.726 211.892 282.778 211.892H284.77C284.83 211.892 284.86 211.92 284.86 211.976V214.388H285.166C285.226 214.388 285.256 214.418 285.256 214.478V215.726C285.256 215.782 285.226 215.81 285.166 215.81H284.68C284.62 215.81 284.59 215.782 284.59 215.726V215H282.616V215.726C282.616 215.782 282.586 215.81 282.526 215.81ZM283.336 212.504C283.256 213.496 283.118 214.124 282.922 214.388H284.17V212.504H283.336ZM285.77 212.138C286.078 211.926 286.47 211.82 286.946 211.82C287.334 211.82 287.638 211.922 287.858 212.126C288.082 212.326 288.194 212.63 288.194 213.038V214.79C288.194 214.838 288.172 214.872 288.128 214.892C287.74 215.012 287.338 215.072 286.922 215.072C286.534 215.072 286.214 214.992 285.962 214.832C285.71 214.672 285.584 214.418 285.584 214.07C285.584 213.754 285.702 213.516 285.938 213.356C286.178 213.192 286.498 213.11 286.898 213.11C287.058 213.11 287.258 213.126 287.498 213.158V213.044C287.498 212.828 287.452 212.674 287.36 212.582C287.272 212.486 287.118 212.438 286.898 212.438C286.602 212.438 286.346 212.502 286.13 212.63C286.082 212.666 286.042 212.658 286.01 212.606L285.77 212.24C285.742 212.196 285.742 212.162 285.77 212.138ZM286.286 214.064C286.286 214.2 286.344 214.302 286.46 214.37C286.576 214.434 286.73 214.466 286.922 214.466C287.106 214.466 287.298 214.442 287.498 214.394V213.716C287.282 213.684 287.088 213.668 286.916 213.668C286.496 213.668 286.286 213.8 286.286 214.064ZM291.431 213.05V213.656C291.431 213.712 291.401 213.74 291.341 213.74H289.517V213.908C289.517 214.088 289.573 214.226 289.685 214.322C289.801 214.414 289.957 214.46 290.153 214.46C290.445 214.46 290.727 214.368 290.999 214.184C291.047 214.152 291.087 214.158 291.119 214.202L291.365 214.532C291.405 214.576 291.399 214.618 291.347 214.658C290.999 214.934 290.593 215.072 290.129 215.072C289.761 215.072 289.449 214.972 289.193 214.772C288.941 214.568 288.815 214.278 288.815 213.902V213.05C288.815 212.638 288.943 212.33 289.199 212.126C289.455 211.922 289.767 211.82 290.135 211.82C290.499 211.82 290.805 211.922 291.053 212.126C291.305 212.33 291.431 212.638 291.431 213.05ZM290.753 213.044C290.753 212.836 290.695 212.682 290.579 212.582C290.463 212.482 290.315 212.432 290.135 212.432C289.723 212.432 289.517 212.636 289.517 213.044V213.2H290.753V213.044ZM292.658 215H292.148C292.088 215 292.058 214.97 292.058 214.91V211.976C292.058 211.92 292.088 211.892 292.148 211.892H292.73C292.782 211.892 292.816 211.912 292.832 211.952L293.696 213.662H293.708L294.572 211.952C294.588 211.912 294.622 211.892 294.674 211.892H295.256C295.316 211.892 295.346 211.92 295.346 211.976V214.91C295.346 214.97 295.316 215 295.256 215H294.746C294.69 215 294.662 214.97 294.662 214.91V213.848C294.662 213.632 294.666 213.332 294.674 212.948H294.668C294.52 213.284 294.414 213.516 294.35 213.644L293.96 214.418C293.944 214.458 293.91 214.478 293.858 214.478H293.546C293.494 214.478 293.46 214.458 293.444 214.418L293.054 213.644C292.962 213.452 292.856 213.22 292.736 212.948H292.73C292.742 213.524 292.748 213.824 292.748 213.848V214.91C292.748 214.97 292.718 215 292.658 215ZM296.077 212.138C296.385 211.926 296.777 211.82 297.253 211.82C297.641 211.82 297.945 211.922 298.165 212.126C298.389 212.326 298.501 212.63 298.501 213.038V214.79C298.501 214.838 298.479 214.872 298.435 214.892C298.047 215.012 297.645 215.072 297.229 215.072C296.841 215.072 296.521 214.992 296.269 214.832C296.017 214.672 295.891 214.418 295.891 214.07C295.891 213.754 296.009 213.516 296.245 213.356C296.485 213.192 296.805 213.11 297.205 213.11C297.365 213.11 297.565 213.126 297.805 213.158V213.044C297.805 212.828 297.759 212.674 297.667 212.582C297.579 212.486 297.425 212.438 297.205 212.438C296.909 212.438 296.653 212.502 296.437 212.63C296.389 212.666 296.349 212.658 296.317 212.606L296.077 212.24C296.049 212.196 296.049 212.162 296.077 212.138ZM296.593 214.064C296.593 214.2 296.651 214.302 296.767 214.37C296.883 214.434 297.037 214.466 297.229 214.466C297.413 214.466 297.605 214.442 297.805 214.394V213.716C297.589 213.684 297.395 213.668 297.223 213.668C296.803 213.668 296.593 213.8 296.593 214.064ZM299.716 215H299.098C299.022 215 299.006 214.964 299.05 214.892L299.818 213.824C299.578 213.764 299.394 213.652 299.266 213.488C299.138 213.32 299.074 213.12 299.074 212.888C299.074 212.564 299.184 212.318 299.404 212.15C299.624 211.978 299.916 211.892 300.28 211.892H301.528C301.588 211.892 301.618 211.92 301.618 211.976V214.91C301.618 214.97 301.588 215 301.528 215H301.012C300.952 215 300.922 214.97 300.922 214.91V213.884H300.556L299.824 214.94C299.8 214.98 299.764 215 299.716 215ZM299.776 212.888C299.776 213.176 299.95 213.32 300.298 213.32H300.922V212.462H300.298C299.95 212.462 299.776 212.604 299.776 212.888ZM303.866 215.81H303.38C303.324 215.81 303.296 215.782 303.296 215.726V214.472C303.296 214.416 303.324 214.388 303.38 214.388H303.512C303.644 214.296 303.746 214.088 303.818 213.764C303.89 213.436 303.96 212.84 304.028 211.976C304.036 211.92 304.066 211.892 304.118 211.892H306.11C306.17 211.892 306.2 211.92 306.2 211.976V214.388H306.506C306.566 214.388 306.596 214.418 306.596 214.478V215.726C306.596 215.782 306.566 215.81 306.506 215.81H306.02C305.96 215.81 305.93 215.782 305.93 215.726V215H303.956V215.726C303.956 215.782 303.926 215.81 303.866 215.81ZM304.676 212.504C304.596 213.496 304.458 214.124 304.262 214.388H305.51V212.504H304.676ZM309.739 213.86C309.739 214.232 309.615 214.528 309.367 214.748C309.119 214.964 308.787 215.072 308.371 215.072C307.955 215.072 307.623 214.964 307.375 214.748C307.127 214.528 307.003 214.232 307.003 213.86V213.056C307.003 212.68 307.127 212.38 307.375 212.156C307.623 211.932 307.955 211.82 308.371 211.82C308.787 211.82 309.119 211.932 309.367 212.156C309.615 212.38 309.739 212.68 309.739 213.056V213.86ZM307.705 213.86C307.705 214.252 307.927 214.448 308.371 214.448C308.587 214.448 308.751 214.398 308.863 214.298C308.979 214.198 309.037 214.052 309.037 213.86V213.056C309.037 212.86 308.979 212.71 308.863 212.606C308.747 212.498 308.583 212.444 308.371 212.444C308.155 212.444 307.989 212.496 307.873 212.6C307.761 212.704 307.705 212.856 307.705 213.056V213.86ZM311.834 213.44L312.8 214.892C312.84 214.964 312.822 215 312.746 215H312.11C312.062 215 312.026 214.98 312.002 214.94L311.402 213.92L310.802 214.94C310.778 214.98 310.742 215 310.694 215H310.064C309.984 215 309.964 214.964 310.004 214.892L310.97 213.44L310.058 211.994C310.042 211.966 310.04 211.942 310.052 211.922C310.064 211.902 310.086 211.892 310.118 211.892H310.724C310.768 211.892 310.804 211.912 310.832 211.952L311.402 212.954L311.972 211.952C312 211.912 312.036 211.892 312.08 211.892H312.686C312.718 211.892 312.74 211.902 312.752 211.922C312.764 211.942 312.762 211.966 312.746 211.994L311.834 213.44ZM315.803 213.86C315.803 214.232 315.679 214.528 315.431 214.748C315.183 214.964 314.851 215.072 314.435 215.072C314.019 215.072 313.687 214.964 313.439 214.748C313.191 214.528 313.067 214.232 313.067 213.86V213.056C313.067 212.68 313.191 212.38 313.439 212.156C313.687 211.932 314.019 211.82 314.435 211.82C314.851 211.82 315.183 211.932 315.431 212.156C315.679 212.38 315.803 212.68 315.803 213.056V213.86ZM313.769 213.86C313.769 214.252 313.991 214.448 314.435 214.448C314.651 214.448 314.815 214.398 314.927 214.298C315.043 214.198 315.101 214.052 315.101 213.86V213.056C315.101 212.86 315.043 212.71 314.927 212.606C314.811 212.498 314.647 212.444 314.435 212.444C314.219 212.444 314.053 212.496 313.937 212.6C313.825 212.704 313.769 212.856 313.769 213.056V213.86ZM316.703 215.81H316.217C316.161 215.81 316.133 215.782 316.133 215.726V214.472C316.133 214.416 316.161 214.388 316.217 214.388H316.349C316.481 214.296 316.583 214.088 316.655 213.764C316.727 213.436 316.797 212.84 316.865 211.976C316.873 211.92 316.903 211.892 316.955 211.892H318.947C319.007 211.892 319.037 211.92 319.037 211.976V214.388H319.343C319.403 214.388 319.433 214.418 319.433 214.478V215.726C319.433 215.782 319.403 215.81 319.343 215.81H318.857C318.797 215.81 318.767 215.782 318.767 215.726V215H316.793V215.726C316.793 215.782 316.763 215.81 316.703 215.81ZM317.513 212.504C317.433 213.496 317.295 214.124 317.099 214.388H318.347V212.504H317.513ZM320.578 215H320.062C320.002 215 319.972 214.97 319.972 214.91V211.976C319.972 211.92 320.002 211.892 320.062 211.892H320.578C320.638 211.892 320.668 211.92 320.668 211.976V213.08H321.832V211.976C321.832 211.92 321.862 211.892 321.922 211.892H322.438C322.498 211.892 322.528 211.92 322.528 211.976V214.91C322.528 214.97 322.498 215 322.438 215H321.922C321.862 215 321.832 214.97 321.832 214.91V213.698H320.668V214.91C320.668 214.97 320.638 215 320.578 215ZM325.916 213.86C325.916 214.232 325.792 214.528 325.544 214.748C325.296 214.964 324.964 215.072 324.548 215.072C324.132 215.072 323.8 214.964 323.552 214.748C323.304 214.528 323.18 214.232 323.18 213.86V213.056C323.18 212.68 323.304 212.38 323.552 212.156C323.8 211.932 324.132 211.82 324.548 211.82C324.964 211.82 325.296 211.932 325.544 212.156C325.792 212.38 325.916 212.68 325.916 213.056V213.86ZM323.882 213.86C323.882 214.252 324.104 214.448 324.548 214.448C324.764 214.448 324.928 214.398 325.04 214.298C325.156 214.198 325.214 214.052 325.214 213.86V213.056C325.214 212.86 325.156 212.71 325.04 212.606C324.924 212.498 324.76 212.444 324.548 212.444C324.332 212.444 324.166 212.496 324.05 212.6C323.938 212.704 323.882 212.856 323.882 213.056V213.86ZM328.873 214.736C328.557 214.96 328.203 215.072 327.811 215.072C327.395 215.072 327.067 214.962 326.827 214.742C326.587 214.522 326.467 214.228 326.467 213.86V213.026C326.467 212.658 326.587 212.366 326.827 212.15C327.067 211.93 327.393 211.82 327.805 211.82C328.153 211.82 328.481 211.916 328.789 212.108C328.837 212.14 328.845 212.182 328.813 212.234L328.579 212.594C328.547 212.638 328.505 212.646 328.453 212.618C328.253 212.502 328.043 212.444 327.823 212.444C327.611 212.444 327.447 212.494 327.331 212.594C327.219 212.694 327.163 212.838 327.163 213.026V213.866C327.163 214.05 327.219 214.194 327.331 214.298C327.447 214.398 327.609 214.448 327.817 214.448C328.061 214.448 328.293 214.376 328.513 214.232C328.569 214.2 328.611 214.208 328.639 214.256L328.891 214.616C328.923 214.664 328.917 214.704 328.873 214.736ZM330.653 215H330.137C330.077 215 330.047 214.97 330.047 214.91V212.504H329.207C329.147 212.504 329.117 212.474 329.117 212.414V211.976C329.117 211.92 329.147 211.892 329.207 211.892H331.577C331.637 211.892 331.667 211.92 331.667 211.976V212.414C331.667 212.474 331.637 212.504 331.577 212.504H330.743V214.91C330.743 214.97 330.713 215 330.653 215ZM333.474 215H332.232C332.172 215 332.142 214.97 332.142 214.91V211.976C332.142 211.92 332.172 211.892 332.232 211.892H332.748C332.808 211.892 332.838 211.92 332.838 211.976V212.9H333.474C333.842 212.9 334.138 212.994 334.362 213.182C334.59 213.37 334.704 213.63 334.704 213.962C334.704 214.318 334.594 214.58 334.374 214.748C334.158 214.916 333.858 215 333.474 215ZM332.838 213.47V214.424H333.354C333.786 214.424 334.002 214.266 334.002 213.95C334.006 213.786 333.954 213.666 333.846 213.59C333.738 213.51 333.574 213.47 333.354 213.47H332.838Z" fill="#565758"/>
<g opacity="0.03" filter="url(#filter0_f_435_919)">
<path fill-rule="evenodd" clip-rule="evenodd" d="M314.657 122.385C317.707 132.91 326.636 147.261 307.869 154.109C283.953 162.836 248.123 151.964 219.897 156.963C204.527 159.686 204.968 171.693 190.063 174.975C175.415 178.2 153.07 179.315 143.273 173.833C130.007 166.412 155.855 148.58 136.355 144.927C109.569 139.908 74.0781 164.561 51.199 156.584C32.9727 150.229 94.6767 140.684 93.3351 129.927C91.904 118.452 40.1496 116.791 44.8074 105.334C48.7924 95.5308 93.0846 104.901 106.754 96.9195C125.39 86.0375 100.742 64.6328 126.574 57.5886C148.632 51.5734 165.872 70.3273 188.49 74.6304C205.246 77.8181 225.044 76.1663 241.666 79.4845C260.232 83.1905 278.363 87.7621 290.752 95.0437C303.978 102.818 311.764 112.403 314.657 122.385Z" fill="url(#paint0_linear_435_919)"/>
</g>
<path d="M26 206C66 160.497 150.5 67.1848 335 70.0652" stroke="#33CC80" stroke-width="0.552832" stroke-dasharray="1.11 1.11"/>
<path d="M26 206C94.5 156.906 161 160.268 335 161.613" stroke="#33CC80" stroke-width="0.552832"/>
<mask id="mask0_435_919" style="mask-type:alpha" maskUnits="userSpaceOnUse" x="172" y="130" width="164" height="73">
<rect x="335.56" y="130" width="72.5768" height="163.56" rx="5" transform="rotate(90 335.56 130)" fill="white"/>
</mask>
<g mask="url(#mask0_435_919)">
<line opacity="0.12" y1="-1" x2="115.342" y2="-1" transform="matrix(0.567793 -0.823171 0.544037 0.839061 124.129 207.548)" stroke="#33CC80" stroke-width="2"/>
<line opacity="0.12" y1="-1" x2="115.342" y2="-1" transform="matrix(0.567793 -0.823171 0.544037 0.839061 128.45 207.548)" stroke="#33CC80" stroke-width="2"/>
<line opacity="0.12" y1="-1" x2="115.342" y2="-1" transform="matrix(0.567793 -0.823171 0.544037 0.839061 132.772 207.548)" stroke="#33CC80" stroke-width="2"/>
<line opacity="0.12" y1="-1" x2="115.342" y2="-1" transform="matrix(0.567793 -0.823171 0.544037 0.839061 137.094 207.548)" stroke="#33CC80" stroke-width="2"/>
<line opacity="0.12" y1="-1" x2="115.342" y2="-1" transform="matrix(0.567793 -0.823171 0.544037 0.839061 141.416 207.548)" stroke="#33CC80" stroke-width="2"/>
<line opacity="0.12" y1="-1" x2="115.342" y2="-1" transform="matrix(0.567793 -0.823171 0.544037 0.839061 145.737 207.548)" stroke="#33CC80" stroke-width="2"/>
<line opacity="0.12" y1="-1" x2="115.342" y2="-1" transform="matrix(0.567793 -0.823171 0.544037 0.839061 150.059 207.548)" stroke="#33CC80" stroke-width="2"/>
<line opacity="0.12" y1="-1" x2="115.342" y2="-1" transform="matrix(0.567793 -0.823171 0.544037 0.839061 154.381 207.548)" stroke="#33CC80" stroke-width="2"/>
<line opacity="0.12" y1="-1" x2="115.342" y2="-1" transform="matrix(0.567793 -0.823171 0.544037 0.839061 158.702 207.548)" stroke="#33CC80" stroke-width="2"/>
<line opacity="0.12" y1="-1" x2="115.342" y2="-1" transform="matrix(0.567793 -0.823171 0.544037 0.839061 163.024 207.548)" stroke="#33CC80" stroke-width="2"/>
<line opacity="0.12" y1="-1" x2="115.342" y2="-1" transform="matrix(0.567793 -0.823171 0.544037 0.839061 167.346 207.548)" stroke="#33CC80" stroke-width="2"/>
<line opacity="0.12" y1="-1" x2="115.342" y2="-1" transform="matrix(0.567793 -0.823171 0.544037 0.839061 171.668 207.548)" stroke="#33CC80" stroke-width="2"/>
<line opacity="0.12" y1="-1" x2="115.342" y2="-1" transform="matrix(0.567793 -0.823171 0.544037 0.839061 175.989 207.548)" stroke="#33CC80" stroke-width="2"/>
<line opacity="0.12" y1="-1" x2="115.342" y2="-1" transform="matrix(0.567793 -0.823171 0.544037 0.839061 292.676 207.548)" stroke="#33CC80" stroke-width="2"/>
<line opacity="0.12" y1="-1" x2="115.342" y2="-1" transform="matrix(0.567793 -0.823171 0.544037 0.839061 180.311 207.548)" stroke="#33CC80" stroke-width="2"/>
<line opacity="0.12" y1="-1" x2="115.342" y2="-1" transform="matrix(0.567793 -0.823171 0.544037 0.839061 184.633 207.548)" stroke="#33CC80" stroke-width="2"/>
<line opacity="0.12" y1="-1" x2="115.342" y2="-1" transform="matrix(0.567793 -0.823171 0.544037 0.839061 188.954 207.548)" stroke="#33CC80" stroke-width="2"/>
<line opacity="0.12" y1="-1" x2="115.342" y2="-1" transform="matrix(0.567793 -0.823171 0.544037 0.839061 193.276 207.548)" stroke="#33CC80" stroke-width="2"/>
<line opacity="0.12" y1="-1" x2="115.342" y2="-1" transform="matrix(0.567793 -0.823171 0.544037 0.839061 197.598 207.548)" stroke="#33CC80" stroke-width="2"/>
<line opacity="0.12" y1="-1" x2="115.342" y2="-1" transform="matrix(0.567793 -0.823171 0.544037 0.839061 201.92 207.548)" stroke="#33CC80" stroke-width="2"/>
<line opacity="0.12" y1="-1" x2="115.342" y2="-1" transform="matrix(0.567793 -0.823171 0.544037 0.839061 206.241 207.548)" stroke="#33CC80" stroke-width="2"/>
<line opacity="0.12" y1="-1" x2="115.342" y2="-1" transform="matrix(0.567793 -0.823171 0.544037 0.839061 210.563 207.548)" stroke="#33CC80" stroke-width="2"/>
<line opacity="0.12" y1="-1" x2="115.342" y2="-1" transform="matrix(0.567793 -0.823171 0.544037 0.839061 214.885 207.548)" stroke="#33CC80" stroke-width="2"/>
<line opacity="0.12" y1="-1" x2="115.342" y2="-1" transform="matrix(0.567793 -0.823171 0.544037 0.839061 219.207 207.548)" stroke="#33CC80" stroke-width="2"/>
<line opacity="0.12" y1="-1" x2="115.342" y2="-1" transform="matrix(0.567793 -0.823171 0.544037 0.839061 223.528 207.548)" stroke="#33CC80" stroke-width="2"/>
<line opacity="0.12" y1="-1" x2="115.342" y2="-1" transform="matrix(0.567793 -0.823171 0.544037 0.839061 227.85 207.548)" stroke="#33CC80" stroke-width="2"/>
<line opacity="0.12" y1="-1" x2="115.342" y2="-1" transform="matrix(0.567793 -0.823171 0.544037 0.839061 232.172 207.548)" stroke="#33CC80" stroke-width="2"/>
<line opacity="0.12" y1="-1" x2="115.342" y2="-1" transform="matrix(0.567793 -0.823171 0.544037 0.839061 236.493 207.548)" stroke="#33CC80" stroke-width="2"/>
<line opacity="0.12" y1="-1" x2="115.342" y2="-1" transform="matrix(0.567793 -0.823171 0.544037 0.839061 240.815 207.548)" stroke="#33CC80" stroke-width="2"/>
<line opacity="0.12" y1="-1" x2="115.342" y2="-1" transform="matrix(0.567793 -0.823171 0.544037 0.839061 245.137 207.548)" stroke="#33CC80" stroke-width="2"/>
<line opacity="0.12" y1="-1" x2="115.342" y2="-1" transform="matrix(0.567793 -0.823171 0.544037 0.839061 249.458 207.548)" stroke="#33CC80" stroke-width="2"/>
<line opacity="0.12" y1="-1" x2="115.342" y2="-1" transform="matrix(0.567793 -0.823171 0.544037 0.839061 253.78 207.548)" stroke="#33CC80" stroke-width="2"/>
<line opacity="0.12" y1="-1" x2="115.342" y2="-1" transform="matrix(0.567793 -0.823171 0.544037 0.839061 258.102 207.548)" stroke="#33CC80" stroke-width="2"/>
<line opacity="0.12" y1="-1" x2="115.342" y2="-1" transform="matrix(0.567793 -0.823171 0.544037 0.839061 262.423 207.548)" stroke="#33CC80" stroke-width="2"/>
<line opacity="0.12" y1="-1" x2="115.342" y2="-1" transform="matrix(0.567793 -0.823171 0.544037 0.839061 266.745 207.548)" stroke="#33CC80" stroke-width="2"/>
<line opacity="0.12" y1="-1" x2="115.342" y2="-1" transform="matrix(0.567793 -0.823171 0.544037 0.839061 271.067 207.548)" stroke="#33CC80" stroke-width="2"/>
<line opacity="0.12" y1="-1" x2="115.342" y2="-1" transform="matrix(0.567793 -0.823171 0.544037 0.839061 275.389 207.548)" stroke="#33CC80" stroke-width="2"/>
<line opacity="0.12" y1="-1" x2="115.342" y2="-1" transform="matrix(0.567793 -0.823171 0.544037 0.839061 279.71 207.548)" stroke="#33CC80" stroke-width="2"/>
<line opacity="0.12" y1="-1" x2="115.342" y2="-1" transform="matrix(0.567793 -0.823171 0.544037 0.839061 284.032 207.548)" stroke="#33CC80" stroke-width="2"/>
<line opacity="0.12" y1="-1" x2="115.342" y2="-1" transform="matrix(0.567793 -0.823171 0.544037 0.839061 288.354 207.548)" stroke="#33CC80" stroke-width="2"/>
<line opacity="0.12" y1="-1" x2="115.342" y2="-1" transform="matrix(0.567793 -0.823171 0.544037 0.839061 296.665 207.548)" stroke="#33CC80" stroke-width="2"/>
<line opacity="0.12" y1="-1" x2="115.342" y2="-1" transform="matrix(0.567793 -0.823171 0.544037 0.839061 300.986 207.548)" stroke="#33CC80" stroke-width="2"/>
<line opacity="0.12" y1="-1" x2="115.342" y2="-1" transform="matrix(0.567793 -0.823171 0.544037 0.839061 305.308 207.548)" stroke="#33CC80" stroke-width="2"/>
<line opacity="0.12" y1="-1" x2="115.342" y2="-1" transform="matrix(0.567793 -0.823171 0.544037 0.839061 309.63 207.548)" stroke="#33CC80" stroke-width="2"/>
<line opacity="0.12" y1="-1" x2="115.342" y2="-1" transform="matrix(0.567793 -0.823171 0.544037 0.839061 313.952 207.548)" stroke="#33CC80" stroke-width="2"/>
<line opacity="0.12" y1="-1" x2="115.342" y2="-1" transform="matrix(0.567793 -0.823171 0.544037 0.839061 318.273 207.548)" stroke="#33CC80" stroke-width="2"/>
<line opacity="0.12" y1="-1" x2="115.342" y2="-1" transform="matrix(0.567793 -0.823171 0.544037 0.839061 322.595 207.548)" stroke="#33CC80" stroke-width="2"/>
<line opacity="0.12" y1="-1" x2="115.342" y2="-1" transform="matrix(0.567793 -0.823171 0.544037 0.839061 326.917 207.548)" stroke="#33CC80" stroke-width="2"/>
</g>
<g filter="url(#filter1_d_435_919)">
<rect x="213" y="61" width="120" height="30" rx="15" fill="white"/>
<rect x="213.276" y="61.2764" width="119.447" height="29.4472" rx="14.7236" stroke="url(#paint1_linear_435_919)" stroke-width="0.552832"/>
</g>
<path d="M243.063 80.3729H242.29C242.21 80.3729 242.171 80.3304 242.171 80.2454V79.6504H241.771C241.119 79.6504 240.575 79.4549 240.139 79.0639C239.703 78.6729 239.485 78.0921 239.485 77.3214V76.2164C239.485 75.4514 239.7 74.8763 240.131 74.4909C240.567 74.0999 241.114 73.9044 241.771 73.9044H242.171V73.3434C242.171 73.2641 242.21 73.2244 242.29 73.2244H243.063C243.148 73.2244 243.191 73.2641 243.191 73.3434V73.9044H243.59C244.247 73.9044 244.791 74.0999 245.222 74.4909C245.658 74.8763 245.877 75.4514 245.877 76.2164V77.3214C245.877 78.0921 245.658 78.6729 245.222 79.0639C244.786 79.4549 244.242 79.6504 243.59 79.6504H243.191V80.2454C243.191 80.3304 243.148 80.3729 243.063 80.3729ZM240.539 77.3384C240.539 77.8031 240.658 78.1431 240.896 78.3584C241.134 78.5738 241.442 78.6814 241.822 78.6814H242.171V74.8649H241.822C240.966 74.8649 240.539 75.3126 240.539 76.2079V77.3384ZM243.191 74.8649V78.6814H243.539C243.919 78.6814 244.228 78.5738 244.466 78.3584C244.704 78.1431 244.823 77.8031 244.823 77.3384V76.2079C244.823 75.3126 244.395 74.8649 243.539 74.8649H243.191ZM250.63 78.1799C250.63 78.7069 250.454 79.1263 250.103 79.4379C249.751 79.7439 249.281 79.8969 248.692 79.8969C248.102 79.8969 247.632 79.7439 247.281 79.4379C246.929 79.1263 246.754 78.7069 246.754 78.1799V77.0409C246.754 76.5083 246.929 76.0833 247.281 75.7659C247.632 75.4486 248.102 75.2899 248.692 75.2899C249.281 75.2899 249.751 75.4486 250.103 75.7659C250.454 76.0833 250.63 76.5083 250.63 77.0409V78.1799ZM247.748 78.1799C247.748 78.7353 248.063 79.0129 248.692 79.0129C248.998 79.0129 249.23 78.9421 249.389 78.8004C249.553 78.6588 249.635 78.4519 249.635 78.1799V77.0409C249.635 76.7633 249.553 76.5508 249.389 76.4034C249.224 76.2504 248.992 76.1739 248.692 76.1739C248.386 76.1739 248.151 76.2476 247.986 76.3949C247.828 76.5423 247.748 76.7576 247.748 77.0409V78.1799ZM252.414 79.7949H251.683C251.598 79.7949 251.555 79.7524 251.555 79.6674V75.5109C251.555 75.4316 251.598 75.3919 251.683 75.3919H252.414C252.499 75.3919 252.541 75.4316 252.541 75.5109V77.0749H254.19V75.5109C254.19 75.4316 254.233 75.3919 254.318 75.3919H255.049C255.134 75.3919 255.176 75.4316 255.176 75.5109V79.6674C255.176 79.7524 255.134 79.7949 255.049 79.7949H254.318C254.233 79.7949 254.19 79.7524 254.19 79.6674V77.9504H252.541V79.6674C252.541 79.7524 252.499 79.7949 252.414 79.7949ZM256.67 80.9424H255.981C255.902 80.9424 255.862 80.9028 255.862 80.8234V79.0469C255.862 78.9676 255.902 78.9279 255.981 78.9279H256.168C256.355 78.7976 256.5 78.5029 256.602 78.0439C256.704 77.5793 256.803 76.7349 256.899 75.5109C256.911 75.4316 256.953 75.3919 257.027 75.3919H259.849C259.934 75.3919 259.976 75.4316 259.976 75.5109V78.9279H260.41C260.495 78.9279 260.537 78.9704 260.537 79.0554V80.8234C260.537 80.9028 260.495 80.9424 260.41 80.9424H259.721C259.636 80.9424 259.594 80.9028 259.594 80.8234V79.7949H256.797V80.8234C256.797 80.9028 256.755 80.9424 256.67 80.9424ZM257.817 76.2589C257.704 77.6643 257.509 78.5539 257.231 78.9279H258.999V76.2589H257.817ZM264.99 78.1799C264.99 78.7069 264.814 79.1263 264.463 79.4379C264.112 79.7439 263.641 79.8969 263.052 79.8969C262.463 79.8969 261.992 79.7439 261.641 79.4379C261.29 79.1263 261.114 78.7069 261.114 78.1799V77.0409C261.114 76.5083 261.29 76.0833 261.641 75.7659C261.992 75.4486 262.463 75.2899 263.052 75.2899C263.641 75.2899 264.112 75.4486 264.463 75.7659C264.814 76.0833 264.99 76.5083 264.99 77.0409V78.1799ZM262.109 78.1799C262.109 78.7353 262.423 79.0129 263.052 79.0129C263.358 79.0129 263.59 78.9421 263.749 78.8004C263.913 78.6588 263.996 78.4519 263.996 78.1799V77.0409C263.996 76.7633 263.913 76.5508 263.749 76.4034C263.585 76.2504 263.352 76.1739 263.052 76.1739C262.746 76.1739 262.511 76.2476 262.347 76.3949C262.188 76.5423 262.109 76.7576 262.109 77.0409V78.1799ZM267.819 79.7949H266.043C265.958 79.7949 265.915 79.7524 265.915 79.6674V75.5109C265.915 75.4316 265.958 75.3919 266.043 75.3919H267.819C268.307 75.3919 268.692 75.5024 268.975 75.7234C269.264 75.9388 269.409 76.2221 269.409 76.5734C269.409 76.9644 269.236 77.2619 268.89 77.4659C269.338 77.6586 269.562 78.0184 269.562 78.5454C269.562 78.9194 269.403 79.2226 269.086 79.4549C268.769 79.6816 268.346 79.7949 267.819 79.7949ZM266.901 76.1739V77.1769H267.777C267.975 77.1769 268.131 77.1344 268.244 77.0494C268.363 76.9588 268.423 76.8313 268.423 76.6669C268.423 76.3383 268.205 76.1739 267.768 76.1739H266.901ZM266.901 77.8994V79.0129H267.777C268.304 79.0129 268.567 78.8231 268.567 78.4434C268.567 78.0808 268.304 77.8994 267.777 77.8994H266.901ZM272.318 79.7949H270.559C270.474 79.7949 270.431 79.7524 270.431 79.6674V75.5109C270.431 75.4316 270.474 75.3919 270.559 75.3919H271.29C271.375 75.3919 271.417 75.4316 271.417 75.5109V76.8199H272.318C272.839 76.8199 273.259 76.9531 273.576 77.2194C273.899 77.4858 274.061 77.8541 274.061 78.3244C274.061 78.8288 273.905 79.1999 273.593 79.4379C273.287 79.6759 272.862 79.7949 272.318 79.7949ZM271.417 77.6274V78.9789H272.148C272.76 78.9789 273.066 78.7551 273.066 78.3074C273.072 78.0751 272.998 77.9051 272.845 77.7974C272.692 77.6841 272.46 77.6274 272.148 77.6274H271.417ZM275.387 79.7949H274.656C274.571 79.7949 274.528 79.7524 274.528 79.6674V75.5109C274.528 75.4316 274.571 75.3919 274.656 75.3919H275.387C275.472 75.3919 275.514 75.4316 275.514 75.5109V79.6674C275.514 79.7524 275.472 79.7949 275.387 79.7949ZM277.551 79.7949H276.709C276.624 79.7949 276.582 79.7524 276.582 79.6674V75.5109C276.582 75.4316 276.624 75.3919 276.709 75.3919H277.432C277.517 75.3919 277.559 75.4316 277.559 75.5109V77.2449C277.559 77.5793 277.554 77.9618 277.542 78.3924H277.551C277.715 78.0298 277.984 77.5396 278.358 76.9219L279.208 75.4684C279.254 75.4174 279.305 75.3919 279.361 75.3919H280.211C280.296 75.3919 280.339 75.4316 280.339 75.5109V79.6674C280.339 79.7524 280.296 79.7949 280.211 79.7949H279.489C279.404 79.7949 279.361 79.7524 279.361 79.6674V77.9589C279.361 77.6246 279.367 77.2534 279.378 76.8454H279.37C279.257 77.1061 278.99 77.5849 278.571 78.2819L277.704 79.7099C277.67 79.7666 277.619 79.7949 277.551 79.7949ZM279.786 73.6749C279.741 74.0263 279.599 74.3068 279.361 74.5164C279.129 74.7204 278.815 74.8224 278.418 74.8224C278.021 74.8224 277.707 74.7204 277.474 74.5164C277.242 74.3124 277.103 74.0376 277.058 73.6919C277.047 73.6069 277.083 73.5588 277.168 73.5474L277.644 73.4794C277.718 73.4738 277.763 73.5078 277.78 73.5814C277.86 73.9214 278.072 74.0914 278.418 74.0914C278.764 74.0914 278.976 73.9214 279.055 73.5814C279.072 73.5078 279.121 73.4738 279.2 73.4794L279.667 73.5474C279.752 73.5588 279.792 73.6013 279.786 73.6749ZM283.332 75.5959C283.854 75.3919 284.426 75.2899 285.049 75.2899C285.639 75.2899 286.112 75.4458 286.469 75.7574C286.826 76.0691 287.004 76.5338 287.004 77.1514V78.0864C287.004 78.6361 286.829 79.0753 286.477 79.4039C286.126 79.7326 285.676 79.8969 285.126 79.8969C284.814 79.8969 284.514 79.8346 284.225 79.7099V81.2824C284.225 81.3674 284.182 81.4099 284.097 81.4099H283.366C283.281 81.4099 283.239 81.3674 283.239 81.2824V75.7319C283.239 75.6639 283.27 75.6186 283.332 75.5959ZM285.041 79.0299C285.681 79.0299 286.001 78.7183 286.001 78.0949V77.1429C286.001 76.7916 285.919 76.5394 285.755 76.3864C285.591 76.2334 285.347 76.1569 285.024 76.1569C284.684 76.1569 284.418 76.1966 284.225 76.2759V78.7919C284.457 78.9506 284.729 79.0299 285.041 79.0299ZM289.808 79.7949H288.048C287.963 79.7949 287.921 79.7524 287.921 79.6674V75.5109C287.921 75.4316 287.963 75.3919 288.048 75.3919H288.779C288.864 75.3919 288.907 75.4316 288.907 75.5109V76.8199H289.808C290.329 76.8199 290.748 76.9531 291.066 77.2194C291.389 77.4858 291.55 77.8541 291.55 78.3244C291.55 78.8288 291.394 79.1999 291.083 79.4379C290.777 79.6759 290.352 79.7949 289.808 79.7949ZM288.907 77.6274V78.9789H289.638C290.25 78.9789 290.556 78.7551 290.556 78.3074C290.561 78.0751 290.488 77.9051 290.335 77.7974C290.182 77.6841 289.949 77.6274 289.638 77.6274H288.907ZM292.876 79.7949H292.145C292.06 79.7949 292.018 79.7524 292.018 79.6674V75.5109C292.018 75.4316 292.06 75.3919 292.145 75.3919H292.876C292.961 75.3919 293.004 75.4316 293.004 75.5109V79.6674C293.004 79.7524 292.961 79.7949 292.876 79.7949ZM294.93 79.7949H294.199C294.114 79.7949 294.072 79.7524 294.072 79.6674V75.5109C294.072 75.4316 294.114 75.3919 294.199 75.3919H294.93C295.015 75.3919 295.058 75.4316 295.058 75.5109V77.0749H296.707V75.5109C296.707 75.4316 296.749 75.3919 296.834 75.3919H297.565C297.65 75.3919 297.693 75.4316 297.693 75.5109V79.6674C297.693 79.7524 297.65 79.7949 297.565 79.7949H296.834C296.749 79.7949 296.707 79.7524 296.707 79.6674V77.9504H295.058V79.6674C295.058 79.7524 295.015 79.7949 294.93 79.7949ZM302.493 78.1799C302.493 78.7069 302.317 79.1263 301.966 79.4379C301.615 79.7439 301.144 79.8969 300.555 79.8969C299.966 79.8969 299.495 79.7439 299.144 79.4379C298.793 79.1263 298.617 78.7069 298.617 78.1799V77.0409C298.617 76.5083 298.793 76.0833 299.144 75.7659C299.495 75.4486 299.966 75.2899 300.555 75.2899C301.144 75.2899 301.615 75.4486 301.966 75.7659C302.317 76.0833 302.493 76.5083 302.493 77.0409V78.1799ZM299.612 78.1799C299.612 78.7353 299.926 79.0129 300.555 79.0129C300.861 79.0129 301.093 78.9421 301.252 78.8004C301.416 78.6588 301.499 78.4519 301.499 78.1799V77.0409C301.499 76.7633 301.416 76.5508 301.252 76.4034C301.088 76.2504 300.855 76.1739 300.555 76.1739C300.249 76.1739 300.014 76.2476 299.85 76.3949C299.691 76.5423 299.612 76.7576 299.612 77.0409V78.1799ZM307.065 79.7949H306.206C306.133 79.7949 306.082 79.7694 306.053 79.7184L304.727 77.9759L304.379 78.3499V79.6674C304.379 79.7524 304.336 79.7949 304.251 79.7949H303.546C303.461 79.7949 303.418 79.7524 303.418 79.6674V75.5194C303.418 75.4344 303.461 75.3919 303.546 75.3919H304.251C304.336 75.3919 304.379 75.4344 304.379 75.5194V77.1599L305.9 75.4599C305.934 75.4146 305.985 75.3919 306.053 75.3919H306.912C306.968 75.3919 307.002 75.4061 307.014 75.4344C307.031 75.4628 307.022 75.4996 306.988 75.5449L305.382 77.2874L307.15 79.6419C307.212 79.7439 307.184 79.7949 307.065 79.7949Z" fill="url(#paint2_linear_435_919)"/>
<g filter="url(#filter2_d_435_919)">
<rect x="96" y="103" width="120" height="30" rx="15" fill="white"/>
<rect x="96.2764" y="103.276" width="119.447" height="29.4472" rx="14.7236" stroke="url(#paint3_linear_435_919)" stroke-width="0.552832"/>
</g>
<path d="M131.114 117.747V115.342C131.114 115.257 131.154 115.214 131.233 115.214H132.015C132.094 115.214 132.134 115.257 132.134 115.342V121.164C132.134 121.249 132.094 121.292 132.015 121.292H131.233C131.154 121.292 131.114 121.249 131.114 121.164V118.691H128.717V121.164C128.717 121.249 128.677 121.292 128.598 121.292H127.816C127.737 121.292 127.697 121.249 127.697 121.164V115.342C127.697 115.257 127.737 115.214 127.816 115.214H128.598C128.677 115.214 128.717 115.257 128.717 115.342V117.747H131.114ZM136.933 118.529V119.388C136.933 119.467 136.89 119.507 136.805 119.507H134.221V119.745C134.221 120 134.3 120.195 134.459 120.331C134.623 120.462 134.844 120.527 135.122 120.527C135.536 120.527 135.935 120.397 136.321 120.136C136.389 120.091 136.445 120.099 136.491 120.161L136.839 120.629C136.896 120.691 136.887 120.751 136.814 120.807C136.321 121.198 135.745 121.394 135.088 121.394C134.567 121.394 134.125 121.252 133.762 120.969C133.405 120.68 133.227 120.269 133.227 119.736V118.529C133.227 117.946 133.408 117.509 133.771 117.22C134.133 116.931 134.575 116.787 135.097 116.787C135.612 116.787 136.046 116.931 136.397 117.22C136.754 117.509 136.933 117.946 136.933 118.529ZM135.972 118.521C135.972 118.226 135.89 118.008 135.726 117.866C135.561 117.725 135.352 117.654 135.097 117.654C134.513 117.654 134.221 117.943 134.221 118.521V118.742H135.972V118.521ZM138.204 122.439H137.515C137.436 122.439 137.396 122.4 137.396 122.32V120.544C137.396 120.465 137.436 120.425 137.515 120.425H137.702C137.889 120.295 138.034 120 138.136 119.541C138.238 119.076 138.337 118.232 138.433 117.008C138.444 116.929 138.487 116.889 138.561 116.889H141.383C141.468 116.889 141.51 116.929 141.51 117.008V120.425H141.944C142.029 120.425 142.071 120.467 142.071 120.552V122.32C142.071 122.4 142.029 122.439 141.944 122.439H141.255C141.17 122.439 141.128 122.4 141.128 122.32V121.292H138.331V122.32C138.331 122.4 138.289 122.439 138.204 122.439ZM139.351 117.756C139.238 119.161 139.042 120.051 138.765 120.425H140.533V117.756H139.351ZM144.738 121.292H142.961C142.876 121.292 142.834 121.249 142.834 121.164V117.008C142.834 116.929 142.876 116.889 142.961 116.889H144.738C145.225 116.889 145.611 116.999 145.894 117.22C146.183 117.436 146.327 117.719 146.327 118.07C146.327 118.461 146.155 118.759 145.809 118.963C146.257 119.156 146.48 119.515 146.48 120.042C146.48 120.416 146.322 120.72 146.004 120.952C145.687 121.179 145.265 121.292 144.738 121.292ZM143.82 117.671V118.674H144.695C144.894 118.674 145.05 118.631 145.163 118.546C145.282 118.456 145.341 118.328 145.341 118.164C145.341 117.835 145.123 117.671 144.687 117.671H143.82ZM143.82 119.396V120.51H144.695C145.222 120.51 145.486 120.32 145.486 119.94C145.486 119.578 145.222 119.396 144.695 119.396H143.82ZM148.318 121.292H147.477C147.392 121.292 147.349 121.249 147.349 121.164V117.008C147.349 116.929 147.392 116.889 147.477 116.889H148.199C148.284 116.889 148.327 116.929 148.327 117.008V118.742C148.327 119.076 148.321 119.459 148.31 119.889H148.318C148.483 119.527 148.752 119.037 149.126 118.419L149.976 116.965C150.021 116.914 150.072 116.889 150.129 116.889H150.979C151.064 116.889 151.106 116.929 151.106 117.008V121.164C151.106 121.249 151.064 121.292 150.979 121.292H150.256C150.171 121.292 150.129 121.249 150.129 121.164V119.456C150.129 119.122 150.135 118.75 150.146 118.342H150.137C150.024 118.603 149.758 119.082 149.338 119.779L148.471 121.207C148.437 121.264 148.386 121.292 148.318 121.292ZM157.748 121.292H156.881C156.807 121.292 156.756 121.264 156.728 121.207L155.657 119.447L155.275 119.898V121.164C155.275 121.249 155.232 121.292 155.147 121.292H154.442C154.357 121.292 154.314 121.249 154.314 121.164V119.898L153.932 119.447L152.861 121.207C152.832 121.264 152.781 121.292 152.708 121.292H151.841C151.727 121.292 151.699 121.241 151.756 121.139L153.294 118.776L151.917 117.033C151.889 116.994 151.88 116.96 151.892 116.931C151.903 116.903 151.934 116.889 151.985 116.889H152.861C152.929 116.889 152.98 116.914 153.014 116.965L153.685 117.875C153.912 118.181 154.121 118.476 154.314 118.759V117.008C154.314 116.929 154.357 116.889 154.442 116.889H155.147C155.232 116.889 155.275 116.929 155.275 117.008V118.759C155.467 118.476 155.677 118.181 155.904 117.875L156.575 116.965C156.609 116.914 156.66 116.889 156.728 116.889H157.604C157.655 116.889 157.686 116.903 157.697 116.931C157.708 116.96 157.7 116.994 157.672 117.033L156.295 118.776L157.833 121.139C157.89 121.241 157.861 121.292 157.748 121.292ZM159.45 121.292H158.608C158.523 121.292 158.481 121.249 158.481 121.164V117.008C158.481 116.929 158.523 116.889 158.608 116.889H159.331C159.416 116.889 159.458 116.929 159.458 117.008V118.742C159.458 119.076 159.453 119.459 159.441 119.889H159.45C159.614 119.527 159.883 119.037 160.257 118.419L161.107 116.965C161.153 116.914 161.204 116.889 161.26 116.889H162.11C162.195 116.889 162.238 116.929 162.238 117.008V121.164C162.238 121.249 162.195 121.292 162.11 121.292H161.388C161.303 121.292 161.26 121.249 161.26 121.164V119.456C161.26 119.122 161.266 118.75 161.277 118.342H161.269C161.155 118.603 160.889 119.082 160.47 119.779L159.603 121.207C159.569 121.264 159.518 121.292 159.45 121.292ZM164.162 121.292H163.439C163.354 121.292 163.312 121.249 163.312 121.164V117.008C163.312 116.929 163.354 116.889 163.439 116.889H164.264C164.338 116.889 164.386 116.917 164.408 116.974L165.632 119.396H165.649L166.873 116.974C166.896 116.917 166.944 116.889 167.018 116.889H167.842C167.927 116.889 167.97 116.929 167.97 117.008V121.164C167.97 121.249 167.927 121.292 167.842 121.292H167.12C167.041 121.292 167.001 121.249 167.001 121.164V119.66C167.001 119.354 167.007 118.929 167.018 118.385H167.009C166.8 118.861 166.65 119.19 166.559 119.371L166.006 120.467C165.984 120.524 165.936 120.552 165.862 120.552H165.42C165.346 120.552 165.298 120.524 165.275 120.467L164.723 119.371C164.593 119.099 164.442 118.77 164.272 118.385H164.264C164.281 119.201 164.289 119.626 164.289 119.66V121.164C164.289 121.249 164.247 121.292 164.162 121.292ZM172.771 119.677C172.771 120.204 172.595 120.623 172.244 120.935C171.893 121.241 171.422 121.394 170.833 121.394C170.244 121.394 169.773 121.241 169.422 120.935C169.071 120.623 168.895 120.204 168.895 119.677V118.538C168.895 118.005 169.071 117.58 169.422 117.263C169.773 116.946 170.244 116.787 170.833 116.787C171.422 116.787 171.893 116.946 172.244 117.263C172.595 117.58 172.771 118.005 172.771 118.538V119.677ZM169.889 119.677C169.889 120.232 170.204 120.51 170.833 120.51C171.139 120.51 171.371 120.439 171.53 120.297C171.694 120.156 171.776 119.949 171.776 119.677V118.538C171.776 118.26 171.694 118.048 171.53 117.9C171.366 117.747 171.133 117.671 170.833 117.671C170.527 117.671 170.292 117.745 170.127 117.892C169.969 118.039 169.889 118.255 169.889 118.538V119.677ZM176.96 120.918C176.512 121.235 176.011 121.394 175.456 121.394C174.866 121.394 174.402 121.238 174.062 120.926C173.722 120.615 173.552 120.198 173.552 119.677V118.495C173.552 117.974 173.722 117.56 174.062 117.254C174.402 116.943 174.863 116.787 175.447 116.787C175.94 116.787 176.405 116.923 176.841 117.195C176.909 117.24 176.92 117.3 176.875 117.373L176.544 117.883C176.498 117.946 176.439 117.957 176.365 117.917C176.082 117.753 175.784 117.671 175.473 117.671C175.172 117.671 174.94 117.742 174.776 117.883C174.617 118.025 174.538 118.229 174.538 118.495V119.685C174.538 119.946 174.617 120.15 174.776 120.297C174.94 120.439 175.169 120.51 175.464 120.51C175.81 120.51 176.138 120.408 176.45 120.204C176.529 120.159 176.589 120.17 176.629 120.238L176.986 120.748C177.031 120.816 177.022 120.873 176.96 120.918ZM179.482 121.292H178.751C178.666 121.292 178.623 121.249 178.623 121.164V117.756H177.433C177.348 117.756 177.306 117.713 177.306 117.628V117.008C177.306 116.929 177.348 116.889 177.433 116.889H180.791C180.876 116.889 180.918 116.929 180.918 117.008V117.628C180.918 117.713 180.876 117.756 180.791 117.756H179.609V121.164C179.609 121.249 179.567 121.292 179.482 121.292ZM183.477 121.292H181.718C181.633 121.292 181.59 121.249 181.59 121.164V117.008C181.59 116.929 181.633 116.889 181.718 116.889H182.449C182.534 116.889 182.576 116.929 182.576 117.008V118.317H183.477C183.999 118.317 184.418 118.45 184.735 118.716C185.058 118.983 185.22 119.351 185.22 119.821C185.22 120.326 185.064 120.697 184.752 120.935C184.446 121.173 184.021 121.292 183.477 121.292ZM182.576 119.124V120.476H183.307C183.919 120.476 184.225 120.252 184.225 119.804C184.231 119.572 184.157 119.402 184.004 119.294C183.851 119.181 183.619 119.124 183.307 119.124H182.576Z" fill="url(#paint4_linear_435_919)"/>
<g filter="url(#filter3_d_435_919)">
<rect x="35" y="157" width="120" height="30" rx="15" fill="white"/>
<rect x="35.2764" y="157.276" width="119.447" height="29.4472" rx="14.7236" stroke="url(#paint5_linear_435_919)" stroke-width="0.552832"/>
</g>
<path d="M57.717 172.285H59.0005C59.7258 172.285 60.2642 172.433 60.6155 172.727C60.9668 173.016 61.1425 173.478 61.1425 174.113C61.1425 174.736 60.9527 175.207 60.573 175.524C60.199 175.841 59.689 176 59.043 176H56.816C56.7367 176 56.697 175.957 56.697 175.872V170.05C56.697 169.965 56.7367 169.922 56.816 169.922H60.5305C60.6155 169.922 60.658 169.965 60.658 170.05V170.73C60.658 170.815 60.6155 170.857 60.5305 170.857H57.717V172.285ZM57.717 175.065H59.0175C59.3745 175.065 59.6437 174.991 59.825 174.844C60.0063 174.697 60.097 174.453 60.097 174.113C60.097 173.801 60.012 173.575 59.842 173.433C59.672 173.286 59.3972 173.212 59.0175 173.212H57.717V175.065ZM61.9634 171.945C62.3997 171.645 62.9551 171.495 63.6294 171.495C64.1791 171.495 64.6097 171.639 64.9214 171.928C65.2387 172.212 65.3974 172.642 65.3974 173.22V175.702C65.3974 175.77 65.3662 175.819 65.3039 175.847C64.7542 176.017 64.1847 176.102 63.5954 176.102C63.0457 176.102 62.5924 175.989 62.2354 175.762C61.8784 175.535 61.6999 175.175 61.6999 174.682C61.6999 174.235 61.8671 173.898 62.2014 173.671C62.5414 173.439 62.9947 173.322 63.5614 173.322C63.7881 173.322 64.0714 173.345 64.4114 173.39V173.229C64.4114 172.923 64.3462 172.705 64.2159 172.574C64.0912 172.438 63.8731 172.37 63.5614 172.37C63.1421 172.37 62.7794 172.461 62.4734 172.642C62.4054 172.693 62.3487 172.682 62.3034 172.608L61.9634 172.09C61.9237 172.028 61.9237 171.979 61.9634 171.945ZM62.6944 174.674C62.6944 174.867 62.7766 175.011 62.9409 175.107C63.1052 175.198 63.3234 175.243 63.5954 175.243C63.8561 175.243 64.1281 175.209 64.4114 175.141V174.181C64.1054 174.136 63.8306 174.113 63.5869 174.113C62.9919 174.113 62.6944 174.3 62.6944 174.674ZM67.2719 176H66.5409C66.4559 176 66.4134 175.957 66.4134 175.872V171.716C66.4134 171.637 66.4559 171.597 66.5409 171.597H67.2719C67.3569 171.597 67.3994 171.637 67.3994 171.716V173.28H69.0484V171.716C69.0484 171.637 69.0909 171.597 69.1759 171.597H69.9069C69.9919 171.597 70.0344 171.637 70.0344 171.716V175.872C70.0344 175.957 69.9919 176 69.9069 176H69.1759C69.0909 176 69.0484 175.957 69.0484 175.872V174.155H67.3994V175.872C67.3994 175.957 67.3569 176 67.2719 176ZM74.7499 176H73.8914C73.8177 176 73.7667 175.974 73.7384 175.923L72.4124 174.181L72.0639 174.555V175.872C72.0639 175.957 72.0214 176 71.9364 176H71.2309C71.1459 176 71.1034 175.957 71.1034 175.872V171.724C71.1034 171.639 71.1459 171.597 71.2309 171.597H71.9364C72.0214 171.597 72.0639 171.639 72.0639 171.724V173.365L73.5854 171.665C73.6194 171.62 73.6704 171.597 73.7384 171.597H74.5969C74.6535 171.597 74.6875 171.611 74.6989 171.639C74.7159 171.668 74.7074 171.705 74.6734 171.75L73.0669 173.492L74.8349 175.847C74.8972 175.949 74.8689 176 74.7499 176ZM78.9355 174.385C78.9355 174.912 78.7598 175.331 78.4085 175.643C78.0571 175.949 77.5868 176.102 76.9975 176.102C76.4081 176.102 75.9378 175.949 75.5865 175.643C75.2351 175.331 75.0595 174.912 75.0595 174.385V173.246C75.0595 172.713 75.2351 172.288 75.5865 171.971C75.9378 171.654 76.4081 171.495 76.9975 171.495C77.5868 171.495 78.0571 171.654 78.4085 171.971C78.7598 172.288 78.9355 172.713 78.9355 173.246V174.385ZM76.054 174.385C76.054 174.94 76.3685 175.218 76.9975 175.218C77.3035 175.218 77.5358 175.147 77.6945 175.005C77.8588 174.864 77.941 174.657 77.941 174.385V173.246C77.941 172.968 77.8588 172.756 77.6945 172.608C77.5301 172.455 77.2978 172.379 76.9975 172.379C76.6915 172.379 76.4563 172.453 76.292 172.6C76.1333 172.747 76.054 172.963 76.054 173.246V174.385ZM81.7647 176H79.9882C79.9032 176 79.8607 175.957 79.8607 175.872V171.716C79.8607 171.637 79.9032 171.597 79.9882 171.597H81.7647C82.252 171.597 82.6374 171.707 82.9207 171.928C83.2097 172.144 83.3542 172.427 83.3542 172.778C83.3542 173.169 83.1814 173.467 82.8357 173.671C83.2834 173.864 83.5072 174.223 83.5072 174.751C83.5072 175.124 83.3485 175.428 83.0312 175.66C82.7139 175.887 82.2917 176 81.7647 176ZM80.8467 172.379V173.382H81.7222C81.9205 173.382 82.0764 173.339 82.1897 173.254C82.3087 173.164 82.3682 173.036 82.3682 172.872C82.3682 172.543 82.15 172.379 81.7137 172.379H80.8467ZM80.8467 174.104V175.218H81.7222C82.2492 175.218 82.5127 175.028 82.5127 174.648C82.5127 174.286 82.2492 174.104 81.7222 174.104H80.8467ZM87.6403 175.626C87.1927 175.943 86.6912 176.102 86.1358 176.102C85.5465 176.102 85.0818 175.946 84.7418 175.634C84.4018 175.323 84.2318 174.906 84.2318 174.385V173.203C84.2318 172.682 84.4018 172.268 84.7418 171.962C85.0818 171.651 85.5437 171.495 86.1273 171.495C86.6203 171.495 87.085 171.631 87.5213 171.903C87.5893 171.948 87.6007 172.008 87.5553 172.081L87.2238 172.591C87.1785 172.654 87.119 172.665 87.0453 172.625C86.762 172.461 86.4645 172.379 86.1528 172.379C85.8525 172.379 85.6202 172.45 85.4558 172.591C85.2972 172.733 85.2178 172.937 85.2178 173.203V174.393C85.2178 174.654 85.2972 174.858 85.4558 175.005C85.6202 175.147 85.8497 175.218 86.1443 175.218C86.49 175.218 86.8187 175.116 87.1303 174.912C87.2097 174.867 87.2692 174.878 87.3088 174.946L87.6658 175.456C87.7112 175.524 87.7027 175.581 87.6403 175.626ZM92.0321 176H91.1736C91.0999 176 91.0489 175.974 91.0206 175.923L89.6946 174.181L89.3461 174.555V175.872C89.3461 175.957 89.3036 176 89.2186 176H88.5131C88.4281 176 88.3856 175.957 88.3856 175.872V171.724C88.3856 171.639 88.4281 171.597 88.5131 171.597H89.2186C89.3036 171.597 89.3461 171.639 89.3461 171.724V173.365L90.8676 171.665C90.9016 171.62 90.9526 171.597 91.0206 171.597H91.8791C91.9358 171.597 91.9698 171.611 91.9811 171.639C91.9981 171.668 91.9896 171.705 91.9556 171.75L90.3491 173.492L92.1171 175.847C92.1794 175.949 92.1511 176 92.0321 176ZM93.6544 176H92.8129C92.7279 176 92.6854 175.957 92.6854 175.872V171.716C92.6854 171.637 92.7279 171.597 92.8129 171.597H93.5354C93.6204 171.597 93.6629 171.637 93.6629 171.716V173.45C93.6629 173.784 93.6572 174.167 93.6459 174.597H93.6544C93.8187 174.235 94.0879 173.745 94.4619 173.127L95.3119 171.673C95.3572 171.622 95.4082 171.597 95.4649 171.597H96.3149C96.3999 171.597 96.4424 171.637 96.4424 171.716V175.872C96.4424 175.957 96.3999 176 96.3149 176H95.5924C95.5074 176 95.4649 175.957 95.4649 175.872V174.164C95.4649 173.83 95.4706 173.458 95.4819 173.05H95.4734C95.3601 173.311 95.0937 173.79 94.6744 174.487L93.8074 175.915C93.7734 175.972 93.7224 176 93.6544 176ZM101.086 173.237V174.096C101.086 174.175 101.044 174.215 100.959 174.215H98.375V174.453C98.375 174.708 98.4543 174.903 98.613 175.039C98.7773 175.17 98.9983 175.235 99.276 175.235C99.6896 175.235 100.089 175.105 100.474 174.844C100.542 174.799 100.599 174.807 100.644 174.869L100.993 175.337C101.05 175.399 101.041 175.459 100.967 175.515C100.474 175.906 99.8993 176.102 99.242 176.102C98.7206 176.102 98.2786 175.96 97.916 175.677C97.559 175.388 97.3805 174.977 97.3805 174.444V173.237C97.3805 172.654 97.5618 172.217 97.9245 171.928C98.2871 171.639 98.7291 171.495 99.2505 171.495C99.7661 171.495 100.2 171.639 100.551 171.928C100.908 172.217 101.086 172.654 101.086 173.237ZM100.126 173.229C100.126 172.934 100.044 172.716 99.8795 172.574C99.7151 172.433 99.5055 172.362 99.2505 172.362C98.6668 172.362 98.375 172.651 98.375 173.229V173.45H100.126V173.229ZM105.712 176H103.936C103.851 176 103.808 175.957 103.808 175.872V171.716C103.808 171.637 103.851 171.597 103.936 171.597H105.712C106.2 171.597 106.585 171.707 106.868 171.928C107.157 172.144 107.302 172.427 107.302 172.778C107.302 173.169 107.129 173.467 106.783 173.671C107.231 173.864 107.455 174.223 107.455 174.751C107.455 175.124 107.296 175.428 106.979 175.66C106.662 175.887 106.239 176 105.712 176ZM104.794 172.379V173.382H105.67C105.868 173.382 106.024 173.339 106.137 173.254C106.256 173.164 106.316 173.036 106.316 172.872C106.316 172.543 106.098 172.379 105.661 172.379H104.794ZM104.794 174.104V175.218H105.67C106.197 175.218 106.46 175.028 106.46 174.648C106.46 174.286 106.197 174.104 105.67 174.104H104.794ZM111.971 176H111.112C111.038 176 110.987 175.974 110.959 175.923L109.633 174.181L109.285 174.555V175.872C109.285 175.957 109.242 176 109.157 176H108.452C108.367 176 108.324 175.957 108.324 175.872V171.724C108.324 171.639 108.367 171.597 108.452 171.597H109.157C109.242 171.597 109.285 171.639 109.285 171.724V173.365L110.806 171.665C110.84 171.62 110.891 171.597 110.959 171.597H111.818C111.874 171.597 111.908 171.611 111.92 171.639C111.937 171.668 111.928 171.705 111.894 171.75L110.288 173.492L112.056 175.847C112.118 175.949 112.09 176 111.971 176ZM113.873 174.555C113.766 175.093 113.601 175.473 113.38 175.694C113.159 175.909 112.808 176.026 112.326 176.043C112.247 176.043 112.207 176 112.207 175.915V175.294C112.207 175.221 112.247 175.175 112.326 175.158C112.491 175.147 112.618 175.079 112.709 174.954C112.805 174.83 112.885 174.606 112.947 174.283C113.043 173.722 113.114 172.866 113.159 171.716C113.171 171.637 113.213 171.597 113.287 171.597H116.177C116.262 171.597 116.304 171.637 116.304 171.716V175.872C116.304 175.957 116.262 176 116.177 176H115.446C115.361 176 115.318 175.957 115.318 175.872V172.464H114.077C114.049 173.274 113.981 173.971 113.873 174.555ZM117.338 171.945C117.774 171.645 118.33 171.495 119.004 171.495C119.554 171.495 119.984 171.639 120.296 171.928C120.613 172.212 120.772 172.642 120.772 173.22V175.702C120.772 175.77 120.741 175.819 120.678 175.847C120.129 176.017 119.559 176.102 118.97 176.102C118.42 176.102 117.967 175.989 117.61 175.762C117.253 175.535 117.074 175.175 117.074 174.682C117.074 174.235 117.242 173.898 117.576 173.671C117.916 173.439 118.369 173.322 118.936 173.322C119.163 173.322 119.446 173.345 119.786 173.39V173.229C119.786 172.923 119.721 172.705 119.59 172.574C119.466 172.438 119.248 172.37 118.936 172.37C118.517 172.37 118.154 172.461 117.848 172.642C117.78 172.693 117.723 172.682 117.678 172.608L117.338 172.09C117.298 172.028 117.298 171.979 117.338 171.945ZM118.069 174.674C118.069 174.867 118.151 175.011 118.315 175.107C118.48 175.198 118.698 175.243 118.97 175.243C119.231 175.243 119.503 175.209 119.786 175.141V174.181C119.48 174.136 119.205 174.113 118.961 174.113C118.366 174.113 118.069 174.3 118.069 174.674ZM122.213 177.148H121.524C121.445 177.148 121.405 177.108 121.405 177.029V175.252C121.405 175.173 121.445 175.133 121.524 175.133H121.711C121.898 175.003 122.043 174.708 122.145 174.249C122.247 173.784 122.346 172.94 122.442 171.716C122.454 171.637 122.496 171.597 122.57 171.597H125.392C125.477 171.597 125.519 171.637 125.519 171.716V175.133H125.953C126.038 175.133 126.08 175.175 126.08 175.26V177.029C126.08 177.108 126.038 177.148 125.953 177.148H125.264C125.179 177.148 125.137 177.108 125.137 177.029V176H122.34V177.029C122.34 177.108 122.298 177.148 122.213 177.148ZM123.36 172.464C123.247 173.869 123.052 174.759 122.774 175.133H124.542V172.464H123.36ZM128.73 176H126.971C126.886 176 126.843 175.957 126.843 175.872V171.716C126.843 171.637 126.886 171.597 126.971 171.597H127.702C127.787 171.597 127.829 171.637 127.829 171.716V173.025H128.73C129.251 173.025 129.671 173.158 129.988 173.424C130.311 173.691 130.473 174.059 130.473 174.529C130.473 175.034 130.317 175.405 130.005 175.643C129.699 175.881 129.274 176 128.73 176ZM127.829 173.832V175.184H128.56C129.172 175.184 129.478 174.96 129.478 174.512C129.484 174.28 129.41 174.11 129.257 174.002C129.104 173.889 128.872 173.832 128.56 173.832H127.829ZM131.799 176H131.068C130.983 176 130.94 175.957 130.94 175.872V171.716C130.94 171.637 130.983 171.597 131.068 171.597H131.799C131.884 171.597 131.926 171.637 131.926 171.716V175.872C131.926 175.957 131.884 176 131.799 176Z" fill="url(#paint6_linear_435_919)"/>
<g filter="url(#filter4_d_435_919)">
<rect x="185" y="147" width="139" height="34" rx="17" fill="url(#paint7_linear_435_919)"/>
</g>
<path d="M221.59 161H220.816C220.737 161 220.697 160.957 220.697 160.872V155.05C220.697 154.965 220.737 154.922 220.816 154.922H221.743C221.811 154.922 221.856 154.954 221.879 155.016L222.916 156.945C223.131 157.348 223.372 157.846 223.638 158.441H223.672C223.938 157.846 224.179 157.348 224.395 156.945L225.423 155.016C225.457 154.954 225.505 154.922 225.568 154.922H226.486C226.571 154.922 226.613 154.965 226.613 155.05V160.872C226.613 160.957 226.571 161 226.486 161H225.712C225.633 161 225.593 160.957 225.593 160.872V159.164C225.593 158.495 225.616 157.606 225.661 156.495L225.636 156.486C225.466 156.855 225.211 157.379 224.871 158.059L224.123 159.512C224.094 159.575 224.046 159.606 223.978 159.606H223.332C223.264 159.606 223.216 159.575 223.188 159.512L222.44 158.059C222.1 157.379 221.845 156.855 221.675 156.486L221.649 156.495C221.694 157.606 221.717 158.495 221.717 159.164V160.872C221.717 160.957 221.675 161 221.59 161ZM227.814 156.945C228.251 156.645 228.806 156.495 229.48 156.495C230.03 156.495 230.461 156.639 230.772 156.928C231.09 157.212 231.248 157.642 231.248 158.22V160.702C231.248 160.77 231.217 160.819 231.155 160.847C230.605 161.017 230.036 161.102 229.446 161.102C228.897 161.102 228.443 160.989 228.086 160.762C227.729 160.535 227.551 160.175 227.551 159.682C227.551 159.235 227.718 158.898 228.052 158.671C228.392 158.439 228.846 158.322 229.412 158.322C229.639 158.322 229.922 158.345 230.262 158.39V158.229C230.262 157.923 230.197 157.705 230.067 157.574C229.942 157.438 229.724 157.37 229.412 157.37C228.993 157.37 228.63 157.461 228.324 157.642C228.256 157.693 228.2 157.682 228.154 157.608L227.814 157.09C227.775 157.028 227.775 156.979 227.814 156.945ZM228.545 159.674C228.545 159.867 228.628 160.011 228.792 160.107C228.956 160.198 229.174 160.243 229.446 160.243C229.707 160.243 229.979 160.209 230.262 160.141V159.181C229.956 159.136 229.682 159.113 229.438 159.113C228.843 159.113 228.545 159.3 228.545 159.674ZM233.234 161H232.392C232.307 161 232.265 160.957 232.265 160.872V156.716C232.265 156.637 232.307 156.597 232.392 156.597H233.115C233.2 156.597 233.242 156.637 233.242 156.716V158.45C233.242 158.784 233.236 159.167 233.225 159.597H233.234C233.398 159.235 233.667 158.745 234.041 158.127L234.891 156.673C234.936 156.622 234.987 156.597 235.044 156.597H235.894C235.979 156.597 236.022 156.637 236.022 156.716V160.872C236.022 160.957 235.979 161 235.894 161H235.172C235.087 161 235.044 160.957 235.044 160.872V159.164C235.044 158.83 235.05 158.458 235.061 158.05H235.053C234.939 158.311 234.673 158.79 234.254 159.487L233.387 160.915C233.353 160.972 233.302 161 233.234 161ZM235.469 154.88C235.424 155.231 235.282 155.512 235.044 155.721C234.812 155.925 234.497 156.027 234.101 156.027C233.704 156.027 233.389 155.925 233.157 155.721C232.925 155.517 232.786 155.243 232.741 154.897C232.729 154.812 232.766 154.764 232.851 154.752L233.327 154.684C233.401 154.679 233.446 154.713 233.463 154.786C233.542 155.126 233.755 155.296 234.101 155.296C234.446 155.296 234.659 155.126 234.738 154.786C234.755 154.713 234.803 154.679 234.883 154.684L235.35 154.752C235.435 154.764 235.475 154.806 235.469 154.88ZM237.954 161H237.223C237.138 161 237.096 160.957 237.096 160.872V156.716C237.096 156.637 237.138 156.597 237.223 156.597H237.954C238.039 156.597 238.082 156.637 238.082 156.716V158.28H239.731V156.716C239.731 156.637 239.773 156.597 239.858 156.597H240.589C240.674 156.597 240.717 156.637 240.717 156.716V160.872C240.717 160.957 240.674 161 240.589 161H239.858C239.773 161 239.731 160.957 239.731 160.872V159.155H238.082V160.872C238.082 160.957 238.039 161 237.954 161ZM242.755 161H241.913C241.828 161 241.786 160.957 241.786 160.872V156.716C241.786 156.637 241.828 156.597 241.913 156.597H242.636C242.721 156.597 242.763 156.637 242.763 156.716V158.45C242.763 158.784 242.757 159.167 242.746 159.597H242.755C242.919 159.235 243.188 158.745 243.562 158.127L244.412 156.673C244.457 156.622 244.508 156.597 244.565 156.597H245.415C245.5 156.597 245.542 156.637 245.542 156.716V160.872C245.542 160.957 245.5 161 245.415 161H244.693C244.608 161 244.565 160.957 244.565 160.872V159.164C244.565 158.83 244.571 158.458 244.582 158.05H244.574C244.46 158.311 244.194 158.79 243.775 159.487L242.908 160.915C242.874 160.972 242.823 161 242.755 161ZM247.475 161H246.744C246.659 161 246.617 160.957 246.617 160.872V156.716C246.617 156.637 246.659 156.597 246.744 156.597H247.475C247.56 156.597 247.603 156.637 247.603 156.716V158.28H249.252V156.716C249.252 156.637 249.294 156.597 249.379 156.597H250.11C250.195 156.597 250.238 156.637 250.238 156.716V160.872C250.238 160.957 250.195 161 250.11 161H249.379C249.294 161 249.252 160.957 249.252 160.872V159.155H247.603V160.872C247.603 160.957 247.56 161 247.475 161ZM252.165 161.009H251.434C251.349 161.009 251.306 160.966 251.306 160.881V156.716C251.306 156.637 251.349 156.597 251.434 156.597H254.043C254.123 156.597 254.162 156.637 254.162 156.716V157.345C254.162 157.424 254.123 157.464 254.043 157.464H252.292V160.881C252.292 160.966 252.25 161.009 252.165 161.009ZM260.124 161H259.266C259.192 161 259.141 160.974 259.113 160.923L257.787 159.181L257.438 159.555V160.872C257.438 160.957 257.396 161 257.311 161H256.605C256.52 161 256.478 160.957 256.478 160.872V156.724C256.478 156.639 256.52 156.597 256.605 156.597H257.311C257.396 156.597 257.438 156.639 257.438 156.724V158.365L258.96 156.665C258.994 156.62 259.045 156.597 259.113 156.597H259.971C260.028 156.597 260.062 156.611 260.073 156.639C260.09 156.668 260.082 156.705 260.048 156.75L258.441 158.492L260.209 160.847C260.272 160.949 260.243 161 260.124 161ZM260.863 156.801C261.384 156.597 261.956 156.495 262.58 156.495C263.169 156.495 263.642 156.651 263.999 156.962C264.356 157.274 264.535 157.739 264.535 158.356V159.291C264.535 159.841 264.359 160.28 264.008 160.609C263.656 160.938 263.206 161.102 262.656 161.102C262.345 161.102 262.044 161.04 261.755 160.915V162.488C261.755 162.573 261.713 162.615 261.628 162.615H260.897C260.812 162.615 260.769 162.573 260.769 162.488V156.937C260.769 156.869 260.8 156.824 260.863 156.801ZM262.571 160.235C263.212 160.235 263.532 159.923 263.532 159.3V158.348C263.532 157.997 263.45 157.744 263.285 157.591C263.121 157.438 262.877 157.362 262.554 157.362C262.214 157.362 261.948 157.402 261.755 157.481V159.997C261.988 160.156 262.26 160.235 262.571 160.235ZM266.42 161H265.579C265.494 161 265.451 160.957 265.451 160.872V156.716C265.451 156.637 265.494 156.597 265.579 156.597H266.301C266.386 156.597 266.429 156.637 266.429 156.716V158.45C266.429 158.784 266.423 159.167 266.412 159.597H266.42C266.584 159.235 266.854 158.745 267.228 158.127L268.078 156.673C268.123 156.622 268.174 156.597 268.231 156.597H269.081C269.166 156.597 269.208 156.637 269.208 156.716V160.872C269.208 160.957 269.166 161 269.081 161H268.358C268.273 161 268.231 160.957 268.231 160.872V159.164C268.231 158.83 268.236 158.458 268.248 158.05H268.239C268.126 158.311 267.859 158.79 267.44 159.487L266.573 160.915C266.539 160.972 266.488 161 266.42 161ZM270.41 156.597H273.776C273.861 156.597 273.903 156.637 273.903 156.716V160.872C273.903 160.957 273.861 161 273.776 161H273.045C272.96 161 272.917 160.957 272.917 160.872V157.464H271.268V160.872C271.268 160.957 271.228 161 271.149 161H270.41C270.325 161 270.282 160.957 270.282 160.872V156.716C270.282 156.637 270.325 156.597 270.41 156.597ZM276.749 161H276.018C275.933 161 275.89 160.957 275.89 160.872V157.464H274.7C274.615 157.464 274.573 157.421 274.573 157.336V156.716C274.573 156.637 274.615 156.597 274.7 156.597H278.058C278.143 156.597 278.185 156.637 278.185 156.716V157.336C278.185 157.421 278.143 157.464 278.058 157.464H276.876V160.872C276.876 160.957 276.834 161 276.749 161ZM282.514 159.385C282.514 159.912 282.338 160.331 281.987 160.643C281.635 160.949 281.165 161.102 280.576 161.102C279.986 161.102 279.516 160.949 279.165 160.643C278.813 160.331 278.638 159.912 278.638 159.385V158.246C278.638 157.713 278.813 157.288 279.165 156.971C279.516 156.654 279.986 156.495 280.576 156.495C281.165 156.495 281.635 156.654 281.987 156.971C282.338 157.288 282.514 157.713 282.514 158.246V159.385ZM279.632 159.385C279.632 159.94 279.947 160.218 280.576 160.218C280.882 160.218 281.114 160.147 281.273 160.005C281.437 159.864 281.519 159.657 281.519 159.385V158.246C281.519 157.968 281.437 157.756 281.273 157.608C281.108 157.455 280.876 157.379 280.576 157.379C280.27 157.379 280.034 157.453 279.87 157.6C279.711 157.747 279.632 157.963 279.632 158.246V159.385ZM285.343 161H283.566C283.481 161 283.439 160.957 283.439 160.872V156.716C283.439 156.637 283.481 156.597 283.566 156.597H285.343C285.83 156.597 286.215 156.707 286.499 156.928C286.788 157.144 286.932 157.427 286.932 157.778C286.932 158.169 286.759 158.467 286.414 158.671C286.861 158.864 287.085 159.223 287.085 159.751C287.085 160.124 286.927 160.428 286.609 160.66C286.292 160.887 285.87 161 285.343 161ZM284.425 157.379V158.382H285.3C285.499 158.382 285.654 158.339 285.768 158.254C285.887 158.164 285.946 158.036 285.946 157.872C285.946 157.543 285.728 157.379 285.292 157.379H284.425ZM284.425 159.104V160.218H285.3C285.827 160.218 286.091 160.028 286.091 159.648C286.091 159.286 285.827 159.104 285.3 159.104H284.425ZM287.92 156.945C288.357 156.645 288.912 156.495 289.586 156.495C290.136 156.495 290.567 156.639 290.878 156.928C291.196 157.212 291.354 157.642 291.354 158.22V160.702C291.354 160.77 291.323 160.819 291.261 160.847C290.711 161.017 290.142 161.102 289.552 161.102C289.003 161.102 288.549 160.989 288.192 160.762C287.835 160.535 287.657 160.175 287.657 159.682C287.657 159.235 287.824 158.898 288.158 158.671C288.498 158.439 288.952 158.322 289.518 158.322C289.745 158.322 290.028 158.345 290.368 158.39V158.229C290.368 157.923 290.303 157.705 290.173 157.574C290.048 157.438 289.83 157.37 289.518 157.37C289.099 157.37 288.736 157.461 288.43 157.642C288.362 157.693 288.306 157.682 288.26 157.608L287.92 157.09C287.881 157.028 287.881 156.979 287.92 156.945ZM288.651 159.674C288.651 159.867 288.734 160.011 288.898 160.107C289.062 160.198 289.28 160.243 289.552 160.243C289.813 160.243 290.085 160.209 290.368 160.141V159.181C290.062 159.136 289.788 159.113 289.544 159.113C288.949 159.113 288.651 159.3 288.651 159.674ZM293.62 159.555C293.512 160.093 293.348 160.473 293.127 160.694C292.906 160.909 292.555 161.026 292.073 161.043C291.994 161.043 291.954 161 291.954 160.915V160.294C291.954 160.221 291.994 160.175 292.073 160.158C292.237 160.147 292.365 160.079 292.455 159.954C292.552 159.83 292.631 159.606 292.693 159.283C292.79 158.722 292.861 157.866 292.906 156.716C292.917 156.637 292.96 156.597 293.033 156.597H295.923C296.008 156.597 296.051 156.637 296.051 156.716V160.872C296.051 160.957 296.008 161 295.923 161H295.192C295.107 161 295.065 160.957 295.065 160.872V157.464H293.824C293.796 158.274 293.728 158.971 293.62 159.555ZM298.802 158.212C298.807 157.696 298.977 157.283 299.312 156.971C299.652 156.654 300.096 156.495 300.646 156.495C301.213 156.495 301.666 156.656 302.006 156.979C302.346 157.297 302.516 157.716 302.516 158.237V159.393C302.516 159.909 302.346 160.323 302.006 160.634C301.666 160.946 301.213 161.102 300.646 161.102C300.096 161.102 299.652 160.949 299.312 160.643C298.977 160.331 298.807 159.923 298.802 159.419L298.793 159.155H298.079V160.872C298.079 160.957 298.037 161 297.952 161H297.246C297.161 161 297.119 160.957 297.119 160.872V156.716C297.119 156.637 297.161 156.597 297.246 156.597H297.952C298.037 156.597 298.079 156.637 298.079 156.716V158.271H298.793L298.802 158.212ZM300 160.005C300.153 160.147 300.371 160.218 300.655 160.218C300.938 160.218 301.153 160.147 301.301 160.005C301.454 159.858 301.53 159.651 301.53 159.385V158.246C301.53 157.974 301.454 157.761 301.301 157.608C301.153 157.455 300.938 157.379 300.655 157.379C300.371 157.379 300.153 157.455 300 157.608C299.853 157.761 299.779 157.974 299.779 158.246V159.385C299.779 159.651 299.853 159.858 300 160.005ZM305.145 161H304.414C304.329 161 304.287 160.957 304.287 160.872V157.464H303.097C303.012 157.464 302.969 157.421 302.969 157.336V156.716C302.969 156.637 303.012 156.597 303.097 156.597H306.454C306.539 156.597 306.582 156.637 306.582 156.716V157.336C306.582 157.421 306.539 157.464 306.454 157.464H305.273V160.872C305.273 160.957 305.23 161 305.145 161ZM222.44 172H220.663C220.578 172 220.536 171.957 220.536 171.872V167.716C220.536 167.637 220.578 167.597 220.663 167.597H222.44C222.927 167.597 223.312 167.707 223.596 167.928C223.885 168.144 224.029 168.427 224.029 168.778C224.029 169.169 223.856 169.467 223.511 169.671C223.958 169.864 224.182 170.223 224.182 170.751C224.182 171.124 224.023 171.428 223.706 171.66C223.389 171.887 222.967 172 222.44 172ZM221.522 168.379V169.382H222.397C222.595 169.382 222.751 169.339 222.865 169.254C222.984 169.164 223.043 169.036 223.043 168.872C223.043 168.543 222.825 168.379 222.389 168.379H221.522ZM221.522 170.104V171.218H222.397C222.924 171.218 223.188 171.028 223.188 170.648C223.188 170.286 222.924 170.104 222.397 170.104H221.522ZM227.957 172H227.166C227.087 172 227.047 171.957 227.047 171.872V166.05C227.047 165.965 227.087 165.922 227.166 165.922H231.382C231.467 165.922 231.51 165.965 231.51 166.05V171.872C231.51 171.957 231.467 172 231.382 172H230.6C230.521 172 230.481 171.957 230.481 171.872V166.866H228.076V171.872C228.076 171.957 228.036 172 227.957 172ZM233.808 172H233.026C232.947 172 232.907 171.957 232.907 171.872V166.05C232.907 165.965 232.947 165.922 233.026 165.922H233.808C233.888 165.922 233.927 165.965 233.927 166.05V168.515L236.052 165.999C236.103 165.948 236.154 165.922 236.205 165.922H237.2C237.257 165.922 237.291 165.939 237.302 165.973C237.319 166.002 237.31 166.036 237.276 166.075L235.024 168.634L237.463 171.847C237.497 171.892 237.506 171.929 237.489 171.957C237.472 171.986 237.438 172 237.387 172H236.392C236.319 172 236.268 171.974 236.239 171.923L234.352 169.382L233.927 169.841V171.872C233.927 171.957 233.888 172 233.808 172ZM241.563 171.396H240.79C240.722 171.396 240.674 171.371 240.645 171.32L239.498 169.611C239.464 169.555 239.464 169.498 239.498 169.441L240.645 167.733C240.674 167.682 240.722 167.656 240.79 167.656H241.563C241.677 167.656 241.702 167.707 241.64 167.809L240.475 169.526L241.64 171.243C241.702 171.345 241.677 171.396 241.563 171.396ZM243.34 171.396H242.566C242.498 171.396 242.45 171.371 242.422 171.32L241.274 169.611C241.24 169.555 241.24 169.498 241.274 169.441L242.422 167.733C242.45 167.682 242.498 167.656 242.566 167.656H243.34C243.453 167.656 243.479 167.707 243.416 167.809L242.252 169.526L243.416 171.243C243.479 171.345 243.453 171.396 243.34 171.396ZM249.332 173.114H248.601C248.516 173.114 248.474 173.071 248.474 172.986V172H244.589C244.51 172 244.47 171.957 244.47 171.872V166.05C244.47 165.965 244.51 165.922 244.589 165.922H245.371C245.451 165.922 245.49 165.965 245.49 166.05V171.048H247.836V166.05C247.836 165.965 247.879 165.922 247.964 165.922H248.737C248.822 165.922 248.865 165.965 248.865 166.05V171.048H249.332C249.412 171.048 249.451 171.088 249.451 171.167V172.986C249.451 173.071 249.412 173.114 249.332 173.114ZM251.288 172H250.446C250.361 172 250.319 171.957 250.319 171.872V167.716C250.319 167.637 250.361 167.597 250.446 167.597H251.169C251.254 167.597 251.296 167.637 251.296 167.716V169.45C251.296 169.784 251.291 170.167 251.279 170.597H251.288C251.452 170.235 251.721 169.745 252.095 169.127L252.945 167.673C252.991 167.622 253.042 167.597 253.098 167.597H253.948C254.033 167.597 254.076 167.637 254.076 167.716V171.872C254.076 171.957 254.033 172 253.948 172H253.226C253.141 172 253.098 171.957 253.098 171.872V170.164C253.098 169.83 253.104 169.458 253.115 169.05H253.107C252.993 169.311 252.727 169.79 252.308 170.487L251.441 171.915C251.407 171.972 251.356 172 251.288 172ZM258.184 173.615H257.453C257.374 173.615 257.334 173.573 257.334 173.488V172H256.722C256.235 172 255.827 171.853 255.498 171.558C255.17 171.263 255.005 170.83 255.005 170.257V169.331C255.005 168.781 255.175 168.356 255.515 168.056C255.855 167.75 256.286 167.597 256.807 167.597H257.334V166.05C257.334 165.965 257.374 165.922 257.453 165.922H258.184C258.264 165.922 258.303 165.965 258.303 166.05V167.597H258.907C259.428 167.597 259.847 167.75 260.165 168.056C260.482 168.356 260.641 168.781 260.641 169.331V170.257C260.641 170.824 260.479 171.258 260.156 171.558C259.833 171.853 259.445 172 258.992 172H258.303V173.488C258.303 173.573 258.264 173.615 258.184 173.615ZM255.974 170.24C255.974 170.552 256.048 170.779 256.195 170.92C256.343 171.056 256.575 171.124 256.892 171.124H257.334V168.464H256.85C256.266 168.464 255.974 168.761 255.974 169.356V170.24ZM258.303 171.124H258.745C259.063 171.124 259.295 171.056 259.442 170.92C259.59 170.779 259.663 170.552 259.663 170.24V169.356C259.663 168.761 259.371 168.464 258.788 168.464H258.303V171.124ZM261.651 167.801C262.173 167.597 262.745 167.495 263.368 167.495C263.958 167.495 264.431 167.651 264.788 167.962C265.145 168.274 265.323 168.739 265.323 169.356V170.291C265.323 170.841 265.148 171.28 264.796 171.609C264.445 171.938 263.994 172.102 263.445 172.102C263.133 172.102 262.833 172.04 262.544 171.915V173.488C262.544 173.573 262.501 173.615 262.416 173.615H261.685C261.6 173.615 261.558 173.573 261.558 173.488V167.937C261.558 167.869 261.589 167.824 261.651 167.801ZM263.36 171.235C264 171.235 264.32 170.923 264.32 170.3V169.348C264.32 168.997 264.238 168.744 264.074 168.591C263.909 168.438 263.666 168.362 263.343 168.362C263.003 168.362 262.736 168.402 262.544 168.481V170.997C262.776 171.156 263.048 171.235 263.36 171.235ZM269.971 170.385C269.971 170.912 269.795 171.331 269.444 171.643C269.093 171.949 268.622 172.102 268.033 172.102C267.444 172.102 266.973 171.949 266.622 171.643C266.271 171.331 266.095 170.912 266.095 170.385V169.246C266.095 168.713 266.271 168.288 266.622 167.971C266.973 167.654 267.444 167.495 268.033 167.495C268.622 167.495 269.093 167.654 269.444 167.971C269.795 168.288 269.971 168.713 269.971 169.246V170.385ZM267.09 170.385C267.09 170.94 267.404 171.218 268.033 171.218C268.339 171.218 268.571 171.147 268.73 171.005C268.894 170.864 268.977 170.657 268.977 170.385V169.246C268.977 168.968 268.894 168.756 268.73 168.608C268.566 168.455 268.333 168.379 268.033 168.379C267.727 168.379 267.492 168.453 267.328 168.6C267.169 168.747 267.09 168.963 267.09 169.246V170.385ZM272.8 172H271.024C270.939 172 270.896 171.957 270.896 171.872V167.716C270.896 167.637 270.939 167.597 271.024 167.597H272.8C273.288 167.597 273.673 167.707 273.956 167.928C274.245 168.144 274.39 168.427 274.39 168.778C274.39 169.169 274.217 169.467 273.871 169.671C274.319 169.864 274.543 170.223 274.543 170.751C274.543 171.124 274.384 171.428 274.067 171.66C273.75 171.887 273.327 172 272.8 172ZM271.882 168.379V169.382H272.758C272.956 169.382 273.112 169.339 273.225 169.254C273.344 169.164 273.404 169.036 273.404 168.872C273.404 168.543 273.186 168.379 272.749 168.379H271.882ZM271.882 170.104V171.218H272.758C273.285 171.218 273.548 171.028 273.548 170.648C273.548 170.286 273.285 170.104 272.758 170.104H271.882ZM279.143 170.385C279.143 170.912 278.968 171.331 278.616 171.643C278.265 171.949 277.795 172.102 277.205 172.102C276.616 172.102 276.146 171.949 275.794 171.643C275.443 171.331 275.267 170.912 275.267 170.385V169.246C275.267 168.713 275.443 168.288 275.794 167.971C276.146 167.654 276.616 167.495 277.205 167.495C277.795 167.495 278.265 167.654 278.616 167.971C278.968 168.288 279.143 168.713 279.143 169.246V170.385ZM276.262 170.385C276.262 170.94 276.576 171.218 277.205 171.218C277.511 171.218 277.744 171.147 277.902 171.005C278.067 170.864 278.149 170.657 278.149 170.385V169.246C278.149 168.968 278.067 168.756 277.902 168.608C277.738 168.455 277.506 168.379 277.205 168.379C276.899 168.379 276.664 168.453 276.5 168.6C276.341 168.747 276.262 168.963 276.262 169.246V170.385ZM281.038 172H280.196C280.111 172 280.069 171.957 280.069 171.872V167.716C280.069 167.637 280.111 167.597 280.196 167.597H280.919C281.004 167.597 281.046 167.637 281.046 167.716V169.45C281.046 169.784 281.041 170.167 281.029 170.597H281.038C281.202 170.235 281.471 169.745 281.845 169.127L282.695 167.673C282.741 167.622 282.792 167.597 282.848 167.597H283.698C283.783 167.597 283.826 167.637 283.826 167.716V171.872C283.826 171.957 283.783 172 283.698 172H282.976C282.891 172 282.848 171.957 282.848 171.872V170.164C282.848 169.83 282.854 169.458 282.865 169.05H282.857C282.743 169.311 282.477 169.79 282.058 170.487L281.191 171.915C281.157 171.972 281.106 172 281.038 172ZM283.273 165.88C283.228 166.231 283.086 166.512 282.848 166.721C282.616 166.925 282.301 167.027 281.905 167.027C281.508 167.027 281.194 166.925 280.961 166.721C280.729 166.517 280.59 166.243 280.545 165.897C280.533 165.812 280.57 165.764 280.655 165.752L281.131 165.684C281.205 165.679 281.25 165.713 281.267 165.786C281.347 166.126 281.559 166.296 281.905 166.296C282.25 166.296 282.463 166.126 282.542 165.786C282.559 165.713 282.607 165.679 282.687 165.684L283.154 165.752C283.239 165.764 283.279 165.806 283.273 165.88ZM286.862 167.597H290.228C290.313 167.597 290.355 167.637 290.355 167.716V171.872C290.355 171.957 290.313 172 290.228 172H289.497C289.412 172 289.369 171.957 289.369 171.872V168.464H287.72V171.872C287.72 171.957 287.681 172 287.601 172H286.862C286.777 172 286.734 171.957 286.734 171.872V167.716C286.734 167.637 286.777 167.597 286.862 167.597ZM294.102 170.81V167.716C294.102 167.637 294.144 167.597 294.229 167.597H294.96C295.045 167.597 295.088 167.637 295.088 167.716V171.72C295.088 173.04 294.456 173.7 293.192 173.7C292.512 173.7 291.957 173.522 291.526 173.165C291.464 173.119 291.455 173.063 291.501 172.995L291.866 172.476C291.912 172.402 291.965 172.388 292.028 172.434C292.407 172.694 292.793 172.825 293.184 172.825C293.501 172.825 293.739 172.74 293.898 172.57C294.056 172.405 294.127 172.122 294.11 171.72C293.782 171.821 293.478 171.872 293.201 171.872C292.713 171.872 292.288 171.722 291.926 171.422C291.563 171.116 291.382 170.688 291.382 170.138V167.716C291.382 167.637 291.424 167.597 291.509 167.597H292.249C292.328 167.597 292.368 167.637 292.368 167.716V170.096C292.368 170.402 292.458 170.626 292.64 170.767C292.821 170.909 293.053 170.98 293.337 170.98C293.626 170.986 293.881 170.929 294.102 170.81ZM297.932 172H297.201C297.116 172 297.074 171.957 297.074 171.872V168.464H295.884C295.799 168.464 295.756 168.421 295.756 168.336V167.716C295.756 167.637 295.799 167.597 295.884 167.597H299.241C299.326 167.597 299.369 167.637 299.369 167.716V168.336C299.369 168.421 299.326 168.464 299.241 168.464H298.06V171.872C298.06 171.957 298.017 172 297.932 172ZM301.927 172H300.168C300.083 172 300.04 171.957 300.04 171.872V167.716C300.04 167.637 300.083 167.597 300.168 167.597H300.899C300.984 167.597 301.026 167.637 301.026 167.716V169.025H301.927C302.449 169.025 302.868 169.158 303.185 169.424C303.508 169.691 303.67 170.059 303.67 170.529C303.67 171.034 303.514 171.405 303.202 171.643C302.896 171.881 302.471 172 301.927 172ZM301.026 169.832V171.184H301.757C302.369 171.184 302.675 170.96 302.675 170.512C302.681 170.28 302.607 170.11 302.454 170.002C302.301 169.889 302.069 169.832 301.757 169.832H301.026ZM305.095 171.396H304.321C304.208 171.396 304.182 171.345 304.245 171.243L305.409 169.526L304.245 167.809C304.182 167.707 304.208 167.656 304.321 167.656H305.095C305.163 167.656 305.211 167.682 305.239 167.733L306.387 169.441C306.421 169.498 306.421 169.555 306.387 169.611L305.239 171.32C305.211 171.371 305.163 171.396 305.095 171.396ZM306.871 171.396H306.098C305.984 171.396 305.959 171.345 306.021 171.243L307.186 169.526L306.021 167.809C305.959 167.707 305.984 167.656 306.098 167.656H306.871C306.939 167.656 306.987 167.682 307.016 167.733L308.163 169.441C308.197 169.498 308.197 169.555 308.163 169.611L307.016 171.32C306.987 171.371 306.939 171.396 306.871 171.396Z" fill="white"/>
<g opacity="0.4">
<g clip-path="url(#clip0_435_919)">
<path d="M204.02 154.802C199.2 154.802 195.292 158.713 195.292 163.537C195.292 168.361 199.2 172.272 204.02 172.272C208.84 172.272 212.748 168.361 212.748 163.537C212.748 158.713 208.84 154.802 204.02 154.802ZM204.02 171.18C199.802 171.18 196.383 167.758 196.383 163.537C196.383 159.316 199.802 155.894 204.02 155.894C208.238 155.894 211.657 159.316 211.657 163.537C211.657 167.758 208.238 171.18 204.02 171.18Z" fill="#F2F2F2"/>
<path d="M206.794 163.155C207.648 162.344 207.658 161.017 206.819 160.192C206.411 159.792 205.855 159.567 205.275 159.566H205.161V159.125C205.161 158.882 204.956 158.684 204.704 158.684C204.452 158.684 204.248 158.882 204.248 159.125V159.566H203.563V159.125C203.563 158.882 203.359 158.684 203.107 158.684C202.855 158.684 202.651 158.882 202.651 159.125V159.566H200.597C200.345 159.566 200.141 159.764 200.141 160.008C200.141 160.251 200.345 160.449 200.597 160.449H200.825V166.625H200.597C200.345 166.625 200.141 166.823 200.141 167.066C200.141 167.31 200.345 167.508 200.597 167.508H202.651V167.949C202.651 168.192 202.855 168.39 203.107 168.39C203.359 168.39 203.563 168.192 203.563 167.949V167.508H204.248V167.949C204.248 168.192 204.452 168.39 204.704 168.39C204.956 168.39 205.161 168.192 205.161 167.949V167.508H205.713C206.92 167.506 207.898 166.561 207.899 165.394V164.988C207.899 164.23 207.477 163.53 206.794 163.155ZM205.275 160.449C205.968 160.449 206.53 160.992 206.53 161.662C206.53 162.332 205.968 162.875 205.275 162.875H201.738V160.449H205.275ZM206.986 165.394C206.986 166.074 206.416 166.625 205.713 166.625H201.738V163.758H205.713C206.416 163.758 206.986 164.309 206.986 164.989L206.986 165.394Z" fill="#F2F2F2"/>
<path d="M204.02 154.802C199.2 154.802 195.292 158.713 195.292 163.537C195.292 168.361 199.2 172.272 204.02 172.272C208.84 172.272 212.748 168.361 212.748 163.537C212.748 158.713 208.84 154.802 204.02 154.802ZM204.02 171.18C199.802 171.18 196.383 167.758 196.383 163.537C196.383 159.316 199.802 155.894 204.02 155.894C208.238 155.894 211.657 159.316 211.657 163.537C211.657 167.758 208.238 171.18 204.02 171.18Z" stroke="#F2F2F2" stroke-width="0.138208"/>
<path d="M206.794 163.155C207.648 162.344 207.658 161.017 206.819 160.192C206.411 159.792 205.855 159.567 205.275 159.566H205.161V159.125C205.161 158.882 204.956 158.684 204.704 158.684C204.452 158.684 204.248 158.882 204.248 159.125V159.566H203.563V159.125C203.563 158.882 203.359 158.684 203.107 158.684C202.855 158.684 202.651 158.882 202.651 159.125V159.566H200.597C200.345 159.566 200.141 159.764 200.141 160.008C200.141 160.251 200.345 160.449 200.597 160.449H200.825V166.625H200.597C200.345 166.625 200.141 166.823 200.141 167.066C200.141 167.31 200.345 167.508 200.597 167.508H202.651V167.949C202.651 168.192 202.855 168.39 203.107 168.39C203.359 168.39 203.563 168.192 203.563 167.949V167.508H204.248V167.949C204.248 168.192 204.452 168.39 204.704 168.39C204.956 168.39 205.161 168.192 205.161 167.949V167.508H205.713C206.92 167.506 207.898 166.561 207.899 165.394V164.988C207.899 164.23 207.477 163.53 206.794 163.155ZM205.275 160.449C205.968 160.449 206.53 160.992 206.53 161.662C206.53 162.332 205.968 162.875 205.275 162.875H201.738V160.449H205.275ZM206.986 165.394C206.986 166.074 206.416 166.625 205.713 166.625H201.738V163.758H205.713C206.416 163.758 206.986 164.309 206.986 164.989L206.986 165.394Z" stroke="#F2F2F2" stroke-width="0.138208"/>
</g>
</g>
<defs>
<filter id="filter0_f_435_919" x="-11.8781" y="0.0213165" width="387.73" height="234.036" filterUnits="userSpaceOnUse" color-interpolation-filters="sRGB">
<feFlood flood-opacity="0" result="BackgroundImageFix"/>
<feBlend mode="normal" in="SourceGraphic" in2="BackgroundImageFix" result="shape"/>
<feGaussianBlur stdDeviation="28.1944" result="effect1_foregroundBlur_435_919"/>
</filter>
<filter id="filter1_d_435_919" x="208.854" y="58.2358" width="128.292" height="38.2925" filterUnits="userSpaceOnUse" color-interpolation-filters="sRGB">
<feFlood flood-opacity="0" result="BackgroundImageFix"/>
<feColorMatrix in="SourceAlpha" type="matrix" values="0 0 0 0 0 0 0 0 0 0 0 0 0 0 0 0 0 0 127 0" result="hardAlpha"/>
<feOffset dy="1.38208"/>
<feGaussianBlur stdDeviation="2.07312"/>
<feComposite in2="hardAlpha" operator="out"/>
<feColorMatrix type="matrix" values="0 0 0 0 0 0 0 0 0 0 0 0 0 0 0 0 0 0 0.05 0"/>
<feBlend mode="normal" in2="BackgroundImageFix" result="effect1_dropShadow_435_919"/>
<feBlend mode="normal" in="SourceGraphic" in2="effect1_dropShadow_435_919" result="shape"/>
</filter>
<filter id="filter2_d_435_919" x="91.8538" y="100.236" width="128.292" height="38.2925" filterUnits="userSpaceOnUse" color-interpolation-filters="sRGB">
<feFlood flood-opacity="0" result="BackgroundImageFix"/>
<feColorMatrix in="SourceAlpha" type="matrix" values="0 0 0 0 0 0 0 0 0 0 0 0 0 0 0 0 0 0 127 0" result="hardAlpha"/>
<feOffset dy="1.38208"/>
<feGaussianBlur stdDeviation="2.07312"/>
<feComposite in2="hardAlpha" operator="out"/>
<feColorMatrix type="matrix" values="0 0 0 0 0 0 0 0 0 0 0 0 0 0 0 0 0 0 0.05 0"/>
<feBlend mode="normal" in2="BackgroundImageFix" result="effect1_dropShadow_435_919"/>
<feBlend mode="normal" in="SourceGraphic" in2="effect1_dropShadow_435_919" result="shape"/>
</filter>
<filter id="filter3_d_435_919" x="30.8538" y="154.236" width="128.292" height="38.2925" filterUnits="userSpaceOnUse" color-interpolation-filters="sRGB">
<feFlood flood-opacity="0" result="BackgroundImageFix"/>
<feColorMatrix in="SourceAlpha" type="matrix" values="0 0 0 0 0 0 0 0 0 0 0 0 0 0 0 0 0 0 127 0" result="hardAlpha"/>
<feOffset dy="1.38208"/>
<feGaussianBlur stdDeviation="2.07312"/>
<feComposite in2="hardAlpha" operator="out"/>
<feColorMatrix type="matrix" values="0 0 0 0 0 0 0 0 0 0 0 0 0 0 0 0 0 0 0.05 0"/>
<feBlend mode="normal" in2="BackgroundImageFix" result="effect1_dropShadow_435_919"/>
<feBlend mode="normal" in="SourceGraphic" in2="effect1_dropShadow_435_919" result="shape"/>
</filter>
<filter id="filter4_d_435_919" x="180.854" y="144.236" width="147.292" height="42.2925" filterUnits="userSpaceOnUse" color-interpolation-filters="sRGB">
<feFlood flood-opacity="0" result="BackgroundImageFix"/>
<feColorMatrix in="SourceAlpha" type="matrix" values="0 0 0 0 0 0 0 0 0 0 0 0 0 0 0 0 0 0 127 0" result="hardAlpha"/>
<feOffset dy="1.38208"/>
<feGaussianBlur stdDeviation="2.07312"/>
<feComposite in2="hardAlpha" operator="out"/>
<feColorMatrix type="matrix" values="0 0 0 0 0 0 0 0 0 0 0 0 0 0 0 0 0 0 0.1 0"/>
<feBlend mode="normal" in2="BackgroundImageFix" result="effect1_dropShadow_435_919"/>
<feBlend mode="normal" in="SourceGraphic" in2="effect1_dropShadow_435_919" result="shape"/>
</filter>
<linearGradient id="paint0_linear_435_919" x1="106.19" y1="95.0482" x2="196.002" y2="284.196" gradientUnits="userSpaceOnUse">
<stop stop-color="#50CC91"/>
<stop offset="1" stop-color="#0094FF"/>
</linearGradient>
<linearGradient id="paint1_linear_435_919" x1="196.765" y1="96.0001" x2="227.524" y2="17.124" gradientUnits="userSpaceOnUse">
<stop stop-color="#50CC91"/>
<stop offset="1" stop-color="#0094FF"/>
</linearGradient>
<linearGradient id="paint2_linear_435_919" x1="229.665" y1="84.9616" x2="240.317" y2="48.7148" gradientUnits="userSpaceOnUse">
<stop stop-color="#50CC91"/>
<stop offset="1" stop-color="#0094FF"/>
</linearGradient>
<linearGradient id="paint3_linear_435_919" x1="79.765" y1="138" x2="110.524" y2="59.124" gradientUnits="userSpaceOnUse">
<stop stop-color="#50CC91"/>
<stop offset="1" stop-color="#0094FF"/>
</linearGradient>
<linearGradient id="paint4_linear_435_919" x1="119.018" y1="126.459" x2="131.122" y2="91.2414" gradientUnits="userSpaceOnUse">
<stop stop-color="#50CC91"/>
<stop offset="1" stop-color="#0094FF"/>
</linearGradient>
<linearGradient id="paint5_linear_435_919" x1="18.765" y1="192" x2="49.5241" y2="113.124" gradientUnits="userSpaceOnUse">
<stop stop-color="#50CC91"/>
<stop offset="1" stop-color="#0094FF"/>
</linearGradient>
<linearGradient id="paint6_linear_435_919" x1="45.5825" y1="181.167" x2="55.2802" y2="144.343" gradientUnits="userSpaceOnUse">
<stop stop-color="#50CC91"/>
<stop offset="1" stop-color="#0094FF"/>
</linearGradient>
<linearGradient id="paint7_linear_435_919" x1="166.194" y1="186.667" x2="200.496" y2="96.7671" gradientUnits="userSpaceOnUse">
<stop stop-color="#50CC91"/>
<stop offset="1" stop-color="#0094FF"/>
</linearGradient>
<clipPath id="clip0_435_919">
<rect x="194.833" y="154.342" width="18.3744" height="18.39" rx="9.18718" fill="white"/>
</clipPath>
</defs>
</svg>
