<svg width="144" height="41" viewBox="0 0 144 41" fill="none" xmlns="http://www.w3.org/2000/svg">
<g clip-path="url(#clip0_387_341)">
<path d="M116.624 0C116.62 0.553058 116.616 1.10186 116.616 1.65492C116.62 4.10114 116.624 6.54736 116.628 8.99357C116.641 13.0181 116.65 17.0469 116.662 21.0715C116.662 21.114 116.662 21.1566 116.662 21.2162C114.814 21.2162 112.97 21.2162 111.092 21.2162C111.092 17.4979 111.092 13.7754 111.092 10.0529C111.075 10.0486 111.058 10.0444 111.04 10.0444C110.699 10.6102 110.362 11.176 110.02 11.7418C108.577 14.1583 107.13 16.5747 105.692 18.9954C105.619 19.1145 105.542 19.1528 105.406 19.1528C104.637 19.1443 103.869 19.1443 103.1 19.1528C102.96 19.1528 102.891 19.106 102.819 18.9912C101.056 16.111 99.2884 13.2351 97.5211 10.3592C97.5083 10.3422 97.4955 10.3252 97.4613 10.2784C97.4613 13.9456 97.4613 17.5787 97.4613 21.2247C95.6044 21.2247 93.7731 21.2247 91.9247 21.2247C91.9204 21.1779 91.9119 21.1226 91.9119 21.0673C91.9119 14.1115 91.9119 7.15572 91.9119 0.199952C91.9119 0.1489 91.9161 0.102103 91.9204 0.0510515C93.5767 0.0510515 95.2287 0.0510515 96.885 0.0510515C99.3695 4.11815 101.854 8.181 104.347 12.2566C104.377 12.2056 104.398 12.1758 104.415 12.146C105.892 9.67001 107.374 7.18975 108.851 4.71376C109.777 3.16094 110.707 1.60387 111.634 0.0510515C113.188 0.0510515 114.746 0.0510515 116.3 0.0467972C116.381 0.0467972 116.458 0.0212715 116.534 0.00425429C116.569 0 116.594 0 116.624 0Z" fill="#FAFAFA"/>
<path d="M63.0077 0C63.0034 0.0765772 62.9991 0.153155 62.9991 0.229732C62.9991 7.15572 62.9991 14.086 62.9991 21.0119C62.9991 21.0758 62.9991 21.1396 62.9991 21.2162C61.0227 21.2162 59.0548 21.2162 57.0698 21.2162C57.0698 17.1065 57.0698 12.9926 57.0698 8.87871C57.057 8.87445 57.0441 8.8702 57.0271 8.86169C56.8264 9.14673 56.6215 9.43176 56.4209 9.7168C53.7486 13.5074 51.0763 17.3022 48.3998 21.0928C48.3571 21.1566 48.2589 21.2247 48.1906 21.2247C46.355 21.2332 44.5194 21.2289 42.6838 21.2289C42.671 21.2289 42.6582 21.2204 42.6241 21.2119C42.6241 21.1438 42.6241 21.0673 42.6241 20.9907C42.6241 14.086 42.6241 7.17699 42.6241 0.272275C42.6241 0.195697 42.6326 0.11912 42.6412 0.0425429C44.6048 0.0425429 46.5727 0.0425429 48.5364 0.0467972C48.5407 0.131883 48.5492 0.216969 48.5492 0.302055C48.5492 4.27131 48.5492 8.24056 48.5492 12.2098C48.5492 12.2779 48.5492 12.346 48.5492 12.4651C48.6218 12.3715 48.6645 12.3204 48.7029 12.2651C51.2514 8.65323 53.7998 5.04559 56.3441 1.4337C56.677 0.96147 57.0015 0.480735 57.3302 0.00425429C59.2212 0 61.1166 0 63.0077 0Z" fill="#FAFAFA"/>
<path d="M70.222 0.0418719C70.222 0.0293103 70.222 0.0125616 70.222 0C75.9294 0 81.6325 0 87.3399 0C87.3442 0.00837438 87.3485 0.0167488 87.3485 0.0251231C87.3485 0.0293103 87.3442 0.0334975 87.3442 0.0376847C87.246 0.0376847 87.1436 0.0418719 87.0454 0.0418719C81.4404 0.0418719 75.8312 0.0418719 70.222 0.0418719Z" fill="#FAFAFA"/>
<path d="M128.457 0.0460591C128.453 0.0293103 128.453 0.0167488 128.449 0C130.425 0 132.406 0 134.382 0C134.391 0.0125616 134.391 0.0251231 134.387 0.0376847C134.288 0.0376847 134.186 0.0418719 134.088 0.0418719C132.21 0.0418719 130.331 0.0460591 128.457 0.0460591Z" fill="#FAFAFA"/>
<path d="M48.5363 0C48.5363 0.0125616 48.5363 0.0293103 48.5363 0.0418719C46.5727 0.0418719 44.6048 0.0418719 42.6411 0.0376847C42.6411 0.0251231 42.6454 0.0125616 42.6454 0C44.609 0 46.5727 0 48.5363 0Z" fill="#FAFAFA"/>
<path d="M96.9021 0C96.8978 0.0167488 96.8936 0.0293103 96.8893 0.0460591C95.233 0.0460591 93.581 0.0460591 91.9247 0.0460591C91.9204 0.0293103 91.9119 0.0125616 91.9076 0C93.5724 0 95.2373 0 96.9021 0Z" fill="#FAFAFA"/>
<path d="M111.638 0.0460591C111.634 0.0293103 111.634 0.0167488 111.63 0C113.264 0 114.904 0 116.539 0C116.462 0.0125616 116.381 0.0418719 116.304 0.0418719C114.746 0.0418719 113.192 0.0460591 111.638 0.0460591Z" fill="#FAFAFA"/>
<path d="M70.222 0.0413637C75.8312 0.0413637 81.4362 0.0413637 87.0454 0.0413637C87.1436 0.0413637 87.246 0.0371094 87.3442 0.0371094C87.3485 0.100924 87.3613 0.164738 87.3613 0.224298C87.3613 7.16305 87.3613 14.1061 87.3613 21.0448C87.3613 21.0959 87.3613 21.1426 87.3613 21.2107C85.3891 21.2107 83.4254 21.2107 81.4362 21.2107C81.4362 15.7397 81.4362 10.2644 81.4362 4.78064C79.3914 4.78064 77.3637 4.78064 75.3232 4.78064C75.3062 5.25287 75.2891 5.71659 75.2677 6.18031C75.1952 7.83523 75.1482 9.4944 75.0372 11.1493C74.9092 13.0595 74.6744 14.9569 74.1493 16.8033C73.8761 17.7605 73.4706 18.6581 72.8985 19.4792C72.0789 20.6492 70.9434 21.3001 69.539 21.5085C68.2327 21.7042 66.9478 21.534 65.6586 21.2277C65.7696 19.5983 65.8806 17.9732 65.9916 16.3353C66.1581 16.3566 66.3075 16.3736 66.4612 16.3906C67.5454 16.514 68.3096 16.1098 68.8304 15.1484C69.2572 14.3571 69.4579 13.5019 69.5859 12.6213C69.8762 10.626 69.9061 8.61376 69.9787 6.60148C70.0555 4.46157 70.1366 2.32592 70.2135 0.18601C70.2135 0.139212 70.2177 0.0924152 70.222 0.0413637Z" fill="#FAFAFA"/>
<path d="M128.457 0.045618C130.336 0.045618 132.214 0.0413637 134.092 0.0413637C134.19 0.0413637 134.293 0.0371094 134.391 0.0371094C134.843 1.04112 135.296 2.04514 135.744 3.04915C137.558 7.12901 139.368 11.2089 141.178 15.2887C142.041 17.2245 142.903 19.1602 143.765 21.0959C143.778 21.1256 143.787 21.1597 143.804 21.2107C141.72 21.2107 139.65 21.2107 137.55 21.2107C137.383 20.8023 137.208 20.3726 137.033 19.9429C136.675 19.0538 136.312 18.1646 135.958 17.2712C135.906 17.1394 135.842 17.0968 135.693 17.0968C132.82 17.1011 129.943 17.1011 127.07 17.0968C126.929 17.0968 126.865 17.1351 126.814 17.2712C126.31 18.539 125.794 19.7983 125.281 21.0618C125.243 21.1512 125.217 21.232 125.081 21.2277C123.087 21.2235 121.098 21.2235 119.074 21.2235C119.19 20.9555 119.296 20.7045 119.407 20.4577C122.016 14.5698 124.628 8.67758 127.236 2.78964C127.638 1.87922 128.047 0.960291 128.457 0.045618ZM131.381 5.89527C130.459 8.18408 129.559 10.4218 128.649 12.6724C130.476 12.6724 132.278 12.6724 134.113 12.6724C133.204 10.4176 132.299 8.17557 131.381 5.89527Z" fill="#FAFAFA"/>
<path d="M116.449 25.8701C116.449 27.0145 116.449 28.1462 116.449 29.2991C116.658 29.2991 116.859 29.2991 117.077 29.2991C117.077 29.9117 117.077 30.5115 117.077 31.1242C116.778 31.1242 116.479 31.1242 116.154 31.1242C116.154 30.8179 116.154 30.5116 116.154 30.184C115.032 30.184 113.926 30.184 112.803 30.184C112.803 30.4945 112.803 30.8008 112.803 31.1242C112.488 31.1242 112.193 31.1242 111.881 31.1242C111.881 30.5328 111.881 29.9372 111.881 29.3289C111.898 29.3246 111.924 29.3161 111.95 29.3161C112.334 29.3033 112.526 29.1927 112.607 28.8141C112.709 28.3376 112.774 27.8526 112.82 27.3676C112.867 26.8741 112.867 26.3806 112.885 25.8744C114.076 25.8701 115.249 25.8701 116.449 25.8701ZM113.358 29.2991C114.046 29.2991 114.733 29.2991 115.424 29.2991C115.424 28.4355 115.424 27.5803 115.424 26.7252C114.874 26.7252 114.327 26.7252 113.785 26.7252C113.704 27.5974 113.828 28.495 113.358 29.2991Z" fill="#FAFAFA"/>
<path d="M69.6585 38.1394C69.6585 38.5138 69.6585 38.8414 69.6585 39.1732C69.6585 39.5051 69.6585 39.8369 69.6585 40.1857C69.3255 40.1857 68.9968 40.1857 68.6553 40.1857C68.6553 38.2415 68.6553 36.2931 68.6553 34.3361C68.9712 34.3361 69.2786 34.3361 69.6073 34.3361C69.6073 34.502 69.6073 34.6637 69.6073 34.8764C70.1281 34.3148 70.7556 34.217 71.4258 34.3063C71.9722 34.3786 72.4332 34.6339 72.779 35.0721C73.4535 35.9187 73.3681 37.3524 72.6083 38.0969C71.9039 38.7946 70.4739 38.9605 69.6585 38.1394ZM70.9135 37.8289C71.6819 37.8331 72.207 37.2886 72.207 36.4845C72.207 35.689 71.6905 35.1401 70.9349 35.1401C70.1708 35.1401 69.6372 35.689 69.6372 36.4845C69.6372 37.2715 70.1622 37.8246 70.9135 37.8289Z" fill="#FAFAFA"/>
<path d="M102.785 29.6522C102.785 30.3712 102.785 31.0391 102.785 31.7198C102.443 31.7198 102.119 31.7198 101.781 31.7198C101.781 29.7756 101.781 27.8229 101.781 25.8659C102.089 25.8659 102.392 25.8659 102.721 25.8659C102.721 26.0318 102.721 26.1977 102.721 26.4189C103.254 25.8361 103.89 25.7425 104.569 25.8361C105.107 25.9084 105.564 26.1637 105.905 26.5934C106.601 27.474 106.494 28.8992 105.696 29.6607C104.992 30.3329 103.532 30.469 102.785 29.6522ZM104.065 26.6657C103.301 26.6657 102.759 27.2187 102.759 28.0058C102.759 28.7886 103.288 29.3501 104.035 29.3544C104.804 29.3587 105.329 28.8141 105.333 28.01C105.333 27.2187 104.817 26.6699 104.065 26.6657Z" fill="#FAFAFA"/>
<path d="M79.1737 29.3033C79.8781 29.3033 80.5525 29.3033 81.2398 29.3033C81.2398 28.1589 81.2398 27.0188 81.2398 25.8701C81.5813 25.8701 81.9058 25.8701 82.2515 25.8701C82.2515 27.006 82.2515 28.1504 82.2515 29.3076C82.4778 29.3076 82.6784 29.3076 82.8961 29.3076C82.8961 29.9287 82.8961 30.5328 82.8961 31.1497C82.593 31.1497 82.2899 31.1497 81.9698 31.1497C81.9698 30.8306 81.9698 30.5073 81.9698 30.1712C80.6934 30.1712 79.4384 30.1712 78.1748 30.1712C78.1748 28.7333 78.1748 27.3123 78.1748 25.8744C78.4992 25.8744 78.8279 25.8744 79.1737 25.8744C79.1737 27.0103 79.1737 28.1504 79.1737 29.3033Z" fill="#FAFAFA"/>
<path d="M65.0652 29.2991C65.0652 28.1547 65.0652 27.023 65.0652 25.8744C65.4025 25.8744 65.7312 25.8744 66.077 25.8744C66.077 27.0145 66.077 28.1547 66.077 29.3076C66.2947 29.3076 66.4996 29.3076 66.7173 29.3076C66.7173 29.9287 66.7173 30.5328 66.7173 31.1497C66.4185 31.1497 66.1154 31.1497 65.7909 31.1497C65.7909 30.8264 65.7909 30.5073 65.7909 30.167C64.5146 30.167 63.2595 30.167 61.996 30.167C61.996 28.7247 61.996 27.3038 61.996 25.8701C62.3247 25.8701 62.6491 25.8701 62.9906 25.8701C62.9906 27.006 62.9906 28.1419 62.9906 29.2948C63.6822 29.2991 64.3609 29.2991 65.0652 29.2991Z" fill="#FAFAFA"/>
<path d="M67.6394 30.1675C67.6394 28.7253 67.6394 27.3044 67.6394 25.8707C67.9724 25.8707 68.2968 25.8707 68.6383 25.8707C68.6383 26.7938 68.6383 27.717 68.6383 28.704C68.9201 28.3679 69.1634 28.0829 69.4067 27.7936C69.919 27.1852 70.4269 26.5811 70.9435 25.977C70.9904 25.926 71.063 25.8707 71.127 25.8664C71.396 25.8536 71.6649 25.8622 71.9466 25.8622C71.9466 27.2959 71.9466 28.7168 71.9466 30.1547C71.6222 30.1547 71.2935 30.1547 70.9477 30.1547C70.9477 29.2316 70.9477 28.3084 70.9477 27.3256C70.5337 27.8191 70.1537 28.2743 69.7781 28.7253C69.4067 29.172 69.0353 29.6187 68.6554 30.0569C68.6042 30.1164 68.506 30.159 68.4291 30.1632C68.1687 30.176 67.9083 30.1675 67.6394 30.1675Z" fill="#FAFAFA"/>
<path d="M88.134 25.858C88.134 27.3044 88.134 28.7254 88.134 30.1548C87.801 30.1548 87.4766 30.1548 87.135 30.1548C87.135 29.2316 87.135 28.3042 87.135 27.3172C86.8533 27.649 86.61 27.9341 86.3709 28.2234C85.8672 28.8275 85.3635 29.4316 84.8512 30.0272C84.7872 30.0995 84.6677 30.1506 84.5695 30.1548C84.3262 30.1718 84.0743 30.1591 83.8224 30.1591C83.8224 28.7169 83.8224 27.2959 83.8224 25.8622C84.1554 25.8622 84.4798 25.8622 84.8214 25.8622C84.8214 26.7812 84.8214 27.7086 84.8214 28.6913C85.0988 28.3638 85.3379 28.0787 85.5769 27.7979C86.0892 27.1896 86.5972 26.5812 87.1137 25.9814C87.1735 25.9133 87.2845 25.8622 87.3741 25.8537C87.6174 25.8495 87.8693 25.858 88.134 25.858Z" fill="#FAFAFA"/>
<path d="M118.003 30.168C118.003 28.7215 118.003 27.3006 118.003 25.8712C118.336 25.8712 118.66 25.8712 119.006 25.8712C119.006 26.7986 119.006 27.7218 119.006 28.7045C119.335 28.3131 119.629 27.9685 119.924 27.6197C120.381 27.0751 120.833 26.5306 121.294 25.9945C121.354 25.9265 121.465 25.8754 121.559 25.8712C121.806 25.8541 122.054 25.8669 122.314 25.8669C122.314 27.3006 122.314 28.7258 122.314 30.1595C121.99 30.1595 121.666 30.1595 121.324 30.1595C121.324 29.2448 121.324 28.3216 121.324 27.3261C121.098 27.5941 120.914 27.8111 120.731 28.0281C120.163 28.7045 119.595 29.3852 119.019 30.0616C118.968 30.1212 118.869 30.1637 118.793 30.168C118.532 30.1765 118.276 30.168 118.003 30.168Z" fill="#FAFAFA"/>
<path d="M102.306 36.4C103.075 36.7106 103.331 37.5657 102.823 38.1528C102.545 38.4719 102.157 38.5697 101.756 38.6208C101.615 38.6378 101.47 38.6378 101.329 38.6378C100.603 38.6378 99.8775 38.6378 99.1432 38.6378C99.1432 37.2041 99.1432 35.7789 99.1432 34.3452C99.1859 34.3409 99.2329 34.3324 99.2798 34.3324C99.9714 34.3324 100.663 34.3069 101.35 34.3409C101.692 34.358 102.038 34.4388 102.358 34.5579C102.716 34.6898 102.908 34.9833 102.93 35.379C102.951 35.7959 102.767 36.098 102.422 36.3192C102.388 36.3405 102.349 36.3617 102.315 36.3873C102.311 36.3873 102.306 36.3958 102.306 36.4ZM100.099 37.9018C100.552 37.9018 100.983 37.9018 101.414 37.9018C101.483 37.9018 101.555 37.8848 101.623 37.8677C101.922 37.8039 102.08 37.6338 102.084 37.3743C102.089 37.0892 101.952 36.8722 101.641 36.851C101.128 36.8127 100.616 36.8425 100.095 36.8425C100.099 37.1743 100.099 37.5274 100.099 37.9018ZM100.108 35.0897C100.108 35.4215 100.108 35.7661 100.108 36.098C100.569 36.098 101.026 36.1235 101.474 36.0895C101.794 36.0639 101.944 35.8597 101.944 35.5832C101.944 35.3067 101.794 35.1195 101.461 35.094C101.017 35.0642 100.573 35.0897 100.108 35.0897Z" fill="#FAFAFA"/>
<path d="M83.2035 34.337C83.5322 34.337 83.8524 34.337 84.1939 34.337C84.1939 35.2644 84.1939 36.1833 84.1939 37.1746C84.5098 36.8002 84.7787 36.4811 85.0519 36.1578C85.53 35.5877 86.0081 35.0177 86.4905 34.4518C86.546 34.388 86.6484 34.3412 86.7338 34.337C86.9814 34.32 87.229 34.3327 87.4937 34.3327C87.4937 35.7622 87.4937 37.1916 87.4937 38.6296C87.1735 38.6296 86.8491 38.6296 86.5076 38.6296C86.5076 37.7149 86.5076 36.796 86.5076 35.8302C86.4435 35.8855 86.4051 35.9111 86.3795 35.9451C85.6666 36.7917 84.9537 37.6341 84.2536 38.4892C84.1554 38.604 84.0615 38.6508 83.9121 38.6466C83.6816 38.6338 83.4468 38.6423 83.2035 38.6423C83.2035 37.2001 83.2035 35.7792 83.2035 34.337Z" fill="#FAFAFA"/>
<path d="M88.8767 34.371C89.7774 34.371 90.6568 34.3582 91.5362 34.3795C91.7454 34.3837 91.9673 34.4773 92.1552 34.5794C92.8296 34.9538 92.8595 35.8472 92.2235 36.2812C92.1722 36.3152 92.1167 36.3492 92.0399 36.396C92.3814 36.5237 92.6503 36.7066 92.7613 37.0597C92.9918 37.7957 92.5735 38.4296 91.7454 38.5827C91.5575 38.6168 91.3654 38.6338 91.1733 38.638C90.4135 38.6423 89.6536 38.6423 88.8938 38.6423C88.8852 38.6083 88.8767 38.5912 88.8767 38.57C88.8767 37.1618 88.8767 35.7579 88.8767 34.371ZM89.8585 36.8044C89.8585 37.1788 89.8585 37.5362 89.8585 37.8638C90.3751 37.8638 90.8788 37.8765 91.3825 37.8553C91.5874 37.8467 91.7667 37.7234 91.8137 37.5021C91.8606 37.3022 91.8478 37.0895 91.66 36.9618C91.5362 36.881 91.374 36.8129 91.2288 36.8087C90.7763 36.7917 90.3238 36.8044 89.8585 36.8044ZM89.8543 36.0897C90.3324 36.0897 90.7977 36.1195 91.2544 36.0812C91.5618 36.0557 91.7027 35.843 91.6941 35.575C91.6856 35.3154 91.5405 35.124 91.2374 35.1027C90.7806 35.0729 90.3196 35.0942 89.8543 35.0942C89.8543 35.4218 89.8543 35.7579 89.8543 36.0897Z" fill="#FAFAFA"/>
<path d="M67.5156 36.8043C66.3843 36.8043 65.2659 36.8043 64.1261 36.8043C64.2158 37.2553 64.4591 37.5488 64.8604 37.719C65.4366 37.9657 66.1111 37.8466 66.7088 37.3829C66.8838 37.5828 67.0588 37.7785 67.2466 37.9913C66.9307 38.3614 66.5295 38.5613 66.0642 38.6422C65.236 38.7783 64.4634 38.6719 63.806 38.1061C63.1656 37.5573 62.9394 36.5576 63.2467 35.6854C63.5285 34.8856 64.2798 34.3326 65.1293 34.2858C65.9831 34.239 66.7002 34.4857 67.1869 35.226C67.4899 35.6982 67.5753 36.23 67.5156 36.8043ZM64.1304 36.1321C64.5359 36.1321 64.9372 36.1321 65.3427 36.1321C65.744 36.1321 66.1495 36.1321 66.5508 36.1321C66.5167 35.5621 66.0257 35.1111 65.4366 35.0898C64.7238 35.0686 64.2072 35.4727 64.1304 36.1321Z" fill="#FAFAFA"/>
<path d="M111.442 28.3342C110.272 28.3342 109.154 28.3342 108.014 28.3342C108.103 28.7724 108.334 29.083 108.731 29.2361C109.401 29.4914 110.029 29.4063 110.592 28.9128C110.767 29.1128 110.947 29.3127 111.13 29.5254C110.801 29.9126 110.383 30.1125 109.896 30.1848C109.068 30.304 108.283 30.2061 107.651 29.602C106.947 28.9298 106.836 28.0917 107.139 27.2111C107.438 26.339 108.112 25.8923 109.021 25.8242C110.208 25.7391 111.092 26.356 111.344 27.4366C111.416 27.7174 111.412 28.0194 111.442 28.3342ZM108.014 27.6535C108.829 27.6535 109.632 27.6535 110.43 27.6535C110.421 27.126 109.948 26.6665 109.376 26.624C108.641 26.573 108.129 26.9558 108.014 27.6535Z" fill="#FAFAFA"/>
<path d="M76.8045 38.6248C76.8045 38.4631 76.8045 38.3269 76.8045 38.144C76.4972 38.5056 76.1258 38.6503 75.6989 38.6801C75.2891 38.7056 74.8921 38.6843 74.5164 38.4886C74.0298 38.2334 73.7907 37.8037 73.8505 37.2464C73.906 36.7231 74.2176 36.3912 74.7085 36.2509C74.9903 36.17 75.2934 36.1402 75.5879 36.1232C75.9678 36.102 76.352 36.119 76.7362 36.119C76.8003 35.5914 76.4929 35.2043 75.9678 35.1405C75.3915 35.0724 74.8537 35.1873 74.367 35.5404C74.2347 35.2936 74.1066 35.0597 73.9487 34.7746C74.2603 34.647 74.5463 34.4981 74.8537 34.4045C75.3361 34.2556 75.8355 34.2386 76.3307 34.3237C77.2101 34.4768 77.6924 34.9448 77.7479 35.8382C77.8034 36.7614 77.7607 37.6888 77.7607 38.6248C77.4491 38.6248 77.1418 38.6248 76.8045 38.6248ZM76.7405 36.7954C76.352 36.7954 75.9806 36.7912 75.605 36.7997C75.4769 36.8039 75.3489 36.8209 75.2293 36.855C74.986 36.9273 74.8537 37.0932 74.8409 37.3272C74.8281 37.5739 74.9348 37.7654 75.1568 37.8547C75.5794 38.0291 75.9977 37.9994 76.3947 37.7526C76.749 37.5314 76.8045 37.1953 76.7405 36.7954Z" fill="#FAFAFA"/>
<path d="M76.907 30.159C76.5826 30.159 76.2795 30.159 75.9593 30.159C75.9593 30.0101 75.9593 29.8612 75.9593 29.657C75.6946 29.9675 75.4001 30.1377 75.0458 30.1845C74.4908 30.2611 73.953 30.2483 73.4749 29.9037C73.0693 29.6144 72.9327 29.2103 72.9967 28.7295C73.0522 28.2913 73.3041 27.968 73.7139 27.8319C74.0383 27.7213 74.3884 27.6787 74.7342 27.6532C75.1141 27.6234 75.4983 27.6447 75.8782 27.6447C75.9465 27.1384 75.652 26.747 75.144 26.6705C74.5591 26.5811 74.017 26.7045 73.509 27.0619C73.3809 26.8279 73.2529 26.5939 73.1035 26.3259C73.27 26.2365 73.4279 26.1302 73.5987 26.0578C74.2475 25.7898 74.922 25.7303 75.605 25.8664C76.4203 26.0281 76.8686 26.5684 76.9027 27.4958C76.9326 28.3807 76.907 29.2571 76.907 30.159ZM75.8739 28.3211C75.5623 28.3211 75.2592 28.3126 74.9561 28.3254C74.7683 28.3296 74.5719 28.3424 74.3884 28.3807C74.1323 28.436 73.9957 28.6062 73.9786 28.8316C73.9572 29.0784 74.0554 29.2869 74.2859 29.3847C74.7043 29.5634 75.1184 29.5293 75.5068 29.2996C75.8697 29.0826 75.955 28.7423 75.8739 28.3211Z" fill="#FAFAFA"/>
<path d="M46.1885 30.1586C45.8769 30.1586 45.5738 30.1586 45.2494 30.1586C45.2494 30.0054 45.2494 29.8565 45.2494 29.6863C44.592 30.2862 43.5376 30.3968 42.8546 29.9629C42.432 29.6949 42.2356 29.3077 42.2783 28.8142C42.3253 28.2824 42.6284 27.9336 43.1278 27.7889C43.4224 27.7038 43.7382 27.6741 44.0499 27.657C44.4255 27.6358 44.8012 27.6528 45.1726 27.6528C45.2281 27.1295 44.9335 26.7551 44.4341 26.6743C43.8706 26.585 43.3412 26.7083 42.7991 27.0657C42.671 26.8317 42.543 26.602 42.3978 26.334C42.5686 26.2404 42.7351 26.134 42.9101 26.0617C43.5888 25.7894 44.2889 25.7299 44.9975 25.9085C45.7104 26.0872 46.1629 26.619 46.1843 27.355C46.2099 28.2782 46.1885 29.2099 46.1885 30.1586ZM45.1726 28.3292C44.7585 28.3292 44.353 28.325 43.9474 28.3335C43.8407 28.3335 43.734 28.359 43.6358 28.393C43.4437 28.4611 43.3071 28.5845 43.2772 28.8015C43.2473 29.0312 43.3114 29.2354 43.5205 29.3503C43.9517 29.58 44.3871 29.5417 44.8012 29.3035C45.1683 29.0865 45.2579 28.7462 45.1726 28.3292Z" fill="#FAFAFA"/>
<path d="M54.8073 38.6922C53.4925 38.6922 52.6131 38.0115 52.3954 36.9522C52.1094 35.5525 53.0827 34.3316 54.517 34.2805C55.4007 34.2507 56.152 34.523 56.6301 35.293C57.0826 36.0205 57.0954 36.8033 56.6941 37.5563C56.2715 38.3646 55.5373 38.6752 54.8073 38.6922ZM54.6579 37.8286C55.4177 37.8286 55.9428 37.284 55.9428 36.4927C55.9428 35.6802 55.4305 35.1399 54.6579 35.1399C53.898 35.1399 53.3772 35.6759 53.373 36.4757C53.3687 37.2755 53.8938 37.8286 54.6579 37.8286Z" fill="#FAFAFA"/>
<path d="M49.4286 34.2812C50.6025 34.2812 51.5331 35.013 51.691 36.0595C51.9301 37.6251 50.8074 38.8163 49.2194 38.6844C48.1522 38.5951 47.3454 37.9357 47.1661 36.9955C46.8758 35.4682 47.8662 34.2812 49.4286 34.2812ZM48.1394 36.4807C48.1351 37.2848 48.6474 37.8251 49.4072 37.8251C50.1756 37.8251 50.7049 37.2805 50.7092 36.4807C50.7135 35.6937 50.1841 35.1364 49.4286 35.1364C48.6474 35.1364 48.1436 35.6639 48.1394 36.4807Z" fill="#FAFAFA"/>
<path d="M58.9181 30.2177C57.4924 30.2177 56.6258 29.5413 56.4081 28.4394C56.1434 27.0993 57.0825 25.8953 58.4486 25.8145C59.3109 25.7635 60.0622 25.9889 60.5787 26.7164C61.1038 27.4567 61.1337 28.2692 60.7238 29.0648C60.314 29.8816 59.5798 30.1964 58.9181 30.2177ZM57.3984 27.9544C57.36 28.7287 57.8552 29.3201 58.5681 29.3541C59.3749 29.3966 59.9299 28.8861 59.9683 28.0693C60.0024 27.312 59.4944 26.7037 58.7901 26.6696C57.9705 26.6271 57.4369 27.1163 57.3984 27.9544Z" fill="#FAFAFA"/>
<path d="M95.9757 38.6926C94.6396 38.6969 93.7517 37.9949 93.551 36.8803C93.3077 35.5232 94.2639 34.3405 95.6513 34.2809C96.5392 34.2426 97.3033 34.5064 97.7942 35.2807C98.2595 36.0167 98.2681 36.8037 97.8625 37.561C97.4357 38.3651 96.7057 38.6756 95.9757 38.6926ZM94.5457 36.4634C94.5457 37.293 95.0409 37.829 95.8135 37.829C96.5819 37.829 97.107 37.2845 97.1112 36.4804C97.1155 35.6934 96.5862 35.1403 95.8306 35.136C95.0579 35.136 94.55 35.6593 94.5457 36.4634Z" fill="#FAFAFA"/>
<path d="M93.1456 25.8583C93.1456 27.3005 93.1456 28.7215 93.1456 30.1552C92.851 30.1552 92.5607 30.1552 92.2534 30.1552C92.2534 29.734 92.2534 29.3128 92.2534 28.8661C91.882 28.8661 91.5319 28.8619 91.1819 28.8704C91.1221 28.8704 91.0538 28.947 91.0112 29.0023C90.7806 29.3341 90.5501 29.6659 90.3324 30.0063C90.2556 30.1296 90.1659 30.1722 90.0208 30.1679C89.739 30.1552 89.4573 30.1637 89.1329 30.1637C89.4829 29.6659 89.8116 29.2022 90.1489 28.73C89.6494 28.5428 89.2951 28.2365 89.214 27.6919C89.0688 26.7517 89.5768 26.0625 90.5416 25.9094C90.8062 25.8668 91.0794 25.8626 91.3484 25.8583C91.9418 25.8541 92.5309 25.8583 93.1456 25.8583ZM92.2406 26.6837C91.7369 26.7092 91.2502 26.7049 90.7721 26.7645C90.3922 26.8156 90.2172 27.0751 90.2214 27.4537C90.2257 27.8153 90.405 28.0833 90.7806 28.1174C91.263 28.1599 91.7539 28.1259 92.2406 28.1259C92.2406 27.6664 92.2406 27.1942 92.2406 26.6837Z" fill="#FAFAFA"/>
<path d="M128.863 25.8701C128.863 26.453 128.863 27.0188 128.863 27.5974C129.588 27.5974 130.306 27.5974 131.04 27.5974C131.04 27.0273 131.04 26.4572 131.04 25.8744C131.381 25.8744 131.706 25.8744 132.043 25.8744C132.043 27.2996 132.043 28.7247 132.043 30.1584C131.714 30.1584 131.39 30.1584 131.048 30.1584C131.048 29.5969 131.048 29.0396 131.048 28.4737C130.314 28.4737 129.601 28.4737 128.867 28.4737C128.867 29.0311 128.867 29.5841 128.867 30.1542C128.525 30.1542 128.201 30.1542 127.864 30.1542C127.864 28.7333 127.864 27.3081 127.864 25.8701C128.188 25.8701 128.513 25.8701 128.863 25.8701Z" fill="#FAFAFA"/>
<path d="M61.1166 35.1907C60.3909 35.1907 59.6951 35.1907 58.9865 35.1907C58.9865 36.3351 58.9865 37.471 58.9865 38.6239C58.645 38.6239 58.3206 38.6239 57.9833 38.6239C57.9833 37.203 57.9833 35.7778 57.9833 34.3398C59.3536 34.3398 60.7196 34.3398 62.1027 34.3398C62.1027 35.7608 62.1027 37.1902 62.1027 38.6239C61.7783 38.6239 61.4539 38.6239 61.1166 38.6239C61.1166 37.4838 61.1166 36.3436 61.1166 35.1907Z" fill="#FAFAFA"/>
<path d="M42.6369 34.3356C42.9699 34.3356 43.2858 34.3356 43.6273 34.3356C43.6273 34.9056 43.6273 35.4757 43.6273 36.0756C43.8919 36.0756 44.1395 36.0798 44.3828 36.0713C44.4298 36.0671 44.4896 36.0118 44.5237 35.965C44.8908 35.4715 45.258 34.9737 45.6165 34.476C45.6891 34.3739 45.7617 34.3271 45.894 34.3313C46.1843 34.3398 46.4746 34.3356 46.8118 34.3356C46.2825 35.0375 45.7659 35.7182 45.2452 36.4074C45.7958 37.1392 46.3422 37.8751 46.9185 38.6409C46.5173 38.6409 46.1544 38.6452 45.7958 38.6367C45.7403 38.6367 45.6763 38.5729 45.6379 38.5218C45.2708 38.0453 44.9079 37.5646 44.5493 37.0796C44.4682 36.9647 44.3828 36.9094 44.2334 36.9179C44.0413 36.9307 43.8492 36.9222 43.6401 36.9222C43.6401 37.4965 43.6401 38.0623 43.6401 38.6324C43.2943 38.6324 42.9699 38.6324 42.6369 38.6324C42.6369 37.1987 42.6369 35.7778 42.6369 34.3356Z" fill="#FAFAFA"/>
<path d="M97.7729 28.4401C97.7729 29.0229 97.7729 29.5845 97.7729 30.1545C97.4272 30.1545 97.107 30.1545 96.7698 30.1545C96.7698 28.7251 96.7698 27.3042 96.7698 25.8705C97.0899 25.8705 97.4144 25.8705 97.7601 25.8705C97.7601 26.4363 97.7601 27.0021 97.7601 27.602C98.0291 27.602 98.2724 27.6105 98.52 27.5977C98.5755 27.5935 98.631 27.5254 98.6737 27.4701C99.0365 26.9808 99.3994 26.4916 99.7537 25.9981C99.8263 25.896 99.9031 25.8535 100.035 25.8577C100.326 25.8662 100.612 25.862 100.945 25.862C100.411 26.5682 99.9031 27.2404 99.378 27.9338C99.9244 28.6655 100.475 29.4015 101.051 30.1673C100.65 30.1673 100.279 30.1716 99.9074 30.1631C99.8561 30.1631 99.8006 30.0822 99.7579 30.0312C99.4036 29.5675 99.0493 29.108 98.7078 28.64C98.6054 28.4996 98.5029 28.4273 98.3236 28.4443C98.1486 28.4528 97.9693 28.4401 97.7729 28.4401Z" fill="#FAFAFA"/>
<path d="M134.421 25.8666C134.421 26.3345 134.421 26.7855 134.421 27.2705C134.779 27.2705 135.134 27.2492 135.484 27.2747C135.791 27.296 136.111 27.3258 136.397 27.4279C136.956 27.6236 137.23 28.0873 137.221 28.7084C137.213 29.3508 136.897 29.8188 136.312 30.0273C136.133 30.0911 135.94 30.1464 135.753 30.1506C134.98 30.1634 134.207 30.1549 133.418 30.1549C133.418 28.7212 133.418 27.296 133.418 25.8623C133.751 25.8666 134.075 25.8666 134.421 25.8666ZM134.434 29.4019C134.843 29.4019 135.236 29.4317 135.62 29.3934C135.996 29.3551 136.192 29.0828 136.197 28.6999C136.201 28.317 136.03 28.0703 135.642 28.015C135.245 27.9597 134.839 27.9682 134.429 27.9469C134.434 28.4574 134.434 28.9296 134.434 29.4019Z" fill="#FAFAFA"/>
<path d="M139.59 25.8584C139.97 25.8584 140.303 25.8541 140.636 25.8626C140.696 25.8669 140.768 25.9307 140.811 25.986C141.131 26.4029 141.443 26.8198 141.772 27.2665C142.079 26.8581 142.382 26.471 142.664 26.0711C142.779 25.9052 142.903 25.8414 143.099 25.8541C143.36 25.8711 143.62 25.8584 143.919 25.8584C143.368 26.5773 142.839 27.2665 142.305 27.9642C142.864 28.6917 143.419 29.415 143.996 30.168C143.616 30.168 143.274 30.1722 142.928 30.1637C142.873 30.1637 142.809 30.0999 142.771 30.0531C142.429 29.6022 142.092 29.1469 141.742 28.679C141.4 29.1342 141.063 29.5766 140.734 30.0276C140.653 30.1382 140.568 30.1765 140.435 30.1722C140.141 30.1637 139.842 30.168 139.505 30.168C140.077 29.4235 140.628 28.7045 141.187 27.9813C140.67 27.2836 140.145 26.5901 139.59 25.8584Z" fill="#FAFAFA"/>
<path d="M51.2642 26.8101C51.008 26.959 50.7647 27.0994 50.5043 27.2526C50.2012 26.8271 49.7914 26.6229 49.2664 26.6697C48.9248 26.6995 48.6388 26.8442 48.4169 27.0994C47.943 27.644 48.0113 28.6054 48.5449 29.0606C49.1169 29.5499 49.9494 29.4308 50.5043 28.7671C50.7476 28.9075 50.9952 29.0521 51.2428 29.1925C51.0934 29.6988 50.3421 30.3327 49.0785 30.205C48.0113 30.0944 47.1874 29.2946 47.0893 28.2396C46.9868 27.1207 47.6229 26.1975 48.6943 25.8997C49.7786 25.6019 50.8629 25.9805 51.2642 26.8101Z" fill="#FAFAFA"/>
<path d="M55.913 26.8106C55.6526 26.9595 55.4007 27.1041 55.1531 27.2488C54.5342 26.5638 53.7103 26.4745 53.1468 27.0148C52.6303 27.5125 52.6132 28.508 53.1126 29.0015C53.6719 29.5546 54.5342 29.4653 55.1574 28.7761C55.405 28.9207 55.6526 29.0654 55.9044 29.2057C55.6142 29.9332 54.6238 30.3629 53.6292 30.197C52.5449 30.0141 51.7808 29.21 51.7381 28.2102C51.6826 27.0403 52.2973 26.1767 53.3816 25.8959C54.4488 25.6109 55.4904 25.981 55.913 26.8106Z" fill="#FAFAFA"/>
<path d="M138.779 30.1584C138.446 30.1584 138.13 30.1584 137.802 30.1584C137.802 28.729 137.802 27.3038 137.802 25.8701C138.126 25.8701 138.45 25.8701 138.779 25.8701C138.779 27.2953 138.779 28.7162 138.779 30.1584Z" fill="#FAFAFA"/>
<path d="M80.9368 38.6288C80.591 38.6288 80.2666 38.6288 79.9294 38.6288C79.9294 37.4844 79.9294 36.3485 79.9294 35.1871C79.4171 35.1871 78.9134 35.1871 78.4097 35.1871C78.4097 34.8935 78.4097 34.6255 78.4097 34.3447C79.7458 34.3447 81.0862 34.3447 82.4394 34.3447C82.4394 34.6127 82.4394 34.885 82.4394 35.1786C81.9442 35.1786 81.4533 35.1786 80.9368 35.1786C80.9368 36.3357 80.9368 37.4801 80.9368 38.6288Z" fill="#FAFAFA"/>
<path d="M127.108 25.8701C127.108 26.1509 127.108 26.4232 127.108 26.7125C126.605 26.7125 126.114 26.7125 125.601 26.7125C125.601 27.8654 125.601 29.0055 125.601 30.1542C125.256 30.1542 124.927 30.1542 124.581 30.1542C124.581 29.0098 124.581 27.8696 124.581 26.7167C124.073 26.7167 123.578 26.7167 123.074 26.7167C123.074 26.4274 123.074 26.1552 123.074 25.8701C124.419 25.8701 125.759 25.8701 127.108 25.8701Z" fill="#FAFAFA"/>
<path d="M33.2969 -0.000976562C33.2926 0.0968722 33.2883 0.198975 33.2883 0.296824C33.2883 12.9789 33.2883 25.6609 33.2883 38.343C33.2883 38.6961 33.3225 38.662 32.9639 38.662C30.774 38.662 28.5841 38.662 26.3899 38.662C26.0868 38.662 26.0868 38.662 26.0868 38.3642C26.0868 25.6737 26.0868 12.9831 26.0868 0.296824C26.0868 0.198975 26.0826 0.0968722 26.0783 -0.000976562C28.4859 -0.000976562 30.8935 -0.000976562 33.2969 -0.000976562Z" fill="#FDC944"/>
<path d="M7.17161 -0.000976562C7.17588 0.0841093 7.18015 0.169195 7.18015 0.254281C7.18015 12.9576 7.18015 25.6609 7.18015 38.3642C7.18015 38.4536 7.18015 38.5429 7.18015 38.645C4.78107 38.645 2.39907 38.645 0 38.645C0 25.7588 0 12.8768 0 -0.000976562C2.39054 -0.000976562 4.78107 -0.000976562 7.17161 -0.000976562Z" fill="#C32278"/>
<path d="M15.9228 -0.000976562C15.9228 12.8768 15.9228 25.7545 15.9228 38.6493C13.5237 38.6493 11.146 38.6493 8.74261 38.6493C8.74261 38.5599 8.74261 38.4834 8.74261 38.4068C8.74261 25.6737 8.74261 12.9448 8.74261 0.211738C8.74261 0.139415 8.74688 0.0713464 8.75115 -0.000976562C11.1417 -0.000976562 13.5322 -0.000976562 15.9228 -0.000976562Z" fill="#F673C0"/>
<path d="M24.5457 -0.00160508C24.5457 0.0919894 24.5415 0.18133 24.5415 0.274924C24.5415 12.9697 24.5415 25.6688 24.5415 38.3636C24.5415 38.4529 24.5415 38.5423 24.5415 38.6444C22.1424 38.6444 19.7647 38.6444 17.3613 38.6444C17.3613 38.555 17.3613 38.4785 17.3613 38.4019C17.3613 25.6688 17.3613 12.94 17.3613 0.206855C17.3613 0.134532 17.3699 0.0664636 17.3741 -0.00585938C19.7647 -0.00160508 22.1552 -0.00160508 24.5457 -0.00160508Z" fill="#178ECE"/>
</g>
<defs>
<clipPath id="clip0_387_341">
<rect width="144" height="40.186" fill="white"/>
</clipPath>
</defs>
</svg>
