<svg width="72" height="72" viewBox="0 0 72 72" fill="none" xmlns="http://www.w3.org/2000/svg">
<g opacity="0.5" clip-path="url(#clip0_357_296)">
<path fill-rule="evenodd" clip-rule="evenodd" d="M61.6564 0H25.034C25.0181 0 25.0027 0.00164796 24.9868 0.00219727C24.9708 0.00274658 24.9549 0.00384522 24.939 0.00494384C24.8796 0.00878906 24.8203 0.0153809 24.7621 0.0269165C24.761 0.0269165 24.7599 0.0269165 24.7588 0.0274657C24.6995 0.0390015 24.6418 0.0560303 24.5847 0.0752563C24.5698 0.0802001 24.555 0.0856934 24.5407 0.0911866C24.4869 0.110962 24.4336 0.134033 24.3825 0.1604C24.3792 0.162048 24.3765 0.163147 24.3732 0.164795C24.3193 0.193359 24.2682 0.226868 24.2188 0.262024C24.2062 0.271362 24.1941 0.280151 24.1815 0.28949C24.132 0.327393 24.0842 0.367493 24.0397 0.411987L9.41199 15.0392C9.36749 15.0837 9.32794 15.1315 9.29004 15.1809C9.2807 15.1935 9.27136 15.2062 9.26202 15.2188C9.22687 15.2688 9.19391 15.3193 9.16534 15.3732C9.16315 15.3765 9.16205 15.3798 9.1604 15.3831C9.13348 15.4341 9.11096 15.4869 9.09119 15.5407C9.08569 15.555 9.0802 15.5698 9.07526 15.5847C9.05603 15.6418 9.039 15.6995 9.02747 15.7588C9.02692 15.7599 9.02692 15.761 9.02692 15.7621C9.01538 15.8203 9.00879 15.8791 9.00494 15.939C9.00385 15.9549 9.00275 15.9708 9.0022 15.9868C9.00165 16.0021 9 16.0181 9 16.034V70.5938C9 71.3705 9.62952 72 10.4062 72H61.6558C62.4326 72 63.0621 71.3705 63.0621 70.5938V1.40625C63.0626 0.629517 62.4331 0 61.6564 0ZM23.6277 4.80157V14.6277H13.8016L23.6277 4.80157ZM60.2501 69.1875H34.8519V63.6487H40.9257C41.7025 63.6487 42.332 63.0192 42.332 62.2425V56.8696C42.332 56.0929 41.7025 55.4634 40.9257 55.4634C40.149 55.4634 39.5195 56.0929 39.5195 56.8696V60.8362H33.4457C32.6689 60.8362 32.0394 61.4663 32.0394 62.2425V69.1875H11.8125V17.4402H25.034C25.8107 17.4402 26.4402 16.8102 26.4402 16.034V2.8125H60.2501V60.8362H55.5826V31.8955C55.5826 31.1188 54.9531 30.4893 54.1763 30.4893H33.4457C32.6689 30.4893 32.0394 31.1188 32.0394 31.8955V40.2462C32.0394 41.0229 32.6689 41.6525 33.4457 41.6525H39.5195V45.6196C39.5195 46.3958 40.149 47.0259 40.9257 47.0259C41.7025 47.0259 42.332 46.3958 42.332 45.6196V40.2462C42.332 39.47 41.7025 38.84 40.9257 38.84H34.8519V33.3018H52.7701V62.2425C52.7701 63.0192 53.3996 63.6487 54.1763 63.6487H60.2501V69.1875Z" fill="url(#paint0_linear_357_296)"/>
<path fill-rule="evenodd" clip-rule="evenodd" d="M47.5511 28.2213C51.9797 28.2213 55.5826 24.6183 55.5826 20.1897C55.5826 15.7611 51.9797 12.1587 47.5511 12.1587C43.1225 12.1587 39.5195 15.7611 39.5195 20.1897C39.5195 24.6183 43.1225 28.2213 47.5511 28.2213ZM47.5511 14.9706C50.429 14.9706 52.7701 17.3118 52.7701 20.1897C52.7701 23.067 50.429 25.4082 47.5511 25.4082C44.6732 25.4082 42.332 23.067 42.332 20.1897C42.332 17.3118 44.6732 14.9706 47.5511 14.9706Z" fill="url(#paint1_linear_357_296)"/>
<path fill-rule="evenodd" clip-rule="evenodd" d="M40.9258 49.8384C40.1512 49.8384 39.5195 50.4701 39.5195 51.2446C39.5195 52.0192 40.1512 52.6509 40.9258 52.6509C41.7003 52.6509 42.3326 52.0192 42.3326 51.2446C42.3326 50.4701 41.7003 49.8384 40.9258 49.8384Z" fill="url(#paint2_linear_357_296)"/>
</g>
<defs>
<linearGradient id="paint0_linear_357_296" x1="1.68583" y1="84.0001" x2="86.9174" y2="42.973" gradientUnits="userSpaceOnUse">
<stop stop-color="#50CC91"/>
<stop offset="1" stop-color="#0094FF"/>
</linearGradient>
<linearGradient id="paint1_linear_357_296" x1="37.3463" y1="30.8984" x2="59.4526" y2="16.726" gradientUnits="userSpaceOnUse">
<stop stop-color="#50CC91"/>
<stop offset="1" stop-color="#0094FF"/>
</linearGradient>
<linearGradient id="paint2_linear_357_296" x1="39.1389" y1="53.1196" x2="43.0099" y2="50.6375" gradientUnits="userSpaceOnUse">
<stop stop-color="#50CC91"/>
<stop offset="1" stop-color="#0094FF"/>
</linearGradient>
<clipPath id="clip0_357_296">
<rect width="72" height="72" fill="white"/>
</clipPath>
</defs>
</svg>
