<svg width="66" height="72" viewBox="0 0 66 72" fill="none" xmlns="http://www.w3.org/2000/svg">
<path d="M58.5812 53.0779H52.2074V50.7431C52.2074 48.4412 52.9655 46.1596 54.3428 44.3135C55.7907 42.6057 56.6202 40.3244 56.6202 38.0461C56.6202 33.1386 52.9814 29.0666 48.2605 28.3825V1.40625C48.2605 0.629578 47.6309 0 46.8542 0H13.4164C13.0479 0 12.6772 0.151594 12.4186 0.415266L1.38935 11.5204C1.13187 11.7797 0.980835 12.1459 0.980835 12.5114V53.6892C0.980835 54.4659 1.61041 55.0955 2.38708 55.0955C3.16376 55.0955 3.79333 54.4659 3.79333 53.6892V13.9172H13.4163C14.193 13.9172 14.8226 13.2877 14.8226 12.511V2.8125H45.4479V28.3807C40.715 29.0686 37.0873 33.2654 37.0873 38.0461C37.0873 40.3287 37.9223 42.6165 39.3797 44.3313C40.7473 46.1732 41.5001 48.4484 41.5001 50.7431V53.0775H35.1274C32.0044 53.0775 29.2369 55.4483 28.7634 58.5366H8.52213C7.74546 58.5366 7.11588 59.1661 7.11588 59.9428C7.11588 60.7195 7.74546 61.3491 8.52213 61.3491H28.6893V63.6692C28.6893 64.4459 29.3189 65.0755 30.0955 65.0755H31.3411V67.5381C31.3411 69.9985 33.3427 72 35.803 72H57.9054C60.3658 72 62.3673 69.9983 62.3673 67.5381V65.0755H63.6127C64.3893 65.0755 65.0189 64.4459 65.0189 63.6692V59.5159C65.0191 55.9659 62.131 53.0779 58.5812 53.0779ZM12.0102 11.1047H5.76644L12.0102 4.81781V11.1047ZM62.2066 59.5157V62.2628H31.5017L31.5022 59.5152C31.5022 57.5429 33.1527 55.8903 35.127 55.8903H58.5811C60.5802 55.8904 62.2066 57.5168 62.2066 59.5157ZM53.8077 38.0461C53.8077 39.7783 53.1406 41.2339 52.1201 42.5895C50.3628 44.9258 49.3951 47.8215 49.3951 50.7431V53.0775H44.3133V50.7431C44.3133 47.8299 43.3516 44.9415 41.6054 42.6101C41.5864 42.5848 41.5666 42.5602 41.5461 42.5363C40.5004 41.3204 39.9006 39.6838 39.9006 38.0461C39.9006 34.2118 43.02 31.0923 46.8542 31.0922C50.6884 31.0923 53.8077 34.2118 53.8077 38.0461ZM59.5548 67.5381C59.5548 68.4477 58.8148 69.1875 57.9054 69.1875H35.803C34.8934 69.1875 34.1536 68.4475 34.1536 67.5381V65.0755H59.5549V67.5381H59.5548Z" fill="url(#paint0_linear_357_270)"/>
<path d="M30.9161 15.4641C31.6928 15.4641 32.3224 14.8345 32.3224 14.0579C32.3224 13.2812 31.6928 12.6516 30.9161 12.6516H20.5563C19.7796 12.6516 19.15 13.2812 19.15 14.0579C19.15 14.8345 19.7796 15.4641 20.5563 15.4641H30.9161Z" fill="url(#paint1_linear_357_270)"/>
<path d="M11.1665 25.1018C11.1665 25.8785 11.7961 26.5081 12.5728 26.5081H37.0875C37.8642 26.5081 38.4937 25.8785 38.4937 25.1018C38.4937 24.3251 37.8642 23.6956 37.0875 23.6956H12.5728C11.7961 23.6956 11.1665 24.3253 11.1665 25.1018Z" fill="url(#paint2_linear_357_270)"/>
<path d="M12.5728 37.552H32.0001C32.7768 37.552 33.4063 36.9224 33.4063 36.1457C33.4063 35.3691 32.7768 34.7395 32.0001 34.7395H12.5728C11.7961 34.7395 11.1665 35.3691 11.1665 36.1457C11.1665 36.9224 11.7961 37.552 12.5728 37.552Z" fill="url(#paint3_linear_357_270)"/>
<path d="M12.5728 48.5959H32.0001C32.7768 48.5959 33.4063 47.9664 33.4063 47.1897C33.4063 46.413 32.7768 45.7834 32.0001 45.7834H12.5728C11.7961 45.7834 11.1665 46.413 11.1665 47.1897C11.1665 47.9664 11.7961 48.5959 12.5728 48.5959Z" fill="url(#paint4_linear_357_270)"/>
<path d="M3.68538 59.4056C3.39499 58.6973 2.5549 58.351 1.84882 58.6448C1.14134 58.9391 0.796946 59.7722 1.08945 60.48C1.38181 61.1877 2.21712 61.5345 2.9246 61.2407C3.63096 60.9474 3.98027 60.1136 3.68538 59.4056Z" fill="url(#paint5_linear_357_270)"/>
<path d="M35.918 14.8415C36.6202 15.8859 38.2883 15.5153 38.4783 14.2679C38.6695 13.0122 37.1495 12.1735 36.1842 12.9838C35.6423 13.4387 35.5251 14.2527 35.918 14.8415Z" fill="url(#paint6_linear_357_270)"/>
<defs>
<linearGradient id="paint0_linear_357_270" x1="-7.68301" y1="84.0001" x2="86.1599" y2="30.4922" gradientUnits="userSpaceOnUse">
<stop stop-color="#50CC91"/>
<stop offset="1" stop-color="#0094FF"/>
</linearGradient>
<linearGradient id="paint1_linear_357_270" x1="17.3679" y1="15.9329" x2="19.922" y2="8.26434" gradientUnits="userSpaceOnUse">
<stop stop-color="#50CC91"/>
<stop offset="1" stop-color="#0094FF"/>
</linearGradient>
<linearGradient id="paint2_linear_357_270" x1="7.46935" y1="26.9768" x2="8.80266" y2="18.6717" gradientUnits="userSpaceOnUse">
<stop stop-color="#50CC91"/>
<stop offset="1" stop-color="#0094FF"/>
</linearGradient>
<linearGradient id="paint3_linear_357_270" x1="8.15763" y1="38.0208" x2="9.77522" y2="29.8207" gradientUnits="userSpaceOnUse">
<stop stop-color="#50CC91"/>
<stop offset="1" stop-color="#0094FF"/>
</linearGradient>
<linearGradient id="paint4_linear_357_270" x1="8.15763" y1="49.0647" x2="9.77522" y2="40.8646" gradientUnits="userSpaceOnUse">
<stop stop-color="#50CC91"/>
<stop offset="1" stop-color="#0094FF"/>
</linearGradient>
<linearGradient id="paint5_linear_357_270" x1="0.605579" y1="61.813" x2="4.46641" y2="59.3381" gradientUnits="userSpaceOnUse">
<stop stop-color="#50CC91"/>
<stop offset="1" stop-color="#0094FF"/>
</linearGradient>
<linearGradient id="paint6_linear_357_270" x1="35.3059" y1="15.9144" x2="39.1532" y2="13.428" gradientUnits="userSpaceOnUse">
<stop stop-color="#50CC91"/>
<stop offset="1" stop-color="#0094FF"/>
</linearGradient>
</defs>
</svg>
