<svg width="227" height="44" viewBox="0 0 227 44" fill="none" xmlns="http://www.w3.org/2000/svg">
<path d="M71.3734 28.0601H68.617C68.3523 28.0601 68.2199 27.9199 68.2199 27.6396V25H58.0353C57.755 25 57.6148 24.8598 57.6148 24.5795V8.71863C57.6148 8.43832 57.755 8.29817 58.0353 8.29817H60.9552C61.2355 8.29817 61.3756 8.43832 61.3756 8.71863V21.4728H66.468V8.71863C66.468 8.43832 66.6003 8.29817 66.8651 8.29817H69.8083C70.0731 8.29817 70.2054 8.43832 70.2054 8.71863V21.4728H71.3734C71.6381 21.4728 71.7705 21.6051 71.7705 21.8699V27.6396C71.7705 27.9199 71.6381 28.0601 71.3734 28.0601ZM77.14 25H74.2902C74.0099 25 73.8697 24.8598 73.8697 24.5795V13.2503C73.8697 12.9856 74.0099 12.8532 74.2902 12.8532H76.9765C77.2568 12.8532 77.397 12.9856 77.397 13.2503V16.9177C77.397 17.6808 77.3814 18.6697 77.3502 19.8843H77.3736C77.7629 19.0123 78.3703 17.8677 79.1956 16.4505L81.041 13.1335C81.1189 12.9466 81.2746 12.8532 81.5082 12.8532H84.4047C84.685 12.8532 84.8252 12.9856 84.8252 13.2503V24.5795C84.8252 24.8598 84.685 25 84.4047 25H81.7184C81.4537 25 81.3213 24.8598 81.3213 24.5795V20.9121C81.3213 20.0556 81.3369 19.0823 81.368 17.9922H81.3447C80.9709 18.8799 80.3558 20.0478 79.4993 21.4961L77.6305 24.7197C77.5371 24.9066 77.3736 25 77.14 25ZM96.5528 29.4382H93.8665C93.6017 29.4382 93.4694 29.3059 93.4694 29.0411V25H92.0678C90.6663 25 89.4749 24.564 88.4939 23.6919C87.5128 22.8198 87.0222 21.5428 87.0222 19.861V18.0156C87.0222 16.3337 87.5128 15.0568 88.4939 14.1847C89.4905 13.297 90.7208 12.8532 92.1846 12.8532H93.4694V8.71863C93.4694 8.43832 93.6017 8.29817 93.8665 8.29817H96.5528C96.8175 8.29817 96.9499 8.43832 96.9499 8.71863V12.8532H98.3281C99.7764 12.8532 100.975 13.297 101.925 14.1847C102.891 15.0568 103.374 16.3337 103.374 18.0156V19.861C103.374 21.5428 102.891 22.8198 101.925 23.6919C100.96 24.564 99.7919 25 98.4215 25H96.9499V29.0411C96.9499 29.3059 96.8175 29.4382 96.5528 29.4382ZM90.5495 19.861C90.5495 20.5618 90.713 21.0757 91.04 21.4027C91.367 21.7141 91.8576 21.8699 92.5116 21.8699H93.4694V15.96H92.4416C91.1802 15.96 90.5495 16.6296 90.5495 17.9689V19.861ZM96.9499 21.8699H97.8843C99.2079 21.8699 99.8698 21.2002 99.8698 19.861V17.9689C99.8698 16.6296 99.2391 15.96 97.9777 15.96H96.9499V21.8699ZM105.858 13.4138C107.431 12.8221 109.081 12.5262 110.81 12.5262C112.476 12.5262 113.815 13.0012 114.828 13.9511C115.84 14.8855 116.346 16.178 116.346 17.8287V20.1413C116.346 21.7141 115.879 22.9677 114.945 23.9021C114.01 24.8365 112.788 25.3037 111.277 25.3037C110.514 25.3037 109.798 25.1713 109.128 24.9066V29.0178C109.128 29.2981 108.996 29.4382 108.731 29.4382H105.975C105.694 29.4382 105.554 29.2981 105.554 29.0178V13.8577C105.554 13.6241 105.655 13.4761 105.858 13.4138ZM110.763 22.1969C112.071 22.1969 112.725 21.5351 112.725 20.2114V17.7586C112.725 16.3882 112.064 15.703 110.74 15.703C110.133 15.703 109.595 15.7887 109.128 15.96V21.7998C109.58 22.0645 110.125 22.1969 110.763 22.1969ZM129.28 20.3515C129.28 21.8932 128.781 23.1079 127.785 23.9956C126.804 24.8676 125.457 25.3037 123.744 25.3037C122.031 25.3037 120.676 24.8676 119.679 23.9956C118.682 23.1079 118.184 21.8932 118.184 20.3515V17.5484C118.184 15.9911 118.682 14.7687 119.679 13.881C120.676 12.9778 122.031 12.5262 123.744 12.5262C125.457 12.5262 126.804 12.9778 127.785 13.881C128.781 14.7687 129.28 15.9911 129.28 17.5484V20.3515ZM121.828 20.3515C121.828 21.5506 122.467 22.1502 123.744 22.1502C125.021 22.1502 125.659 21.5506 125.659 20.3515V17.5484C125.659 16.9566 125.496 16.505 125.169 16.1936C124.842 15.8665 124.367 15.703 123.744 15.703C123.121 15.703 122.646 15.8665 122.319 16.1936C121.992 16.505 121.828 16.9566 121.828 17.5484V20.3515ZM137.168 25H131.935C131.655 25 131.515 24.8598 131.515 24.5795V13.2503C131.515 12.9856 131.655 12.8532 131.935 12.8532H137.004C138.484 12.8532 139.636 13.1491 140.462 13.7409C141.302 14.3326 141.723 15.158 141.723 16.2169C141.723 17.2292 141.256 18.0156 140.321 18.5762C141.505 19.0901 142.097 20.0401 142.097 21.426C142.097 22.5317 141.653 23.4038 140.765 24.0423C139.893 24.6808 138.694 25 137.168 25ZM135.066 15.5162V17.6418H136.817C137.721 17.6418 138.172 17.2837 138.172 16.5673C138.172 15.8665 137.713 15.5162 136.794 15.5162H135.066ZM135.066 20.0011V22.3371H136.911C137.97 22.3371 138.499 21.9399 138.499 21.1457C138.499 20.3827 137.97 20.0011 136.911 20.0011H135.066ZM154.92 20.3515C154.92 21.8932 154.422 23.1079 153.425 23.9956C152.444 24.8676 151.097 25.3037 149.384 25.3037C147.671 25.3037 146.316 24.8676 145.32 23.9956C144.323 23.1079 143.825 21.8932 143.825 20.3515V17.5484C143.825 15.9911 144.323 14.7687 145.32 13.881C146.316 12.9778 147.671 12.5262 149.384 12.5262C151.097 12.5262 152.444 12.9778 153.425 13.881C154.422 14.7687 154.92 15.9911 154.92 17.5484V20.3515ZM147.469 20.3515C147.469 21.5506 148.107 22.1502 149.384 22.1502C150.661 22.1502 151.299 21.5506 151.299 20.3515V17.5484C151.299 16.9566 151.136 16.505 150.809 16.1936C150.482 15.8665 150.007 15.703 149.384 15.703C148.761 15.703 148.286 15.8665 147.959 16.1936C147.632 16.505 147.469 16.9566 147.469 17.5484V20.3515ZM160.426 25H157.576C157.295 25 157.155 24.8598 157.155 24.5795V13.2503C157.155 12.9856 157.295 12.8532 157.576 12.8532H160.262C160.542 12.8532 160.683 12.9856 160.683 13.2503V16.9177C160.683 17.6808 160.667 18.6697 160.636 19.8843H160.659C161.049 19.0123 161.656 17.8677 162.481 16.4505L164.327 13.1335C164.404 12.9466 164.56 12.8532 164.794 12.8532H167.69C167.971 12.8532 168.111 12.9856 168.111 13.2503V24.5795C168.111 24.8598 167.971 25 167.69 25H165.004C164.739 25 164.607 24.8598 164.607 24.5795V20.9121C164.607 20.0556 164.622 19.0823 164.654 17.9922H164.63C164.257 18.8799 163.641 20.0478 162.785 21.4961L160.916 24.7197C160.823 24.9066 160.659 25 160.426 25ZM166.569 8.53176C166.445 9.52842 166.04 10.3071 165.354 10.8677C164.685 11.4283 163.782 11.7086 162.645 11.7086C161.508 11.7086 160.597 11.4361 159.912 10.891C159.242 10.3304 158.845 9.55956 158.72 8.57848C158.674 8.32931 158.79 8.17358 159.071 8.11129L160.799 7.83098C161.033 7.78426 161.189 7.89327 161.267 8.15801C161.453 8.84321 161.913 9.18582 162.645 9.18582C163.408 9.18582 163.867 8.84321 164.023 8.15801C164.116 7.89327 164.28 7.78426 164.513 7.83098L166.219 8.11129C166.499 8.17358 166.616 8.31374 166.569 8.53176ZM179.326 25H176.383C176.102 25 175.962 24.8598 175.962 24.5795V8.71863C175.962 8.43832 176.102 8.29817 176.383 8.29817H188.342C188.623 8.29817 188.763 8.43832 188.763 8.71863V24.5795C188.763 24.8598 188.623 25 188.342 25H185.423C185.142 25 185.002 24.8598 185.002 24.5795V11.7787H179.723V24.5795C179.723 24.8598 179.591 25 179.326 25ZM198.492 21.2859V13.2503C198.492 12.9856 198.632 12.8532 198.912 12.8532H201.669C201.934 12.8532 202.066 12.9856 202.066 13.2503V23.832C202.066 25.8721 201.622 27.3593 200.734 28.2936C199.847 29.2436 198.445 29.7186 196.53 29.7186C194.614 29.7186 193.065 29.2903 191.881 28.4338C191.648 28.2936 191.609 28.1068 191.765 27.8732L193.003 25.9811C193.143 25.7786 193.322 25.7319 193.54 25.8409C194.428 26.3704 195.37 26.6351 196.366 26.6351C197.114 26.6351 197.667 26.4638 198.025 26.1212C198.399 25.7786 198.578 25.1947 198.562 24.3693C197.799 24.5873 197.09 24.6963 196.436 24.6963C194.988 24.6963 193.797 24.2525 192.862 23.3649C191.928 22.4616 191.461 21.2392 191.461 19.6975V13.2503C191.461 12.9856 191.601 12.8532 191.881 12.8532H194.638C194.902 12.8532 195.035 12.9856 195.035 13.2503V19.6274C195.035 20.9511 195.681 21.6129 196.974 21.6129C197.581 21.6129 198.087 21.5039 198.492 21.2859ZM210.208 25H207.452C207.172 25 207.031 24.8598 207.031 24.5795V15.96H204.135C203.87 15.96 203.738 15.8198 203.738 15.5395V13.2503C203.738 12.9856 203.87 12.8532 204.135 12.8532H213.479C213.759 12.8532 213.899 12.9856 213.899 13.2503V15.5395C213.899 15.8198 213.759 15.96 213.479 15.96H210.605V24.5795C210.605 24.8598 210.473 25 210.208 25ZM221.182 25H215.997C215.716 25 215.576 24.8598 215.576 24.5795V13.2503C215.576 12.9856 215.716 12.8532 215.997 12.8532H218.73C219.01 12.8532 219.15 12.9856 219.15 13.2503V16.7075H221.182C222.599 16.7075 223.752 17.0734 224.64 17.8054C225.543 18.5217 225.994 19.5495 225.994 20.8888C225.994 22.2592 225.551 23.287 224.663 23.9722C223.775 24.6574 222.615 25 221.182 25ZM219.15 19.4872V22.1735H220.622C221.805 22.1735 222.397 21.7219 222.397 20.8187C222.397 19.9311 221.805 19.4872 220.622 19.4872H219.15Z" fill="#F2F2F2"/>
<g clip-path="url(#clip0_447_1415)">
<path fill-rule="evenodd" clip-rule="evenodd" d="M21.6479 7.34914L6.74701 12.5644C5.80628 12.8937 5.17718 13.7754 5.17718 14.7647V32.2664L1.88158 33.6955C0.690942 34.2117 0.147765 35.5874 0.668377 36.7681C1.18901 37.949 2.57626 38.4875 3.76689 37.9711L7.28605 36.4454L22.9989 43.7779C23.6333 44.074 24.3681 44.074 25.0027 43.7779L40.7154 36.4454L44.2345 37.9711C45.4251 38.4875 46.8124 37.949 47.3331 36.7681C47.8538 35.5874 47.3105 34.2117 46.1199 33.6955L42.8244 32.2664V14.7647C42.8244 13.7754 42.1952 12.8937 41.2545 12.5644L26.3538 7.34912V4.33333C26.3538 3.04466 25.3001 2 24.0008 2C22.7013 2 21.6479 3.04468 21.6479 4.33333V7.34914ZM24.0008 19.3056L13.7397 15.0658L23.2175 11.7485C23.7244 11.5711 24.2771 11.5711 24.7839 11.7485L34.2618 15.0658L24.0008 19.3056ZM26.3538 23.389L38.1185 18.5277V32.4997L26.3538 37.9898V23.389ZM21.6479 23.389L9.88306 18.5277V32.4997L21.6479 37.9898V23.389Z" fill="url(#paint0_linear_447_1415)"/>
</g>
<path d="M57.811 33.3685H61.4084C61.4769 33.3685 61.5111 33.4059 61.5111 33.4807V38.0964C61.5111 38.165 61.4769 38.1992 61.4084 38.1992H60.8571C60.7823 38.1992 60.745 38.165 60.745 38.0964V34.06H58.4651V38.0964C58.4651 38.165 58.4308 38.1992 58.3623 38.1992H57.811C57.7363 38.1992 57.6989 38.165 57.6989 38.0964V33.4807C57.6989 33.4059 57.7363 33.3685 57.811 33.3685ZM66.9202 36.4706C66.9202 37.025 66.7333 37.4704 66.3596 37.8068C65.992 38.1369 65.4937 38.302 64.8646 38.302C64.2354 38.302 63.734 38.1338 63.3602 37.7974C62.9927 37.4611 62.809 37.0188 62.809 36.4706V35.1251C62.809 34.5708 62.9958 34.1223 63.3696 33.7797C63.7433 33.4371 64.2417 33.2658 64.8646 33.2658C65.4937 33.2658 65.992 33.4371 66.3596 33.7797C66.7333 34.1223 66.9202 34.5708 66.9202 35.1251V36.4706ZM63.5845 36.4706C63.5845 36.8257 63.6935 37.106 63.9115 37.3116C64.1358 37.5171 64.4534 37.6199 64.8646 37.6199C65.2757 37.6199 65.5934 37.5171 65.8176 37.3116C66.0419 37.106 66.154 36.8257 66.154 36.4706V35.1251C66.154 34.7639 66.0419 34.4804 65.8176 34.2749C65.5934 34.0631 65.2757 33.9572 64.8646 33.9572C64.4534 33.9572 64.1358 34.0631 63.9115 34.2749C63.6935 34.4804 63.5845 34.7639 63.5845 35.1251V36.4706ZM69.8569 38.1992H69.2962C69.2277 38.1992 69.1935 38.165 69.1935 38.0964V34.06H67.7359C67.6611 34.06 67.6237 34.0226 67.6237 33.9478V33.4807C67.6237 33.4059 67.6611 33.3685 67.7359 33.3685H71.4079C71.4827 33.3685 71.52 33.4059 71.52 33.4807V33.9478C71.52 34.0226 71.4827 34.06 71.4079 34.06H69.9596V38.0964C69.9596 38.165 69.9254 38.1992 69.8569 38.1992ZM72.5686 33.6021C73.1479 33.3779 73.7521 33.2658 74.3813 33.2658C75.0229 33.2658 75.5305 33.4339 75.9043 33.7703C76.278 34.1005 76.4649 34.6081 76.4649 35.2933V36.3211C76.4649 36.9378 76.278 37.4237 75.9043 37.7788C75.5305 38.1276 75.0353 38.302 74.4186 38.302C73.9888 38.302 73.6026 38.2054 73.26 38.0123V39.8717C73.26 39.9403 73.2226 39.9745 73.1479 39.9745H72.5966C72.5281 39.9745 72.4938 39.9403 72.4938 39.8717V33.7236C72.4938 33.6613 72.5187 33.6208 72.5686 33.6021ZM74.3719 37.6199C75.2502 37.6199 75.6894 37.187 75.6894 36.3211V35.2933C75.6894 34.3901 75.2471 33.9385 74.3626 33.9385C73.9265 33.9385 73.559 34.0008 73.26 34.1254V37.2835C73.5839 37.5078 73.9546 37.6199 74.3719 37.6199ZM81.5198 35.1251V36.0408C81.5198 36.1156 81.4855 36.153 81.417 36.153H78.3616V36.5454C78.3616 36.888 78.4737 37.1527 78.698 37.3396C78.9222 37.5265 79.215 37.6199 79.5763 37.6199C80.0871 37.6199 80.5636 37.4455 81.0059 37.0967C81.0681 37.0593 81.118 37.0686 81.1554 37.1247L81.4263 37.4798C81.4699 37.5296 81.4637 37.5794 81.4076 37.6293C80.8719 38.0778 80.2552 38.302 79.5576 38.302C79.0156 38.302 78.5516 38.1494 78.1654 37.8442C77.7792 37.5327 77.5861 37.0998 77.5861 36.5454V35.1251C77.5861 34.5209 77.7761 34.06 78.156 33.7423C78.5422 33.4246 79.0125 33.2658 79.5669 33.2658C80.1151 33.2658 80.576 33.4246 80.9498 33.7423C81.3298 34.06 81.5198 34.5209 81.5198 35.1251ZM80.7723 35.1251C80.7723 34.7452 80.6601 34.4555 80.4359 34.2562C80.2179 34.0569 79.9282 33.9572 79.5669 33.9572C79.1994 33.9572 78.9066 34.0569 78.6886 34.2562C78.4706 34.4493 78.3616 34.7389 78.3616 35.1251V35.5176H80.7723V35.1251ZM83.506 33.9385C83.8735 33.7205 84.2971 33.6115 84.7768 33.6115C85.3685 33.6115 85.8419 33.7797 86.197 34.116C86.5521 34.4462 86.7296 34.9196 86.7296 35.5363V36.3772C86.7296 36.9939 86.5365 37.4704 86.1503 37.8068C85.7703 38.1369 85.2938 38.302 84.7207 38.302C84.1601 38.302 83.6898 38.1369 83.3098 37.8068C82.9298 37.4704 82.7398 36.9939 82.7398 36.3772V33.4993C82.7398 32.9636 82.9143 32.5338 83.2631 32.2099C83.6181 31.8798 84.048 31.668 84.5525 31.5745C84.5837 31.5683 84.7176 31.5465 84.9543 31.5091C85.191 31.4655 85.3966 31.4219 85.571 31.3783C85.7516 31.3285 85.9042 31.2693 86.0288 31.2008C86.0973 31.1697 86.1441 31.1852 86.169 31.2475L86.4026 31.6586C86.4337 31.7209 86.4212 31.7677 86.3652 31.7988C86.2655 31.8549 86.1409 31.9078 85.9914 31.9576C85.8419 32.0075 85.7111 32.0448 85.599 32.0698C85.4869 32.0947 85.3436 32.1258 85.1692 32.1632C84.9948 32.2006 84.8827 32.2255 84.8328 32.2379C83.9483 32.4373 83.506 32.864 83.506 33.518V33.9385ZM84.7207 37.6199C85.082 37.6199 85.3779 37.514 85.6083 37.3022C85.8388 37.0904 85.9541 36.7821 85.9541 36.3772V35.555C85.9541 35.1438 85.8482 34.8293 85.6364 34.6112C85.4308 34.3932 85.1287 34.2842 84.73 34.2842C84.2629 34.2842 83.8548 34.3963 83.506 34.6206V36.3772C83.506 36.7821 83.6181 37.0904 83.8424 37.3022C84.0729 37.514 84.3656 37.6199 84.7207 37.6199ZM88.7853 38.1992H88.1219C88.0534 38.1992 88.0192 38.165 88.0192 38.0964V33.4807C88.0192 33.4059 88.0534 33.3685 88.1219 33.3685H88.6732C88.7417 33.3685 88.776 33.4059 88.776 33.4807V35.9661C88.776 36.072 88.7729 36.262 88.7667 36.536C88.7667 36.8039 88.7667 36.9939 88.7667 37.106C89.1093 36.4831 89.3833 36.0159 89.5889 35.7045L91.0932 33.4433C91.1244 33.3935 91.168 33.3685 91.224 33.3685H91.8781C91.9466 33.3685 91.9809 33.4059 91.9809 33.4807V38.0964C91.9809 38.165 91.9466 38.1992 91.8781 38.1992H91.3362C91.2614 38.1992 91.224 38.165 91.224 38.0964V35.6858C91.224 35.3556 91.2303 34.9663 91.2427 34.5178H91.2334C90.9842 34.985 90.7164 35.4366 90.4298 35.8726L88.9162 38.1338C88.8912 38.1774 88.8476 38.1992 88.7853 38.1992ZM95.1907 38.1992H94.63C94.5615 38.1992 94.5273 38.165 94.5273 38.0964V34.06H93.0696C92.9949 34.06 92.9575 34.0226 92.9575 33.9478V33.4807C92.9575 33.4059 92.9949 33.3685 93.0696 33.3685H96.7417C96.8165 33.3685 96.8538 33.4059 96.8538 33.4807V33.9478C96.8538 34.0226 96.8165 34.06 96.7417 34.06H95.2934V38.0964C95.2934 38.165 95.2592 38.1992 95.1907 38.1992ZM101.502 35.1251V36.0408C101.502 36.1156 101.468 36.153 101.399 36.153H98.3439V36.5454C98.3439 36.888 98.4561 37.1527 98.6803 37.3396C98.9046 37.5265 99.1973 37.6199 99.5586 37.6199C100.069 37.6199 100.546 37.4455 100.988 37.0967C101.05 37.0593 101.1 37.0686 101.138 37.1247L101.409 37.4798C101.452 37.5296 101.446 37.5794 101.39 37.6293C100.854 38.0778 100.238 38.302 99.5399 38.302C98.998 38.302 98.5339 38.1494 98.1477 37.8442C97.7615 37.5327 97.5684 37.0998 97.5684 36.5454V35.1251C97.5684 34.5209 97.7584 34.06 98.1384 33.7423C98.5246 33.4246 98.9949 33.2658 99.5493 33.2658C100.097 33.2658 100.558 33.4246 100.932 33.7423C101.312 34.06 101.502 34.5209 101.502 35.1251ZM100.755 35.1251C100.755 34.7452 100.642 34.4555 100.418 34.2562C100.2 34.0569 99.9106 33.9572 99.5493 33.9572C99.1817 33.9572 98.889 34.0569 98.671 34.2562C98.4529 34.4493 98.3439 34.7389 98.3439 35.1251V35.5176H100.755V35.1251ZM103.845 36.536C103.739 37.1714 103.577 37.6106 103.359 37.8535C103.141 38.0964 102.795 38.2241 102.321 38.2366C102.253 38.2366 102.219 38.2023 102.219 38.1338V37.6573C102.219 37.595 102.253 37.5576 102.321 37.5452C102.54 37.5327 102.708 37.4455 102.826 37.2835C102.944 37.1216 103.038 36.8101 103.106 36.3492C103.206 35.664 103.284 34.7078 103.34 33.4807C103.34 33.4059 103.377 33.3685 103.452 33.3685H106.507C106.582 33.3685 106.62 33.4059 106.62 33.4807V38.0964C106.62 38.165 106.582 38.1992 106.507 38.1992H105.956C105.888 38.1992 105.853 38.165 105.853 38.0964V34.06H104.059C104.028 34.8511 103.957 35.6764 103.845 36.536ZM110.046 38.1992H108.196C108.127 38.1992 108.093 38.165 108.093 38.0964V33.4807C108.093 33.4059 108.127 33.3685 108.196 33.3685H108.747C108.822 33.3685 108.859 33.4059 108.859 33.4807V34.985H110.046C110.619 34.985 111.07 35.1314 111.4 35.4241C111.737 35.7169 111.905 36.1156 111.905 36.6201C111.905 37.1558 111.743 37.5545 111.419 37.8161C111.095 38.0715 110.637 38.1992 110.046 38.1992ZM108.859 35.639V37.5452H109.924C110.728 37.5452 111.129 37.2306 111.129 36.6014C111.136 36.2838 111.036 36.0439 110.83 35.882C110.631 35.72 110.329 35.639 109.924 35.639H108.859ZM116.501 37.7601C116.008 38.1214 115.457 38.302 114.847 38.302C114.236 38.302 113.75 38.1369 113.389 37.8068C113.028 37.4704 112.847 37.0344 112.847 36.4987V35.0784C112.847 34.5427 113.028 34.1067 113.389 33.7703C113.75 33.4339 114.233 33.2658 114.837 33.2658C115.379 33.2658 115.887 33.4215 116.36 33.7329C116.423 33.7765 116.432 33.8295 116.388 33.8918L116.145 34.2749C116.102 34.3309 116.052 34.3403 115.996 34.3029C115.641 34.0724 115.261 33.9572 114.856 33.9572C114.464 33.9572 114.158 34.06 113.94 34.2655C113.722 34.4711 113.613 34.7421 113.613 35.0784V36.4987C113.613 36.8413 113.722 37.1154 113.94 37.3209C114.158 37.5202 114.46 37.6199 114.847 37.6199C115.277 37.6199 115.694 37.4829 116.099 37.2088C116.155 37.159 116.205 37.1652 116.248 37.2275L116.519 37.6106C116.563 37.6729 116.557 37.7227 116.501 37.7601ZM121.431 38.1992H120.777C120.721 38.1992 120.675 38.1774 120.637 38.1338L118.871 36.0128L118.339 36.5454V38.0964C118.339 38.165 118.301 38.1992 118.227 38.1992H117.694C117.625 38.1992 117.591 38.165 117.591 38.0964V33.4807C117.591 33.4059 117.625 33.3685 117.694 33.3685H118.227C118.301 33.3685 118.339 33.4059 118.339 33.4807V35.6017L120.488 33.4246C120.519 33.3872 120.562 33.3685 120.619 33.3685H121.291C121.335 33.3685 121.363 33.3841 121.375 33.4153C121.388 33.4402 121.378 33.4682 121.347 33.4993L119.385 35.4802L121.497 38.0684C121.522 38.1058 121.528 38.1369 121.516 38.1618C121.503 38.1868 121.475 38.1992 121.431 38.1992ZM123.17 38.1992H122.507C122.439 38.1992 122.404 38.165 122.404 38.0964V33.4807C122.404 33.4059 122.439 33.3685 122.507 33.3685H123.058C123.127 33.3685 123.161 33.4059 123.161 33.4807V35.9661C123.161 36.072 123.158 36.262 123.152 36.536C123.152 36.8039 123.152 36.9939 123.152 37.106C123.494 36.4831 123.768 36.0159 123.974 35.7045L125.478 33.4433C125.509 33.3935 125.553 33.3685 125.609 33.3685H126.263C126.332 33.3685 126.366 33.4059 126.366 33.4807V38.0964C126.366 38.165 126.332 38.1992 126.263 38.1992H125.721C125.647 38.1992 125.609 38.165 125.609 38.0964V35.6858C125.609 35.3556 125.615 34.9663 125.628 34.5178H125.619C125.369 34.985 125.101 35.4366 124.815 35.8726L123.301 38.1338C123.276 38.1774 123.233 38.1992 123.17 38.1992ZM128.604 38.1992H127.941C127.872 38.1992 127.838 38.165 127.838 38.0964V33.4807C127.838 33.4059 127.872 33.3685 127.941 33.3685H128.492C128.56 33.3685 128.595 33.4059 128.595 33.4807V35.9661C128.595 36.072 128.592 36.262 128.585 36.536C128.585 36.8039 128.585 36.9939 128.585 37.106C128.928 36.4831 129.202 36.0159 129.408 35.7045L130.912 33.4433C130.943 33.3935 130.987 33.3685 131.043 33.3685H131.697C131.765 33.3685 131.8 33.4059 131.8 33.4807V38.0964C131.8 38.165 131.765 38.1992 131.697 38.1992H131.155C131.08 38.1992 131.043 38.165 131.043 38.0964V35.6858C131.043 35.3556 131.049 34.9663 131.061 34.5178H131.052C130.803 34.985 130.535 35.4366 130.249 35.8726L128.735 38.1338C128.71 38.1774 128.666 38.1992 128.604 38.1992ZM131.23 31.3503C131.186 31.7303 131.036 32.0355 130.781 32.266C130.532 32.4965 130.199 32.6117 129.781 32.6117C129.37 32.6117 129.04 32.4996 128.791 32.2753C128.548 32.0448 128.402 31.7396 128.352 31.3596C128.339 31.2911 128.37 31.2506 128.445 31.2382L128.819 31.1915C128.881 31.1852 128.922 31.2133 128.94 31.2755C129.028 31.7739 129.308 32.023 129.781 32.023C130.267 32.023 130.554 31.7739 130.641 31.2755C130.647 31.2133 130.688 31.1852 130.762 31.1915L131.127 31.2382C131.202 31.2506 131.236 31.288 131.23 31.3503ZM139.397 38.1992H138.743C138.687 38.1992 138.64 38.1774 138.603 38.1338L136.837 36.0128L136.304 36.5454V38.0964C136.304 38.165 136.267 38.1992 136.192 38.1992H135.66C135.591 38.1992 135.557 38.165 135.557 38.0964V33.4807C135.557 33.4059 135.591 33.3685 135.66 33.3685H136.192C136.267 33.3685 136.304 33.4059 136.304 33.4807V35.6017L138.454 33.4246C138.485 33.3872 138.528 33.3685 138.584 33.3685H139.257C139.301 33.3685 139.329 33.3841 139.341 33.4153C139.354 33.4402 139.344 33.4682 139.313 33.4993L137.351 35.4802L139.463 38.0684C139.488 38.1058 139.494 38.1369 139.481 38.1618C139.469 38.1868 139.441 38.1992 139.397 38.1992ZM144.057 36.4706C144.057 37.025 143.871 37.4704 143.497 37.8068C143.129 38.1369 142.631 38.302 142.002 38.302C141.373 38.302 140.871 38.1338 140.497 37.7974C140.13 37.4611 139.946 37.0188 139.946 36.4706V35.1251C139.946 34.5708 140.133 34.1223 140.507 33.7797C140.881 33.4371 141.379 33.2658 142.002 33.2658C142.631 33.2658 143.129 33.4371 143.497 33.7797C143.871 34.1223 144.057 34.5708 144.057 35.1251V36.4706ZM140.722 36.4706C140.722 36.8257 140.831 37.106 141.049 37.3116C141.273 37.5171 141.591 37.6199 142.002 37.6199C142.413 37.6199 142.731 37.5171 142.955 37.3116C143.179 37.106 143.291 36.8257 143.291 36.4706V35.1251C143.291 34.7639 143.179 34.4804 142.955 34.2749C142.731 34.0631 142.413 33.9572 142.002 33.9572C141.591 33.9572 141.273 34.0631 141.049 34.2749C140.831 34.4804 140.722 34.7639 140.722 35.1251V36.4706ZM149.29 36.4706C149.29 37.025 149.103 37.4704 148.73 37.8068C148.362 38.1369 147.864 38.302 147.235 38.302C146.605 38.302 146.104 38.1338 145.73 37.7974C145.363 37.4611 145.179 37.0188 145.179 36.4706V35.1251C145.179 34.5708 145.366 34.1223 145.74 33.7797C146.113 33.4371 146.612 33.2658 147.235 33.2658C147.864 33.2658 148.362 33.4371 148.73 33.7797C149.103 34.1223 149.29 34.5708 149.29 35.1251V36.4706ZM145.955 36.4706C145.955 36.8257 146.064 37.106 146.282 37.3116C146.506 37.5171 146.823 37.6199 147.235 37.6199C147.646 37.6199 147.963 37.5171 148.188 37.3116C148.412 37.106 148.524 36.8257 148.524 36.4706V35.1251C148.524 34.7639 148.412 34.4804 148.188 34.2749C147.963 34.0631 147.646 33.9572 147.235 33.9572C146.823 33.9572 146.506 34.0631 146.282 34.2749C146.064 34.4804 145.955 34.7639 145.955 35.1251V36.4706ZM150.701 33.3685H154.299C154.367 33.3685 154.402 33.4059 154.402 33.4807V38.0964C154.402 38.165 154.367 38.1992 154.299 38.1992H153.748C153.673 38.1992 153.635 38.165 153.635 38.0964V34.06H151.356V38.0964C151.356 38.165 151.321 38.1992 151.253 38.1992H150.701C150.627 38.1992 150.589 38.165 150.589 38.0964V33.4807C150.589 33.4059 150.627 33.3685 150.701 33.3685ZM159.642 35.1251V36.0408C159.642 36.1156 159.608 36.153 159.54 36.153H156.484V36.5454C156.484 36.888 156.596 37.1527 156.821 37.3396C157.045 37.5265 157.338 37.6199 157.699 37.6199C158.21 37.6199 158.686 37.4455 159.129 37.0967C159.191 37.0593 159.241 37.0686 159.278 37.1247L159.549 37.4798C159.593 37.5296 159.586 37.5794 159.53 37.6293C158.995 38.0778 158.378 38.302 157.68 38.302C157.138 38.302 156.674 38.1494 156.288 37.8442C155.902 37.5327 155.709 37.0998 155.709 36.5454V35.1251C155.709 34.5209 155.899 34.06 156.279 33.7423C156.665 33.4246 157.135 33.2658 157.69 33.2658C158.238 33.2658 158.699 33.4246 159.072 33.7423C159.452 34.06 159.642 34.5209 159.642 35.1251ZM158.895 35.1251C158.895 34.7452 158.783 34.4555 158.559 34.2562C158.341 34.0569 158.051 33.9572 157.69 33.9572C157.322 33.9572 157.029 34.0569 156.811 34.2562C156.593 34.4493 156.484 34.7389 156.484 35.1251V35.5176H158.895V35.1251ZM160.965 33.6021C161.545 33.3779 162.149 33.2658 162.778 33.2658C163.42 33.2658 163.927 33.4339 164.301 33.7703C164.675 34.1005 164.862 34.6081 164.862 35.2933V36.3211C164.862 36.9378 164.675 37.4237 164.301 37.7788C163.927 38.1276 163.432 38.302 162.815 38.302C162.386 38.302 161.999 38.2054 161.657 38.0123V39.8717C161.657 39.9403 161.619 39.9745 161.545 39.9745H160.993C160.925 39.9745 160.891 39.9403 160.891 39.8717V33.7236C160.891 33.6613 160.915 33.6208 160.965 33.6021ZM162.769 37.6199C163.647 37.6199 164.086 37.187 164.086 36.3211V35.2933C164.086 34.3901 163.644 33.9385 162.759 33.9385C162.323 33.9385 161.956 34.0008 161.657 34.1254V37.2835C161.981 37.5078 162.351 37.6199 162.769 37.6199ZM166.076 33.7516C166.55 33.4277 167.138 33.2658 167.842 33.2658C168.428 33.2658 168.882 33.4215 169.206 33.7329C169.536 34.0382 169.702 34.4867 169.702 35.0784V37.8815C169.702 37.9438 169.674 37.9843 169.617 38.003C169.069 38.2023 168.468 38.302 167.814 38.302C167.235 38.302 166.755 38.1774 166.375 37.9283C165.995 37.6791 165.805 37.2929 165.805 36.7696C165.805 36.29 165.986 35.9225 166.347 35.6671C166.708 35.4117 167.197 35.284 167.814 35.284C168.138 35.284 168.512 35.3214 168.935 35.3961V35.0971C168.935 34.7109 168.848 34.4244 168.674 34.2375C168.499 34.0506 168.213 33.9572 167.814 33.9572C167.316 33.9572 166.874 34.0724 166.487 34.3029C166.431 34.3403 166.385 34.3309 166.347 34.2749L166.076 33.8824C166.045 33.8264 166.045 33.7828 166.076 33.7516ZM166.571 36.7696C166.571 37.0437 166.684 37.2555 166.908 37.405C167.138 37.5483 167.44 37.6199 167.814 37.6199C168.188 37.6199 168.562 37.5638 168.935 37.4517V36.0502C168.537 35.9754 168.163 35.938 167.814 35.938C166.986 35.938 166.571 36.2152 166.571 36.7696ZM172.757 38.1992H172.196C172.128 38.1992 172.093 38.165 172.093 38.0964V34.06H170.636C170.561 34.06 170.524 34.0226 170.524 33.9478V33.4807C170.524 33.4059 170.561 33.3685 170.636 33.3685H174.308C174.383 33.3685 174.42 33.4059 174.42 33.4807V33.9478C174.42 34.0226 174.383 34.06 174.308 34.06H172.86V38.0964C172.86 38.165 172.825 38.1992 172.757 38.1992ZM176.169 38.1992H175.506C175.437 38.1992 175.403 38.165 175.403 38.0964V33.4807C175.403 33.4059 175.437 33.3685 175.506 33.3685H176.057C176.126 33.3685 176.16 33.4059 176.16 33.4807V35.9661C176.16 36.072 176.157 36.262 176.151 36.536C176.151 36.8039 176.151 36.9939 176.151 37.106C176.493 36.4831 176.767 36.0159 176.973 35.7045L178.477 33.4433C178.508 33.3935 178.552 33.3685 178.608 33.3685H179.262C179.33 33.3685 179.365 33.4059 179.365 33.4807V38.0964C179.365 38.165 179.33 38.1992 179.262 38.1992H178.72C178.645 38.1992 178.608 38.165 178.608 38.0964V35.6858C178.608 35.3556 178.614 34.9663 178.627 34.5178H178.617C178.368 34.985 178.1 35.4366 177.814 35.8726L176.3 38.1338C176.275 38.1774 176.232 38.1992 176.169 38.1992ZM182.845 38.1992H180.939C180.871 38.1992 180.837 38.165 180.837 38.0964V33.4807C180.837 33.4059 180.871 33.3685 180.939 33.3685H182.845C183.369 33.3685 183.777 33.4869 184.07 33.7236C184.362 33.9603 184.509 34.2624 184.509 34.6299C184.509 35.122 184.275 35.4615 183.808 35.6484C184.393 35.8602 184.686 36.2651 184.686 36.8631C184.686 37.2555 184.521 37.5763 184.191 37.8255C183.861 38.0746 183.412 38.1992 182.845 38.1992ZM181.603 34.0039V35.4148H182.817C183.104 35.4148 183.328 35.3525 183.49 35.2279C183.658 35.1033 183.742 34.9258 183.742 34.6953C183.742 34.4773 183.662 34.3091 183.5 34.1908C183.344 34.0662 183.116 34.0039 182.817 34.0039H181.603ZM181.603 36.0128V37.5732H182.817C183.546 37.5732 183.911 37.3085 183.911 36.779C183.911 36.2682 183.546 36.0128 182.817 36.0128H181.603Z" fill="#F2F2F2"/>
<defs>
<linearGradient id="paint0_linear_447_1415" x1="-5.89615" y1="51" x2="54.3842" y2="7.69971" gradientUnits="userSpaceOnUse">
<stop stop-color="#50CC91"/>
<stop offset="1" stop-color="#0094FF"/>
</linearGradient>
<clipPath id="clip0_447_1415">
<rect width="48" height="42" fill="white" transform="translate(0 2)"/>
</clipPath>
</defs>
</svg>
