<svg width="137" height="32" viewBox="0 0 137 32" fill="none" xmlns="http://www.w3.org/2000/svg">
<path d="M53.4163 22.5204H51.146C50.9279 22.5204 50.8189 22.405 50.8189 22.1741V20H42.4302C42.1994 20 42.0839 19.8846 42.0839 19.6537V6.58972C42.0839 6.35884 42.1994 6.2434 42.4302 6.2434H44.8352C45.0661 6.2434 45.1816 6.35884 45.1816 6.58972V17.0948H49.3759V6.58972C49.3759 6.35884 49.4849 6.2434 49.703 6.2434H52.1272C52.3452 6.2434 52.4543 6.35884 52.4543 6.58972V17.0948H53.4163C53.6343 17.0948 53.7434 17.2038 53.7434 17.4218V22.1741C53.7434 22.405 53.6343 22.5204 53.4163 22.5204ZM58.166 20H55.8187C55.5878 20 55.4724 19.8846 55.4724 19.6537V10.3223C55.4724 10.1042 55.5878 9.9952 55.8187 9.9952H58.0313C58.2622 9.9952 58.3776 10.1042 58.3776 10.3223V13.343C58.3776 13.9715 58.3648 14.786 58.3392 15.7864H58.3584C58.6791 15.0681 59.1793 14.1254 59.8591 12.9582L61.3791 10.2261C61.4432 10.0722 61.5715 9.9952 61.7639 9.9952H64.1496C64.3805 9.9952 64.496 10.1042 64.496 10.3223V19.6537C64.496 19.8846 64.3805 20 64.1496 20H61.937C61.719 20 61.61 19.8846 61.61 19.6537V16.633C61.61 15.9275 61.6228 15.1259 61.6484 14.228H61.6292C61.3214 14.9591 60.8147 15.9211 60.1092 17.114L58.57 19.7691C58.4931 19.923 58.3584 20 58.166 20ZM74.1555 23.6556H71.9429C71.7248 23.6556 71.6158 23.5466 71.6158 23.3285V20H70.4614C69.307 20 68.3258 19.6409 67.5177 18.9226C66.7096 18.2043 66.3056 17.1525 66.3056 15.7672V14.2472C66.3056 12.862 66.7096 11.8102 67.5177 11.0919C68.3386 10.3608 69.3519 9.9952 70.5576 9.9952H71.6158V6.58972C71.6158 6.35884 71.7248 6.2434 71.9429 6.2434H74.1555C74.3735 6.2434 74.4826 6.35884 74.4826 6.58972V9.9952H75.6177C76.8106 9.9952 77.7983 10.3608 78.5807 11.0919C79.3759 11.8102 79.7736 12.862 79.7736 14.2472V15.7672C79.7736 17.1525 79.3759 18.2043 78.5807 18.9226C77.7854 19.6409 76.8234 20 75.6947 20H74.4826V23.3285C74.4826 23.5466 74.3735 23.6556 74.1555 23.6556ZM69.2108 15.7672C69.2108 16.3444 69.3455 16.7677 69.6149 17.037C69.8842 17.2936 70.2883 17.4218 70.827 17.4218H71.6158V12.5541H70.7693C69.7303 12.5541 69.2108 13.1057 69.2108 14.2088V15.7672ZM74.4826 17.4218H75.2522C76.3424 17.4218 76.8876 16.8703 76.8876 15.7672V14.2088C76.8876 13.1057 76.3681 12.5541 75.3291 12.5541H74.4826V17.4218ZM81.8196 10.457C83.1151 9.96955 84.4747 9.72584 85.8985 9.72584C87.271 9.72584 88.3741 10.1171 89.2078 10.8995C90.0415 11.6691 90.4584 12.7337 90.4584 14.0933V15.9981C90.4584 17.2936 90.0736 18.3261 89.304 19.0957C88.5344 19.8653 87.5275 20.2501 86.2833 20.2501C85.6548 20.2501 85.0648 20.1411 84.5132 19.923V23.3093C84.5132 23.5402 84.4042 23.6556 84.1861 23.6556H81.9158C81.6849 23.6556 81.5695 23.5402 81.5695 23.3093V10.8225C81.5695 10.6301 81.6529 10.5083 81.8196 10.457ZM85.86 17.6912C86.9375 17.6912 87.4762 17.1461 87.4762 16.0558V14.0356C87.4762 12.9069 86.9311 12.3425 85.8408 12.3425C85.3405 12.3425 84.898 12.413 84.5132 12.5541V17.3641C84.8852 17.5822 85.3341 17.6912 85.86 17.6912ZM101.111 16.1712C101.111 17.4411 100.701 18.4416 99.88 19.1727C99.0719 19.891 97.9624 20.2501 96.5515 20.2501C95.1405 20.2501 94.0246 19.891 93.2037 19.1727C92.3828 18.4416 91.9723 17.4411 91.9723 16.1712V13.8624C91.9723 12.5798 92.3828 11.5729 93.2037 10.8418C94.0246 10.0978 95.1405 9.72584 96.5515 9.72584C97.9624 9.72584 99.0719 10.0978 99.88 10.8418C100.701 11.5729 101.111 12.5798 101.111 13.8624V16.1712ZM94.9738 16.1712C94.9738 17.1589 95.4997 17.6527 96.5515 17.6527C97.6032 17.6527 98.1291 17.1589 98.1291 16.1712V13.8624C98.1291 13.375 97.9945 13.0031 97.7251 12.7465C97.4557 12.4772 97.0645 12.3425 96.5515 12.3425C96.0384 12.3425 95.6472 12.4772 95.3778 12.7465C95.1085 13.0031 94.9738 13.375 94.9738 13.8624V16.1712ZM107.608 20H103.299C103.068 20 102.952 19.8846 102.952 19.6537V10.3223C102.952 10.1042 103.068 9.9952 103.299 9.9952H107.474C108.692 9.9952 109.641 10.2389 110.321 10.7263C111.014 11.2137 111.36 11.8935 111.36 12.7658C111.36 13.5995 110.975 14.2472 110.206 14.709C111.181 15.1323 111.668 15.9147 111.668 17.0563C111.668 17.967 111.303 18.6853 110.571 19.2112C109.853 19.7371 108.865 20 107.608 20ZM105.877 12.1886V13.9394H107.32C108.064 13.9394 108.436 13.6444 108.436 13.0544C108.436 12.4772 108.057 12.1886 107.301 12.1886H105.877ZM105.877 15.8826V17.8066H107.397C108.269 17.8066 108.705 17.4796 108.705 16.8254C108.705 16.1969 108.269 15.8826 107.397 15.8826H105.877ZM122.23 16.1712C122.23 17.4411 121.82 18.4416 120.999 19.1727C120.191 19.891 119.081 20.2501 117.67 20.2501C116.259 20.2501 115.144 19.891 114.323 19.1727C113.502 18.4416 113.091 17.4411 113.091 16.1712V13.8624C113.091 12.5798 113.502 11.5729 114.323 10.8418C115.144 10.0978 116.259 9.72584 117.67 9.72584C119.081 9.72584 120.191 10.0978 120.999 10.8418C121.82 11.5729 122.23 12.5798 122.23 13.8624V16.1712ZM116.093 16.1712C116.093 17.1589 116.619 17.6527 117.67 17.6527C118.722 17.6527 119.248 17.1589 119.248 16.1712V13.8624C119.248 13.375 119.113 13.0031 118.844 12.7465C118.575 12.4772 118.183 12.3425 117.67 12.3425C117.157 12.3425 116.766 12.4772 116.497 12.7465C116.227 13.0031 116.093 13.375 116.093 13.8624V16.1712ZM132.518 13.824V15.671C132.518 15.8891 132.402 15.9981 132.171 15.9981H126.726V16.3059C126.726 16.7933 126.874 17.1653 127.169 17.4218C127.464 17.6655 127.868 17.7874 128.381 17.7874C129.215 17.7874 130.029 17.5565 130.825 17.0948C130.991 16.9665 131.139 16.9921 131.267 17.1717L132.268 18.4993C132.396 18.6917 132.377 18.852 132.21 18.9803C131.107 19.8268 129.798 20.2501 128.285 20.2501C126.964 20.2501 125.88 19.9038 125.033 19.2112C124.187 18.5185 123.763 17.5309 123.763 16.2482V13.824C123.763 12.4643 124.18 11.4446 125.014 10.7648C125.848 10.0722 126.919 9.72584 128.227 9.72584C129.497 9.72584 130.529 10.0657 131.325 10.7456C132.12 11.4254 132.518 12.4515 132.518 13.824ZM129.689 13.6893C129.689 13.189 129.555 12.8107 129.285 12.5541C129.016 12.2976 128.657 12.1693 128.208 12.1693C127.22 12.1693 126.726 12.676 126.726 13.6893V14.0933H129.689V13.6893Z" fill="#262626"/>
<g clip-path="url(#clip0_426_195)">
<path fill-rule="evenodd" clip-rule="evenodd" d="M14.3523 7.52443L4.47316 11.0072C3.84947 11.2271 3.43237 11.8159 3.43237 12.4765V24.1642L1.24741 25.1186C0.458029 25.4632 0.0979058 26.3819 0.443068 27.1704C0.788246 27.959 1.70798 28.3186 2.49737 27.9738L4.83054 26.9549L15.2481 31.8515C15.6687 32.0493 16.1558 32.0493 16.5766 31.8515L26.994 26.9549L29.3271 27.9738C30.1165 28.3186 31.0362 27.959 31.3815 27.1704C31.7267 26.3819 31.3665 25.4632 30.5771 25.1186L28.3922 24.1642V12.4765C28.3922 11.8159 27.9751 11.2271 27.3514 11.0072L17.4723 7.52441V5.51047C17.4723 4.64989 16.7738 3.95227 15.9123 3.95227C15.0508 3.95227 14.3523 4.64991 14.3523 5.51047V7.52443ZM15.9123 15.509L9.10927 12.6776L15.393 10.4623C15.729 10.3439 16.0955 10.3439 16.4315 10.4623L22.7153 12.6776L15.9123 15.509ZM17.4723 18.2358L25.2722 14.9895V24.32L17.4723 27.9863V18.2358ZM14.3523 18.2358L6.55234 14.9895V24.32L14.3523 27.9863V18.2358Z" fill="url(#paint0_linear_426_195)"/>
</g>
<path d="M42.083 26.9863H44.7382C44.7888 26.9863 44.8141 27.0139 44.8141 27.0691V30.476C44.8141 30.5265 44.7888 30.5518 44.7382 30.5518H44.3313C44.2761 30.5518 44.2485 30.5265 44.2485 30.476V27.4967H42.5658V30.476C42.5658 30.5265 42.5405 30.5518 42.4899 30.5518H42.083C42.0279 30.5518 42.0003 30.5265 42.0003 30.476V27.0691C42.0003 27.0139 42.0279 26.9863 42.083 26.9863ZM48.6685 29.276C48.6685 29.6852 48.5306 30.0139 48.2547 30.2622C47.9835 30.5058 47.6156 30.6277 47.1513 30.6277C46.6869 30.6277 46.3168 30.5035 46.0409 30.2553C45.7697 30.007 45.634 29.6806 45.634 29.276V28.2829C45.634 27.8737 45.772 27.5426 46.0478 27.2898C46.3237 27.0369 46.6915 26.9105 47.1513 26.9105C47.6156 26.9105 47.9835 27.0369 48.2547 27.2898C48.5306 27.5426 48.6685 27.8737 48.6685 28.2829V29.276ZM46.2065 29.276C46.2065 29.538 46.2869 29.7449 46.4478 29.8966C46.6134 30.0484 46.8478 30.1242 47.1513 30.1242C47.4547 30.1242 47.6892 30.0484 47.8547 29.8966C48.0202 29.7449 48.103 29.538 48.103 29.276V28.2829C48.103 28.0162 48.0202 27.807 47.8547 27.6553C47.6892 27.499 47.4547 27.4208 47.1513 27.4208C46.8478 27.4208 46.6134 27.499 46.4478 27.6553C46.2869 27.807 46.2065 28.0162 46.2065 28.2829V29.276ZM50.6981 30.5518H50.2844C50.2338 30.5518 50.2085 30.5265 50.2085 30.476V27.4967H49.1326C49.0775 27.4967 49.0499 27.4691 49.0499 27.4139V27.0691C49.0499 27.0139 49.0775 26.9863 49.1326 26.9863H51.843C51.8981 26.9863 51.9257 27.0139 51.9257 27.0691V27.4139C51.9257 27.4691 51.8981 27.4967 51.843 27.4967H50.774V30.476C50.774 30.5265 50.7487 30.5518 50.6981 30.5518ZM52.5617 27.1587C52.9893 26.9932 53.4353 26.9105 53.8996 26.9105C54.3732 26.9105 54.7479 27.0346 55.0238 27.2829C55.2996 27.5265 55.4376 27.9013 55.4376 28.407V29.1656C55.4376 29.6208 55.2996 29.9794 55.0238 30.2415C54.7479 30.4989 54.3824 30.6277 53.9272 30.6277C53.61 30.6277 53.3249 30.5564 53.0721 30.4139V31.7863C53.0721 31.8369 53.0445 31.8622 52.9893 31.8622H52.5824C52.5318 31.8622 52.5065 31.8369 52.5065 31.7863V27.2484C52.5065 27.2024 52.5249 27.1725 52.5617 27.1587ZM53.8927 30.1242C54.541 30.1242 54.8652 29.8047 54.8652 29.1656V28.407C54.8652 27.7403 54.5387 27.407 53.8858 27.407C53.564 27.407 53.2927 27.453 53.0721 27.5449V29.876C53.3111 30.0415 53.5847 30.1242 53.8927 30.1242ZM59.0306 28.2829V28.9587C59.0306 29.0139 59.0053 29.0415 58.9547 29.0415H56.6996V29.3311C56.6996 29.584 56.7823 29.7794 56.9479 29.9173C57.1134 30.0553 57.3295 30.1242 57.5961 30.1242C57.9731 30.1242 58.3249 29.9955 58.6513 29.738C58.6973 29.7104 58.7341 29.7173 58.7616 29.7587L58.9616 30.0208C58.9938 30.0576 58.9892 30.0943 58.9478 30.1311C58.5524 30.4622 58.0973 30.6277 57.5823 30.6277C57.1823 30.6277 56.8398 30.515 56.5547 30.2898C56.2697 30.0599 56.1272 29.7403 56.1272 29.3311V28.2829C56.1272 27.8369 56.2674 27.4967 56.5479 27.2622C56.8329 27.0277 57.18 26.9105 57.5892 26.9105C57.9938 26.9105 58.3341 27.0277 58.6099 27.2622C58.8904 27.4967 59.0306 27.8369 59.0306 28.2829ZM58.4789 28.2829C58.4789 28.0024 58.3961 27.7886 58.2306 27.6415C58.0697 27.4944 57.8559 27.4208 57.5892 27.4208C57.318 27.4208 57.1019 27.4944 56.941 27.6415C56.78 27.784 56.6996 27.9978 56.6996 28.2829V28.5725H58.4789V28.2829ZM60.3587 27.407C60.63 27.2461 60.9426 27.1656 61.2966 27.1656C61.7334 27.1656 62.0829 27.2898 62.3449 27.538C62.607 27.7817 62.738 28.1311 62.738 28.5863V29.207C62.738 29.6622 62.5955 30.0139 62.3104 30.2622C62.03 30.5058 61.6783 30.6277 61.2553 30.6277C60.8415 30.6277 60.4944 30.5058 60.2139 30.2622C59.9334 30.0139 59.7932 29.6622 59.7932 29.207V27.0829C59.7932 26.6875 59.9219 26.3702 60.1794 26.1311C60.4415 25.8875 60.7587 25.7311 61.1311 25.6622C61.1541 25.6576 61.253 25.6415 61.4277 25.6139C61.6024 25.5817 61.7541 25.5495 61.8829 25.5174C62.0162 25.4806 62.1288 25.4369 62.2208 25.3863C62.2714 25.3633 62.3058 25.3748 62.3242 25.4208L62.4966 25.7242C62.5196 25.7702 62.5104 25.8047 62.4691 25.8277C62.3955 25.8691 62.3035 25.9082 62.1932 25.9449C62.0829 25.9817 61.9863 26.0093 61.9035 26.0277C61.8208 26.0461 61.715 26.0691 61.5863 26.0967C61.4576 26.1242 61.3748 26.1426 61.338 26.1518C60.6852 26.299 60.3587 26.6139 60.3587 27.0967V27.407ZM61.2553 30.1242C61.5219 30.1242 61.7403 30.0461 61.9104 29.8898C62.0806 29.7334 62.1656 29.5058 62.1656 29.207V28.6001C62.1656 28.2967 62.0875 28.0645 61.9311 27.9036C61.7794 27.7426 61.5564 27.6622 61.2622 27.6622C60.9173 27.6622 60.6162 27.7449 60.3587 27.9104V29.207C60.3587 29.5058 60.4415 29.7334 60.607 29.8898C60.7771 30.0461 60.9932 30.1242 61.2553 30.1242ZM64.1174 30.5518H63.6278C63.5772 30.5518 63.5519 30.5265 63.5519 30.476V27.0691C63.5519 27.0139 63.5772 26.9863 63.6278 26.9863H64.0347C64.0853 26.9863 64.1105 27.0139 64.1105 27.0691V28.9035C64.1105 28.9817 64.1082 29.1219 64.1036 29.3242C64.1036 29.5219 64.1036 29.6622 64.1036 29.7449C64.3565 29.2852 64.5588 28.9403 64.7105 28.7104L65.8209 27.0415C65.8439 27.0047 65.8761 26.9863 65.9174 26.9863H66.4002C66.4508 26.9863 66.476 27.0139 66.476 27.0691V30.476C66.476 30.5265 66.4508 30.5518 66.4002 30.5518H66.0002C65.945 30.5518 65.9174 30.5265 65.9174 30.476V28.6967C65.9174 28.453 65.922 28.1656 65.9312 27.8346H65.9243C65.7404 28.1794 65.5427 28.5127 65.3312 28.8346L64.214 30.5035C64.1956 30.5357 64.1634 30.5518 64.1174 30.5518ZM68.7072 30.5518H68.2934C68.2429 30.5518 68.2176 30.5265 68.2176 30.476V27.4967H67.1417C67.0866 27.4967 67.059 27.4691 67.059 27.4139V27.0691C67.059 27.0139 67.0866 26.9863 67.1417 26.9863H69.8521C69.9072 26.9863 69.9348 27.0139 69.9348 27.0691V27.4139C69.9348 27.4691 69.9072 27.4967 69.8521 27.4967H68.7831V30.476C68.7831 30.5265 68.7578 30.5518 68.7072 30.5518ZM73.2278 28.2829V28.9587C73.2278 29.0139 73.2025 29.0415 73.1519 29.0415H70.8967V29.3311C70.8967 29.584 70.9795 29.7794 71.145 29.9173C71.3105 30.0553 71.5266 30.1242 71.7933 30.1242C72.1703 30.1242 72.522 29.9955 72.8484 29.738C72.8944 29.7104 72.9312 29.7173 72.9588 29.7587L73.1588 30.0208C73.191 30.0576 73.1864 30.0943 73.145 30.1311C72.7496 30.4622 72.2944 30.6277 71.7795 30.6277C71.3795 30.6277 71.037 30.515 70.7519 30.2898C70.4668 30.0599 70.3243 29.7403 70.3243 29.3311V28.2829C70.3243 27.8369 70.4645 27.4967 70.745 27.2622C71.0301 27.0277 71.3772 26.9105 71.7864 26.9105C72.191 26.9105 72.5312 27.0277 72.8071 27.2622C73.0875 27.4967 73.2278 27.8369 73.2278 28.2829ZM72.676 28.2829C72.676 28.0024 72.5933 27.7886 72.4278 27.6415C72.2668 27.4944 72.053 27.4208 71.7864 27.4208C71.5151 27.4208 71.299 27.4944 71.1381 27.6415C70.9772 27.784 70.8967 27.9978 70.8967 28.2829V28.5725H72.676V28.2829ZM74.8187 29.3242C74.7406 29.7932 74.621 30.1173 74.4601 30.2966C74.2992 30.476 74.044 30.5702 73.6946 30.5794C73.644 30.5794 73.6188 30.5541 73.6188 30.5035V30.1518C73.6188 30.1058 73.644 30.0783 73.6946 30.0691C73.8555 30.0599 73.9797 29.9955 74.067 29.876C74.1544 29.7564 74.2233 29.5265 74.2739 29.1863C74.3475 28.6806 74.405 27.9748 74.4463 27.0691C74.4463 27.0139 74.4739 26.9863 74.5291 26.9863H76.7843C76.8394 26.9863 76.867 27.0139 76.867 27.0691V30.476C76.867 30.5265 76.8394 30.5518 76.7843 30.5518H76.3774C76.3268 30.5518 76.3015 30.5265 76.3015 30.476V27.4967H74.9774C74.9544 28.0806 74.9015 28.6898 74.8187 29.3242ZM79.2578 30.5518H77.8923C77.8417 30.5518 77.8164 30.5265 77.8164 30.476V27.0691C77.8164 27.0139 77.8417 26.9863 77.8923 26.9863H78.2992C78.3543 26.9863 78.3819 27.0139 78.3819 27.0691V28.1794H79.2578C79.6808 28.1794 80.0141 28.2875 80.2578 28.5036C80.5061 28.7196 80.6302 29.0139 80.6302 29.3863C80.6302 29.7817 80.5107 30.076 80.2716 30.2691C80.0325 30.4576 79.6946 30.5518 79.2578 30.5518ZM78.3819 28.6622V30.0691H79.1681C79.7612 30.0691 80.0578 29.8369 80.0578 29.3725C80.0624 29.138 79.9888 28.961 79.8371 28.8415C79.69 28.7219 79.467 28.6622 79.1681 28.6622H78.3819ZM83.8842 30.2277C83.521 30.4943 83.1141 30.6277 82.6635 30.6277C82.213 30.6277 81.8544 30.5058 81.5877 30.2622C81.321 30.0139 81.1877 29.6921 81.1877 29.2967V28.2484C81.1877 27.853 81.321 27.5311 81.5877 27.2829C81.8544 27.0346 82.2107 26.9105 82.6567 26.9105C83.0566 26.9105 83.4314 27.0254 83.7808 27.2553C83.8268 27.2875 83.8337 27.3265 83.8015 27.3725L83.6222 27.6553C83.59 27.6967 83.5532 27.7036 83.5118 27.676C83.2498 27.5059 82.9693 27.4208 82.6704 27.4208C82.3808 27.4208 82.1555 27.4967 81.9946 27.6484C81.8337 27.8001 81.7532 28.0001 81.7532 28.2484V29.2967C81.7532 29.5495 81.8337 29.7518 81.9946 29.9035C82.1555 30.0507 82.3785 30.1242 82.6635 30.1242C82.9808 30.1242 83.2888 30.0231 83.5877 29.8208C83.6291 29.784 83.6658 29.7886 83.698 29.8346L83.898 30.1173C83.9302 30.1633 83.9256 30.2001 83.8842 30.2277ZM87.3858 30.5518H86.903C86.8616 30.5518 86.8272 30.5357 86.7996 30.5035L85.4961 28.938L85.103 29.3311V30.476C85.103 30.5265 85.0754 30.5518 85.0203 30.5518H84.6272C84.5766 30.5518 84.5513 30.5265 84.5513 30.476V27.0691C84.5513 27.0139 84.5766 26.9863 84.6272 26.9863H85.0203C85.0754 26.9863 85.103 27.0139 85.103 27.0691V28.6346L86.6892 27.0277C86.7122 27.0001 86.7444 26.9863 86.7858 26.9863H87.2823C87.3145 26.9863 87.3352 26.9978 87.3444 27.0208C87.3536 27.0392 87.3467 27.0599 87.3237 27.0829L85.8754 28.5449L87.4341 30.4553C87.4524 30.4829 87.457 30.5058 87.4478 30.5242C87.4387 30.5426 87.418 30.5518 87.3858 30.5518ZM90.6875 29.276C90.6875 29.6852 90.5496 30.0139 90.2737 30.2622C90.0024 30.5058 89.6346 30.6277 89.1703 30.6277C88.7059 30.6277 88.3358 30.5035 88.0599 30.2553C87.7887 30.007 87.653 29.6806 87.653 29.276V28.2829C87.653 27.8737 87.791 27.5426 88.0668 27.2898C88.3427 27.0369 88.7105 26.9105 89.1703 26.9105C89.6346 26.9105 90.0024 27.0369 90.2737 27.2898C90.5496 27.5426 90.6875 27.8737 90.6875 28.2829V29.276ZM88.2254 29.276C88.2254 29.538 88.3059 29.7449 88.4668 29.8966C88.6323 30.0484 88.8668 30.1242 89.1703 30.1242C89.4737 30.1242 89.7082 30.0484 89.8737 29.8966C90.0392 29.7449 90.122 29.538 90.122 29.276V28.2829C90.122 28.0162 90.0392 27.807 89.8737 27.6553C89.7082 27.499 89.4737 27.4208 89.1703 27.4208C88.8668 27.4208 88.6323 27.499 88.4668 27.6553C88.3059 27.807 88.2254 28.0162 88.2254 28.2829V29.276ZM94.2878 28.2829V28.9587C94.2878 29.0139 94.2625 29.0415 94.2119 29.0415H91.9567V29.3311C91.9567 29.584 92.0395 29.7794 92.205 29.9173C92.3705 30.0553 92.5866 30.1242 92.8533 30.1242C93.2303 30.1242 93.582 29.9955 93.9084 29.738C93.9544 29.7104 93.9912 29.7173 94.0188 29.7587L94.2188 30.0208C94.251 30.0576 94.2464 30.0943 94.205 30.1311C93.8096 30.4622 93.3544 30.6277 92.8395 30.6277C92.4395 30.6277 92.097 30.515 91.8119 30.2898C91.5268 30.0599 91.3843 29.7403 91.3843 29.3311V28.2829C91.3843 27.8369 91.5245 27.4967 91.805 27.2622C92.0901 27.0277 92.4372 26.9105 92.8464 26.9105C93.251 26.9105 93.5912 27.0277 93.8671 27.2622C94.1475 27.4967 94.2878 27.8369 94.2878 28.2829ZM93.736 28.2829C93.736 28.0024 93.6533 27.7886 93.4878 27.6415C93.3268 27.4944 93.113 27.4208 92.8464 27.4208C92.5751 27.4208 92.359 27.4944 92.1981 27.6415C92.0372 27.784 91.9567 27.9978 91.9567 28.2829V28.5725H93.736V28.2829ZM99.5304 29.276C99.5304 29.6852 99.3925 30.0139 99.1166 30.2622C98.8454 30.5058 98.4775 30.6277 98.0132 30.6277C97.5488 30.6277 97.1787 30.5035 96.9028 30.2553C96.6316 30.007 96.4959 29.6806 96.4959 29.276V28.2829C96.4959 27.8737 96.6339 27.5426 96.9097 27.2898C97.1856 27.0369 97.5534 26.9105 98.0132 26.9105C98.4775 26.9105 98.8454 27.0369 99.1166 27.2898C99.3925 27.5426 99.5304 27.8737 99.5304 28.2829V29.276ZM97.0683 29.276C97.0683 29.538 97.1488 29.7449 97.3097 29.8966C97.4752 30.0484 97.7097 30.1242 98.0132 30.1242C98.3166 30.1242 98.5511 30.0484 98.7166 29.8966C98.8821 29.7449 98.9649 29.538 98.9649 29.276V28.2829C98.9649 28.0162 98.8821 27.807 98.7166 27.6553C98.5511 27.499 98.3166 27.4208 98.0132 27.4208C97.7097 27.4208 97.4752 27.499 97.3097 27.6553C97.1488 27.807 97.0683 28.0162 97.0683 28.2829V29.276ZM100.889 27.407C101.161 27.2461 101.473 27.1656 101.827 27.1656C102.264 27.1656 102.613 27.2898 102.875 27.538C103.138 27.7817 103.269 28.1311 103.269 28.5863V29.207C103.269 29.6622 103.126 30.0139 102.841 30.2622C102.561 30.5058 102.209 30.6277 101.786 30.6277C101.372 30.6277 101.025 30.5058 100.744 30.2622C100.464 30.0139 100.324 29.6622 100.324 29.207V27.0829C100.324 26.6875 100.453 26.3702 100.71 26.1311C100.972 25.8875 101.289 25.7311 101.662 25.6622C101.685 25.6576 101.784 25.6415 101.958 25.6139C102.133 25.5817 102.285 25.5495 102.413 25.5174C102.547 25.4806 102.659 25.4369 102.751 25.3863C102.802 25.3633 102.836 25.3748 102.855 25.4208L103.027 25.7242C103.05 25.7702 103.041 25.8047 103 25.8277C102.926 25.8691 102.834 25.9082 102.724 25.9449C102.613 25.9817 102.517 26.0093 102.434 26.0277C102.351 26.0461 102.246 26.0691 102.117 26.0967C101.988 26.1242 101.905 26.1426 101.869 26.1518C101.216 26.299 100.889 26.6139 100.889 27.0967V27.407ZM101.786 30.1242C102.053 30.1242 102.271 30.0461 102.441 29.8898C102.611 29.7334 102.696 29.5058 102.696 29.207V28.6001C102.696 28.2967 102.618 28.0645 102.462 27.9036C102.31 27.7426 102.087 27.6622 101.793 27.6622C101.448 27.6622 101.147 27.7449 100.889 27.9104V29.207C100.889 29.5058 100.972 29.7334 101.138 29.8898C101.308 30.0461 101.524 30.1242 101.786 30.1242ZM108.855 31.4553H108.482C108.432 31.4553 108.407 31.43 108.407 31.3794V30.5518H104.158C104.108 30.5518 104.082 30.5265 104.082 30.476V27.0691C104.082 27.0139 104.108 26.9863 104.158 26.9863H104.565C104.616 26.9863 104.641 27.0139 104.641 27.0691V30.0415H106.014V27.0691C106.014 27.0139 106.039 26.9863 106.089 26.9863H106.496C106.547 26.9863 106.572 27.0139 106.572 27.0691V30.0415H107.945V27.0691C107.945 27.0139 107.97 26.9863 108.02 26.9863H108.427C108.478 26.9863 108.503 27.0139 108.503 27.0691V30.0484H108.855C108.905 30.0484 108.931 30.0737 108.931 30.1242V31.3794C108.931 31.43 108.905 31.4553 108.855 31.4553ZM112.351 28.2829V28.9587C112.351 29.0139 112.325 29.0415 112.275 29.0415H110.02V29.3311C110.02 29.584 110.102 29.7794 110.268 29.9173C110.433 30.0553 110.65 30.1242 110.916 30.1242C111.293 30.1242 111.645 29.9955 111.971 29.738C112.017 29.7104 112.054 29.7173 112.082 29.7587L112.282 30.0208C112.314 30.0576 112.309 30.0943 112.268 30.1311C111.873 30.4622 111.417 30.6277 110.902 30.6277C110.502 30.6277 110.16 30.515 109.875 30.2898C109.59 30.0599 109.447 29.7403 109.447 29.3311V28.2829C109.447 27.8369 109.588 27.4967 109.868 27.2622C110.153 27.0277 110.5 26.9105 110.909 26.9105C111.314 26.9105 111.654 27.0277 111.93 27.2622C112.21 27.4967 112.351 27.8369 112.351 28.2829ZM111.799 28.2829C111.799 28.0024 111.716 27.7886 111.551 27.6415C111.39 27.4944 111.176 27.4208 110.909 27.4208C110.638 27.4208 110.422 27.4944 110.261 27.6415C110.1 27.784 110.02 27.9978 110.02 28.2829V28.5725H111.799V28.2829ZM115.713 30.2277C115.35 30.4943 114.943 30.6277 114.493 30.6277C114.042 30.6277 113.683 30.5058 113.417 30.2622C113.15 30.0139 113.017 29.6921 113.017 29.2967V28.2484C113.017 27.853 113.15 27.5311 113.417 27.2829C113.683 27.0346 114.04 26.9105 114.486 26.9105C114.886 26.9105 115.26 27.0254 115.61 27.2553C115.656 27.2875 115.663 27.3265 115.631 27.3725L115.451 27.6553C115.419 27.6967 115.382 27.7036 115.341 27.676C115.079 27.5059 114.798 27.4208 114.5 27.4208C114.21 27.4208 113.985 27.4967 113.824 27.6484C113.663 27.8001 113.582 28.0001 113.582 28.2484V29.2967C113.582 29.5495 113.663 29.7518 113.824 29.9035C113.985 30.0507 114.208 30.1242 114.493 30.1242C114.81 30.1242 115.118 30.0231 115.417 29.8208C115.458 29.784 115.495 29.7886 115.527 29.8346L115.727 30.1173C115.759 30.1633 115.755 30.2001 115.713 30.2277ZM117.663 30.5518H117.249C117.199 30.5518 117.174 30.5265 117.174 30.476V27.4967H116.098C116.042 27.4967 116.015 27.4691 116.015 27.4139V27.0691C116.015 27.0139 116.042 26.9863 116.098 26.9863H118.808C118.863 26.9863 118.891 27.0139 118.891 27.0691V27.4139C118.891 27.4691 118.863 27.4967 118.808 27.4967H117.739V30.476C117.739 30.5265 117.714 30.5518 117.663 30.5518ZM120.961 30.5518H119.554C119.504 30.5518 119.478 30.5265 119.478 30.476V27.0691C119.478 27.0139 119.504 26.9863 119.554 26.9863H120.961C121.347 26.9863 121.649 27.0737 121.865 27.2484C122.081 27.4231 122.189 27.6461 122.189 27.9173C122.189 28.2806 122.016 28.5311 121.672 28.6691C122.104 28.8254 122.32 29.1242 122.32 29.5656C122.32 29.8553 122.198 30.0921 121.954 30.276C121.711 30.4599 121.38 30.5518 120.961 30.5518ZM120.044 27.4553V28.4967H120.941C121.152 28.4967 121.318 28.4507 121.437 28.3587C121.561 28.2668 121.623 28.1357 121.623 27.9656C121.623 27.8047 121.563 27.6806 121.444 27.5932C121.329 27.5013 121.161 27.4553 120.941 27.4553H120.044ZM120.044 28.938V30.0898H120.941C121.478 30.0898 121.747 29.8943 121.747 29.5035C121.747 29.1265 121.478 28.938 120.941 28.938H120.044ZM125.999 29.276C125.999 29.6852 125.861 30.0139 125.585 30.2622C125.313 30.5058 124.946 30.6277 124.481 30.6277C124.017 30.6277 123.647 30.5035 123.371 30.2553C123.1 30.007 122.964 29.6806 122.964 29.276V28.2829C122.964 27.8737 123.102 27.5426 123.378 27.2898C123.654 27.0369 124.022 26.9105 124.481 26.9105C124.946 26.9105 125.313 27.0369 125.585 27.2898C125.861 27.5426 125.999 27.8737 125.999 28.2829V29.276ZM123.536 29.276C123.536 29.538 123.617 29.7449 123.778 29.8966C123.943 30.0484 124.178 30.1242 124.481 30.1242C124.785 30.1242 125.019 30.0484 125.185 29.8966C125.35 29.7449 125.433 29.538 125.433 29.276V28.2829C125.433 28.0162 125.35 27.807 125.185 27.6553C125.019 27.499 124.785 27.4208 124.481 27.4208C124.178 27.4208 123.943 27.499 123.778 27.6553C123.617 27.807 123.536 28.0162 123.536 28.2829V29.276Z" fill="#262626"/>
<defs>
<linearGradient id="paint0_linear_426_195" x1="-3.90917" y1="36.6745" x2="36.2524" y2="8.03349" gradientUnits="userSpaceOnUse">
<stop stop-color="#50CC91"/>
<stop offset="1" stop-color="#0094FF"/>
</linearGradient>
<clipPath id="clip0_426_195">
<rect width="31.8237" height="28.0476" fill="white" transform="translate(0 3.95233)"/>
</clipPath>
</defs>
</svg>
