<svg width="30" height="26" viewBox="0 0 30 26" fill="none" xmlns="http://www.w3.org/2000/svg">
<path fill-rule="evenodd" clip-rule="evenodd" d="M13.5838 3.49769L4.61224 6.6641C4.04584 6.864 3.66706 7.39936 3.66706 8V18.626L1.68284 19.4937C0.965976 19.8071 0.638938 20.6423 0.95239 21.3592C1.26586 22.0762 2.10109 22.4031 2.81796 22.0896L4.93678 21.1633L14.3973 25.6151C14.7792 25.7949 15.2216 25.7949 15.6037 25.6151L25.064 21.1633L27.1828 22.0896C27.8996 22.4031 28.7349 22.0762 29.0484 21.3592C29.3619 20.6423 29.0348 19.8071 28.318 19.4937L26.3338 18.626V8C26.3338 7.39936 25.955 6.864 25.3886 6.6641L16.4171 3.49768V1.66667C16.4171 0.884256 15.7828 0.25 15.0005 0.25C14.218 0.25 13.5838 0.88427 13.5838 1.66667V3.49769ZM15.0005 10.757L8.82241 8.18278L14.5289 6.16872C14.834 6.06104 15.1668 6.06104 15.4719 6.16872L21.1784 8.18278L15.0005 10.757ZM16.4171 13.2362L23.5005 10.2847V18.7677L16.4171 22.1009V13.2362ZM13.5838 13.2362L6.5004 10.2847V18.7677L13.5838 22.1009V13.2362Z" fill="url(#paint0_linear_314_1991)"/>
<defs>
<linearGradient id="paint0_linear_314_1991" x1="-3" y1="30" x2="33.5" y2="4" gradientUnits="userSpaceOnUse">
<stop stop-color="#50CC91"/>
<stop offset="1" stop-color="#0094FF"/>
</linearGradient>
</defs>
</svg>
