<svg width="177" height="136" viewBox="0 0 177 136" fill="none" xmlns="http://www.w3.org/2000/svg">
<g filter="url(#filter0_bd_362_334)">
<rect x="15" y="10" width="147" height="106" rx="7" fill="white" fill-opacity="0.9" shape-rendering="crispEdges"/>
</g>
<rect x="32" y="79" width="8" height="18" rx="4" fill="#0094FF"/>
<rect x="77" y="72" width="8" height="25" rx="4" fill="#0094FF"/>
<rect x="47" y="72" width="8" height="25" rx="4" fill="#33CC80"/>
<rect x="62" y="62" width="8" height="35" rx="4" fill="#33CC80"/>
<rect x="92" y="50" width="8" height="47" rx="4" fill="#33CC80"/>
<rect x="122" y="42" width="8" height="55" rx="4" fill="#33CC80"/>
<rect x="137" y="33" width="8" height="64" rx="4" fill="#33CC80"/>
<rect x="107" y="59" width="8" height="38" rx="4" fill="#0094FF"/>
<path d="M37.695 42H31.663C31.507 42 31.429 41.922 31.429 41.766V40.635C31.429 40.5223 31.468 40.427 31.546 40.349L33.678 38.204C34.4667 37.4153 35.0083 36.8303 35.303 36.449C35.5977 36.059 35.745 35.6863 35.745 35.331C35.745 35.0623 35.654 34.8413 35.472 34.668C35.2987 34.486 35.0213 34.395 34.64 34.395C34.0333 34.395 33.4223 34.694 32.807 35.292C32.703 35.4133 32.599 35.409 32.495 35.279L31.689 34.2C31.611 34.0787 31.6153 33.9703 31.702 33.875C32.5773 32.9823 33.5827 32.536 34.718 32.536C35.6453 32.536 36.3863 32.7787 36.941 33.264C37.4957 33.7407 37.773 34.4123 37.773 35.279C37.773 35.7817 37.656 36.254 37.422 36.696C37.1967 37.1293 36.824 37.645 36.304 38.243C35.7493 38.8757 35.108 39.5213 34.38 40.18H37.695C37.851 40.18 37.929 40.2537 37.929 40.401V41.766C37.929 41.922 37.851 42 37.695 42ZM45.8875 38.776C45.8875 39.8767 45.5755 40.7173 44.9515 41.298C44.3362 41.8787 43.5302 42.169 42.5335 42.169C41.5369 42.169 40.7265 41.8787 40.1025 41.298C39.4785 40.7173 39.1665 39.8767 39.1665 38.776V35.864C39.1665 34.7893 39.4785 33.966 40.1025 33.394C40.7265 32.822 41.5369 32.536 42.5335 32.536C43.5302 32.536 44.3362 32.822 44.9515 33.394C45.5755 33.966 45.8875 34.7893 45.8875 35.864V38.776ZM41.1815 38.867C41.1815 39.3437 41.3072 39.6947 41.5585 39.92C41.8099 40.1367 42.1349 40.245 42.5335 40.245C42.9322 40.245 43.2572 40.1367 43.5085 39.92C43.7599 39.6947 43.8855 39.3437 43.8855 38.867V35.825C43.8855 35.3483 43.7599 35.0017 43.5085 34.785C43.2572 34.5597 42.9322 34.447 42.5335 34.447C42.1349 34.447 41.8099 34.5597 41.5585 34.785C41.3072 35.0017 41.1815 35.3483 41.1815 35.825V38.867ZM53.2721 42H47.2401C47.0841 42 47.0061 41.922 47.0061 41.766V40.635C47.0061 40.5223 47.0451 40.427 47.1231 40.349L49.2551 38.204C50.0438 37.4153 50.5855 36.8303 50.8801 36.449C51.1748 36.059 51.3221 35.6863 51.3221 35.331C51.3221 35.0623 51.2311 34.8413 51.0491 34.668C50.8758 34.486 50.5985 34.395 50.2171 34.395C49.6105 34.395 48.9995 34.694 48.3841 35.292C48.2801 35.4133 48.1761 35.409 48.0721 35.279L47.2661 34.2C47.1881 34.0787 47.1925 33.9703 47.2791 33.875C48.1545 32.9823 49.1598 32.536 50.2951 32.536C51.2225 32.536 51.9635 32.7787 52.5181 33.264C53.0728 33.7407 53.3501 34.4123 53.3501 35.279C53.3501 35.7817 53.2331 36.254 52.9991 36.696C52.7738 37.1293 52.4011 37.645 51.8811 38.243C51.3265 38.8757 50.6851 39.5213 49.9571 40.18H53.2721C53.4281 40.18 53.5061 40.2537 53.5061 40.401V41.766C53.5061 41.922 53.4281 42 53.2721 42ZM60.7497 42H54.7177C54.5617 42 54.4837 41.922 54.4837 41.766V40.635C54.4837 40.5223 54.5227 40.427 54.6007 40.349L56.7327 38.204C57.5214 37.4153 58.063 36.8303 58.3577 36.449C58.6524 36.059 58.7997 35.6863 58.7997 35.331C58.7997 35.0623 58.7087 34.8413 58.5267 34.668C58.3534 34.486 58.076 34.395 57.6947 34.395C57.088 34.395 56.477 34.694 55.8617 35.292C55.7577 35.4133 55.6537 35.409 55.5497 35.279L54.7437 34.2C54.6657 34.0787 54.67 33.9703 54.7567 33.875C55.632 32.9823 56.6374 32.536 57.7727 32.536C58.7 32.536 59.441 32.7787 59.9957 33.264C60.5504 33.7407 60.8277 34.4123 60.8277 35.279C60.8277 35.7817 60.7107 36.254 60.4767 36.696C60.2514 37.1293 59.8787 37.645 59.3587 38.243C58.804 38.8757 58.1627 39.5213 57.4347 40.18H60.7497C60.9057 40.18 60.9837 40.2537 60.9837 40.401V41.766C60.9837 41.922 60.9057 42 60.7497 42Z" fill="#494949"/>
<line x1="72" y1="37.5" x2="116" y2="37.5" stroke="#D9D9D9"/>
<defs>
<filter id="filter0_bd_362_334" x="0" y="-5" width="177" height="141" filterUnits="userSpaceOnUse" color-interpolation-filters="sRGB">
<feFlood flood-opacity="0" result="BackgroundImageFix"/>
<feGaussianBlur in="BackgroundImageFix" stdDeviation="7.5"/>
<feComposite in2="SourceAlpha" operator="in" result="effect1_backgroundBlur_362_334"/>
<feColorMatrix in="SourceAlpha" type="matrix" values="0 0 0 0 0 0 0 0 0 0 0 0 0 0 0 0 0 0 127 0" result="hardAlpha"/>
<feOffset dy="5"/>
<feGaussianBlur stdDeviation="7.5"/>
<feComposite in2="hardAlpha" operator="out"/>
<feColorMatrix type="matrix" values="0 0 0 0 0 0 0 0 0 0 0 0 0 0 0 0 0 0 0.05 0"/>
<feBlend mode="normal" in2="effect1_backgroundBlur_362_334" result="effect2_dropShadow_362_334"/>
<feBlend mode="normal" in="SourceGraphic" in2="effect2_dropShadow_362_334" result="shape"/>
</filter>
</defs>
</svg>
