<svg width="80" height="80" viewBox="0 0 80 80" fill="none" xmlns="http://www.w3.org/2000/svg">
<circle cx="40" cy="40" r="40" fill="#33CC80"/>
<g clip-path="url(#clip0_458_191)">
<path d="M55.3509 47.2189C55.2612 47.1478 48.7501 42.4545 46.9629 42.7914C46.1098 42.9423 45.622 43.5242 44.6431 44.689C44.4856 44.8772 44.1072 45.3278 43.8129 45.6482C43.1943 45.4465 42.5908 45.2008 42.0072 44.9132C38.9944 43.4465 36.5603 41.0124 35.0936 37.9997C34.8058 37.416 34.5601 36.8126 34.3586 36.1939C34.6801 35.8986 35.1307 35.5201 35.3232 35.3582C36.4826 34.3848 37.0656 33.897 37.2165 33.0417C37.5261 31.2698 32.8361 24.7139 32.7868 24.6548C32.574 24.3508 32.2963 24.0979 31.9738 23.9145C31.6513 23.731 31.292 23.6215 30.922 23.5939C29.0211 23.5939 23.5939 30.6343 23.5939 31.82C23.5939 31.8889 23.6934 38.8932 32.3307 47.6793C41.1081 56.3068 48.1114 56.4064 48.1803 56.4064C49.367 56.4064 56.4064 50.9792 56.4064 49.0782C56.3791 48.7095 56.2702 48.3514 56.0877 48.0299C55.9052 47.7083 55.6535 47.4313 55.3509 47.2189Z" fill="white"/>
</g>
<defs>
<clipPath id="clip0_458_191">
<rect width="33.6" height="33.6" fill="white" transform="translate(23.2001 23.2001)"/>
</clipPath>
</defs>
</svg>
