<svg width="20" height="20" viewBox="0 0 20 20" fill="none" xmlns="http://www.w3.org/2000/svg">
<g clip-path="url(#clip0_352_216)">
<path d="M19.1667 18.3333H4.16667C3.50363 18.3333 2.86774 18.0699 2.3989 17.6011C1.93006 17.1323 1.66667 16.4964 1.66667 15.8333V0.833333C1.66667 0.61232 1.57887 0.400358 1.42259 0.244078C1.26631 0.0877974 1.05435 0 0.833333 0C0.61232 0 0.400358 0.0877974 0.244078 0.244078C0.0877974 0.400358 0 0.61232 0 0.833333L0 15.8333C0.00132321 16.938 0.440735 17.997 1.22185 18.7782C2.00296 19.5593 3.062 19.9987 4.16667 20H19.1667C19.3877 20 19.5996 19.9122 19.7559 19.7559C19.9122 19.5996 20 19.3877 20 19.1667C20 18.9457 19.9122 18.7337 19.7559 18.5774C19.5996 18.4211 19.3877 18.3333 19.1667 18.3333Z" fill="#33CC80"/>
<path d="M4.99996 16.6665C5.22097 16.6665 5.43293 16.5787 5.58921 16.4224C5.7455 16.2661 5.83329 16.0542 5.83329 15.8332V9.99984C5.83329 9.77882 5.7455 9.56686 5.58921 9.41058C5.43293 9.2543 5.22097 9.1665 4.99996 9.1665C4.77895 9.1665 4.56698 9.2543 4.4107 9.41058C4.25442 9.56686 4.16663 9.77882 4.16663 9.99984V15.8332C4.16663 16.0542 4.25442 16.2661 4.4107 16.4224C4.56698 16.5787 4.77895 16.6665 4.99996 16.6665Z" fill="#33CC80"/>
<path d="M8.33337 8.33333V15.8333C8.33337 16.0543 8.42117 16.2663 8.57745 16.4226C8.73373 16.5789 8.94569 16.6667 9.16671 16.6667C9.38772 16.6667 9.59968 16.5789 9.75596 16.4226C9.91224 16.2663 10 16.0543 10 15.8333V8.33333C10 8.11232 9.91224 7.90036 9.75596 7.74408C9.59968 7.5878 9.38772 7.5 9.16671 7.5C8.94569 7.5 8.73373 7.5878 8.57745 7.74408C8.42117 7.90036 8.33337 8.11232 8.33337 8.33333Z" fill="#33CC80"/>
<path d="M12.5 10.8333V15.8333C12.5 16.0543 12.5878 16.2663 12.7441 16.4226C12.9004 16.5789 13.1123 16.6667 13.3333 16.6667C13.5543 16.6667 13.7663 16.5789 13.9226 16.4226C14.0789 16.2663 14.1667 16.0543 14.1667 15.8333V10.8333C14.1667 10.6123 14.0789 10.4004 13.9226 10.2441C13.7663 10.0878 13.5543 10 13.3333 10C13.1123 10 12.9004 10.0878 12.7441 10.2441C12.5878 10.4004 12.5 10.6123 12.5 10.8333Z" fill="#33CC80"/>
<path d="M16.6666 7.49984V15.8332C16.6666 16.0542 16.7544 16.2661 16.9107 16.4224C17.067 16.5787 17.2789 16.6665 17.5 16.6665C17.721 16.6665 17.9329 16.5787 18.0892 16.4224C18.2455 16.2661 18.3333 16.0542 18.3333 15.8332V7.49984C18.3333 7.27882 18.2455 7.06686 18.0892 6.91058C17.9329 6.7543 17.721 6.6665 17.5 6.6665C17.2789 6.6665 17.067 6.7543 16.9107 6.91058C16.7544 7.06686 16.6666 7.27882 16.6666 7.49984Z" fill="#33CC80"/>
<path d="M5.00003 7.50001C5.22102 7.49997 5.43295 7.41214 5.58919 7.25585L8.57753 4.26751C8.73636 4.1162 8.94732 4.0318 9.16669 4.0318C9.38606 4.0318 9.59702 4.1162 9.75586 4.26751L11.5659 6.07751C12.0347 6.54619 12.6704 6.80948 13.3334 6.80948C13.9963 6.80948 14.632 6.54619 15.1009 6.07751L19.7559 1.42251C19.9077 1.26535 19.9917 1.05484 19.9898 0.836346C19.9879 0.617849 19.9002 0.408838 19.7457 0.254332C19.5912 0.0998249 19.3822 0.0121841 19.1637 0.0102854C18.9452 0.00838673 18.7347 0.0923821 18.5775 0.24418L13.9225 4.89835C13.7663 5.05457 13.5543 5.14234 13.3334 5.14234C13.1124 5.14234 12.9005 5.05457 12.7442 4.89835L10.9342 3.08918C10.4654 2.6205 9.8296 2.35721 9.16669 2.35721C8.50378 2.35721 7.86801 2.6205 7.39919 3.08918L4.41086 6.07751C4.29435 6.19406 4.21501 6.34253 4.18287 6.50415C4.15073 6.66578 4.16724 6.83331 4.23029 6.98556C4.29335 7.13781 4.40014 7.26794 4.53714 7.35952C4.67415 7.45109 4.83523 7.49998 5.00003 7.50001Z" fill="#33CC80"/>
</g>
<defs>
<clipPath id="clip0_352_216">
<rect width="20" height="20" fill="white"/>
</clipPath>
</defs>
</svg>
