<svg width="20" height="18" viewBox="0 0 20 18" fill="none" xmlns="http://www.w3.org/2000/svg">
<path d="M19.1678 17.1546C18.9468 17.1546 18.7348 17.0668 18.5785 16.9106C18.4223 16.7543 18.3345 16.5423 18.3345 16.3213C18.3331 14.9956 17.8059 13.7246 16.8685 12.7872C15.9311 11.8498 14.6601 11.3226 13.3345 11.3213H8.47613V12.643C8.47606 12.9726 8.37828 13.2947 8.19514 13.5687C8.012 13.8428 7.75172 14.0563 7.44722 14.1824C7.14272 14.3086 6.80767 14.3416 6.48441 14.2773C6.16116 14.213 5.86422 14.0543 5.63113 13.8213L0.731966 8.92214C0.263288 8.45333 0 7.81756 0 7.15464C0 6.49173 0.263288 5.85596 0.731966 5.38714L5.63113 0.487978C5.86422 0.254962 6.16116 0.0962851 6.48441 0.0320059C6.80767 -0.0322734 7.14272 0.000731436 7.44722 0.126848C7.75172 0.252965 8.012 0.466531 8.19514 0.740547C8.37828 1.01456 8.47606 1.33673 8.47613 1.66631V2.98798H12.5011C14.4896 2.99018 16.396 3.78107 17.802 5.18711C19.208 6.59316 19.9989 8.49953 20.0011 10.488V16.3213C20.0011 16.5423 19.9133 16.7543 19.7571 16.9106C19.6008 17.0668 19.3888 17.1546 19.1678 17.1546ZM6.80947 1.66631L1.9103 6.56548C1.75407 6.72175 1.66631 6.93367 1.66631 7.15464C1.66631 7.37562 1.75407 7.58754 1.9103 7.74381L6.80947 12.643V10.488C6.80947 10.267 6.89726 10.055 7.05354 9.89872C7.20982 9.74244 7.42179 9.65464 7.6428 9.65464H13.3345C14.2808 9.65436 15.2163 9.85596 16.0785 10.246C16.9407 10.636 17.7098 11.2054 18.3345 11.9163V10.488C18.3327 8.94142 17.7176 7.45872 16.624 6.36514C15.5304 5.27156 14.0477 4.65641 12.5011 4.65464H7.6428C7.42179 4.65464 7.20982 4.56685 7.05354 4.41057C6.89726 4.25429 6.80947 4.04233 6.80947 3.82131V1.66631Z" fill="#33CC80"/>
</svg>
