<svg width="24" height="24" viewBox="0 0 24 24" fill="none" xmlns="http://www.w3.org/2000/svg">
<g clip-path="url(#clip0_356_163)">
<path d="M14.5 15C18.636 15 22 11.636 22 7.5C22 3.364 18.636 0 14.5 0H10C7.243 0 5 2.243 5 5V13H3C2.448 13 2 13.447 2 14C2 14.553 2.448 15 3 15H5V17H3C2.448 17 2 17.447 2 18C2 18.553 2.448 19 3 19H5V23C5 23.553 5.448 24 6 24C6.552 24 7 23.553 7 23V19H15C15.552 19 16 18.553 16 18C16 17.447 15.552 17 15 17H7V15H14.5ZM7 5C7 3.346 8.346 2 10 2H14.5C17.533 2 20 4.468 20 7.5C20 10.532 17.533 13 14.5 13H7V5Z" fill="#33CC80"/>
</g>
<defs>
<clipPath id="clip0_356_163">
<rect width="24" height="24" fill="white"/>
</clipPath>
</defs>
</svg>
