<svg width="14" height="20" viewBox="0 0 14 20" fill="none" xmlns="http://www.w3.org/2000/svg">
<path d="M13.6667 6.66659C13.6691 5.5873 13.4093 4.52358 12.9099 3.56682C12.4104 2.61006 11.6861 1.78887 10.7992 1.17381C9.91233 0.558753 8.88937 0.168214 7.81824 0.0357528C6.74712 -0.0967088 5.65984 0.0328676 4.64984 0.413348C3.63985 0.793829 2.73732 1.41384 2.01983 2.2201C1.30233 3.02636 0.791311 3.99477 0.530678 5.04212C0.270046 6.08946 0.267593 7.18443 0.523531 8.23293C0.77947 9.28143 1.28615 10.2521 2.00002 11.0616V17.9166C2.00002 18.309 2.11087 18.6935 2.3198 19.0257C2.52874 19.358 2.82726 19.6244 3.18099 19.7944C3.53473 19.9644 3.92928 20.031 4.31921 19.9866C4.70915 19.9421 5.0786 19.7885 5.38503 19.5433L6.74003 18.4599C6.81386 18.401 6.90554 18.3688 7.00003 18.3688C7.09451 18.3688 7.18619 18.401 7.26003 18.4599L8.61502 19.5433C8.92145 19.7885 9.2909 19.9421 9.68084 19.9866C10.0708 20.031 10.4653 19.9644 10.8191 19.7944C11.1728 19.6244 11.4713 19.358 11.6802 19.0257C11.8892 18.6935 12 18.309 12 17.9166V11.0616C13.0736 9.84925 13.6664 8.28595 13.6667 6.66659ZM7.00003 1.66659C7.98893 1.66659 8.95563 1.95983 9.77788 2.50924C10.6001 3.05865 11.241 3.83954 11.6194 4.75317C11.9979 5.6668 12.0969 6.67213 11.904 7.64204C11.711 8.61194 11.2348 9.50286 10.5356 10.2021C9.8363 10.9014 8.94538 11.3776 7.97548 11.5705C7.00557 11.7634 6.00024 11.6644 5.08661 11.286C4.17298 10.9075 3.39208 10.2667 2.84268 9.44444C2.29327 8.62219 2.00002 7.65549 2.00002 6.66659C2.00135 5.34091 2.52856 4.06991 3.46595 3.13252C4.40335 2.19512 5.67435 1.66791 7.00003 1.66659ZM10.0975 18.2899C10.027 18.3249 9.94793 18.3387 9.86974 18.3299C9.79156 18.321 9.71758 18.2898 9.65669 18.2399L8.30169 17.1566C7.9329 16.8595 7.47358 16.6975 7.00003 16.6975C6.52647 16.6975 6.06715 16.8595 5.69836 17.1566L4.34419 18.2399C4.28305 18.289 4.20929 18.3198 4.1314 18.3289C4.05352 18.3379 3.97466 18.3248 3.90389 18.291C3.83313 18.2573 3.77333 18.2042 3.73137 18.138C3.68941 18.0717 3.66699 17.995 3.66669 17.9166V12.4316C4.67833 13.0221 5.82867 13.3332 7.00003 13.3332C8.17138 13.3332 9.32172 13.0221 10.3334 12.4316V17.9166C10.3343 17.9949 10.3125 18.0719 10.2707 18.1381C10.2288 18.2044 10.1687 18.2571 10.0975 18.2899Z" fill="#33CC80"/>
</svg>
