<svg width="34" height="36" viewBox="0 0 34 36" fill="none" xmlns="http://www.w3.org/2000/svg">
<path d="M29.7904 26.539H26.6035V25.3716C26.6035 24.2206 26.9826 23.0798 27.6712 22.1567C28.3952 21.3029 28.8099 20.1622 28.8099 19.023C28.8099 16.5693 26.9905 14.5333 24.6301 14.1912V0.703125C24.6301 0.314789 24.3153 0 23.9269 0H7.20804C7.02375 0 6.83841 0.0757969 6.7091 0.207633L1.19449 5.76021C1.06575 5.88987 0.990234 6.07296 0.990234 6.2557V26.8446C0.990234 27.2329 1.30502 27.5477 1.69336 27.5477C2.0817 27.5477 2.39648 27.2329 2.39648 26.8446V6.95862H7.20797C7.5963 6.95862 7.91109 6.64383 7.91109 6.25549V1.40625H23.2237V14.1903C20.8573 14.5343 19.0435 16.6327 19.0435 19.023C19.0435 20.1644 19.461 21.3083 20.1897 22.1657C20.8735 23.0866 21.2499 24.2242 21.2499 25.3716V26.5387H18.0635C16.502 26.5387 15.1183 27.7241 14.8815 29.2683H4.76088C4.37255 29.2683 4.05776 29.5831 4.05776 29.9714C4.05776 30.3597 4.37255 30.6745 4.76088 30.6745H14.8445V31.8346C14.8445 32.223 15.1593 32.5377 15.5476 32.5377H16.1704V33.7691C16.1704 34.9992 17.1712 36 18.4013 36H29.4525C30.6827 36 31.6835 34.9992 31.6835 33.7691V32.5377H32.3062C32.6945 32.5377 33.0093 32.223 33.0093 31.8346V29.7579C33.0093 27.983 31.5653 26.539 29.7904 26.539ZM6.50491 5.55237H3.38304L6.50491 2.40891V5.55237ZM31.6031 29.7579V31.1314H16.2506L16.2509 29.7576C16.2509 28.7715 17.0762 27.9451 18.0633 27.9451H29.7904C30.7899 27.9452 31.6031 28.7584 31.6031 29.7579ZM27.4037 19.023C27.4037 19.8892 27.0701 20.617 26.5599 21.2948C25.6812 22.4629 25.1973 23.9107 25.1973 25.3716V26.5387H22.6565V25.3716C22.6565 23.915 22.1756 22.4708 21.3025 21.305C21.293 21.2924 21.2831 21.2801 21.2729 21.2681C20.75 20.6602 20.4501 19.8419 20.4501 19.023C20.4501 17.1059 22.0098 15.5462 23.9269 15.5461C25.844 15.5462 27.4037 17.1059 27.4037 19.023ZM30.2772 33.7691C30.2772 34.2238 29.9072 34.5938 29.4525 34.5938H18.4013C17.9465 34.5938 17.5766 34.2238 17.5766 33.7691V32.5377H30.2773V33.7691H30.2772Z" fill="url(#paint0_linear_435_556)"/>
<path d="M15.9578 7.73193C16.3461 7.73193 16.6609 7.41714 16.6609 7.02881C16.6609 6.64047 16.3461 6.32568 15.9578 6.32568H10.7778C10.3895 6.32568 10.0747 6.64047 10.0747 7.02881C10.0747 7.41714 10.3895 7.73193 10.7778 7.73193H15.9578Z" fill="url(#paint1_linear_435_556)"/>
<path d="M6.08301 12.5508C6.08301 12.9391 6.3978 13.2539 6.78613 13.2539H19.0435C19.4318 13.2539 19.7466 12.9391 19.7466 12.5508C19.7466 12.1624 19.4318 11.8477 19.0435 11.8477H6.78613C6.3978 11.8477 6.08301 12.1625 6.08301 12.5508Z" fill="url(#paint2_linear_435_556)"/>
<path d="M6.78613 18.7759H16.4998C16.8881 18.7759 17.2029 18.4611 17.2029 18.0728C17.2029 17.6844 16.8881 17.3696 16.4998 17.3696H6.78613C6.3978 17.3696 6.08301 17.6844 6.08301 18.0728C6.08301 18.4611 6.3978 18.7759 6.78613 18.7759Z" fill="url(#paint3_linear_435_556)"/>
<path d="M6.78613 24.2979H16.4998C16.8881 24.2979 17.2029 23.9831 17.2029 23.5947C17.2029 23.2064 16.8881 22.8916 16.4998 22.8916H6.78613C6.3978 22.8916 6.08301 23.2064 6.08301 23.5947C6.08301 23.9831 6.3978 24.2979 6.78613 24.2979Z" fill="url(#paint4_linear_435_556)"/>
<path d="M2.34233 29.7028C2.19713 29.3486 1.77708 29.1755 1.42404 29.3224C1.0703 29.4696 0.898107 29.8861 1.04436 30.24C1.19054 30.5939 1.60819 30.7673 1.96194 30.6204C2.31511 30.4737 2.48977 30.0568 2.34233 29.7028Z" fill="url(#paint5_linear_435_556)"/>
<path d="M18.4588 7.42086C18.8099 7.94307 19.644 7.7578 19.7389 7.13405C19.8346 6.50623 19.0746 6.08689 18.5919 6.49203C18.321 6.71949 18.2624 7.12646 18.4588 7.42086Z" fill="url(#paint6_linear_435_556)"/>
<defs>
<linearGradient id="paint0_linear_435_556" x1="-3.34169" y1="42.0001" x2="43.5798" y2="15.2461" gradientUnits="userSpaceOnUse">
<stop stop-color="#50CC91"/>
<stop offset="1" stop-color="#0094FF"/>
</linearGradient>
<linearGradient id="paint1_linear_435_556" x1="9.18365" y1="7.96631" x2="10.4607" y2="4.13205" gradientUnits="userSpaceOnUse">
<stop stop-color="#50CC91"/>
<stop offset="1" stop-color="#0094FF"/>
</linearGradient>
<linearGradient id="paint2_linear_435_556" x1="4.23443" y1="13.4883" x2="4.90109" y2="9.33572" gradientUnits="userSpaceOnUse">
<stop stop-color="#50CC91"/>
<stop offset="1" stop-color="#0094FF"/>
</linearGradient>
<linearGradient id="paint3_linear_435_556" x1="4.57857" y1="19.0103" x2="5.38736" y2="14.9102" gradientUnits="userSpaceOnUse">
<stop stop-color="#50CC91"/>
<stop offset="1" stop-color="#0094FF"/>
</linearGradient>
<linearGradient id="paint4_linear_435_556" x1="4.57857" y1="24.5322" x2="5.38737" y2="20.4322" gradientUnits="userSpaceOnUse">
<stop stop-color="#50CC91"/>
<stop offset="1" stop-color="#0094FF"/>
</linearGradient>
<linearGradient id="paint5_linear_435_556" x1="0.802423" y1="30.9065" x2="2.73284" y2="29.669" gradientUnits="userSpaceOnUse">
<stop stop-color="#50CC91"/>
<stop offset="1" stop-color="#0094FF"/>
</linearGradient>
<linearGradient id="paint6_linear_435_556" x1="18.1528" y1="7.95732" x2="20.0764" y2="6.71411" gradientUnits="userSpaceOnUse">
<stop stop-color="#50CC91"/>
<stop offset="1" stop-color="#0094FF"/>
</linearGradient>
</defs>
</svg>
