<svg width="340" height="112" viewBox="0 0 340 112" fill="none" xmlns="http://www.w3.org/2000/svg">
<g filter="url(#filter0_bd_1008_25)">
<rect x="15" y="10" width="310" height="82" rx="3" fill="white" fill-opacity="0.9" shape-rendering="crispEdges"/>
</g>
<path d="M100.544 36.6C100.533 37.112 100.4 37.5813 100.144 38.008C99.8987 38.424 99.552 38.728 99.104 38.92C99.6587 39.144 100.091 39.496 100.4 39.976C100.709 40.456 100.864 41 100.864 41.608C100.864 42.7493 100.464 43.6347 99.664 44.264C98.8747 44.8827 97.856 45.192 96.608 45.192C94.9013 45.192 93.52 44.728 92.464 43.8C92.368 43.704 92.3573 43.592 92.432 43.464L93.184 42.376C93.2693 42.2373 93.376 42.2213 93.504 42.328C94.3147 43.032 95.344 43.384 96.592 43.384C97.2747 43.384 97.824 43.224 98.24 42.904C98.656 42.5733 98.864 42.1307 98.864 41.576C98.864 41.0747 98.6613 40.68 98.256 40.392C97.8507 40.0933 97.2267 39.944 96.384 39.944H95.008C94.8587 39.944 94.784 39.864 94.784 39.704V38.488C94.784 38.328 94.8587 38.248 95.008 38.248H96.368C97.0827 38.248 97.6267 38.0987 98 37.8C98.384 37.5013 98.576 37.1227 98.576 36.664C98.576 36.2267 98.4 35.8693 98.048 35.592C97.7067 35.304 97.2053 35.16 96.544 35.16C95.4347 35.16 94.5013 35.464 93.744 36.072C93.616 36.1787 93.504 36.168 93.408 36.04L92.672 34.984C92.5867 34.8667 92.6027 34.76 92.72 34.664C93.6693 33.8 94.944 33.368 96.544 33.368C97.7707 33.368 98.7467 33.6827 99.472 34.312C100.197 34.9413 100.555 35.704 100.544 36.6ZM102.585 37.368C103.406 36.8027 104.451 36.52 105.721 36.52C106.755 36.52 107.566 36.792 108.153 37.336C108.75 37.8693 109.049 38.68 109.049 39.768V44.44C109.049 44.568 108.99 44.6587 108.873 44.712C107.838 45.032 106.766 45.192 105.657 45.192C104.622 45.192 103.769 44.9787 103.097 44.552C102.425 44.1253 102.089 43.448 102.089 42.52C102.089 41.6773 102.403 41.0427 103.033 40.616C103.673 40.1787 104.526 39.96 105.593 39.96C106.019 39.96 106.553 40.0027 107.193 40.088V39.784C107.193 39.208 107.07 38.7973 106.825 38.552C106.59 38.296 106.179 38.168 105.593 38.168C104.803 38.168 104.121 38.3387 103.545 38.68C103.417 38.776 103.31 38.7547 103.225 38.616L102.585 37.64C102.51 37.5227 102.51 37.432 102.585 37.368ZM103.961 42.504C103.961 42.8667 104.115 43.1387 104.425 43.32C104.734 43.4907 105.145 43.576 105.657 43.576C106.147 43.576 106.659 43.512 107.193 43.384V41.576C106.617 41.4907 106.099 41.448 105.641 41.448C104.521 41.448 103.961 41.8 103.961 42.504ZM117.998 45H114.654C114.494 45 114.414 44.92 114.414 44.76V36.936C114.414 36.7867 114.494 36.712 114.654 36.712H117.998C118.916 36.712 119.641 36.92 120.174 37.336C120.718 37.7413 120.99 38.2747 120.99 38.936C120.99 39.672 120.665 40.232 120.014 40.616C120.857 40.9787 121.278 41.656 121.278 42.648C121.278 43.352 120.98 43.9227 120.382 44.36C119.785 44.7867 118.99 45 117.998 45ZM116.27 38.184V40.072H117.918C118.292 40.072 118.585 39.992 118.798 39.832C119.022 39.6613 119.134 39.4213 119.134 39.112C119.134 38.4933 118.724 38.184 117.902 38.184H116.27ZM116.27 41.432V43.528H117.918C118.91 43.528 119.406 43.1707 119.406 42.456C119.406 41.7733 118.91 41.432 117.918 41.432H116.27ZM124.738 45H123.154C122.994 45 122.914 44.92 122.914 44.76V36.936C122.914 36.7867 122.994 36.712 123.154 36.712H124.514C124.674 36.712 124.754 36.7867 124.754 36.936V40.2C124.754 40.8293 124.744 41.5493 124.722 42.36H124.738C125.048 41.6773 125.554 40.7547 126.258 39.592L127.858 36.856C127.944 36.76 128.04 36.712 128.146 36.712H129.746C129.906 36.712 129.986 36.7867 129.986 36.936V44.76C129.986 44.92 129.906 45 129.746 45H128.386C128.226 45 128.146 44.92 128.146 44.76V41.544C128.146 40.9147 128.157 40.216 128.178 39.448H128.162C127.949 39.9387 127.448 40.84 126.658 42.152L125.026 44.84C124.962 44.9467 124.866 45 124.738 45ZM132.168 37.096C133.149 36.712 134.227 36.52 135.4 36.52C136.509 36.52 137.4 36.8133 138.072 37.4C138.744 37.9867 139.08 38.8613 139.08 40.024V41.784C139.08 42.8187 138.749 43.6453 138.088 44.264C137.427 44.8827 136.579 45.192 135.544 45.192C134.957 45.192 134.392 45.0747 133.848 44.84V47.8C133.848 47.96 133.768 48.04 133.608 48.04H132.232C132.072 48.04 131.992 47.96 131.992 47.8V37.352C131.992 37.224 132.051 37.1387 132.168 37.096ZM135.384 43.56C136.589 43.56 137.192 42.9733 137.192 41.8V40.008C137.192 39.3467 137.037 38.872 136.728 38.584C136.419 38.296 135.96 38.152 135.352 38.152C134.712 38.152 134.211 38.2267 133.848 38.376V43.112C134.285 43.4107 134.797 43.56 135.384 43.56ZM144.008 45H142.632C142.472 45 142.392 44.92 142.392 44.76V38.344H140.152C139.992 38.344 139.912 38.264 139.912 38.104V36.936C139.912 36.7867 139.992 36.712 140.152 36.712H146.472C146.632 36.712 146.712 36.7867 146.712 36.936V38.104C146.712 38.264 146.632 38.344 146.472 38.344H144.248V44.76C144.248 44.92 144.168 45 144.008 45ZM153.017 42.76V36.936C153.017 36.7867 153.097 36.712 153.257 36.712H154.633C154.793 36.712 154.873 36.7867 154.873 36.936V44.472C154.873 46.9573 153.683 48.2 151.305 48.2C150.025 48.2 148.979 47.864 148.169 47.192C148.051 47.1067 148.035 47 148.121 46.872L148.809 45.896C148.894 45.7573 148.995 45.7307 149.113 45.816C149.827 46.3067 150.553 46.552 151.289 46.552C151.886 46.552 152.334 46.392 152.633 46.072C152.931 45.7627 153.065 45.2293 153.033 44.472C152.414 44.664 151.843 44.76 151.321 44.76C150.403 44.76 149.603 44.4773 148.921 43.912C148.238 43.336 147.897 42.5307 147.897 41.496V36.936C147.897 36.7867 147.977 36.712 148.137 36.712H149.529C149.678 36.712 149.753 36.7867 149.753 36.936V41.416C149.753 41.992 149.923 42.4133 150.265 42.68C150.606 42.9467 151.043 43.08 151.577 43.08C152.121 43.0907 152.601 42.984 153.017 42.76ZM156.819 37.368C157.64 36.8027 158.686 36.52 159.955 36.52C160.99 36.52 161.8 36.792 162.387 37.336C162.984 37.8693 163.283 38.68 163.283 39.768V44.44C163.283 44.568 163.224 44.6587 163.107 44.712C162.072 45.032 161 45.192 159.891 45.192C158.856 45.192 158.003 44.9787 157.331 44.552C156.659 44.1253 156.323 43.448 156.323 42.52C156.323 41.6773 156.638 41.0427 157.267 40.616C157.907 40.1787 158.76 39.96 159.827 39.96C160.254 39.96 160.787 40.0027 161.427 40.088V39.784C161.427 39.208 161.304 38.7973 161.059 38.552C160.824 38.296 160.414 38.168 159.827 38.168C159.038 38.168 158.355 38.3387 157.779 38.68C157.651 38.776 157.544 38.7547 157.459 38.616L156.819 37.64C156.744 37.5227 156.744 37.432 156.819 37.368ZM158.195 42.504C158.195 42.8667 158.35 43.1387 158.659 43.32C158.968 43.4907 159.379 43.576 159.891 43.576C160.382 43.576 160.894 43.512 161.427 43.384V41.576C160.851 41.4907 160.334 41.448 159.875 41.448C158.755 41.448 158.195 41.8 158.195 42.504ZM167.548 42.28C167.345 43.2933 167.036 44.008 166.62 44.424C166.204 44.8293 165.542 45.048 164.636 45.08C164.486 45.08 164.412 45 164.412 44.84V43.672C164.412 43.5333 164.486 43.448 164.636 43.416C164.945 43.3947 165.185 43.2667 165.356 43.032C165.537 42.7973 165.686 42.376 165.804 41.768C165.985 40.712 166.118 39.1013 166.204 36.936C166.225 36.7867 166.305 36.712 166.444 36.712H171.884C172.044 36.712 172.124 36.7867 172.124 36.936V44.76C172.124 44.92 172.044 45 171.884 45H170.508C170.348 45 170.268 44.92 170.268 44.76V38.344H167.932C167.878 39.8693 167.75 41.1813 167.548 42.28ZM177.685 45H174.373C174.213 45 174.133 44.92 174.133 44.76V36.936C174.133 36.7867 174.213 36.712 174.373 36.712H175.749C175.909 36.712 175.989 36.7867 175.989 36.936V39.4H177.685C178.666 39.4 179.456 39.6507 180.053 40.152C180.661 40.6533 180.965 41.3467 180.965 42.232C180.965 43.1813 180.672 43.88 180.085 44.328C179.509 44.776 178.709 45 177.685 45ZM175.989 40.92V43.464H177.365C178.517 43.464 179.093 43.0427 179.093 42.2C179.104 41.7627 178.965 41.4427 178.677 41.24C178.389 41.0267 177.952 40.92 177.365 40.92H175.989ZM183.999 45H182.623C182.463 45 182.383 44.92 182.383 44.76V36.936C182.383 36.7867 182.463 36.712 182.623 36.712H183.999C184.159 36.712 184.239 36.7867 184.239 36.936V39.88H187.343V36.936C187.343 36.7867 187.423 36.712 187.583 36.712H188.959C189.119 36.712 189.199 36.7867 189.199 36.936V44.76C189.199 44.92 189.119 45 188.959 45H187.583C187.423 45 187.343 44.92 187.343 44.76V41.528H184.239V44.76C184.239 44.92 184.159 45 183.999 45ZM194.763 45H191.451C191.291 45 191.211 44.92 191.211 44.76V36.936C191.211 36.7867 191.291 36.712 191.451 36.712H192.827C192.987 36.712 193.067 36.7867 193.067 36.936V39.4H194.763C195.744 39.4 196.534 39.6507 197.131 40.152C197.739 40.6533 198.043 41.3467 198.043 42.232C198.043 43.1813 197.75 43.88 197.163 44.328C196.587 44.776 195.787 45 194.763 45ZM193.067 40.92V43.464H194.443C195.595 43.464 196.171 43.0427 196.171 42.2C196.182 41.7627 196.043 41.4427 195.755 41.24C195.467 41.0267 195.03 40.92 194.443 40.92H193.067ZM200.539 45H199.163C199.003 45 198.923 44.92 198.923 44.76V36.936C198.923 36.7867 199.003 36.712 199.163 36.712H200.539C200.699 36.712 200.779 36.7867 200.779 36.936V44.76C200.779 44.92 200.699 45 200.539 45ZM204.389 45H203.029C202.869 45 202.789 44.92 202.789 44.76V36.936C202.789 36.7867 202.869 36.712 203.029 36.712H204.581C204.72 36.712 204.811 36.7653 204.853 36.872L207.157 41.432H207.189L209.493 36.872C209.536 36.7653 209.627 36.712 209.765 36.712H211.317C211.477 36.712 211.557 36.7867 211.557 36.936V44.76C211.557 44.92 211.477 45 211.317 45H209.957C209.808 45 209.733 44.92 209.733 44.76V41.928C209.733 41.352 209.744 40.552 209.765 39.528H209.749C209.355 40.424 209.072 41.0427 208.901 41.384L207.861 43.448C207.819 43.5547 207.728 43.608 207.589 43.608H206.757C206.619 43.608 206.528 43.5547 206.485 43.448L205.445 41.384C205.2 40.872 204.917 40.2533 204.597 39.528H204.581C204.613 41.064 204.629 41.864 204.629 41.928V44.76C204.629 44.92 204.549 45 204.389 45ZM215.395 45H213.811C213.651 45 213.571 44.92 213.571 44.76V36.936C213.571 36.7867 213.651 36.712 213.811 36.712H215.171C215.331 36.712 215.411 36.7867 215.411 36.936V40.2C215.411 40.8293 215.4 41.5493 215.379 42.36H215.395C215.704 41.6773 216.211 40.7547 216.915 39.592L218.515 36.856C218.6 36.76 218.696 36.712 218.803 36.712H220.403C220.562 36.712 220.642 36.7867 220.642 36.936V44.76C220.642 44.92 220.562 45 220.403 45H219.043C218.883 45 218.803 44.92 218.803 44.76V41.544C218.803 40.9147 218.813 40.216 218.835 39.448H218.819C218.605 39.9387 218.104 40.84 217.315 42.152L215.683 44.84C215.619 44.9467 215.523 45 215.395 45ZM226.636 47.16H225.34C225.191 47.16 225.116 47.0853 225.116 46.936V43.592C225.116 43.4427 225.191 43.368 225.34 43.368H225.692C226.044 43.1227 226.316 42.568 226.508 41.704C226.7 40.8293 226.887 39.24 227.068 36.936C227.089 36.7867 227.169 36.712 227.308 36.712H232.62C232.78 36.712 232.86 36.7867 232.86 36.936V43.368H233.676C233.836 43.368 233.916 43.448 233.916 43.608V46.936C233.916 47.0853 233.836 47.16 233.676 47.16H232.38C232.22 47.16 232.14 47.0853 232.14 46.936V45H226.876V46.936C226.876 47.0853 226.796 47.16 226.636 47.16ZM228.796 38.344C228.583 40.9893 228.215 42.664 227.692 43.368H231.02V38.344H228.796ZM241.994 39.8V41.416C241.994 41.5653 241.914 41.64 241.754 41.64H236.89V42.088C236.89 42.568 237.039 42.936 237.338 43.192C237.647 43.4373 238.063 43.56 238.586 43.56C239.364 43.56 240.116 43.3147 240.842 42.824C240.97 42.7387 241.076 42.7547 241.162 42.872L241.818 43.752C241.924 43.8693 241.908 43.9813 241.77 44.088C240.842 44.824 239.759 45.192 238.522 45.192C237.54 45.192 236.708 44.9253 236.026 44.392C235.354 43.848 235.018 43.0747 235.018 42.072V39.8C235.018 38.7013 235.359 37.88 236.042 37.336C236.724 36.792 237.556 36.52 238.538 36.52C239.508 36.52 240.324 36.792 240.986 37.336C241.658 37.88 241.994 38.7013 241.994 39.8ZM240.186 39.784C240.186 39.2293 240.031 38.8187 239.722 38.552C239.412 38.2853 239.018 38.152 238.538 38.152C237.439 38.152 236.89 38.696 236.89 39.784V40.2H240.186V39.784ZM245.28 45H243.904C243.744 45 243.664 44.92 243.664 44.76V36.936C243.664 36.7867 243.744 36.712 243.904 36.712H245.28C245.44 36.712 245.52 36.7867 245.52 36.936V39.88H248.624V36.936C248.624 36.7867 248.704 36.712 248.864 36.712H250.24C250.4 36.712 250.48 36.7867 250.48 36.936V44.76C250.48 44.92 250.4 45 250.24 45H248.864C248.704 45 248.624 44.92 248.624 44.76V41.528H245.52V44.76C245.52 44.92 245.44 45 245.28 45ZM256.044 45H252.732C252.572 45 252.492 44.92 252.492 44.76V36.936C252.492 36.7867 252.572 36.712 252.732 36.712H254.108C254.268 36.712 254.348 36.7867 254.348 36.936V39.4H256.044C257.026 39.4 257.815 39.6507 258.412 40.152C259.02 40.6533 259.324 41.3467 259.324 42.232C259.324 43.1813 259.031 43.88 258.444 44.328C257.868 44.776 257.068 45 256.044 45ZM254.348 40.92V43.464H255.724C256.876 43.464 257.452 43.0427 257.452 42.2C257.463 41.7627 257.324 41.4427 257.036 41.24C256.748 41.0267 256.311 40.92 255.724 40.92H254.348ZM262.358 45.016H260.982C260.822 45.016 260.742 44.936 260.742 44.776V36.936C260.742 36.7867 260.822 36.712 260.982 36.712H265.894C266.044 36.712 266.118 36.7867 266.118 36.936V38.12C266.118 38.2693 266.044 38.344 265.894 38.344H262.598V44.776C262.598 44.936 262.518 45.016 262.358 45.016ZM267.178 37.368C268 36.8027 269.045 36.52 270.314 36.52C271.349 36.52 272.16 36.792 272.746 37.336C273.344 37.8693 273.642 38.68 273.642 39.768V44.44C273.642 44.568 273.584 44.6587 273.466 44.712C272.432 45.032 271.36 45.192 270.25 45.192C269.216 45.192 268.362 44.9787 267.69 44.552C267.018 44.1253 266.682 43.448 266.682 42.52C266.682 41.6773 266.997 41.0427 267.626 40.616C268.266 40.1787 269.12 39.96 270.186 39.96C270.613 39.96 271.146 40.0027 271.786 40.088V39.784C271.786 39.208 271.664 38.7973 271.418 38.552C271.184 38.296 270.773 38.168 270.186 38.168C269.397 38.168 268.714 38.3387 268.138 38.68C268.01 38.776 267.904 38.7547 267.818 38.616L267.178 37.64C267.104 37.5227 267.104 37.432 267.178 37.368ZM268.554 42.504C268.554 42.8667 268.709 43.1387 269.018 43.32C269.328 43.4907 269.738 43.576 270.25 43.576C270.741 43.576 271.253 43.512 271.786 43.384V41.576C271.21 41.4907 270.693 41.448 270.234 41.448C269.114 41.448 268.554 41.8 268.554 42.504ZM277.155 45H275.795C275.635 45 275.555 44.92 275.555 44.76V36.936C275.555 36.7867 275.635 36.712 275.795 36.712H277.347C277.486 36.712 277.576 36.7653 277.619 36.872L279.923 41.432H279.955L282.259 36.872C282.302 36.7653 282.392 36.712 282.531 36.712H284.083C284.243 36.712 284.323 36.7867 284.323 36.936V44.76C284.323 44.92 284.243 45 284.083 45H282.723C282.574 45 282.499 44.92 282.499 44.76V41.928C282.499 41.352 282.51 40.552 282.531 39.528H282.515C282.12 40.424 281.838 41.0427 281.667 41.384L280.627 43.448C280.584 43.5547 280.494 43.608 280.355 43.608H279.523C279.384 43.608 279.294 43.5547 279.251 43.448L278.211 41.384C277.966 40.872 277.683 40.2533 277.363 39.528H277.347C277.379 41.064 277.395 41.864 277.395 41.928V44.76C277.395 44.92 277.315 45 277.155 45ZM288.16 45H286.576C286.416 45 286.336 44.92 286.336 44.76V36.936C286.336 36.7867 286.416 36.712 286.576 36.712H287.936C288.096 36.712 288.176 36.7867 288.176 36.936V40.2C288.176 40.8293 288.165 41.5493 288.144 42.36H288.16C288.469 41.6773 288.976 40.7547 289.68 39.592L291.28 36.856C291.365 36.76 291.461 36.712 291.568 36.712H293.168C293.328 36.712 293.408 36.7867 293.408 36.936V44.76C293.408 44.92 293.328 45 293.168 45H291.808C291.648 45 291.568 44.92 291.568 44.76V41.544C291.568 40.9147 291.579 40.216 291.6 39.448H291.584C291.371 39.9387 290.869 40.84 290.08 42.152L288.448 44.84C288.384 44.9467 288.288 45 288.16 45ZM99.152 65.296C98.3093 65.8933 97.3653 66.192 96.32 66.192C95.2107 66.192 94.336 65.8987 93.696 65.312C93.056 64.7253 92.736 63.9413 92.736 62.96V60.736C92.736 59.7547 93.056 58.976 93.696 58.4C94.336 57.8133 95.2053 57.52 96.304 57.52C97.232 57.52 98.1067 57.776 98.928 58.288C99.056 58.3733 99.0773 58.4853 98.992 58.624L98.368 59.584C98.2827 59.7013 98.1707 59.7227 98.032 59.648C97.4987 59.3387 96.9387 59.184 96.352 59.184C95.7867 59.184 95.3493 59.3173 95.04 59.584C94.7413 59.8507 94.592 60.2347 94.592 60.736V62.976C94.592 63.4667 94.7413 63.8507 95.04 64.128C95.3493 64.3947 95.7813 64.528 96.336 64.528C96.9867 64.528 97.6053 64.336 98.192 63.952C98.3413 63.8667 98.4533 63.888 98.528 64.016L99.2 64.976C99.2853 65.104 99.2693 65.2107 99.152 65.296ZM103.899 66H102.523C102.363 66 102.283 65.92 102.283 65.76V59.344H100.043C99.8829 59.344 99.8029 59.264 99.8029 59.104V57.936C99.8029 57.7867 99.8829 57.712 100.043 57.712H106.363C106.523 57.712 106.603 57.7867 106.603 57.936V59.104C106.603 59.264 106.523 59.344 106.363 59.344H104.139V65.76C104.139 65.92 104.059 66 103.899 66ZM114.751 62.96C114.751 63.952 114.42 64.7413 113.759 65.328C113.097 65.904 112.212 66.192 111.103 66.192C109.993 66.192 109.108 65.904 108.447 65.328C107.785 64.7413 107.455 63.952 107.455 62.96V60.816C107.455 59.8133 107.785 59.0133 108.447 58.416C109.108 57.8187 109.993 57.52 111.103 57.52C112.212 57.52 113.097 57.8187 113.759 58.416C114.42 59.0133 114.751 59.8133 114.751 60.816V62.96ZM109.327 62.96C109.327 64.0053 109.919 64.528 111.103 64.528C111.679 64.528 112.116 64.3947 112.415 64.128C112.724 63.8613 112.879 63.472 112.879 62.96V60.816C112.879 60.2933 112.724 59.8933 112.415 59.616C112.105 59.328 111.668 59.184 111.103 59.184C110.527 59.184 110.084 59.3227 109.775 59.6C109.476 59.8773 109.327 60.2827 109.327 60.816V62.96ZM117.82 66H116.172C115.97 66 115.927 65.904 116.044 65.712L118.092 62.864C117.452 62.704 116.962 62.4053 116.62 61.968C116.279 61.52 116.108 60.9867 116.108 60.368C116.108 59.504 116.402 58.848 116.988 58.4C117.575 57.9413 118.354 57.712 119.324 57.712H122.652C122.812 57.712 122.892 57.7867 122.892 57.936V65.76C122.892 65.92 122.812 66 122.652 66H121.276C121.116 66 121.036 65.92 121.036 65.76V63.024H120.06L118.108 65.84C118.044 65.9467 117.948 66 117.82 66ZM117.98 60.368C117.98 61.136 118.444 61.52 119.372 61.52H121.036V59.232H119.372C118.444 59.232 117.98 59.6107 117.98 60.368ZM128.258 66H126.882C126.722 66 126.642 65.92 126.642 65.76V59.344H124.402C124.242 59.344 124.162 59.264 124.162 59.104V57.936C124.162 57.7867 124.242 57.712 124.402 57.712H130.722C130.882 57.712 130.962 57.7867 130.962 57.936V59.104C130.962 59.264 130.882 59.344 130.722 59.344H128.498V65.76C128.498 65.92 128.418 66 128.258 66ZM135.496 58.096C136.477 57.712 137.555 57.52 138.728 57.52C139.837 57.52 140.728 57.8133 141.4 58.4C142.072 58.9867 142.408 59.8613 142.408 61.024V62.784C142.408 63.8187 142.077 64.6453 141.416 65.264C140.755 65.8827 139.907 66.192 138.872 66.192C138.285 66.192 137.72 66.0747 137.176 65.84V68.8C137.176 68.96 137.096 69.04 136.936 69.04H135.56C135.4 69.04 135.32 68.96 135.32 68.8V58.352C135.32 58.224 135.379 58.1387 135.496 58.096ZM138.712 64.56C139.917 64.56 140.52 63.9733 140.52 62.8V61.008C140.52 60.3467 140.365 59.872 140.056 59.584C139.747 59.296 139.288 59.152 138.68 59.152C138.04 59.152 137.539 59.2267 137.176 59.376V64.112C137.613 64.4107 138.125 64.56 138.712 64.56ZM150.853 60.8V62.416C150.853 62.5653 150.773 62.64 150.613 62.64H145.749V63.088C145.749 63.568 145.898 63.936 146.197 64.192C146.506 64.4373 146.922 64.56 147.445 64.56C148.224 64.56 148.976 64.3147 149.701 63.824C149.829 63.7387 149.936 63.7547 150.021 63.872L150.677 64.752C150.784 64.8693 150.768 64.9813 150.629 65.088C149.701 65.824 148.618 66.192 147.381 66.192C146.4 66.192 145.568 65.9253 144.885 65.392C144.213 64.848 143.877 64.0747 143.877 63.072V60.8C143.877 59.7013 144.218 58.88 144.901 58.336C145.584 57.792 146.416 57.52 147.397 57.52C148.368 57.52 149.184 57.792 149.845 58.336C150.517 58.88 150.853 59.7013 150.853 60.8ZM149.045 60.784C149.045 60.2293 148.89 59.8187 148.581 59.552C148.272 59.2853 147.877 59.152 147.397 59.152C146.298 59.152 145.749 59.696 145.749 60.784V61.2H149.045V60.784ZM152.46 58.368C153.281 57.8027 154.326 57.52 155.596 57.52C156.63 57.52 157.441 57.792 158.028 58.336C158.625 58.8693 158.924 59.68 158.924 60.768V65.44C158.924 65.568 158.865 65.6587 158.748 65.712C157.713 66.032 156.641 66.192 155.532 66.192C154.497 66.192 153.644 65.9787 152.972 65.552C152.3 65.1253 151.964 64.448 151.964 63.52C151.964 62.6773 152.278 62.0427 152.908 61.616C153.548 61.1787 154.401 60.96 155.468 60.96C155.894 60.96 156.428 61.0027 157.068 61.088V60.784C157.068 60.208 156.945 59.7973 156.7 59.552C156.465 59.296 156.054 59.168 155.468 59.168C154.678 59.168 153.996 59.3387 153.42 59.68C153.292 59.776 153.185 59.7547 153.1 59.616L152.46 58.64C152.385 58.5227 152.385 58.432 152.46 58.368ZM153.836 63.504C153.836 63.8667 153.99 64.1387 154.3 64.32C154.609 64.4907 155.02 64.576 155.532 64.576C156.022 64.576 156.534 64.512 157.068 64.384V62.576C156.492 62.4907 155.974 62.448 155.516 62.448C154.396 62.448 153.836 62.8 153.836 63.504ZM163.188 63.28C162.985 64.2933 162.676 65.008 162.26 65.424C161.844 65.8293 161.183 66.048 160.276 66.08C160.127 66.08 160.052 66 160.052 65.84V64.672C160.052 64.5333 160.127 64.448 160.276 64.416C160.585 64.3947 160.825 64.2667 160.996 64.032C161.177 63.7973 161.327 63.376 161.444 62.768C161.625 61.712 161.759 60.1013 161.844 57.936C161.865 57.7867 161.945 57.712 162.084 57.712H167.524C167.684 57.712 167.764 57.7867 167.764 57.936V65.76C167.764 65.92 167.684 66 167.524 66H166.148C165.988 66 165.908 65.92 165.908 65.76V59.344H163.572C163.519 60.8693 163.391 62.1813 163.188 63.28ZM173.326 66H170.014C169.854 66 169.774 65.92 169.774 65.76V57.936C169.774 57.7867 169.854 57.712 170.014 57.712H171.39C171.55 57.712 171.63 57.7867 171.63 57.936V60.4H173.326C174.307 60.4 175.096 60.6507 175.694 61.152C176.302 61.6533 176.606 62.3467 176.606 63.232C176.606 64.1813 176.312 64.88 175.726 65.328C175.15 65.776 174.35 66 173.326 66ZM171.63 61.92V64.464H173.006C174.158 64.464 174.734 64.0427 174.734 63.2C174.744 62.7627 174.606 62.4427 174.318 62.24C174.03 62.0267 173.592 61.92 173.006 61.92H171.63ZM179.64 66H178.264C178.104 66 178.024 65.92 178.024 65.76V57.936C178.024 57.7867 178.104 57.712 178.264 57.712H179.64C179.8 57.712 179.88 57.7867 179.88 57.936V60.88H182.984V57.936C182.984 57.7867 183.064 57.712 183.224 57.712H184.6C184.76 57.712 184.84 57.7867 184.84 57.936V65.76C184.84 65.92 184.76 66 184.6 66H183.224C183.064 66 182.984 65.92 182.984 65.76V62.528H179.88V65.76C179.88 65.92 179.8 66 179.64 66ZM190.404 66H187.092C186.932 66 186.852 65.92 186.852 65.76V57.936C186.852 57.7867 186.932 57.712 187.092 57.712H188.468C188.628 57.712 188.708 57.7867 188.708 57.936V60.4H190.404C191.385 60.4 192.174 60.6507 192.772 61.152C193.38 61.6533 193.684 62.3467 193.684 63.232C193.684 64.1813 193.39 64.88 192.804 65.328C192.228 65.776 191.428 66 190.404 66ZM188.708 61.92V64.464H190.084C191.236 64.464 191.812 64.0427 191.812 63.2C191.822 62.7627 191.684 62.4427 191.396 62.24C191.108 62.0267 190.67 61.92 190.084 61.92H188.708ZM196.18 66H194.804C194.644 66 194.564 65.92 194.564 65.76V57.936C194.564 57.7867 194.644 57.712 194.804 57.712H196.18C196.34 57.712 196.42 57.7867 196.42 57.936V65.76C196.42 65.92 196.34 66 196.18 66ZM205.15 60.8V62.416C205.15 62.5653 205.07 62.64 204.91 62.64H200.046V63.088C200.046 63.568 200.195 63.936 200.494 64.192C200.803 64.4373 201.219 64.56 201.742 64.56C202.521 64.56 203.273 64.3147 203.998 63.824C204.126 63.7387 204.233 63.7547 204.318 63.872L204.974 64.752C205.081 64.8693 205.065 64.9813 204.926 65.088C203.998 65.824 202.915 66.192 201.678 66.192C200.697 66.192 199.865 65.9253 199.182 65.392C198.51 64.848 198.174 64.0747 198.174 63.072V60.8C198.174 59.7013 198.515 58.88 199.198 58.336C199.881 57.792 200.713 57.52 201.694 57.52C202.665 57.52 203.481 57.792 204.142 58.336C204.814 58.88 205.15 59.7013 205.15 60.8ZM203.342 60.784C203.342 60.2293 203.187 59.8187 202.878 59.552C202.569 59.2853 202.174 59.152 201.694 59.152C200.595 59.152 200.046 59.696 200.046 60.784V61.2H203.342V60.784ZM212.36 63.28C212.157 64.2933 211.848 65.008 211.432 65.424C211.016 65.8293 210.355 66.048 209.448 66.08C209.299 66.08 209.224 66 209.224 65.84V64.672C209.224 64.5333 209.299 64.448 209.448 64.416C209.757 64.3947 209.997 64.2667 210.168 64.032C210.349 63.7973 210.499 63.376 210.616 62.768C210.797 61.712 210.931 60.1013 211.016 57.936C211.037 57.7867 211.117 57.712 211.256 57.712H216.696C216.856 57.712 216.936 57.7867 216.936 57.936V65.76C216.936 65.92 216.856 66 216.696 66H215.32C215.16 66 215.08 65.92 215.08 65.76V59.344H212.744C212.691 60.8693 212.563 62.1813 212.36 63.28ZM222.114 60.752C222.124 59.7813 222.444 59.0027 223.074 58.416C223.714 57.8187 224.551 57.52 225.586 57.52C226.652 57.52 227.506 57.824 228.146 58.432C228.786 59.0293 229.106 59.8187 229.106 60.8V62.976C229.106 63.9467 228.786 64.7253 228.146 65.312C227.506 65.8987 226.652 66.192 225.586 66.192C224.551 66.192 223.714 65.904 223.074 65.328C222.444 64.7413 222.124 63.9733 222.114 63.024L222.098 62.528H220.754V65.76C220.754 65.92 220.674 66 220.514 66H219.186C219.026 66 218.946 65.92 218.946 65.76V57.936C218.946 57.7867 219.026 57.712 219.186 57.712H220.514C220.674 57.712 220.754 57.7867 220.754 57.936V60.864H222.098L222.114 60.752ZM224.37 64.128C224.658 64.3947 225.068 64.528 225.602 64.528C226.135 64.528 226.54 64.3947 226.818 64.128C227.106 63.8507 227.25 63.4613 227.25 62.96V60.816C227.25 60.304 227.106 59.904 226.818 59.616C226.54 59.328 226.135 59.184 225.602 59.184C225.068 59.184 224.658 59.328 224.37 59.616C224.092 59.904 223.954 60.304 223.954 60.816V62.96C223.954 63.4613 224.092 63.8507 224.37 64.128ZM231.511 68.16H230.215C230.066 68.16 229.991 68.0853 229.991 67.936V64.592C229.991 64.4427 230.066 64.368 230.215 64.368H230.567C230.919 64.1227 231.191 63.568 231.383 62.704C231.575 61.8293 231.762 60.24 231.943 57.936C231.964 57.7867 232.044 57.712 232.183 57.712H237.495C237.655 57.712 237.735 57.7867 237.735 57.936V64.368H238.551C238.711 64.368 238.791 64.448 238.791 64.608V67.936C238.791 68.0853 238.711 68.16 238.551 68.16H237.255C237.095 68.16 237.015 68.0853 237.015 67.936V66H231.751V67.936C231.751 68.0853 231.671 68.16 231.511 68.16ZM233.671 59.344C233.458 61.9893 233.09 63.664 232.567 64.368H235.895V59.344H233.671ZM242.051 66H240.467C240.307 66 240.227 65.92 240.227 65.76V57.936C240.227 57.7867 240.307 57.712 240.467 57.712H241.827C241.987 57.712 242.067 57.7867 242.067 57.936V61.2C242.067 61.8293 242.056 62.5493 242.035 63.36H242.051C242.36 62.6773 242.867 61.7547 243.571 60.592L245.171 57.856C245.256 57.76 245.352 57.712 245.459 57.712H247.059C247.219 57.712 247.299 57.7867 247.299 57.936V65.76C247.299 65.92 247.219 66 247.059 66H245.699C245.539 66 245.459 65.92 245.459 65.76V62.544C245.459 61.9147 245.469 61.216 245.491 60.448H245.475C245.261 60.9387 244.76 61.84 243.971 63.152L242.339 65.84C242.275 65.9467 242.179 66 242.051 66Z" fill="#262626"/>
<g clip-path="url(#clip0_1008_25)">
<path d="M56.25 51.5C54.915 51.5 53.6099 51.1041 52.4999 50.3624C51.3899 49.6207 50.5247 48.5665 50.0138 47.3331C49.5029 46.0997 49.3692 44.7425 49.6297 43.4331C49.8901 42.1238 50.533 40.921 51.477 39.977C52.421 39.033 53.6238 38.3902 54.9331 38.1297C56.2425 37.8693 57.5997 38.0029 58.8331 38.5138C60.0665 39.0247 61.1207 39.8899 61.8624 40.9999C62.6041 42.1099 63 43.415 63 44.75C62.998 46.5396 62.2862 48.2553 61.0208 49.5208C59.7553 50.7862 58.0396 51.498 56.25 51.5ZM56.25 41C55.5083 41 54.7833 41.2199 54.1666 41.632C53.5499 42.044 53.0693 42.6297 52.7855 43.3149C52.5016 44.0002 52.4274 44.7542 52.5721 45.4816C52.7167 46.209 53.0739 46.8772 53.5983 47.4017C54.1228 47.9261 54.791 48.2833 55.5184 48.4279C56.2458 48.5726 56.9998 48.4984 57.6851 48.2146C58.3703 47.9307 58.956 47.4501 59.368 46.8334C59.7801 46.2167 60 45.4917 60 44.75C60 43.7554 59.6049 42.8016 58.9017 42.0984C58.1984 41.3951 57.2446 41 56.25 41ZM67.5 66.5V65.75C67.5 62.7663 66.3147 59.9048 64.205 57.7951C62.0952 55.6853 59.2337 54.5 56.25 54.5C53.2663 54.5 50.4048 55.6853 48.295 57.7951C46.1853 59.9048 45 62.7663 45 65.75V66.5C45 66.8978 45.158 67.2794 45.4393 67.5607C45.7206 67.842 46.1022 68 46.5 68C46.8978 68 47.2794 67.842 47.5607 67.5607C47.842 67.2794 48 66.8978 48 66.5V65.75C48 63.562 48.8692 61.4635 50.4164 59.9164C51.9635 58.3692 54.062 57.5 56.25 57.5C58.438 57.5 60.5365 58.3692 62.0836 59.9164C63.6308 61.4635 64.5 63.562 64.5 65.75V66.5C64.5 66.8978 64.658 67.2794 64.9393 67.5607C65.2206 67.842 65.6022 68 66 68C66.3978 68 66.7794 67.842 67.0607 67.5607C67.342 67.2794 67.5 66.8978 67.5 66.5ZM81 59C80.9999 56.973 80.4132 54.9894 79.3106 53.2885C78.2079 51.5877 76.6366 50.2424 74.7862 49.415C72.9358 48.5875 70.8854 48.3134 68.8826 48.6256C66.8798 48.9378 65.0102 49.8231 63.4995 51.1745C63.3507 51.3053 63.2292 51.4643 63.1421 51.6423C63.0551 51.8203 63.0042 52.0138 62.9923 52.2116C62.9805 52.4094 63.0079 52.6076 63.0731 52.7947C63.1383 52.9818 63.2399 53.1542 63.3721 53.3018C63.5043 53.4495 63.6644 53.5694 63.8432 53.6548C64.022 53.7402 64.2159 53.7894 64.4138 53.7994C64.6117 53.8094 64.8097 53.7801 64.9962 53.7132C65.1827 53.6462 65.3541 53.543 65.5005 53.4095C66.5797 52.4444 67.9151 51.8123 69.3456 51.5895C70.7761 51.3667 72.2405 51.5626 73.5621 52.1537C74.8837 52.7448 76.006 53.7058 76.7935 54.9206C77.5809 56.1354 78 57.5523 78 59C78 59.3978 78.158 59.7794 78.4393 60.0607C78.7206 60.342 79.1022 60.5 79.5 60.5C79.8978 60.5 80.2794 60.342 80.5607 60.0607C80.842 59.7794 81 59.3978 81 59ZM71.25 45.5C69.915 45.5 68.6099 45.1041 67.4999 44.3624C66.3899 43.6207 65.5247 42.5665 65.0138 41.3331C64.5029 40.0997 64.3692 38.7425 64.6297 37.4331C64.8901 36.1238 65.533 34.921 66.477 33.977C67.421 33.033 68.6238 32.3902 69.9331 32.1297C71.2425 31.8693 72.5997 32.0029 73.8331 32.5138C75.0665 33.0247 76.1207 33.8899 76.8624 34.9999C77.6041 36.1099 78 37.415 78 38.75C77.998 40.5396 77.2862 42.2553 76.0208 43.5208C74.7553 44.7862 73.0396 45.498 71.25 45.5ZM71.25 35C70.5083 35 69.7833 35.2199 69.1666 35.632C68.5499 36.044 68.0693 36.6297 67.7855 37.3149C67.5016 38.0002 67.4274 38.7542 67.5721 39.4816C67.7167 40.209 68.0739 40.8772 68.5984 41.4017C69.1228 41.9261 69.791 42.2833 70.5184 42.4279C71.2458 42.5726 71.9998 42.4984 72.6851 42.2146C73.3703 41.9307 73.956 41.4501 74.368 40.8334C74.7801 40.2167 75 39.4917 75 38.75C75 37.7554 74.6049 36.8016 73.9016 36.0984C73.1984 35.3951 72.2446 35 71.25 35Z" fill="#33CC80"/>
</g>
<defs>
<filter id="filter0_bd_1008_25" x="0" y="-5" width="340" height="117" filterUnits="userSpaceOnUse" color-interpolation-filters="sRGB">
<feFlood flood-opacity="0" result="BackgroundImageFix"/>
<feGaussianBlur in="BackgroundImageFix" stdDeviation="7.5"/>
<feComposite in2="SourceAlpha" operator="in" result="effect1_backgroundBlur_1008_25"/>
<feColorMatrix in="SourceAlpha" type="matrix" values="0 0 0 0 0 0 0 0 0 0 0 0 0 0 0 0 0 0 127 0" result="hardAlpha"/>
<feOffset dy="5"/>
<feGaussianBlur stdDeviation="7.5"/>
<feComposite in2="hardAlpha" operator="out"/>
<feColorMatrix type="matrix" values="0 0 0 0 0 0 0 0 0 0 0 0 0 0 0 0 0 0 0.05 0"/>
<feBlend mode="normal" in2="effect1_backgroundBlur_1008_25" result="effect2_dropShadow_1008_25"/>
<feBlend mode="normal" in="SourceGraphic" in2="effect2_dropShadow_1008_25" result="shape"/>
</filter>
<clipPath id="clip0_1008_25">
<rect width="36" height="36" fill="white" transform="translate(45 32)"/>
</clipPath>
</defs>
</svg>
