<svg width="1106" height="771" viewBox="0 0 1106 771" fill="none" xmlns="http://www.w3.org/2000/svg">
<g opacity="0.1" filter="url(#filter0_f_447_3241)">
<path fill-rule="evenodd" clip-rule="evenodd" d="M617.935 235.067C660.133 236.999 667.862 281.3 703.906 296.295C738.445 310.662 788.606 300.291 818.786 318.62C850.804 338.065 876.304 368.374 870.051 397.199C863.734 426.319 806.299 436.995 787.361 463.484C766.172 493.121 793.5 537.978 755.019 558.093C718.133 577.374 662.771 560.615 617.935 552.047C580.643 544.921 555.416 522.439 519.239 513.037C473.919 501.259 405.518 518.268 380.113 490.242C355 462.54 403.631 428.907 414.23 397.199C422.29 373.085 414.441 346.046 435.12 325.676C455.415 305.685 496.081 302.427 524.983 288.103C558.243 271.618 576.822 233.184 617.935 235.067Z" fill="url(#paint0_linear_447_3241)"/>
</g>
<g opacity="0.15" filter="url(#filter1_f_447_3241)">
<path fill-rule="evenodd" clip-rule="evenodd" d="M339.894 457.034C361.755 458.029 365.76 480.847 384.433 488.57C402.327 495.971 428.314 490.629 443.949 500.069C460.537 510.085 473.748 525.695 470.508 540.542C467.236 555.541 437.48 561.04 427.669 574.683C416.691 589.948 430.849 613.052 410.913 623.412C391.804 633.343 363.122 624.711 339.894 620.298C320.574 616.628 307.504 605.048 288.762 600.206C265.283 594.14 229.847 602.9 216.685 588.465C203.675 574.197 228.869 556.874 234.36 540.542C238.536 528.122 234.469 514.196 245.183 503.704C255.697 493.407 276.765 491.729 291.738 484.351C308.969 475.86 318.594 456.065 339.894 457.034Z" fill="url(#paint1_linear_447_3241)"/>
</g>
<g filter="url(#filter2_d_447_3241)">
<circle cx="800" cy="332" r="116" fill="url(#paint2_linear_447_3241)" shape-rendering="crispEdges"/>
</g>
<path d="M806.04 392H803C802.253 392 801.88 391.68 801.88 391.04V284L778.04 299.2C777.507 299.52 777.027 299.467 776.6 299.04L775.16 296.48C774.947 296.373 774.893 296.16 775 295.84C775.107 295.52 775.267 295.307 775.48 295.2L802.04 278.08C802.68 277.76 803.267 277.6 803.8 277.6H806.04C806.787 277.6 807.16 277.92 807.16 278.56V391.04C807.16 391.68 806.787 392 806.04 392Z" fill="#33CC80"/>
<g clip-path="url(#clip0_447_3241)">
<path d="M510.475 489.342V574.451H465.498V553.149V531.848V510.546V489.342H510.475Z" fill="#565758"/>
<path d="M465.498 553.149V574.451H418.875V553.149H465.498ZM455.631 563.316C455.631 562.154 454.664 561.186 453.503 561.186C452.343 561.186 451.376 562.154 451.376 563.316C451.376 564.478 452.343 565.446 453.503 565.446C454.664 565.446 455.631 564.478 455.631 563.316ZM445.959 563.316C445.959 562.154 444.992 561.186 443.831 561.186C442.67 561.186 441.703 562.154 441.703 563.316C441.703 564.478 442.67 565.446 443.831 565.446C444.992 565.446 445.862 564.478 445.959 563.316Z" fill="white"/>
<path d="M465.498 531.848V553.15H418.875V531.848H465.498ZM455.631 542.305C455.631 541.143 454.664 540.175 453.503 540.175C452.343 540.175 451.376 541.143 451.376 542.305C451.376 543.467 452.343 544.435 453.503 544.435C454.664 544.435 455.631 543.467 455.631 542.305ZM445.959 542.305C445.959 541.143 444.992 540.175 443.831 540.175C442.67 540.175 441.703 541.143 441.703 542.305C441.703 543.467 442.67 544.435 443.831 544.435C444.992 544.435 445.862 543.467 445.959 542.305Z" fill="white"/>
<path d="M465.498 510.546V531.848H418.875V510.546H465.498ZM455.631 521.197C455.631 520.035 454.664 519.067 453.503 519.067C452.343 519.067 451.376 520.035 451.376 521.197C451.376 522.359 452.343 523.327 453.503 523.327C454.664 523.327 455.631 522.359 455.631 521.197ZM445.959 521.197C445.959 520.035 444.992 519.067 443.831 519.067C442.67 519.067 441.703 520.035 441.703 521.197C441.703 522.359 442.67 523.327 443.831 523.327C444.992 523.327 445.959 522.456 445.959 521.197C445.959 521.197 445.862 521.197 445.959 521.197Z" fill="white"/>
<path d="M465.498 489.342V510.643H418.875V489.342H465.498ZM455.631 500.186C455.631 499.024 454.664 498.056 453.503 498.056C452.343 498.056 451.376 499.024 451.376 500.186C451.376 501.348 452.343 502.316 453.503 502.316C454.664 502.316 455.631 501.348 455.631 500.186ZM445.959 500.186C445.959 499.024 444.992 498.056 443.831 498.056C442.67 498.056 441.703 499.024 441.703 500.186C441.703 501.348 442.67 502.316 443.831 502.316C444.992 502.316 445.862 501.348 445.959 500.186Z" fill="white"/>
<path d="M453.503 498.056C454.664 498.056 455.631 499.024 455.631 500.186C455.631 501.348 454.664 502.316 453.503 502.316C452.343 502.316 451.376 501.348 451.376 500.186C451.376 499.024 452.343 498.056 453.503 498.056Z" fill="white"/>
<path d="M453.503 523.327C454.679 523.327 455.631 522.373 455.631 521.197C455.631 520.021 454.679 519.067 453.503 519.067C452.328 519.067 451.376 520.021 451.376 521.197C451.376 522.373 452.328 523.327 453.503 523.327Z" fill="white"/>
<path d="M453.503 544.435C454.679 544.435 455.631 543.481 455.631 542.305C455.631 541.128 454.679 540.175 453.503 540.175C452.328 540.175 451.376 541.128 451.376 542.305C451.376 543.481 452.328 544.435 453.503 544.435Z" fill="white"/>
<path d="M453.503 565.446C454.679 565.446 455.631 564.492 455.631 563.316C455.631 562.139 454.679 561.186 453.503 561.186C452.328 561.186 451.376 562.139 451.376 563.316C451.376 564.492 452.328 565.446 453.503 565.446Z" fill="white"/>
<path d="M443.831 498.056C444.992 498.056 445.959 499.024 445.959 500.186C445.959 501.348 444.992 502.316 443.831 502.316C442.67 502.316 441.703 501.348 441.703 500.186C441.606 499.024 442.573 498.056 443.831 498.056C443.734 498.056 443.734 498.056 443.831 498.056Z" fill="white"/>
<path d="M443.831 523.327C445.006 523.327 445.959 522.373 445.959 521.197C445.959 520.021 445.006 519.067 443.831 519.067C442.656 519.067 441.703 520.021 441.703 521.197C441.703 522.373 442.656 523.327 443.831 523.327Z" fill="white"/>
<path d="M443.831 544.435C445.006 544.435 445.959 543.481 445.959 542.305C445.959 541.128 445.006 540.175 443.831 540.175C442.656 540.175 441.703 541.128 441.703 542.305C441.703 543.481 442.656 544.435 443.831 544.435Z" fill="white"/>
<path d="M443.831 565.446C445.006 565.446 445.959 564.492 445.959 563.316C445.959 562.139 445.006 561.186 443.831 561.186C442.656 561.186 441.703 562.139 441.703 563.316C441.703 564.492 442.656 565.446 443.831 565.446Z" fill="white"/>
<path d="M465.498 489.342H510.475V574.451H465.498H418.972V553.149V531.848V510.546V489.342H465.498Z" stroke="#565758" stroke-width="1.5" stroke-linecap="round" stroke-linejoin="round"/>
<path d="M465.498 489.342V510.546V531.848V553.149V574.451" stroke="#565758" stroke-width="1.5" stroke-linecap="round" stroke-linejoin="round"/>
<path d="M464.724 510.546H418.972" stroke="#565758" stroke-width="1.5" stroke-linecap="round" stroke-linejoin="round"/>
<path d="M464.724 531.848H418.972" stroke="#565758" stroke-width="1.5" stroke-linecap="round" stroke-linejoin="round"/>
<path d="M464.724 553.149H418.972" stroke="#565758" stroke-width="1.5" stroke-linecap="round" stroke-linejoin="round"/>
<path d="M427 500.187H434.835" stroke="#565758" stroke-width="1.5" stroke-linecap="round" stroke-linejoin="round"/>
<path d="M445.862 500.186C445.862 499.024 444.895 498.056 443.734 498.056C442.573 498.056 441.606 499.024 441.606 500.186C441.606 501.348 442.573 502.316 443.734 502.316C444.992 502.316 445.862 501.348 445.862 500.186ZM445.862 500.186C445.959 500.186 445.959 500.186 445.862 500.186Z" stroke="#565758" stroke-width="1.5" stroke-linecap="round" stroke-linejoin="round"/>
<path d="M455.631 500.186C455.631 499.024 454.664 498.056 453.503 498.056C452.343 498.056 451.376 499.024 451.376 500.186C451.376 501.348 452.343 502.316 453.503 502.316C454.664 502.316 455.631 501.348 455.631 500.186Z" stroke="#565758" stroke-width="1.5" stroke-linecap="round" stroke-linejoin="round"/>
<path d="M427 521.197H434.835" stroke="#565758" stroke-width="1.5" stroke-linecap="round" stroke-linejoin="round"/>
<path d="M443.831 523.327C445.006 523.327 445.959 522.373 445.959 521.197C445.959 520.021 445.006 519.067 443.831 519.067C442.656 519.067 441.703 520.021 441.703 521.197C441.703 522.373 442.656 523.327 443.831 523.327Z" stroke="#565758" stroke-width="1.5" stroke-linecap="round" stroke-linejoin="round"/>
<path d="M453.503 523.327C454.679 523.327 455.631 522.373 455.631 521.197C455.631 520.021 454.679 519.067 453.503 519.067C452.328 519.067 451.376 520.021 451.376 521.197C451.376 522.373 452.328 523.327 453.503 523.327Z" stroke="#565758" stroke-width="1.5" stroke-linecap="round" stroke-linejoin="round"/>
<path d="M427 542.305H434.835" stroke="#565758" stroke-width="1.5" stroke-linecap="round" stroke-linejoin="round"/>
<path d="M443.831 544.435C445.006 544.435 445.959 543.481 445.959 542.305C445.959 541.128 445.006 540.175 443.831 540.175C442.656 540.175 441.703 541.128 441.703 542.305C441.703 543.481 442.656 544.435 443.831 544.435Z" stroke="#565758" stroke-width="1.5" stroke-linecap="round" stroke-linejoin="round"/>
<path d="M453.503 544.435C454.679 544.435 455.631 543.481 455.631 542.305C455.631 541.128 454.679 540.175 453.503 540.175C452.328 540.175 451.376 541.128 451.376 542.305C451.376 543.481 452.328 544.435 453.503 544.435Z" stroke="#565758" stroke-width="1.5" stroke-linecap="round" stroke-linejoin="round"/>
<path d="M427 563.316H434.835" stroke="#565758" stroke-width="1.5" stroke-linecap="round" stroke-linejoin="round"/>
<path d="M443.831 565.446C445.006 565.446 445.959 564.492 445.959 563.316C445.959 562.139 445.006 561.186 443.831 561.186C442.656 561.186 441.703 562.139 441.703 563.316C441.703 564.492 442.656 565.446 443.831 565.446Z" stroke="#565758" stroke-width="1.5" stroke-linecap="round" stroke-linejoin="round"/>
<path d="M453.503 565.446C454.679 565.446 455.631 564.492 455.631 563.316C455.631 562.139 454.679 561.186 453.503 561.186C452.328 561.186 451.376 562.139 451.376 563.316C451.376 564.492 452.328 565.446 453.503 565.446Z" stroke="#565758" stroke-width="1.5" stroke-linecap="round" stroke-linejoin="round"/>
<path d="M695.416 549.276L703.445 574.451H691.644L685.937 559.055C680.134 564.768 678.006 575.225 666.979 575.225H658.08L659.047 561.573C667.559 558.765 668.43 548.792 668.43 548.792H694.546C695.03 548.792 695.32 548.986 695.416 549.276Z" fill="white"/>
<path d="M692.805 543.273L694.546 548.792H672.202L670.268 543.273H692.805Z" fill="white"/>
<path d="M671.525 396.487C671.138 396.003 670.848 395.422 670.558 394.938C669.977 393.486 670.654 391.743 672.202 391.162C673.46 390.678 675.007 391.162 675.684 392.324C678.393 396.391 681.488 400.07 685.163 403.362C685.55 403.749 686.131 403.749 686.518 403.362C686.614 403.265 686.614 403.265 686.711 403.168L691.741 395.422L693.869 392.227C691.257 396.197 697.835 407.041 704.219 411.108L701.8 414.4C700.059 416.724 697.835 418.563 695.223 419.822C688.355 423.211 680.134 421.855 674.717 416.433C673.943 415.659 673.169 414.787 672.396 413.916C671.622 413.044 670.751 412.173 669.881 411.398C666.785 408.494 664.174 405.105 662.143 401.329C661.369 399.973 661.756 398.23 663.11 397.262C663.69 396.875 664.464 396.778 665.141 396.875C664.657 396.003 664.271 395.132 663.98 394.26C663.4 392.711 664.174 391.065 665.721 390.484C667.172 390 668.72 390.581 669.397 392.033C669.784 392.905 670.171 393.873 670.751 394.745C670.848 394.938 670.848 395.035 670.945 395.229C670.848 395.422 671.138 395.81 671.525 396.487Z" fill="white"/>
<path d="M678.393 495.248L692.708 543.37H666.979C666.979 543.37 666.012 540.852 664.367 536.592C667.366 528.653 672.492 514.032 678.393 495.248Z" fill="#565758"/>
<path d="M686.711 403.071C686.421 403.555 685.841 403.652 685.357 403.458C685.26 403.458 685.163 403.362 685.163 403.265C681.585 399.973 678.393 396.293 675.684 392.227C674.814 390.871 673.073 390.484 671.718 391.355C670.558 392.13 670.074 393.582 670.558 394.841C670.074 393.97 669.591 393.098 669.204 392.13C668.527 390.678 666.785 390 665.335 390.678C663.98 391.259 663.303 392.905 663.787 394.357C664.174 395.228 664.561 396.1 664.948 396.971C664.271 396.874 663.497 396.971 662.916 397.359C661.562 398.23 661.175 399.973 661.949 401.425C663.98 405.104 666.592 408.493 669.687 411.495C670.558 412.27 671.428 413.141 672.202 414.012C672.976 414.884 673.75 415.755 674.524 416.53C679.94 421.952 688.162 423.308 695.03 419.919C695.03 430.085 693.385 442.188 689.419 456.906C685.647 470.848 681.778 483.823 678.199 495.248C672.299 514.032 667.076 528.653 664.174 536.592C662.529 540.949 661.659 543.37 661.659 543.37H638.735L646.376 489.342C639.702 471.333 633.125 452.645 629.449 440.155C621.034 411.592 624.129 393.098 629.836 376.057C644.538 386.321 671.041 391.259 685.163 380.124C687.872 384.965 690.097 390.097 691.741 395.422L686.711 403.071Z" fill="#565758"/>
<path d="M675.201 307.99C675.394 310.023 675.781 312.153 676.265 314.09C671.912 320.674 661.562 328.904 661.562 328.904L660.885 315.639C666.495 316.801 672.879 314.283 675.104 310.023L675.201 307.99Z" fill="white"/>
<path d="M675.297 306.537L676.265 294.047C677.619 292.013 678.586 289.786 679.07 287.463C685.647 286.398 688.162 279.814 685.454 276.812C682.455 273.52 677.619 276.812 674.814 281.556L674.427 277.877C674.233 276.231 673.46 274.585 672.299 273.423C670.945 272.068 670.171 270.131 670.171 268.195V262.385C664.948 263.16 651.212 266.161 648.794 278.845C646.666 277.199 645.409 274.585 645.409 271.874C645.409 262.676 662.336 256.285 671.332 256.285C682.842 256.285 680.811 263.644 684.486 267.033C688.452 270.712 693.579 268.485 693.579 279.329C693.579 279.717 693.579 280.104 693.579 280.491C693.579 295.015 707.894 288.818 709.539 306.634L675.297 306.537Z" fill="#565758"/>
<path d="M670.558 394.841C670.848 395.325 671.138 395.906 671.525 396.39C671.041 395.713 670.848 395.325 670.751 395.229C670.751 395.229 670.654 395.035 670.558 394.841Z" fill="white"/>
<path d="M659.821 315.445C660.208 315.542 660.498 315.639 660.885 315.736C656.532 317.575 652.663 320.286 649.471 323.675C649.568 323.288 651.89 312.734 657.016 308.377C656.436 309.442 654.888 313.993 659.821 315.445Z" fill="white"/>
<path d="M650.535 575.225H621.614C621.614 571.546 623.355 568.06 626.45 566.027C630.223 563.606 634.962 559.346 636.22 552.665C636.607 550.632 638.445 549.083 640.573 549.083H660.111L659.144 561.476L658.177 575.128H650.535V575.225Z" fill="white"/>
<path d="M658.37 299.759L657.113 307.989C650.922 305.666 644.732 303.148 638.831 300.437C642.604 296.467 646.763 291.335 648.891 287.075C649.955 292.885 653.631 297.629 658.37 299.759Z" fill="#565758"/>
<path d="M657.113 307.989C657.113 307.989 657.016 308.086 657.016 308.28C651.89 312.637 649.568 323.191 649.471 323.578C652.663 320.189 656.629 317.478 660.885 315.639L661.562 328.904C661.562 328.904 672.009 320.673 676.265 314.089C680.327 315.154 684.293 316.123 688.162 316.897C695.707 318.35 702.574 322.513 707.314 328.613L727.239 354.078C732.366 360.662 733.237 369.667 729.464 377.122L712.537 410.043C710.699 413.528 707.411 413.335 704.122 411.204C697.738 407.138 691.161 396.39 693.772 392.324L708.668 369.764C709.345 368.795 709.248 367.44 708.378 366.568C704.799 362.889 695.32 353.013 687.195 342.846C679.36 354.272 682.262 368.505 690.483 374.314C689.033 376.541 687.291 378.575 685.163 380.221C671.041 391.355 644.538 386.417 629.836 376.154C627.805 374.798 625.967 373.152 624.322 371.41C627.805 365.213 630.223 358.048 630.223 351.464C630.126 348.656 629.933 345.848 629.546 343.137C630.126 342.072 630.416 340.91 630.416 339.748C630.416 339.457 630.513 338.973 630.513 338.199C631.964 338.877 633.512 339.264 635.059 339.264C636.703 339.264 637.961 338.005 637.961 336.359C637.961 334.713 636.703 333.454 635.059 333.454C633.608 333.454 632.061 332.68 630.513 331.034C630.32 330.84 630.126 330.743 629.933 330.646C629.836 329.969 629.642 329.291 629.449 328.516C627.611 321.061 622.872 309.926 610.878 294.725L610.491 295.015C606.622 290.464 596.465 299.372 592.113 306.731C590.081 310.023 589.308 313.024 590.758 314.283C586.406 311.572 581.569 301.696 577.507 290.271C575.089 283.59 578.281 276.134 584.858 273.423L585.148 273.326C589.694 271.583 594.918 272.552 598.593 275.844C608.072 284.267 622.581 293.078 638.831 300.631C644.732 303.148 650.922 305.666 657.113 307.989Z" fill="white"/>
<path d="M675.491 303.923L676.265 294.047C673.653 298.307 669.01 300.921 663.98 301.018C662.626 301.018 661.175 300.825 659.918 300.34C664.174 303.439 669.687 304.31 675.491 303.923Z" fill="#565758"/>
<path d="M659.918 300.34C659.434 300.147 658.854 299.953 658.37 299.759L657.113 307.989C657.113 307.989 657.016 308.086 657.016 308.28C656.532 309.442 654.888 313.992 659.918 315.445C660.305 315.542 660.595 315.639 660.982 315.735C666.592 316.897 672.976 314.38 675.201 310.12L675.394 308.086L675.491 306.634L675.684 304.02C669.687 304.31 664.174 303.439 659.918 300.34Z" fill="white"/>
<path d="M648.794 278.749C651.212 266.065 664.948 263.16 670.171 262.289V268.098C670.171 270.035 670.945 271.971 672.299 273.327C673.46 274.488 674.233 276.038 674.427 277.781L674.814 281.46C677.619 276.715 682.455 273.423 685.454 276.715C688.162 279.717 685.647 286.398 679.07 287.366C678.586 289.69 677.619 291.917 676.265 293.95C673.653 298.21 669.01 300.922 663.98 301.018C662.046 301.018 660.111 300.631 658.37 299.76C653.631 297.63 650.052 292.885 648.794 286.979C648.311 284.268 648.214 281.46 648.794 278.749Z" fill="white"/>
<path d="M637.767 550.245L638.831 543.37H659.144L657.983 549.18H640.573C639.509 549.18 638.541 549.567 637.767 550.245Z" fill="white"/>
<path d="M630.513 330.937C632.061 332.583 633.608 333.358 635.059 333.358C636.703 333.358 637.961 334.616 637.961 336.262C637.961 337.908 636.703 339.167 635.059 339.167C633.511 339.167 631.964 338.78 630.513 338.102C630.61 335.585 630.513 333.067 629.933 330.55C630.126 330.647 630.319 330.743 630.513 330.937Z" fill="white"/>
<path d="M617.939 347.397L619.003 347.204C618.616 347.3 618.229 347.397 617.939 347.397Z" fill="white"/>
<path d="M610.684 347.881H610.491C609.814 347.881 609.04 347.591 608.556 347.107H608.169C606.622 347.107 605.364 345.945 605.267 344.396C605.171 342.846 606.331 341.588 607.782 341.394L612.038 340.619C612.619 340.523 613.102 339.942 613.102 339.361L613.006 335.972C613.006 334.713 612.522 333.551 611.845 332.486C610.781 330.937 610.104 329.194 609.814 327.354C609.62 326.193 609.04 325.127 608.169 324.256C606.331 322.32 602.849 318.737 599.077 314.574C596.755 311.959 594.337 309.151 592.209 306.537C596.562 299.178 606.815 290.271 610.587 294.821L610.974 294.531C622.968 309.732 627.708 320.867 629.546 328.323C629.739 329.097 629.933 329.775 630.029 330.453C630.513 332.97 630.706 335.488 630.61 338.005C630.61 338.78 630.513 339.361 630.513 339.554C630.513 342.75 628.192 345.557 625 346.042L619.196 347.01H619.099L618.035 347.203H617.745L610.684 347.881Z" fill="white"/>
<path d="M598.98 314.574C596.078 315.639 593.08 315.929 590.758 314.089C589.308 312.831 590.081 309.829 592.113 306.537C594.241 309.248 596.659 311.959 598.98 314.574Z" fill="#565758"/>
<path d="M648.794 278.749C651.212 266.065 664.948 263.16 670.171 262.289V268.098C670.171 270.035 670.945 271.971 672.299 273.327C673.46 274.488 674.233 276.038 674.427 277.781L674.814 281.46C677.619 276.715 682.455 273.423 685.454 276.715C688.162 279.717 685.647 286.398 679.07 287.366C678.586 289.69 677.619 291.917 676.265 293.95C673.653 298.21 669.01 300.922 663.98 301.018C662.046 301.018 660.111 300.631 658.37 299.76C653.631 297.63 650.052 292.885 648.794 286.979C648.311 284.268 648.214 281.46 648.794 278.749Z" stroke="#565758" stroke-width="1.5" stroke-linecap="round" stroke-linejoin="round"/>
<path d="M678.78 280.975C679.65 279.62 680.908 278.651 682.455 278.264" stroke="#565758" stroke-width="1.5" stroke-linecap="round" stroke-linejoin="round"/>
<path d="M649.278 276.618C650.729 275.941 652.18 275.456 653.727 275.166" stroke="#565758" stroke-width="1.5" stroke-linecap="round" stroke-linejoin="round"/>
<path d="M661.562 275.069C663.4 275.263 665.141 275.844 666.785 276.812" stroke="#565758" stroke-width="1.5" stroke-linecap="round" stroke-linejoin="round"/>
<path d="M656.823 276.425C657.693 279.62 653.147 285.914 656.823 286.107" stroke="#565758" stroke-width="1.5" stroke-linecap="round" stroke-linejoin="round"/>
<path d="M664.851 282.331V280.976" stroke="#565758" stroke-width="2.5" stroke-linecap="round" stroke-linejoin="round"/>
<path d="M653.437 282.041V280.976" stroke="#565758" stroke-width="2.5" stroke-linecap="round" stroke-linejoin="round"/>
<path d="M658.37 299.76L657.113 307.99C650.922 305.666 644.732 303.149 638.831 300.437C622.581 292.885 607.976 284.074 598.593 275.65C594.918 272.358 589.791 271.39 585.148 273.133L584.858 273.23C578.281 276.038 575.089 283.396 577.507 290.077C581.569 301.503 586.406 311.379 590.758 314.09C593.08 315.929 596.078 315.542 598.98 314.574" stroke="#565758" stroke-width="1.5" stroke-linecap="round" stroke-linejoin="round"/>
<path d="M676.265 314.089C680.327 315.154 684.293 316.123 688.162 316.897C695.707 318.35 702.574 322.513 707.314 328.613L727.24 354.078C732.366 360.662 733.237 369.667 729.464 377.122L712.537 409.946C710.699 413.431 707.411 413.238 704.122 411.108C697.738 407.041 691.161 396.293 693.772 392.227" stroke="#565758" stroke-width="1.5" stroke-linecap="round" stroke-linejoin="round"/>
<path d="M704.219 411.108L701.8 414.4C700.059 416.724 697.835 418.563 695.223 419.822C688.355 423.211 680.134 421.855 674.717 416.433C673.943 415.659 673.169 414.787 672.396 413.916C671.622 413.044 670.751 412.173 669.881 411.398C666.785 408.494 664.174 405.105 662.143 401.329C661.369 399.973 661.756 398.23 663.11 397.262C664.464 396.391 666.302 396.875 667.076 398.23C667.076 398.23 667.076 398.327 667.172 398.327C668.72 401.135 671.815 405.879 675.974 408.687" stroke="#565758" stroke-width="1.5" stroke-linecap="round" stroke-linejoin="round"/>
<path d="M672.105 397.165C674.233 399.973 676.651 402.587 679.457 404.717" stroke="#565758" stroke-width="1.5" stroke-linecap="round" stroke-linejoin="round"/>
<path d="M665.141 396.971C664.657 396.1 664.27 395.229 663.98 394.357C663.4 392.808 664.174 391.162 665.721 390.581C667.172 390.097 668.72 390.678 669.397 392.13C669.784 393.002 670.171 393.97 670.751 394.841C671.041 395.325 671.331 395.906 671.718 396.39" stroke="#565758" stroke-width="1.5" stroke-linecap="round" stroke-linejoin="round"/>
<path d="M672.105 397.165C671.912 396.874 671.718 396.681 671.622 396.39C671.138 395.712 670.945 395.325 670.848 395.228C670.751 395.131 670.654 394.938 670.654 394.744C670.074 393.292 670.751 391.549 672.299 390.968C673.556 390.484 675.104 390.968 675.781 392.13C678.489 396.196 681.585 399.876 685.26 403.168C685.647 403.555 686.227 403.555 686.614 403.168C686.711 403.071 686.711 403.071 686.808 402.974L691.838 395.228L693.966 392.033L708.861 369.473C709.539 368.505 709.442 367.149 708.571 366.278C704.992 362.598 695.513 352.722 687.388 342.556C679.553 353.981 682.455 368.214 690.677 374.024C689.226 376.251 687.485 378.284 685.357 379.93C671.235 391.065 644.732 386.127 630.029 375.863C627.998 374.508 626.16 372.862 624.516 371.119" stroke="#565758" stroke-width="1.5" stroke-linecap="round" stroke-linejoin="round"/>
<path d="M656.436 291.626C658.273 292.401 660.401 292.013 661.852 290.561" stroke="#565758" stroke-width="1.2" stroke-linecap="round" stroke-linejoin="round"/>
<path d="M648.794 278.749C646.666 277.103 645.409 274.488 645.409 271.777C645.409 262.579 662.336 256.188 671.332 256.188C682.842 256.188 680.811 263.547 684.486 266.936C688.452 270.615 693.579 268.388 693.579 279.233C693.579 279.62 693.579 280.007 693.579 280.395C693.579 294.918 707.894 288.722 709.539 306.537H675.394" stroke="#565758" stroke-width="1.5" stroke-linecap="round" stroke-linejoin="round"/>
<path d="M648.794 286.979C646.763 291.239 642.507 296.467 638.735 300.34" stroke="#565758" stroke-width="1.2" stroke-linecap="round" stroke-linejoin="round"/>
<path d="M590.758 314.089C589.308 312.831 590.081 309.829 592.113 306.537C596.465 299.178 606.718 290.271 610.491 294.821" stroke="#565758" stroke-width="1.5" stroke-linecap="round" stroke-linejoin="round"/>
<path d="M657.113 307.989C657.113 307.989 657.016 308.086 657.016 308.28C656.532 309.442 654.888 313.993 659.918 315.445C660.305 315.542 660.595 315.639 660.982 315.735C666.592 316.897 672.976 314.38 675.201 310.12L675.394 308.086L675.491 306.634L676.458 294.144" stroke="#565758" stroke-width="1.5" stroke-linecap="round" stroke-linejoin="round"/>
<path d="M649.471 323.578C652.663 320.19 656.532 317.479 660.885 315.639L661.562 328.904C661.562 328.904 672.009 320.674 676.265 314.09C675.781 312.056 675.394 310.023 675.201 307.99" stroke="#565758" stroke-width="1.5" stroke-linecap="round" stroke-linejoin="round"/>
<path d="M656.919 308.28C651.793 312.637 649.471 323.191 649.375 323.578" stroke="#565758" stroke-width="1.5" stroke-linecap="round" stroke-linejoin="round"/>
<path d="M618.712 334.035L618.809 339.167C618.906 342.653 616.488 345.751 613.006 346.332L608.653 347.107H608.556H608.169C606.622 347.107 605.364 345.945 605.267 344.396C605.171 342.846 606.331 341.588 607.782 341.394L612.038 340.619C612.619 340.523 613.102 339.942 613.102 339.361L613.006 335.972C613.006 334.713 612.522 333.551 611.845 332.486C610.781 330.937 610.104 329.194 609.814 327.354C609.62 326.192 609.04 325.127 608.169 324.256C606.331 322.32 602.849 318.737 599.077 314.574C596.755 311.959 594.337 309.151 592.209 306.537" stroke="#565758" stroke-width="1.5" stroke-linecap="round" stroke-linejoin="round"/>
<path d="M617.552 347.397L610.684 347.784H610.491C609.814 347.784 609.04 347.494 608.556 347.01" stroke="#565758" stroke-width="1.5" stroke-linecap="round" stroke-linejoin="round"/>
<path d="M619.003 347.204C618.616 347.3 618.326 347.397 617.939 347.397" stroke="#565758" stroke-width="1.5" stroke-linecap="round" stroke-linejoin="round"/>
<path d="M624.903 333.357C624.903 335.294 624.903 337.327 624.903 339.651C624.903 343.137 622.485 346.235 619.099 347.107" stroke="#565758" stroke-width="1.5" stroke-linecap="round" stroke-linejoin="round"/>
<path d="M601.495 283.493C605.074 287.366 608.169 291.045 610.878 294.531C622.872 309.732 627.611 320.867 629.449 328.322C629.642 329.097 629.836 329.775 629.933 330.453C630.416 332.97 630.61 335.487 630.513 338.005C630.513 338.779 630.416 339.36 630.416 339.554C630.416 342.749 628.095 345.557 624.903 346.041L619.099 347.01H619.003L617.939 347.203H617.648" stroke="#565758" stroke-width="1.5" stroke-linecap="round" stroke-linejoin="round"/>
<path d="M629.933 330.453C630.126 330.549 630.319 330.743 630.513 330.84C632.061 332.486 633.608 333.261 635.059 333.261C636.703 333.261 637.961 334.519 637.961 336.165C637.961 337.811 636.703 339.07 635.059 339.07C633.511 339.07 631.964 338.683 630.513 338.005" stroke="#565758" stroke-width="1.5" stroke-linecap="round" stroke-linejoin="round"/>
<path d="M634.575 317.285C632.157 321.254 630.32 324.547 629.449 328.323" stroke="#565758" stroke-width="1.5" stroke-linecap="round" stroke-linejoin="round"/>
<path d="M629.449 343.04C629.836 345.848 630.126 348.559 630.126 351.367C630.126 357.951 627.708 365.116 624.226 371.313" stroke="#565758" stroke-width="1.5" stroke-linecap="round" stroke-linejoin="round"/>
<path d="M685.163 380.124C687.872 384.965 690.097 390.097 691.741 395.422" stroke="#565758" stroke-width="1.5" stroke-linecap="round" stroke-linejoin="round"/>
<path d="M678.393 495.248C672.492 514.032 667.269 528.653 664.367 536.592C662.723 540.949 661.852 543.37 661.852 543.37H638.831L646.473 489.342" stroke="#565758" stroke-width="1.5" stroke-linecap="round" stroke-linejoin="round"/>
<path d="M695.223 419.822C695.223 429.988 693.579 442.091 689.613 456.809C685.841 470.752 681.971 483.726 678.393 495.151" stroke="#565758" stroke-width="1.5" stroke-linecap="round" stroke-linejoin="round"/>
<path d="M629.836 376.057C624.129 393.195 621.034 411.689 629.449 440.155C633.125 452.645 639.702 471.236 646.376 489.342" stroke="#565758" stroke-width="1.5" stroke-linecap="round" stroke-linejoin="round"/>
<path d="M664.367 536.592C666.012 540.852 666.979 543.37 666.979 543.37H692.708L678.393 495.248" stroke="#565758" stroke-width="1.5" stroke-linecap="round" stroke-linejoin="round"/>
<path d="M621.614 575.226H650.535L655.372 561.864" stroke="#565758" stroke-width="1.5" stroke-linecap="round" stroke-linejoin="round"/>
<path d="M658.177 575.226H650.535" stroke="#565758" stroke-width="1.5" stroke-linecap="round" stroke-linejoin="round"/>
<path d="M621.614 575.225C621.614 571.546 623.355 568.06 626.45 566.027C630.223 563.606 634.962 559.346 636.22 552.665C636.607 550.632 638.445 549.083 640.573 549.083H660.111L659.144 561.476" stroke="#565758" stroke-width="1.5" stroke-linecap="round" stroke-linejoin="round"/>
<path d="M638.831 543.273L637.767 550.245" stroke="#565758" stroke-width="1.5" stroke-linecap="round" stroke-linejoin="round"/>
<path d="M657.983 549.18L659.144 543.273" stroke="#565758" stroke-width="1.5" stroke-linecap="round" stroke-linejoin="round"/>
<path d="M659.144 561.573C667.656 558.765 668.526 548.792 668.526 548.792H694.643C694.933 548.792 695.223 548.986 695.32 549.276L703.348 574.451H691.644L685.937 559.055C680.134 564.768 678.006 575.225 666.979 575.225H658.08" stroke="#565758" stroke-width="1.5" stroke-linecap="round" stroke-linejoin="round"/>
<path d="M692.805 543.273L694.546 548.792" stroke="#565758" stroke-width="1.5" stroke-linecap="round" stroke-linejoin="round"/>
<path d="M670.268 543.273L672.202 548.792" stroke="#565758" stroke-width="1.5" stroke-linecap="round" stroke-linejoin="round"/>
<path d="M659.144 561.573L658.177 575.226" stroke="#565758" stroke-width="1.5" stroke-linecap="round" stroke-linejoin="round"/>
<path d="M646.376 489.342L656.049 421.081L656.919 414.69" stroke="white" stroke-width="1.5" stroke-linecap="round" stroke-linejoin="round"/>
<path d="M648.021 411.688C649.665 416.53 653.534 419.531 656.049 421.08" stroke="white" stroke-width="1.5" stroke-linecap="round" stroke-linejoin="round"/>
<path d="M447.603 350.979C448.184 352.916 447.506 354.756 446.056 356.402C444.798 352.625 443.637 348.752 442.477 345.17C444.605 346.138 446.346 347.784 447.313 349.914C447.313 350.205 447.41 350.592 447.603 350.979Z" fill="#565758"/>
<path d="M431.256 341.878C431.643 342.556 431.837 343.33 431.643 344.008C431.45 344.783 431.063 345.46 430.386 345.848L430.289 345.945C429.225 345.364 427.871 345.46 427 346.235L423.325 349.333C421.1 351.173 419.359 353.4 418.005 356.014L412.588 355.724L415.587 350.786C416.651 349.043 418.005 347.591 419.649 346.429L427.097 341.007C428.355 340.038 430.192 340.426 431.16 341.684C431.16 341.781 431.16 341.781 431.256 341.878Z" fill="white"/>
<path d="M430.966 346.623C432.03 347.881 431.837 349.721 430.676 350.689L424.486 355.918L424.292 356.305L417.908 356.015C419.262 353.497 421.1 351.27 423.228 349.334L426.904 346.235C427.871 345.461 429.128 345.364 430.192 345.945C430.483 346.138 430.773 346.332 430.966 346.623Z" fill="white"/>
<path d="M427.097 341.104L419.649 346.526C418.005 347.688 416.651 349.237 415.587 350.883L412.588 355.821L408.719 355.627C409.59 354.272 410.363 353.013 411.041 351.851C411.911 350.399 412.588 349.14 413.169 348.172C413.942 346.913 415.006 345.848 416.264 345.073L420.133 342.75C422.067 341.588 424.002 340.329 425.163 339.651C426.517 338.877 428.258 339.264 429.128 340.619C428.258 340.523 427.581 340.716 427.097 341.104Z" fill="white"/>
<path d="M411.331 378.672L378.347 392.711C374.865 394.164 370.802 394.067 367.417 392.324C367.61 391.452 367.32 390.484 366.74 389.903C366.063 388.935 365.869 387.676 366.159 386.514C366.256 385.643 366.74 384.868 367.514 384.481L370.996 382.448C377.96 382.545 383.087 380.705 386.375 375.283C386.375 375.283 389.761 375.767 395.177 376.541L401.948 377.51C404.85 377.897 408.042 378.284 411.331 378.672Z" fill="white"/>
<path d="M410.073 266.646C410.17 267.226 410.17 267.711 410.17 268.292C410.17 269.938 409.783 271.487 409.106 272.939C408.042 275.36 405.624 277.006 403.012 277.103C399.046 277.103 395.854 273.133 395.854 268.292C395.854 267.711 395.854 267.226 395.951 266.646H410.073Z" fill="white"/>
<path d="M409.88 349.043C410.267 349.915 410.557 350.883 410.847 351.851C410.17 352.916 409.493 354.175 408.526 355.627L405.721 355.53C405.43 354.175 405.044 352.916 404.56 351.657C403.883 350.205 404.463 348.462 405.914 347.784C407.365 347.107 409.106 347.591 409.88 349.043Z" fill="white"/>
<path d="M395.758 268.292C395.758 273.133 398.95 277.103 402.916 277.103C405.624 277.006 407.945 275.36 409.009 272.939C409.299 278.845 409.396 279.33 409.106 281.072C404.85 285.623 402.335 279.33 396.338 278.749C396.628 278.749 396.918 278.555 397.112 278.458C397.596 278.071 397.596 277.296 397.209 276.909C397.112 276.812 397.112 276.812 397.015 276.715C395.661 275.65 393.727 273.326 395.758 268.292Z" fill="white"/>
<path d="M407.075 548.695C407.558 548.211 408.139 548.018 408.816 548.115C409.783 548.211 410.654 549.083 410.654 550.051C411.041 557.313 417.521 562.929 423.905 562.929C429.032 562.929 434.061 560.799 436.673 559.54C437.737 559.056 438.898 559.056 439.865 559.733H439.962C440.832 560.314 441.316 561.283 441.413 562.251C441.703 571.062 435.706 574.354 428.258 574.354H385.118V561.67C385.118 560.508 384.538 559.443 383.474 558.862L383.86 555.861C387.826 557.313 392.082 557.991 396.338 558.087C403.012 558.087 403.98 552.084 406.688 549.083C406.785 548.986 406.978 548.792 407.075 548.695Z" fill="white"/>
<path d="M379.798 253.962C379.798 260.546 378.347 265.096 374.865 266.742H372.834C371.576 243.311 395.951 247.378 399.24 241.762C399.724 248.055 412.588 253.284 407.558 261.223C406.881 259.093 405.817 256.963 404.463 255.22C404.27 254.93 403.98 254.736 403.593 254.543C400.788 253.381 398.66 254.349 396.725 255.898C395.951 256.576 394.887 256.673 394.017 256.092C389.857 253.671 384.054 255.414 379.798 253.962Z" fill="#565758"/>
<path d="M404.657 355.337C406.398 356.402 407.462 358.242 407.558 360.275C407.558 362.889 405.624 365.116 402.722 366.181C401.561 366.665 400.207 366.859 398.95 366.859C397.982 366.859 397.015 366.762 396.048 366.472C392.759 365.6 390.341 363.18 390.341 360.372C390.341 358.629 391.212 357.08 392.566 356.015C394.404 354.562 396.628 353.788 398.95 353.788C400.981 353.691 402.916 354.272 404.657 355.337Z" fill="white"/>
<path d="M404.657 355.337C406.398 356.402 407.462 358.242 407.558 360.275C407.558 362.889 405.624 365.116 402.722 366.181C401.561 366.665 400.207 366.859 398.95 366.859C397.982 366.859 397.015 366.762 396.048 366.472C392.759 365.6 390.341 363.18 390.341 360.372C390.341 358.629 391.212 357.08 392.566 356.015C394.404 354.562 396.628 353.788 398.95 353.788C400.981 353.691 402.916 354.272 404.657 355.337Z" fill="white"/>
<path d="M404.657 355.337L405.817 355.434L408.622 355.531L412.491 355.724L417.908 356.015L424.292 356.305L424.486 355.918L430.676 350.689C431.933 349.624 432.03 347.785 430.966 346.623C430.773 346.332 430.483 346.139 430.192 345.945L430.289 345.848C430.966 345.364 431.353 344.686 431.547 344.008C435.803 343.524 439.575 343.815 442.38 345.074C443.541 348.753 444.798 352.529 445.959 356.305C447.023 359.5 447.99 362.599 448.957 365.6C451.085 371.991 447.603 378.768 441.219 380.899C439.672 381.383 437.931 381.576 436.286 381.48L435.125 381.383C427 380.608 418.682 379.543 411.234 378.672C407.945 378.284 404.753 377.8 401.852 377.51C402.045 374.702 402.335 370.248 402.625 366.181C405.527 365.116 407.462 362.889 407.462 360.275C407.462 358.242 406.398 356.402 404.657 355.337Z" fill="white"/>
<path d="M402.722 366.084C402.432 370.151 402.142 374.702 401.948 377.413L395.177 376.445C395.371 373.637 395.758 369.57 396.048 366.278C397.015 366.569 397.982 366.665 398.95 366.665C400.207 366.762 401.465 366.569 402.722 366.084Z" fill="white"/>
<path d="M402.722 366.084C402.432 370.151 402.142 374.702 401.948 377.413L395.177 376.445C395.371 373.637 395.758 369.57 396.048 366.278C397.015 366.569 397.982 366.665 398.95 366.665C400.207 366.762 401.465 366.569 402.722 366.084Z" fill="#565758"/>
<path d="M395.564 281.556C399.724 281.363 401.755 283.493 400.884 285.72C399.82 288.237 395.371 291.045 395.371 291.045C395.371 291.045 390.631 289.689 388.116 287.366C382.216 282.04 395.177 281.556 395.564 281.556Z" fill="white"/>
<path d="M399.24 302.47L407.655 323.288C407.365 323.094 402.722 319.705 397.692 319.608V301.502C398.079 301.405 398.369 301.405 398.756 301.309L399.24 302.47Z" fill="white"/>
<path d="M396.918 301.599C397.209 301.599 397.499 301.502 397.789 301.502V323.288C396.628 322.61 395.468 321.932 394.21 321.255C385.505 315.929 375.542 308.667 375.542 302.761V284.945C377.476 294.337 383.474 302.761 396.918 301.599Z" fill="white"/>
<path d="M396.435 278.749C395.661 278.845 394.5 278.749 393.34 278.942L393.92 278.845C394.694 278.652 395.564 278.555 396.435 278.749Z" fill="white"/>
<path d="M372.737 267.226C373.414 267.13 374.091 266.936 374.768 266.646H378.057C377.96 267.226 377.96 267.711 377.96 268.292C377.96 273.133 381.152 277.103 385.118 277.103C389.084 277.103 392.372 273.133 392.372 268.292C392.372 267.711 392.372 267.226 392.276 266.646H395.951C395.855 267.226 395.855 267.711 395.855 268.292C393.823 273.326 395.758 275.65 397.209 276.618C397.692 276.909 397.886 277.684 397.596 278.168C397.499 278.264 397.499 278.361 397.402 278.361C397.209 278.555 396.919 278.652 396.628 278.652C395.758 278.555 394.887 278.555 394.113 278.749L393.533 278.845C385.892 280.395 378.831 287.947 375.252 279.91H375.155C362.967 277.296 366.546 267.323 372.06 267.323C372.06 267.226 372.447 267.226 372.737 267.226Z" fill="white"/>
<path d="M400.788 285.72C401.755 283.493 399.627 281.46 395.468 281.556C395.081 281.556 382.216 282.137 388.02 287.366C390.535 289.69 395.274 291.045 395.274 291.045C395.274 291.045 399.724 288.237 400.788 285.72ZM393.243 278.942C394.404 278.845 395.564 278.942 396.338 278.749C402.335 279.426 404.85 285.623 409.106 281.072C409.493 284.655 408.042 298.791 398.66 301.212C398.273 301.309 397.982 301.405 397.596 301.405C397.209 301.405 397.015 301.502 396.725 301.502C383.28 302.664 377.283 294.24 375.348 284.848C374.962 283.202 374.768 281.46 374.671 279.814H374.768C378.637 288.044 385.698 280.395 393.243 278.942Z" fill="#565758"/>
<path d="M392.276 266.646C392.372 267.226 392.372 267.711 392.372 268.292C392.372 273.133 389.18 277.103 385.118 277.103C381.055 277.103 377.96 273.133 377.96 268.292C377.96 267.711 377.96 267.226 378.057 266.646H392.276Z" fill="white"/>
<path d="M394.21 321.158C394.21 321.158 386.569 322.416 377.96 329C376.606 320.673 370.029 303.245 370.029 303.245L375.542 298.404V302.664C375.542 308.57 385.505 315.929 394.21 321.158Z" fill="white"/>
<path d="M386.472 549.18H406.688C403.98 552.181 403.012 558.184 396.338 558.184C392.082 558.088 387.826 557.41 383.86 555.957L384.731 549.18H386.472Z" fill="white"/>
<path d="M351.167 558.378C350.973 552.278 355.713 547.05 361.807 546.856C362.097 546.856 362.387 546.856 362.677 546.856C364.999 546.953 367.223 547.727 368.965 549.18C370.609 550.438 371.866 552.181 372.64 554.118C373.704 556.829 376.316 558.572 379.218 558.572H381.926C383.667 558.572 385.118 560.024 385.118 561.767V574.451H338.979C338.979 560.702 349.716 567.964 351.167 558.378Z" fill="white"/>
<path d="M384.634 549.18L383.764 555.957L383.377 558.959C382.893 558.669 382.41 558.572 381.829 558.572H379.218C376.316 558.572 373.704 556.829 372.64 554.118C371.866 552.181 370.609 550.438 368.965 549.18H384.634Z" fill="white"/>
<path d="M392.276 266.646H374.768C378.25 265.096 379.701 260.449 379.701 253.865C383.957 255.317 389.761 253.671 393.92 255.995C394.791 256.479 395.855 256.382 396.628 255.801C398.563 254.252 400.691 253.284 403.496 254.446C403.883 254.543 404.173 254.833 404.366 255.123C405.721 256.963 406.785 258.996 407.462 261.127C407.945 262.579 408.332 264.128 408.526 265.677V266.646H392.276Z" fill="white"/>
<path d="M373.124 351.077L376.122 360.565C374.865 360.953 373.704 361.34 372.64 361.727C367.901 361.146 363.258 359.888 358.808 357.951C357.357 357.37 355.616 358.048 355.036 359.5C354.456 360.953 355.133 362.695 356.584 363.276C358.905 364.245 361.226 365.213 363.451 366.084C359.775 368.505 356.584 371.603 354.069 375.089L353.875 374.992C352.618 372.668 351.457 370.151 350.296 367.44C349.136 364.729 347.975 361.824 346.814 358.532C354.262 353.11 369.448 349.14 373.124 351.077Z" fill="white"/>
<path d="M372.737 266.646H374.768C374.091 266.936 373.414 267.13 372.737 267.226C372.737 267.033 372.737 266.839 372.737 266.646Z" fill="white"/>
<path d="M372.64 361.727C369.448 362.792 366.353 364.342 363.354 366.084C361.13 365.213 358.905 364.245 356.487 363.277C355.036 362.696 354.262 360.953 354.939 359.5C355.52 358.048 357.261 357.273 358.712 357.951C363.161 359.791 367.901 361.146 372.64 361.727Z" fill="white"/>
<path d="M368.965 549.18C367.127 547.727 364.902 546.953 362.677 546.856C360.066 546.759 357.551 547.534 355.52 549.18H351.36C365.289 447.514 355.133 423.598 358.518 397.843C359.389 398.521 360.549 398.908 361.613 398.811H427.774C428.935 398.811 429.999 398.521 430.966 398.036C429.128 435.604 410.944 536.786 408.816 548.115C408.139 548.018 407.558 548.211 407.075 548.695C406.881 548.792 406.785 548.986 406.591 549.18H368.965Z" fill="white"/>
<path d="M368.965 549.18C367.127 547.727 364.902 546.953 362.677 546.856C360.066 546.759 357.551 547.534 355.52 549.18H351.36C365.289 447.514 355.133 423.598 358.518 397.843C359.389 398.521 360.549 398.908 361.613 398.811H427.774C428.935 398.811 429.999 398.521 430.966 398.036C429.128 435.604 410.944 536.786 408.816 548.115C408.139 548.018 407.558 548.211 407.075 548.695C406.881 548.792 406.785 548.986 406.591 549.18H368.965Z" fill="#565758"/>
<path d="M356.197 389.322C355.81 389.031 355.423 388.741 355.036 388.451C353.488 387.192 352.424 385.546 351.747 383.706C350.877 381.576 351.167 379.059 352.424 377.122C352.908 376.444 353.392 375.767 353.972 375.089C356.584 371.506 359.776 368.505 363.354 366.084C366.256 364.244 369.351 362.792 372.64 361.727C373.704 361.34 374.962 360.952 376.122 360.565C378.54 359.79 381.152 358.919 384.151 357.951C386.859 357.079 389.664 356.402 392.566 355.917C391.212 356.983 390.438 358.532 390.341 360.275C390.341 363.082 392.663 365.503 396.048 366.375C395.855 369.667 395.468 373.733 395.177 376.541C389.761 375.767 386.375 375.282 386.375 375.282C382.99 380.705 377.96 382.544 370.996 382.447L367.514 384.481C366.74 384.868 366.256 385.643 366.159 386.514C365.966 387.676 366.159 388.935 366.74 389.903C367.32 390.581 367.61 391.452 367.417 392.324C367.32 393.001 366.933 393.582 366.45 393.97C365.289 394.938 363.645 394.938 362.581 393.873C362.194 393.776 361.807 393.582 361.42 393.389C360.162 392.324 359.098 391.065 358.421 389.709C358.228 389.709 358.034 389.806 357.841 389.806C357.164 389.709 356.68 389.612 356.197 389.322Z" fill="white"/>
<path d="M373.124 351.077C369.448 349.14 354.262 353.11 346.717 358.629C344.203 360.469 342.558 362.405 342.365 364.342C342.752 355.531 341.397 341.201 340.043 330.066C338.786 319.318 345.46 309.248 355.81 306.247C360.453 304.988 365.192 304.02 370.029 303.342C370.029 303.342 376.606 320.674 377.96 329.097C386.569 322.417 394.21 321.255 394.21 321.255C395.468 322.029 396.628 322.707 397.789 323.288V319.609C402.819 319.705 407.462 323.094 407.752 323.288L399.337 302.471C404.657 302.858 409.88 303.729 415.006 304.988C424.099 307.409 431.643 313.799 435.319 322.513L447.216 350.012C446.249 347.881 444.605 346.139 442.38 345.267C439.575 344.008 435.899 343.718 431.547 344.202C431.74 343.427 431.643 342.653 431.16 342.072C429.322 340.716 427.097 339.942 424.776 339.748C423.712 340.426 421.777 341.588 419.746 342.847L415.877 345.17C414.619 345.945 413.555 347.01 412.782 348.269C412.201 349.237 411.524 350.496 410.654 351.948C410.363 350.98 410.073 350.108 409.686 349.14C409.009 347.688 407.268 347.107 405.817 347.785C404.366 348.462 403.786 350.205 404.463 351.658C404.947 352.916 405.334 354.175 405.624 355.531L404.463 355.434C402.819 354.369 400.788 353.788 398.756 353.788C396.435 353.788 394.113 354.562 392.372 356.015C389.567 356.499 386.762 357.177 383.957 358.048C380.959 359.016 378.347 359.888 375.929 360.662L373.124 351.077ZM356.874 396.003C357.261 396.681 357.744 397.359 358.421 397.843C359.292 398.521 360.453 398.908 361.517 398.811H427.678C431.16 398.811 434.158 396.1 434.545 392.614C434.835 389.516 435.222 385.449 435.222 381.383C427.097 380.608 418.779 379.543 411.331 378.672L378.347 392.711C374.865 394.164 370.802 394.067 367.417 392.324C367.32 393.002 366.933 393.583 366.45 393.97C365.289 394.938 363.645 394.938 362.581 393.873C362.194 393.776 361.807 393.583 361.42 393.389C360.162 392.324 359.098 391.065 358.421 389.71C358.228 389.71 358.034 389.806 357.841 389.806C357.261 389.806 356.777 389.613 356.293 389.322C355.906 389.032 355.52 388.741 355.133 388.451C355.036 391.065 355.713 393.679 356.874 396.003Z" fill="white"/>
<path d="M350.2 367.537C345.944 367.827 342.365 367.343 342.365 364.826C342.365 364.729 342.365 364.535 342.365 364.438C342.558 362.502 344.203 360.468 346.717 358.726C347.878 361.824 349.039 364.826 350.2 367.537Z" fill="#565758"/>
<path d="M350.2 367.537C345.944 367.827 342.365 367.343 342.365 364.826C342.365 364.729 342.365 364.535 342.365 364.438C342.752 355.627 341.397 341.297 340.043 330.163C338.786 319.415 345.46 309.345 355.81 306.344C360.453 305.085 365.192 304.117 370.029 303.439" stroke="#565758" stroke-width="1.5" stroke-linecap="round" stroke-linejoin="round"/>
<path d="M375.542 298.5L370.029 303.342C370.029 303.342 376.606 320.673 377.96 329.097C386.569 322.416 394.21 321.254 394.21 321.254" stroke="#565758" stroke-width="1.5" stroke-linecap="round" stroke-linejoin="round"/>
<path d="M342.365 364.729C342.365 364.632 342.365 364.438 342.365 364.341C342.558 362.405 344.203 360.372 346.717 358.629C354.262 353.11 369.448 349.14 373.124 351.076" stroke="#565758" stroke-width="1.5" stroke-linecap="round" stroke-linejoin="round"/>
<path d="M369.351 339.167L373.124 351.076L376.122 360.468" stroke="#565758" stroke-width="1.5" stroke-linecap="round" stroke-linejoin="round"/>
<path d="M372.64 361.727C369.448 362.792 366.353 364.341 363.354 366.084C359.679 368.505 356.487 371.603 353.972 375.089C353.488 375.767 353.005 376.444 352.424 377.122C351.167 379.059 350.877 381.479 351.747 383.706C352.424 385.546 353.488 387.192 355.036 388.451C355.423 388.741 355.81 389.032 356.197 389.322C356.68 389.613 357.164 389.709 357.744 389.806C357.938 389.806 358.131 389.806 358.325 389.709" stroke="#565758" stroke-width="1.5" stroke-linecap="round" stroke-linejoin="round"/>
<path d="M392.566 355.917C389.761 356.402 386.956 357.079 384.151 357.951C381.152 358.919 378.54 359.79 376.122 360.565C374.865 360.952 373.704 361.34 372.64 361.727" stroke="#565758" stroke-width="1.5" stroke-linecap="round" stroke-linejoin="round"/>
<path d="M353.778 374.992C352.521 372.668 351.36 370.151 350.2 367.44C349.039 364.729 347.878 361.824 346.717 358.532" stroke="#565758" stroke-width="1.5" stroke-linecap="round" stroke-linejoin="round"/>
<path d="M363.354 366.084C361.13 365.213 358.905 364.245 356.487 363.277C355.036 362.696 354.262 360.953 354.939 359.5C355.52 358.048 357.261 357.273 358.712 357.951C363.161 359.888 367.804 361.146 372.543 361.727" stroke="#565758" stroke-width="1.5" stroke-linecap="round" stroke-linejoin="round"/>
<path d="M388.116 287.366C390.631 289.69 395.371 291.045 395.371 291.045C395.371 291.045 399.82 288.237 400.884 285.72C401.852 283.493 399.724 281.46 395.564 281.557C395.177 281.557 382.216 282.041 388.116 287.366Z" stroke="#565758" stroke-width="1.5" stroke-linecap="round" stroke-linejoin="round"/>
<path d="M390.825 284.945C393.049 285.333 395.468 285.139 397.596 284.364" stroke="#565758" stroke-width="1.2" stroke-linecap="round" stroke-linejoin="round"/>
<path d="M369.061 270.906C370.029 269.55 373.124 269.26 373.414 272.552" stroke="#565758" stroke-width="1.5" stroke-linecap="round" stroke-linejoin="round"/>
<path d="M371.479 266.646H372.737H374.768H378.057H392.276H395.855H408.526H410.073H410.75" stroke="#565758" stroke-width="1.5" stroke-linecap="round" stroke-linejoin="round"/>
<path d="M395.855 266.646C395.758 267.226 395.758 267.711 395.758 268.292C395.758 273.133 398.95 277.103 402.916 277.103C405.624 277.006 407.945 275.36 409.009 272.939C409.686 271.487 410.073 269.938 410.073 268.292C410.073 267.711 410.073 267.226 409.977 266.646" stroke="#565758" stroke-width="1.5" stroke-linecap="round" stroke-linejoin="round"/>
<path d="M378.057 266.646C377.96 267.226 377.96 267.711 377.96 268.292C377.96 273.133 381.152 277.103 385.118 277.103C389.084 277.103 392.372 273.133 392.372 268.292C392.372 267.711 392.372 267.226 392.276 266.646" stroke="#565758" stroke-width="1.5" stroke-linecap="round" stroke-linejoin="round"/>
<path d="M393.243 278.845C394.404 278.749 395.564 278.845 396.338 278.652C396.628 278.652 396.918 278.458 397.112 278.361C397.596 277.974 397.596 277.199 397.209 276.812C397.112 276.715 397.112 276.715 397.015 276.618C395.661 275.65 393.727 273.326 395.661 268.292" stroke="#565758" stroke-width="1.5" stroke-linecap="round" stroke-linejoin="round"/>
<path d="M384.731 271.1V271.681" stroke="#565758" stroke-width="2.5" stroke-linecap="round" stroke-linejoin="round"/>
<path d="M400.304 271.1V271.681" stroke="#565758" stroke-width="2.5" stroke-linecap="round" stroke-linejoin="round"/>
<path d="M380.475 264.515C383.28 263.644 386.085 263.063 388.987 262.772" stroke="#565758" stroke-width="1.5" stroke-linecap="round" stroke-linejoin="round"/>
<path d="M398.756 262.772C402.045 262.676 406.494 264.418 406.494 264.418" stroke="#565758" stroke-width="1.5" stroke-linecap="round" stroke-linejoin="round"/>
<path d="M372.737 267.323C372.737 267.13 372.737 266.936 372.737 266.742C371.479 243.311 395.854 247.378 399.143 241.762C399.627 248.055 412.491 253.284 407.462 261.223" stroke="#565758" stroke-width="1.5" stroke-linecap="round" stroke-linejoin="round"/>
<path d="M379.798 253.961C384.054 255.414 389.857 253.768 394.017 256.092C394.887 256.576 395.951 256.479 396.725 255.898C398.66 254.349 400.788 253.38 403.593 254.542C403.98 254.639 404.27 254.93 404.463 255.22C405.817 257.06 406.881 259.093 407.558 261.223C408.042 262.676 408.429 264.225 408.622 265.774" stroke="#565758" stroke-width="1.5" stroke-linecap="round" stroke-linejoin="round"/>
<path d="M374.865 279.813C374.962 281.556 375.155 283.202 375.542 284.848C377.476 294.24 383.474 302.761 396.918 301.502C397.209 301.502 397.499 301.405 397.789 301.405C398.079 301.405 398.466 301.308 398.853 301.212C408.235 298.694 409.686 284.655 409.299 281.072C405.044 285.623 402.529 279.329 396.532 278.748C395.661 278.651 394.791 278.651 394.017 278.845L393.436 278.942C385.795 280.491 378.734 288.043 375.155 280.007L374.865 279.813ZM374.865 279.813C362.677 277.296 366.256 267.226 371.77 267.226C372.06 267.226 372.447 267.226 372.737 267.129C373.414 267.033 374.091 266.839 374.768 266.548C378.25 264.999 379.701 260.352 379.701 253.768" stroke="#565758" stroke-width="1.5" stroke-linecap="round" stroke-linejoin="round"/>
<path d="M409.106 272.939C409.396 278.845 409.493 279.329 409.203 281.072" stroke="#565758" stroke-width="1.5" stroke-linecap="round" stroke-linejoin="round"/>
<path d="M397.789 301.502V323.288C396.628 322.61 395.468 321.932 394.21 321.255C385.505 315.929 375.542 308.667 375.542 302.761V284.945" stroke="#565758" stroke-width="1.5" stroke-linecap="round" stroke-linejoin="round"/>
<path d="M407.752 323.288L399.24 302.471L398.756 301.212" stroke="#565758" stroke-width="1.5" stroke-linecap="round" stroke-linejoin="round"/>
<path d="M397.789 319.608C402.819 319.705 407.462 323.094 407.752 323.288" stroke="#565758" stroke-width="1.5" stroke-linecap="round" stroke-linejoin="round"/>
<path d="M397.789 323.288V327.161" stroke="#565758" stroke-width="1.5" stroke-linecap="round" stroke-linejoin="round"/>
<path d="M367.417 392.324C370.802 394.066 374.865 394.163 378.347 392.711L411.331 378.671" stroke="#565758" stroke-width="1.5" stroke-linecap="round" stroke-linejoin="round"/>
<path d="M430.483 356.692L424.292 356.305L417.908 356.015L412.491 355.724L408.526 355.531L405.817 355.337H404.657" stroke="#565758" stroke-width="1.5" stroke-linecap="round" stroke-linejoin="round"/>
<path d="M362.581 393.873L362.387 393.679C360.646 391.743 359.969 389.032 360.356 385.74C360.646 383.029 362.194 380.705 364.612 379.349L367.03 377.897" stroke="#565758" stroke-width="1.5" stroke-linecap="round" stroke-linejoin="round"/>
<path d="M442.38 345.073C443.541 348.753 444.798 352.529 445.959 356.305C447.023 359.5 447.99 362.598 448.957 365.6C451.085 371.99 447.603 378.768 441.219 380.898C439.672 381.382 437.931 381.576 436.286 381.479L435.125 381.382C427 380.608 418.682 379.543 411.234 378.671C407.945 378.284 404.753 377.8 401.852 377.509L395.081 376.541C389.664 375.767 386.279 375.283 386.279 375.283C382.893 380.705 377.863 382.544 370.899 382.448L367.417 384.481C366.643 384.868 366.159 385.643 366.063 386.514C365.869 387.676 366.063 388.935 366.643 389.903C367.223 390.581 367.514 391.452 367.32 392.324C367.223 393.001 366.837 393.582 366.353 393.97C365.192 394.938 363.548 394.938 362.484 393.873" stroke="#565758" stroke-width="1.5" stroke-linecap="round" stroke-linejoin="round"/>
<path d="M363.451 373.54C361.323 374.798 359.389 376.444 357.841 378.381C356.1 380.608 355.713 383.706 356.777 386.32C357.261 387.482 357.744 388.644 358.421 389.806C359.195 391.258 360.259 392.517 361.42 393.485C361.807 393.776 362.194 393.97 362.581 393.97" stroke="#565758" stroke-width="1.5" stroke-linecap="round" stroke-linejoin="round"/>
<path d="M412.491 355.724L415.49 350.786C416.554 349.043 417.908 347.591 419.552 346.429L427 341.007C428.258 340.038 430.096 340.426 431.063 341.684L431.16 341.781C431.547 342.459 431.74 343.234 431.547 343.911C431.353 344.686 430.966 345.364 430.289 345.751L430.192 345.848" stroke="#565758" stroke-width="1.5" stroke-linecap="round" stroke-linejoin="round"/>
<path d="M417.908 356.015C419.262 353.497 421.1 351.27 423.228 349.334L426.904 346.235C427.871 345.461 429.128 345.364 430.192 345.945C430.483 346.138 430.773 346.332 430.966 346.623C432.03 347.881 431.837 349.721 430.676 350.689L424.486 355.918L424.292 356.305" stroke="#565758" stroke-width="1.5" stroke-linecap="round" stroke-linejoin="round"/>
<path d="M428.742 340.523C427.871 339.167 426.13 338.78 424.776 339.554C423.712 340.232 421.777 341.394 419.843 342.653L415.974 344.977C414.716 345.751 413.652 346.816 412.878 348.075C412.298 349.043 411.621 350.302 410.75 351.754C410.073 352.819 409.396 354.078 408.429 355.531" stroke="#565758" stroke-width="1.5" stroke-linecap="round" stroke-linejoin="round"/>
<path d="M405.817 355.337C405.527 353.981 405.14 352.723 404.657 351.464C403.98 350.011 404.56 348.269 406.011 347.591C407.462 346.913 409.203 347.494 409.88 348.946C410.267 349.818 410.557 350.786 410.847 351.754" stroke="#565758" stroke-width="1.5" stroke-linecap="round" stroke-linejoin="round"/>
<path d="M418.779 337.812C418.972 338.683 419.359 340.426 419.843 342.556" stroke="#565758" stroke-width="1.5" stroke-linecap="round" stroke-linejoin="round"/>
<path d="M431.547 344.008C435.803 343.524 439.575 343.815 442.38 345.074C444.508 346.042 446.249 347.688 447.216 349.818C447.41 350.205 447.506 350.496 447.603 350.883C448.184 352.819 447.506 354.659 446.056 356.305" stroke="#565758" stroke-width="1.5" stroke-linecap="round" stroke-linejoin="round"/>
<path d="M399.24 302.471C404.56 302.858 409.783 303.729 414.91 304.988C424.002 307.409 431.547 313.799 435.222 322.513L447.12 350.012" stroke="#565758" stroke-width="1.5" stroke-linecap="round" stroke-linejoin="round"/>
<path d="M404.657 355.337C406.398 356.402 407.462 358.242 407.558 360.275C407.558 362.889 405.624 365.116 402.722 366.181C401.561 366.665 400.207 366.859 398.95 366.859C397.982 366.859 397.015 366.762 396.048 366.472C392.759 365.6 390.341 363.18 390.341 360.372C390.341 358.629 391.212 357.08 392.566 356.015C394.404 354.562 396.628 353.788 398.95 353.788C400.981 353.691 402.916 354.272 404.657 355.337Z" stroke="#565758" stroke-width="1.5" stroke-linecap="round" stroke-linejoin="round"/>
<path d="M396.048 366.375C395.855 369.667 395.468 373.733 395.177 376.541" stroke="#565758" stroke-width="1.5" stroke-linecap="round" stroke-linejoin="round"/>
<path d="M402.722 366.084C402.432 370.151 402.142 374.702 401.948 377.413" stroke="#565758" stroke-width="1.5" stroke-linecap="round" stroke-linejoin="round"/>
<path d="M355.036 388.451C355.036 391.065 355.713 393.679 356.874 396.003C357.261 396.681 357.744 397.358 358.421 397.842C359.292 398.52 360.453 398.908 361.517 398.811H427.678C431.16 398.811 434.158 396.1 434.545 392.614C434.835 389.516 435.222 385.449 435.222 381.382" stroke="#565758" stroke-width="1.5" stroke-linecap="round" stroke-linejoin="round"/>
<path d="M430.966 398.036C429.128 435.604 410.944 536.786 408.816 548.114" stroke="#565758" stroke-width="1.5" stroke-linecap="round" stroke-linejoin="round"/>
<path d="M406.688 549.18H386.472H384.634H368.965" stroke="#565758" stroke-width="1.5" stroke-linecap="round" stroke-linejoin="round"/>
<path d="M355.423 549.18H351.264C365.192 447.514 355.036 423.598 358.421 397.843" stroke="#565758" stroke-width="1.5" stroke-linecap="round" stroke-linejoin="round"/>
<path d="M364.418 422.727C373.994 421.177 379.121 408.687 379.701 398.908" stroke="#565758" stroke-width="1.5" stroke-linecap="round" stroke-linejoin="round"/>
<path d="M383.473 558.959C382.99 558.668 382.506 558.572 381.926 558.572H379.218C376.316 558.572 373.704 556.829 372.64 554.118C371.866 552.181 370.609 550.438 368.965 549.18C367.127 547.727 364.902 546.953 362.677 546.856C356.584 546.662 351.457 551.407 351.167 557.507C351.167 557.797 351.167 558.087 351.167 558.378" stroke="#565758" stroke-width="1.5" stroke-linecap="round" stroke-linejoin="round"/>
<path d="M385.118 574.451V561.767C385.118 560.605 384.538 559.54 383.474 558.959" stroke="#565758" stroke-width="1.5" stroke-linecap="round" stroke-linejoin="round"/>
<path d="M351.264 556.151C351.264 556.925 351.264 557.603 351.167 558.378C349.813 567.963 338.979 560.702 338.979 574.451H385.118" stroke="#565758" stroke-width="1.5" stroke-linecap="round" stroke-linejoin="round"/>
<path d="M384.634 549.18L383.86 555.957L383.474 558.959" stroke="#565758" stroke-width="1.5" stroke-linecap="round" stroke-linejoin="round"/>
<path d="M385.118 574.451H428.161C435.609 574.451 441.606 571.159 441.316 562.348C441.316 561.283 440.736 560.314 439.865 559.83H439.768C438.801 559.249 437.64 559.152 436.576 559.637C434.061 560.895 428.935 563.025 423.808 563.025C417.425 563.025 410.944 557.313 410.557 550.148C410.557 549.179 409.686 548.308 408.719 548.211C408.042 548.114 407.462 548.308 406.978 548.792C406.785 548.889 406.688 549.083 406.494 549.276C403.786 552.278 402.819 558.281 396.145 558.281C391.889 558.184 387.633 557.506 383.667 556.054" stroke="#565758" stroke-width="1.5" stroke-linecap="round" stroke-linejoin="round"/>
<path d="M410.847 415.465C409.88 423.114 404.657 429.601 402.819 431.344C402.142 437.541 391.889 510.837 386.472 549.18" stroke="white" stroke-width="1.5" stroke-linecap="round" stroke-linejoin="round"/>
<path d="M738.653 472.495C747.262 472.495 754.323 480.047 754.323 489.245C754.323 498.444 747.359 505.996 738.653 505.996C729.948 505.996 722.984 498.444 722.984 489.245C722.984 480.047 730.045 472.495 738.653 472.495ZM743.49 489.342L738.653 482.564L733.817 489.342L738.653 496.12L743.49 489.342Z" fill="white"/>
<path d="M738.653 482.564L743.49 489.342L738.653 496.023L733.817 489.342L738.653 482.564Z" fill="white"/>
<path d="M732.366 472.495H738.653C730.045 472.495 722.984 480.047 722.984 489.245C722.984 498.444 729.948 505.996 738.653 505.996H732.366C723.757 505.996 716.696 498.444 716.696 489.245C716.696 480.047 723.757 472.495 732.366 472.495Z" fill="#565758"/>
<path d="M738.653 506.093C730.045 506.093 722.984 498.54 722.984 489.342C722.984 480.144 729.948 472.591 738.653 472.591C747.359 472.591 754.323 480.144 754.323 489.342C754.323 498.54 747.262 506.093 738.653 506.093Z" stroke="#565758" stroke-width="1.5" stroke-linecap="round" stroke-linejoin="round"/>
<path d="M738.653 506.093H732.366C723.757 506.093 716.696 498.54 716.696 489.342C716.696 480.144 723.661 472.591 732.366 472.591H738.653" stroke="#565758" stroke-width="1.5" stroke-linecap="round" stroke-linejoin="round"/>
<path d="M743.49 489.342L738.653 496.023L733.817 489.342L738.653 482.564L743.49 489.342Z" stroke="#565758" stroke-width="1.5" stroke-linecap="round" stroke-linejoin="round"/>
<path d="M322.957 398C331.566 398 338.53 405.552 338.53 414.75C338.53 423.949 331.566 431.501 322.957 431.501H316.67C325.278 431.501 332.339 423.949 332.339 414.75C332.339 405.552 325.375 398 316.67 398H322.957Z" fill="#565758"/>
<path d="M316.67 398C325.278 398 332.339 405.552 332.339 414.75C332.339 423.949 325.278 431.501 316.67 431.501C308.061 431.501 301 423.949 301 414.75C301 405.552 308.061 398 316.67 398Z" fill="white"/>
<path d="M316.67 431.501C325.278 431.501 332.339 423.949 332.339 414.75C332.339 405.552 325.375 398 316.67 398C307.964 398 301 405.552 301 414.75C301 423.949 308.061 431.501 316.67 431.501Z" stroke="#565758" stroke-width="1.5" stroke-linecap="round" stroke-linejoin="round"/>
<path d="M316.67 431.501H322.957C331.566 431.501 338.53 423.949 338.53 414.75C338.53 405.552 331.566 398 322.957 398H316.67" stroke="#565758" stroke-width="1.5" stroke-linecap="round" stroke-linejoin="round"/>
<path d="M308.738 415.719L313.865 410.588C314.445 410.007 315.316 410.007 315.799 410.588C316.089 410.878 316.186 411.169 316.186 411.556V416.978C316.186 417.753 316.863 418.334 317.637 418.334C318.024 418.334 318.314 418.14 318.604 417.946L324.698 411.846" stroke="#565758" stroke-width="1.5" stroke-linecap="round" stroke-linejoin="round"/>
<path d="M461.048 264.902C461.048 264.806 461.048 264.806 461.048 264.709C461.048 260.836 457.856 257.641 453.987 257.641C450.795 257.641 447.99 259.868 447.216 262.966C446.829 262.869 446.539 262.869 446.152 262.869C443.637 262.869 441.703 264.902 441.703 267.323C441.703 269.841 443.734 271.777 446.152 271.777H460.081C462.015 271.777 463.66 270.228 463.66 268.291C463.563 266.742 462.596 265.387 461.048 264.902Z" stroke="#565758" stroke-width="1.5" stroke-linecap="round" stroke-linejoin="round"/>
<path d="M519.278 274.198C517.827 273.617 516.472 272.842 515.215 271.971V280.782C515.215 285.72 515.215 291.723 515.118 298.307C522.47 303.148 532.045 303.051 539.3 297.92C538.913 292.691 538.72 287.85 538.72 283.59C532.723 281.169 524.501 277.49 519.278 274.198Z" fill="white"/>
<path d="M538.526 280.588V271.874C535.141 274.295 530.981 275.65 526.822 275.65C524.211 275.65 521.599 275.166 519.181 274.101C524.501 277.393 532.722 281.072 538.526 283.59C538.623 282.622 538.526 281.556 538.526 280.588Z" fill="#565758"/>
<path d="M547.038 249.604C546.071 245.15 543.653 241.084 540.267 238.082C539.493 237.404 538.526 237.017 537.462 237.017H514.828C514.828 242.73 511.346 246.99 506.703 249.604C506.123 249.314 505.446 249.12 504.769 249.023V240.116C504.769 237.211 507.187 234.79 510.089 234.79H511.636V231.401C511.636 228.4 513.764 225.979 516.666 225.495C532.239 222.978 533.206 228.012 544.33 226.657C546.071 226.173 544.33 234.5 544.33 234.5C544.33 234.5 550.52 237.404 549.65 249.12C548.682 249.023 547.812 249.217 547.038 249.604Z" fill="#565758"/>
<path d="M549.553 249.023C554.583 249.411 555.937 258.899 546.651 260.449C545.297 265.096 542.492 269.066 538.526 271.874C531.465 276.909 522.083 276.909 515.118 271.874C511.152 269.066 508.347 264.999 506.993 260.352C497.224 258.706 499.158 248.442 504.769 248.927C505.446 249.023 506.123 249.12 506.703 249.507C511.346 246.99 514.828 242.73 514.828 237.017H537.462C538.526 237.017 539.493 237.404 540.267 238.082C543.653 241.084 546.071 245.15 547.038 249.604C547.812 249.12 548.682 249.023 549.553 249.023Z" fill="white"/>
<path d="M615.811 567.189V572.127C615.811 573.386 614.747 574.451 613.489 574.451H556.42C555.163 574.451 554.099 573.386 554.099 572.127L554.196 567.189H615.811Z" fill="#565758"/>
<path d="M559.226 380.995C550.327 365.213 544.91 343.234 541.815 322.804C548.779 310.507 554.293 295.306 554.389 285.623C557.775 286.591 561.257 287.656 564.932 288.625L568.898 289.69C576.927 291.917 583.117 298.21 585.148 306.343L595.788 349.14C598.013 358.048 597.336 367.44 593.854 375.96C588.921 388.063 581.666 404.911 576.733 410.43C578.861 407.332 579.635 403.362 578.764 399.682C576.733 387.87 562.901 376.251 559.226 380.995Z" fill="white"/>
<path d="M530.401 439.961L533.013 531.751H491.324L484.553 399.779H494.516V389.419C515.215 396.1 537.656 394.551 557.194 385.159C554.099 391.162 553.229 393.486 553.229 393.486C553.229 393.486 551.391 411.882 571.026 411.882L590.565 531.751H544.136L530.401 439.961Z" fill="white"/>
<path d="M589.114 538.626C589.888 538.529 590.565 539.013 590.758 539.691C591.242 542.111 592.499 544.338 594.337 545.984C594.627 546.275 594.918 546.565 595.305 546.759L600.238 550.632L613.102 560.702C614.843 562.057 615.907 564.187 615.907 566.414V567.189H554.292L554.776 545.016H579.828C581.376 540.949 585.729 539.303 589.114 538.626Z" fill="white"/>
<path d="M587.76 531.751L589.114 538.626C585.729 539.303 581.376 540.852 579.828 545.016H554.776L552.358 531.751H587.76Z" fill="white"/>
<path d="M578.861 399.779C579.732 403.459 578.958 407.428 576.83 410.527C575.185 412.366 573.348 412.173 571.316 410.72C572.961 406.557 575.476 402.781 578.861 399.779Z" fill="#565758"/>
<path d="M571.316 410.72C571.22 411.108 571.026 411.495 570.929 411.882C551.391 411.882 553.132 393.486 553.132 393.486C553.132 393.486 554.099 391.162 557.098 385.159C557.775 383.9 558.452 382.545 559.226 380.995C562.901 376.251 576.636 387.967 578.861 399.779C575.572 402.684 572.961 406.46 571.316 410.72Z" fill="white"/>
<path d="M513.281 325.321C514.345 315.736 514.828 306.537 515.022 298.404C522.373 303.245 531.949 303.148 539.203 298.017C539.687 305.569 540.557 314.089 541.912 322.804C544.91 343.234 550.327 365.213 559.322 380.995C558.549 382.544 557.775 383.9 557.194 385.159C537.656 394.551 515.215 396.1 494.516 389.419V385.836C505.929 367.246 510.959 345.364 513.281 325.321Z" fill="#33CC80"/>
<path d="M554.486 285.623C554.389 295.306 548.876 310.41 541.912 322.707C540.557 313.993 539.784 305.472 539.203 297.92C538.72 291.336 538.526 285.43 538.526 280.588V277.684C544.136 279.717 549.553 282.331 554.486 285.623Z" fill="white"/>
<path d="M533.787 567.189L533.883 572.127C533.883 573.386 532.819 574.451 531.562 574.451H474.493C473.236 574.451 472.172 573.386 472.172 572.127V567.189H533.787Z" fill="#565758"/>
<path d="M508.154 545.016H533.206L533.69 567.189H472.172V566.414C472.172 564.187 473.236 562.057 474.977 560.701L486.391 551.697L492.291 547.049L492.678 546.759C494.806 545.113 496.353 542.789 497.127 540.271C497.224 539.884 497.321 539.497 497.321 539.11V538.335C500.899 538.819 506.413 540.271 508.154 545.016Z" fill="white"/>
<path d="M532.916 531.751L533.206 545.016H508.154C506.413 540.272 500.803 538.819 497.417 538.432V531.751H532.916Z" fill="white"/>
<path d="M515.118 280.782C515.118 285.72 515.118 291.723 515.022 298.307C514.828 306.44 514.441 315.639 513.28 325.224C505.639 312.347 499.255 295.402 499.158 285.042C504.091 281.847 509.508 279.329 515.118 277.49V280.782Z" fill="white"/>
<path d="M489.582 350.98H464.434L470.044 308.474C471.108 300.534 476.331 293.853 483.682 290.851C489.099 288.721 494.322 286.688 499.255 285.042C499.352 295.402 505.736 312.347 513.377 325.224C511.056 345.267 506.026 367.149 494.516 385.74V350.98H489.582Z" fill="white"/>
<path d="M480.587 350.979L477.685 355.433C476.428 357.37 474.3 358.532 471.978 358.532H463.563C461.242 358.532 459.114 357.37 457.856 355.433L454.954 350.979H480.587Z" fill="white"/>
<path d="M480.587 350.979L477.685 355.433C476.428 357.37 474.3 358.532 471.978 358.532H463.563C461.242 358.532 459.114 357.37 457.856 355.433L454.954 350.979H480.587Z" fill="#565758"/>
<path d="M450.118 379.156C451.666 380.124 452.246 382.254 451.182 383.803C450.698 384.578 449.925 385.159 449.054 385.352C448.861 385.449 448.57 385.449 448.377 385.449C447.797 385.449 447.12 385.256 446.636 384.965C443.831 383.222 440.832 381.77 437.834 380.511C437.64 380.414 437.544 380.318 437.35 380.318C435.899 379.446 435.416 377.606 435.996 376.057C436.77 373.346 438.704 371.022 441.316 369.764V374.702C444.314 375.864 447.216 377.413 450.118 379.156Z" fill="white"/>
<path d="M449.054 385.353C450.312 386.708 450.118 388.838 448.764 390.097C448.474 390.387 448.184 390.581 447.797 390.678C447.41 390.872 446.926 390.968 446.442 390.968C445.862 390.968 445.282 390.872 444.798 390.581C442.38 389.226 439.962 388.064 437.447 386.999L436.673 386.708C434.932 386.03 433.965 384.094 434.642 382.351C435.029 381.189 435.996 380.414 437.253 380.124C437.35 380.221 437.544 380.318 437.737 380.318C440.832 381.576 443.734 383.126 446.539 384.772C447.023 385.062 447.7 385.256 448.28 385.256C448.57 385.449 448.764 385.353 449.054 385.353Z" fill="white"/>
<path d="M441.219 395.228C439.768 394.744 437.834 394.163 435.996 393.679C434.255 393.098 433.191 391.259 433.771 389.419C434.255 387.773 435.803 386.805 437.544 387.095C440.059 388.16 442.573 389.322 444.895 390.678C445.378 390.968 445.959 391.065 446.539 391.065C447.023 391.065 447.41 390.968 447.893 390.774C449.054 392.227 448.861 394.357 447.41 395.519C446.539 396.293 445.282 396.487 444.218 396.1C444.121 396.1 442.96 395.713 441.219 395.228Z" fill="white"/>
<path d="M444.121 396.1C445.862 396.681 447.797 395.712 448.377 393.873C448.764 392.808 448.474 391.549 447.797 390.678C449.538 390 450.312 387.966 449.634 386.224C449.538 385.836 449.248 385.546 449.054 385.255C450.892 384.868 452.053 383.028 451.666 381.189C451.472 380.317 450.892 379.543 450.118 379.059C447.313 377.316 444.314 375.767 441.219 374.508V350.979H455.051L457.953 355.433C459.21 357.37 461.338 358.532 463.66 358.532H472.075C474.396 358.532 476.524 357.37 477.782 355.433L480.684 350.979H494.516V399.779H441.316V395.131C442.96 395.712 444.121 396.1 444.121 396.1Z" fill="white"/>
<path d="M484.456 399.779L491.227 531.751H533.013L530.401 439.961L530.014 428.149C534.657 426.987 536.495 421.952 536.495 401.232" stroke="#565758" stroke-width="1.5" stroke-linecap="round" stroke-linejoin="round"/>
<path d="M504.769 249.023C505.446 249.12 506.123 249.217 506.703 249.604C511.346 247.087 514.828 242.826 514.828 237.114H537.462C538.526 237.114 539.493 237.501 540.267 238.179C543.653 241.18 546.071 245.247 547.038 249.701C547.812 249.314 548.779 249.12 549.65 249.12C554.679 249.507 556.034 258.996 546.748 260.545C545.394 265.193 542.589 269.163 538.623 271.971C531.562 277.005 522.179 277.005 515.215 271.971C511.249 269.163 508.444 265.096 507.09 260.448C497.321 258.802 499.158 248.636 504.769 249.023Z" stroke="#565758" stroke-width="1.5" stroke-linecap="round" stroke-linejoin="round"/>
<path d="M504.769 249.023V240.116C504.769 237.211 507.187 234.79 510.089 234.79H511.636V231.401C511.636 228.4 513.764 225.979 516.666 225.495C532.239 222.978 533.206 228.012 544.33 226.657C546.071 226.173 544.33 234.5 544.33 234.5C544.33 234.5 550.52 237.404 549.65 249.12" stroke="#565758" stroke-width="1.5" stroke-linecap="round" stroke-linejoin="round"/>
<path d="M502.544 252.606C503.608 251.735 506.51 252.025 506.703 254.543" stroke="#565758" stroke-width="1.5" stroke-linecap="round" stroke-linejoin="round"/>
<path d="M551.101 252.606C550.037 251.735 547.135 252.025 546.941 254.543" stroke="#565758" stroke-width="1.5" stroke-linecap="round" stroke-linejoin="round"/>
<path d="M527.886 248.249C527.886 252.025 530.691 258.609 524.984 258.609" stroke="#565758" stroke-width="1.5" stroke-linecap="round" stroke-linejoin="round"/>
<path d="M520.438 251.347V252.606" stroke="#565758" stroke-width="2.5" stroke-linecap="round" stroke-linejoin="round"/>
<path d="M534.56 251.347V252.606" stroke="#565758" stroke-width="2.5" stroke-linecap="round" stroke-linejoin="round"/>
<path d="M516.279 248.055C517.73 246.699 520.825 246.312 522.179 246.506" stroke="#565758" stroke-width="1.5" stroke-linecap="round" stroke-linejoin="round"/>
<path d="M538.623 248.055C537.172 246.699 534.077 246.312 532.723 246.506" stroke="#565758" stroke-width="1.5" stroke-linecap="round" stroke-linejoin="round"/>
<path d="M515.022 298.404C522.373 303.245 531.949 303.148 539.203 298.017" stroke="#565758" stroke-width="1.5" stroke-linecap="round" stroke-linejoin="round"/>
<path d="M464.337 350.98L469.947 308.474C471.011 300.534 476.234 293.853 483.585 290.851C489.002 288.721 494.225 286.688 499.158 285.042" stroke="#565758" stroke-width="1.5" stroke-linecap="round" stroke-linejoin="round"/>
<path d="M554.486 285.623C557.871 286.591 561.354 287.656 565.029 288.625L568.995 289.69C577.023 291.917 583.214 298.21 585.245 306.343L595.885 349.14C598.11 358.048 597.432 367.44 593.95 375.96C589.017 388.063 581.763 404.911 576.83 410.43C575.185 412.27 573.348 412.076 571.316 410.624" stroke="#565758" stroke-width="1.5" stroke-linecap="round" stroke-linejoin="round"/>
<path d="M570.929 411.882L590.468 531.751H587.76H552.358H544.039L530.401 439.961" stroke="#565758" stroke-width="1.5" stroke-linecap="round" stroke-linejoin="round"/>
<path d="M515.118 271.971V280.782C515.118 285.72 515.118 291.723 515.022 298.307C514.828 306.44 514.441 315.639 513.28 325.224C510.959 345.267 505.929 367.149 494.419 385.74" stroke="#565758" stroke-width="1.5" stroke-linecap="round" stroke-linejoin="round"/>
<path d="M513.28 325.321C505.639 312.443 499.255 295.499 499.158 285.139C504.091 281.944 509.508 279.426 515.118 277.586" stroke="#565758" stroke-width="1.5" stroke-linecap="round" stroke-linejoin="round"/>
<path d="M538.526 277.78C544.136 279.814 549.456 282.428 554.486 285.623C554.389 295.306 548.876 310.41 541.912 322.707" stroke="#565758" stroke-width="1.5" stroke-linecap="round" stroke-linejoin="round"/>
<path d="M522.663 263.16C525.178 265.483 529.047 265.387 531.368 262.869" stroke="#565758" stroke-width="1.2" stroke-linecap="round" stroke-linejoin="round"/>
<path d="M576.83 410.527C578.958 407.331 579.732 403.458 578.861 399.779C576.636 387.967 562.901 376.251 559.226 380.995C550.327 365.213 544.91 343.234 541.815 322.804C540.461 314.089 539.687 305.569 539.106 298.017C538.623 291.432 538.429 285.526 538.429 280.685V271.971" stroke="#565758" stroke-width="1.5" stroke-linecap="round" stroke-linejoin="round"/>
<path d="M578.861 399.779C575.476 402.781 572.864 406.557 571.22 410.72C571.123 411.108 570.93 411.495 570.833 411.882C551.294 411.882 553.035 393.486 553.035 393.486C553.035 393.486 554.002 391.162 557.001 385.159C557.678 383.9 558.355 382.544 559.129 380.995L573.348 354.272L566.287 324.159" stroke="#565758" stroke-width="1.2" stroke-linecap="round" stroke-linejoin="round"/>
<path d="M494.419 389.419C515.118 396.1 537.559 394.551 557.098 385.159" stroke="#565758" stroke-width="1.2" stroke-linecap="round" stroke-linejoin="round"/>
<path d="M490.937 326.677L489.582 350.98" stroke="#565758" stroke-width="1.2" stroke-linecap="round" stroke-linejoin="round"/>
<path d="M455.051 350.979L457.953 355.433C459.21 357.37 461.338 358.532 463.66 358.532H472.075C474.396 358.532 476.524 357.37 477.782 355.433L480.684 350.979" stroke="#565758" stroke-width="1.2" stroke-linecap="round" stroke-linejoin="round"/>
<path d="M449.054 385.353C450.312 386.708 450.118 388.838 448.764 390.097C448.474 390.387 448.184 390.581 447.797 390.678C447.41 390.872 446.926 390.968 446.442 390.968C445.862 390.968 445.282 390.872 444.798 390.581C442.38 389.226 439.962 388.064 437.447 386.999L436.673 386.708C434.932 386.03 433.965 384.094 434.642 382.351C435.029 381.189 435.996 380.414 437.253 380.124" stroke="#565758" stroke-width="1.5" stroke-linecap="round" stroke-linejoin="round"/>
<path d="M447.797 390.678C448.957 392.13 448.764 394.26 447.313 395.422C446.442 396.197 445.185 396.391 444.121 396.003C444.121 396.003 442.96 395.616 441.219 395.035C439.768 394.551 437.834 393.97 435.996 393.486C434.255 392.905 433.191 391.065 433.771 389.226C434.255 387.58 435.803 386.611 437.544 386.902" stroke="#565758" stroke-width="1.5" stroke-linecap="round" stroke-linejoin="round"/>
<path d="M441.219 395.131V399.779H494.419V350.979H441.219V374.508C444.314 375.767 447.216 377.316 450.118 379.059C451.666 380.027 452.246 382.157 451.182 383.706C450.698 384.481 449.925 385.062 449.054 385.255C448.861 385.352 448.57 385.352 448.377 385.352C447.797 385.352 447.12 385.159 446.636 384.868C443.831 383.125 440.832 381.673 437.834 380.414C437.64 380.317 437.544 380.221 437.35 380.221C435.899 379.349 435.416 377.509 435.996 375.96C436.77 373.249 438.704 370.925 441.316 369.667" stroke="#565758" stroke-width="1.5" stroke-linecap="round" stroke-linejoin="round"/>
<path d="M532.916 531.751L533.206 545.016L533.69 567.189L533.786 572.127C533.786 573.386 532.722 574.451 531.465 574.451H474.396C473.139 574.451 472.075 573.386 472.075 572.127V566.511C472.075 564.284 473.139 562.154 474.88 560.798L486.294 551.794L492.194 547.146L492.581 546.856C494.709 545.21 496.257 542.886 497.03 540.368C497.127 539.981 497.224 539.594 497.224 539.206V531.751" stroke="#565758" stroke-width="1.5" stroke-linecap="round" stroke-linejoin="round"/>
<path d="M508.154 545.016C508.541 546.081 508.734 547.146 508.638 548.211" stroke="#565758" stroke-width="1.5" stroke-linecap="round" stroke-linejoin="round"/>
<path d="M497.417 538.432C500.803 538.916 506.413 540.272 508.154 545.016" stroke="#565758" stroke-width="1.5" stroke-linecap="round" stroke-linejoin="round"/>
<path d="M594.337 545.984C592.499 544.338 591.242 542.111 590.758 539.691C590.662 538.916 589.985 538.432 589.211 538.626H589.114C585.729 539.303 581.376 540.853 579.828 545.016C579.441 546.081 579.248 547.146 579.345 548.211" stroke="#565758" stroke-width="1.5" stroke-linecap="round" stroke-linejoin="round"/>
<path d="M552.358 531.751L554.776 545.016L554.293 567.189L554.196 572.127C554.196 573.386 555.26 574.451 556.517 574.451H613.586C614.843 574.451 615.907 573.386 615.907 572.127V566.511C615.907 564.284 614.843 562.154 613.102 560.798L600.141 550.632L595.208 546.759C594.821 546.468 594.531 546.275 594.241 545.984" stroke="#565758" stroke-width="1.5" stroke-linecap="round" stroke-linejoin="round"/>
<path d="M508.154 545.016H533.303" stroke="#565758" stroke-width="1.5" stroke-linecap="round" stroke-linejoin="round"/>
<path d="M579.828 545.016H554.776" stroke="#565758" stroke-width="1.5" stroke-linecap="round" stroke-linejoin="round"/>
<path d="M589.114 538.626L587.76 531.751" stroke="#565758" stroke-width="1.5" stroke-linecap="round" stroke-linejoin="round"/>
<path d="M472.268 567.189H533.786" stroke="#565758" stroke-width="1.5" stroke-linecap="round" stroke-linejoin="round"/>
<path d="M554.196 567.189H615.811" stroke="#565758" stroke-width="1.5" stroke-linecap="round" stroke-linejoin="round"/>
<path d="M586.986 552.375C588.34 550.051 591.629 547.63 594.241 545.984" stroke="#565758" stroke-width="1.5" stroke-linecap="round" stroke-linejoin="round"/>
<path d="M497.998 552.375C496.934 550.535 494.612 548.599 492.388 547.146" stroke="#565758" stroke-width="1.5" stroke-linecap="round" stroke-linejoin="round"/>
<path d="M593.37 556.732C594.627 554.601 597.626 552.375 600.141 550.729" stroke="#565758" stroke-width="1.5" stroke-linecap="round" stroke-linejoin="round"/>
<path d="M491.614 556.732C490.26 554.795 488.518 553.149 486.487 551.794" stroke="#565758" stroke-width="1.5" stroke-linecap="round" stroke-linejoin="round"/>
<path fill-rule="evenodd" clip-rule="evenodd" d="M526.65 319.91L521.267 321.773C520.927 321.89 520.7 322.205 520.7 322.558V328.809L519.51 329.319C519.08 329.504 518.883 329.995 519.071 330.417C519.259 330.838 519.761 331.031 520.191 330.846L521.462 330.301L527.138 332.92C527.367 333.026 527.633 333.026 527.862 332.92L533.538 330.301L534.809 330.846C535.239 331.031 535.74 330.838 535.929 330.417C536.117 329.995 535.92 329.504 535.49 329.319L534.3 328.809V322.558C534.3 322.205 534.073 321.89 533.733 321.773L528.35 319.91V318.833C528.35 318.373 527.969 318 527.5 318C527.031 318 526.65 318.373 526.65 318.833V319.91ZM527.5 324.18L523.793 322.666L527.217 321.481C527.4 321.418 527.6 321.418 527.783 321.481L531.207 322.666L527.5 324.18ZM528.35 325.638L532.6 323.902V328.892L528.35 330.853V325.638ZM526.65 325.638L522.4 323.902V328.892L526.65 330.853V325.638Z" fill="white"/>
</g>
<defs>
<filter id="filter0_f_447_3241" x="138" y="0" width="968" height="802" filterUnits="userSpaceOnUse" color-interpolation-filters="sRGB">
<feFlood flood-opacity="0" result="BackgroundImageFix"/>
<feBlend mode="normal" in="SourceGraphic" in2="BackgroundImageFix" result="shape"/>
<feGaussianBlur stdDeviation="117.5" result="effect1_foregroundBlur_447_3241"/>
</filter>
<filter id="filter1_f_447_3241" x="-22" y="222" width="728" height="641" filterUnits="userSpaceOnUse" color-interpolation-filters="sRGB">
<feFlood flood-opacity="0" result="BackgroundImageFix"/>
<feBlend mode="normal" in="SourceGraphic" in2="BackgroundImageFix" result="shape"/>
<feGaussianBlur stdDeviation="117.5" result="effect1_foregroundBlur_447_3241"/>
</filter>
<filter id="filter2_d_447_3241" x="669" y="206" width="262" height="262" filterUnits="userSpaceOnUse" color-interpolation-filters="sRGB">
<feFlood flood-opacity="0" result="BackgroundImageFix"/>
<feColorMatrix in="SourceAlpha" type="matrix" values="0 0 0 0 0 0 0 0 0 0 0 0 0 0 0 0 0 0 127 0" result="hardAlpha"/>
<feOffset dy="5"/>
<feGaussianBlur stdDeviation="7.5"/>
<feComposite in2="hardAlpha" operator="out"/>
<feColorMatrix type="matrix" values="0 0 0 0 0 0 0 0 0 0 0 0 0 0 0 0 0 0 0.05 0"/>
<feBlend mode="normal" in2="BackgroundImageFix" result="effect1_dropShadow_447_3241"/>
<feBlend mode="normal" in="SourceGraphic" in2="effect1_dropShadow_447_3241" result="shape"/>
</filter>
<linearGradient id="paint0_linear_447_3241" x1="305.625" y1="622.334" x2="1163.88" y2="62.7739" gradientUnits="userSpaceOnUse">
<stop stop-color="#50CC91"/>
<stop offset="1" stop-color="#0094FF"/>
</linearGradient>
<linearGradient id="paint1_linear_447_3241" x1="178.095" y1="656.5" x2="621.182" y2="365.929" gradientUnits="userSpaceOnUse">
<stop stop-color="#50CC91"/>
<stop offset="1" stop-color="#CCFF00"/>
</linearGradient>
<linearGradient id="paint2_linear_447_3241" x1="738" y1="243.5" x2="905" y2="437.5" gradientUnits="userSpaceOnUse">
<stop stop-color="white"/>
<stop offset="0.655168" stop-color="white" stop-opacity="0"/>
</linearGradient>
<clipPath id="clip0_447_3241">
<rect width="458" height="372" fill="white" transform="translate(297 204)"/>
</clipPath>
</defs>
</svg>
