<svg width="458" height="372" viewBox="0 0 458 372" fill="none" xmlns="http://www.w3.org/2000/svg">
<g clip-path="url(#clip0_447_3246)">
<path d="M213.475 285.342V370.451H168.498V349.149V327.848V306.546V285.342H213.475Z" fill="#565758"/>
<path d="M168.498 349.149V370.451H121.875V349.149H168.498ZM158.631 359.316C158.631 358.154 157.664 357.186 156.503 357.186C155.343 357.186 154.376 358.154 154.376 359.316C154.376 360.478 155.343 361.446 156.503 361.446C157.664 361.446 158.631 360.478 158.631 359.316ZM148.959 359.316C148.959 358.154 147.992 357.186 146.831 357.186C145.67 357.186 144.703 358.154 144.703 359.316C144.703 360.478 145.67 361.446 146.831 361.446C147.992 361.446 148.862 360.478 148.959 359.316Z" fill="white"/>
<path d="M168.498 327.848V349.15H121.875V327.848H168.498ZM158.631 338.305C158.631 337.143 157.664 336.175 156.503 336.175C155.343 336.175 154.376 337.143 154.376 338.305C154.376 339.467 155.343 340.435 156.503 340.435C157.664 340.435 158.631 339.467 158.631 338.305ZM148.959 338.305C148.959 337.143 147.992 336.175 146.831 336.175C145.67 336.175 144.703 337.143 144.703 338.305C144.703 339.467 145.67 340.435 146.831 340.435C147.992 340.435 148.862 339.467 148.959 338.305Z" fill="white"/>
<path d="M168.498 306.546V327.848H121.875V306.546H168.498ZM158.631 317.197C158.631 316.035 157.664 315.067 156.503 315.067C155.343 315.067 154.376 316.035 154.376 317.197C154.376 318.359 155.343 319.327 156.503 319.327C157.664 319.327 158.631 318.359 158.631 317.197ZM148.959 317.197C148.959 316.035 147.992 315.067 146.831 315.067C145.67 315.067 144.703 316.035 144.703 317.197C144.703 318.359 145.67 319.327 146.831 319.327C147.992 319.327 148.959 318.456 148.959 317.197C148.959 317.197 148.862 317.197 148.959 317.197Z" fill="white"/>
<path d="M168.498 285.342V306.643H121.875V285.342H168.498ZM158.631 296.186C158.631 295.024 157.664 294.056 156.503 294.056C155.343 294.056 154.376 295.024 154.376 296.186C154.376 297.348 155.343 298.316 156.503 298.316C157.664 298.316 158.631 297.348 158.631 296.186ZM148.959 296.186C148.959 295.024 147.992 294.056 146.831 294.056C145.67 294.056 144.703 295.024 144.703 296.186C144.703 297.348 145.67 298.316 146.831 298.316C147.992 298.316 148.862 297.348 148.959 296.186Z" fill="white"/>
<path d="M156.503 294.056C157.664 294.056 158.631 295.024 158.631 296.186C158.631 297.348 157.664 298.316 156.503 298.316C155.343 298.316 154.376 297.348 154.376 296.186C154.376 295.024 155.343 294.056 156.503 294.056Z" fill="white"/>
<path d="M156.503 319.327C157.679 319.327 158.631 318.373 158.631 317.197C158.631 316.021 157.679 315.067 156.503 315.067C155.328 315.067 154.376 316.021 154.376 317.197C154.376 318.373 155.328 319.327 156.503 319.327Z" fill="white"/>
<path d="M156.503 340.435C157.679 340.435 158.631 339.481 158.631 338.305C158.631 337.128 157.679 336.175 156.503 336.175C155.328 336.175 154.376 337.128 154.376 338.305C154.376 339.481 155.328 340.435 156.503 340.435Z" fill="white"/>
<path d="M156.503 361.446C157.679 361.446 158.631 360.492 158.631 359.316C158.631 358.139 157.679 357.186 156.503 357.186C155.328 357.186 154.376 358.139 154.376 359.316C154.376 360.492 155.328 361.446 156.503 361.446Z" fill="white"/>
<path d="M146.831 294.056C147.992 294.056 148.959 295.024 148.959 296.186C148.959 297.348 147.992 298.316 146.831 298.316C145.67 298.316 144.703 297.348 144.703 296.186C144.606 295.024 145.573 294.056 146.831 294.056C146.734 294.056 146.734 294.056 146.831 294.056Z" fill="white"/>
<path d="M146.831 319.327C148.006 319.327 148.959 318.373 148.959 317.197C148.959 316.021 148.006 315.067 146.831 315.067C145.656 315.067 144.703 316.021 144.703 317.197C144.703 318.373 145.656 319.327 146.831 319.327Z" fill="white"/>
<path d="M146.831 340.435C148.006 340.435 148.959 339.481 148.959 338.305C148.959 337.128 148.006 336.175 146.831 336.175C145.656 336.175 144.703 337.128 144.703 338.305C144.703 339.481 145.656 340.435 146.831 340.435Z" fill="white"/>
<path d="M146.831 361.446C148.006 361.446 148.959 360.492 148.959 359.316C148.959 358.139 148.006 357.186 146.831 357.186C145.656 357.186 144.703 358.139 144.703 359.316C144.703 360.492 145.656 361.446 146.831 361.446Z" fill="white"/>
<path d="M168.498 285.342H213.475V370.451H168.498H121.972V349.149V327.848V306.546V285.342H168.498Z" stroke="#565758" stroke-width="1.5" stroke-linecap="round" stroke-linejoin="round"/>
<path d="M168.498 285.342V306.546V327.848V349.149V370.451" stroke="#565758" stroke-width="1.5" stroke-linecap="round" stroke-linejoin="round"/>
<path d="M167.724 306.546H121.972" stroke="#565758" stroke-width="1.5" stroke-linecap="round" stroke-linejoin="round"/>
<path d="M167.724 327.848H121.972" stroke="#565758" stroke-width="1.5" stroke-linecap="round" stroke-linejoin="round"/>
<path d="M167.724 349.149H121.972" stroke="#565758" stroke-width="1.5" stroke-linecap="round" stroke-linejoin="round"/>
<path d="M130 296.187H137.835" stroke="#565758" stroke-width="1.5" stroke-linecap="round" stroke-linejoin="round"/>
<path d="M148.862 296.186C148.862 295.024 147.895 294.056 146.734 294.056C145.573 294.056 144.606 295.024 144.606 296.186C144.606 297.348 145.573 298.316 146.734 298.316C147.992 298.316 148.862 297.348 148.862 296.186ZM148.862 296.186C148.959 296.186 148.959 296.186 148.862 296.186Z" stroke="#565758" stroke-width="1.5" stroke-linecap="round" stroke-linejoin="round"/>
<path d="M158.631 296.186C158.631 295.024 157.664 294.056 156.503 294.056C155.343 294.056 154.376 295.024 154.376 296.186C154.376 297.348 155.343 298.316 156.503 298.316C157.664 298.316 158.631 297.348 158.631 296.186Z" stroke="#565758" stroke-width="1.5" stroke-linecap="round" stroke-linejoin="round"/>
<path d="M130 317.197H137.835" stroke="#565758" stroke-width="1.5" stroke-linecap="round" stroke-linejoin="round"/>
<path d="M146.831 319.327C148.006 319.327 148.959 318.373 148.959 317.197C148.959 316.021 148.006 315.067 146.831 315.067C145.656 315.067 144.703 316.021 144.703 317.197C144.703 318.373 145.656 319.327 146.831 319.327Z" stroke="#565758" stroke-width="1.5" stroke-linecap="round" stroke-linejoin="round"/>
<path d="M156.503 319.327C157.679 319.327 158.631 318.373 158.631 317.197C158.631 316.021 157.679 315.067 156.503 315.067C155.328 315.067 154.376 316.021 154.376 317.197C154.376 318.373 155.328 319.327 156.503 319.327Z" stroke="#565758" stroke-width="1.5" stroke-linecap="round" stroke-linejoin="round"/>
<path d="M130 338.305H137.835" stroke="#565758" stroke-width="1.5" stroke-linecap="round" stroke-linejoin="round"/>
<path d="M146.831 340.435C148.006 340.435 148.959 339.481 148.959 338.305C148.959 337.128 148.006 336.175 146.831 336.175C145.656 336.175 144.703 337.128 144.703 338.305C144.703 339.481 145.656 340.435 146.831 340.435Z" stroke="#565758" stroke-width="1.5" stroke-linecap="round" stroke-linejoin="round"/>
<path d="M156.503 340.435C157.679 340.435 158.631 339.481 158.631 338.305C158.631 337.128 157.679 336.175 156.503 336.175C155.328 336.175 154.376 337.128 154.376 338.305C154.376 339.481 155.328 340.435 156.503 340.435Z" stroke="#565758" stroke-width="1.5" stroke-linecap="round" stroke-linejoin="round"/>
<path d="M130 359.316H137.835" stroke="#565758" stroke-width="1.5" stroke-linecap="round" stroke-linejoin="round"/>
<path d="M146.831 361.446C148.006 361.446 148.959 360.492 148.959 359.316C148.959 358.139 148.006 357.186 146.831 357.186C145.656 357.186 144.703 358.139 144.703 359.316C144.703 360.492 145.656 361.446 146.831 361.446Z" stroke="#565758" stroke-width="1.5" stroke-linecap="round" stroke-linejoin="round"/>
<path d="M156.503 361.446C157.679 361.446 158.631 360.492 158.631 359.316C158.631 358.139 157.679 357.186 156.503 357.186C155.328 357.186 154.376 358.139 154.376 359.316C154.376 360.492 155.328 361.446 156.503 361.446Z" stroke="#565758" stroke-width="1.5" stroke-linecap="round" stroke-linejoin="round"/>
<path d="M398.416 345.276L406.445 370.451H394.644L388.937 355.055C383.134 360.768 381.006 371.225 369.979 371.225H361.08L362.047 357.573C370.559 354.765 371.43 344.792 371.43 344.792H397.546C398.03 344.792 398.32 344.986 398.416 345.276Z" fill="white"/>
<path d="M395.805 339.273L397.546 344.792H375.202L373.268 339.273H395.805Z" fill="white"/>
<path d="M374.525 192.487C374.138 192.003 373.848 191.422 373.558 190.938C372.977 189.486 373.654 187.743 375.202 187.162C376.46 186.678 378.007 187.162 378.684 188.324C381.393 192.391 384.488 196.07 388.163 199.362C388.55 199.749 389.131 199.749 389.518 199.362C389.614 199.265 389.614 199.265 389.711 199.168L394.741 191.422L396.869 188.227C394.257 192.197 400.835 203.041 407.219 207.108L404.8 210.4C403.059 212.724 400.835 214.563 398.223 215.822C391.355 219.211 383.134 217.855 377.717 212.433C376.943 211.659 376.169 210.787 375.396 209.916C374.622 209.044 373.751 208.173 372.881 207.398C369.785 204.494 367.174 201.105 365.143 197.329C364.369 195.973 364.756 194.23 366.11 193.262C366.69 192.875 367.464 192.778 368.141 192.875C367.657 192.003 367.271 191.132 366.98 190.26C366.4 188.711 367.174 187.065 368.721 186.484C370.172 186 371.72 186.581 372.397 188.033C372.784 188.905 373.171 189.873 373.751 190.745C373.848 190.938 373.848 191.035 373.945 191.229C373.848 191.422 374.138 191.81 374.525 192.487Z" fill="white"/>
<path d="M381.393 291.248L395.708 339.37H369.979C369.979 339.37 369.012 336.852 367.367 332.592C370.366 324.653 375.492 310.032 381.393 291.248Z" fill="#565758"/>
<path d="M389.711 199.071C389.421 199.555 388.841 199.652 388.357 199.458C388.26 199.458 388.163 199.362 388.163 199.265C384.585 195.973 381.393 192.293 378.684 188.227C377.814 186.871 376.073 186.484 374.718 187.355C373.558 188.13 373.074 189.582 373.558 190.841C373.074 189.97 372.591 189.098 372.204 188.13C371.527 186.678 369.785 186 368.335 186.678C366.98 187.259 366.303 188.905 366.787 190.357C367.174 191.228 367.561 192.1 367.948 192.971C367.271 192.874 366.497 192.971 365.916 193.359C364.562 194.23 364.175 195.973 364.949 197.425C366.98 201.104 369.592 204.493 372.687 207.495C373.558 208.27 374.428 209.141 375.202 210.012C375.976 210.884 376.75 211.755 377.524 212.53C382.94 217.952 391.162 219.308 398.03 215.919C398.03 226.085 396.385 238.188 392.419 252.906C388.647 266.848 384.778 279.823 381.199 291.248C375.299 310.032 370.076 324.653 367.174 332.592C365.529 336.949 364.659 339.37 364.659 339.37H341.735L349.376 285.342C342.702 267.333 336.125 248.645 332.449 236.155C324.034 207.592 327.129 189.098 332.836 172.057C347.538 182.321 374.041 187.259 388.163 176.124C390.872 180.965 393.097 186.097 394.741 191.422L389.711 199.071Z" fill="#565758"/>
<path d="M378.201 103.99C378.394 106.023 378.781 108.153 379.265 110.09C374.912 116.674 364.562 124.904 364.562 124.904L363.885 111.639C369.495 112.801 375.879 110.283 378.104 106.023L378.201 103.99Z" fill="white"/>
<path d="M378.297 102.537L379.265 90.0467C380.619 88.0134 381.586 85.7865 382.07 83.4627C388.647 82.3976 391.162 75.8135 388.454 72.812C385.455 69.5199 380.619 72.812 377.814 77.5564L377.427 73.877C377.233 72.231 376.46 70.585 375.299 69.4231C373.945 68.0676 373.171 66.1311 373.171 64.1946V58.3851C367.948 59.1597 354.212 62.1613 351.794 74.8453C349.666 73.1993 348.409 70.585 348.409 67.8739C348.409 58.6756 365.336 52.2852 374.332 52.2852C385.842 52.2852 383.811 59.6438 387.486 63.0327C391.452 66.712 396.579 64.4851 396.579 75.3294C396.579 75.7167 396.579 76.104 396.579 76.4913C396.579 91.015 410.894 84.8182 412.539 102.634L378.297 102.537Z" fill="#565758"/>
<path d="M373.558 190.841C373.848 191.325 374.138 191.906 374.525 192.39C374.041 191.713 373.848 191.325 373.751 191.229C373.751 191.229 373.654 191.035 373.558 190.841Z" fill="white"/>
<path d="M362.821 111.445C363.208 111.542 363.498 111.639 363.885 111.736C359.532 113.575 355.663 116.286 352.471 119.675C352.568 119.288 354.89 108.734 360.016 104.377C359.436 105.442 357.888 109.993 362.821 111.445Z" fill="white"/>
<path d="M353.535 371.225H324.614C324.614 367.546 326.355 364.06 329.45 362.027C333.223 359.606 337.962 355.346 339.22 348.665C339.607 346.632 341.445 345.083 343.573 345.083H363.111L362.144 357.476L361.177 371.128H353.535V371.225Z" fill="white"/>
<path d="M361.37 95.7592L360.113 103.989C353.922 101.666 347.732 99.1481 341.831 96.437C345.604 92.4672 349.763 87.3355 351.891 83.0752C352.955 88.8847 356.631 93.6291 361.37 95.7592Z" fill="#565758"/>
<path d="M360.113 103.989C360.113 103.989 360.016 104.086 360.016 104.28C354.89 108.637 352.568 119.191 352.471 119.578C355.663 116.189 359.629 113.478 363.885 111.639L364.562 124.904C364.562 124.904 375.009 116.673 379.265 110.089C383.327 111.154 387.293 112.123 391.162 112.897C398.707 114.35 405.574 118.513 410.314 124.613L430.239 150.078C435.366 156.662 436.237 165.667 432.464 173.122L415.537 206.043C413.699 209.528 410.411 209.335 407.122 207.204C400.738 203.138 394.161 192.39 396.772 188.324L411.668 165.764C412.345 164.795 412.248 163.44 411.378 162.568C407.799 158.889 398.32 149.013 390.195 138.846C382.36 150.272 385.262 164.505 393.483 170.314C392.033 172.541 390.291 174.575 388.163 176.221C374.041 187.355 347.538 182.417 332.836 172.154C330.805 170.798 328.967 169.152 327.322 167.41C330.805 161.213 333.223 154.048 333.223 147.464C333.126 144.656 332.933 141.848 332.546 139.137C333.126 138.072 333.416 136.91 333.416 135.748C333.416 135.457 333.513 134.973 333.513 134.199C334.964 134.877 336.512 135.264 338.059 135.264C339.703 135.264 340.961 134.005 340.961 132.359C340.961 130.713 339.703 129.454 338.059 129.454C336.608 129.454 335.061 128.68 333.513 127.034C333.32 126.84 333.126 126.743 332.933 126.646C332.836 125.969 332.642 125.291 332.449 124.516C330.611 117.061 325.872 105.926 313.878 90.7245L313.491 91.015C309.622 86.4642 299.465 95.3721 295.113 102.731C293.081 106.023 292.308 109.024 293.758 110.283C289.406 107.572 284.569 97.6959 280.507 86.2706C278.089 79.5897 281.281 72.1342 287.858 69.4231L288.148 69.3263C292.694 67.5834 297.918 68.5517 301.593 71.8437C311.072 80.2675 325.581 89.0785 341.831 96.6308C347.732 99.1483 353.922 101.666 360.113 103.989Z" fill="white"/>
<path d="M378.491 99.923L379.265 90.0469C376.653 94.3072 372.01 96.9214 366.98 97.0182C365.626 97.0182 364.175 96.8246 362.918 96.3405C367.174 99.4389 372.687 100.31 378.491 99.923Z" fill="#565758"/>
<path d="M362.918 96.3402C362.434 96.1466 361.854 95.9529 361.37 95.7593L360.113 103.989C360.113 103.989 360.016 104.086 360.016 104.28C359.532 105.442 357.888 109.992 362.918 111.445C363.305 111.542 363.595 111.639 363.982 111.735C369.592 112.897 375.976 110.38 378.201 106.12L378.394 104.086L378.491 102.634L378.684 100.02C372.687 100.31 367.174 99.4386 362.918 96.3402Z" fill="white"/>
<path d="M351.794 74.7487C354.212 62.0647 367.948 59.16 373.171 58.2886V64.098C373.171 66.0345 373.945 67.971 375.299 69.3266C376.46 70.4885 377.233 72.0377 377.427 73.7805L377.814 77.4598C380.619 72.7154 385.455 69.4234 388.454 72.7154C391.162 75.717 388.647 82.3979 382.07 83.3661C381.586 85.6899 380.619 87.9169 379.265 89.9502C376.653 94.2105 372.01 96.9216 366.98 97.0184C365.046 97.0184 363.111 96.6311 361.37 95.7597C356.631 93.6295 353.052 88.8851 351.794 82.9788C351.311 80.2677 351.214 77.4598 351.794 74.7487Z" fill="white"/>
<path d="M340.767 346.245L341.831 339.37H362.144L360.983 345.18H343.573C342.509 345.18 341.541 345.567 340.767 346.245Z" fill="white"/>
<path d="M333.513 126.937C335.061 128.583 336.608 129.358 338.059 129.358C339.703 129.358 340.961 130.616 340.961 132.262C340.961 133.908 339.703 135.167 338.059 135.167C336.511 135.167 334.964 134.78 333.513 134.102C333.61 131.585 333.513 129.067 332.933 126.55C333.126 126.647 333.319 126.743 333.513 126.937Z" fill="white"/>
<path d="M320.939 143.397L322.003 143.204C321.616 143.3 321.229 143.397 320.939 143.397Z" fill="white"/>
<path d="M313.684 143.881H313.491C312.814 143.881 312.04 143.591 311.556 143.107H311.169C309.622 143.107 308.364 141.945 308.267 140.396C308.171 138.846 309.331 137.588 310.782 137.394L315.038 136.619C315.619 136.523 316.102 135.942 316.102 135.361L316.006 131.972C316.006 130.713 315.522 129.551 314.845 128.486C313.781 126.937 313.104 125.194 312.814 123.354C312.62 122.193 312.04 121.127 311.169 120.256C309.331 118.32 305.849 114.737 302.077 110.574C299.755 107.959 297.337 105.151 295.209 102.537C299.562 95.1785 309.815 86.2706 313.587 90.8214L313.974 90.5309C325.968 105.732 330.708 116.867 332.546 124.323C332.739 125.097 332.933 125.775 333.029 126.453C333.513 128.97 333.706 131.488 333.61 134.005C333.61 134.78 333.513 135.361 333.513 135.554C333.513 138.75 331.192 141.557 328 142.042L322.196 143.01H322.099L321.035 143.203H320.745L313.684 143.881Z" fill="white"/>
<path d="M301.98 110.574C299.078 111.639 296.08 111.929 293.758 110.089C292.308 108.831 293.081 105.829 295.113 102.537C297.241 105.248 299.659 107.959 301.98 110.574Z" fill="#565758"/>
<path d="M351.794 74.7487C354.212 62.0647 367.948 59.16 373.171 58.2886V64.098C373.171 66.0345 373.945 67.971 375.299 69.3266C376.46 70.4885 377.233 72.0377 377.427 73.7805L377.814 77.4598C380.619 72.7154 385.455 69.4234 388.454 72.7154C391.162 75.717 388.647 82.3979 382.07 83.3661C381.586 85.6899 380.619 87.9169 379.265 89.9502C376.653 94.2105 372.01 96.9216 366.98 97.0184C365.046 97.0184 363.111 96.6311 361.37 95.7597C356.631 93.6295 353.052 88.8851 351.794 82.9788C351.311 80.2677 351.214 77.4598 351.794 74.7487Z" stroke="#565758" stroke-width="1.5" stroke-linecap="round" stroke-linejoin="round"/>
<path d="M381.78 76.9753C382.65 75.6197 383.908 74.6515 385.455 74.2642" stroke="#565758" stroke-width="1.5" stroke-linecap="round" stroke-linejoin="round"/>
<path d="M352.278 72.6184C353.729 71.9406 355.18 71.4565 356.727 71.166" stroke="#565758" stroke-width="1.5" stroke-linecap="round" stroke-linejoin="round"/>
<path d="M364.562 71.0693C366.4 71.263 368.141 71.8439 369.785 72.8122" stroke="#565758" stroke-width="1.5" stroke-linecap="round" stroke-linejoin="round"/>
<path d="M359.823 72.4248C360.693 75.62 356.147 81.9136 359.823 82.1073" stroke="#565758" stroke-width="1.5" stroke-linecap="round" stroke-linejoin="round"/>
<path d="M367.851 78.3311V76.9756" stroke="#565758" stroke-width="2.5" stroke-linecap="round" stroke-linejoin="round"/>
<path d="M356.437 78.0407V76.9756" stroke="#565758" stroke-width="2.5" stroke-linecap="round" stroke-linejoin="round"/>
<path d="M361.37 95.7597L360.113 103.99C353.922 101.666 347.732 99.1485 341.831 96.4374C325.581 88.8851 310.976 80.0741 301.593 71.6504C297.918 68.3583 292.791 67.3901 288.148 69.1329L287.858 69.2297C281.281 72.0377 278.089 79.3963 280.507 86.0772C284.569 97.5025 289.406 107.379 293.758 110.09C296.08 111.929 299.078 111.542 301.98 110.574" stroke="#565758" stroke-width="1.5" stroke-linecap="round" stroke-linejoin="round"/>
<path d="M379.265 110.089C383.327 111.154 387.293 112.123 391.162 112.897C398.707 114.35 405.574 118.513 410.314 124.613L430.24 150.078C435.366 156.662 436.237 165.667 432.464 173.122L415.537 205.946C413.699 209.431 410.411 209.238 407.122 207.108C400.738 203.041 394.161 192.293 396.772 188.227" stroke="#565758" stroke-width="1.5" stroke-linecap="round" stroke-linejoin="round"/>
<path d="M407.219 207.108L404.8 210.4C403.059 212.724 400.835 214.563 398.223 215.822C391.355 219.211 383.134 217.855 377.717 212.433C376.943 211.659 376.169 210.787 375.396 209.916C374.622 209.044 373.751 208.173 372.881 207.398C369.785 204.494 367.174 201.105 365.143 197.329C364.369 195.973 364.756 194.23 366.11 193.262C367.464 192.391 369.302 192.875 370.076 194.23C370.076 194.23 370.076 194.327 370.172 194.327C371.72 197.135 374.815 201.879 378.974 204.687" stroke="#565758" stroke-width="1.5" stroke-linecap="round" stroke-linejoin="round"/>
<path d="M375.105 193.165C377.233 195.973 379.651 198.587 382.457 200.717" stroke="#565758" stroke-width="1.5" stroke-linecap="round" stroke-linejoin="round"/>
<path d="M368.141 192.971C367.657 192.1 367.27 191.229 366.98 190.357C366.4 188.808 367.174 187.162 368.721 186.581C370.172 186.097 371.72 186.678 372.397 188.13C372.784 189.002 373.171 189.97 373.751 190.841C374.041 191.325 374.331 191.906 374.718 192.39" stroke="#565758" stroke-width="1.5" stroke-linecap="round" stroke-linejoin="round"/>
<path d="M375.105 193.165C374.912 192.874 374.718 192.681 374.622 192.39C374.138 191.712 373.945 191.325 373.848 191.228C373.751 191.131 373.654 190.938 373.654 190.744C373.074 189.292 373.751 187.549 375.299 186.968C376.556 186.484 378.104 186.968 378.781 188.13C381.489 192.196 384.585 195.876 388.26 199.168C388.647 199.555 389.227 199.555 389.614 199.168C389.711 199.071 389.711 199.071 389.808 198.974L394.838 191.228L396.966 188.033L411.861 165.473C412.539 164.505 412.442 163.149 411.571 162.278C407.992 158.598 398.513 148.722 390.388 138.556C382.553 149.981 385.455 164.214 393.677 170.024C392.226 172.251 390.485 174.284 388.357 175.93C374.235 187.065 347.732 182.127 333.029 171.863C330.998 170.508 329.16 168.862 327.516 167.119" stroke="#565758" stroke-width="1.5" stroke-linecap="round" stroke-linejoin="round"/>
<path d="M359.436 87.6261C361.273 88.4007 363.401 88.0134 364.852 86.561" stroke="#565758" stroke-width="1.2" stroke-linecap="round" stroke-linejoin="round"/>
<path d="M351.794 74.7486C349.666 73.1026 348.409 70.4883 348.409 67.7772C348.409 58.5789 365.336 52.1885 374.332 52.1885C385.842 52.1885 383.811 59.5471 387.486 62.936C391.452 66.6153 396.579 64.3884 396.579 75.2327C396.579 75.62 396.579 76.0073 396.579 76.3946C396.579 90.9183 410.894 84.7215 412.539 102.537H378.394" stroke="#565758" stroke-width="1.5" stroke-linecap="round" stroke-linejoin="round"/>
<path d="M351.794 82.9785C349.763 87.2388 345.507 92.4673 341.735 96.3403" stroke="#565758" stroke-width="1.2" stroke-linecap="round" stroke-linejoin="round"/>
<path d="M293.758 110.089C292.308 108.831 293.081 105.829 295.113 102.537C299.465 95.1785 309.718 86.2706 313.491 90.8214" stroke="#565758" stroke-width="1.5" stroke-linecap="round" stroke-linejoin="round"/>
<path d="M360.113 103.989C360.113 103.989 360.016 104.086 360.016 104.28C359.532 105.442 357.888 109.993 362.918 111.445C363.305 111.542 363.595 111.639 363.982 111.735C369.592 112.897 375.976 110.38 378.201 106.12L378.394 104.086L378.491 102.634L379.458 90.1436" stroke="#565758" stroke-width="1.5" stroke-linecap="round" stroke-linejoin="round"/>
<path d="M352.471 119.578C355.663 116.19 359.532 113.479 363.885 111.639L364.562 124.904C364.562 124.904 375.009 116.674 379.265 110.09C378.781 108.056 378.394 106.023 378.201 103.99" stroke="#565758" stroke-width="1.5" stroke-linecap="round" stroke-linejoin="round"/>
<path d="M359.919 104.28C354.793 108.637 352.471 119.191 352.375 119.578" stroke="#565758" stroke-width="1.5" stroke-linecap="round" stroke-linejoin="round"/>
<path d="M321.712 130.035L321.809 135.167C321.906 138.653 319.488 141.751 316.006 142.332L311.653 143.107H311.556H311.169C309.622 143.107 308.364 141.945 308.267 140.396C308.171 138.846 309.331 137.588 310.782 137.394L315.038 136.619C315.619 136.523 316.102 135.942 316.102 135.361L316.006 131.972C316.006 130.713 315.522 129.551 314.845 128.486C313.781 126.937 313.104 125.194 312.814 123.354C312.62 122.192 312.04 121.127 311.169 120.256C309.331 118.32 305.849 114.737 302.077 110.574C299.755 107.959 297.337 105.151 295.209 102.537" stroke="#565758" stroke-width="1.5" stroke-linecap="round" stroke-linejoin="round"/>
<path d="M320.552 143.397L313.684 143.784H313.491C312.814 143.784 312.04 143.494 311.556 143.01" stroke="#565758" stroke-width="1.5" stroke-linecap="round" stroke-linejoin="round"/>
<path d="M322.003 143.204C321.616 143.3 321.326 143.397 320.939 143.397" stroke="#565758" stroke-width="1.5" stroke-linecap="round" stroke-linejoin="round"/>
<path d="M327.903 129.357C327.903 131.294 327.903 133.327 327.903 135.651C327.903 139.137 325.485 142.235 322.099 143.107" stroke="#565758" stroke-width="1.5" stroke-linecap="round" stroke-linejoin="round"/>
<path d="M304.495 79.4927C308.074 83.3657 311.169 87.045 313.878 90.5307C325.872 105.732 330.611 116.867 332.449 124.322C332.642 125.097 332.836 125.775 332.933 126.453C333.416 128.97 333.61 131.487 333.513 134.005C333.513 134.779 333.416 135.36 333.416 135.554C333.416 138.749 331.095 141.557 327.903 142.041L322.099 143.01H322.003L320.939 143.203H320.648" stroke="#565758" stroke-width="1.5" stroke-linecap="round" stroke-linejoin="round"/>
<path d="M332.933 126.453C333.126 126.549 333.319 126.743 333.513 126.84C335.061 128.486 336.608 129.261 338.059 129.261C339.703 129.261 340.961 130.519 340.961 132.165C340.961 133.811 339.703 135.07 338.059 135.07C336.511 135.07 334.964 134.683 333.513 134.005" stroke="#565758" stroke-width="1.5" stroke-linecap="round" stroke-linejoin="round"/>
<path d="M337.575 113.285C335.157 117.254 333.32 120.547 332.449 124.323" stroke="#565758" stroke-width="1.5" stroke-linecap="round" stroke-linejoin="round"/>
<path d="M332.449 139.04C332.836 141.848 333.126 144.559 333.126 147.367C333.126 153.951 330.708 161.116 327.226 167.313" stroke="#565758" stroke-width="1.5" stroke-linecap="round" stroke-linejoin="round"/>
<path d="M388.163 176.124C390.872 180.965 393.097 186.097 394.741 191.422" stroke="#565758" stroke-width="1.5" stroke-linecap="round" stroke-linejoin="round"/>
<path d="M381.393 291.248C375.492 310.032 370.269 324.653 367.367 332.592C365.723 336.949 364.852 339.37 364.852 339.37H341.831L349.473 285.342" stroke="#565758" stroke-width="1.5" stroke-linecap="round" stroke-linejoin="round"/>
<path d="M398.223 215.822C398.223 225.988 396.579 238.091 392.613 252.809C388.841 266.752 384.971 279.726 381.393 291.151" stroke="#565758" stroke-width="1.5" stroke-linecap="round" stroke-linejoin="round"/>
<path d="M332.836 172.057C327.129 189.195 324.034 207.689 332.449 236.155C336.125 248.645 342.702 267.236 349.376 285.342" stroke="#565758" stroke-width="1.5" stroke-linecap="round" stroke-linejoin="round"/>
<path d="M367.367 332.592C369.012 336.852 369.979 339.37 369.979 339.37H395.708L381.393 291.248" stroke="#565758" stroke-width="1.5" stroke-linecap="round" stroke-linejoin="round"/>
<path d="M324.614 371.226H353.535L358.372 357.864" stroke="#565758" stroke-width="1.5" stroke-linecap="round" stroke-linejoin="round"/>
<path d="M361.177 371.226H353.535" stroke="#565758" stroke-width="1.5" stroke-linecap="round" stroke-linejoin="round"/>
<path d="M324.614 371.225C324.614 367.546 326.355 364.06 329.45 362.027C333.223 359.606 337.962 355.346 339.22 348.665C339.607 346.632 341.445 345.083 343.573 345.083H363.111L362.144 357.476" stroke="#565758" stroke-width="1.5" stroke-linecap="round" stroke-linejoin="round"/>
<path d="M341.831 339.273L340.767 346.245" stroke="#565758" stroke-width="1.5" stroke-linecap="round" stroke-linejoin="round"/>
<path d="M360.983 345.18L362.144 339.273" stroke="#565758" stroke-width="1.5" stroke-linecap="round" stroke-linejoin="round"/>
<path d="M362.144 357.573C370.656 354.765 371.526 344.792 371.526 344.792H397.643C397.933 344.792 398.223 344.986 398.32 345.276L406.348 370.451H394.644L388.937 355.055C383.134 360.768 381.006 371.225 369.979 371.225H361.08" stroke="#565758" stroke-width="1.5" stroke-linecap="round" stroke-linejoin="round"/>
<path d="M395.805 339.273L397.546 344.792" stroke="#565758" stroke-width="1.5" stroke-linecap="round" stroke-linejoin="round"/>
<path d="M373.268 339.273L375.202 344.792" stroke="#565758" stroke-width="1.5" stroke-linecap="round" stroke-linejoin="round"/>
<path d="M362.144 357.573L361.177 371.226" stroke="#565758" stroke-width="1.5" stroke-linecap="round" stroke-linejoin="round"/>
<path d="M349.376 285.342L359.049 217.081L359.919 210.69" stroke="white" stroke-width="1.5" stroke-linecap="round" stroke-linejoin="round"/>
<path d="M351.021 207.688C352.665 212.53 356.534 215.531 359.049 217.08" stroke="white" stroke-width="1.5" stroke-linecap="round" stroke-linejoin="round"/>
<path d="M150.603 146.979C151.184 148.916 150.506 150.756 149.056 152.402C147.798 148.625 146.637 144.752 145.477 141.17C147.605 142.138 149.346 143.784 150.313 145.914C150.313 146.205 150.41 146.592 150.603 146.979Z" fill="#565758"/>
<path d="M134.256 137.878C134.643 138.556 134.837 139.33 134.643 140.008C134.45 140.783 134.063 141.46 133.386 141.848L133.289 141.945C132.225 141.364 130.871 141.46 130 142.235L126.325 145.333C124.1 147.173 122.359 149.4 121.005 152.014L115.588 151.724L118.587 146.786C119.651 145.043 121.005 143.591 122.649 142.429L130.097 137.007C131.355 136.038 133.192 136.426 134.16 137.684C134.16 137.781 134.16 137.781 134.256 137.878Z" fill="white"/>
<path d="M133.966 142.623C135.03 143.881 134.837 145.721 133.676 146.689L127.486 151.918L127.292 152.305L120.908 152.015C122.262 149.497 124.1 147.27 126.228 145.334L129.904 142.235C130.871 141.461 132.128 141.364 133.192 141.945C133.483 142.138 133.773 142.332 133.966 142.623Z" fill="white"/>
<path d="M130.097 137.104L122.649 142.526C121.005 143.688 119.651 145.237 118.587 146.883L115.588 151.821L111.719 151.627C112.59 150.272 113.363 149.013 114.041 147.851C114.911 146.399 115.588 145.14 116.169 144.172C116.942 142.913 118.006 141.848 119.264 141.073L123.133 138.75C125.067 137.588 127.002 136.329 128.163 135.651C129.517 134.877 131.258 135.264 132.128 136.619C131.258 136.523 130.581 136.716 130.097 137.104Z" fill="white"/>
<path d="M114.331 174.672L81.347 188.711C77.8648 190.164 73.8023 190.067 70.4169 188.324C70.6104 187.452 70.3202 186.484 69.7398 185.903C69.0627 184.935 68.8693 183.676 69.1595 182.514C69.2562 181.643 69.7398 180.868 70.5136 180.481L73.9958 178.448C80.9601 178.545 86.0866 176.705 89.3753 171.283C89.3753 171.283 92.7607 171.767 98.1774 172.541L104.948 173.51C107.85 173.897 111.042 174.284 114.331 174.672Z" fill="white"/>
<path d="M113.073 62.6455C113.17 63.2265 113.17 63.7106 113.17 64.2915C113.17 65.9375 112.783 67.4867 112.106 68.9391C111.042 71.3597 108.624 73.0057 106.012 73.1026C102.046 73.1026 98.8545 69.1328 98.8545 64.2915C98.8545 63.7106 98.8545 63.2265 98.9512 62.6455H113.073Z" fill="white"/>
<path d="M112.88 145.043C113.267 145.915 113.557 146.883 113.847 147.851C113.17 148.916 112.493 150.175 111.526 151.627L108.721 151.53C108.43 150.175 108.044 148.916 107.56 147.657C106.883 146.205 107.463 144.462 108.914 143.784C110.365 143.107 112.106 143.591 112.88 145.043Z" fill="white"/>
<path d="M98.7578 64.2915C98.7578 69.1327 101.95 73.1025 105.916 73.1025C108.624 73.0057 110.945 71.3597 112.009 68.9391C112.299 74.8454 112.396 75.3295 112.106 77.0723C107.85 81.6231 105.335 75.3295 99.3381 74.7486C99.6283 74.7486 99.9185 74.5549 100.112 74.4581C100.596 74.0708 100.596 73.2962 100.209 72.9089C100.112 72.8121 100.112 72.8121 100.015 72.7152C98.6611 71.6502 96.7265 69.3264 98.7578 64.2915Z" fill="white"/>
<path d="M110.075 344.695C110.558 344.211 111.139 344.018 111.816 344.115C112.783 344.211 113.654 345.083 113.654 346.051C114.041 353.313 120.521 358.929 126.905 358.929C132.032 358.929 137.061 356.799 139.673 355.54C140.737 355.056 141.898 355.056 142.865 355.733H142.962C143.832 356.314 144.316 357.283 144.413 358.251C144.703 367.062 138.706 370.354 131.258 370.354H88.1179V357.67C88.1179 356.508 87.5375 355.443 86.4735 354.862L86.8604 351.861C90.8262 353.313 95.0822 353.991 99.3381 354.087C106.012 354.087 106.98 348.084 109.688 345.083C109.785 344.986 109.978 344.792 110.075 344.695Z" fill="white"/>
<path d="M82.7979 49.9616C82.7979 56.5457 81.347 61.0964 77.8649 62.7425H75.8336C74.5762 39.3109 98.9512 43.3775 102.24 37.7617C102.724 44.0553 115.588 49.2838 110.558 57.2235C109.881 55.0933 108.817 52.9632 107.463 51.2203C107.27 50.9299 106.98 50.7362 106.593 50.5426C103.788 49.3807 101.66 50.3489 99.725 51.8981C98.9512 52.5759 97.8872 52.6727 97.0167 52.0918C92.8575 49.6711 87.0539 51.414 82.7979 49.9616Z" fill="#565758"/>
<path d="M107.657 151.337C109.398 152.402 110.462 154.242 110.558 156.275C110.558 158.889 108.624 161.116 105.722 162.181C104.561 162.665 103.207 162.859 101.95 162.859C100.982 162.859 100.015 162.762 99.0479 162.472C95.7592 161.6 93.3411 159.18 93.3411 156.372C93.3411 154.629 94.2116 153.08 95.5658 152.015C97.4036 150.562 99.6283 149.788 101.95 149.788C103.981 149.691 105.916 150.272 107.657 151.337Z" fill="white"/>
<path d="M107.657 151.337C109.398 152.402 110.462 154.242 110.558 156.275C110.558 158.889 108.624 161.116 105.722 162.181C104.561 162.665 103.207 162.859 101.95 162.859C100.982 162.859 100.015 162.762 99.0479 162.472C95.7592 161.6 93.3411 159.18 93.3411 156.372C93.3411 154.629 94.2116 153.08 95.5658 152.015C97.4036 150.562 99.6283 149.788 101.95 149.788C103.981 149.691 105.916 150.272 107.657 151.337Z" fill="white"/>
<path d="M107.657 151.337L108.817 151.434L111.622 151.531L115.491 151.724L120.908 152.015L127.292 152.305L127.486 151.918L133.676 146.689C134.933 145.624 135.03 143.785 133.966 142.623C133.773 142.332 133.483 142.139 133.192 141.945L133.289 141.848C133.966 141.364 134.353 140.686 134.547 140.008C138.803 139.524 142.575 139.815 145.38 141.074C146.541 144.753 147.798 148.529 148.959 152.305C150.023 155.5 150.99 158.599 151.957 161.6C154.085 167.991 150.603 174.768 144.219 176.899C142.672 177.383 140.931 177.576 139.286 177.48L138.125 177.383C130 176.608 121.682 175.543 114.234 174.672C110.945 174.284 107.753 173.8 104.852 173.51C105.045 170.702 105.335 166.248 105.625 162.181C108.527 161.116 110.462 158.889 110.462 156.275C110.462 154.242 109.398 152.402 107.657 151.337Z" fill="white"/>
<path d="M105.722 162.084C105.432 166.151 105.142 170.702 104.948 173.413L98.1774 172.445C98.3709 169.637 98.7578 165.57 99.048 162.278C100.015 162.569 100.982 162.665 101.95 162.665C103.207 162.762 104.465 162.569 105.722 162.084Z" fill="white"/>
<path d="M105.722 162.084C105.432 166.151 105.142 170.702 104.948 173.413L98.1774 172.445C98.3709 169.637 98.7578 165.57 99.048 162.278C100.015 162.569 100.982 162.665 101.95 162.665C103.207 162.762 104.465 162.569 105.722 162.084Z" fill="#565758"/>
<path d="M98.5643 77.5562C102.724 77.3626 104.755 79.4927 103.884 81.7197C102.82 84.2371 98.3709 87.045 98.3709 87.045C98.3709 87.045 93.6313 85.6895 91.1164 83.3657C85.2161 78.0403 98.1774 77.5562 98.5643 77.5562Z" fill="white"/>
<path d="M102.24 98.4705L110.655 119.288C110.365 119.094 105.722 115.705 100.692 115.608V97.5022C101.079 97.4054 101.369 97.4054 101.756 97.3086L102.24 98.4705Z" fill="white"/>
<path d="M99.9185 97.5991C100.209 97.5991 100.499 97.5023 100.789 97.5023V119.288C99.6283 118.61 98.4676 117.932 97.2101 117.255C88.5048 111.929 78.5419 104.667 78.5419 98.761V80.9453C80.4765 90.3373 86.4735 98.761 99.9185 97.5991Z" fill="white"/>
<path d="M99.4349 74.7486C98.661 74.8454 97.5003 74.7486 96.3396 74.9423L96.92 74.8455C97.6938 74.6518 98.5643 74.555 99.4349 74.7486Z" fill="white"/>
<path d="M75.7369 63.2265C76.414 63.1296 77.091 62.936 77.7681 62.6455H81.0568C80.9601 63.2265 80.9601 63.7106 80.9601 64.2915C80.9601 69.1328 84.1521 73.1026 88.1179 73.1026C92.0837 73.1026 95.3724 69.1328 95.3724 64.2915C95.3724 63.7106 95.3724 63.2265 95.2756 62.6455H98.9512C98.8545 63.2265 98.8545 63.7106 98.8545 64.2915C96.8233 69.3264 98.7578 71.6502 100.209 72.6184C100.692 72.9089 100.886 73.6835 100.596 74.1676C100.499 74.2645 100.499 74.3613 100.402 74.3613C100.209 74.5549 99.9185 74.6518 99.6283 74.6518C98.7578 74.5549 97.8872 74.5549 97.1134 74.7486L96.5331 74.8454C88.8917 76.3946 81.8306 83.9469 78.2518 75.9105H78.155C65.9675 73.2962 69.5464 63.3233 75.0598 63.3233C75.0598 63.2265 75.4467 63.2265 75.7369 63.2265Z" fill="white"/>
<path d="M103.788 81.7199C104.755 79.4929 102.627 77.4596 98.4676 77.5564C98.0807 77.5564 85.216 78.1374 91.0196 83.3659C93.5345 85.6897 98.2741 87.0453 98.2741 87.0453C98.2741 87.0453 102.724 84.2373 103.788 81.7199ZM96.2429 74.9422C97.4036 74.8454 98.5643 74.9422 99.3381 74.7485C105.335 75.4263 107.85 81.6231 112.106 77.0723C112.493 80.6548 111.042 94.7912 101.66 97.2118C101.273 97.3087 100.982 97.4055 100.596 97.4055C100.209 97.4055 100.015 97.5023 99.725 97.5023C86.28 98.6642 80.283 90.2405 78.3485 80.8485C77.9616 79.2025 77.7681 77.4596 77.6714 75.8136H77.7681C81.6372 84.0437 88.6982 76.3946 96.2429 74.9422Z" fill="#565758"/>
<path d="M95.2756 62.6455C95.3723 63.2265 95.3723 63.7106 95.3723 64.2915C95.3723 69.1328 92.1804 73.1026 88.1178 73.1026C84.0553 73.1026 80.9601 69.1328 80.9601 64.2915C80.9601 63.7106 80.9601 63.2265 81.0568 62.6455H95.2756Z" fill="white"/>
<path d="M97.2102 117.158C97.2102 117.158 89.5688 118.416 80.9601 125C79.6059 116.673 73.0285 99.245 73.0285 99.245L78.5419 94.4038V98.6641C78.5419 104.57 88.5048 111.929 97.2102 117.158Z" fill="white"/>
<path d="M89.472 345.18H109.688C106.98 348.181 106.012 354.184 99.3381 354.184C95.0822 354.088 90.8262 353.41 86.8604 351.957L87.7309 345.18H89.472Z" fill="white"/>
<path d="M54.1668 354.378C53.9734 348.278 58.713 343.05 64.8068 342.856C65.0969 342.856 65.3871 342.856 65.6773 342.856C67.9987 342.953 70.2234 343.727 71.9645 345.18C73.6089 346.438 74.8663 348.181 75.6401 350.118C76.7041 352.829 79.3157 354.572 82.2175 354.572H84.9259C86.667 354.572 88.1178 356.024 88.1178 357.767V370.451H41.9793C41.9793 356.702 52.7159 363.964 54.1668 354.378Z" fill="white"/>
<path d="M87.6342 345.18L86.7637 351.957L86.3768 354.959C85.8932 354.669 85.4095 354.572 84.8292 354.572H82.2175C79.3158 354.572 76.7041 352.829 75.6401 350.118C74.8663 348.181 73.6089 346.438 71.9645 345.18H87.6342Z" fill="white"/>
<path d="M95.2756 62.6456H77.7681C81.2503 61.0964 82.7012 56.4488 82.7012 49.8647C86.9571 51.3171 92.7607 49.6711 96.92 51.9949C97.7905 52.479 98.8545 52.3822 99.6283 51.8012C101.563 50.252 103.691 49.2838 106.496 50.4457C106.883 50.5425 107.173 50.833 107.366 51.1235C108.721 52.9631 109.785 54.9964 110.462 57.1266C110.945 58.579 111.332 60.1282 111.526 61.6773V62.6456H95.2756Z" fill="white"/>
<path d="M76.1238 147.077L79.1223 156.565C77.8648 156.953 76.7041 157.34 75.6401 157.727C70.9005 157.146 66.2577 155.888 61.8082 153.951C60.3573 153.37 58.6163 154.048 58.0359 155.5C57.4555 156.953 58.1326 158.695 59.5835 159.276C61.905 160.245 64.2264 161.213 66.4511 162.084C62.7755 164.505 59.5835 167.603 57.0686 171.089L56.8752 170.992C55.6177 168.668 54.457 166.151 53.2963 163.44C52.1356 160.729 50.9749 157.824 49.8141 154.532C57.2621 149.11 72.4481 145.14 76.1238 147.077Z" fill="white"/>
<path d="M75.7369 62.6455H77.7681C77.091 62.936 76.414 63.1296 75.7369 63.2265C75.7369 63.0328 75.7369 62.8392 75.7369 62.6455Z" fill="white"/>
<path d="M75.6402 157.727C72.4482 158.792 69.3529 160.342 66.3544 162.084C64.1297 161.213 61.905 160.245 59.4868 159.277C58.0359 158.696 57.2621 156.953 57.9392 155.5C58.5196 154.048 60.2606 153.273 61.7115 153.951C66.161 155.791 70.9006 157.146 75.6402 157.727Z" fill="white"/>
<path d="M71.9645 345.18C70.1267 343.727 67.902 342.953 65.6773 342.856C63.0657 342.759 60.5508 343.534 58.5195 345.18H54.3603C68.2889 243.514 58.1326 219.598 61.518 193.843C62.3886 194.521 63.5493 194.908 64.6133 194.811H130.774C131.935 194.811 132.999 194.521 133.966 194.036C132.128 231.604 113.944 332.786 111.816 344.115C111.139 344.018 110.558 344.211 110.075 344.695C109.881 344.792 109.785 344.986 109.591 345.18H71.9645Z" fill="white"/>
<path d="M71.9645 345.18C70.1267 343.727 67.902 342.953 65.6773 342.856C63.0657 342.759 60.5508 343.534 58.5195 345.18H54.3603C68.2889 243.514 58.1326 219.598 61.518 193.843C62.3886 194.521 63.5493 194.908 64.6133 194.811H130.774C131.935 194.811 132.999 194.521 133.966 194.036C132.128 231.604 113.944 332.786 111.816 344.115C111.139 344.018 110.558 344.211 110.075 344.695C109.881 344.792 109.785 344.986 109.591 345.18H71.9645Z" fill="#565758"/>
<path d="M59.1966 185.322C58.8097 185.031 58.4228 184.741 58.0359 184.451C56.4883 183.192 55.4243 181.546 54.7472 179.706C53.8767 177.576 54.1669 175.059 55.4243 173.122C55.9079 172.444 56.3916 171.767 56.9719 171.089C59.5835 167.506 62.7755 164.505 66.3544 162.084C69.2562 160.244 72.3514 158.792 75.6401 157.727C76.7041 157.34 77.9616 156.952 79.1223 156.565C81.5405 155.79 84.1521 154.919 87.1506 153.951C89.8589 153.079 92.664 152.402 95.5658 151.917C94.2116 152.983 93.4378 154.532 93.3411 156.275C93.3411 159.082 95.6625 161.503 99.048 162.375C98.8545 165.667 98.4676 169.733 98.1774 172.541C92.7607 171.767 89.3753 171.282 89.3753 171.282C85.9899 176.705 80.9601 178.544 73.9958 178.447L70.5136 180.481C69.7398 180.868 69.2562 181.643 69.1595 182.514C68.966 183.676 69.1595 184.935 69.7398 185.903C70.3202 186.581 70.6104 187.452 70.4169 188.324C70.3202 189.001 69.9333 189.582 69.4496 189.97C68.2889 190.938 66.6446 190.938 65.5806 189.873C65.1937 189.776 64.8068 189.582 64.4199 189.389C63.1624 188.324 62.0984 187.065 61.4213 185.709C61.2279 185.709 61.0344 185.806 60.841 185.806C60.1639 185.709 59.6803 185.612 59.1966 185.322Z" fill="white"/>
<path d="M76.1238 147.077C72.4482 145.14 57.2621 149.11 49.7174 154.629C47.2025 156.469 45.5582 158.405 45.3647 160.342C45.7516 151.531 44.3975 137.201 43.0433 126.066C41.7859 115.318 48.46 105.248 58.8097 102.247C63.4526 100.988 68.1922 100.02 73.0285 99.3421C73.0285 99.3421 79.6059 116.674 80.9601 125.097C89.5687 118.417 97.2101 117.255 97.2101 117.255C98.4676 118.029 99.6283 118.707 100.789 119.288V115.609C105.819 115.705 110.462 119.094 110.752 119.288L102.337 98.4707C107.657 98.858 112.88 99.7294 118.006 100.988C127.099 103.409 134.643 109.799 138.319 118.513L150.216 146.012C149.249 143.881 147.605 142.139 145.38 141.267C142.575 140.008 138.899 139.718 134.547 140.202C134.74 139.427 134.643 138.653 134.16 138.072C132.322 136.716 130.097 135.942 127.776 135.748C126.712 136.426 124.777 137.588 122.746 138.847L118.877 141.17C117.619 141.945 116.555 143.01 115.782 144.269C115.201 145.237 114.524 146.496 113.654 147.948C113.363 146.98 113.073 146.108 112.686 145.14C112.009 143.688 110.268 143.107 108.817 143.785C107.366 144.462 106.786 146.205 107.463 147.658C107.947 148.916 108.334 150.175 108.624 151.531L107.463 151.434C105.819 150.369 103.788 149.788 101.756 149.788C99.4349 149.788 97.1134 150.562 95.3723 152.015C92.5673 152.499 89.7622 153.177 86.9571 154.048C83.9586 155.016 81.347 155.888 78.9288 156.662L76.1238 147.077ZM59.8737 192.003C60.2606 192.681 60.7443 193.359 61.4213 193.843C62.2919 194.521 63.4526 194.908 64.5166 194.811H130.678C134.16 194.811 137.158 192.1 137.545 188.614C137.835 185.516 138.222 181.449 138.222 177.383C130.097 176.608 121.779 175.543 114.331 174.672L81.347 188.711C77.8648 190.164 73.8023 190.067 70.4169 188.324C70.3202 189.002 69.9333 189.583 69.4496 189.97C68.2889 190.938 66.6446 190.938 65.5806 189.873C65.1937 189.776 64.8068 189.583 64.4199 189.389C63.1624 188.324 62.0984 187.065 61.4213 185.71C61.2279 185.71 61.0344 185.806 60.841 185.806C60.2606 185.806 59.777 185.613 59.2934 185.322C58.9065 185.032 58.5195 184.741 58.1326 184.451C58.0359 187.065 58.713 189.679 59.8737 192.003Z" fill="white"/>
<path d="M53.1996 163.537C48.9436 163.827 45.3647 163.343 45.3647 160.826C45.3647 160.729 45.3647 160.535 45.3647 160.438C45.5582 158.502 47.2025 156.468 49.7174 154.726C50.8782 157.824 52.0389 160.826 53.1996 163.537Z" fill="#565758"/>
<path d="M53.1996 163.537C48.9436 163.827 45.3647 163.343 45.3647 160.826C45.3647 160.729 45.3647 160.535 45.3647 160.438C45.7516 151.627 44.3975 137.297 43.0433 126.163C41.7859 115.415 48.46 105.345 58.8097 102.344C63.4526 101.085 68.1922 100.117 73.0285 99.439" stroke="#565758" stroke-width="1.5" stroke-linecap="round" stroke-linejoin="round"/>
<path d="M78.5419 94.5005L73.0285 99.3417C73.0285 99.3417 79.6059 116.673 80.9601 125.097C89.5688 118.416 97.2102 117.254 97.2102 117.254" stroke="#565758" stroke-width="1.5" stroke-linecap="round" stroke-linejoin="round"/>
<path d="M45.3647 160.729C45.3647 160.632 45.3647 160.438 45.3647 160.341C45.5582 158.405 47.2025 156.372 49.7174 154.629C57.2621 149.11 72.4482 145.14 76.1238 147.076" stroke="#565758" stroke-width="1.5" stroke-linecap="round" stroke-linejoin="round"/>
<path d="M72.3514 135.167L76.1238 147.076L79.1223 156.468" stroke="#565758" stroke-width="1.5" stroke-linecap="round" stroke-linejoin="round"/>
<path d="M75.6401 157.727C72.4482 158.792 69.3529 160.341 66.3544 162.084C62.6788 164.505 59.4868 167.603 56.9719 171.089C56.4883 171.767 56.0047 172.444 55.4243 173.122C54.1669 175.059 53.8767 177.479 54.7472 179.706C55.4243 181.546 56.4883 183.192 58.0359 184.451C58.4228 184.741 58.8097 185.032 59.1966 185.322C59.6803 185.613 60.1639 185.709 60.7443 185.806C60.9377 185.806 61.1312 185.806 61.3246 185.709" stroke="#565758" stroke-width="1.5" stroke-linecap="round" stroke-linejoin="round"/>
<path d="M95.5658 151.917C92.7607 152.402 89.9557 153.079 87.1506 153.951C84.1521 154.919 81.5405 155.79 79.1223 156.565C77.8649 156.952 76.7041 157.34 75.6401 157.727" stroke="#565758" stroke-width="1.5" stroke-linecap="round" stroke-linejoin="round"/>
<path d="M56.7785 170.992C55.521 168.668 54.3603 166.151 53.1996 163.44C52.0389 160.729 50.8782 157.824 49.7174 154.532" stroke="#565758" stroke-width="1.5" stroke-linecap="round" stroke-linejoin="round"/>
<path d="M66.3544 162.084C64.1297 161.213 61.905 160.245 59.4868 159.277C58.0359 158.696 57.2621 156.953 57.9392 155.5C58.5196 154.048 60.2606 153.273 61.7115 153.951C66.161 155.888 70.8038 157.146 75.5434 157.727" stroke="#565758" stroke-width="1.5" stroke-linecap="round" stroke-linejoin="round"/>
<path d="M91.1164 83.366C93.6313 85.6898 98.3709 87.0454 98.3709 87.0454C98.3709 87.0454 102.82 84.2374 103.884 81.72C104.852 79.493 102.724 77.4597 98.5643 77.5565C98.1774 77.5565 85.2161 78.0407 91.1164 83.366Z" stroke="#565758" stroke-width="1.5" stroke-linecap="round" stroke-linejoin="round"/>
<path d="M93.8247 80.9452C96.0494 81.3325 98.4676 81.1389 100.596 80.3643" stroke="#565758" stroke-width="1.2" stroke-linecap="round" stroke-linejoin="round"/>
<path d="M72.0612 66.9057C73.0285 65.5501 76.1238 65.2597 76.4139 68.5517" stroke="#565758" stroke-width="1.5" stroke-linecap="round" stroke-linejoin="round"/>
<path d="M74.4794 62.6455H75.7369H77.7681H81.0568H95.2756H98.8545H111.526H113.073H113.75" stroke="#565758" stroke-width="1.5" stroke-linecap="round" stroke-linejoin="round"/>
<path d="M98.8545 62.6455C98.7578 63.2265 98.7578 63.7106 98.7578 64.2915C98.7578 69.1328 101.95 73.1026 105.916 73.1026C108.624 73.0057 110.945 71.3597 112.009 68.9391C112.686 67.4867 113.073 65.9375 113.073 64.2915C113.073 63.7106 113.073 63.2265 112.977 62.6455" stroke="#565758" stroke-width="1.5" stroke-linecap="round" stroke-linejoin="round"/>
<path d="M81.0568 62.6455C80.9601 63.2265 80.9601 63.7106 80.9601 64.2915C80.9601 69.1328 84.1521 73.1026 88.1178 73.1026C92.0836 73.1026 95.3723 69.1328 95.3723 64.2915C95.3723 63.7106 95.3723 63.2265 95.2756 62.6455" stroke="#565758" stroke-width="1.5" stroke-linecap="round" stroke-linejoin="round"/>
<path d="M96.2429 74.8454C97.4036 74.7486 98.5643 74.8454 99.3381 74.6517C99.6283 74.6517 99.9185 74.4581 100.112 74.3613C100.596 73.974 100.596 73.1994 100.209 72.8121C100.112 72.7152 100.112 72.7152 100.015 72.6184C98.6611 71.6502 96.7265 69.3264 98.6611 64.2915" stroke="#565758" stroke-width="1.5" stroke-linecap="round" stroke-linejoin="round"/>
<path d="M87.731 67.0996V67.6806" stroke="#565758" stroke-width="2.5" stroke-linecap="round" stroke-linejoin="round"/>
<path d="M103.304 67.0996V67.6806" stroke="#565758" stroke-width="2.5" stroke-linecap="round" stroke-linejoin="round"/>
<path d="M83.475 60.5153C86.28 59.6439 89.0851 59.0629 91.9869 58.7725" stroke="#565758" stroke-width="1.5" stroke-linecap="round" stroke-linejoin="round"/>
<path d="M101.756 58.7724C105.045 58.6756 109.494 60.4185 109.494 60.4185" stroke="#565758" stroke-width="1.5" stroke-linecap="round" stroke-linejoin="round"/>
<path d="M75.7369 63.3234C75.7369 63.1298 75.7369 62.9361 75.7369 62.7425C74.4794 39.3109 98.8545 43.3775 102.143 37.7617C102.627 44.0553 115.491 49.2838 110.462 57.2235" stroke="#565758" stroke-width="1.5" stroke-linecap="round" stroke-linejoin="round"/>
<path d="M82.7979 49.9614C87.0538 51.4138 92.8574 49.7678 97.0167 52.0916C97.8872 52.5757 98.9512 52.4789 99.725 51.8979C101.66 50.3487 103.788 49.3805 106.593 50.5424C106.98 50.6392 107.27 50.9297 107.463 51.2201C108.817 53.0598 109.881 55.0931 110.558 57.2233C111.042 58.6756 111.429 60.2248 111.622 61.774" stroke="#565758" stroke-width="1.5" stroke-linecap="round" stroke-linejoin="round"/>
<path d="M77.8648 75.8134C77.9616 77.5562 78.155 79.2022 78.5419 80.8483C80.4765 90.2402 86.4735 98.7608 99.9185 97.5021C100.209 97.5021 100.499 97.4053 100.789 97.4053C101.079 97.4053 101.466 97.3084 101.853 97.2116C111.235 94.6942 112.686 80.6546 112.299 77.0721C108.044 81.6229 105.529 75.3293 99.5316 74.7483C98.661 74.6515 97.7905 74.6515 97.0167 74.8451L96.4363 74.942C88.7949 76.4912 81.7339 84.0435 78.155 76.007L77.8648 75.8134ZM77.8648 75.8134C65.6773 73.2959 69.2562 63.2262 74.7696 63.2262C75.0598 63.2262 75.4467 63.2262 75.7369 63.1294C76.4139 63.0325 77.091 62.8389 77.7681 62.5484C81.2503 60.9992 82.7012 56.3516 82.7012 49.7676" stroke="#565758" stroke-width="1.5" stroke-linecap="round" stroke-linejoin="round"/>
<path d="M112.106 68.939C112.396 74.8453 112.493 75.3294 112.203 77.0722" stroke="#565758" stroke-width="1.5" stroke-linecap="round" stroke-linejoin="round"/>
<path d="M100.789 97.5023V119.288C99.6283 118.61 98.4676 117.932 97.2101 117.255C88.5048 111.929 78.5419 104.667 78.5419 98.761V80.9453" stroke="#565758" stroke-width="1.5" stroke-linecap="round" stroke-linejoin="round"/>
<path d="M110.752 119.288L102.24 98.4706L101.756 97.2119" stroke="#565758" stroke-width="1.5" stroke-linecap="round" stroke-linejoin="round"/>
<path d="M100.789 115.608C105.819 115.705 110.462 119.094 110.752 119.288" stroke="#565758" stroke-width="1.5" stroke-linecap="round" stroke-linejoin="round"/>
<path d="M100.789 119.288V123.161" stroke="#565758" stroke-width="1.5" stroke-linecap="round" stroke-linejoin="round"/>
<path d="M70.4169 188.324C73.8024 190.066 77.8649 190.163 81.347 188.711L114.331 174.671" stroke="#565758" stroke-width="1.5" stroke-linecap="round" stroke-linejoin="round"/>
<path d="M133.483 152.692L127.292 152.305L120.908 152.015L115.491 151.724L111.526 151.531L108.817 151.337H107.657" stroke="#565758" stroke-width="1.5" stroke-linecap="round" stroke-linejoin="round"/>
<path d="M65.5806 189.873L65.3871 189.679C63.6461 187.743 62.969 185.032 63.3559 181.74C63.6461 179.029 65.1937 176.705 67.6119 175.349L70.03 173.897" stroke="#565758" stroke-width="1.5" stroke-linecap="round" stroke-linejoin="round"/>
<path d="M145.38 141.073C146.541 144.753 147.798 148.529 148.959 152.305C150.023 155.5 150.99 158.598 151.957 161.6C154.085 167.99 150.603 174.768 144.219 176.898C142.672 177.382 140.931 177.576 139.286 177.479L138.125 177.382C130 176.608 121.682 175.543 114.234 174.671C110.945 174.284 107.753 173.8 104.852 173.509L98.0807 172.541C92.664 171.767 89.2786 171.283 89.2786 171.283C85.8932 176.705 80.8634 178.544 73.8991 178.448L70.4169 180.481C69.6431 180.868 69.1595 181.643 69.0627 182.514C68.8693 183.676 69.0627 184.935 69.6431 185.903C70.2235 186.581 70.5136 187.452 70.3202 188.324C70.2235 189.001 69.8365 189.582 69.3529 189.97C68.1922 190.938 66.5478 190.938 65.4839 189.873" stroke="#565758" stroke-width="1.5" stroke-linecap="round" stroke-linejoin="round"/>
<path d="M66.4511 169.54C64.3231 170.798 62.3886 172.444 60.841 174.381C59.0999 176.608 58.713 179.706 59.777 182.32C60.2606 183.482 60.7443 184.644 61.4214 185.806C62.1952 187.258 63.2592 188.517 64.4199 189.485C64.8068 189.776 65.1937 189.97 65.5806 189.97" stroke="#565758" stroke-width="1.5" stroke-linecap="round" stroke-linejoin="round"/>
<path d="M115.491 151.724L118.49 146.786C119.554 145.043 120.908 143.591 122.552 142.429L130 137.007C131.258 136.038 133.096 136.426 134.063 137.684L134.16 137.781C134.547 138.459 134.74 139.234 134.547 139.911C134.353 140.686 133.966 141.364 133.289 141.751L133.192 141.848" stroke="#565758" stroke-width="1.5" stroke-linecap="round" stroke-linejoin="round"/>
<path d="M120.908 152.015C122.262 149.497 124.1 147.27 126.228 145.334L129.904 142.235C130.871 141.461 132.128 141.364 133.192 141.945C133.483 142.138 133.773 142.332 133.966 142.623C135.03 143.881 134.837 145.721 133.676 146.689L127.486 151.918L127.292 152.305" stroke="#565758" stroke-width="1.5" stroke-linecap="round" stroke-linejoin="round"/>
<path d="M131.742 136.523C130.871 135.167 129.13 134.78 127.776 135.554C126.712 136.232 124.777 137.394 122.843 138.653L118.974 140.977C117.716 141.751 116.652 142.816 115.878 144.075C115.298 145.043 114.621 146.302 113.75 147.754C113.073 148.819 112.396 150.078 111.429 151.531" stroke="#565758" stroke-width="1.5" stroke-linecap="round" stroke-linejoin="round"/>
<path d="M108.817 151.337C108.527 149.981 108.14 148.723 107.657 147.464C106.98 146.011 107.56 144.269 109.011 143.591C110.462 142.913 112.203 143.494 112.88 144.946C113.267 145.818 113.557 146.786 113.847 147.754" stroke="#565758" stroke-width="1.5" stroke-linecap="round" stroke-linejoin="round"/>
<path d="M121.779 133.812C121.972 134.683 122.359 136.426 122.843 138.556" stroke="#565758" stroke-width="1.5" stroke-linecap="round" stroke-linejoin="round"/>
<path d="M134.547 140.008C138.803 139.524 142.575 139.815 145.38 141.074C147.508 142.042 149.249 143.688 150.216 145.818C150.41 146.205 150.506 146.496 150.603 146.883C151.184 148.819 150.506 150.659 149.056 152.305" stroke="#565758" stroke-width="1.5" stroke-linecap="round" stroke-linejoin="round"/>
<path d="M102.24 98.4707C107.56 98.858 112.783 99.7294 117.91 100.988C127.002 103.409 134.547 109.799 138.222 118.513L150.12 146.012" stroke="#565758" stroke-width="1.5" stroke-linecap="round" stroke-linejoin="round"/>
<path d="M107.657 151.337C109.398 152.402 110.462 154.242 110.558 156.275C110.558 158.889 108.624 161.116 105.722 162.181C104.561 162.665 103.207 162.859 101.95 162.859C100.982 162.859 100.015 162.762 99.0479 162.472C95.7592 161.6 93.3411 159.18 93.3411 156.372C93.3411 154.629 94.2116 153.08 95.5658 152.015C97.4036 150.562 99.6283 149.788 101.95 149.788C103.981 149.691 105.916 150.272 107.657 151.337Z" stroke="#565758" stroke-width="1.5" stroke-linecap="round" stroke-linejoin="round"/>
<path d="M99.048 162.375C98.8545 165.667 98.4676 169.733 98.1774 172.541" stroke="#565758" stroke-width="1.5" stroke-linecap="round" stroke-linejoin="round"/>
<path d="M105.722 162.084C105.432 166.151 105.142 170.702 104.948 173.413" stroke="#565758" stroke-width="1.5" stroke-linecap="round" stroke-linejoin="round"/>
<path d="M58.0359 184.451C58.0359 187.065 58.713 189.679 59.8737 192.003C60.2606 192.681 60.7442 193.358 61.4213 193.842C62.2919 194.52 63.4526 194.908 64.5166 194.811H130.678C134.16 194.811 137.158 192.1 137.545 188.614C137.835 185.516 138.222 181.449 138.222 177.382" stroke="#565758" stroke-width="1.5" stroke-linecap="round" stroke-linejoin="round"/>
<path d="M133.966 194.036C132.128 231.604 113.944 332.786 111.816 344.114" stroke="#565758" stroke-width="1.5" stroke-linecap="round" stroke-linejoin="round"/>
<path d="M109.688 345.18H89.472H87.6342H71.9645" stroke="#565758" stroke-width="1.5" stroke-linecap="round" stroke-linejoin="round"/>
<path d="M58.4228 345.18H54.2636C68.1922 243.514 58.0359 219.598 61.4213 193.843" stroke="#565758" stroke-width="1.5" stroke-linecap="round" stroke-linejoin="round"/>
<path d="M67.4184 218.727C76.9943 217.177 82.1208 204.687 82.7012 194.908" stroke="#565758" stroke-width="1.5" stroke-linecap="round" stroke-linejoin="round"/>
<path d="M86.4735 354.959C85.9899 354.668 85.5062 354.572 84.9259 354.572H82.2175C79.3157 354.572 76.7041 352.829 75.6401 350.118C74.8663 348.181 73.6089 346.438 71.9645 345.18C70.1267 343.727 67.902 342.953 65.6773 342.856C59.5835 342.662 54.457 347.407 54.1668 353.507C54.1668 353.797 54.1668 354.087 54.1668 354.378" stroke="#565758" stroke-width="1.5" stroke-linecap="round" stroke-linejoin="round"/>
<path d="M88.1179 370.451V357.767C88.1179 356.605 87.5375 355.54 86.4735 354.959" stroke="#565758" stroke-width="1.5" stroke-linecap="round" stroke-linejoin="round"/>
<path d="M54.2636 352.151C54.2636 352.925 54.2636 353.603 54.1668 354.378C52.8127 363.963 41.9793 356.702 41.9793 370.451H88.1178" stroke="#565758" stroke-width="1.5" stroke-linecap="round" stroke-linejoin="round"/>
<path d="M87.6342 345.18L86.8604 351.957L86.4735 354.959" stroke="#565758" stroke-width="1.5" stroke-linecap="round" stroke-linejoin="round"/>
<path d="M88.1179 370.451H131.161C138.609 370.451 144.606 367.159 144.316 358.348C144.316 357.283 143.736 356.314 142.865 355.83H142.768C141.801 355.249 140.64 355.152 139.576 355.637C137.061 356.895 131.935 359.025 126.808 359.025C120.425 359.025 113.944 353.313 113.557 346.148C113.557 345.179 112.686 344.308 111.719 344.211C111.042 344.114 110.462 344.308 109.978 344.792C109.785 344.889 109.688 345.083 109.494 345.276C106.786 348.278 105.819 354.281 99.1447 354.281C94.8887 354.184 90.6327 353.506 86.667 352.054" stroke="#565758" stroke-width="1.5" stroke-linecap="round" stroke-linejoin="round"/>
<path d="M113.847 211.465C112.88 219.114 107.657 225.601 105.819 227.344C105.142 233.541 94.8887 306.837 89.472 345.18" stroke="white" stroke-width="1.5" stroke-linecap="round" stroke-linejoin="round"/>
<path d="M441.653 268.495C450.262 268.495 457.323 276.047 457.323 285.245C457.323 294.444 450.359 301.996 441.653 301.996C432.948 301.996 425.984 294.444 425.984 285.245C425.984 276.047 433.045 268.495 441.653 268.495ZM446.49 285.342L441.653 278.564L436.817 285.342L441.653 292.12L446.49 285.342Z" fill="white"/>
<path d="M441.653 278.564L446.49 285.342L441.653 292.023L436.817 285.342L441.653 278.564Z" fill="white"/>
<path d="M435.366 268.495H441.653C433.045 268.495 425.984 276.047 425.984 285.245C425.984 294.444 432.948 301.996 441.653 301.996H435.366C426.757 301.996 419.696 294.444 419.696 285.245C419.696 276.047 426.757 268.495 435.366 268.495Z" fill="#565758"/>
<path d="M441.653 302.093C433.045 302.093 425.984 294.54 425.984 285.342C425.984 276.144 432.948 268.591 441.653 268.591C450.359 268.591 457.323 276.144 457.323 285.342C457.323 294.54 450.262 302.093 441.653 302.093Z" stroke="#565758" stroke-width="1.5" stroke-linecap="round" stroke-linejoin="round"/>
<path d="M441.653 302.093H435.366C426.757 302.093 419.696 294.54 419.696 285.342C419.696 276.144 426.661 268.591 435.366 268.591H441.653" stroke="#565758" stroke-width="1.5" stroke-linecap="round" stroke-linejoin="round"/>
<path d="M446.49 285.342L441.653 292.023L436.817 285.342L441.653 278.564L446.49 285.342Z" stroke="#565758" stroke-width="1.5" stroke-linecap="round" stroke-linejoin="round"/>
<path d="M25.9569 194C34.5655 194 41.5298 201.552 41.5298 210.75C41.5298 219.949 34.5655 227.501 25.9569 227.501H19.6696C28.2783 227.501 35.3393 219.949 35.3393 210.75C35.3393 201.552 28.375 194 19.6696 194H25.9569Z" fill="#565758"/>
<path d="M19.6697 194C28.2783 194 35.3394 201.552 35.3394 210.75C35.3394 219.949 28.2783 227.501 19.6697 227.501C11.061 227.501 3.99997 219.949 3.99997 210.75C3.99997 201.552 11.061 194 19.6697 194Z" fill="white"/>
<path d="M19.6697 227.501C28.2783 227.501 35.3394 219.949 35.3394 210.75C35.3394 201.552 28.375 194 19.6697 194C10.9643 194 3.99997 201.552 3.99997 210.75C3.99997 219.949 11.061 227.501 19.6697 227.501Z" stroke="#565758" stroke-width="1.5" stroke-linecap="round" stroke-linejoin="round"/>
<path d="M19.6696 227.501H25.9569C34.5655 227.501 41.5298 219.949 41.5298 210.75C41.5298 201.552 34.5655 194 25.9569 194H19.6696" stroke="#565758" stroke-width="1.5" stroke-linecap="round" stroke-linejoin="round"/>
<path d="M11.7381 211.719L16.8646 206.588C17.445 206.007 18.3155 206.007 18.7992 206.588C19.0893 206.878 19.1861 207.169 19.1861 207.556V212.978C19.1861 213.753 19.8632 214.334 20.637 214.334C21.0239 214.334 21.3141 214.14 21.6042 213.946L27.698 207.846" stroke="#565758" stroke-width="1.5" stroke-linecap="round" stroke-linejoin="round"/>
<path d="M164.048 60.9025C164.048 60.8056 164.048 60.8056 164.048 60.7088C164.048 56.8358 160.856 53.6406 156.987 53.6406C153.795 53.6406 150.99 55.8676 150.216 58.966C149.829 58.8692 149.539 58.8691 149.152 58.8691C146.637 58.8691 144.703 60.9025 144.703 63.3231C144.703 65.8405 146.734 67.777 149.152 67.777H163.081C165.015 67.777 166.66 66.2278 166.66 64.2913C166.563 62.7421 165.596 61.3866 164.048 60.9025Z" stroke="#565758" stroke-width="1.5" stroke-linecap="round" stroke-linejoin="round"/>
<path d="M222.278 70.1977C220.827 69.6167 219.472 68.8421 218.215 67.9707V76.7817C218.215 81.7198 218.215 87.7229 218.118 94.307C225.47 99.1482 235.045 99.0514 242.3 93.9197C241.913 88.6912 241.72 83.8499 241.72 79.5897C235.723 77.169 227.501 73.4897 222.278 70.1977Z" fill="white"/>
<path d="M241.526 76.5882V67.874C238.141 70.2946 233.981 71.6502 229.822 71.6502C227.211 71.6502 224.599 71.1661 222.181 70.101C227.501 73.393 235.722 77.0724 241.526 79.5898C241.623 78.6215 241.526 77.5565 241.526 76.5882Z" fill="#565758"/>
<path d="M250.038 45.6043C249.071 41.1504 246.653 37.0838 243.267 34.0822C242.493 33.4044 241.526 33.0171 240.462 33.0171H217.828C217.828 38.7298 214.346 42.9901 209.703 45.6043C209.123 45.3138 208.446 45.1202 207.769 45.0234V36.1155C207.769 33.2108 210.187 30.7902 213.089 30.7902H214.636V27.4013C214.636 24.3997 216.764 21.9791 219.666 21.495C235.239 18.9776 236.206 24.0124 247.33 22.6569C249.071 22.1728 247.33 30.4997 247.33 30.4997C247.33 30.4997 253.52 33.4044 252.65 45.1202C251.682 45.0234 250.812 45.217 250.038 45.6043Z" fill="#565758"/>
<path d="M252.553 45.0233C257.583 45.4106 258.937 54.8994 249.651 56.4486C248.297 61.0962 245.492 65.066 241.526 67.8739C234.465 72.9088 225.083 72.9088 218.118 67.8739C214.152 65.066 211.347 60.9994 209.993 56.3518C200.224 54.7058 202.158 44.4424 207.769 44.9265C208.446 45.0233 209.123 45.1202 209.703 45.5075C214.346 42.99 217.828 38.7297 217.828 33.0171H240.462C241.526 33.0171 242.493 33.4044 243.267 34.0822C246.653 37.0837 249.071 41.1504 250.038 45.6043C250.812 45.1202 251.682 45.0233 252.553 45.0233Z" fill="white"/>
<path d="M318.811 363.189V368.127C318.811 369.386 317.747 370.451 316.489 370.451H259.42C258.163 370.451 257.099 369.386 257.099 368.127L257.196 363.189H318.811Z" fill="#565758"/>
<path d="M262.226 176.995C253.327 161.213 247.91 139.234 244.815 118.804C251.779 106.507 257.293 91.3055 257.389 81.623C260.775 82.5913 264.257 83.6564 267.932 84.6246L271.898 85.6897C279.927 87.9166 286.117 94.2102 288.148 102.343L298.788 145.14C301.013 154.048 300.336 163.44 296.854 171.96C291.921 184.063 284.666 200.911 279.733 206.43C281.861 203.332 282.635 199.362 281.764 195.682C279.733 183.87 265.901 172.251 262.226 176.995Z" fill="white"/>
<path d="M233.401 235.961L236.013 327.751H194.324L187.553 195.779H197.516V185.419C218.215 192.1 240.656 190.551 260.194 181.159C257.099 187.162 256.229 189.486 256.229 189.486C256.229 189.486 254.391 207.882 274.026 207.882L293.565 327.751H247.136L233.401 235.961Z" fill="white"/>
<path d="M292.114 334.626C292.888 334.529 293.565 335.013 293.758 335.691C294.242 338.111 295.499 340.338 297.337 341.984C297.627 342.275 297.918 342.565 298.305 342.759L303.238 346.632L316.102 356.702C317.843 358.057 318.907 360.187 318.907 362.414V363.189H257.292L257.776 341.016H282.828C284.376 336.949 288.729 335.303 292.114 334.626Z" fill="white"/>
<path d="M290.76 327.751L292.114 334.626C288.729 335.303 284.376 336.852 282.828 341.016H257.776L255.358 327.751H290.76Z" fill="white"/>
<path d="M281.861 195.779C282.732 199.459 281.958 203.428 279.83 206.527C278.185 208.366 276.348 208.173 274.316 206.72C275.961 202.557 278.476 198.781 281.861 195.779Z" fill="#565758"/>
<path d="M274.316 206.72C274.22 207.108 274.026 207.495 273.929 207.882C254.391 207.882 256.132 189.486 256.132 189.486C256.132 189.486 257.099 187.162 260.098 181.159C260.775 179.9 261.452 178.545 262.226 176.995C265.901 172.251 279.636 183.967 281.861 195.779C278.572 198.684 275.961 202.46 274.316 206.72Z" fill="white"/>
<path d="M216.281 121.321C217.345 111.736 217.828 102.537 218.022 94.4039C225.373 99.2451 234.949 99.1483 242.203 94.0166C242.687 101.569 243.557 110.089 244.912 118.804C247.91 139.234 253.327 161.213 262.322 176.995C261.549 178.544 260.775 179.9 260.194 181.159C240.656 190.551 218.215 192.1 197.516 185.419V181.836C208.929 163.246 213.959 141.364 216.281 121.321Z" fill="#33CC80"/>
<path d="M257.486 81.6232C257.389 91.3057 251.876 106.41 244.912 118.707C243.557 109.993 242.784 101.472 242.203 93.9199C241.72 87.3359 241.526 81.4296 241.526 76.5883V73.6836C247.136 75.7169 252.553 78.3312 257.486 81.6232Z" fill="white"/>
<path d="M236.787 363.189L236.883 368.127C236.883 369.386 235.819 370.451 234.562 370.451H177.493C176.236 370.451 175.172 369.386 175.172 368.127V363.189H236.787Z" fill="#565758"/>
<path d="M211.154 341.016H236.206L236.69 363.189H175.172V362.414C175.172 360.187 176.236 358.057 177.977 356.701L189.391 347.697L195.291 343.049L195.678 342.759C197.806 341.113 199.353 338.789 200.127 336.271C200.224 335.884 200.321 335.497 200.321 335.11V334.335C203.899 334.819 209.413 336.271 211.154 341.016Z" fill="white"/>
<path d="M235.916 327.751L236.206 341.016H211.154C209.413 336.272 203.803 334.819 200.417 334.432V327.751H235.916Z" fill="white"/>
<path d="M218.118 76.7818C218.118 81.7198 218.118 87.723 218.022 94.307C217.828 102.44 217.441 111.639 216.28 121.224C208.639 108.347 202.255 91.4023 202.158 81.0421C207.091 77.8468 212.508 75.3294 218.118 73.4897V76.7818Z" fill="white"/>
<path d="M192.582 146.98H167.434L173.044 104.474C174.108 96.5339 179.331 89.853 186.682 86.8515C192.099 84.7213 197.322 82.688 202.255 81.042C202.352 91.4022 208.736 108.347 216.377 121.224C214.056 141.267 209.026 163.149 197.516 181.74V146.98H192.582Z" fill="white"/>
<path d="M183.587 146.979L180.685 151.433C179.428 153.37 177.3 154.532 174.978 154.532H166.563C164.242 154.532 162.114 153.37 160.856 151.433L157.954 146.979H183.587Z" fill="white"/>
<path d="M183.587 146.979L180.685 151.433C179.428 153.37 177.3 154.532 174.978 154.532H166.563C164.242 154.532 162.114 153.37 160.856 151.433L157.954 146.979H183.587Z" fill="#565758"/>
<path d="M153.118 175.156C154.666 176.124 155.246 178.254 154.182 179.803C153.698 180.578 152.925 181.159 152.054 181.352C151.861 181.449 151.57 181.449 151.377 181.449C150.797 181.449 150.12 181.256 149.636 180.965C146.831 179.222 143.832 177.77 140.834 176.511C140.64 176.414 140.544 176.318 140.35 176.318C138.899 175.446 138.416 173.606 138.996 172.057C139.77 169.346 141.704 167.022 144.316 165.764V170.702C147.314 171.864 150.216 173.413 153.118 175.156Z" fill="white"/>
<path d="M152.054 181.353C153.312 182.708 153.118 184.838 151.764 186.097C151.474 186.387 151.184 186.581 150.797 186.678C150.41 186.872 149.926 186.968 149.442 186.968C148.862 186.968 148.282 186.872 147.798 186.581C145.38 185.226 142.962 184.064 140.447 182.999L139.673 182.708C137.932 182.03 136.965 180.094 137.642 178.351C138.029 177.189 138.996 176.414 140.253 176.124C140.35 176.221 140.544 176.318 140.737 176.318C143.832 177.576 146.734 179.126 149.539 180.772C150.023 181.062 150.7 181.256 151.28 181.256C151.57 181.449 151.764 181.353 152.054 181.353Z" fill="white"/>
<path d="M144.219 191.228C142.768 190.744 140.834 190.163 138.996 189.679C137.255 189.098 136.191 187.259 136.771 185.419C137.255 183.773 138.803 182.805 140.544 183.095C143.059 184.16 145.573 185.322 147.895 186.678C148.378 186.968 148.959 187.065 149.539 187.065C150.023 187.065 150.41 186.968 150.893 186.774C152.054 188.227 151.861 190.357 150.41 191.519C149.539 192.293 148.282 192.487 147.218 192.1C147.121 192.1 145.96 191.713 144.219 191.228Z" fill="white"/>
<path d="M147.121 192.1C148.862 192.681 150.797 191.712 151.377 189.873C151.764 188.808 151.474 187.549 150.797 186.678C152.538 186 153.312 183.966 152.634 182.224C152.538 181.836 152.248 181.546 152.054 181.255C153.892 180.868 155.053 179.028 154.666 177.189C154.472 176.317 153.892 175.543 153.118 175.059C150.313 173.316 147.314 171.767 144.219 170.508V146.979H158.051L160.953 151.433C162.21 153.37 164.338 154.532 166.66 154.532H175.075C177.396 154.532 179.524 153.37 180.782 151.433L183.684 146.979H197.516V195.779H144.316V191.131C145.96 191.712 147.121 192.1 147.121 192.1Z" fill="white"/>
<path d="M187.456 195.779L194.227 327.751H236.013L233.401 235.961L233.014 224.149C237.657 222.987 239.495 217.952 239.495 197.232" stroke="#565758" stroke-width="1.5" stroke-linecap="round" stroke-linejoin="round"/>
<path d="M207.769 45.0232C208.446 45.12 209.123 45.2168 209.703 45.6041C214.346 43.0867 217.828 38.8264 217.828 33.1138H240.462C241.526 33.1138 242.493 33.5011 243.267 34.1788C246.653 37.1804 249.071 41.247 250.038 45.701C250.812 45.3137 251.779 45.12 252.65 45.12C257.679 45.5073 259.034 54.9961 249.748 56.5453C248.394 61.1929 245.589 65.1627 241.623 67.9706C234.562 73.0055 225.179 73.0055 218.215 67.9706C214.249 65.1627 211.444 61.0961 210.09 56.4485C200.321 54.8025 202.158 44.6359 207.769 45.0232Z" stroke="#565758" stroke-width="1.5" stroke-linecap="round" stroke-linejoin="round"/>
<path d="M207.769 45.0234V36.1155C207.769 33.2108 210.187 30.7902 213.089 30.7902H214.636V27.4013C214.636 24.3997 216.764 21.9791 219.666 21.495C235.239 18.9776 236.206 24.0124 247.33 22.6569C249.071 22.1728 247.33 30.4997 247.33 30.4997C247.33 30.4997 253.52 33.4044 252.65 45.1202" stroke="#565758" stroke-width="1.5" stroke-linecap="round" stroke-linejoin="round"/>
<path d="M205.544 48.606C206.608 47.7346 209.51 48.0251 209.703 50.5425" stroke="#565758" stroke-width="1.5" stroke-linecap="round" stroke-linejoin="round"/>
<path d="M254.101 48.606C253.037 47.7346 250.135 48.0251 249.941 50.5425" stroke="#565758" stroke-width="1.5" stroke-linecap="round" stroke-linejoin="round"/>
<path d="M230.886 44.249C230.886 48.0252 233.691 54.6093 227.984 54.6093" stroke="#565758" stroke-width="1.5" stroke-linecap="round" stroke-linejoin="round"/>
<path d="M223.438 47.3472V48.6059" stroke="#565758" stroke-width="2.5" stroke-linecap="round" stroke-linejoin="round"/>
<path d="M237.56 47.3472V48.6059" stroke="#565758" stroke-width="2.5" stroke-linecap="round" stroke-linejoin="round"/>
<path d="M219.279 44.0549C220.73 42.6994 223.825 42.3121 225.179 42.5057" stroke="#565758" stroke-width="1.5" stroke-linecap="round" stroke-linejoin="round"/>
<path d="M241.623 44.0549C240.172 42.6994 237.077 42.3121 235.723 42.5057" stroke="#565758" stroke-width="1.5" stroke-linecap="round" stroke-linejoin="round"/>
<path d="M218.022 94.4039C225.373 99.2451 234.949 99.1483 242.203 94.0166" stroke="#565758" stroke-width="1.5" stroke-linecap="round" stroke-linejoin="round"/>
<path d="M167.337 146.98L172.947 104.474C174.011 96.5339 179.234 89.853 186.585 86.8515C192.002 84.7213 197.225 82.688 202.158 81.042" stroke="#565758" stroke-width="1.5" stroke-linecap="round" stroke-linejoin="round"/>
<path d="M257.486 81.623C260.871 82.5913 264.354 83.6564 268.029 84.6246L271.995 85.6897C280.023 87.9166 286.214 94.2102 288.245 102.343L298.885 145.14C301.11 154.048 300.432 163.44 296.95 171.96C292.017 184.063 284.763 200.911 279.83 206.43C278.185 208.27 276.348 208.076 274.316 206.624" stroke="#565758" stroke-width="1.5" stroke-linecap="round" stroke-linejoin="round"/>
<path d="M273.929 207.882L293.468 327.751H290.76H255.358H247.039L233.401 235.961" stroke="#565758" stroke-width="1.5" stroke-linecap="round" stroke-linejoin="round"/>
<path d="M218.118 67.9707V76.7817C218.118 81.7198 218.118 87.7229 218.022 94.307C217.828 102.44 217.441 111.639 216.28 121.224C213.959 141.267 208.929 163.149 197.419 181.74" stroke="#565758" stroke-width="1.5" stroke-linecap="round" stroke-linejoin="round"/>
<path d="M216.28 121.321C208.639 108.443 202.255 91.499 202.158 81.1387C207.091 77.9435 212.508 75.4261 218.118 73.5864" stroke="#565758" stroke-width="1.5" stroke-linecap="round" stroke-linejoin="round"/>
<path d="M241.526 73.7803C247.136 75.8136 252.456 78.4279 257.486 81.6231C257.389 91.3055 251.876 106.41 244.912 118.707" stroke="#565758" stroke-width="1.5" stroke-linecap="round" stroke-linejoin="round"/>
<path d="M225.663 59.1596C228.178 61.4834 232.047 61.3866 234.368 58.8691" stroke="#565758" stroke-width="1.2" stroke-linecap="round" stroke-linejoin="round"/>
<path d="M279.83 206.527C281.958 203.331 282.732 199.458 281.861 195.779C279.636 183.967 265.901 172.251 262.226 176.995C253.327 161.213 247.91 139.234 244.815 118.804C243.461 110.089 242.687 101.569 242.106 94.0165C241.623 87.4324 241.429 81.5261 241.429 76.6849V67.9707" stroke="#565758" stroke-width="1.5" stroke-linecap="round" stroke-linejoin="round"/>
<path d="M281.861 195.779C278.476 198.781 275.864 202.557 274.22 206.72C274.123 207.108 273.93 207.495 273.833 207.882C254.294 207.882 256.035 189.486 256.035 189.486C256.035 189.486 257.002 187.162 260.001 181.159C260.678 179.9 261.355 178.544 262.129 176.995L276.348 150.272L269.287 120.159" stroke="#565758" stroke-width="1.2" stroke-linecap="round" stroke-linejoin="round"/>
<path d="M197.419 185.419C218.118 192.1 240.559 190.551 260.098 181.159" stroke="#565758" stroke-width="1.2" stroke-linecap="round" stroke-linejoin="round"/>
<path d="M193.937 122.677L192.582 146.98" stroke="#565758" stroke-width="1.2" stroke-linecap="round" stroke-linejoin="round"/>
<path d="M158.051 146.979L160.953 151.433C162.21 153.37 164.338 154.532 166.66 154.532H175.075C177.396 154.532 179.524 153.37 180.782 151.433L183.684 146.979" stroke="#565758" stroke-width="1.2" stroke-linecap="round" stroke-linejoin="round"/>
<path d="M152.054 181.353C153.312 182.708 153.118 184.838 151.764 186.097C151.474 186.387 151.184 186.581 150.797 186.678C150.41 186.872 149.926 186.968 149.442 186.968C148.862 186.968 148.282 186.872 147.798 186.581C145.38 185.226 142.962 184.064 140.447 182.999L139.673 182.708C137.932 182.03 136.965 180.094 137.642 178.351C138.029 177.189 138.996 176.414 140.253 176.124" stroke="#565758" stroke-width="1.5" stroke-linecap="round" stroke-linejoin="round"/>
<path d="M150.797 186.678C151.957 188.13 151.764 190.26 150.313 191.422C149.442 192.197 148.185 192.391 147.121 192.003C147.121 192.003 145.96 191.616 144.219 191.035C142.768 190.551 140.834 189.97 138.996 189.486C137.255 188.905 136.191 187.065 136.771 185.226C137.255 183.58 138.803 182.611 140.544 182.902" stroke="#565758" stroke-width="1.5" stroke-linecap="round" stroke-linejoin="round"/>
<path d="M144.219 191.131V195.779H197.419V146.979H144.219V170.508C147.314 171.767 150.216 173.316 153.118 175.059C154.666 176.027 155.246 178.157 154.182 179.706C153.698 180.481 152.925 181.062 152.054 181.255C151.861 181.352 151.57 181.352 151.377 181.352C150.797 181.352 150.12 181.159 149.636 180.868C146.831 179.125 143.832 177.673 140.834 176.414C140.64 176.317 140.544 176.221 140.35 176.221C138.899 175.349 138.416 173.509 138.996 171.96C139.77 169.249 141.704 166.925 144.316 165.667" stroke="#565758" stroke-width="1.5" stroke-linecap="round" stroke-linejoin="round"/>
<path d="M235.916 327.751L236.206 341.016L236.69 363.189L236.786 368.127C236.786 369.386 235.722 370.451 234.465 370.451H177.396C176.139 370.451 175.075 369.386 175.075 368.127V362.511C175.075 360.284 176.139 358.154 177.88 356.798L189.294 347.794L195.194 343.146L195.581 342.856C197.709 341.21 199.257 338.886 200.03 336.368C200.127 335.981 200.224 335.594 200.224 335.206V327.751" stroke="#565758" stroke-width="1.5" stroke-linecap="round" stroke-linejoin="round"/>
<path d="M211.154 341.016C211.541 342.081 211.734 343.146 211.638 344.211" stroke="#565758" stroke-width="1.5" stroke-linecap="round" stroke-linejoin="round"/>
<path d="M200.417 334.432C203.803 334.916 209.413 336.272 211.154 341.016" stroke="#565758" stroke-width="1.5" stroke-linecap="round" stroke-linejoin="round"/>
<path d="M297.337 341.984C295.499 340.338 294.242 338.111 293.758 335.691C293.662 334.916 292.985 334.432 292.211 334.626H292.114C288.729 335.303 284.376 336.853 282.828 341.016C282.441 342.081 282.248 343.146 282.345 344.211" stroke="#565758" stroke-width="1.5" stroke-linecap="round" stroke-linejoin="round"/>
<path d="M255.358 327.751L257.776 341.016L257.293 363.189L257.196 368.127C257.196 369.386 258.26 370.451 259.517 370.451H316.586C317.843 370.451 318.907 369.386 318.907 368.127V362.511C318.907 360.284 317.843 358.154 316.102 356.798L303.141 346.632L298.208 342.759C297.821 342.468 297.531 342.275 297.241 341.984" stroke="#565758" stroke-width="1.5" stroke-linecap="round" stroke-linejoin="round"/>
<path d="M211.154 341.016H236.303" stroke="#565758" stroke-width="1.5" stroke-linecap="round" stroke-linejoin="round"/>
<path d="M282.828 341.016H257.776" stroke="#565758" stroke-width="1.5" stroke-linecap="round" stroke-linejoin="round"/>
<path d="M292.114 334.626L290.76 327.751" stroke="#565758" stroke-width="1.5" stroke-linecap="round" stroke-linejoin="round"/>
<path d="M175.268 363.189H236.786" stroke="#565758" stroke-width="1.5" stroke-linecap="round" stroke-linejoin="round"/>
<path d="M257.196 363.189H318.811" stroke="#565758" stroke-width="1.5" stroke-linecap="round" stroke-linejoin="round"/>
<path d="M289.986 348.375C291.34 346.051 294.629 343.63 297.241 341.984" stroke="#565758" stroke-width="1.5" stroke-linecap="round" stroke-linejoin="round"/>
<path d="M200.998 348.375C199.934 346.535 197.612 344.599 195.388 343.146" stroke="#565758" stroke-width="1.5" stroke-linecap="round" stroke-linejoin="round"/>
<path d="M296.37 352.732C297.627 350.601 300.626 348.375 303.141 346.729" stroke="#565758" stroke-width="1.5" stroke-linecap="round" stroke-linejoin="round"/>
<path d="M194.614 352.732C193.26 350.795 191.518 349.149 189.487 347.794" stroke="#565758" stroke-width="1.5" stroke-linecap="round" stroke-linejoin="round"/>
<path fill-rule="evenodd" clip-rule="evenodd" d="M229.65 115.91L224.267 117.773C223.927 117.89 223.7 118.205 223.7 118.558V124.809L222.51 125.319C222.08 125.504 221.883 125.995 222.071 126.417C222.259 126.838 222.761 127.031 223.191 126.846L224.462 126.301L230.138 128.92C230.367 129.026 230.633 129.026 230.862 128.92L236.538 126.301L237.809 126.846C238.239 127.031 238.74 126.838 238.929 126.417C239.117 125.995 238.92 125.504 238.49 125.319L237.3 124.809V118.558C237.3 118.205 237.073 117.89 236.733 117.773L231.35 115.91V114.833C231.35 114.373 230.969 114 230.5 114C230.031 114 229.65 114.373 229.65 114.833V115.91ZM230.5 120.18L226.793 118.666L230.217 117.481C230.4 117.418 230.6 117.418 230.783 117.481L234.207 118.666L230.5 120.18ZM231.35 121.638L235.6 119.902V124.892L231.35 126.853V121.638ZM229.65 121.638L225.4 119.902V124.892L229.65 126.853V121.638Z" fill="white"/>
</g>
<defs>
<clipPath id="clip0_447_3246">
<rect width="458" height="372" fill="white"/>
</clipPath>
</defs>
</svg>
