<svg width="330" height="200" viewBox="0 0 330 200" fill="none" xmlns="http://www.w3.org/2000/svg">
<path d="M297.404 150.171C298.959 150.171 300.204 148.926 300.204 147.371C300.204 145.816 298.959 144.572 297.404 144.572C295.849 144.572 294.605 145.816 294.605 147.371C294.605 148.926 295.849 150.171 297.404 150.171ZM307.544 150.171C309.099 150.171 310.343 148.926 310.343 147.371C310.343 145.816 309.099 144.572 307.544 144.572C305.989 144.572 304.745 145.816 304.745 147.371C304.745 148.926 305.989 150.171 307.544 150.171ZM317.683 165.474H307.544H297.404H287.825V132.815C287.825 130.513 287.887 128.149 287.949 125.909C288.198 117.325 288.385 109.922 285.15 106.563C285.088 106.5 285.025 106.438 284.963 106.376C283.968 98.04 276.876 91.5704 268.292 91.5704H259.397C250.128 91.5704 242.601 99.0976 242.601 108.367C242.601 113.717 245.09 118.507 249.008 121.555C249.008 122.986 248.946 124.416 248.884 125.723C248.822 128.024 248.76 130.451 248.76 132.815V165.474H220.456H205.154C201.297 165.474 198.124 162.301 198.124 158.444V65.0696C198.124 61.2127 201.235 58.04 205.154 58.04H322.535C326.392 58.04 329.565 61.2127 329.565 65.0696V158.444C329.565 162.301 326.454 165.474 322.535 165.474H317.683Z" fill="white"/>
<path d="M307.544 150.171C309.09 150.171 310.343 148.918 310.343 147.372C310.343 145.826 309.09 144.572 307.544 144.572C305.998 144.572 304.745 145.826 304.745 147.372C304.745 148.918 305.998 150.171 307.544 150.171Z" fill="white"/>
<path d="M297.404 150.171C298.95 150.171 300.204 148.918 300.204 147.372C300.204 145.826 298.95 144.572 297.404 144.572C295.858 144.572 294.605 145.826 294.605 147.372C294.605 148.918 295.858 150.171 297.404 150.171Z" fill="white"/>
<path d="M285.15 106.563C288.384 109.922 288.198 117.325 287.949 125.91C287.887 128.211 287.825 130.575 287.825 132.815V165.474V199.129H253.736V132.815C253.736 130.513 253.798 128.149 253.86 125.91C254.109 117.325 254.296 109.922 251.061 106.563C249.942 105.381 248.449 104.759 246.769 104.759H280.858C282.413 104.759 283.843 105.319 284.963 106.376C285.025 106.438 285.088 106.501 285.15 106.563Z" fill="white"/>
<path d="M284.963 106.376C283.844 105.318 282.413 104.758 280.858 104.758H246.769V109.735C247.142 109.735 247.329 109.86 247.516 109.984C248.884 111.415 249.071 116.454 249.008 121.555C245.09 118.507 242.601 113.717 242.601 108.367C242.601 99.0975 250.128 91.5703 259.397 91.5703H268.292C276.877 91.5703 283.968 98.04 284.963 106.376Z" fill="#404040"/>
<path d="M251.123 106.563C254.358 109.922 254.172 117.325 253.923 125.91C253.861 128.211 253.798 130.575 253.798 132.815V199.129H248.822V189.238V165.474V132.815C248.822 130.451 248.884 128.087 248.946 125.723C249.009 124.354 249.008 122.924 249.071 121.555C249.133 116.454 249.008 111.415 247.578 109.984C247.391 109.798 247.267 109.735 246.831 109.735V104.759C248.511 104.759 250.004 105.381 251.123 106.563Z" fill="#404040"/>
<path d="M248.76 189.238V199.129H152.839V189.238H177.099H248.76Z" fill="white"/>
<path d="M211.188 14.3082C211.188 13.064 210.192 12.1309 209.01 12.1309C207.829 12.1309 206.833 13.1262 206.833 14.3082C206.833 15.5523 207.829 16.4854 209.01 16.4854C210.192 16.4854 211.188 15.5523 211.188 14.3082ZM202.541 14.3082C202.541 13.064 201.546 12.1309 200.364 12.1309C199.182 12.1309 198.187 13.1262 198.187 14.3082C198.187 15.5523 199.182 16.4854 200.364 16.4854C201.546 16.4854 202.541 15.5523 202.541 14.3082ZM193.957 14.3082C193.957 13.064 192.961 12.1309 191.779 12.1309C190.535 12.1309 189.602 13.1262 189.602 14.3082C189.602 15.5523 190.598 16.4854 191.779 16.4854C192.961 16.5477 193.957 15.5523 193.957 14.3082Z" fill="white"/>
<path d="M208.948 12.1309C210.192 12.1309 211.125 13.1262 211.125 14.3082C211.125 15.5523 210.13 16.4854 208.948 16.4854C207.766 16.4854 206.771 15.4901 206.771 14.3082C206.771 13.1262 207.766 12.1309 208.948 12.1309Z" fill="#404040"/>
<path d="M205.154 165.475H220.456C219.025 167.403 217.222 169.145 215.169 170.576C204.407 177.916 189.167 174.433 183.071 161.929C183.071 161.929 180.645 156.828 177.161 149.425C169.51 133.188 156.509 105.692 151.222 94.4948C151.159 94.3081 151.035 94.1215 150.973 93.9349C149.729 91.3221 147.8 89.1449 145.436 87.5274C142.575 85.5368 139.838 82.8618 137.785 79.5026C138.532 78.7561 139.278 77.8851 139.9 77.0142L147.614 76.0189C147.676 76.0189 147.676 76.0189 147.676 76.0189L153.959 75.2102C157.318 74.7747 159.744 71.6643 159.308 68.305L153.15 22.3952C153.088 21.7109 152.777 21.0889 152.403 20.529C153.025 20.0313 153.71 19.7203 154.518 19.5336C157.069 19.0982 159.433 20.7156 159.993 23.2039L160.055 23.3284C162.045 32.5352 164.347 41.6176 167.208 50.5756C171.065 62.8307 183.009 84.4792 192.402 99.5337V158.445C192.402 162.302 195.512 165.475 199.431 165.475H205.154Z" fill="white"/>
<path d="M200.364 12.1309C201.608 12.1309 202.541 13.1262 202.541 14.3082C202.541 15.5523 201.546 16.4854 200.364 16.4854C199.182 16.4854 198.187 15.4901 198.187 14.3082C198.124 13.1262 199.12 12.1309 200.364 12.1309Z" fill="#404040"/>
<path d="M199.369 58.1025H205.154C201.297 58.1025 198.124 61.2752 198.124 65.1321V158.507C198.124 162.364 201.235 165.536 205.154 165.536H199.369C195.512 165.536 192.339 162.364 192.339 158.507V93.9346V65.0699C192.339 61.213 195.512 58.1025 199.369 58.1025Z" fill="#404040"/>
<path d="M191.717 12.1309C192.961 12.1309 193.894 13.1262 193.894 14.3082C193.894 15.5523 192.899 16.4854 191.717 16.4854C190.473 16.4854 189.54 15.4901 189.54 14.3082C189.54 13.1262 190.535 12.1309 191.717 12.1309Z" fill="#404040"/>
<path d="M177.099 149.487V189.238H152.839L109.544 195.459V199.191H55.8605C67.2441 197.014 75.0198 186.252 73.4024 174.681C73.4024 174.681 73.4024 174.681 73.4024 174.619C73.2158 173.064 66.5598 125.225 63.885 105.754C76.5127 99.5333 88.0829 94.9299 100.151 91.6328C100.151 107.496 130.88 107.62 130.88 91.6328C138.594 92.2549 145.063 93.3124 151.159 94.6188C156.447 105.692 169.448 133.25 177.099 149.487Z" fill="white"/>
<path d="M177.099 149.487V189.238H152.839L109.544 195.459V199.191H55.8605C67.2441 197.014 75.0198 186.252 73.4024 174.681C73.4024 174.681 73.4024 174.681 73.4024 174.619C73.2158 173.064 66.5598 125.225 63.885 105.754C76.5127 99.5333 88.0829 94.9299 100.151 91.6328C100.151 107.496 130.88 107.62 130.88 91.6328C138.594 92.2549 145.063 93.3124 151.159 94.6188C156.447 105.692 169.448 133.25 177.099 149.487Z" fill="white"/>
<path d="M163.911 157.014C163.911 157.014 163.974 157.014 163.911 157.014C165.404 156.205 165.964 154.401 165.28 152.908" stroke="#404040" stroke-miterlimit="10" stroke-linecap="round" stroke-linejoin="round"/>
<path d="M122.234 122.55C122.296 122.55 122.296 122.55 122.234 122.55C123.602 121.493 123.851 119.626 122.918 118.258" stroke="#404040" stroke-miterlimit="10" stroke-linecap="round" stroke-linejoin="round"/>
<path d="M144.939 161.244C144.939 161.306 144.939 161.306 144.939 161.244C143.943 162.675 144.254 164.541 145.561 165.537" stroke="#404040" stroke-miterlimit="10" stroke-linecap="round" stroke-linejoin="round"/>
<path d="M154.581 181.213C154.581 181.15 154.581 181.15 154.581 181.213C155.949 180.217 156.322 178.351 155.389 176.982" stroke="#404040" stroke-miterlimit="10" stroke-linecap="round" stroke-linejoin="round"/>
<path d="M118.812 135.365C120.119 136.485 121.985 136.422 123.167 135.303" stroke="#404040" stroke-miterlimit="10" stroke-linecap="round" stroke-linejoin="round"/>
<path d="M95.7341 98.2888C97.1649 97.3556 97.5381 95.4894 96.7294 94.0586" stroke="#404040" stroke-miterlimit="10" stroke-linecap="round" stroke-linejoin="round"/>
<path d="M98.0358 182.146C98.0358 182.146 98.0358 182.208 98.0358 182.146C99.6531 182.768 101.395 182.084 102.079 180.591" stroke="#404040" stroke-miterlimit="10" stroke-linecap="round" stroke-linejoin="round"/>
<path d="M106.558 151.353C106.558 151.353 106.558 151.415 106.558 151.353C107.18 152.97 108.922 153.716 110.477 153.219" stroke="#404040" stroke-miterlimit="10" stroke-linecap="round" stroke-linejoin="round"/>
<path d="M146.618 122.115C146.618 122.115 146.68 122.115 146.618 122.115C148.298 121.866 149.48 120.373 149.293 118.693" stroke="#404040" stroke-miterlimit="10" stroke-linecap="round" stroke-linejoin="round"/>
<path d="M174.3 179.844C174.3 179.782 174.3 179.782 174.3 179.844C174.175 178.165 172.807 176.858 171.127 176.858" stroke="#404040" stroke-miterlimit="10" stroke-linecap="round" stroke-linejoin="round"/>
<path d="M85.5947 142.083C84.6616 143.514 85.097 145.38 86.4033 146.313" stroke="#404040" stroke-miterlimit="10" stroke-linecap="round" stroke-linejoin="round"/>
<path d="M168.639 166.656C168.639 168.398 169.883 169.767 171.563 169.891" stroke="#404040" stroke-miterlimit="10" stroke-linecap="round" stroke-linejoin="round"/>
<path d="M112.592 126.096C112.592 126.096 112.592 126.158 112.592 126.096C113.276 127.651 115.018 128.397 116.573 127.775" stroke="#404040" stroke-miterlimit="10" stroke-linecap="round" stroke-linejoin="round"/>
<path d="M112.405 117.449C112.343 117.449 112.343 117.386 112.405 117.449C111.037 116.453 109.108 116.702 108.113 118.008" stroke="#404040" stroke-miterlimit="10" stroke-linecap="round" stroke-linejoin="round"/>
<path d="M151.47 158.756C151.47 158.818 151.532 158.818 151.47 158.756C152.714 159.875 154.643 159.875 155.825 158.693" stroke="#404040" stroke-miterlimit="10" stroke-linecap="round" stroke-linejoin="round"/>
<path d="M135.608 158.133C136.168 156.516 135.359 154.774 133.804 154.214" stroke="#404040" stroke-miterlimit="10" stroke-linecap="round" stroke-linejoin="round"/>
<path d="M122.482 111.29C122.482 111.29 122.482 111.228 122.482 111.29C123.167 109.735 122.482 107.931 121.052 107.185" stroke="#404040" stroke-miterlimit="10" stroke-linecap="round" stroke-linejoin="round"/>
<path d="M76.8237 152.285C76.8237 152.285 76.8859 152.223 76.8237 152.285C77.8812 150.917 77.7568 149.05 76.5127 147.931" stroke="#404040" stroke-miterlimit="10" stroke-linecap="round" stroke-linejoin="round"/>
<path d="M69.9189 131.197C70.852 129.766 70.5409 127.9 69.2346 126.904" stroke="#404040" stroke-miterlimit="10" stroke-linecap="round" stroke-linejoin="round"/>
<path d="M90.5711 182.955C91.0687 181.337 90.1978 179.658 88.6427 179.098" stroke="#404040" stroke-miterlimit="10" stroke-linecap="round" stroke-linejoin="round"/>
<path d="M155.887 136.298C155.825 136.298 155.825 136.298 155.887 136.298C154.207 136.609 153.15 138.164 153.336 139.844" stroke="#404040" stroke-miterlimit="10" stroke-linecap="round" stroke-linejoin="round"/>
<path d="M164.16 178.973C164.844 177.418 164.16 175.614 162.729 174.867" stroke="#404040" stroke-miterlimit="10" stroke-linecap="round" stroke-linejoin="round"/>
<path d="M70.7275 112.534C70.8519 114.214 72.2205 115.52 73.9 115.52" stroke="#404040" stroke-miterlimit="10" stroke-linecap="round" stroke-linejoin="round"/>
<path d="M159.495 144.945C159.433 144.945 159.433 144.945 159.495 144.945C157.753 144.821 156.322 146.065 156.136 147.744" stroke="#404040" stroke-miterlimit="10" stroke-linecap="round" stroke-linejoin="round"/>
<path d="M120.865 173.748C120.865 173.748 120.803 173.685 120.865 173.748C119.434 172.752 117.568 173.063 116.573 174.307" stroke="#404040" stroke-miterlimit="10" stroke-linecap="round" stroke-linejoin="round"/>
<path d="M94.2413 104.137C92.9972 105.319 92.9972 107.247 94.0547 108.491" stroke="#404040" stroke-miterlimit="10" stroke-linecap="round" stroke-linejoin="round"/>
<path d="M159.246 118.382C158.126 117.076 156.26 116.827 154.954 117.823" stroke="#404040" stroke-miterlimit="10" stroke-linecap="round" stroke-linejoin="round"/>
<path d="M139.216 119.378C139.216 119.315 139.278 119.315 139.216 119.378C140.584 118.382 140.958 116.516 140.024 115.147" stroke="#404040" stroke-miterlimit="10" stroke-linecap="round" stroke-linejoin="round"/>
<path d="M168.95 185.754C167.644 184.634 165.777 184.759 164.596 185.941" stroke="#404040" stroke-miterlimit="10" stroke-linecap="round" stroke-linejoin="round"/>
<path d="M140.087 168.459C138.656 167.464 136.79 167.775 135.794 169.019" stroke="#404040" stroke-miterlimit="10" stroke-linecap="round" stroke-linejoin="round"/>
<path d="M105.749 164.479C106.558 165.972 108.362 166.594 109.855 165.909" stroke="#404040" stroke-miterlimit="10" stroke-linecap="round" stroke-linejoin="round"/>
<path d="M131.502 118.195C132.373 116.702 131.938 114.898 130.507 113.965" stroke="#404040" stroke-miterlimit="10" stroke-linecap="round" stroke-linejoin="round"/>
<path d="M145.001 187.993C145.001 187.993 145.063 187.993 145.001 187.993C146.68 187.869 147.987 186.5 147.987 184.82" stroke="#404040" stroke-miterlimit="10" stroke-linecap="round" stroke-linejoin="round"/>
<path d="M117.444 154.152C118.937 155.023 120.741 154.587 121.674 153.219" stroke="#404040" stroke-miterlimit="10" stroke-linecap="round" stroke-linejoin="round"/>
<path d="M74.8953 126.407C76.0772 125.163 76.0772 123.297 74.9575 122.053" stroke="#404040" stroke-miterlimit="10" stroke-linecap="round" stroke-linejoin="round"/>
<path d="M141.891 129.33C141.331 127.713 139.651 126.842 138.034 127.278" stroke="#404040" stroke-miterlimit="10" stroke-linecap="round" stroke-linejoin="round"/>
<path d="M128.019 189.735C126.464 189.051 124.66 189.673 123.913 191.166" stroke="#404040" stroke-miterlimit="10" stroke-linecap="round" stroke-linejoin="round"/>
<path d="M111.348 145.443C111.348 145.381 111.348 145.381 111.348 145.443C112.281 144.012 111.908 142.146 110.601 141.15" stroke="#404040" stroke-miterlimit="10" stroke-linecap="round" stroke-linejoin="round"/>
<path d="M71.9716 144.385C71.9716 144.323 71.9716 144.323 71.9716 144.385C73.0913 143.078 72.9047 141.15 71.7228 140.03" stroke="#404040" stroke-miterlimit="10" stroke-linecap="round" stroke-linejoin="round"/>
<path d="M153.585 168.087C151.906 168.398 150.786 169.891 150.973 171.571" stroke="#404040" stroke-miterlimit="10" stroke-linecap="round" stroke-linejoin="round"/>
<path d="M72.0961 192.846C72.0961 192.846 72.1583 192.846 72.0961 192.846C73.6512 193.53 75.4552 192.846 76.1394 191.353" stroke="#404040" stroke-miterlimit="10" stroke-linecap="round" stroke-linejoin="round"/>
<path d="M142.948 97.3555C144.13 98.5996 146.058 98.6618 147.303 97.5421" stroke="#404040" stroke-miterlimit="10" stroke-linecap="round" stroke-linejoin="round"/>
<path d="M171.811 154.961C171.811 154.961 171.874 154.961 171.811 154.961C173.429 154.401 174.3 152.721 173.864 151.166" stroke="#404040" stroke-miterlimit="10" stroke-linecap="round" stroke-linejoin="round"/>
<path d="M99.031 103.701C100.337 104.82 102.203 104.758 103.385 103.576" stroke="#404040" stroke-miterlimit="10" stroke-linecap="round" stroke-linejoin="round"/>
<path d="M88.3939 111.85C88.3939 111.788 88.3317 111.788 88.3939 111.85C86.8388 111.166 85.0348 111.85 84.3506 113.343" stroke="#404040" stroke-miterlimit="10" stroke-linecap="round" stroke-linejoin="round"/>
<path d="M134.737 94.2451C134.737 94.2451 134.737 94.3073 134.737 94.2451C133.306 95.1782 132.809 96.9823 133.617 98.4131" stroke="#404040" stroke-miterlimit="10" stroke-linecap="round" stroke-linejoin="round"/>
<path d="M119.497 145.816C119.559 145.816 119.559 145.816 119.497 145.816C121.176 146.251 122.793 145.318 123.291 143.763" stroke="#404040" stroke-miterlimit="10" stroke-linecap="round" stroke-linejoin="round"/>
<path d="M148.733 152.908C149.169 151.228 148.173 149.611 146.618 149.113" stroke="#404040" stroke-miterlimit="10" stroke-linecap="round" stroke-linejoin="round"/>
<path d="M110.974 110.606C112.343 109.548 112.592 107.682 111.659 106.313" stroke="#404040" stroke-miterlimit="10" stroke-linecap="round" stroke-linejoin="round"/>
<path d="M125.406 179.098C125.406 179.098 125.344 179.098 125.406 179.098C124.784 180.715 125.593 182.457 127.086 183.079" stroke="#404040" stroke-miterlimit="10" stroke-linecap="round" stroke-linejoin="round"/>
<path d="M128.703 168.895C128.703 168.895 128.703 168.833 128.703 168.895C129.574 167.402 129.139 165.598 127.77 164.665" stroke="#404040" stroke-miterlimit="10" stroke-linecap="round" stroke-linejoin="round"/>
<path d="M147.614 135.801C146.743 134.308 144.939 133.81 143.446 134.494" stroke="#404040" stroke-miterlimit="10" stroke-linecap="round" stroke-linejoin="round"/>
<path d="M93.7435 128.149C93.7435 128.149 93.7435 128.211 93.7435 128.149C95.4853 128.211 96.8538 126.967 97.0404 125.35" stroke="#404040" stroke-miterlimit="10" stroke-linecap="round" stroke-linejoin="round"/>
<path d="M84.1017 118.631C84.4127 120.31 85.9679 121.43 87.5852 121.244" stroke="#404040" stroke-miterlimit="10" stroke-linecap="round" stroke-linejoin="round"/>
<path d="M96.4807 193.779C95.1121 192.721 93.246 192.97 92.1885 194.214" stroke="#404040" stroke-miterlimit="10" stroke-linecap="round" stroke-linejoin="round"/>
<path d="M169.323 143.701C167.706 144.199 166.711 145.816 167.084 147.434" stroke="#404040" stroke-miterlimit="10" stroke-linecap="round" stroke-linejoin="round"/>
<path d="M159.868 166.034C161.547 165.723 162.605 164.168 162.418 162.488" stroke="#404040" stroke-miterlimit="10" stroke-linecap="round" stroke-linejoin="round"/>
<path d="M137.225 181.835C137.225 181.772 137.163 181.772 137.225 181.835C136.79 180.155 135.235 179.16 133.617 179.471" stroke="#404040" stroke-miterlimit="10" stroke-linecap="round" stroke-linejoin="round"/>
<path d="M93.6192 173.81C93.8058 172.13 92.6239 170.637 91.0066 170.326" stroke="#404040" stroke-miterlimit="10" stroke-linecap="round" stroke-linejoin="round"/>
<path d="M131.627 149.113C131.627 149.05 131.627 149.05 131.627 149.113C131.129 147.495 129.449 146.562 127.832 146.997" stroke="#404040" stroke-miterlimit="10" stroke-linecap="round" stroke-linejoin="round"/>
<path d="M162.107 133.499C162.107 133.499 162.107 133.561 162.107 133.499C163.414 134.619 165.342 134.432 166.462 133.25" stroke="#404040" stroke-miterlimit="10" stroke-linecap="round" stroke-linejoin="round"/>
<path d="M92.6239 150.108C92.6239 151.85 93.9302 153.157 95.6098 153.281" stroke="#404040" stroke-miterlimit="10" stroke-linecap="round" stroke-linejoin="round"/>
<path d="M96.9783 117.884C98.72 117.947 100.089 116.702 100.275 115.085" stroke="#404040" stroke-miterlimit="10" stroke-linecap="round" stroke-linejoin="round"/>
<path d="M174.175 160.373C174.113 160.373 174.113 160.373 174.175 160.373C172.869 161.493 172.682 163.359 173.678 164.665" stroke="#404040" stroke-miterlimit="10" stroke-linecap="round" stroke-linejoin="round"/>
<path d="M78.752 176.36C78.752 176.36 78.752 176.423 78.752 176.36C78.0678 177.916 78.6898 179.72 80.1205 180.466" stroke="#404040" stroke-miterlimit="10" stroke-linecap="round" stroke-linejoin="round"/>
<path d="M96.6672 163.11C96.6672 163.11 96.6672 163.173 96.6672 163.11C95.4853 164.355 95.4231 166.221 96.5428 167.465" stroke="#404040" stroke-miterlimit="10" stroke-linecap="round" stroke-linejoin="round"/>
<path d="M143.197 180.031C144.939 179.968 146.245 178.6 146.307 176.982" stroke="#404040" stroke-miterlimit="10" stroke-linecap="round" stroke-linejoin="round"/>
<path d="M105.749 176.049C105.749 176.049 105.811 176.049 105.749 176.049C107.429 176.484 109.046 175.551 109.606 173.996" stroke="#404040" stroke-miterlimit="10" stroke-linecap="round" stroke-linejoin="round"/>
<path d="M131.191 137.854C131.191 137.854 131.253 137.854 131.191 137.854C132.373 139.098 134.302 139.16 135.546 138.04" stroke="#404040" stroke-miterlimit="10" stroke-linecap="round" stroke-linejoin="round"/>
<path d="M142.886 143.887C142.824 143.825 142.824 143.825 142.886 143.887C141.206 143.452 139.589 144.323 139.029 145.878" stroke="#404040" stroke-miterlimit="10" stroke-linecap="round" stroke-linejoin="round"/>
<path d="M74.771 168.459C74.771 168.397 74.771 168.397 74.771 168.459C75.7662 167.091 75.5796 165.225 74.2733 164.167" stroke="#404040" stroke-miterlimit="10" stroke-linecap="round" stroke-linejoin="round"/>
<path d="M81.4269 167.775C82.2356 169.268 84.1017 169.828 85.5324 169.082" stroke="#404040" stroke-miterlimit="10" stroke-linecap="round" stroke-linejoin="round"/>
<path d="M152.59 103.701C152.03 105.319 152.839 107.06 154.332 107.683" stroke="#404040" stroke-miterlimit="10" stroke-linecap="round" stroke-linejoin="round"/>
<path d="M120.554 165.536C121.052 163.919 120.243 162.177 118.688 161.617" stroke="#404040" stroke-miterlimit="10" stroke-linecap="round" stroke-linejoin="round"/>
<path d="M136.479 102.83C134.799 103.141 133.679 104.634 133.866 106.252" stroke="#404040" stroke-miterlimit="10" stroke-linecap="round" stroke-linejoin="round"/>
<path d="M92.6239 138.288C92.6861 138.226 92.6861 138.226 92.6239 138.288C94.1168 137.48 94.7389 135.738 94.1168 134.183" stroke="#404040" stroke-miterlimit="10" stroke-linecap="round" stroke-linejoin="round"/>
<path d="M97.476 143.203C98.9067 144.074 100.773 143.701 101.706 142.332" stroke="#404040" stroke-miterlimit="10" stroke-linecap="round" stroke-linejoin="round"/>
<path d="M106.185 189.673C104.692 190.544 104.194 192.348 104.941 193.841" stroke="#404040" stroke-miterlimit="10" stroke-linecap="round" stroke-linejoin="round"/>
<path d="M84.8482 128.397C83.8529 129.766 84.0395 131.632 85.3458 132.69" stroke="#404040" stroke-miterlimit="10" stroke-linecap="round" stroke-linejoin="round"/>
<path d="M153.71 129.019C155.265 128.273 155.949 126.531 155.389 125.038" stroke="#404040" stroke-miterlimit="10" stroke-linecap="round" stroke-linejoin="round"/>
<path d="M86.9632 190.42C85.2837 190.295 83.7907 191.539 83.6041 193.157" stroke="#404040" stroke-miterlimit="10" stroke-linecap="round" stroke-linejoin="round"/>
<path d="M106.123 133.685C106.745 132.068 106.06 130.326 104.567 129.642" stroke="#404040" stroke-miterlimit="10" stroke-linecap="round" stroke-linejoin="round"/>
<path d="M73.4024 104.074C73.1536 105.754 74.2111 107.309 75.8284 107.682" stroke="#404040" stroke-miterlimit="10" stroke-linecap="round" stroke-linejoin="round"/>
<path d="M148.049 110.979C147.987 110.917 147.987 110.917 148.049 110.979C147.676 109.3 146.058 108.242 144.441 108.553" stroke="#404040" stroke-miterlimit="10" stroke-linecap="round" stroke-linejoin="round"/>
<path d="M78.5032 136.858C78.0677 135.178 76.5126 134.183 74.8953 134.494" stroke="#404040" stroke-miterlimit="10" stroke-linecap="round" stroke-linejoin="round"/>
<path d="M83.2931 100.155C83.2931 100.155 83.2931 100.217 83.2931 100.155C83.2931 101.897 84.6616 103.203 86.279 103.266" stroke="#404040" stroke-miterlimit="10" stroke-linecap="round" stroke-linejoin="round"/>
<path d="M128.765 130.388C128.765 130.388 128.827 130.388 128.765 130.388C130.445 130.201 131.689 128.77 131.627 127.091" stroke="#404040" stroke-miterlimit="10" stroke-linecap="round" stroke-linejoin="round"/>
<path d="M84.5371 159.626C84.5371 159.564 84.5371 159.564 84.5371 159.626C83.3552 158.382 81.4891 158.32 80.1827 159.377" stroke="#404040" stroke-miterlimit="10" stroke-linecap="round" stroke-linejoin="round"/>
<path d="M112.343 186.749C112.343 186.749 112.405 186.749 112.343 186.749C114.023 186.874 115.515 185.692 115.764 184.074" stroke="#404040" stroke-miterlimit="10" stroke-linecap="round" stroke-linejoin="round"/>
<path d="M99.7775 157.2C101.022 158.382 102.888 158.382 104.132 157.262" stroke="#404040" stroke-miterlimit="10" stroke-linecap="round" stroke-linejoin="round"/>
<path d="M159.246 68.3668C159.681 71.726 157.318 74.8365 153.896 75.2719L147.614 76.0806C150.973 75.583 153.212 72.3481 152.777 68.9889L147.925 32.0993C149.915 28.0558 150.786 23.7012 151.284 19.5332C151.719 19.782 152.092 20.1553 152.466 20.5285C152.839 21.0262 153.15 21.7105 153.212 22.3948L159.246 68.3668Z" fill="white"/>
<path d="M152.839 189.238V199.129H109.544V195.459L152.839 189.238Z" fill="#404040"/>
<path d="M144.752 47.0918C144.628 44.2925 143.881 41.6797 142.762 39.3158C145.001 37.1385 146.68 34.6502 147.925 32.0996L152.777 68.9892C153.212 72.3484 150.973 75.6455 147.614 76.0809C147.551 76.0809 147.551 76.0809 147.551 76.0809L139.838 77.0763C142.948 72.9705 144.814 67.8072 144.814 62.3329V48.3982C144.814 47.9628 144.752 47.5273 144.752 47.0918Z" fill="white"/>
<path d="M144.752 47.0918C144.628 44.2925 143.881 41.6797 142.762 39.3158C145.001 37.1385 146.68 34.6502 147.925 32.0996L152.777 68.9892C153.212 72.3484 150.973 75.6455 147.614 76.0809C147.551 76.0809 147.551 76.0809 147.551 76.0809L139.838 77.0763C142.948 72.9705 144.814 67.8072 144.814 62.3329V48.3982C144.814 47.9628 144.752 47.5273 144.752 47.0918Z" fill="white"/>
<path d="M139.838 77.1384C139.154 78.0093 138.469 78.818 137.723 79.6267C135.732 81.6174 133.493 83.2348 130.943 84.479C127.77 85.972 124.224 86.7807 120.492 86.7185C111.721 86.5319 104.194 81.6796 100.151 74.5257C98.2225 71.1042 97.1028 67.1228 97.1028 62.8927V59.6578V50.0777V43.9813C96.2319 43.1104 95.2988 42.3639 94.4901 41.804V31.2286C94.4901 28.7403 94.4279 27.5583 94.0547 25.1322C93.0594 18.5381 100.835 13.6236 106.496 17.8538C113.276 12.3172 111.348 13.8725 116.511 9.64229C118.564 7.96266 121.363 7.15395 123.976 7.71383C126.091 8.14929 128.019 9.39345 129.325 11.3219C131.316 10.3888 133.369 9.14462 134.861 7.5272C134.924 7.46499 134.924 7.46499 134.986 7.40278C140.647 0.870903 151.657 4.85224 151.657 13.6236C151.595 15.5521 151.47 17.4805 151.284 19.5334C150.848 23.7014 149.915 28.056 147.925 32.0995C146.681 34.6501 145.001 37.0762 142.762 39.3157C141.891 37.5117 140.833 35.832 139.527 34.339C138.158 32.7216 136.106 31.8507 133.991 31.8507H112.468C110.788 31.8507 109.295 32.7838 108.486 34.2768C107.367 36.2675 105.998 38.0715 104.319 39.6267C102.826 41.0575 101.955 43.0482 101.955 45.1011V57.9782C101.955 60.902 104.505 63.0793 107.429 62.7061C112.156 62.0218 117.071 61.7107 122.172 61.7107C122.794 61.7107 123.478 61.7107 124.1 61.7107C124.162 61.7107 124.162 61.7107 124.162 61.7107C128.828 61.7729 133.369 62.2084 137.661 62.8305C140.273 63.2037 142.699 61.3997 143.073 58.7869L144.752 47.154C144.814 47.5894 144.814 48.0249 144.814 48.4603V62.4572C144.814 67.8694 142.948 73.0326 139.838 77.1384Z" fill="#404040"/>
<path d="M124.162 61.6481C124.1 61.6481 124.1 61.6481 124.1 61.6481C123.478 61.6481 122.794 61.6481 122.172 61.6481C117.071 61.6481 112.094 62.0214 107.429 62.6434C104.567 63.0789 101.955 60.8394 101.955 57.9156V45.0385C101.955 42.9856 102.826 40.9949 104.319 39.5641C105.998 38.0089 107.367 36.2049 108.486 34.2142C109.295 32.7212 110.788 31.7881 112.468 31.7881H133.991C136.106 31.7881 138.158 32.659 139.527 34.2764C140.833 35.7694 141.891 37.449 142.762 39.2531C143.881 41.617 144.566 44.292 144.752 47.0291L143.073 58.7243C142.699 61.3371 140.273 63.1411 137.661 62.7679C133.306 62.0836 128.828 61.7103 124.162 61.6481ZM133.369 52.5035V50.4506C133.369 50.0151 133.182 49.6419 132.871 49.3309C132.56 49.0198 132.187 48.8332 131.751 48.8332C130.88 48.8332 130.134 49.5797 130.134 50.4506V52.5035C130.134 53.3744 130.818 54.1209 131.751 54.1209C132.622 54.1209 133.369 53.3744 133.369 52.5035ZM115.205 52.5035V50.1396C115.205 49.2686 114.52 48.5221 113.587 48.5221H113.401C112.53 48.5221 111.783 49.2064 111.783 50.1396V52.5035C111.783 53.3744 112.468 54.1209 113.401 54.1209H113.587C114.52 54.1209 115.205 53.3744 115.205 52.5035Z" fill="white"/>
<path d="M133.368 50.4514V52.5043C133.368 53.3752 132.684 54.1217 131.751 54.1217C130.88 54.1217 130.134 53.3752 130.134 52.5043V50.4514C130.134 49.5805 130.818 48.834 131.751 48.834C132.187 48.834 132.622 49.0206 132.871 49.3317C133.182 49.5805 133.368 50.0159 133.368 50.4514Z" fill="#404040"/>
<path d="M130.88 84.4172V91.5712C130.88 107.559 100.151 107.434 100.151 91.5712V74.4639C104.132 81.6178 111.721 86.4701 120.492 86.6567C124.224 86.7189 127.77 85.9102 130.88 84.4172Z" fill="white"/>
<path d="M115.205 50.1399V52.5038C115.205 53.3747 114.52 54.1212 113.587 54.1212H113.401C112.53 54.1212 111.783 53.3747 111.783 52.5038V50.1399C111.783 49.269 112.467 48.5225 113.401 48.5225H113.587C114.52 48.5225 115.205 49.269 115.205 50.1399Z" fill="#404040"/>
<path d="M97.1027 50.0775V59.5954C73.0292 59.7198 81.5514 33.5301 94.4901 41.8038C95.361 42.3636 96.2319 43.0479 97.1027 43.9811V50.0775Z" fill="white"/>
<path d="M55.8605 199.129C55.4873 199.191 55.114 199.253 54.6786 199.316C52.1904 199.627 49.7644 199.564 47.4628 199.129" fill="white"/>
<path d="M21.8341 70.3579C21.8341 70.4201 21.8963 70.5445 21.8963 70.6068C21.8341 70.4201 21.7719 70.2335 21.7097 70.0469L21.8341 70.3579Z" fill="white"/>
<path d="M205.154 165.474H199.369C195.512 165.474 192.339 162.301 192.339 158.444V93.9343V65.0696C192.339 61.2127 195.45 58.04 199.369 58.04H205.154" stroke="#404040" stroke-width="1.5" stroke-miterlimit="10" stroke-linecap="round" stroke-linejoin="round"/>
<path d="M248.76 199.129V189.238V165.474V132.815C248.76 130.451 248.822 128.087 248.884 125.723C248.946 124.354 248.946 122.924 249.009 121.555C249.071 116.454 248.946 111.415 247.516 109.984C247.329 109.798 247.205 109.735 246.769 109.735V104.759C248.449 104.759 249.942 105.381 251.061 106.563C254.296 109.922 254.109 117.325 253.861 125.91C253.798 128.211 253.736 130.575 253.736 132.815V199.129" stroke="#404040" stroke-width="1.5" stroke-miterlimit="10" stroke-linecap="round" stroke-linejoin="round"/>
<path d="M246.831 104.759H280.92C282.475 104.759 283.906 105.319 285.025 106.376C285.088 106.438 285.15 106.501 285.212 106.563C288.447 109.922 288.26 117.325 288.011 125.91C287.949 128.211 287.887 130.575 287.887 132.815V165.474V199.129" stroke="#404040" stroke-width="1.5" stroke-miterlimit="10" stroke-linecap="round" stroke-linejoin="round"/>
<path d="M284.963 106.376C283.968 98.04 276.877 91.5703 268.292 91.5703H259.397C250.128 91.5703 242.601 99.0975 242.601 108.367C242.601 113.717 245.09 118.507 249.008 121.555" stroke="#404040" stroke-width="1.5" stroke-miterlimit="10" stroke-linecap="round" stroke-linejoin="round"/>
<path d="M287.825 165.474H297.404H307.544H317.683H322.598C326.454 165.474 329.627 162.301 329.627 158.444V65.0696C329.627 61.2127 326.517 58.04 322.598 58.04H205.154C201.297 58.04 198.125 61.2127 198.125 65.0696V158.444C198.125 162.301 201.235 165.474 205.154 165.474H220.456H248.76" stroke="#404040" stroke-width="1.5" stroke-miterlimit="10" stroke-linecap="round" stroke-linejoin="round"/>
<path d="M11.8191 199.129H15.3026" stroke="#404040" stroke-width="1.5" stroke-miterlimit="10" stroke-linecap="round" stroke-linejoin="round"/>
<path d="M19.7192 199.129H47.4629C37.6344 197.201 29.7965 188.616 29.7343 177.481C29.7343 177.419 30.0453 122.302 30.1697 105.195C30.1697 102.769 29.6721 100.405 28.8012 98.1653C25.0689 89.2073 23.7004 75.7702 21.9586 70.6069C21.9586 70.5447 21.8964 70.4203 21.8964 70.3581L21.8342 70.0471L14.805 46.0968C14.1207 43.8573 15.427 41.4312 17.7286 40.8091C19.8436 40.187 22.0208 41.3068 22.8917 43.2352L22.9539 43.4841L31.2894 62.9553L21.5854 37.7609C20.7145 35.397 21.8964 32.7842 24.198 31.9133C26.4374 31.1046 28.9256 32.0999 29.9209 34.2772L29.9831 34.4639L38.5053 52.0688L32.969 36.89C32.0981 34.4017 33.3422 31.7267 35.8304 30.7936C38.1942 29.9226 40.8069 31.1046 41.8022 33.4063L41.8644 33.5929C46.281 46.0968 52.0661 58.5385 56.5449 68.6785C60.0906 63.0797 63.5119 58.4763 65.6891 55.6147C66.871 54.0595 68.986 53.4374 70.7899 54.2461C72.9671 55.2415 73.838 57.8542 72.7805 59.9693C70.3545 64.5727 66.3733 72.5976 65.8135 77.0144C65.3158 80.6847 64.445 87.03 63.7607 91.82C63.2008 95.9258 63.1386 100.156 63.7607 104.262C63.8229 104.697 63.8851 105.195 63.9473 105.692C66.6222 125.164 73.2781 173.064 73.4647 174.557V174.619C75.0821 186.19 67.2442 196.952 55.9228 199.129H109.606H152.901H248.822H253.798H287.887H297.467H307.606H305.305H314.822" stroke="#404040" stroke-width="1.5" stroke-miterlimit="10" stroke-linecap="round" stroke-linejoin="round"/>
<path d="M317.746 199.129H320.545" stroke="#404040" stroke-width="1.5" stroke-miterlimit="10" stroke-linecap="round" stroke-linejoin="round"/>
<path d="M297.404 150.171C298.95 150.171 300.204 148.918 300.204 147.372C300.204 145.826 298.95 144.572 297.404 144.572C295.858 144.572 294.605 145.826 294.605 147.372C294.605 148.918 295.858 150.171 297.404 150.171Z" stroke="#404040" stroke-width="1.5" stroke-miterlimit="10" stroke-linecap="round" stroke-linejoin="round"/>
<path d="M307.544 150.171C309.09 150.171 310.343 148.918 310.343 147.372C310.343 145.826 309.09 144.572 307.544 144.572C305.998 144.572 304.745 145.826 304.745 147.372C304.745 148.918 305.998 150.171 307.544 150.171Z" stroke="#404040" stroke-width="1.5" stroke-miterlimit="10" stroke-linecap="round" stroke-linejoin="round"/>
<path d="M297.404 147.372V150.171V165.475V199.129" stroke="#404040" stroke-width="1.5" stroke-miterlimit="10" stroke-linecap="round" stroke-linejoin="round"/>
<path d="M307.544 147.372V150.171V165.475V199.129" stroke="#404040" stroke-width="1.5" stroke-miterlimit="10" stroke-linecap="round" stroke-linejoin="round"/>
<path d="M199.369 29.7978L178.032 40.4355L187.985 29.7978H183.506C182.013 29.7978 180.831 28.6159 180.831 27.1229V2.67496C180.831 1.18196 182.013 0 183.506 0H216.662C218.155 0 219.337 1.18196 219.337 2.67496V27.0607C219.337 28.5537 218.155 29.7356 216.662 29.7356H199.369V29.7978Z" fill="#33CC80"/>
<path d="M193.957 14.3082C193.957 13.064 192.961 12.1309 191.779 12.1309C190.535 12.1309 189.602 13.1262 189.602 14.3082C189.602 15.5523 190.598 16.4854 191.779 16.4854C192.961 16.5477 193.957 15.5523 193.957 14.3082Z" stroke="white" stroke-width="1.5" stroke-miterlimit="10" stroke-linecap="round" stroke-linejoin="round"/>
<path d="M202.541 14.3082C202.541 13.064 201.546 12.1309 200.364 12.1309C199.182 12.1309 198.187 13.1262 198.187 14.3082C198.187 15.5523 199.182 16.4854 200.364 16.4854C201.546 16.4854 202.541 15.5523 202.541 14.3082Z" stroke="white" stroke-width="1.5" stroke-miterlimit="10" stroke-linecap="round" stroke-linejoin="round"/>
<path d="M211.188 14.3082C211.188 13.064 210.192 12.1309 209.01 12.1309C207.829 12.1309 206.833 13.1262 206.833 14.3082C206.833 15.5523 207.829 16.4854 209.01 16.4854C210.192 16.4854 211.188 15.5523 211.188 14.3082Z" stroke="white" stroke-width="1.5" stroke-miterlimit="10" stroke-linecap="round" stroke-linejoin="round"/>
<path d="M86.6522 46.221C88.394 45.4745 90.6956 45.2257 92.7484 45.7856C94.8011 46.3454 96.6051 47.714 97.1027 50.1402" stroke="#404040" stroke-width="1.5" stroke-miterlimit="10" stroke-linecap="round" stroke-linejoin="round"/>
<path d="M91.3176 49.9538C91.1932 48.212 91.9397 46.719 92.6861 45.7236" stroke="#404040" stroke-width="1.5" stroke-miterlimit="10" stroke-linecap="round" stroke-linejoin="round"/>
<path d="M100.151 74.4632C98.2224 71.0417 97.1027 67.0604 97.1027 62.8302V59.5954C73.0292 59.7198 81.5514 33.5301 94.4901 41.8038C95.361 42.3636 96.2319 43.0479 97.1027 43.9811V50.0775V59.5954" stroke="#404040" stroke-width="1.5" stroke-miterlimit="10" stroke-linecap="round" stroke-linejoin="round"/>
<path d="M124.038 61.6481C123.416 61.6481 122.731 61.6481 122.109 61.6481C117.009 61.6481 112.032 62.0214 107.367 62.6434C104.505 63.0789 101.893 60.8394 101.893 57.9156V45.0385C101.893 42.9856 102.763 40.9949 104.256 39.5641C105.936 38.0089 107.304 36.2049 108.424 34.2142C109.233 32.7212 110.726 31.7881 112.405 31.7881H133.928C136.043 31.7881 138.096 32.659 139.465 34.2764C140.771 35.7694 141.828 37.449 142.699 39.2531C143.819 41.617 144.503 44.292 144.69 47.0291C144.752 47.4646 144.752 47.9001 144.752 48.3355V62.3324C144.752 67.8067 142.886 72.97 139.776 77.0758C139.091 77.9467 138.407 78.7554 137.661 79.5641C135.67 81.5548 133.431 83.1722 130.88 84.4164C127.708 85.9094 124.162 86.7181 120.43 86.6559C111.659 86.4693 104.132 81.617 100.089 74.463" stroke="#404040" stroke-width="1.5" stroke-miterlimit="10" stroke-linecap="round" stroke-linejoin="round"/>
<path d="M144.752 47.0918L143.073 58.7248C142.699 61.3375 140.273 63.1416 137.661 62.7683C133.369 62.1462 128.828 61.773 124.162 61.6486" stroke="#404040" stroke-width="1.5" stroke-miterlimit="10" stroke-linecap="round" stroke-linejoin="round"/>
<path d="M134.861 7.46484C133.369 9.08226 131.316 10.3264 129.325 11.2596C128.019 9.3311 126.091 8.08693 123.976 7.65147C121.363 7.09159 118.626 7.9003 116.511 9.57993C111.348 13.8101 113.214 12.2549 106.496 17.7914C100.835 13.5613 93.0594 18.4757 94.0547 25.0698C94.4279 27.4959 94.4901 28.7401 94.4901 31.1662V41.8039" stroke="#404040" stroke-width="1.5" stroke-miterlimit="10" stroke-linecap="round" stroke-linejoin="round"/>
<path d="M134.861 7.4647C134.924 7.40249 134.924 7.40249 134.986 7.34029C140.647 0.808403 151.657 4.78974 151.657 13.5611C151.595 15.4896 151.47 17.418 151.284 19.4709C150.848 23.6389 149.915 27.9935 147.925 32.037C146.68 34.5876 145.001 37.0137 142.762 39.2532" stroke="#404040" stroke-width="1.5" stroke-miterlimit="10" stroke-linecap="round" stroke-linejoin="round"/>
<path d="M100.151 74.4639V91.5712C88.0829 94.9304 76.5127 99.4716 63.885 105.692" stroke="#404040" stroke-width="1.5" stroke-miterlimit="10" stroke-linecap="round" stroke-linejoin="round"/>
<path d="M130.88 84.417V91.571C138.594 92.193 145.063 93.2506 151.159 94.557" stroke="#404040" stroke-width="1.5" stroke-miterlimit="10" stroke-linecap="round" stroke-linejoin="round"/>
<path d="M100.151 91.5703C100.151 107.433 130.88 107.558 130.88 91.5703" stroke="#404040" stroke-width="1.5" stroke-miterlimit="10" stroke-linecap="round" stroke-linejoin="round"/>
<path d="M152.403 20.529C153.025 20.0313 153.71 19.7203 154.518 19.5336C157.069 19.0982 159.433 20.7156 159.993 23.2039L160.055 23.3284C162.045 32.5352 164.347 41.6176 167.208 50.5756C171.065 62.8307 183.009 84.4792 192.402 99.5337" stroke="#404040" stroke-width="1.5" stroke-miterlimit="10" stroke-linecap="round" stroke-linejoin="round"/>
<path d="M220.456 165.474C219.025 167.402 217.222 169.144 215.169 170.575C204.407 177.916 189.167 174.432 183.071 161.928C183.071 161.928 180.645 156.827 177.161 149.424C169.51 133.188 156.509 105.692 151.222 94.4942C151.159 94.3075 151.035 94.1209 150.973 93.9343C149.729 91.3215 147.8 89.1443 145.436 87.5268C142.575 85.5362 139.838 82.8612 137.785 79.502" stroke="#404040" stroke-width="1.5" stroke-miterlimit="10" stroke-linecap="round" stroke-linejoin="round"/>
<path d="M56.5449 68.6785C60.0906 63.0797 63.5119 58.4763 65.6891 55.6147C66.871 54.0595 68.986 53.4374 70.7899 54.2461C72.9671 55.2415 73.838 57.8542 72.7805 59.9693C70.3545 64.5727 66.3733 72.5976 65.8135 77.0144C65.3158 80.6847 64.445 87.03 63.7607 91.82C63.2008 95.9258 63.1386 100.156 63.7607 104.262C63.8229 104.697 63.8851 105.195 63.9473 105.692C66.6221 125.164 73.2781 173.064 73.4647 174.557V174.619C75.0821 186.19 67.2442 196.952 55.9228 199.129C55.5496 199.192 55.1763 199.254 54.7409 199.316C52.2527 199.689 49.8267 199.565 47.5251 199.129C37.6966 197.201 29.8587 188.616 29.7965 177.481C29.7965 177.419 30.1075 122.302 30.2319 105.195C30.2319 102.769 29.7343 100.405 28.8634 98.1653C25.1311 89.2073 23.7626 75.7702 22.0208 70.6069C21.9586 70.5447 21.9586 70.4203 21.9586 70.3581L21.8964 70.0471L14.805 46.0968C14.1207 43.8573 15.427 41.4312 17.7286 40.8091C19.8436 40.187 22.0208 41.3068 22.8917 43.2352L22.9539 43.4841L31.2894 62.9553L21.5854 37.7609C20.7145 35.397 21.8964 32.7842 24.198 31.9133C26.4374 31.1046 28.9256 32.0999 29.9209 34.2772L29.9831 34.4639L38.5053 52.0688L32.969 36.89C32.0981 34.4017 33.3422 31.7267 35.8304 30.7936C38.1942 29.9226 40.8069 31.1046 41.8022 33.4063L41.8644 33.5929C46.281 46.0968 52.1283 58.5385 56.5449 68.6785Z" fill="white"/>
<path d="M21.8342 70.3579C21.8342 70.4201 21.8965 70.5445 21.8965 70.6068C21.8342 70.4201 21.772 70.2335 21.7098 70.0469L21.8342 70.3579Z" fill="white"/>
<path d="M32.658 79.0673C36.6391 77.201 40.9935 77.0144 45.0368 78.0098" stroke="#404040" stroke-width="1.5" stroke-miterlimit="10" stroke-linecap="round" stroke-linejoin="round"/>
<path d="M21.8964 70.6069C21.8342 70.5447 21.8342 70.4203 21.8342 70.3581L21.772 70.047L14.805 46.0968C14.1207 43.8573 15.427 41.4312 17.7286 40.8091C19.8436 40.187 22.0208 41.3068 22.8917 43.2352L22.9539 43.484L31.2894 62.9553L32.5958 65.9413" stroke="#404040" stroke-width="1.5" stroke-miterlimit="10" stroke-linecap="round" stroke-linejoin="round"/>
<path d="M44.9124 90.4519C43.4817 85.5996 43.6683 81.3694 45.0368 77.948C46.9652 73.0957 51.1951 69.8609 56.607 68.6789C60.1527 63.0802 63.574 58.4768 65.7512 55.6152C66.9331 54.06 69.0481 53.4379 70.8521 54.2466C73.0293 55.2419 73.9001 57.8547 72.8426 59.9698C70.4166 64.5732 66.4355 72.5981 65.8756 77.0149C65.378 80.6851 64.5071 87.0304 63.8228 91.8205C63.263 95.9262 63.2008 100.156 63.8228 104.262C63.885 104.698 63.9473 105.195 64.0095 105.693C66.6843 125.164 73.3403 173.065 73.5269 174.558V174.62C75.1442 186.191 67.3064 196.953 55.985 199.13C55.6117 199.192 55.2385 199.254 54.8031 199.317C52.3148 199.69 49.8888 199.565 47.5872 199.13C37.7588 197.201 29.9209 188.617 29.8587 177.481C29.8587 177.419 30.1697 122.303 30.2941 105.195C30.2941 102.769 29.7965 100.405 28.9256 98.1657C25.1933 89.2077 23.8247 75.7707 22.083 70.6074C22.0208 70.4208 21.9586 70.2341 21.8964 70.0475" stroke="#404040" stroke-width="1.5" stroke-miterlimit="10" stroke-linecap="round" stroke-linejoin="round"/>
<path d="M32.4714 66.0665L31.2895 63.0183L21.5854 37.7617C20.7145 35.3978 21.8965 32.785 24.1981 31.9141C26.4374 31.1054 28.9257 32.1007 29.921 34.278L29.9832 34.4647L38.5053 52.0696L38.7541 52.6295" stroke="#404040" stroke-width="1.5" stroke-miterlimit="10" stroke-linecap="round" stroke-linejoin="round"/>
<path d="M56.5448 68.6788C52.1283 58.5389 46.2809 46.0972 41.8644 33.5933L41.8021 33.4067C40.8069 31.105 38.1942 29.9852 35.8304 30.7939C33.3422 31.6648 32.0981 34.402 32.969 36.8903L38.5053 52.0692L42.362 62.7068" stroke="#404040" stroke-width="1.5" stroke-miterlimit="10" stroke-linecap="round" stroke-linejoin="round"/>
<path d="M147.551 76.1436L139.838 77.1389" stroke="#404040" stroke-width="1.5" stroke-miterlimit="10" stroke-linecap="round" stroke-linejoin="round"/>
<path d="M151.222 19.5332C151.657 19.782 152.03 20.1553 152.403 20.5285C152.777 21.0262 153.088 21.7105 153.15 22.3948L159.246 68.3668C159.682 71.726 157.318 74.8365 153.896 75.2719L147.614 76.0806" stroke="#404040" stroke-width="1.5" stroke-miterlimit="10" stroke-linecap="round" stroke-linejoin="round"/>
<path d="M147.925 32.0996L152.777 68.9892C153.212 72.3484 150.973 75.6455 147.614 76.0809C147.551 76.0809 147.551 76.0809 147.551 76.0809" stroke="#404040" stroke-width="1.5" stroke-miterlimit="10" stroke-linecap="round" stroke-linejoin="round"/>
<path d="M126.091 45.0391C126.091 54.9924 129.014 55.4279 129.014 57.7296C129.014 60.0313 126.588 61.5865 124.162 61.5865C124.1 61.5865 124.1 61.5865 124.1 61.5865" stroke="#404040" stroke-width="1.5" stroke-miterlimit="10" stroke-linecap="round" stroke-linejoin="round"/>
<path d="M109.544 44.9142C113.338 43.2968 119.434 42.2393 119.434 42.2393" stroke="#404040" stroke-width="1.5" stroke-miterlimit="10" stroke-linecap="round" stroke-linejoin="round"/>
<path d="M139.403 45.2881C135.608 43.7951 130.01 42.7998 130.01 42.7998" stroke="#404040" stroke-width="1.5" stroke-miterlimit="10" stroke-linecap="round" stroke-linejoin="round"/>
<path d="M121.176 66.0029C122.607 66.625 124.224 66.9361 125.842 66.9361C126.091 66.9361 126.402 66.9361 126.65 66.9361" stroke="white" stroke-width="1.5" stroke-miterlimit="10" stroke-linecap="round" stroke-linejoin="round"/>
<path d="M7.96233 29.1758C6.78043 33.2193 6.22058 37.4495 6.22058 41.8663C6.22058 46.0965 6.78043 50.2022 7.90013 54.1213" stroke="#404040" stroke-width="1.5" stroke-miterlimit="10" stroke-linecap="round" stroke-linejoin="round"/>
<path d="M0.622092 38.1963C0.559886 39.3782 0.497681 40.6224 0.497681 41.8666C0.497681 45.1636 0.808708 48.3363 1.36856 51.4467" stroke="#404040" stroke-width="1.5" stroke-miterlimit="10" stroke-linecap="round" stroke-linejoin="round"/>
<path d="M177.099 149.486V189.237" stroke="#404040" stroke-width="1.5" stroke-miterlimit="10" stroke-linecap="round" stroke-linejoin="round"/>
<path d="M152.839 199.129V189.238H177.099H248.76" stroke="#404040" stroke-width="1.5" stroke-miterlimit="10" stroke-linecap="round" stroke-linejoin="round"/>
<path d="M152.839 189.238L109.544 195.459V199.129" stroke="#404040" stroke-width="1.5" stroke-miterlimit="10" stroke-linecap="round" stroke-linejoin="round"/>
</svg>
