<svg width="325" height="93" viewBox="0 0 325 93" fill="none" xmlns="http://www.w3.org/2000/svg">
<path d="M0.356445 80.9564C2.49931 80.5755 7.5279 79.6421 10.4993 78.9564C14.2136 78.0993 16.2137 80.9564 17.3565 80.9564C18.4994 80.9564 21.928 83.5279 27.0708 82.9565C32.2137 82.385 34.7852 76.9564 38.7852 76.385C42.7852 75.8136 46.7852 71.8136 47.9281 76.385C49.0709 80.9564 49.3567 91.2422 51.3567 89.8136C53.3567 88.385 53.9281 82.9565 56.4995 82.9565C59.071 82.9565 61.3567 86.9565 62.7853 82.9565C64.2139 78.9564 63.6424 76.385 65.9282 76.385C68.2139 76.385 67.6424 78.9564 67.6424 80.9564C67.6424 82.9565 67.3567 93.2422 69.9282 91.5279C72.4996 89.8136 74.4996 85.5279 79.0711 86.9564C83.6425 88.385 88.7854 89.2422 90.4997 86.9564C92.214 84.6707 100.214 84.0993 106.214 86.9564C112.214 89.8136 116.5 86.9565 119.071 82.9565C121.643 78.9564 123.357 76.385 127.071 76.385C130.786 76.385 133.357 76.6707 135.071 72.0992C136.786 67.5278 140.214 53.242 140.5 49.242C140.786 45.242 143.071 45.5277 143.071 49.242C143.071 52.9563 144.214 62.6706 145.928 60.6706C147.643 58.6706 150.5 45.8134 150.786 41.242C151.071 36.6705 151.071 33.2419 151.786 33.3848C152.5 33.5276 152.357 37.6705 152.357 39.6705C152.357 41.6706 152.071 47.5277 152.929 46.9563C153.786 46.3849 153.643 33.3848 153.929 29.5276C154.214 25.6705 156.5 25.3848 156.643 28.2419C156.786 31.0991 156.929 35.6706 158.071 36.242C159.214 36.8134 161.214 22.6705 161.643 20.3848C162.071 18.0991 162.929 20.0991 163.214 21.9562C163.5 23.8134 164.214 26.9563 166.071 26.0991C167.929 25.242 169.357 22.5277 169.786 19.0991C170.214 15.6705 170.643 3.09904 170.929 1.81332C171.214 0.527602 172.643 12.0991 172.786 17.3848C172.929 22.6706 172.929 30.8134 173.643 29.5276C174.357 28.2419 174.214 11.2419 175.786 11.5276C177.357 11.8133 176.357 56.286 180.214 59.6707C181.233 60.5645 184.5 60.2421 184.5 55.5278C184.5 51.7563 185.643 49.9014 187.214 50.4288C189.786 51.9014 191.129 65.2135 190.786 71.385C190.357 79.0993 191.333 85.5413 192.786 85.0993C195.929 84.1433 195.072 64.9564 198.643 59.6707C202.214 54.3849 205.214 53.3849 206.072 48.5278C206.929 43.6706 209.929 35.2419 210.214 30.6705C210.5 26.0991 212.357 24.2419 213.072 25.3848C213.786 26.5277 214.929 35.3848 215.357 41.9563C215.786 48.5278 217.786 51.8135 218.643 49.3849C219.5 46.9563 225.786 34.242 226.786 25.3848C227.786 16.5276 227.929 11.5276 228.929 11.5276C229.929 11.5276 230.929 23.242 231.357 26.0991C231.786 28.9562 234.5 39.0991 237.215 39.0991C239.929 39.0991 241.215 38.8134 244.215 36.8134C247.215 34.8134 248.786 35.9562 249.786 39.6705C250.786 43.3849 252.643 59.8135 255.215 58.9564C257.786 58.0992 260.5 41.242 262.215 41.242C263.929 41.242 264.929 51.3849 266.358 53.8135C267.786 56.2421 270.929 55.3849 272.5 51.5278C274.072 47.6706 278.786 47.8135 279.215 50.242C279.643 52.6706 281.643 56.6706 284.072 55.2421C286.501 53.8135 285.929 54.3849 287.786 58.9564C289.643 63.5278 289.215 66.0993 291.786 63.9564C294.358 61.8135 296.072 61.3849 296.643 63.385C297.215 65.385 296.215 74.5279 300.072 74.6707C303.929 74.8136 305.643 74.9564 307.786 73.0993C309.929 71.2421 309.929 68.8136 315.072 70.9564C320.215 73.0993 321.644 75.8136 324.501 75.2421" stroke="#33CC80" stroke-width="2"/>
</svg>
