<svg width="1151" height="351" viewBox="0 0 1151 351" fill="none" xmlns="http://www.w3.org/2000/svg">
<line x1="0.5" y1="1" x2="0.5" y2="351" stroke="#F2F2F2"/>
<line x1="100.5" y1="1" x2="100.5" y2="351" stroke="#F2F2F2"/>
<line x1="700.5" y1="1" x2="700.5" y2="351" stroke="#F2F2F2"/>
<line x1="200.5" y1="1" x2="200.5" y2="351" stroke="#F2F2F2"/>
<line x1="800.5" y1="1" x2="800.5" y2="351" stroke="#F2F2F2"/>
<line x1="300.5" y1="1" x2="300.5" y2="351" stroke="#F2F2F2"/>
<line x1="900.5" y1="1" x2="900.5" y2="351" stroke="#F2F2F2"/>
<line x1="400.5" y1="1" x2="400.5" y2="351" stroke="#F2F2F2"/>
<line x1="1000.5" y1="1" x2="1000.5" y2="351" stroke="#F2F2F2"/>
<line x1="500.5" y1="1" x2="500.5" y2="351" stroke="#F2F2F2"/>
<line x1="1100.5" y1="1" x2="1100.5" y2="351" stroke="#F2F2F2"/>
<line x1="600.5" y1="1" x2="600.5" y2="351" stroke="#F2F2F2"/>
<line x1="550.5" y1="1" x2="550.5" y2="351" stroke="#F2F2F2"/>
<line x1="1150.5" y1="1" x2="1150.5" y2="351" stroke="#F2F2F2"/>
<line x1="450.5" y1="1" x2="450.5" y2="351" stroke="#F2F2F2"/>
<line x1="1050.5" y1="1" x2="1050.5" y2="351" stroke="#F2F2F2"/>
<line x1="350.5" y1="1" x2="350.5" y2="351" stroke="#F2F2F2"/>
<line x1="950.5" y1="1" x2="950.5" y2="351" stroke="#F2F2F2"/>
<line x1="250.5" y1="1" x2="250.5" y2="351" stroke="#F2F2F2"/>
<line x1="850.5" y1="1" x2="850.5" y2="351" stroke="#F2F2F2"/>
<line x1="150.5" y1="1" x2="150.5" y2="351" stroke="#F2F2F2"/>
<line x1="750.5" y1="1" x2="750.5" y2="351" stroke="#F2F2F2"/>
<line x1="50.5" y1="1" x2="50.5" y2="351" stroke="#F2F2F2"/>
<line x1="650.5" y1="1" x2="650.5" y2="351" stroke="#F2F2F2"/>
<line y1="350.5" x2="1151" y2="350.5" stroke="#F2F2F2"/>
<line y1="300.5" x2="1151" y2="300.5" stroke="#F2F2F2"/>
<line y1="250.5" x2="1151" y2="250.5" stroke="#F2F2F2"/>
<line y1="200.5" x2="1151" y2="200.5" stroke="#F2F2F2"/>
<line y1="150.5" x2="1151" y2="150.5" stroke="#F2F2F2"/>
<line y1="100.5" x2="1151" y2="100.5" stroke="#F2F2F2"/>
<line y1="50.5" x2="1151" y2="50.5" stroke="#F2F2F2"/>
<line y1="0.5" x2="1151" y2="0.5" stroke="#F2F2F2"/>
</svg>
