<svg width="1136" height="319" viewBox="0 0 1136 319" fill="none" xmlns="http://www.w3.org/2000/svg">
<path d="M1 279.346C8.5 278.013 26.1 274.746 36.5 272.346C49.5 269.346 56.5 279.346 60.5 279.346C64.5 279.346 76.5 288.346 94.5 286.346C112.5 284.346 121.5 265.346 135.5 263.346C149.5 261.346 163.5 247.346 167.5 263.346C171.5 279.346 172.5 315.346 179.5 310.346C186.5 305.346 188.5 286.346 197.5 286.346C206.5 286.346 214.5 300.346 219.5 286.346C224.5 272.346 222.5 263.346 230.5 263.346C238.5 263.346 236.5 272.346 236.5 279.346C236.5 286.346 235.5 322.346 244.5 316.346C253.5 310.346 260.5 295.346 276.5 300.346C292.5 305.346 310.5 308.346 316.5 300.346C322.5 292.346 350.5 290.346 371.5 300.346C392.5 310.346 407.5 300.346 416.5 286.346C425.5 272.346 431.5 263.346 444.5 263.346C457.5 263.346 466.5 264.346 472.5 248.346C478.5 232.346 490.5 182.346 491.5 168.346C492.5 154.346 500.5 155.346 500.5 168.346C500.5 181.346 504.5 215.346 510.5 208.346C516.5 201.346 526.5 156.346 527.5 140.346C528.5 124.346 528.5 112.346 531 112.846C533.5 113.346 533 127.846 533 134.846C533 141.846 532 162.346 535 160.346C538 158.346 537.5 112.846 538.5 99.3461C539.5 85.8461 547.5 84.8461 548 94.8461C548.5 104.846 549 120.846 553 122.846C557 124.846 564 75.3462 565.5 67.3462C567 59.3462 570 66.3462 571 72.8462C572 79.3462 574.5 90.3464 581 87.3464C587.5 84.3464 592.5 74.8464 594 62.8464C595.5 50.8464 597 6.84638 598 2.34638C599 -2.15362 604 38.3464 604.5 56.8464C605 75.3464 605 103.846 607.5 99.3461C610 94.8461 609.5 35.3462 615 36.3462C620.5 37.3462 617 193 630.5 204.846C634.065 207.975 645.5 206.846 645.5 190.346C645.5 177.146 649.5 170.654 655 172.5C664 177.654 668.7 224.246 667.5 245.846C666 272.846 669.415 295.393 674.5 293.846C685.5 290.5 682.5 223.346 695 204.846C707.5 186.346 718 182.846 721 165.846C724 148.846 734.5 119.346 735.5 103.346C736.5 87.3464 743 80.8462 745.5 84.8462C748 88.8462 752 119.846 753.5 142.846C755 165.846 762 177.346 765 168.846C768 160.346 790 115.846 793.5 84.8462C797 53.8462 797.5 36.3462 801 36.3462C804.5 36.3462 808 77.3466 809.5 87.3464C811 97.3462 820.5 132.846 830 132.846C839.5 132.846 844 131.846 854.5 124.846C865 117.846 870.5 121.846 874 134.846C877.5 147.846 884 205.346 893 202.346C902 199.346 911.5 140.346 917.5 140.346C923.5 140.346 927 175.846 932 184.346C937 192.846 948 189.846 953.5 176.346C959 162.846 975.5 163.346 977 171.846C978.5 180.346 985.5 194.346 994 189.346C1002.5 184.346 1000.5 186.346 1007 202.346C1013.5 218.346 1012 227.346 1021 219.846C1030 212.346 1036 210.846 1038 217.846C1040 224.846 1036.5 256.846 1050 257.346C1063.5 257.846 1069.5 258.346 1077 251.846C1084.5 245.346 1084.5 236.846 1102.5 244.346C1120.5 251.846 1125.5 261.346 1135.5 259.346" stroke="#33CC80" stroke-width="3"/>
</svg>
