<svg width="185" height="52" viewBox="0 0 185 52" fill="none" xmlns="http://www.w3.org/2000/svg">
<g clip-path="url(#clip0_352_258)">
<path d="M149.831 -0.00012207C149.825 0.715525 149.82 1.42567 149.82 2.14131C149.825 5.30667 149.831 8.47204 149.836 11.6374C149.853 16.8451 149.863 22.0583 149.88 27.266C149.88 27.3211 149.88 27.3761 149.88 27.4532C147.505 27.4532 145.136 27.4532 142.723 27.4532C142.723 22.6418 142.723 17.825 142.723 13.0081C142.701 13.0026 142.679 12.9971 142.657 12.9971C142.218 13.7293 141.785 14.4614 141.346 15.1936C139.493 18.3204 137.634 21.4473 135.785 24.5796C135.692 24.7337 135.593 24.7833 135.418 24.7833C134.431 24.7723 133.444 24.7723 132.456 24.7833C132.275 24.7833 132.188 24.7227 132.095 24.5741C129.83 20.8472 127.559 17.1259 125.289 13.4045C125.272 13.3825 125.256 13.3605 125.212 13.2999C125.212 18.0452 125.212 22.7464 125.212 27.4642C122.826 27.4642 120.473 27.4642 118.099 27.4642C118.093 27.4036 118.082 27.3321 118.082 27.2605C118.082 18.2599 118.082 9.25925 118.082 0.258612C118.082 0.192552 118.088 0.131997 118.093 0.0659376C120.221 0.0659376 122.344 0.0659376 124.471 0.0659376C127.663 5.32869 130.855 10.5859 134.058 15.8597C134.096 15.7937 134.124 15.7551 134.146 15.7166C136.043 12.5127 137.946 9.30329 139.844 6.09939C141.034 4.09008 142.229 2.07525 143.419 0.0659376C145.416 0.0659376 147.417 0.0659376 149.414 0.0604327C149.518 0.0604327 149.617 0.0274028 149.715 0.00538291C149.759 -0.00012207 149.792 -0.00012207 149.831 -0.00012207Z" fill="black"/>
<path d="M80.9484 -0.00012207C80.9429 0.0989675 80.9374 0.198057 80.9374 0.297147C80.9374 9.25925 80.9374 18.2269 80.9374 27.189C80.9374 27.2715 80.9374 27.3541 80.9374 27.4532C78.3982 27.4532 75.87 27.4532 73.3198 27.4532C73.3198 22.1354 73.3198 16.8121 73.3198 11.4888C73.3033 11.4833 73.2869 11.4778 73.2649 11.4667C73.0072 11.8356 72.7439 12.2044 72.4862 12.5732C69.053 17.4782 65.6199 22.3886 62.1813 27.2935C62.1265 27.3761 62.0003 27.4642 61.9126 27.4642C59.5543 27.4752 57.1961 27.4697 54.8379 27.4697C54.8214 27.4697 54.805 27.4587 54.7611 27.4477C54.7611 27.3596 54.7611 27.2605 54.7611 27.1614C54.7611 18.2269 54.7611 9.28677 54.7611 0.352196C54.7611 0.253107 54.7721 0.154017 54.783 0.0549277C57.3058 0.0549277 59.834 0.0549277 62.3568 0.0604327C62.3623 0.170532 62.3732 0.280632 62.3732 0.390731C62.3732 5.52687 62.3732 10.663 62.3732 15.7992C62.3732 15.8872 62.3732 15.9753 62.3732 16.1295C62.4665 16.0083 62.5213 15.9423 62.5707 15.8707C65.8448 11.197 69.1189 6.52878 72.3875 1.85505C72.8152 1.244 73.232 0.62194 73.6543 0.00538291C76.0838 -0.00012207 78.5189 -0.00012207 80.9484 -0.00012207Z" fill="black"/>
<path d="M42.7781 -0.00012207C42.7726 0.126492 42.7672 0.258612 42.7672 0.385226C42.7672 16.7956 42.7672 33.2059 42.7672 49.6162C42.7672 50.0731 42.811 50.0291 42.3504 50.0291C39.5369 50.0291 36.7235 50.0291 33.9046 50.0291C33.5152 50.0291 33.5152 50.0291 33.5152 49.6437C33.5152 33.2224 33.5152 16.8011 33.5152 0.385226C33.5152 0.258612 33.5098 0.126492 33.5043 -0.00012207C36.5974 -0.00012207 39.6905 -0.00012207 42.7781 -0.00012207Z" fill="#FDC944"/>
<path d="M9.21451 -0.00012207C9.21999 0.109977 9.22547 0.220077 9.22547 0.330176C9.22547 16.768 9.22547 33.2059 9.22547 49.6437C9.22547 49.7593 9.22547 49.875 9.22547 50.0071C6.14333 50.0071 3.08312 50.0071 0.000976562 50.0071C0.000976562 33.3325 0.000976562 16.6634 0.000976562 -0.00012207C3.07215 -0.00012207 6.14333 -0.00012207 9.21451 -0.00012207Z" fill="#C32278"/>
<path d="M20.4572 -0.00012207C20.4572 16.6634 20.4572 33.327 20.4572 50.0126C17.375 50.0126 14.3203 50.0126 11.2327 50.0126C11.2327 49.897 11.2327 49.7979 11.2327 49.6988C11.2327 33.2224 11.2327 16.7515 11.2327 0.275127C11.2327 0.181542 11.2382 0.0934625 11.2436 -0.00012207C14.3148 -0.00012207 17.386 -0.00012207 20.4572 -0.00012207Z" fill="#F673C0"/>
<path d="M31.5354 -0.000110258C31.5354 0.120999 31.5299 0.236604 31.5299 0.357713C31.5299 16.7846 31.5299 33.2169 31.5299 49.6438C31.5299 49.7594 31.5299 49.875 31.5299 50.0071C28.4478 50.0071 25.393 50.0071 22.3054 50.0071C22.3054 49.8915 22.3054 49.7924 22.3054 49.6933C22.3054 33.2169 22.3054 16.746 22.3054 0.269634C22.3054 0.176049 22.3164 0.0879694 22.3219 -0.00561523C25.393 -0.000110258 28.4642 -0.000110258 31.5354 -0.000110258Z" fill="#178ECE"/>
<path d="M90.2168 0.0549277C90.2168 0.0384128 90.2168 0.0163929 90.2168 -0.00012207C97.5492 -0.00012207 104.876 -0.00012207 112.209 -0.00012207C112.214 0.0108879 112.22 0.0218978 112.22 0.0329078C112.22 0.0384128 112.214 0.0439177 112.214 0.0494227C112.088 0.0494227 111.956 0.0549277 111.83 0.0549277C104.629 0.0549277 97.4231 0.0549277 90.2168 0.0549277Z" fill="#606060"/>
<path d="M165.033 0.0604327C165.027 0.0384128 165.027 0.0218978 165.022 -0.00012207C167.561 -0.00012207 170.106 -0.00012207 172.645 -0.00012207C172.656 0.0163929 172.656 0.0329078 172.65 0.0494227C172.524 0.0494227 172.393 0.0549277 172.267 0.0549277C169.853 0.0549277 167.44 0.0604327 165.033 0.0604327Z" fill="#606060"/>
<path d="M62.3568 -0.00012207C62.3568 0.0163929 62.3568 0.0384128 62.3568 0.0549277C59.8341 0.0549277 57.3058 0.0549277 54.7831 0.0494227C54.7831 0.0329078 54.7886 0.0163929 54.7886 -0.00012207C57.3113 -0.00012207 59.8341 -0.00012207 62.3568 -0.00012207Z" fill="#606060"/>
<path d="M124.493 -0.00012207C124.488 0.0218978 124.482 0.0384128 124.477 0.0604327C122.349 0.0604327 120.227 0.0604327 118.099 0.0604327C118.093 0.0384128 118.082 0.0163929 118.077 -0.00012207C120.216 -0.00012207 122.354 -0.00012207 124.493 -0.00012207Z" fill="#464646"/>
<path d="M143.425 0.0604327C143.419 0.0384128 143.419 0.0218978 143.414 -0.00012207C145.514 -0.00012207 147.62 -0.00012207 149.721 -0.00012207C149.622 0.0163929 149.518 0.0549277 149.419 0.0549277C147.417 0.0549277 145.421 0.0604327 143.425 0.0604327Z" fill="#606060"/>
<path d="M90.2168 0.0549435C97.4231 0.0549435 104.624 0.0549435 111.83 0.0549435C111.956 0.0549435 112.088 0.0494385 112.214 0.0494385C112.22 0.132013 112.236 0.214588 112.236 0.291657C112.236 9.27027 112.236 18.2544 112.236 27.233C112.236 27.2991 112.236 27.3596 112.236 27.4477C109.702 27.4477 107.18 27.4477 104.624 27.4477C104.624 20.3683 104.624 13.2834 104.624 6.18749C101.997 6.18749 99.3919 6.18749 96.7705 6.18749C96.7485 6.79854 96.7266 7.39858 96.6992 7.99862C96.6059 10.1401 96.5456 12.287 96.403 14.4284C96.2385 16.9002 95.9369 19.3554 95.2623 21.7445C94.9113 22.9832 94.3903 24.1447 93.6554 25.2072C92.6024 26.721 91.1436 27.5633 89.3393 27.833C87.6611 28.0863 86.0104 27.8661 84.3541 27.4697C84.4967 25.3613 84.6393 23.2584 84.7819 21.139C84.9958 21.1665 85.1877 21.1885 85.3852 21.2106C86.7782 21.3702 87.7598 20.8472 88.4289 19.6031C88.9773 18.5792 89.2351 17.4727 89.3996 16.3332C89.7726 13.7513 89.811 11.1475 89.9042 8.54362C90.0029 5.77461 90.1071 3.01112 90.2058 0.242113C90.2058 0.181558 90.2113 0.121003 90.2168 0.0549435Z" fill="black"/>
<path d="M165.033 0.0604484C167.446 0.0604484 169.859 0.0549435 172.272 0.0549435C172.398 0.0549435 172.53 0.0494385 172.656 0.0494385C173.237 1.34861 173.819 2.64779 174.394 3.94696C176.725 9.22623 179.051 14.5055 181.376 19.7848C182.484 22.2895 183.592 24.7943 184.699 27.2991C184.716 27.3376 184.727 27.3816 184.749 27.4477C182.072 27.4477 179.413 27.4477 176.714 27.4477C176.5 26.9192 176.276 26.3632 176.051 25.8072C175.59 24.6567 175.124 23.5061 174.669 22.3501C174.603 22.1794 174.521 22.1244 174.329 22.1244C170.638 22.1299 166.941 22.1299 163.251 22.1244C163.07 22.1244 162.987 22.1739 162.921 22.3501C162.274 23.9906 161.611 25.6201 160.953 27.255C160.903 27.3706 160.87 27.4752 160.695 27.4697C158.134 27.4642 155.578 27.4642 152.979 27.4642C153.127 27.1174 153.264 26.7926 153.406 26.4733C156.757 18.8544 160.114 11.23 163.464 3.61116C163.98 2.43309 164.506 1.24402 165.033 0.0604484ZM168.79 7.62979C167.605 10.5915 166.448 13.4871 165.28 16.3992C167.627 16.3992 169.941 16.3992 172.3 16.3992C171.131 13.4816 169.969 10.5805 168.79 7.62979Z" fill="black"/>
<path d="M149.606 33.4756C149.606 34.9565 149.606 36.4208 149.606 37.9127C149.874 37.9127 150.132 37.9127 150.412 37.9127C150.412 38.7054 150.412 39.4816 150.412 40.2743C150.028 40.2743 149.644 40.2743 149.227 40.2743C149.227 39.8779 149.227 39.4816 149.227 39.0577C147.785 39.0577 146.365 39.0577 144.922 39.0577C144.922 39.4596 144.922 39.8559 144.922 40.2743C144.516 40.2743 144.138 40.2743 143.738 40.2743C143.738 39.5091 143.738 38.7384 143.738 37.9512C143.759 37.9457 143.792 37.9347 143.825 37.9347C144.319 37.9182 144.566 37.775 144.67 37.2851C144.801 36.6685 144.884 36.041 144.944 35.4134C145.004 34.7748 145.004 34.1362 145.026 33.4812C146.556 33.4756 148.065 33.4756 149.606 33.4756ZM145.635 37.9127C146.518 37.9127 147.401 37.9127 148.289 37.9127C148.289 36.7951 148.289 35.6886 148.289 34.5821C147.582 34.5821 146.88 34.5821 146.184 34.5821C146.079 35.7107 146.238 36.8722 145.635 37.9127Z" fill="#020202"/>
<path d="M89.4929 49.352C89.4929 49.8364 89.4929 50.2603 89.4929 50.6897C89.4929 51.1191 89.4929 51.5484 89.4929 51.9998C89.0651 51.9998 88.6428 51.9998 88.2041 51.9998C88.2041 49.4841 88.2041 46.9628 88.2041 44.4305C88.6099 44.4305 89.0048 44.4305 89.4271 44.4305C89.4271 44.6452 89.4271 44.8544 89.4271 45.1296C90.0962 44.403 90.9023 44.2764 91.7634 44.392C92.4654 44.4856 93.0577 44.8159 93.5019 45.3829C94.3684 46.4784 94.2587 48.3335 93.2825 49.2969C92.3776 50.1997 90.5404 50.4144 89.4929 49.352ZM91.1053 48.9501C92.0924 48.9556 92.767 48.251 92.767 47.2105C92.767 46.1811 92.1034 45.4709 91.1327 45.4709C90.151 45.4709 89.4655 46.1811 89.4655 47.2105C89.4655 48.2289 90.14 48.9446 91.1053 48.9501Z" fill="#020202"/>
<path d="M132.051 38.3695C132.051 39.2999 132.051 40.1642 132.051 41.045C131.612 41.045 131.195 41.045 130.762 41.045C130.762 38.5292 130.762 36.0024 130.762 33.4701C131.157 33.4701 131.546 33.4701 131.968 33.4701C131.968 33.6848 131.968 33.8995 131.968 34.1858C132.654 33.4316 133.471 33.3105 134.343 33.4316C135.034 33.5252 135.621 33.8555 136.06 34.4115C136.954 35.551 136.816 37.3952 135.791 38.3805C134.886 39.2503 133.01 39.4265 132.051 38.3695ZM133.696 34.505C132.714 34.505 132.018 35.2207 132.018 36.2391C132.018 37.252 132.698 37.9787 133.658 37.9842C134.645 37.9897 135.319 37.2851 135.325 36.2446C135.325 35.2207 134.661 34.5105 133.696 34.505Z" fill="#020202"/>
<path d="M101.717 37.9182C102.622 37.9182 103.489 37.9182 104.372 37.9182C104.372 36.4373 104.372 34.962 104.372 33.4756C104.81 33.4756 105.227 33.4756 105.671 33.4756C105.671 34.9455 105.671 36.4263 105.671 37.9237C105.962 37.9237 106.22 37.9237 106.5 37.9237C106.5 38.7274 106.5 39.5091 106.5 40.3073C106.11 40.3073 105.721 40.3073 105.309 40.3073C105.309 39.8945 105.309 39.4761 105.309 39.0412C103.67 39.0412 102.057 39.0412 100.434 39.0412C100.434 37.1805 100.434 35.3418 100.434 33.4812C100.851 33.4812 101.273 33.4812 101.717 33.4812C101.717 34.951 101.717 36.4263 101.717 37.9182Z" fill="#020202"/>
<path d="M83.5918 37.9127C83.5918 36.4318 83.5918 34.9675 83.5918 33.4812C84.0251 33.4812 84.4474 33.4812 84.8916 33.4812C84.8916 34.9565 84.8916 36.4318 84.8916 37.9237C85.1713 37.9237 85.4346 37.9237 85.7143 37.9237C85.7143 38.7274 85.7143 39.5091 85.7143 40.3073C85.3304 40.3073 84.941 40.3073 84.5242 40.3073C84.5242 39.8889 84.5242 39.4761 84.5242 39.0357C82.8844 39.0357 81.272 39.0357 79.6487 39.0357C79.6487 37.1695 79.6487 35.3308 79.6487 33.4756C80.071 33.4756 80.4878 33.4756 80.9265 33.4756C80.9265 34.9455 80.9265 36.4153 80.9265 37.9072C81.815 37.9127 82.6869 37.9127 83.5918 37.9127Z" fill="#030303"/>
<path d="M86.8988 39.0356C86.8988 37.1694 86.8988 35.3308 86.8988 33.4756C87.3266 33.4756 87.7434 33.4756 88.1821 33.4756C88.1821 34.6702 88.1821 35.8648 88.1821 37.1419C88.5441 36.707 88.8567 36.3382 89.1693 35.9639C89.8274 35.1766 90.48 34.3949 91.1436 33.6132C91.2039 33.5472 91.2972 33.4756 91.3794 33.4701C91.7249 33.4536 92.0704 33.4646 92.4324 33.4646C92.4324 35.3198 92.4324 37.1584 92.4324 39.0191C92.0156 39.0191 91.5933 39.0191 91.1491 39.0191C91.1491 37.8245 91.1491 36.63 91.1491 35.3583C90.6171 35.9969 90.129 36.5859 89.6464 37.1694C89.1693 37.7475 88.6922 38.3255 88.2041 38.8925C88.1382 38.9696 88.0121 39.0246 87.9134 39.0301C87.5788 39.0466 87.2443 39.0356 86.8988 39.0356Z" fill="#030303"/>
<path d="M113.229 33.4591C113.229 35.3308 113.229 37.1695 113.229 39.0192C112.801 39.0192 112.384 39.0192 111.945 39.0192C111.945 37.8246 111.945 36.6245 111.945 35.3473C111.583 35.7767 111.271 36.1456 110.964 36.5199C110.317 37.3016 109.669 38.0833 109.011 38.854C108.929 38.9476 108.775 39.0137 108.649 39.0192C108.337 39.0412 108.013 39.0247 107.69 39.0247C107.69 37.1585 107.69 35.3198 107.69 33.4646C108.117 33.4646 108.534 33.4646 108.973 33.4646C108.973 34.6537 108.973 35.8538 108.973 37.1254C109.329 36.7016 109.636 36.3327 109.944 35.9694C110.602 35.1822 111.254 34.395 111.918 33.6188C111.995 33.5307 112.137 33.4646 112.252 33.4536C112.565 33.4481 112.889 33.4591 113.229 33.4591Z" fill="#030303"/>
<path d="M151.602 39.0356C151.602 37.164 151.602 35.3253 151.602 33.4756C152.03 33.4756 152.447 33.4756 152.891 33.4756C152.891 34.6757 152.891 35.8703 152.891 37.1419C153.313 36.6355 153.691 36.1896 154.07 35.7382C154.657 35.0335 155.238 34.3289 155.83 33.6353C155.907 33.5472 156.05 33.4811 156.17 33.4756C156.488 33.4536 156.806 33.4701 157.141 33.4701C157.141 35.3253 157.141 37.1695 157.141 39.0246C156.724 39.0246 156.307 39.0246 155.869 39.0246C155.869 37.8411 155.869 36.6465 155.869 35.3583C155.578 35.7051 155.342 35.9859 155.106 36.2666C154.377 37.1419 153.648 38.0227 152.907 38.898C152.841 38.9751 152.715 39.0301 152.617 39.0356C152.282 39.0467 151.953 39.0356 151.602 39.0356Z" fill="#010101"/>
<path d="M131.436 47.1005C132.424 47.5023 132.753 48.6088 132.1 49.3685C131.743 49.7814 131.244 49.908 130.729 49.9741C130.548 49.9961 130.361 49.9961 130.18 49.9961C129.248 49.9961 128.316 49.9961 127.373 49.9961C127.373 48.1409 127.373 46.2967 127.373 44.4416C127.427 44.436 127.488 44.425 127.548 44.425C128.436 44.425 129.325 44.392 130.208 44.436C130.647 44.4581 131.091 44.5627 131.502 44.7168C131.963 44.8875 132.21 45.2673 132.237 45.7793C132.265 46.3187 132.029 46.7096 131.584 46.9959C131.541 47.0234 131.491 47.0509 131.447 47.0839C131.442 47.0839 131.436 47.0949 131.436 47.1005ZM128.601 49.0437C129.182 49.0437 129.736 49.0437 130.29 49.0437C130.378 49.0437 130.471 49.0217 130.559 48.9997C130.943 48.9171 131.146 48.6969 131.151 48.3611C131.157 47.9923 130.981 47.7115 130.581 47.684C129.923 47.6344 129.265 47.673 128.596 47.673C128.601 48.1024 128.601 48.5593 128.601 49.0437ZM128.612 45.4049C128.612 45.8343 128.612 46.2802 128.612 46.7096C129.204 46.7096 129.791 46.7426 130.367 46.6986C130.778 46.6656 130.97 46.4013 130.97 46.0435C130.97 45.6857 130.778 45.4435 130.351 45.4104C129.78 45.3719 129.21 45.4049 128.612 45.4049Z" fill="#030303"/>
<path d="M106.894 44.4305C107.317 44.4305 107.728 44.4305 108.167 44.4305C108.167 45.6306 108.167 46.8197 108.167 48.1023C108.573 47.6179 108.918 47.205 109.269 46.7866C109.883 46.049 110.498 45.3113 111.117 44.5792C111.189 44.4966 111.32 44.436 111.43 44.4305C111.748 44.4085 112.066 44.425 112.406 44.425C112.406 46.2747 112.406 48.1244 112.406 49.985C111.995 49.985 111.578 49.985 111.139 49.985C111.139 48.8015 111.139 47.6124 111.139 46.3628C111.057 46.4343 111.008 46.4674 110.975 46.5114C110.059 47.6069 109.143 48.6969 108.244 49.8034C108.117 49.952 107.997 50.0126 107.805 50.0071C107.509 49.9905 107.207 50.0016 106.894 50.0016C106.894 48.1354 106.894 46.2967 106.894 44.4305Z" fill="#020202"/>
<path d="M114.183 44.4746C115.34 44.4746 116.47 44.4581 117.6 44.4856C117.868 44.4911 118.154 44.6122 118.395 44.7443C119.261 45.2288 119.3 46.3848 118.483 46.9463C118.417 46.9904 118.346 47.0344 118.247 47.0949C118.686 47.2601 119.031 47.4968 119.174 47.9537C119.47 48.9061 118.932 49.7263 117.868 49.9245C117.627 49.9685 117.38 49.9906 117.134 49.9961C116.157 50.0016 115.181 50.0016 114.205 50.0016C114.194 49.9575 114.183 49.9355 114.183 49.908C114.183 48.0858 114.183 46.2692 114.183 44.4746ZM115.444 47.6234C115.444 48.1079 115.444 48.5703 115.444 48.9942C116.108 48.9942 116.755 49.0107 117.402 48.9832C117.665 48.9721 117.896 48.8125 117.956 48.5262C118.016 48.2675 118 47.9923 117.759 47.8271C117.6 47.7225 117.391 47.6344 117.205 47.6289C116.623 47.6069 116.042 47.6234 115.444 47.6234ZM115.439 46.6986C116.053 46.6986 116.651 46.7371 117.238 46.6876C117.633 46.6545 117.814 46.3793 117.803 46.0325C117.792 45.6967 117.605 45.449 117.216 45.4214C116.629 45.3829 116.037 45.4104 115.439 45.4104C115.439 45.8343 115.439 46.2692 115.439 46.6986Z" fill="#020202"/>
<path d="M86.7397 47.6234C85.2864 47.6234 83.8495 47.6234 82.3852 47.6234C82.5004 48.2069 82.813 48.5868 83.3285 48.807C84.0689 49.1263 84.9354 48.9721 85.7032 48.3721C85.9281 48.6308 86.1529 48.8841 86.3942 49.1593C85.9884 49.6382 85.4729 49.897 84.8751 50.0016C83.8112 50.1777 82.8185 50.0401 81.9739 49.3079C81.1513 48.5978 80.8606 47.3041 81.2555 46.1756C81.6175 45.1407 82.5827 44.425 83.674 44.3645C84.7709 44.3039 85.6923 44.6232 86.3175 45.5811C86.7068 46.1921 86.8165 46.8802 86.7397 47.6234ZM82.3907 46.7536C82.9117 46.7536 83.4273 46.7536 83.9483 46.7536C84.4638 46.7536 84.9848 46.7536 85.5003 46.7536C85.4564 46.016 84.8257 45.4324 84.0689 45.4049C83.153 45.3774 82.4895 45.9004 82.3907 46.7536Z" fill="#030303"/>
<path d="M143.173 36.663C141.67 36.663 140.233 36.663 138.769 36.663C138.884 37.23 139.18 37.6319 139.69 37.83C140.551 38.1603 141.357 38.0502 142.081 37.4117C142.306 37.6704 142.536 37.9291 142.772 38.2044C142.35 38.7053 141.813 38.9641 141.187 39.0576C140.123 39.2118 139.114 39.0852 138.303 38.3035C137.398 37.4337 137.255 36.3492 137.645 35.2097C138.028 34.0811 138.895 33.5031 140.063 33.415C141.588 33.3049 142.723 34.1032 143.047 35.5014C143.14 35.8648 143.134 36.2556 143.173 36.663ZM138.769 35.7822C139.816 35.7822 140.847 35.7822 141.873 35.7822C141.862 35.0996 141.253 34.505 140.518 34.45C139.575 34.3839 138.917 34.8794 138.769 35.7822Z" fill="#030303"/>
<path d="M98.6735 49.9796C98.6735 49.7704 98.6735 49.5942 98.6735 49.3575C98.2786 49.8254 97.8015 50.0126 97.2531 50.0511C96.7266 50.0842 96.2166 50.0566 95.7339 49.8034C95.1087 49.4731 94.8016 48.9171 94.8784 48.1959C94.9497 47.5188 95.35 47.0894 95.9807 46.9078C96.3427 46.8032 96.7321 46.7647 97.1105 46.7426C97.5986 46.7151 98.0922 46.7371 98.5858 46.7371C98.668 46.0545 98.2732 45.5536 97.5986 45.471C96.8582 45.3829 96.1672 45.5315 95.542 45.9885C95.372 45.6692 95.2075 45.3664 95.0045 44.9976C95.4049 44.8324 95.7723 44.6397 96.1672 44.5186C96.7869 44.326 97.4286 44.3039 98.0647 44.414C99.1945 44.6122 99.8142 45.2178 99.8855 46.3738C99.9568 47.5684 99.902 48.7685 99.902 49.9796C99.5016 49.9796 99.1068 49.9796 98.6735 49.9796ZM98.5912 47.6124C98.0922 47.6124 97.615 47.6069 97.1324 47.6179C96.9679 47.6234 96.8034 47.6455 96.6498 47.6895C96.3372 47.7831 96.1672 47.9978 96.1507 48.3005C96.1343 48.6198 96.2714 48.8676 96.5566 48.9832C97.0995 49.2089 97.637 49.1703 98.147 48.851C98.6022 48.5648 98.6735 48.1299 98.5912 47.6124Z" fill="#030303"/>
<path d="M98.8051 39.0247C98.3883 39.0247 97.9989 39.0247 97.5876 39.0247C97.5876 38.832 97.5876 38.6393 97.5876 38.3751C97.2476 38.7769 96.8692 38.9971 96.414 39.0577C95.701 39.1568 95.01 39.1403 94.3958 38.6944C93.8748 38.32 93.6993 37.797 93.7816 37.175C93.8529 36.608 94.1764 36.1896 94.7029 36.0134C95.1197 35.8703 95.5694 35.8153 96.0136 35.7822C96.5017 35.7437 96.9953 35.7712 97.4834 35.7712C97.5712 35.1161 97.1928 34.6097 96.5401 34.5106C95.7888 34.395 95.0923 34.5546 94.4397 35.017C94.2751 34.7143 94.1106 34.4115 93.9187 34.0647C94.1325 33.9491 94.3355 33.8114 94.5548 33.7179C95.3884 33.371 96.2549 33.294 97.1324 33.4701C98.1799 33.6793 98.7558 34.3785 98.7996 35.5785C98.838 36.7236 98.8051 37.8576 98.8051 39.0247ZM97.4779 36.6465C97.0776 36.6465 96.6882 36.6355 96.2988 36.652C96.0575 36.6575 95.8052 36.674 95.5694 36.7236C95.2404 36.7951 95.0649 37.0153 95.0429 37.3071C95.0155 37.6264 95.1416 37.8961 95.4378 38.0227C95.9753 38.254 96.5072 38.2099 97.0063 37.9126C97.4725 37.6319 97.5821 37.1915 97.4779 36.6465Z" fill="#030303"/>
<path d="M59.3405 39.0246C58.9401 39.0246 58.5508 39.0246 58.134 39.0246C58.134 38.8265 58.134 38.6338 58.134 38.4136C57.2894 39.1898 55.9348 39.3329 55.0573 38.7714C54.5144 38.4246 54.2621 37.9236 54.3169 37.2851C54.3773 36.5969 54.7666 36.1455 55.4083 35.9584C55.7867 35.8483 56.1925 35.8097 56.5929 35.7877C57.0755 35.7602 57.5581 35.7822 58.0352 35.7822C58.1065 35.1051 57.7281 34.6207 57.0865 34.5161C56.3626 34.4005 55.6825 34.5601 54.986 35.0225C54.8215 34.7197 54.6569 34.4225 54.4705 34.0757C54.6899 33.9546 54.9037 33.8169 55.1286 33.7233C56.0006 33.371 56.9 33.294 57.8104 33.5252C58.7263 33.7564 59.3076 34.4445 59.335 35.3969C59.3679 36.5914 59.3405 37.797 59.3405 39.0246ZM58.0352 36.6575C57.5033 36.6575 56.9823 36.652 56.4613 36.663C56.3242 36.663 56.1871 36.696 56.0609 36.7401C55.8141 36.8281 55.6386 36.9878 55.6002 37.2685C55.5618 37.5658 55.6441 37.8301 55.9128 37.9787C56.4667 38.276 57.0261 38.2264 57.5581 37.9181C58.0298 37.6374 58.1449 37.197 58.0352 36.6575Z" fill="#020202"/>
<path d="M70.4131 50.0676C68.724 50.0676 67.5942 49.1868 67.3145 47.8161C66.9471 46.0049 68.1975 44.425 70.0402 44.359C71.1755 44.3204 72.1407 44.6727 72.7549 45.6691C73.3362 46.6105 73.3527 47.6234 72.8372 48.5978C72.2942 49.6437 71.3509 50.0456 70.4131 50.0676ZM70.2212 48.9501C71.1974 48.9501 71.872 48.2455 71.872 47.2215C71.872 46.1701 71.2138 45.471 70.2212 45.471C69.245 45.471 68.5759 46.1646 68.5704 47.1995C68.565 48.2345 69.2395 48.9501 70.2212 48.9501Z" fill="#020202"/>
<path d="M63.5031 44.3589C65.0112 44.3589 66.2068 45.3058 66.4097 46.66C66.7168 48.6859 65.2745 50.2273 63.2343 50.0566C61.8633 49.941 60.8267 49.0877 60.5964 47.8711C60.2235 45.8948 61.4958 44.3589 63.5031 44.3589ZM61.8468 47.205C61.8413 48.2455 62.4994 48.9446 63.4756 48.9446C64.4628 48.9446 65.1428 48.24 65.1483 47.205C65.1538 46.1866 64.4738 45.4654 63.5031 45.4654C62.4994 45.4654 61.8523 46.1481 61.8468 47.205Z" fill="#020202"/>
<path d="M75.6946 39.1017C73.8628 39.1017 72.7495 38.2264 72.4698 36.8006C72.1298 35.0666 73.3363 33.5087 75.0913 33.4041C76.1991 33.338 77.1643 33.6298 77.8279 34.5711C78.5025 35.529 78.5409 36.5804 78.0144 37.6099C77.4879 38.6668 76.5446 39.0742 75.6946 39.1017ZM73.7422 36.1731C73.6928 37.175 74.329 37.9402 75.2448 37.9842C76.2814 38.0393 76.9943 37.3787 77.0437 36.3217C77.0876 35.3418 76.4349 34.5546 75.53 34.5106C74.4771 34.4555 73.7915 35.0886 73.7422 36.1731Z" fill="#020202"/>
<path d="M123.303 50.0676C121.587 50.0731 120.446 49.1648 120.188 47.7225C119.876 45.9664 121.104 44.436 122.886 44.359C124.027 44.3094 125.009 44.6507 125.64 45.6526C126.237 46.605 126.248 47.6234 125.727 48.6033C125.179 49.6437 124.241 50.0456 123.303 50.0676ZM121.466 47.183C121.466 48.2565 122.102 48.9501 123.095 48.9501C124.082 48.9501 124.757 48.2455 124.762 47.205C124.768 46.1866 124.087 45.471 123.117 45.4655C122.124 45.4655 121.471 46.1426 121.466 47.183Z" fill="#020202"/>
<path d="M119.667 33.4591C119.667 35.3253 119.667 37.164 119.667 39.0191C119.289 39.0191 118.916 39.0191 118.521 39.0191C118.521 38.4741 118.521 37.9292 118.521 37.3511C118.044 37.3511 117.594 37.3456 117.144 37.3566C117.068 37.3566 116.98 37.4557 116.925 37.5273C116.629 37.9567 116.333 38.3861 116.053 38.8265C115.954 38.9861 115.839 39.0412 115.653 39.0357C115.291 39.0191 114.929 39.0301 114.512 39.0301C114.962 38.3861 115.384 37.786 115.817 37.175C115.176 36.9328 114.72 36.5364 114.616 35.8318C114.43 34.6152 115.082 33.7234 116.322 33.5252C116.662 33.4701 117.013 33.4646 117.358 33.4591C118.121 33.4536 118.877 33.4591 119.667 33.4591ZM118.504 34.5271C117.857 34.5601 117.232 34.5546 116.618 34.6317C116.13 34.6977 115.905 35.0335 115.91 35.5235C115.916 35.9914 116.146 36.3382 116.629 36.3823C117.249 36.4373 117.879 36.3933 118.504 36.3933C118.504 35.7987 118.504 35.1877 118.504 34.5271Z" fill="#020202"/>
<path d="M165.554 33.4756C165.554 34.2298 165.554 34.962 165.554 35.7107C166.486 35.7107 167.407 35.7107 168.351 35.7107C168.351 34.973 168.351 34.2353 168.351 33.4812C168.79 33.4812 169.206 33.4812 169.64 33.4812C169.64 35.3253 169.64 37.1695 169.64 39.0247C169.217 39.0247 168.8 39.0247 168.362 39.0247C168.362 38.298 168.362 37.5769 168.362 36.8447C167.418 36.8447 166.503 36.8447 165.559 36.8447C165.559 37.5658 165.559 38.2815 165.559 39.0192C165.121 39.0192 164.704 39.0192 164.271 39.0192C164.271 37.1805 164.271 35.3363 164.271 33.4756C164.687 33.4756 165.104 33.4756 165.554 33.4756Z" fill="#010101"/>
<path d="M78.5188 45.537C77.5865 45.537 76.6926 45.537 75.7822 45.537C75.7822 47.0179 75.7822 48.4877 75.7822 49.9795C75.3435 49.9795 74.9267 49.9795 74.4934 49.9795C74.4934 48.1409 74.4934 46.2967 74.4934 44.436C76.2539 44.436 78.0088 44.436 79.7857 44.436C79.7857 46.2747 79.7857 48.1244 79.7857 49.9795C79.3689 49.9795 78.9521 49.9795 78.5188 49.9795C78.5188 48.5042 78.5188 47.0289 78.5188 45.537Z" fill="#010101"/>
<path d="M54.7776 44.4305C55.2054 44.4305 55.6112 44.4305 56.0499 44.4305C56.0499 45.1682 56.0499 45.9059 56.0499 46.6821C56.39 46.6821 56.708 46.6876 57.0206 46.6766C57.081 46.6711 57.1578 46.5995 57.2016 46.5389C57.6733 45.9004 58.1449 45.2563 58.6056 44.6122C58.6988 44.4801 58.7921 44.4195 58.9621 44.425C59.335 44.436 59.7079 44.4305 60.1412 44.4305C59.4611 45.3389 58.7975 46.2196 58.1285 47.1115C58.8359 48.0583 59.5379 49.0107 60.2783 50.0016C59.7628 50.0016 59.2966 50.0071 58.8359 49.9961C58.7646 49.9961 58.6824 49.9135 58.633 49.8474C58.1614 49.2309 57.6952 48.6088 57.2345 47.9812C57.1303 47.8326 57.0206 47.761 56.8287 47.7721C56.5819 47.7886 56.3351 47.7776 56.0664 47.7776C56.0664 48.5207 56.0664 49.2529 56.0664 49.9906C55.6222 49.9906 55.2054 49.9906 54.7776 49.9906C54.7776 48.1354 54.7776 46.2967 54.7776 44.4305Z" fill="#010101"/>
<path d="M125.612 36.8006C125.612 37.5548 125.612 38.2815 125.612 39.0191C125.168 39.0191 124.756 39.0191 124.323 39.0191C124.323 37.1695 124.323 35.3308 124.323 33.4756C124.735 33.4756 125.151 33.4756 125.596 33.4756C125.596 34.2078 125.596 34.94 125.596 35.7162C125.941 35.7162 126.254 35.7272 126.572 35.7107C126.643 35.7051 126.714 35.6171 126.769 35.5455C127.235 34.9124 127.702 34.2794 128.157 33.6408C128.25 33.5087 128.349 33.4536 128.519 33.4591C128.892 33.4701 129.259 33.4646 129.687 33.4646C129.001 34.3784 128.349 35.2482 127.674 36.1455C128.376 37.0924 129.084 38.0448 129.824 39.0357C129.308 39.0357 128.831 39.0412 128.354 39.0302C128.288 39.0302 128.217 38.9256 128.162 38.8595C127.707 38.2595 127.252 37.6649 126.813 37.0594C126.681 36.8777 126.55 36.7841 126.32 36.8061C126.095 36.8171 125.864 36.8006 125.612 36.8006Z" fill="#010101"/>
<path d="M172.694 33.4701C172.694 34.0757 172.694 34.6592 172.694 35.2867C173.155 35.2867 173.61 35.2592 174.06 35.2922C174.455 35.3198 174.866 35.3583 175.234 35.4904C175.952 35.7437 176.303 36.3437 176.292 37.1474C176.281 37.9787 175.875 38.5842 175.124 38.854C174.893 38.9365 174.647 39.0081 174.405 39.0136C173.413 39.0301 172.42 39.0191 171.406 39.0191C171.406 37.1639 171.406 35.3198 171.406 33.4646C171.833 33.4701 172.25 33.4701 172.694 33.4701ZM172.711 38.0447C173.237 38.0447 173.742 38.0833 174.235 38.0337C174.718 37.9842 174.97 37.6319 174.976 37.1364C174.981 36.641 174.762 36.3217 174.263 36.2501C173.753 36.1786 173.232 36.1896 172.705 36.162C172.711 36.8226 172.711 37.4337 172.711 38.0447Z" fill="#030303"/>
<path d="M179.336 33.4591C179.824 33.4591 180.252 33.4536 180.679 33.4646C180.756 33.4701 180.849 33.5527 180.904 33.6242C181.316 34.1637 181.716 34.7032 182.138 35.2812C182.533 34.7528 182.922 34.2518 183.284 33.7343C183.432 33.5196 183.592 33.4371 183.844 33.4536C184.178 33.4756 184.513 33.4591 184.897 33.4591C184.189 34.3894 183.509 35.2812 182.824 36.1841C183.542 37.1254 184.255 38.0612 184.995 39.0356C184.507 39.0356 184.069 39.0411 183.624 39.0301C183.553 39.0301 183.471 38.9476 183.422 38.887C182.983 38.3035 182.55 37.7144 182.1 37.1089C181.661 37.6979 181.228 38.2704 180.806 38.854C180.701 38.9971 180.592 39.0466 180.422 39.0411C180.043 39.0301 179.659 39.0356 179.226 39.0356C179.961 38.0723 180.668 37.1419 181.387 36.2061C180.723 35.3033 180.049 34.4059 179.336 33.4591Z" fill="#020202"/>
<path d="M65.8613 34.6922C65.5323 34.8849 65.2196 35.0665 64.8851 35.2647C64.4957 34.7142 63.9692 34.45 63.2947 34.5105C62.8559 34.5491 62.4885 34.7362 62.2033 35.0665C61.5946 35.7712 61.6823 37.0153 62.3678 37.6043C63.1027 38.2374 64.1722 38.0833 64.8851 37.2245C65.1977 37.4062 65.5158 37.5933 65.8339 37.775C65.6419 38.4301 64.6767 39.2503 63.0534 39.0852C61.6823 38.942 60.6239 37.9071 60.4977 36.5419C60.3661 35.0941 61.1832 33.8995 62.5598 33.5141C63.9528 33.1288 65.3458 33.6187 65.8613 34.6922Z" fill="#020202"/>
<path d="M71.8336 34.6922C71.4991 34.8849 71.1755 35.0721 70.8574 35.2592C70.0622 34.3729 69.0037 34.2573 68.2798 34.9565C67.6162 35.6005 67.5943 36.8887 68.2359 37.5273C68.9544 38.2429 70.0622 38.1273 70.8629 37.2355C71.181 37.4227 71.4991 37.6099 71.8226 37.7915C71.4497 38.7329 70.1774 39.2889 68.8995 39.0742C67.5065 38.8375 66.5249 37.797 66.47 36.5034C66.3987 34.9895 67.1885 33.872 68.5815 33.5087C69.9525 33.1398 71.2907 33.6188 71.8336 34.6922Z" fill="#020202"/>
<path d="M103.982 49.985C103.538 49.985 103.121 49.985 102.688 49.985C102.688 48.5042 102.688 47.0344 102.688 45.5315C102.03 45.5315 101.383 45.5315 100.736 45.5315C100.736 45.1517 100.736 44.8049 100.736 44.4415C102.452 44.4415 104.174 44.4415 105.913 44.4415C105.913 44.7883 105.913 45.1407 105.913 45.5205C105.277 45.5205 104.646 45.5205 103.982 45.5205C103.982 47.0179 103.982 48.4987 103.982 49.985Z" fill="#010101"/>
<path d="M163.3 33.4756C163.3 33.839 163.3 34.1913 163.3 34.5656C162.653 34.5656 162.022 34.5656 161.364 34.5656C161.364 36.0575 161.364 37.5328 161.364 39.0192C160.92 39.0192 160.497 39.0192 160.053 39.0192C160.053 37.5383 160.053 36.063 160.053 34.5711C159.4 34.5711 158.764 34.5711 158.117 34.5711C158.117 34.1968 158.117 33.8445 158.117 33.4756C159.845 33.4756 161.567 33.4756 163.3 33.4756Z" fill="#010101"/>
<path d="M178.294 39.0247C177.866 39.0247 177.46 39.0247 177.038 39.0247C177.038 37.175 177.038 35.3308 177.038 33.4756C177.455 33.4756 177.871 33.4756 178.294 33.4756C178.294 35.3198 178.294 37.1585 178.294 39.0247Z" fill="black"/>
</g>
<defs>
<clipPath id="clip0_352_258">
<rect width="185" height="52" fill="white" transform="translate(0.000976562 -0.00012207)"/>
</clipPath>
</defs>
</svg>
