<svg width="309" height="35" viewBox="0 0 309 35" fill="none" xmlns="http://www.w3.org/2000/svg">
<path d="M57.586 28.882H54.99C54.7407 28.882 54.616 28.75 54.616 28.486V26H45.024C44.76 26 44.628 25.868 44.628 25.604V10.666C44.628 10.402 44.76 10.27 45.024 10.27H47.774C48.038 10.27 48.17 10.402 48.17 10.666V22.678H52.966V10.666C52.966 10.402 53.0907 10.27 53.34 10.27H56.112C56.3613 10.27 56.486 10.402 56.486 10.666V22.678H57.586C57.8353 22.678 57.96 22.8027 57.96 23.052V28.486C57.96 28.75 57.8353 28.882 57.586 28.882ZM63.0171 26H60.3331C60.0691 26 59.9371 25.868 59.9371 25.604V14.934C59.9371 14.6847 60.0691 14.56 60.3331 14.56H62.8631C63.1271 14.56 63.2591 14.6847 63.2591 14.934V18.388C63.2591 19.1067 63.2444 20.038 63.2151 21.182H63.2371C63.6037 20.3607 64.1757 19.2827 64.9531 17.948L66.6911 14.824C66.7644 14.648 66.9111 14.56 67.1311 14.56H69.8591C70.1231 14.56 70.2551 14.6847 70.2551 14.934V25.604C70.2551 25.868 70.1231 26 69.8591 26H67.3291C67.0797 26 66.9551 25.868 66.9551 25.604V22.15C66.9551 21.3433 66.9697 20.4267 66.9991 19.4H66.9771C66.6251 20.236 66.0457 21.336 65.2391 22.7L63.4791 25.736C63.3911 25.912 63.2371 26 63.0171 26ZM81.3003 30.18H78.7703C78.5209 30.18 78.3963 30.0553 78.3963 29.806V26H77.0763C75.7563 26 74.6343 25.5893 73.7103 24.768C72.7863 23.9467 72.3243 22.744 72.3243 21.16V19.422C72.3243 17.838 72.7863 16.6353 73.7103 15.814C74.6489 14.978 75.8076 14.56 77.1863 14.56H78.3963V10.666C78.3963 10.402 78.5209 10.27 78.7703 10.27H81.3003C81.5496 10.27 81.6743 10.402 81.6743 10.666V14.56H82.9723C84.3363 14.56 85.4656 14.978 86.3603 15.814C87.2696 16.6353 87.7243 17.838 87.7243 19.422V21.16C87.7243 22.744 87.2696 23.9467 86.3603 24.768C85.4509 25.5893 84.3509 26 83.0603 26H81.6743V29.806C81.6743 30.0553 81.5496 30.18 81.3003 30.18ZM75.6463 21.16C75.6463 21.82 75.8003 22.304 76.1083 22.612C76.4163 22.9053 76.8783 23.052 77.4943 23.052H78.3963V17.486H77.4283C76.2403 17.486 75.6463 18.1167 75.6463 19.378V21.16ZM81.6743 23.052H82.5543C83.8009 23.052 84.4243 22.4213 84.4243 21.16V19.378C84.4243 18.1167 83.8303 17.486 82.6423 17.486H81.6743V23.052ZM90.0638 15.088C91.5452 14.5307 93.0998 14.252 94.7278 14.252C96.2972 14.252 97.5585 14.6993 98.5118 15.594C99.4652 16.474 99.9418 17.6913 99.9418 19.246V21.424C99.9418 22.9053 99.5018 24.086 98.6218 24.966C97.7418 25.846 96.5905 26.286 95.1678 26.286C94.4492 26.286 93.7745 26.1613 93.1438 25.912V29.784C93.1438 30.048 93.0192 30.18 92.7698 30.18H90.1738C89.9098 30.18 89.7778 30.048 89.7778 29.784V15.506C89.7778 15.286 89.8732 15.1467 90.0638 15.088ZM94.6838 23.36C95.9158 23.36 96.5318 22.7367 96.5318 21.49V19.18C96.5318 17.8893 95.9085 17.244 94.6618 17.244C94.0898 17.244 93.5838 17.3247 93.1438 17.486V22.986C93.5692 23.2353 94.0825 23.36 94.6838 23.36ZM112.123 21.622C112.123 23.074 111.654 24.218 110.715 25.054C109.791 25.8753 108.522 26.286 106.909 26.286C105.296 26.286 104.02 25.8753 103.081 25.054C102.142 24.218 101.673 23.074 101.673 21.622V18.982C101.673 17.5153 102.142 16.364 103.081 15.528C104.02 14.6773 105.296 14.252 106.909 14.252C108.522 14.252 109.791 14.6773 110.715 15.528C111.654 16.364 112.123 17.5153 112.123 18.982V21.622ZM105.105 21.622C105.105 22.7513 105.706 23.316 106.909 23.316C108.112 23.316 108.713 22.7513 108.713 21.622V18.982C108.713 18.4247 108.559 17.9993 108.251 17.706C107.943 17.398 107.496 17.244 106.909 17.244C106.322 17.244 105.875 17.398 105.567 17.706C105.259 17.9993 105.105 18.4247 105.105 18.982V21.622ZM119.552 26H114.624C114.36 26 114.228 25.868 114.228 25.604V14.934C114.228 14.6847 114.36 14.56 114.624 14.56H119.398C120.791 14.56 121.877 14.8387 122.654 15.396C123.446 15.9533 123.842 16.7307 123.842 17.728C123.842 18.6813 123.402 19.422 122.522 19.95C123.637 20.434 124.194 21.3287 124.194 22.634C124.194 23.6753 123.776 24.4967 122.94 25.098C122.119 25.6993 120.989 26 119.552 26ZM117.572 17.068V19.07H119.222C120.073 19.07 120.498 18.7327 120.498 18.058C120.498 17.398 120.065 17.068 119.2 17.068H117.572ZM117.572 21.292V23.492H119.31C120.307 23.492 120.806 23.118 120.806 22.37C120.806 21.6513 120.307 21.292 119.31 21.292H117.572ZM136.271 21.622C136.271 23.074 135.802 24.218 134.863 25.054C133.939 25.8753 132.671 26.286 131.057 26.286C129.444 26.286 128.168 25.8753 127.229 25.054C126.291 24.218 125.821 23.074 125.821 21.622V18.982C125.821 17.5153 126.291 16.364 127.229 15.528C128.168 14.6773 129.444 14.252 131.057 14.252C132.671 14.252 133.939 14.6773 134.863 15.528C135.802 16.364 136.271 17.5153 136.271 18.982V21.622ZM129.253 21.622C129.253 22.7513 129.855 23.316 131.057 23.316C132.26 23.316 132.861 22.7513 132.861 21.622V18.982C132.861 18.4247 132.707 17.9993 132.399 17.706C132.091 17.398 131.644 17.244 131.057 17.244C130.471 17.244 130.023 17.398 129.715 17.706C129.407 17.9993 129.253 18.4247 129.253 18.982V21.622ZM141.457 26H138.773C138.509 26 138.377 25.868 138.377 25.604V14.934C138.377 14.6847 138.509 14.56 138.773 14.56H141.303C141.567 14.56 141.699 14.6847 141.699 14.934V18.388C141.699 19.1067 141.684 20.038 141.655 21.182H141.677C142.043 20.3607 142.615 19.2827 143.393 17.948L145.131 14.824C145.204 14.648 145.351 14.56 145.571 14.56H148.299C148.563 14.56 148.695 14.6847 148.695 14.934V25.604C148.695 25.868 148.563 26 148.299 26H145.769C145.519 26 145.395 25.868 145.395 25.604V22.15C145.395 21.3433 145.409 20.4267 145.439 19.4H145.417C145.065 20.236 144.485 21.336 143.679 22.7L141.919 25.736C141.831 25.912 141.677 26 141.457 26ZM147.243 10.49C147.125 11.4287 146.744 12.162 146.099 12.69C145.468 13.218 144.617 13.482 143.547 13.482C142.476 13.482 141.618 13.2253 140.973 12.712C140.342 12.184 139.968 11.458 139.851 10.534C139.807 10.2993 139.917 10.1527 140.181 10.094L141.809 9.83C142.029 9.786 142.175 9.88867 142.249 10.138C142.425 10.7833 142.857 11.106 143.547 11.106C144.265 11.106 144.698 10.7833 144.845 10.138C144.933 9.88867 145.087 9.786 145.307 9.83L146.913 10.094C147.177 10.1527 147.287 10.2847 147.243 10.49ZM159.257 26H156.485C156.221 26 156.089 25.868 156.089 25.604V10.666C156.089 10.402 156.221 10.27 156.485 10.27H167.749C168.013 10.27 168.145 10.402 168.145 10.666V25.604C168.145 25.868 168.013 26 167.749 26H164.999C164.735 26 164.603 25.868 164.603 25.604V13.548H159.631V25.604C159.631 25.868 159.506 26 159.257 26ZM177.308 22.502V14.934C177.308 14.6847 177.44 14.56 177.704 14.56H180.3C180.549 14.56 180.674 14.6847 180.674 14.934V24.9C180.674 26.8213 180.256 28.222 179.42 29.102C178.584 29.9967 177.264 30.444 175.46 30.444C173.656 30.444 172.197 30.0407 171.082 29.234C170.862 29.102 170.825 28.926 170.972 28.706L172.138 26.924C172.27 26.7333 172.439 26.6893 172.644 26.792C173.48 27.2907 174.367 27.54 175.306 27.54C176.01 27.54 176.531 27.3787 176.868 27.056C177.22 26.7333 177.389 26.1833 177.374 25.406C176.655 25.6113 175.988 25.714 175.372 25.714C174.008 25.714 172.886 25.296 172.006 24.46C171.126 23.6093 170.686 22.458 170.686 21.006V14.934C170.686 14.6847 170.818 14.56 171.082 14.56H173.678C173.927 14.56 174.052 14.6847 174.052 14.934V20.94C174.052 22.1867 174.661 22.81 175.878 22.81C176.45 22.81 176.927 22.7073 177.308 22.502ZM188.342 26H185.746C185.482 26 185.35 25.868 185.35 25.604V17.486H182.622C182.373 17.486 182.248 17.354 182.248 17.09V14.934C182.248 14.6847 182.373 14.56 182.622 14.56H191.422C191.686 14.56 191.818 14.6847 191.818 14.934V17.09C191.818 17.354 191.686 17.486 191.422 17.486H188.716V25.604C188.716 25.868 188.592 26 188.342 26ZM198.678 26H193.794C193.53 26 193.398 25.868 193.398 25.604V14.934C193.398 14.6847 193.53 14.56 193.794 14.56H196.368C196.632 14.56 196.764 14.6847 196.764 14.934V18.19H198.678C200.013 18.19 201.098 18.5347 201.934 19.224C202.785 19.8987 203.21 20.8667 203.21 22.128C203.21 23.4187 202.792 24.3867 201.956 25.032C201.12 25.6773 200.027 26 198.678 26ZM196.764 20.808V23.338H198.15C199.265 23.338 199.822 22.9127 199.822 22.062C199.822 21.226 199.265 20.808 198.15 20.808H196.764Z" fill="#262626"/>
<path fill-rule="evenodd" clip-rule="evenodd" d="M15.5838 8.49769L6.61224 11.6641C6.04584 11.864 5.66706 12.3994 5.66706 13V23.626L3.68284 24.4937C2.96598 24.8071 2.63894 25.6423 2.95239 26.3592C3.26586 27.0762 4.10109 27.4031 4.81796 27.0896L6.93678 26.1633L16.3973 30.6151C16.7792 30.7949 17.2216 30.7949 17.6037 30.6151L27.064 26.1633L29.1828 27.0896C29.8996 27.4031 30.7349 27.0762 31.0484 26.3592C31.3619 25.6423 31.0348 24.8071 30.318 24.4937L28.3338 23.626V13C28.3338 12.3994 27.955 11.864 27.3886 11.6641L18.4171 8.49768V6.66667C18.4171 5.88426 17.7828 5.25 17.0005 5.25C16.218 5.25 15.5838 5.88427 15.5838 6.66667V8.49769ZM17.0005 15.757L10.8224 13.1828L16.5289 11.1687C16.834 11.061 17.1668 11.061 17.4719 11.1687L23.1784 13.1828L17.0005 15.757ZM18.4171 18.2362L25.5005 15.2847V23.7677L18.4171 27.1009V18.2362ZM15.5838 18.2362L8.5004 15.2847V23.7677L15.5838 27.1009V18.2362Z" fill="url(#paint0_linear_314_1988)"/>
<path d="M229.78 11.82H233.74C233.84 11.82 233.89 11.8667 233.89 11.96V16.85C233.89 16.95 233.84 17 233.74 17H232.88C232.78 17 232.73 16.95 232.73 16.85V12.84H230.79V16.85C230.79 16.95 230.743 17 230.65 17H229.78C229.68 17 229.63 16.95 229.63 16.85V11.96C229.63 11.8667 229.68 11.82 229.78 11.82ZM239.538 15.1C239.538 15.72 239.331 16.2133 238.918 16.58C238.504 16.94 237.951 17.12 237.258 17.12C236.564 17.12 236.011 16.94 235.598 16.58C235.184 16.2133 234.978 15.72 234.978 15.1V13.76C234.978 13.1333 235.184 12.6333 235.598 12.26C236.011 11.8867 236.564 11.7 237.258 11.7C237.951 11.7 238.504 11.8867 238.918 12.26C239.331 12.6333 239.538 13.1333 239.538 13.76V15.1ZM236.148 15.1C236.148 15.7533 236.518 16.08 237.258 16.08C237.618 16.08 237.891 15.9967 238.078 15.83C238.271 15.6633 238.368 15.42 238.368 15.1V13.76C238.368 13.4333 238.271 13.1833 238.078 13.01C237.884 12.83 237.611 12.74 237.258 12.74C236.898 12.74 236.621 12.8267 236.428 13C236.241 13.1733 236.148 13.4267 236.148 13.76V15.1ZM242.628 17H241.768C241.668 17 241.618 16.95 241.618 16.85V12.84H240.218C240.118 12.84 240.068 12.79 240.068 12.69V11.96C240.068 11.8667 240.118 11.82 240.218 11.82H244.168C244.268 11.82 244.318 11.8667 244.318 11.96V12.69C244.318 12.79 244.268 12.84 244.168 12.84H242.778V16.85C242.778 16.95 242.728 17 242.628 17ZM245.209 12.06C245.822 11.82 246.495 11.7 247.229 11.7C247.922 11.7 248.479 11.8833 248.899 12.25C249.319 12.6167 249.529 13.1633 249.529 13.89V14.99C249.529 15.6367 249.322 16.1533 248.909 16.54C248.495 16.9267 247.965 17.12 247.319 17.12C246.952 17.12 246.599 17.0467 246.259 16.9V18.75C246.259 18.85 246.209 18.9 246.109 18.9H245.249C245.149 18.9 245.099 18.85 245.099 18.75V12.22C245.099 12.14 245.135 12.0867 245.209 12.06ZM247.219 16.1C247.972 16.1 248.349 15.7333 248.349 15V13.88C248.349 13.4667 248.252 13.17 248.059 12.99C247.865 12.81 247.579 12.72 247.199 12.72C246.799 12.72 246.485 12.7667 246.259 12.86V15.82C246.532 16.0067 246.852 16.1 247.219 16.1ZM254.807 13.75V14.76C254.807 14.8533 254.757 14.9 254.657 14.9H251.617V15.18C251.617 15.48 251.71 15.71 251.897 15.87C252.09 16.0233 252.35 16.1 252.677 16.1C253.163 16.1 253.633 15.9467 254.087 15.64C254.167 15.5867 254.233 15.5967 254.287 15.67L254.697 16.22C254.763 16.2933 254.753 16.3633 254.667 16.43C254.087 16.89 253.41 17.12 252.637 17.12C252.023 17.12 251.503 16.9533 251.077 16.62C250.657 16.28 250.447 15.7967 250.447 15.17V13.75C250.447 13.0633 250.66 12.55 251.087 12.21C251.513 11.87 252.033 11.7 252.647 11.7C253.253 11.7 253.763 11.87 254.177 12.21C254.597 12.55 254.807 13.0633 254.807 13.75ZM253.677 13.74C253.677 13.3933 253.58 13.1367 253.387 12.97C253.193 12.8033 252.947 12.72 252.647 12.72C251.96 12.72 251.617 13.06 251.617 13.74V14H253.677V13.74ZM256.971 12.32C257.317 12.1533 257.704 12.07 258.131 12.07C258.764 12.07 259.277 12.25 259.671 12.61C260.064 12.9633 260.261 13.4667 260.261 14.12V15.01C260.261 15.71 260.044 16.2367 259.611 16.59C259.184 16.9433 258.651 17.12 258.011 17.12C257.391 17.12 256.867 16.9433 256.441 16.59C256.021 16.23 255.811 15.7 255.811 15V11.98C255.811 11.3667 256.011 10.8833 256.411 10.53C256.817 10.1767 257.297 9.94667 257.851 9.84C258.644 9.7 259.147 9.57667 259.361 9.47C259.454 9.43 259.521 9.44667 259.561 9.52L259.931 10.15C259.971 10.2433 259.954 10.31 259.881 10.35C259.647 10.4833 259.107 10.6467 258.261 10.84C258.074 10.8867 257.917 10.9333 257.791 10.98C257.664 11.0267 257.531 11.0933 257.391 11.18C257.251 11.2667 257.144 11.38 257.071 11.52C257.004 11.66 256.971 11.8267 256.971 12.02V12.32ZM258.001 16.08C258.314 16.08 258.571 15.9933 258.771 15.82C258.977 15.6467 259.081 15.38 259.081 15.02V14.14C259.081 13.42 258.727 13.06 258.021 13.06C257.627 13.06 257.277 13.14 256.971 13.3V15.01C256.971 15.3767 257.067 15.6467 257.261 15.82C257.454 15.9933 257.701 16.08 258.001 16.08ZM262.479 17H261.489C261.389 17 261.339 16.95 261.339 16.85V11.96C261.339 11.8667 261.389 11.82 261.489 11.82H262.339C262.439 11.82 262.489 11.8667 262.489 11.96V14C262.489 14.3933 262.482 14.8433 262.469 15.35H262.479C262.672 14.9233 262.989 14.3467 263.429 13.62L264.429 11.91C264.482 11.85 264.542 11.82 264.609 11.82H265.609C265.709 11.82 265.759 11.8667 265.759 11.96V16.85C265.759 16.95 265.709 17 265.609 17H264.759C264.659 17 264.609 16.95 264.609 16.85V14.84C264.609 14.4467 264.616 14.01 264.629 13.53H264.619C264.486 13.8367 264.172 14.4 263.679 15.22L262.659 16.9C262.619 16.9667 262.559 17 262.479 17ZM269.113 17H268.253C268.153 17 268.103 16.95 268.103 16.85V12.84H266.703C266.603 12.84 266.553 12.79 266.553 12.69V11.96C266.553 11.8667 266.603 11.82 266.703 11.82H270.653C270.753 11.82 270.803 11.8667 270.803 11.96V12.69C270.803 12.79 270.753 12.84 270.653 12.84H269.263V16.85C269.263 16.95 269.213 17 269.113 17ZM275.705 13.75V14.76C275.705 14.8533 275.655 14.9 275.555 14.9H272.515V15.18C272.515 15.48 272.608 15.71 272.795 15.87C272.988 16.0233 273.248 16.1 273.575 16.1C274.062 16.1 274.532 15.9467 274.985 15.64C275.065 15.5867 275.132 15.5967 275.185 15.67L275.595 16.22C275.662 16.2933 275.652 16.3633 275.565 16.43C274.985 16.89 274.308 17.12 273.535 17.12C272.922 17.12 272.402 16.9533 271.975 16.62C271.555 16.28 271.345 15.7967 271.345 15.17V13.75C271.345 13.0633 271.558 12.55 271.985 12.21C272.412 11.87 272.932 11.7 273.545 11.7C274.152 11.7 274.662 11.87 275.075 12.21C275.495 12.55 275.705 13.0633 275.705 13.75ZM274.575 13.74C274.575 13.3933 274.478 13.1367 274.285 12.97C274.092 12.8033 273.845 12.72 273.545 12.72C272.858 12.72 272.515 13.06 272.515 13.74V14H274.575V13.74ZM278.219 15.3C278.092 15.9333 277.899 16.38 277.639 16.64C277.379 16.8933 276.966 17.03 276.399 17.05C276.306 17.05 276.259 17 276.259 16.9V16.17C276.259 16.0833 276.306 16.03 276.399 16.01C276.592 15.9967 276.742 15.9167 276.849 15.77C276.962 15.6233 277.056 15.36 277.129 14.98C277.242 14.32 277.326 13.3133 277.379 11.96C277.392 11.8667 277.442 11.82 277.529 11.82H280.929C281.029 11.82 281.079 11.8667 281.079 11.96V16.85C281.079 16.95 281.029 17 280.929 17H280.069C279.969 17 279.919 16.95 279.919 16.85V12.84H278.459C278.426 13.7933 278.346 14.6133 278.219 15.3ZM284.555 17H282.485C282.385 17 282.335 16.95 282.335 16.85V11.96C282.335 11.8667 282.385 11.82 282.485 11.82H283.345C283.445 11.82 283.495 11.8667 283.495 11.96V13.5H284.555C285.168 13.5 285.662 13.6567 286.035 13.97C286.415 14.2833 286.605 14.7167 286.605 15.27C286.605 15.8633 286.422 16.3 286.055 16.58C285.695 16.86 285.195 17 284.555 17ZM283.495 14.45V16.04H284.355C285.075 16.04 285.435 15.7767 285.435 15.25C285.442 14.9767 285.355 14.7767 285.175 14.65C284.995 14.5167 284.722 14.45 284.355 14.45H283.495ZM291.331 16.56C290.805 16.9333 290.215 17.12 289.561 17.12C288.868 17.12 288.321 16.9367 287.921 16.57C287.521 16.2033 287.321 15.7133 287.321 15.1V13.71C287.321 13.0967 287.521 12.61 287.921 12.25C288.321 11.8833 288.865 11.7 289.551 11.7C290.131 11.7 290.678 11.86 291.191 12.18C291.271 12.2333 291.285 12.3033 291.231 12.39L290.841 12.99C290.788 13.0633 290.718 13.0767 290.631 13.03C290.298 12.8367 289.948 12.74 289.581 12.74C289.228 12.74 288.955 12.8233 288.761 12.99C288.575 13.1567 288.481 13.3967 288.481 13.71V15.11C288.481 15.4167 288.575 15.6567 288.761 15.83C288.955 15.9967 289.225 16.08 289.571 16.08C289.978 16.08 290.365 15.96 290.731 15.72C290.825 15.6667 290.895 15.68 290.941 15.76L291.361 16.36C291.415 16.44 291.405 16.5067 291.331 16.56ZM296.498 17H295.488C295.401 17 295.341 16.97 295.308 16.91L293.748 14.86L293.338 15.3V16.85C293.338 16.95 293.288 17 293.188 17H292.358C292.258 17 292.208 16.95 292.208 16.85V11.97C292.208 11.87 292.258 11.82 292.358 11.82H293.188C293.288 11.82 293.338 11.87 293.338 11.97V13.9L295.128 11.9C295.168 11.8467 295.228 11.82 295.308 11.82H296.318C296.385 11.82 296.425 11.8367 296.438 11.87C296.458 11.9033 296.448 11.9467 296.408 12L294.518 14.05L296.598 16.82C296.671 16.94 296.638 17 296.498 17ZM298.407 17H297.417C297.317 17 297.267 16.95 297.267 16.85V11.96C297.267 11.8667 297.317 11.82 297.417 11.82H298.267C298.367 11.82 298.417 11.8667 298.417 11.96V14C298.417 14.3933 298.41 14.8433 298.397 15.35H298.407C298.6 14.9233 298.917 14.3467 299.357 13.62L300.357 11.91C300.41 11.85 300.47 11.82 300.537 11.82H301.537C301.637 11.82 301.687 11.8667 301.687 11.96V16.85C301.687 16.95 301.637 17 301.537 17H300.687C300.587 17 300.537 16.95 300.537 16.85V14.84C300.537 14.4467 300.543 14.01 300.557 13.53H300.547C300.413 13.8367 300.1 14.4 299.607 15.22L298.587 16.9C298.547 16.9667 298.487 17 298.407 17ZM304.09 17H303.1C303 17 302.95 16.95 302.95 16.85V11.96C302.95 11.8667 303 11.82 303.1 11.82H303.95C304.05 11.82 304.1 11.8667 304.1 11.96V14C304.1 14.3933 304.094 14.8433 304.08 15.35H304.09C304.284 14.9233 304.6 14.3467 305.04 13.62L306.04 11.91C306.094 11.85 306.154 11.82 306.22 11.82H307.22C307.32 11.82 307.37 11.8667 307.37 11.96V16.85C307.37 16.95 307.32 17 307.22 17H306.37C306.27 17 306.22 16.95 306.22 16.85V14.84C306.22 14.4467 306.227 14.01 306.24 13.53H306.23C306.097 13.8367 305.784 14.4 305.29 15.22L304.27 16.9C304.23 16.9667 304.17 17 304.09 17ZM306.72 9.8C306.667 10.2133 306.5 10.5433 306.22 10.79C305.947 11.03 305.577 11.15 305.11 11.15C304.644 11.15 304.274 11.03 304 10.79C303.727 10.55 303.564 10.2267 303.51 9.82C303.497 9.72 303.54 9.66333 303.64 9.65L304.2 9.57C304.287 9.56333 304.34 9.60333 304.36 9.69C304.454 10.09 304.704 10.29 305.11 10.29C305.517 10.29 305.767 10.09 305.86 9.69C305.88 9.60333 305.937 9.56333 306.03 9.57L306.58 9.65C306.68 9.66333 306.727 9.71333 306.72 9.8ZM233.92 28H232.91C232.823 28 232.763 27.97 232.73 27.91L231.17 25.86L230.76 26.3V27.85C230.76 27.95 230.71 28 230.61 28H229.78C229.68 28 229.63 27.95 229.63 27.85V22.97C229.63 22.87 229.68 22.82 229.78 22.82H230.61C230.71 22.82 230.76 22.87 230.76 22.97V24.9L232.55 22.9C232.59 22.8467 232.65 22.82 232.73 22.82H233.74C233.807 22.82 233.847 22.8367 233.86 22.87C233.88 22.9033 233.87 22.9467 233.83 23L231.94 25.05L234.02 27.82C234.093 27.94 234.06 28 233.92 28ZM238.844 26.1C238.844 26.72 238.638 27.2133 238.224 27.58C237.811 27.94 237.258 28.12 236.564 28.12C235.871 28.12 235.318 27.94 234.904 27.58C234.491 27.2133 234.284 26.72 234.284 26.1V24.76C234.284 24.1333 234.491 23.6333 234.904 23.26C235.318 22.8867 235.871 22.7 236.564 22.7C237.258 22.7 237.811 22.8867 238.224 23.26C238.638 23.6333 238.844 24.1333 238.844 24.76V26.1ZM235.454 26.1C235.454 26.7533 235.824 27.08 236.564 27.08C236.924 27.08 237.198 26.9967 237.384 26.83C237.578 26.6633 237.674 26.42 237.674 26.1V24.76C237.674 24.4333 237.578 24.1833 237.384 24.01C237.191 23.83 236.918 23.74 236.564 23.74C236.204 23.74 235.928 23.8267 235.734 24C235.548 24.1733 235.454 24.4267 235.454 24.76V26.1ZM244.323 26.1C244.323 26.72 244.116 27.2133 243.703 27.58C243.289 27.94 242.736 28.12 242.043 28.12C241.349 28.12 240.796 27.94 240.383 27.58C239.969 27.2133 239.763 26.72 239.763 26.1V24.76C239.763 24.1333 239.969 23.6333 240.383 23.26C240.796 22.8867 241.349 22.7 242.043 22.7C242.736 22.7 243.289 22.8867 243.703 23.26C244.116 23.6333 244.323 24.1333 244.323 24.76V26.1ZM240.933 26.1C240.933 26.7533 241.303 27.08 242.043 27.08C242.403 27.08 242.676 26.9967 242.863 26.83C243.056 26.6633 243.153 26.42 243.153 26.1V24.76C243.153 24.4333 243.056 24.1833 242.863 24.01C242.669 23.83 242.396 23.74 242.043 23.74C241.683 23.74 241.406 23.8267 241.213 24C241.026 24.1733 240.933 24.4267 240.933 24.76V26.1ZM245.561 22.82H249.521C249.621 22.82 249.671 22.8667 249.671 22.96V27.85C249.671 27.95 249.621 28 249.521 28H248.661C248.561 28 248.511 27.95 248.511 27.85V23.84H246.571V27.85C246.571 27.95 246.525 28 246.431 28H245.561C245.461 28 245.411 27.95 245.411 27.85V22.96C245.411 22.8667 245.461 22.82 245.561 22.82ZM255.129 24.75V25.76C255.129 25.8533 255.079 25.9 254.979 25.9H251.939V26.18C251.939 26.48 252.032 26.71 252.219 26.87C252.412 27.0233 252.672 27.1 252.999 27.1C253.485 27.1 253.955 26.9467 254.409 26.64C254.489 26.5867 254.555 26.5967 254.609 26.67L255.019 27.22C255.085 27.2933 255.075 27.3633 254.989 27.43C254.409 27.89 253.732 28.12 252.959 28.12C252.345 28.12 251.825 27.9533 251.399 27.62C250.979 27.28 250.769 26.7967 250.769 26.17V24.75C250.769 24.0633 250.982 23.55 251.409 23.21C251.835 22.87 252.355 22.7 252.969 22.7C253.575 22.7 254.085 22.87 254.499 23.21C254.919 23.55 255.129 24.0633 255.129 24.75ZM253.999 24.74C253.999 24.3933 253.902 24.1367 253.709 23.97C253.515 23.8033 253.269 23.72 252.969 23.72C252.282 23.72 251.939 24.06 251.939 24.74V25H253.999V24.74ZM256.273 23.06C256.886 22.82 257.56 22.7 258.293 22.7C258.986 22.7 259.543 22.8833 259.963 23.25C260.383 23.6167 260.593 24.1633 260.593 24.89V25.99C260.593 26.6367 260.386 27.1533 259.973 27.54C259.56 27.9267 259.03 28.12 258.383 28.12C258.016 28.12 257.663 28.0467 257.323 27.9V29.75C257.323 29.85 257.273 29.9 257.173 29.9H256.313C256.213 29.9 256.163 29.85 256.163 29.75V23.22C256.163 23.14 256.2 23.0867 256.273 23.06ZM258.283 27.1C259.036 27.1 259.413 26.7333 259.413 26V24.88C259.413 24.4667 259.316 24.17 259.123 23.99C258.93 23.81 258.643 23.72 258.263 23.72C257.863 23.72 257.55 23.7667 257.323 23.86V26.82C257.596 27.0067 257.916 27.1 258.283 27.1ZM261.631 23.23C262.144 22.8767 262.798 22.7 263.591 22.7C264.238 22.7 264.744 22.87 265.111 23.21C265.484 23.5433 265.671 24.05 265.671 24.73V27.65C265.671 27.73 265.634 27.7867 265.561 27.82C264.914 28.02 264.244 28.12 263.551 28.12C262.904 28.12 262.371 27.9867 261.951 27.72C261.531 27.4533 261.321 27.03 261.321 26.45C261.321 25.9233 261.518 25.5267 261.911 25.26C262.311 24.9867 262.844 24.85 263.511 24.85C263.778 24.85 264.111 24.8767 264.511 24.93V24.74C264.511 24.38 264.434 24.1233 264.281 23.97C264.134 23.81 263.878 23.73 263.511 23.73C263.018 23.73 262.591 23.8367 262.231 24.05C262.151 24.11 262.084 24.0967 262.031 24.01L261.631 23.4C261.584 23.3267 261.584 23.27 261.631 23.23ZM262.491 26.44C262.491 26.6667 262.588 26.8367 262.781 26.95C262.974 27.0567 263.231 27.11 263.551 27.11C263.858 27.11 264.178 27.07 264.511 26.99V25.86C264.151 25.8067 263.828 25.78 263.541 25.78C262.841 25.78 262.491 26 262.491 26.44ZM268.888 28H268.028C267.928 28 267.878 27.95 267.878 27.85V23.84H266.478C266.378 23.84 266.328 23.79 266.328 23.69V22.96C266.328 22.8667 266.378 22.82 266.478 22.82H270.428C270.528 22.82 270.578 22.8667 270.578 22.96V23.69C270.578 23.79 270.528 23.84 270.428 23.84H269.038V27.85C269.038 27.95 268.988 28 268.888 28ZM272.508 28H271.518C271.418 28 271.368 27.95 271.368 27.85V22.96C271.368 22.8667 271.418 22.82 271.518 22.82H272.368C272.468 22.82 272.518 22.8667 272.518 22.96V25C272.518 25.3933 272.512 25.8433 272.498 26.35H272.508C272.702 25.9233 273.018 25.3467 273.458 24.62L274.458 22.91C274.512 22.85 274.572 22.82 274.638 22.82H275.638C275.738 22.82 275.788 22.8667 275.788 22.96V27.85C275.788 27.95 275.738 28 275.638 28H274.788C274.688 28 274.638 27.95 274.638 27.85V25.84C274.638 25.4467 274.645 25.01 274.658 24.53H274.648C274.515 24.8367 274.202 25.4 273.708 26.22L272.688 27.9C272.648 27.9667 272.588 28 272.508 28ZM279.292 28H277.202C277.102 28 277.052 27.95 277.052 27.85V22.96C277.052 22.8667 277.102 22.82 277.202 22.82H279.292C279.865 22.82 280.319 22.95 280.652 23.21C280.992 23.4633 281.162 23.7967 281.162 24.21C281.162 24.67 280.959 25.02 280.552 25.26C281.079 25.4867 281.342 25.91 281.342 26.53C281.342 26.97 281.155 27.3267 280.782 27.6C280.409 27.8667 279.912 28 279.292 28ZM278.212 23.74V24.92H279.242C279.475 24.92 279.659 24.87 279.792 24.77C279.932 24.6633 280.002 24.5133 280.002 24.32C280.002 23.9333 279.745 23.74 279.232 23.74H278.212ZM278.212 25.77V27.08H279.242C279.862 27.08 280.172 26.8567 280.172 26.41C280.172 25.9833 279.862 25.77 279.242 25.77H278.212Z" fill="#565758"/>
<line x1="216.5" y1="10" x2="216.5" y2="28" stroke="#999999"/>
<defs>
<linearGradient id="paint0_linear_314_1988" x1="-1" y1="35" x2="35.5" y2="9" gradientUnits="userSpaceOnUse">
<stop stop-color="#50CC91"/>
<stop offset="1" stop-color="#0094FF"/>
</linearGradient>
</defs>
</svg>
