<svg width="70" height="70" viewBox="0 0 70 70" fill="none" xmlns="http://www.w3.org/2000/svg">
<circle opacity="0.1" cx="35" cy="35" r="35" fill="#50CC91"/>
<g clip-path="url(#clip0_371_250)">
<path d="M33.75 39.1667C33.5309 39.1669 33.3139 39.1239 33.1114 39.0401C32.9089 38.9563 32.725 38.8334 32.57 38.6784L29.4167 35.5959C29.2587 35.4412 29.1686 35.2301 29.1662 35.0089C29.1639 34.7878 29.2495 34.5748 29.4042 34.4167C29.5589 34.2587 29.7701 34.1686 29.9912 34.1663C30.2123 34.1639 30.4254 34.2495 30.5834 34.4042L33.7442 37.4934L39.4159 31.9101C39.5758 31.7693 39.7836 31.6952 39.9965 31.7029C40.2094 31.7106 40.4112 31.7996 40.5606 31.9515C40.71 32.1034 40.7955 32.3067 40.7995 32.5197C40.8036 32.7327 40.726 32.9392 40.5825 33.0967L34.9217 38.6859C34.7676 38.8392 34.5848 38.9605 34.3838 39.043C34.1827 39.1255 33.9674 39.1676 33.75 39.1667ZM45 40.8334V35.2834C45.0311 32.7146 44.0893 30.2292 42.3636 28.3261C40.638 26.423 38.2563 25.2431 35.6967 25.0234C34.2681 24.9235 32.8347 25.1315 31.4934 25.6335C30.1522 26.1355 28.9344 26.9198 27.9225 27.9332C26.9106 28.9466 26.1281 30.1655 25.6281 31.5075C25.1281 32.8495 24.9221 34.2833 25.0242 35.7117C25.3925 41.0067 30.0684 45.0001 35.9025 45.0001H40.8334C41.938 44.9988 42.9971 44.5593 43.7782 43.7782C44.5593 42.9971 44.9987 41.9381 45 40.8334ZM35.5834 26.6867C37.7221 26.8759 39.71 27.8675 41.1476 29.4622C42.5853 31.0569 43.3661 33.1366 43.3334 35.2834V40.8334C43.3334 41.4965 43.07 42.1323 42.6011 42.6012C42.1323 43.07 41.4964 43.3334 40.8334 43.3334H35.9025C30.8742 43.3334 27 40.0834 26.6875 35.5967C26.6055 34.4539 26.76 33.3064 27.1414 32.226C27.5229 31.1455 28.123 30.1554 28.9044 29.3173C29.6857 28.4793 30.6315 27.8113 31.6826 27.3553C32.7337 26.8992 33.8676 26.6648 35.0134 26.6667C35.2025 26.6667 35.3934 26.6742 35.5834 26.6867Z" fill="#33CC80"/>
</g>
<defs>
<clipPath id="clip0_371_250">
<rect width="20" height="20" fill="white" transform="translate(25 25)"/>
</clipPath>
</defs>
</svg>
